<svg width="24" height="24" viewBox="0 0 24 24" fill="none" xmlns="http://www.w3.org/2000/svg">
<path fill-rule="evenodd" clip-rule="evenodd" d="M7.49872 12C7.49872 12.8284 6.82715 13.5 5.99872 13.5C5.17029 13.5 4.49872 12.8284 4.49872 12C4.49872 11.1716 5.17029 10.5 5.99872 10.5C6.82715 10.5 7.49872 11.1716 7.49872 12ZM13.4999 12C13.4999 12.8284 12.8284 13.5 11.9999 13.5C11.1715 13.5 10.4999 12.8284 10.4999 12C10.4999 11.1716 11.1715 10.5 11.9999 10.5C12.8284 10.5 13.4999 11.1716 13.4999 12ZM18.0012 13.5C18.8296 13.5 19.5012 12.8284 19.5012 12C19.5012 11.1716 18.8296 10.5 18.0012 10.5C17.1728 10.5 16.5012 11.1716 16.5012 12C16.5012 12.8284 17.1728 13.5 18.0012 13.5Z" fill="#222230"/>
<zoom style="hover" value="|:#222230"/>
<zoom style="select" value="|:#0E72ED"/>
</svg>
