<svg width="20" height="20" viewBox="0 0 20 20" fill="none" xmlns="http://www.w3.org/2000/svg">
<g clip-path="url(#clip0_845_115790)">
<rect width="20" height="20" rx="10" fill="white"/>
<path d="M3.33325 8.33333V6.66667H1.66659V8.33333H3.33325Z" fill="#909096"/>
<path d="M4.99992 8.33333V6.66667H6.66658V8.33333H4.99992Z" fill="#909096"/>
<path d="M13.3333 8.33333H14.9999V10H13.3333V8.33333Z" fill="#909096"/>
<path d="M13.3333 11.6667H14.9999V13.3333H13.3333V11.6667Z" fill="#909096"/>
<path d="M13.3333 8.33333H11.6666V6.66667H13.3333V8.33333Z" fill="#909096"/>
<path fill-rule="evenodd" clip-rule="evenodd" d="M4.99992 10V8.33333H3.33325V10H1.66659V11.6667H3.33325V13.3333H1.66659V15H3.33325V16.6667H4.99992V15H6.66658V16.6667H8.33325V15H9.99992V16.6667H11.6666V15H13.3333V16.6667H14.9999V15H16.6666V16.6667H18.3333V15H16.6666V13.3333H18.3333V11.6667H16.6666V10H18.3333V8.33333H16.6666V6.66667H18.3333V5H16.6666V3.33333H14.9999V5H13.3333V3.33333H11.6666V5H9.99992V3.33333H8.33325V5H6.66658V6.66667H8.33325V8.33333H6.66658V10H4.99992ZM4.99992 11.6667V10H3.33325V11.6667H4.99992ZM6.66658 11.6667V10H8.33325V11.6667H6.66658ZM6.66658 13.3333V11.6667H4.99992V13.3333H3.33325V15H4.99992V13.3333H6.66658ZM8.33325 13.3333V11.6667H9.99992V13.3333H8.33325ZM11.6666 13.3333V15H9.99992V13.3333H11.6666ZM11.6666 11.6667H9.99992V10H11.6666V11.6667ZM13.3333 11.6667H11.6666V13.3333H13.3333V15H14.9999V13.3333H16.6666V11.6667H14.9999V10H16.6666V8.33333H14.9999V6.66667H16.6666V5H14.9999V6.66667H13.3333V5H11.6666V6.66667H9.99992V5H8.33325V6.66667H9.99992V8.33333H8.33325V10H9.99992V8.33333H11.6666V10H13.3333V11.6667ZM8.33325 13.3333V15H6.66658V13.3333H8.33325Z" fill="#909096"/>
<path fill-rule="evenodd" clip-rule="evenodd" d="M-8.14199e-05 0H-1.66675V1.66667H-8.14199e-05V3.33333H-1.66675V5H-8.14199e-05V6.66667H-1.66675V8.33333H-8.14199e-05V10H-1.66675V11.6667H-8.14199e-05V13.3333H-1.66675V15H-8.14199e-05V16.6667H-1.66675V18.3333H-8.14199e-05V20H1.66659V18.3333H3.33325V20H4.99992V18.3333H6.66658V20H8.33325V18.3333H9.99992V20H11.6666V18.3333H13.3333V20H14.9999V18.3333H16.6666V20H18.3333V18.3333H19.9999V20H21.6666V18.3333H19.9999V16.6667H21.6666V15H19.9999V13.3333H21.6666V11.6667H19.9999V10H21.6666V8.33333H19.9999V6.66667H21.6666V5H19.9999V3.33333H21.6666V1.66667H19.9999V0H18.3333V1.66667H16.6666V0H14.9999V1.66667H13.3333V0H11.6666V1.66667H9.99992V0H8.33325V1.66667H6.66658V0H4.99992V1.66667H3.33325V0H1.66659V1.66667H-8.14199e-05V0ZM1.66659 3.33333V1.66667H3.33325V3.33333H1.66659ZM1.66659 5H-8.14199e-05V3.33333H1.66659V5ZM3.33325 5V3.33333H4.99992V5H3.33325ZM3.33325 6.66667V5H1.66659V6.66667H-8.14199e-05V8.33333H1.66659V10H-8.14199e-05V11.6667H1.66659V13.3333H-8.14199e-05V15H1.66659V16.6667H-8.14199e-05V18.3333H1.66659V16.6667H3.33325V18.3333H4.99992V16.6667H6.66658V18.3333H8.33325V16.6667H9.99992V18.3333H11.6666V16.6667H13.3333V18.3333H14.9999V16.6667H16.6666V18.3333H18.3333V16.6667H19.9999V15H18.3333V13.3333H19.9999V11.6667H18.3333V10H19.9999V8.33333H18.3333V6.66667H19.9999V5H18.3333V3.33333H19.9999V1.66667H18.3333V3.33333H16.6666V1.66667H14.9999V3.33333H13.3333V1.66667H11.6666V3.33333H9.99992V1.66667H8.33325V3.33333H6.66658V1.66667H4.99992V3.33333H6.66658V5H4.99992V6.66667H3.33325Z" fill="#909096"/>
<circle cx="9.99992" cy="9.99992" r="4.91667" fill="white" stroke="#D2D2DE"/>
</g>
<rect x="0.5" y="0.5" width="19" height="19" rx="9.5" stroke="#D2D2DE"/>
<defs>
<clipPath id="clip0_845_115790">
<rect width="20" height="20" rx="10" fill="white"/>
</clipPath>
</defs>
</svg>
