<svg width="24" height="24" viewBox="0 0 24 24" fill="none" xmlns="http://www.w3.org/2000/svg">
<path d="M11.9927 17.1392C14.6294 17.1392 16.2627 15.5571 16.2627 13.2573V6.96582C16.2627 6.55566 15.9917 6.28467 15.5742 6.28467C15.1641 6.28467 14.9077 6.55566 14.9077 6.96582V13.1475C14.9077 14.7808 13.8311 15.894 11.9927 15.894C10.1616 15.894 9.08496 14.7808 9.08496 13.1475V6.96582C9.08496 6.55566 8.81396 6.28467 8.39648 6.28467C7.98633 6.28467 7.72998 6.55566 7.72998 6.96582V13.2573C7.72998 15.5571 9.35596 17.1392 11.9927 17.1392ZM8.16211 19.3877H15.8232C16.0649 19.3877 16.2627 19.2046 16.2627 18.9556C16.2627 18.7065 16.0649 18.5161 15.8232 18.5161H8.16211C7.92773 18.5161 7.72998 18.7065 7.72998 18.9556C7.72998 19.2046 7.92773 19.3877 8.16211 19.3877Z" fill="#222230"/>
<zoom style="hover" value="|:#222230"/>
<zoom style="select" value="|:#0E72ED"/>
</svg>
