<svg width="32" height="32" viewBox="0 0 32 32" fill="none" xmlns="http://www.w3.org/2000/svg">
<mask id="mask0_713_70090" style="mask-type:alpha" maskUnits="userSpaceOnUse" x="8" y="8" width="16" height="16">
<path d="M16 11C16.2761 11 16.5 11.2239 16.5 11.5V15.5H20.5C20.7761 15.5 21 15.7239 21 16C21 16.2761 20.7761 16.5 20.5 16.5H16.5V21C16.5 21.2761 16.2761 21.5 16 21.5C15.7239 21.5 15.5 21.2761 15.5 21V16.5H11.5C11.2239 16.5 11 16.2761 11 16C11 15.7239 11.2239 15.5 11.5 15.5H15.5V11.5C15.5 11.2239 15.7239 11 16 11Z" fill="#000001"/>
<path fill-rule="evenodd" clip-rule="evenodd" d="M8 14.4C8 12.1598 8 11.0397 8.43597 10.184C8.81947 9.43139 9.43139 8.81947 10.184 8.43597C11.0397 8 12.1598 8 14.4 8H17.6C19.8402 8 20.9603 8 21.816 8.43597C22.5686 8.81947 23.1805 9.43139 23.564 10.184C24 11.0397 24 12.1598 24 14.4V17.6C24 19.8402 24 20.9603 23.564 21.816C23.1805 22.5686 22.5686 23.1805 21.816 23.564C20.9603 24 19.8402 24 17.6 24H14.4C12.1598 24 11.0397 24 10.184 23.564C9.43139 23.1805 8.81947 22.5686 8.43597 21.816C8 20.9603 8 19.8402 8 17.6V14.4ZM14.4 9H17.6C18.7366 9 19.5289 9.00078 20.1458 9.05118C20.7509 9.10062 21.0986 9.19279 21.362 9.32698C21.9265 9.6146 22.3854 10.0735 22.673 10.638C22.8072 10.9014 22.8994 11.2491 22.9488 11.8542C22.9992 12.4711 23 13.2634 23 14.4V17.6C23 18.7366 22.9992 19.5289 22.9488 20.1458C22.8994 20.7509 22.8072 21.0986 22.673 21.362C22.3854 21.9265 21.9265 22.3854 21.362 22.673C21.0986 22.8072 20.7509 22.8994 20.1458 22.9488C19.5289 22.9992 18.7366 23 17.6 23H14.4C13.2634 23 12.4711 22.9992 11.8542 22.9488C11.2491 22.8994 10.9014 22.8072 10.638 22.673C10.0735 22.3854 9.6146 21.9265 9.32698 21.362C9.19279 21.0986 9.10062 20.7509 9.05118 20.1458C9.00078 19.5289 9 18.7366 9 17.6V14.4C9 13.2634 9.00078 12.4711 9.05118 11.8542C9.10062 11.2491 9.19279 10.9014 9.32698 10.638C9.6146 10.0735 10.0735 9.6146 10.638 9.32698C10.9014 9.19279 11.2491 9.10062 11.8542 9.05118C12.4711 9.00078 13.2634 9 14.4 9Z" fill="#000001"/>
</mask>
<g mask="url(#mask0_713_70090)">
<rect x="8" y="8" width="16" height="16" fill="#98A0A9"/>
</g>
</svg>
