<svg width="24" height="24" viewBox="0 0 24 24" fill="none" xmlns="http://www.w3.org/2000/svg">
<path d="M15.5285 18.375H12H8.47151C7.5599 18.375 6.91948 18.3744 6.43965 18.3304C5.95704 18.2861 5.73879 18.2042 5.61524 18.1151C5.30095 17.8884 5.09693 17.5395 5.0534 17.1545C5.03628 17.0031 5.07195 16.7727 5.26997 16.3304C5.46685 15.8906 5.78028 15.3321 6.22721 14.5376L9.75569 8.26471C10.2178 7.44319 10.5437 6.86518 10.8264 6.45527C11.1116 6.04185 11.2952 5.88891 11.4351 5.82585C11.7943 5.66399 12.2057 5.66399 12.5649 5.82585C12.7048 5.88891 12.8884 6.04185 13.1736 6.45527C13.4563 6.86518 13.7822 7.44319 14.2443 8.26471L17.7728 14.5376C18.2197 15.3321 18.5332 15.8906 18.73 16.3304C18.9281 16.7727 18.9637 17.0031 18.9466 17.1545C18.9031 17.5395 18.6991 17.8884 18.3848 18.1151C18.2612 18.2042 18.043 18.2861 17.5604 18.3304C17.0805 18.3744 16.4401 18.375 15.5285 18.375Z" stroke="#F7F9FA" stroke-width="1.25"/>
<zoom style="hover" value="|#F7F9FA"/>
<zoom style="select" value="|#FFFFFF"/>
</svg>
