<svg width="33" height="32" viewBox="0 0 33 32" fill="none" xmlns="http://www.w3.org/2000/svg">
<path d="M22.6781 17.8208L18.2036 22.2953C17.8003 22.6986 17.5241 22.9742 17.2929 23.1704C17.0674 23.3618 16.9263 23.4407 16.8077 23.4793C16.5316 23.569 16.2341 23.569 15.9579 23.4793C15.8393 23.4407 15.6982 23.3618 15.4727 23.1704C15.2416 22.9742 14.9653 22.6986 14.562 22.2953L10.0875 17.8208C9.68419 17.4175 9.40863 17.1412 9.21243 16.9101C9.02097 16.6846 8.94208 16.5435 8.90354 16.4249C8.81381 16.1487 8.81381 15.8513 8.90354 15.5751C8.94208 15.4565 9.02097 15.3154 9.21243 15.0899C9.40863 14.8588 9.68418 14.5825 10.0875 14.1792L14.562 9.70468C14.9653 9.30137 15.2416 9.02582 15.4727 8.82962C15.6982 8.63816 15.8393 8.55926 15.9579 8.52072C16.2341 8.43099 16.5316 8.43099 16.8077 8.52072C16.9263 8.55926 17.0674 8.63816 17.2929 8.82962C17.5241 9.02582 17.8003 9.30137 18.2036 9.70468L22.6781 14.1792C23.0814 14.5825 23.357 14.8588 23.5532 15.0899C23.7447 15.3154 23.8236 15.4565 23.8621 15.5751C23.9518 15.8513 23.9518 16.1487 23.8621 16.4249C23.8236 16.5435 23.7447 16.6846 23.5532 16.9101C23.357 17.1412 23.0814 17.4175 22.6781 17.8208Z" stroke="#F7F9FA" stroke-width="1.25"/>
<zoom style="hover" value="|#F7F9FA"/>
<zoom style="select" value="|#FFFFFF"/>
</svg>
