<svg width="24" height="24" viewBox="0 0 24 24" fill="none" xmlns="http://www.w3.org/2000/svg">
<path fill-rule="evenodd" clip-rule="evenodd" d="M17.7757 4.44172C17.3722 4.03825 16.8404 3.92715 16.3926 3.98636C15.9539 4.04438 15.5743 4.25966 15.2984 4.53554L6.26394 13.57C5.89629 13.9377 5.60721 14.3922 5.44528 14.8925L4.71086 17.1615C4.54971 17.6593 4.57931 18.3511 5.0935 18.8653C5.60769 19.3795 6.29944 19.4091 6.79731 19.2479L9.06629 18.5135C9.56658 18.3516 10.0211 18.0625 10.3887 17.6948L19.4232 8.66033C19.6991 8.38445 19.9144 8.00489 19.9724 7.56614C20.0316 7.1184 19.9205 6.58654 19.5171 6.18307L17.7757 4.44172ZM7.83442 17.5984L7.12255 17.8288L7.1124 17.8321L6.94755 17.8854L6.41237 18.0587C6.24354 18.1133 6.08031 18.0843 5.97739 17.9814C5.87446 17.8785 5.84546 17.7152 5.90011 17.5464L6.07334 17.0112L6.12669 16.8464L6.12998 16.8362L6.63453 15.2774C6.73133 14.9784 6.90993 14.6918 7.14782 14.4539L13.2461 8.35562L13.4914 8.60087L15.6032 10.7126L9.50485 16.8109C9.26696 17.0488 8.98042 17.2274 8.68135 17.3242L7.83442 17.5984ZM16.487 9.82876L18.5394 7.77644C18.6459 7.66992 18.7156 7.53532 18.7332 7.40227C18.7508 7.26922 18.7148 7.1486 18.6332 7.06696L16.8918 5.3256C16.8102 5.24396 16.6896 5.20798 16.5565 5.22557C16.4234 5.24317 16.2889 5.3129 16.1823 5.41942L14.322 7.27977L14.13 7.47174L14.1738 7.5155L16.487 9.82876Z" fill="#23D959"/>
</svg>
