<svg width="24" height="24" viewBox="0 0 24 24" fill="none" xmlns="http://www.w3.org/2000/svg">
    <path fill-rule="evenodd" clip-rule="evenodd" d="M13.5603 6.375C12.8674 5.125 11.1352 5.125 10.4423 6.375L5.24581 15.75C4.55294 17 5.41903 18.5625 6.80477 18.5625H17.1978C18.5836 18.5625 19.4497 17 18.7568 15.75L13.5603 6.375ZM12.003 9.375C11.6103 9.375 11.3021 9.71174 11.3368 10.1029L11.6689 13.8467C11.6841 14.0178 11.8274 14.149 11.9992 14.149C12.1707 14.149 12.314 14.0182 12.3295 13.8474L12.6691 10.1042C12.7046 9.71262 12.3962 9.375 12.003 9.375ZM11.4936 16.1606C11.6348 16.2697 11.8048 16.3243 12.0037 16.3243C12.1962 16.3243 12.3631 16.2729 12.5042 16.1703C12.6518 16.0612 12.7256 15.8687 12.7256 15.5928C12.7256 15.3168 12.6518 15.1275 12.5042 15.0249C12.3631 14.9222 12.1962 14.8709 12.0037 14.8709C11.8048 14.8709 11.6348 14.9222 11.4936 15.0249C11.3524 15.1275 11.2818 15.3168 11.2818 15.5928C11.2818 15.8623 11.3524 16.0515 11.4936 16.1606Z" fill="#F21F31"/>
</svg>
