<svg width="16" height="16" viewBox="0 0 16 16" fill="none" xmlns="http://www.w3.org/2000/svg">
<path fill-rule="evenodd" clip-rule="evenodd" d="M8 7C9.10457 7 10 6.10457 10 5C10 3.89543 9.10457 3 8 3C6.89543 3 6 3.89543 6 5C6 6.10457 6.89543 7 8 7ZM8 8C9.65685 8 11 6.65685 11 5C11 3.34315 9.65685 2 8 2C6.34315 2 5 3.34315 5 5C5 6.65685 6.34315 8 8 8ZM3.93792 12.8318C4.07237 12.9673 4.20334 13 4.25 13H8.29129C8.39704 13.3568 8.52906 13.69 8.68319 14H4.25C3.52513 14 2.75 13.2911 2.75 12.4167C2.75 10.6678 5 9.25 8 9.25C8.13705 9.25 8.27253 9.25296 8.4063 9.25877C8.21106 9.44307 8.07198 9.69783 8.04227 10.0123C8.03471 10.0923 8.0282 10.1715 8.0227 10.25C8.01514 10.25 8.00757 10.25 8 10.25C6.64589 10.25 5.52237 10.5718 4.77154 11.0307C4.00994 11.4963 3.75 12.0124 3.75 12.4167C3.75 12.5529 3.81163 12.7046 3.93792 12.8318Z" fill="#F7F9FA"/>
<path fill-rule="evenodd" clip-rule="evenodd" d="M9.05951 9.90237C10.6651 10.1202 12.4969 8.00392 12.5 8C12.5031 8.00392 14.3349 10.1202 15.9405 9.90237C16.3939 13.7771 14.1582 15.5241 12.5559 15.9845C12.519 15.9952 12.481 15.9952 12.4441 15.9845C10.8418 15.5241 8.60606 13.7771 9.05951 9.90237Z" fill="#4F9AF7"/>
</svg>
