<svg width="33" height="32" viewBox="0 0 33 32" fill="none" xmlns="http://www.w3.org/2000/svg">
<path d="M10.2466 21L10.7284 18.5912C10.7939 18.2635 10.8267 18.0996 10.8847 17.9461C10.9462 17.7834 11.0286 17.6294 11.1299 17.488C11.2254 17.3546 11.3436 17.2364 11.58 17.0001V17.0001M10.2466 21L11.58 22.3334M10.2466 21L8.91331 22.3334L9.50875 22.6906C9.89176 22.9204 10.0833 23.0353 10.2828 23.064C10.4588 23.0893 10.6383 23.0672 10.803 22.9999C10.9895 22.9238 11.1475 22.7658 11.4633 22.45L11.58 22.3334M15.5799 21L23.8828 12.6972C24.4768 12.1032 24.7738 11.8061 24.8851 11.4636C24.983 11.1624 24.983 10.8379 24.8851 10.5366C24.7738 10.1941 24.4768 9.89709 23.8828 9.30306L23.2769 8.69721C22.6829 8.10319 22.3859 7.80617 22.0434 7.69489C21.7421 7.597 21.4176 7.597 21.1163 7.69489C20.7739 7.80617 20.4768 8.10319 19.8828 8.69721L11.58 17.0001M15.5799 21V21C15.3436 21.2364 15.2254 21.3545 15.092 21.4501C14.9506 21.5514 14.7966 21.6338 14.6339 21.6953C14.4804 21.7533 14.3165 21.786 13.9888 21.8516L11.58 22.3334M15.5799 21L11.58 17.0001" stroke="#F7F9FA" stroke-width="1.25" stroke-linejoin="round"/>
<zoom style="hover" value="|:#F7F9FA"/>
<zoom style="select" value="|:#FFFFFF"/>
</svg>
