<svg width="32" height="32" xmlns="http://www.w3.org/2000/svg">
<path fill="#F7F9FA" transform="translate(8 8)" d="m13.995,12.3791c-0.175,-0.175 -0.1958,-0.4498 -0.0641,-0.6592c0.6773,-1.0777 1.0691,-2.3531 1.0691,-3.7199c0,-1.3669 -0.3918,-2.6422 -1.0691,-3.7199c-0.1317,-0.2094 -0.1109,-0.4843 0.064,-0.6592c0.2175,-0.2175 0.5784,-0.1923 0.7444,0.0667c0.798,1.2444 1.2607,2.7244 1.2607,4.3124c0,1.588 -0.4627,3.068 -1.2606,4.3124c-0.1661,0.259 -0.5269,0.2842 -0.7444,0.0667z"/>
<path fill="#F7F9FA" transform="translate(8 8)" d="m2.0048,3.6214c0.1749,0.1749 0.1957,0.4497 0.0641,0.6591c-0.67724,1.0776 -1.0689,2.3528 -1.0689,3.7195c0,1.3667 0.39166,2.6419 1.0689,3.7195c0.1316,0.2094 0.1108,0.4842 -0.0641,0.6591c-0.21756,0.2175 -0.57843,0.1923 -0.74446,-0.0667c-0.79775,-1.2443 -1.26034,-2.7241 -1.26034,-4.3119c0,-1.5878 0.46259,-3.0676 1.26036,-4.312c0.16602,-0.2589 0.5269,-0.2841 0.74444,-0.0666z"/>
<path fill="#F7F9FA" transform="translate(8 8)" d="m3.6209,2.005c0.175,0.175 0.4498,0.1958 0.6592,0.0641c1.0777,-0.67734 2.3531,-1.0691 3.7199,-1.0691c1.3667,0 2.6419,0.39166 3.7195,1.0689c0.2094,0.1316 0.4842,0.1108 0.6591,-0.0641c0.2175,-0.21756 0.1923,-0.57843 -0.0667,-0.74446c-1.2443,-0.79775 -2.7241,-1.26034 -4.3119,-1.26034c-1.588,0 -3.068,0.4627 -4.3124,1.26065c-0.259,0.16603 -0.2842,0.52689 -0.0667,0.74435z"/>
<path fill="#F7F9FA" transform="translate(8 8)" d="m12.3786,13.9952c-0.1749,-0.1749 -0.4497,-0.1957 -0.6591,-0.0641c-1.0776,0.6772 -2.3528,1.0689 -3.7195,1.0689c-1.3669,0 -2.6422,-0.3918 -3.7199,-1.0691c-0.2094,-0.1317 -0.4843,-0.1109 -0.6592,0.064c-0.2175,0.2175 -0.1923,0.5784 0.0667,0.7444c1.2444,0.798 2.7244,1.2607 4.3124,1.2607c1.5878,0 3.0676,-0.4626 4.312,-1.2604c0.2589,-0.166 0.2841,-0.5269 0.0666,-0.7444z"/>
<path fill="#F7F9FA" transform="translate(8 8)" d="m11,8c0,1.6569 -1.3431,3 -3,3c-1.6569,0 -3,-1.3431 -3,-3c0,-1.6569 1.3431,-3 3,-3c1.6569,0 3,1.3431 3,3z"/>
<path fill="#F7F9FA" transform="translate(8 8)" d="m14,8c0,3.3137 -2.6863,6 -6,6c-3.3137,0 -6,-2.6863 -6,-6c0,-3.3137 2.6863,-6 6,-6c3.3137,0 6,2.6863 6,6zm-1,0c0,2.7614 -2.2386,5 -5,5c-2.7614,0 -5,-2.2386 -5,-5c0,-2.7614 2.2386,-5 5,-5c2.7614,0 5,2.2386 5,5z" clip-rule="evenodd" fill-rule="evenodd"/>
<zoom style="hover" value="|:#F7F9FA|:#F7F9FA|:#F7F9FA|:#F7F9FA|:#F7F9FA|:#F7F9FA"/>
<zoom style="select" value="|:#FFFFFF|:#FFFFFF|:#FFFFFF|:#FFFFFF|:#FFFFFF|:#FFFFFF"/>
</svg>
