<svg width="33" height="32" viewBox="0 0 33 32" fill="none" xmlns="http://www.w3.org/2000/svg">
<path fill-rule="evenodd" clip-rule="evenodd" d="M16.6025 11.8373C16.3168 11.5517 16.4853 11.1855 16.8954 11.0756L21.6342 9.80121C21.9931 9.69867 22.3154 10.0063 22.2201 10.3798L20.9384 15.1259C20.8285 15.5361 20.455 15.6972 20.1694 15.4189L18.8071 14.0493L14.7979 18.049L16.1633 19.4217C16.4489 19.7073 16.2805 20.0735 15.8703 20.1834L11.1315 21.4578C10.7726 21.5604 10.4504 21.2527 10.5456 20.8792L11.8273 16.1331C11.9372 15.723 12.3107 15.5618 12.5964 15.8401L13.9587 17.2098L17.9678 13.21L16.6025 11.8373Z" fill="#F7F9FA"/>
<zoom style="hover" value="|:#F7F9FA"/>
<zoom style="select" value="|:#FFFFFF"/>
</svg>
