<svg width="24" height="24" viewBox="0 0 24 24" fill="none" xmlns="http://www.w3.org/2000/svg">
<g clip-path="url(#clip0_14_209)">
<path d="M5.53414 15.4625L6.12597 15.6541L5.53414 15.4625L4.7349 17.9318C4.62218 18.28 4.65403 18.7219 4.97168 19.0396C5.28932 19.3572 5.73122 19.3891 6.07946 19.2763L5.887 18.6817L6.07947 19.2763L8.5487 18.4771C8.97478 18.3392 9.37059 18.0896 9.69435 17.7658L14.6103 12.8499C14.7482 12.7119 14.8139 12.5175 14.7877 12.3241C14.7615 12.1308 14.6466 11.9608 14.4769 11.8644L11.2048 10.0065C10.9603 9.86764 10.6531 9.9092 10.4542 10.108L6.24542 14.3169C5.92165 14.6406 5.67205 15.0365 5.53414 15.4625Z" stroke="white" stroke-linejoin="round" stroke-width="1.25"/>
<path clip-rule="evenodd" d="M15.2746 12.0168C15.0101 11.9941 14.7405 12.024 14.5031 12.1428C14.3692 12.2097 14.2493 12.301 14.1493 12.4118L10.6919 10.3789L11.4303 9.77483C11.5611 9.66779 11.6678 9.53429 11.7434 9.3831C11.8621 9.14566 11.8921 8.87603 11.8694 8.61153C11.7783 7.55011 12.139 6.45724 12.9512 5.64498C14.412 4.1842 16.7804 4.1842 18.2412 5.64498C19.702 7.10576 19.702 9.47416 18.2412 10.9349C17.4289 11.7472 16.336 12.1078 15.2746 12.0168Z" fill-rule="evenodd" stroke="white" stroke-linecap="round" stroke-width="1.25"/>
<path d="M16.9851 8.44567C16.7952 8.77202 16.543 9.05778 16.2427 9.28663C15.9424 9.51548 15.6 9.68295 15.235 9.77947" stroke="white" stroke-linecap="round" stroke-width="1.25"/>
</g>
<path clip-rule="evenodd" d="M7.5 4C7.72726 4 7.93502 4.1284 8.03666 4.33167L8.74721 5.75279L10.1683 6.46334C10.3716 6.56498 10.5 6.77274 10.5 7C10.5 7.22726 10.3716 7.43502 10.1683 7.53666L8.74721 8.24721L8.03666 9.66833C7.93502 9.8716 7.72726 10 7.5 10C7.27274 10 7.06498 9.8716 6.96334 9.66833L6.25279 8.24721L4.83167 7.53666C4.6284 7.43502 4.5 7.22726 4.5 7C4.5 6.77274 4.6284 6.56498 4.83167 6.46334L6.25279 5.75279L6.96334 4.33167C7.06498 4.1284 7.27274 4 7.5 4Z" fill="white" fill-rule="evenodd"/>
<path clip-rule="evenodd" d="M17 15C17.2525 15 17.4834 15.1427 17.5963 15.3685L17.9413 16.0587L18.6315 16.4037C18.8573 16.5166 19 16.7475 19 17C19 17.2525 18.8573 17.4834 18.6315 17.5963L17.9413 17.9413L17.5963 18.6315C17.4834 18.8573 17.2525 19 17 19C16.7475 19 16.5166 18.8573 16.4037 18.6315L16.0587 17.9413L15.3685 17.5963C15.1427 17.4834 15 17.2525 15 17C15 16.7475 15.1427 16.5166 15.3685 16.4037L16.0587 16.0587L16.4037 15.3685C16.5166 15.1427 16.7475 15 17 15Z" fill="white" fill-rule="evenodd"/>
<defs>
<clipPath id="clip0_14_209">
<rect height="16" fill="white" transform="translate(4 4)" width="16"/>
</clipPath>
</defs>
<zoom style="hover" value=":none||#F7F9FA|#F7F9FA|#F7F9FA|:#F7F9FA|:#F7F9FA|||:white"/>
<zoom style="select" value=":none||#FFFFFF|#FFFFFF|#FFFFFF|:#FFFFFF|:#FFFFFF|||:white"/>
</svg>
