<svg width="32" height="32" viewBox="0 0 32 32" fill="none" xmlns="http://www.w3.org/2000/svg">
<path d="M13.4615 12.4231C13.4615 11.0252 14.489 9.96154 15.9231 9.96154C17.3571 9.96154 18.3846 11.0252 18.3846 12.4231C18.3846 13.3867 17.8974 14.1684 17.1713 14.573C16.6304 14.8744 16.0372 15.2902 15.5661 15.8361C15.089 16.389 14.6918 17.1324 14.6918 18.0418V18.5769C14.6918 19.2567 15.2428 19.8077 15.9226 19.8077C16.6023 19.8077 17.1533 19.2567 17.1533 18.5769V18.0418C17.1533 17.8873 17.2153 17.6928 17.4297 17.4443C17.6501 17.1888 17.9808 16.9398 18.3693 16.7233C19.8952 15.8731 20.8462 14.2568 20.8462 12.4231C20.8462 9.69415 18.7448 7.5 15.9231 7.5C13.1014 7.5 11 9.69415 11 12.4231C11 13.1028 11.551 13.6538 12.2308 13.6538C12.9105 13.6538 13.4615 13.1028 13.4615 12.4231Z" fill="#F7F9FA"/>
<path d="M15.9231 23.5C16.6028 23.5 17.1538 22.949 17.1538 22.2692C17.1538 21.5895 16.6028 21.0385 15.9231 21.0385C15.2433 21.0385 14.6923 21.5895 14.6923 22.2692C14.6923 22.949 15.2433 23.5 15.9231 23.5Z" fill="#F7F9FA"/>
<zoom style="hover" value="|:#F7F9FA|:#F7F9FA"/>
<zoom style="select" value="|:#FFFFFF|:#FFFFFF"/>
</svg>
