<svg width="32" height="32" viewBox="0 0 32 32" fill="none" xmlns="http://www.w3.org/2000/svg">
<path fill-rule="evenodd" clip-rule="evenodd" d="M19.0003 19H5.5V13H19.0008L19.0011 8.50004L26.5 16L19 23.5L19.0003 19ZM5.5 20.5C4.67157 20.5 4 19.8284 4 19V13C4 12.1716 4.67157 11.5 5.5 11.5H17.5009L17.5011 8.49993C17.5011 7.89324 17.8666 7.34631 18.4272 7.11418C18.9877 6.88205 19.6329 7.01043 20.0618 7.43946L27.5607 14.9395C28.1465 15.5253 28.1464 16.4749 27.5607 17.0607L20.0607 24.5607C19.6316 24.9897 18.9864 25.118 18.4259 24.8858C17.8654 24.6536 17.5 24.1066 17.5 23.4999L17.5002 20.5H5.5Z" fill="#F7F9FA"/>
<zoom style="hover" value="|:#F7F9FA"/>
<zoom style="select" value="|:#FFFFFF"/>
</svg>
