<svg width="33" height="32" viewBox="0 0 33 32" fill="none" xmlns="http://www.w3.org/2000/svg">
<path fill-rule="evenodd" clip-rule="evenodd" d="M23.3932 12.0695L14.9722 20.4901C14.5625 20.8998 14.0584 21.2192 13.5089 21.3971L10.7195 22.2999C10.2146 22.4634 9.53629 22.4272 9.0381 21.929C8.5399 21.4308 8.5037 20.7525 8.66713 20.2476L9.56999 17.4582C9.74785 16.9087 10.0673 16.4046 10.477 15.9949L18.8981 7.57427C19.1821 7.29028 19.5689 7.07301 20.0087 7.01484C20.4567 6.9556 20.9766 7.06773 21.3678 7.45893L23.5086 9.59968C23.8998 9.99088 24.0119 10.5108 23.9527 10.9588C23.8945 11.3986 23.6772 11.7855 23.3932 12.0695ZM19.6968 8.37306L17.8252 10.2445L20.7229 13.1422L22.5944 11.2707C22.7254 11.1397 22.8111 10.9742 22.8328 10.8107C22.8544 10.6471 22.8102 10.4988 22.7098 10.3985L20.569 8.25772C20.4687 8.15735 20.3204 8.11311 20.1568 8.13475C19.9933 8.15638 19.8278 8.2421 19.6968 8.37306ZM11.2758 16.7937L17.0264 11.0433L19.924 13.9409L14.1734 19.6913C13.8809 19.9837 13.5287 20.2033 13.161 20.3223L10.3716 21.2252C10.1641 21.2924 9.96341 21.2567 9.83688 21.1302C9.71035 21.0037 9.6747 20.803 9.74188 20.5954L10.6447 17.806C10.7637 17.4384 10.9833 17.0861 11.2758 16.7937Z" fill="#F7F9FA"/>
<path d="M16.5621 22.7455C16.3624 22.5058 16.0062 22.4734 15.7666 22.6731L15.6115 22.8024C13.9028 24.2263 11.4207 24.2263 9.71189 22.8024L9.63436 22.7378C9.39471 22.5381 9.03856 22.5704 8.83885 22.8101C8.63915 23.0497 8.67153 23.4059 8.91117 23.6056L8.9887 23.6702C11.1164 25.4433 14.207 25.4433 16.3347 23.6702L16.4898 23.541C16.7294 23.3413 16.7618 22.9851 16.5621 22.7455Z" fill="#F7F9FA"/>
<path d="M23.3934 22.2598C23.3934 22.5718 23.1405 22.8246 22.8286 22.8246C22.5166 22.8246 22.2637 22.5718 22.2637 22.2598C22.2637 21.9479 22.5166 21.695 22.8286 21.695C23.1405 21.695 23.3934 21.9479 23.3934 22.2598Z" fill="#F7F9FA"/>
<path d="M18.31 22.2598C18.6219 22.2598 18.8748 22.0069 18.8748 21.695C18.8748 21.383 18.6219 21.1302 18.31 21.1302C17.998 21.1302 17.7451 21.383 17.7451 21.695C17.7451 22.0069 17.998 22.2598 18.31 22.2598Z" fill="#F7F9FA"/>
<path d="M21.1341 21.1302C21.1341 21.4421 20.8812 21.695 20.5693 21.695C20.2573 21.695 20.0044 21.4421 20.0044 21.1302C20.0044 20.8182 20.2573 20.5653 20.5693 20.5653C20.8812 20.5653 21.1341 20.8182 21.1341 21.1302Z" fill="#F7F9FA"/>
<path d="M24.523 24.5191C24.835 24.5191 25.0879 24.2662 25.0879 23.9543C25.0879 23.6423 24.835 23.3895 24.523 23.3895C24.2111 23.3895 23.9582 23.6423 23.9582 23.9543C23.9582 24.2662 24.2111 24.5191 24.523 24.5191Z" fill="#F7F9FA"/>
<zoom style="hover" value="|:#F7F9FA|:#F7F9FA|:#F7F9FA|:#F7F9FA|:#F7F9FA|:#F7F9FA"/>
<zoom style="select" value="|:#FFFFFF|:#FFFFFF|:#FFFFFF|:#FFFFFF|:#FFFFFF"/>
</svg>
