<svg width="32" height="32" viewBox="0 0 32 32" fill="none" xmlns="http://www.w3.org/2000/svg">
<path d="M23.5066 14.9067L23.9495 14.4656L23.9495 14.4656L23.5066 14.9067ZM23.5075 17.0789L23.9506 17.5196V17.5196L23.5075 17.0789ZM17.2656 8.64077L16.8228 9.08183V9.08183L17.2656 8.64077ZM14.6352 11.5V12.125H15.2602V11.5H14.6352ZM14.6352 20.5H15.2602V19.875H14.6352V20.5ZM17.2664 23.3541L16.8233 22.9134V22.9134L17.2664 23.3541ZM23.0638 15.3477C23.4191 15.7044 23.4193 16.2812 23.0643 16.6381L23.9506 17.5196C24.7908 16.6748 24.7903 15.3098 23.9495 14.4656L23.0638 15.3477ZM16.8228 9.08183L23.0638 15.3477L23.9495 14.4656L17.7085 8.19971L16.8228 9.08183ZM15.2602 9.72726C15.2602 8.91156 16.2472 8.50389 16.8228 9.08183L17.7085 8.19971C16.3461 6.8319 14.0102 7.79673 14.0102 9.72726H15.2602ZM15.2602 11.5V9.72726H14.0102V11.5H15.2602ZM9.20468 12.125H14.6352V10.875H9.20468V12.125ZM8.625 12.7047C8.625 12.3845 8.88453 12.125 9.20468 12.125V10.875C8.19418 10.875 7.375 11.6942 7.375 12.7047H8.625ZM8.625 19.2953V12.7047H7.375V19.2953H8.625ZM9.20468 19.875C8.88453 19.875 8.625 19.6155 8.625 19.2953H7.375C7.375 20.3058 8.19418 21.125 9.20468 21.125V19.875ZM14.6352 19.875H9.20468V21.125H14.6352V19.875ZM15.2602 22.2685V20.5H14.0102V22.2685H15.2602ZM16.8233 22.9134C16.2479 23.492 15.2602 23.0845 15.2602 22.2685H14.0102C14.0102 24.1998 16.3477 25.1643 17.7096 23.7949L16.8233 22.9134ZM23.0643 16.6381L16.8233 22.9134L17.7096 23.7949L23.9506 17.5196L23.0643 16.6381Z" fill="#F7F9FA"/>
<zoom style="hover" value="|:#F7F9FA"/>
<zoom style="select" value="|:#FFFFFF"/>
</svg>

