<svg width="32" height="32" viewBox="0 0 32 32" fill="none" xmlns="http://www.w3.org/2000/svg">
<path d="M8.37549 18.0466C7.99951 18.0466 7.6543 17.9543 7.33984 17.7697C7.03223 17.5851 6.78613 17.339 6.60156 17.0314C6.41699 16.7238 6.32471 16.3786 6.32471 15.9958C6.32471 15.6198 6.41699 15.278 6.60156 14.9704C6.78613 14.6559 7.03223 14.4064 7.33984 14.2219C7.6543 14.0373 7.99951 13.945 8.37549 13.945C8.95654 13.945 9.44873 14.1467 9.85205 14.55C10.2554 14.9465 10.457 15.4284 10.457 15.9958C10.457 16.3786 10.3613 16.7238 10.1699 17.0314C9.98535 17.339 9.73584 17.5851 9.42139 17.7697C9.11377 17.9543 8.76514 18.0466 8.37549 18.0466ZM15.9941 18.0466C15.6182 18.0466 15.2729 17.9543 14.9585 17.7697C14.6509 17.5851 14.4048 17.339 14.2202 17.0314C14.0425 16.7238 13.9536 16.3786 13.9536 15.9958C13.9536 15.6198 14.0425 15.278 14.2202 14.9704C14.4048 14.6559 14.6509 14.4064 14.9585 14.2219C15.2729 14.0373 15.6182 13.945 15.9941 13.945C16.5615 13.945 17.0435 14.1467 17.4399 14.55C17.8433 14.9465 18.0449 15.4284 18.0449 15.9958C18.0449 16.3786 17.9526 16.7238 17.7681 17.0314C17.5835 17.339 17.3374 17.5851 17.0298 17.7697C16.7222 17.9543 16.377 18.0466 15.9941 18.0466ZM23.6128 18.0466C23.23 18.0466 22.8813 17.9543 22.5669 17.7697C22.2524 17.5851 22.0029 17.339 21.8184 17.0314C21.6338 16.7238 21.5415 16.3786 21.5415 15.9958C21.5415 15.6198 21.6338 15.278 21.8184 14.9704C22.0029 14.6559 22.2524 14.4064 22.5669 14.2219C22.8813 14.0373 23.23 13.945 23.6128 13.945C24.1802 13.945 24.6621 14.1467 25.0586 14.55C25.4619 14.9465 25.6636 15.4284 25.6636 15.9958C25.6636 16.3786 25.5713 16.7238 25.3867 17.0314C25.2021 17.339 24.9526 17.5851 24.6382 17.7697C24.3306 17.9543 23.9888 18.0466 23.6128 18.0466Z" fill="#F7F9FA"/>
<zoom style="hover" value="|:#F7F9FA"/>
<zoom style="select" value="|:#FFFFFF"/>
</svg>
