<svg width="32" height="32" viewBox="0 0 32 32" fill="none" xmlns="http://www.w3.org/2000/svg">
<path fill-rule="evenodd" clip-rule="evenodd" d="M18.0581 10.4419C17.814 10.1979 17.814 9.80214 18.0581 9.55806C18.3021 9.31398 18.6979 9.31398 18.9419 9.55806L21.4419 12.0581C21.686 12.3021 21.686 12.6979 21.4419 12.9419L18.9419 15.4419C18.6979 15.686 18.3021 15.686 18.0581 15.4419C17.814 15.1979 17.814 14.8021 18.0581 14.5581L19.4911 13.125H15C12.8599 13.125 11.125 14.8599 11.125 17C11.125 19.1401 12.8599 20.875 15 20.875H20C20.3452 20.875 20.625 21.1548 20.625 21.5C20.625 21.8452 20.3452 22.125 20 22.125H15C12.1695 22.125 9.87499 19.8305 9.87499 17C9.87499 14.1695 12.1695 11.875 15 11.875H19.4911L18.0581 10.4419Z" fill="#F7F9FA"/>
<zoom style="hover" value="|:#F7F9FA"/>
<zoom style="select" value="|:#FFFFFF"/>
<zoom style="disable" value="|:#707070"/>
</svg>
