<svg width="32" height="32" viewBox="0 0 32 32" fill="none" xmlns="http://www.w3.org/2000/svg">
<path fill-rule="evenodd" clip-rule="evenodd" d="M15.25 16.4393L12.0303 13.2197C11.7374 12.9268 11.2626 12.9268 10.9697 13.2197C10.6768 13.5126 10.6768 13.9874 10.9697 14.2803L15.4697 18.7803C15.7626 19.0732 16.2374 19.0732 16.5303 18.7803L21.0303 14.2803C21.3232 13.9874 21.3232 13.5126 21.0303 13.2197C20.7374 12.9268 20.2626 12.9268 19.9697 13.2197L16.75 16.4393V7.75C16.75 7.33579 16.4142 7 16 7C15.5858 7 15.25 7.33579 15.25 7.75V16.4393ZM8.5 22.75C8.5 22.3358 8.83579 22 9.25 22H22.75C23.1642 22 23.5 22.3358 23.5 22.75C23.5 23.1642 23.1642 23.5 22.75 23.5H9.25C8.83579 23.5 8.5 23.1642 8.5 22.75Z" fill="#F7F9FA"/>
<zoom style="hover" value="|:#F7F9FA"/>
<zoom style="select" value="|:#FFFFFF"/>
</svg>
