<svg width="24" height="24" viewBox="0 0 24 24" fill="none" xmlns="http://www.w3.org/2000/svg">
<path fill-rule="evenodd" clip-rule="evenodd" d="M22.0579 4.48124C22.6445 5.06626 22.6445 6.01477 22.0579 6.59979L8.11705 20.5043C7.83537 20.7853 7.45335 20.9431 7.055 20.9431L2.25098 20.9431C1.83622 20.9431 1.5 20.6077 1.5 20.1941V15.4026C1.5 15.0053 1.65824 14.6242 1.93991 14.3433L15.8808 0.438766C16.4673 -0.146255 17.4183 -0.146255 18.0049 0.438766L22.0579 4.48124ZM16.9428 1.49804L20.9959 5.54052L18.2546 8.27466L14.2068 4.2269L16.9428 1.49804ZM13.1448 5.28617L17.1925 9.33394L7.055 19.445H3.00196L3.00196 15.4026L13.1448 5.28617Z" fill="#00FF91"/>
<path d="M2.25033 22.4992C1.83612 22.4992 1.50033 22.835 1.50033 23.2492C1.50033 23.6634 1.83612 23.9992 2.25033 23.9992H21.7503C22.1645 23.9992 22.5003 23.6634 22.5003 23.2492C22.5003 22.835 22.1645 22.4992 21.7503 22.4992H2.25033Z" fill="#00FF91"/>
<zoom style="select" value="|:#00FF91|:#00FF91"/>
<zoom style="hover" value="|:#27282B|:#27282B"/>
<zoom style="press" value="|:#27282B|:#27282B"/>
</svg>
