<svg width="16" height="16" viewBox="0 0 16 16" fill="none" xmlns="http://www.w3.org/2000/svg">
<path fill-rule="evenodd" clip-rule="evenodd" d="M3 5C3 3.89543 3.89543 3 5 3H6.5C6.77614 3 7 2.77614 7 2.5C7 2.22386 6.77614 2 6.5 2H5C3.34315 2 2 3.34315 2 5V11C2 12.6569 3.34315 14 5 14H11C12.6569 14 14 12.6569 14 11V9.5C14 9.22386 13.7761 9 13.5 9C13.2239 9 13 9.22386 13 9.5V11C13 12.1046 12.1046 13 11 13H5C3.89543 13 3 12.1046 3 11V5ZM6.64645 8.64645C6.45118 8.84171 6.45118 9.15829 6.64645 9.35355C6.84171 9.54882 7.15829 9.54882 7.35355 9.35355L13 3.70711V6.5C13 6.77614 13.2239 7 13.5 7C13.7761 7 14 6.77614 14 6.5V2.5C14 2.22386 13.7761 2 13.5 2H9.5C9.22386 2 9 2.22386 9 2.5C9 2.77614 9.22386 3 9.5 3H12.2929L6.64645 8.64645Z" fill="#F5F5F5"/>
<zoom style="normal" value=":none|:#FFFFFF89"/>
</svg>
