<svg width="16" height="16" viewBox="0 0 16 16" fill="none" xmlns="http://www.w3.org/2000/svg">
<path fill-rule="evenodd" clip-rule="evenodd" d="M3 12V4C3 2.89543 3.89543 2 5 2H9V4.5C9 5.32843 9.67157 6 10.5 6H13V12C13 13.1046 12.1046 14 11 14H5C3.89543 14 3 13.1046 3 12ZM12.5858 5L10 2.41421V4.5C10 4.77614 10.2239 5 10.5 5H12.5858ZM2 4V12C2 13.6569 3.34315 15 5 15H11C12.6569 15 14 13.6569 14 12V5.82843C14 5.29799 13.7893 4.78929 13.4142 4.41421L10.5858 1.58579C10.2107 1.21071 9.70201 1 9.17157 1H5C3.34315 1 2 2.34315 2 4Z" fill="white" fill-opacity="0.54"/>
</svg>
