<svg width="24" height="24" viewBox="0 0 24 24" fill="none" xmlns="http://www.w3.org/2000/svg">
<rect width="24" height="24" fill="white" fill-opacity="0.09"/>
<path fill-rule="evenodd" clip-rule="evenodd" d="M15.75 8.25H8.25C7.42157 8.25 6.75 8.92157 6.75 9.75V12.9697L8.79917 10.9205C9.53141 10.1883 10.7186 10.1883 11.4508 10.9205L13.875 13.3447L14.0492 13.1705C14.7814 12.4383 15.9686 12.4383 16.7008 13.1705L17.25 13.7197V9.75C17.25 8.92157 16.5784 8.25 15.75 8.25ZM17.1785 14.7088L16.1705 13.7008C15.7312 13.2615 15.0188 13.2615 14.5795 13.7008L14.4053 13.875L14.1402 14.1402L12.5303 15.75H15.75C16.4184 15.75 16.9847 15.3128 17.1785 14.7088ZM11.4697 15.75L13.3447 13.875L10.9205 11.4508C10.4812 11.0115 9.76884 11.0115 9.3295 11.4508L6.75 14.0303V14.25C6.75 15.0784 7.42157 15.75 8.25 15.75H11.4697ZM8.25 7.5C7.00736 7.5 6 8.50736 6 9.75V14.25C6 15.4926 7.00736 16.5 8.25 16.5H15.75C16.9926 16.5 18 15.4926 18 14.25V9.75C18 8.50736 16.9926 7.5 15.75 7.5H8.25ZM15 10.5C15 10.9142 14.6642 11.25 14.25 11.25C13.8358 11.25 13.5 10.9142 13.5 10.5C13.5 10.0858 13.8358 9.75 14.25 9.75C14.6642 9.75 15 10.0858 15 10.5Z" fill="white" fill-opacity="0.54"/>
</svg>
