<svg width="16" height="16" viewBox="0 0 16 16" fill="none" xmlns="http://www.w3.org/2000/svg">
<path fill-rule="evenodd" clip-rule="evenodd" d="M4 11C4.55228 11 5 11.4477 5 12V13.5858L7 11.5858C7.37507 11.2107 7.88378 11 8.41421 11H12C13.1046 11 14 10.1046 14 9V6C14 4.89543 13.1046 4 12 4H4C2.89543 4 2 4.89543 2 6V9C2 10.1046 2.89543 11 4 11ZM1 6V9C1 10.6569 2.34315 12 4 12V14.7929C4 15.2383 4.53857 15.4614 4.85355 15.1464L7.70711 12.2929C7.89464 12.1054 8.149 12 8.41421 12H12C13.6569 12 15 10.6569 15 9V6C15 4.34315 13.6569 3 12 3H4C2.34315 3 1 4.34315 1 6Z" fill="white" fill-opacity="0.54"/>
</svg>
