<svg width="16" height="16" viewBox="0 0 16 16" fill="none" xmlns="http://www.w3.org/2000/svg">
<circle cx="14" cy="3" r="2" fill="#FAAC2A"/>
<path d="M10.625 8V3.625C10.625 2.1725 9.4525 1 8 1C6.5475 1 5.375 2.1725 5.375 3.625V8C5.375 9.4525 6.5475 10.625 8 10.625C9.4525 10.625 10.625 9.4525 10.625 8Z" fill="#F7F9FA"/>
<path d="M12.3663 8.0875C12.375 8.06125 12.375 8.02625 12.375 8C12.375 7.755 12.1825 7.5625 11.9375 7.5625C11.6925 7.5625 11.5 7.755 11.5 8C11.5 9.93375 9.93375 11.5 8 11.5C6.06625 11.5 4.5 9.93375 4.5 8C4.5 7.755 4.3075 7.5625 4.0625 7.5625C3.8175 7.5625 3.625 7.755 3.625 8C3.625 8.02625 3.625 8.06125 3.63375 8.0875C3.66875 10.31 5.375 12.13 7.5625 12.3488V14.125H5.8125C5.5675 14.125 5.375 14.3175 5.375 14.5625C5.375 14.8075 5.5675 15 5.8125 15H10.1875C10.4325 15 10.625 14.8075 10.625 14.5625C10.625 14.3175 10.4325 14.125 10.1875 14.125H8.4375V12.3488C10.625 12.13 12.3313 10.31 12.3663 8.0875Z" fill="#F7F9FA"/>
</svg>
