<svg width="120" height="120" viewBox="0 0 120 120" fill="none" xmlns="http://www.w3.org/2000/svg">
<path fill-rule="evenodd" clip-rule="evenodd" d="M23.7262 13.6431C22.5 16.0496 22.5 19.1999 22.5 25.5005V42.0005C22.5 48.3011 22.5 51.4514 23.7262 53.8579C24.8048 55.9747 26.5258 57.6957 28.6426 58.7743C31.0491 60.0005 34.1994 60.0005 40.5 60.0005H79.5C85.8006 60.0005 88.9509 60.0005 91.3574 58.7743C93.4742 57.6957 95.1952 55.9747 96.2738 53.8579C97.5 51.4514 97.5 48.3011 97.5 42.0005V25.5005C97.5 19.1999 97.5 16.0496 96.2738 13.6431C95.1952 11.5263 93.4742 9.80524 91.3574 8.72666C88.9509 7.50049 85.8006 7.50049 79.5 7.50049H40.5C34.1994 7.50049 31.0491 7.50049 28.6426 8.72666C26.5258 9.80524 24.8048 11.5263 23.7262 13.6431ZM68.5714 26.7969C68.5714 31.5308 64.7339 35.3683 60 35.3683C55.2661 35.3683 51.4286 31.5308 51.4286 26.7969C51.4286 22.063 55.2661 18.2255 60 18.2255C64.7339 18.2255 68.5714 22.063 68.5714 26.7969ZM45 48.2255C45 43.4916 51.4286 39.6541 60 39.6541C68.5714 39.6541 75 43.4916 75 48.2255C75 50.5924 72.7854 52.5112 70.7143 52.5112H49.2857C47.2146 52.5112 45 50.5924 45 48.2255Z" fill="white"/>
<path d="M60 95.3683C64.7339 95.3683 68.5714 91.5308 68.5714 86.7969C68.5714 82.063 64.7339 78.2255 60 78.2255C55.2661 78.2255 51.4286 82.063 51.4286 86.7969C51.4286 91.5308 55.2661 95.3683 60 95.3683Z" fill="white"/>
<path d="M60 99.6541C51.4286 99.6541 45 103.492 45 108.225C45 110.592 47.2146 112.511 49.2857 112.511H70.7143C72.7854 112.511 75 110.592 75 108.225C75 103.492 68.5714 99.6541 60 99.6541Z" fill="white"/>
<path d="M22.5 84.6433C27.2339 84.6433 31.0714 80.8058 31.0714 76.0719C31.0714 71.338 27.2339 67.5005 22.5 67.5005C17.7661 67.5005 13.9286 71.338 13.9286 76.0719C13.9286 80.8058 17.7661 84.6433 22.5 84.6433Z" fill="white"/>
<path d="M22.5 88.9291C13.9286 88.9291 7.5 92.7666 7.5 97.5005C7.5 99.8674 9.71465 101.786 11.7857 101.786H33.2143C35.2854 101.786 37.5 99.8674 37.5 97.5005C37.5 92.7666 31.0714 88.9291 22.5 88.9291Z" fill="white"/>
<path d="M97.5 84.6433C102.234 84.6433 106.071 80.8058 106.071 76.0719C106.071 71.338 102.234 67.5005 97.5 67.5005C92.7661 67.5005 88.9286 71.338 88.9286 76.0719C88.9286 80.8058 92.7661 84.6433 97.5 84.6433Z" fill="white"/>
<path d="M97.5 88.9291C88.9286 88.9291 82.5 92.7666 82.5 97.5005C82.5 99.8674 84.7146 101.786 86.7857 101.786H108.214C110.285 101.786 112.5 99.8674 112.5 97.5005C112.5 92.7666 106.071 88.9291 97.5 88.9291Z" fill="white"/>
</svg>
