<svg width="14" height="14" viewBox="0 0 14 14" fill="none" xmlns="http://www.w3.org/2000/svg">
<path fill-rule="evenodd" clip-rule="evenodd" d="M8.56001 1.375C7.86714 0.125001 6.13496 0.124999 5.44209 1.375L0.245567 10.75C-0.447304 12 0.418782 13.5625 1.80452 13.5625H12.1976C13.5833 13.5625 14.4494 12 13.7565 10.75L8.56001 1.375ZM7.00274 4.375C6.61004 4.375 6.30185 4.71174 6.33654 5.10291L6.66866 8.8467C6.68384 9.01781 6.82718 9.149 6.99896 9.149C7.1705 9.149 7.31372 9.01819 7.32922 8.84736L7.66881 5.10424C7.70434 4.71262 7.39597 4.375 7.00274 4.375ZM6.49335 11.1606C6.63451 11.2697 6.80456 11.3243 7.00347 11.3243C7.19597 11.3243 7.36281 11.2729 7.50397 11.1703C7.65156 11.0612 7.72535 10.8687 7.72535 10.5928C7.72535 10.3168 7.65156 10.1275 7.50397 10.0249C7.36281 9.92221 7.19597 9.87088 7.00347 9.87088C6.80456 9.87088 6.63451 9.92221 6.49335 10.0249C6.35218 10.1275 6.2816 10.3168 6.2816 10.5928C6.2816 10.8623 6.35218 11.0515 6.49335 11.1606Z" fill="#FF2638"/>
</svg>
