<svg width="24" height="24" viewBox="0 0 24 24" fill="none" xmlns="http://www.w3.org/2000/svg">
<path fill-rule="evenodd" clip-rule="evenodd" d="M22 12C22 6.47715 17.5228 2 12 2C6.47715 2 2 6.47715 2 12C2 17.5228 6.47715 22 12 22C17.5228 22 22 17.5228 22 12ZM12.625 17C12.625 17.3452 12.3452 17.625 12 17.625C11.6548 17.625 11.375 17.3452 11.375 17C11.375 16.6548 11.6548 16.375 12 16.375C12.3452 16.375 12.625 16.6548 12.625 17ZM12 6.375C11.6548 6.375 11.375 6.65482 11.375 7V13.875C11.375 14.2202 11.6548 14.5 12 14.5C12.3452 14.5 12.625 14.2202 12.625 13.875V7C12.625 6.65482 12.3452 6.375 12 6.375Z" fill="#B36200"/>
</svg>
