<svg width="16" height="16" viewBox="0 0 16 16" fill="none" xmlns="http://www.w3.org/2000/svg">
<path fill-rule="evenodd" clip-rule="evenodd" d="M14 8C14 4.7 11.3 2 8 2C4.7 2 2 4.7 2 8C2 11.3 4.7 14 8 14C11.3 14 14 11.3 14 8ZM1 8C1 4.1 4.1 1 8 1C11.9 1 15 4.1 15 8C15 11.9 11.9 15 8 15C4.1 15 1 11.9 1 8ZM8 5C7.17157 5 6.5 5.67157 6.5 6.5C6.5 6.77613 6.27615 6.99999 6.00002 6.99999C5.72388 6.99999 5.50003 6.77613 5.50003 6.5H5.5C5.5 5.11929 6.61929 4 8 4H8.1459C9.45208 4 10.5 5.07744 10.5 6.37148C10.5 7.24281 10.0088 8.05464 9.22361 8.44721L9.11803 8.5C8.73926 8.68939 8.5 9.07652 8.5 9.5C8.5 9.77613 8.27615 9.99999 8.00002 9.99999C7.72388 9.99999 7.50003 9.77613 7.50003 9.5H7.5C7.5 8.69775 7.95326 7.96435 8.67082 7.60557L8.77639 7.55279C9.21697 7.3325 9.5 6.87057 9.5 6.37148C9.5 5.61755 8.8877 5 8.1459 5H8ZM8.62293 11.5C8.62293 11.8441 8.34403 12.123 7.99997 12.123C7.65592 12.123 7.37701 11.8441 7.37701 11.5C7.37701 11.156 7.65592 10.877 7.99997 10.877C8.34403 10.877 8.62293 11.156 8.62293 11.5Z" fill="#040413" fill-opacity="0.56"/>
<zoom style="dark" value="|:#747487"/>
</svg>
