<svg width="56" height="56" viewBox="0 0 56 56" fill="none" xmlns="http://www.w3.org/2000/svg">
<circle cx="28" cy="28" r="28" fill="#444B53"/>
<path fill-rule="evenodd" clip-rule="evenodd" d="M24.5 19C24.5 18.1716 23.8284 17.5 23 17.5C22.1716 17.5 21.5 18.1716 21.5 19V37C21.5 37.8284 22.1716 38.5 23 38.5C23.8284 38.5 24.5 37.8284 24.5 37V19ZM29 21.5C29.8284 21.5 30.5 22.1716 30.5 23V33C30.5 33.8284 29.8284 34.5 29 34.5C28.1716 34.5 27.5 33.8284 27.5 33V23C27.5 22.1716 28.1716 21.5 29 21.5ZM35 25.5C35.8284 25.5 36.5 26.1716 36.5 27V29C36.5 29.8284 35.8284 30.5 35 30.5C34.1716 30.5 33.5 29.8284 33.5 29V27C33.5 26.1716 34.1716 25.5 35 25.5Z" fill="#F7F9FA"/>
</svg>
