<svg width="56" height="56" viewBox="0 0 56 56" fill="none" xmlns="http://www.w3.org/2000/svg">
<circle cx="28" cy="28" fill="#F7F9FA" r="28"/>
<path clip-rule="evenodd" d="M24.5 18.9999C24.5 18.1715 23.8284 17.4999 23 17.4999C22.1716 17.4999 21.5 18.1715 21.5 18.9999V36.9999C21.5 37.8284 22.1716 38.4999 23 38.4999C23.8284 38.4999 24.5 37.8284 24.5 36.9999V18.9999ZM29 21.4999C29.8284 21.4999 30.5 22.1715 30.5 22.9999V32.9999C30.5 33.8284 29.8284 34.4999 29 34.4999C28.1716 34.4999 27.5 33.8284 27.5 32.9999V22.9999C27.5 22.1715 28.1716 21.4999 29 21.4999ZM35 25.4999C35.8284 25.4999 36.5 26.1715 36.5 26.9999V28.9999C36.5 29.8284 35.8284 30.4999 35 30.4999C34.1716 30.4999 33.5 29.8284 33.5 28.9999V26.9999C33.5 26.1715 34.1716 25.4999 35 25.4999Z" fill="#98A0A9" fill-rule="evenodd"/>
<zoom style="dark" value=":none|:#252A30|:#444B53"/>
</svg>
