<svg width="14" height="14" viewBox="0 0 14 14" fill="none" xmlns="http://www.w3.org/2000/svg">
<path fill-rule="evenodd" clip-rule="evenodd" d="M6.70502 9.06976C6.69883 9.06424 6.69276 9.05851 6.68682 9.05258C6.68182 9.04759 6.67697 9.04251 6.67227 9.03734L3.19148 5.5566C3.02063 5.38575 3.02084 5.10895 3.19195 4.93836C3.36306 4.76776 3.64028 4.76797 3.81114 4.93882L6.99749 8.12514L10.1918 4.94089C10.3629 4.7703 10.6402 4.77041 10.8112 4.94114C10.9822 5.11186 10.9821 5.38854 10.811 5.55913L7.37362 8.98568C7.35675 9.01205 7.33677 9.03701 7.31368 9.06003C7.14604 9.22716 6.87656 9.23036 6.70502 9.06976Z" fill="white"/>
</svg>
