<svg width="16" height="16" viewBox="0 0 16 16" fill="none" xmlns="http://www.w3.org/2000/svg">
<path d="M3.5 2.5C3.5 1.11929 4.61929 0 6 0H13.5C14.8807 0 16 1.11929 16 2.5V13.5C16 14.8807 14.8807 16 13.5 16H6C4.61929 16 3.5 14.8807 3.5 13.5V11.5C3.5 11.2239 3.72386 11 4 11C4.27614 11 4.5 11.2239 4.5 11.5V13.5C4.5 14.3284 5.17157 15 6 15H13.5C14.3284 15 15 14.3284 15 13.5V2.5C15 1.67157 14.3284 1 13.5 1H6C5.17157 1 4.5 1.67157 4.5 2.5V4.5C4.5 4.77614 4.27614 5 4 5C3.72386 5 3.5 4.77614 3.5 4.5V2.5Z" fill="#6E7680"/>
<path d="M7.14645 4.64644C7.34171 4.45118 7.6583 4.45119 7.85356 4.64645L10.8536 7.64651C11.0488 7.84178 11.0488 8.15836 10.8535 8.35362L7.85355 11.3536C7.65829 11.5488 7.3417 11.5488 7.14644 11.3535C6.95118 11.1583 6.95119 10.8417 7.14645 10.6464L9.29294 8.5H0.5C0.223858 8.5 0 8.27614 0 8C0 7.72386 0.223858 7.5 0.5 7.5H9.29285L7.14644 5.35355C6.95118 5.15829 6.95119 4.8417 7.14645 4.64644Z" fill="#6E7680"/>
</svg>
