<svg width="21" height="20" viewBox="0 0 21 20" fill="none" xmlns="http://www.w3.org/2000/svg">
<path d="M20.384 10C20.384 15.5228 15.9069 20 10.384 20C4.86119 20 0.384033 15.5228 0.384033 10C0.384033 4.47715 4.86119 0 10.384 0C15.9069 0 20.384 4.47715 20.384 10Z" fill="#FFD700"/>
<path d="M10.3828 12.0025C10.1374 12.0025 9.93266 11.8151 9.91097 11.5706L9.43653 6.22236C9.38696 5.66356 9.82723 5.1825 10.3882 5.1825C10.95 5.1825 11.3905 5.6648 11.3398 6.22427L10.8546 11.5716C10.8325 11.8156 10.6279 12.0025 10.3828 12.0025ZM10.3893 15.11C10.1051 15.11 9.8622 15.0321 9.66053 14.8762C9.45887 14.7204 9.35803 14.45 9.35803 14.065C9.35803 13.6708 9.45887 13.4004 9.66053 13.2537C9.8622 13.1071 10.1051 13.0337 10.3893 13.0337C10.6643 13.0337 10.9026 13.1071 11.1043 13.2537C11.3151 13.4004 11.4205 13.6708 11.4205 14.065C11.4205 14.4592 11.3151 14.7342 11.1043 14.89C10.9026 15.0367 10.6643 15.11 10.3893 15.11Z" fill="#B36200"/>
</svg>
