<svg width="16" height="16" viewBox="0 0 16 16" fill="none" xmlns="http://www.w3.org/2000/svg">
<path fill-rule="evenodd" clip-rule="evenodd" d="M10 5C10 6.10457 9.10457 7 8 7C6.89543 7 6 6.10457 6 5C6 3.89543 6.89543 3 8 3C9.10457 3 10 3.89543 10 5ZM11 5C11 6.65685 9.65685 8 8 8C6.34315 8 5 6.65685 5 5C5 3.34315 6.34315 2 8 2C9.65685 2 11 3.34315 11 5ZM4.25 13C4.18489 13 4.04823 12.961 3.91863 12.8373C3.79551 12.7198 3.75 12.5944 3.75 12.5C3.75 12.1686 3.97795 11.6918 4.75113 11.2441C5.5057 10.8071 6.63683 10.5 8 10.5C9.36317 10.5 10.4943 10.8071 11.2489 11.2441C12.022 11.6918 12.25 12.1686 12.25 12.5C12.25 12.5944 12.2045 12.7198 12.0814 12.8373C11.9518 12.961 11.8151 13 11.75 13H4.25ZM2.75 12.5C2.75 10.8431 5 9.5 8 9.5C11 9.5 13.25 10.8431 13.25 12.5C13.25 13.3284 12.4749 14 11.75 14H4.25C3.52513 14 2.75 13.3284 2.75 12.5Z" fill="#6E7680"/>
<zoom style="dark" value="|:#2D8CFF" />
</svg>
