<svg width="16" height="16" viewBox="0 0 16 16" fill="none" xmlns="http://www.w3.org/2000/svg">
<path d="M15.6888 11.2375C15.8864 11.5142 15.8469 11.8698 15.6098 12.0674C15.3331 12.265 14.9379 12.2255 14.7404 11.9884L13.3572 10.2101L12.0136 11.9489C11.816 12.2255 11.4208 12.2255 11.1442 12.0279C10.8676 11.8303 10.828 11.4746 11.0256 11.198L12.6064 9.14305L11.0256 7.0881C10.828 6.81147 10.9071 6.41629 11.1442 6.2187C11.4208 6.0211 11.816 6.10014 12.0136 6.33725L13.3572 8.11558L14.7404 6.41629C14.9379 6.13966 15.2936 6.10014 15.6098 6.29773C15.8864 6.49532 15.8864 6.89051 15.6888 7.16714L14.1476 9.18257L15.6888 11.2375ZM8.49645 11.0004C7.46897 11.0004 6.63909 10.2101 6.63909 9.18257C6.63909 8.19461 7.46897 7.36473 8.49645 7.36473C9.52393 7.36473 10.3538 8.19461 10.3538 9.18257C10.3143 10.2101 9.48441 11.0004 8.49645 11.0004ZM3.04291 11.0004C2.01544 11.0004 1.18555 10.2101 1.18555 9.18257C1.18555 8.19461 2.01544 7.36473 3.04291 7.36473C4.07039 7.36473 4.90028 8.19461 4.90028 9.18257C4.90028 10.2101 4.07039 11.0004 3.04291 11.0004ZM8.49645 6.17918C7.35042 6.17918 6.32294 6.81147 5.8092 7.75991C5.29546 6.81147 4.26798 6.17918 3.08243 6.17918C2.3711 6.17918 1.73881 6.41629 1.22507 6.77195V4.24278C1.22507 3.92663 0.948441 3.65 0.632294 3.65C0.276629 3.65 0 3.92663 0 4.24278V9.22209C0.0395184 10.8819 1.38314 12.186 3.04291 12.186C4.22847 12.186 5.25594 11.5142 5.76968 10.5657C6.28342 11.5142 7.3109 12.186 8.45693 12.186C10.1562 12.186 11.5394 10.8423 11.5394 9.14305C11.5789 7.5228 10.1957 6.17918 8.49645 6.17918Z" fill="#0071F7"/>
</svg>
