<svg width="17" height="16" viewBox="0 0 17 16" fill="none" xmlns="http://www.w3.org/2000/svg">
<path fill-rule="evenodd" clip-rule="evenodd" d="M16 1.59518L15.0154 0.610598C14.6064 0.201613 14.0698 0 13.5381 0C13.0064 0 12.4698 0.201613 12.0612 0.610155C7.97981 4.69159 7.97936 11.2987 12.0612 15.3806C12.0763 15.3957 12.0914 15.4107 12.1064 15.4258C12.9089 16.2185 14.2174 16.1782 15.015 15.3806L16 14.3956C16.5437 13.8519 16.5437 12.9701 16 12.4264L15.1351 11.5615C14.7429 11.1693 14.2121 10.9496 13.6578 10.95L12.8606 10.9496C12.6701 10.9496 12.4888 10.8738 12.3595 10.7444C12.2908 10.6757 12.2367 10.5915 12.2044 10.4963C11.6461 8.87627 11.6456 7.11493 12.2039 5.49494C12.2987 5.21933 12.5695 5.04165 12.861 5.04165H13.6578C14.2116 5.04165 14.7429 4.82142 15.1346 4.42972L16 3.56433C16.5437 3.02064 16.5437 2.13887 16 1.59518Z" fill="#73737B"/>
<path d="M6 8L1.5 8" stroke="#73737B" stroke-width="1.25" stroke-linecap="round"/>
<path d="M4.5 10L6.5 8L4.5 6" stroke="#73737B" stroke-width="1.25" stroke-linecap="round" stroke-linejoin="round"/>
</svg>
