<svg width="112" height="12" viewBox="0 0 112 12" fill="none" xmlns="http://www.w3.org/2000/svg">
<path d="M0.988281 1.24951V9H1.95508V6.23389H3.90479C5.36035 6.23389 6.39697 5.20801 6.39697 3.75781C6.39697 2.28076 5.38184 1.24951 3.91553 1.24951H0.988281ZM1.95508 2.10889H3.66309C4.78564 2.10889 5.40332 2.69434 5.40332 3.75781C5.40332 4.78369 4.76416 5.37451 3.66309 5.37451H1.95508V2.10889ZM10.0815 9.10205C11.7305 9.10205 12.751 7.96338 12.751 6.10498C12.751 4.24121 11.7305 3.10791 10.0815 3.10791C8.43262 3.10791 7.41211 4.24121 7.41211 6.10498C7.41211 7.96338 8.43262 9.10205 10.0815 9.10205ZM10.0815 8.26953C8.98584 8.26953 8.36816 7.47461 8.36816 6.10498C8.36816 4.72998 8.98584 3.94043 10.0815 3.94043C11.1772 3.94043 11.7949 4.72998 11.7949 6.10498C11.7949 7.47461 11.1772 8.26953 10.0815 8.26953ZM21.2695 3.20996H20.3403L19.2017 7.83984H19.1157L17.8213 3.20996H16.9351L15.6406 7.83984H15.5547L14.416 3.20996H13.4814L15.1035 9H16.0381L17.3271 4.52051H17.4131L18.7075 9H19.6475L21.2695 3.20996ZM24.5996 3.92432C25.5181 3.92432 26.1304 4.60107 26.1519 5.62695H22.9614C23.0312 4.60107 23.6758 3.92432 24.5996 3.92432ZM26.125 7.50146C25.8833 8.01172 25.3784 8.28564 24.6318 8.28564C23.6489 8.28564 23.0098 7.56055 22.9614 6.4165V6.37354H27.124V6.01904C27.124 4.21973 26.1733 3.10791 24.6104 3.10791C23.0205 3.10791 22 4.28955 22 6.11035C22 7.94189 23.0044 9.10205 24.6104 9.10205C25.8779 9.10205 26.7803 8.48975 27.0488 7.50146H26.125ZM28.5742 9H29.498V5.41211C29.498 4.5957 30.1372 4.00488 31.0181 4.00488C31.2007 4.00488 31.5337 4.03711 31.6089 4.05859V3.13477C31.4907 3.11865 31.2974 3.10791 31.147 3.10791C30.3789 3.10791 29.7129 3.50537 29.541 4.06934H29.4551V3.20996H28.5742V9ZM34.9121 3.92432C35.8306 3.92432 36.4429 4.60107 36.4644 5.62695H33.2739C33.3438 4.60107 33.9883 3.92432 34.9121 3.92432ZM36.4375 7.50146C36.1958 8.01172 35.6909 8.28564 34.9443 8.28564C33.9614 8.28564 33.3223 7.56055 33.2739 6.4165V6.37354H37.4365V6.01904C37.4365 4.21973 36.4858 3.10791 34.9229 3.10791C33.333 3.10791 32.3125 4.28955 32.3125 6.11035C32.3125 7.94189 33.3169 9.10205 34.9229 9.10205C36.1904 9.10205 37.0928 8.48975 37.3613 7.50146H36.4375ZM41.0298 9.10205C41.8301 9.10205 42.5176 8.7207 42.8828 8.07617H42.9688V9H43.8496V0.911133H42.9258V4.12305H42.8452C42.5176 3.48926 41.8354 3.10791 41.0298 3.10791C39.5581 3.10791 38.5967 4.28955 38.5967 6.10498C38.5967 7.92578 39.5474 9.10205 41.0298 9.10205ZM41.2446 3.94043C42.292 3.94043 42.9473 4.77832 42.9473 6.10498C42.9473 7.44238 42.2974 8.26953 41.2446 8.26953C40.1865 8.26953 39.5527 7.4585 39.5527 6.10498C39.5527 4.75684 40.1919 3.94043 41.2446 3.94043ZM51.627 9.10205C53.0933 9.10205 54.0547 7.91504 54.0547 6.10498C54.0547 4.28418 53.0986 3.10791 51.627 3.10791C50.832 3.10791 50.1284 3.5 49.8115 4.12305H49.7256V0.911133H48.8018V9H49.6826V8.07617H49.7686C50.1338 8.7207 50.8213 9.10205 51.627 9.10205ZM51.4121 3.94043C52.4702 3.94043 53.0986 4.75146 53.0986 6.10498C53.0986 7.4585 52.4702 8.26953 51.4121 8.26953C50.3594 8.26953 49.7041 7.44238 49.7041 6.10498C49.7041 4.76758 50.3594 3.94043 51.4121 3.94043ZM55.7842 11.0947C56.8101 11.0947 57.272 10.6973 57.7661 9.35449L60.0273 3.20996H59.0444L57.46 7.97412H57.374L55.7842 3.20996H54.7852L56.9282 9.00537L56.8208 9.34912C56.5791 10.0474 56.2891 10.2998 55.7573 10.2998C55.6284 10.2998 55.4834 10.2944 55.3706 10.2729V11.0625C55.4995 11.084 55.6606 11.0947 55.7842 11.0947ZM67.7402 1.06689C65.5488 1.06689 64.1846 2.62988 64.1846 5.12207C64.1846 7.60352 65.5166 9.18262 67.7402 9.18262C69.9531 9.18262 71.2959 7.59814 71.2959 5.12207C71.2959 2.63525 69.9424 1.06689 67.7402 1.06689ZM67.7402 1.9585C69.3247 1.9585 70.3022 3.18311 70.3022 5.12207C70.3022 7.04492 69.3301 8.29102 67.7402 8.29102C66.1289 8.29102 65.1782 7.04492 65.1782 5.12207C65.1782 3.18311 66.1611 1.9585 67.7402 1.9585ZM73.2402 1.71143V3.20996H72.3057V3.9834H73.2402V7.49609C73.2402 8.60254 73.7183 9.04297 74.9106 9.04297C75.0933 9.04297 75.2705 9.02148 75.4531 8.98926V8.21045C75.2812 8.22656 75.1899 8.23193 75.0234 8.23193C74.4219 8.23193 74.1641 7.94189 74.1641 7.25977V3.9834H75.4531V3.20996H74.1641V1.71143H73.2402ZM77.2363 1.71143V3.20996H76.3018V3.9834H77.2363V7.49609C77.2363 8.60254 77.7144 9.04297 78.9067 9.04297C79.0894 9.04297 79.2666 9.02148 79.4492 8.98926V8.21045C79.2773 8.22656 79.186 8.23193 79.0195 8.23193C78.418 8.23193 78.1602 7.94189 78.1602 7.25977V3.9834H79.4492V3.20996H78.1602V1.71143H77.2363ZM83.0693 3.92432C83.9878 3.92432 84.6001 4.60107 84.6216 5.62695H81.4312C81.501 4.60107 82.1455 3.92432 83.0693 3.92432ZM84.5947 7.50146C84.353 8.01172 83.8481 8.28564 83.1016 8.28564C82.1187 8.28564 81.4795 7.56055 81.4312 6.4165V6.37354H85.5938V6.01904C85.5938 4.21973 84.6431 3.10791 83.0801 3.10791C81.4902 3.10791 80.4697 4.28955 80.4697 6.11035C80.4697 7.94189 81.4741 9.10205 83.0801 9.10205C84.3477 9.10205 85.25 8.48975 85.5186 7.50146H84.5947ZM87.0439 9H87.9678V5.41211C87.9678 4.5957 88.6069 4.00488 89.4878 4.00488C89.6704 4.00488 90.0034 4.03711 90.0786 4.05859V3.13477C89.9604 3.11865 89.7671 3.10791 89.6167 3.10791C88.8486 3.10791 88.1826 3.50537 88.0107 4.06934H87.9248V3.20996H87.0439V9ZM91.2979 9.05371C91.6846 9.05371 91.9961 8.73682 91.9961 8.35547C91.9961 7.96875 91.6846 7.65723 91.2979 7.65723C90.9165 7.65723 90.5996 7.96875 90.5996 8.35547C90.5996 8.73682 90.9165 9.05371 91.2979 9.05371ZM95.584 8.29102C94.9126 8.29102 94.4131 7.94727 94.4131 7.35645C94.4131 6.77637 94.7998 6.47021 95.6807 6.41113L97.2383 6.30908V6.84082C97.2383 7.66797 96.5347 8.29102 95.584 8.29102ZM95.4121 9.10205C96.1855 9.10205 96.8193 8.76367 97.1953 8.146H97.2812V9H98.1621V5.03613C98.1621 3.83301 97.3726 3.10791 95.96 3.10791C94.7246 3.10791 93.8115 3.72021 93.688 4.64941H94.6226C94.7515 4.19287 95.2349 3.92969 95.9277 3.92969C96.7925 3.92969 97.2383 4.32178 97.2383 5.03613V5.5625L95.5679 5.66455C94.2197 5.74512 93.457 6.34131 93.457 7.37793C93.457 8.43604 94.2896 9.10205 95.4121 9.10205ZM99.8916 9H100.815V3.20996H99.8916V9ZM100.354 2.09277C100.708 2.09277 100.998 1.80273 100.998 1.44824C100.998 1.09375 100.708 0.803711 100.354 0.803711C99.999 0.803711 99.709 1.09375 99.709 1.44824C99.709 1.80273 99.999 2.09277 100.354 2.09277ZM104.296 5.86865V1.99072H105.805V1.24951H101.97V1.99072H103.474V5.86865H104.296ZM111.59 5.86865V1.24951H110.628L109.184 4.57422H109.13L107.685 1.24951H106.724V5.86865H107.486V2.65674H107.535L108.861 5.68604H109.452L110.779 2.65674H110.827V5.86865H111.59Z" fill="#040413" fill-opacity="0.56"/>
<zoom style="dark" value="|:#FFFFFF89"/>
</svg>
