<svg width="24" height="24" viewBox="0 0 24 24" fill="none" xmlns="http://www.w3.org/2000/svg">
<path d="M7.74686 7.12814C7.576 6.95729 7.299 6.95729 7.12814 7.12814C6.95729 7.299 6.95729 7.576 7.12814 7.74686L11.6313 12.25L7.12814 16.7531C6.95729 16.924 6.95729 17.201 7.12814 17.3719C7.299 17.5427 7.576 17.5427 7.74686 17.3719L12.25 12.8687L16.7531 17.3719C16.924 17.5427 17.201 17.5427 17.3719 17.3719C17.5427 17.201 17.5427 16.924 17.3719 16.7531L12.8687 12.25L17.3719 7.74686C17.5427 7.576 17.5427 7.299 17.3719 7.12814C17.201 6.95729 16.924 6.95729 16.7531 7.12814L12.25 11.6313L7.74686 7.12814Z" fill="#000001"/>
<zoom style="dark" value="|:#F7F9FA"/>
</svg>
