<svg width="32" height="32" viewBox="0 0 32 32" fill="none" xmlns="http://www.w3.org/2000/svg">
<path opacity="0.1" d="M0 16C0 7.16344 7.16344 0 16 0C24.8366 0 32 7.16344 32 16C32 24.8366 24.8366 32 16 32C7.16344 32 0 24.8366 0 16Z" fill="#0E72ED"/>
<g clip-path="url(#clip0_2250_3791)">
<path fill-rule="evenodd" clip-rule="evenodd" d="M23.7945 8.19459C21.7267 6.13555 18.9765 5.00104 16.0462 5C10.0081 5 5.09402 9.88643 5.09192 15.8927C5.09087 17.8128 5.59562 19.6869 6.55417 21.3386L5 26.984L10.807 25.4692C12.4068 26.3373 14.2084 26.7943 16.0415 26.7949H16.0462C22.0832 26.7949 26.9979 21.9079 27 15.9016C27.001 12.9907 25.8628 10.2542 23.7945 8.19511V8.19459ZM16.0462 24.9552H16.0425C14.409 24.9547 12.8066 24.518 11.4084 23.6933L11.0759 23.4969L7.62986 24.3958L8.54954 21.0544L8.33314 20.7118C7.42186 19.2702 6.94022 17.6039 6.94127 15.8933C6.94337 10.9013 11.0276 6.83966 16.0499 6.83966C18.4817 6.8407 20.7676 7.78352 22.4866 9.4952C24.2058 11.2064 25.1517 13.4817 25.1507 15.9006C25.1485 20.8931 21.0643 24.9547 16.0462 24.9547V24.9552ZM21.0401 18.1743C20.7665 18.038 19.4209 17.3798 19.1698 17.2889C18.9187 17.198 18.7365 17.1526 18.5542 17.4253C18.372 17.698 17.8473 18.3112 17.6876 18.4924C17.5279 18.6742 17.3682 18.6966 17.0946 18.5603C16.821 18.424 15.9391 18.1367 14.8933 17.2095C14.0798 16.4876 13.5303 15.5966 13.3707 15.3239C13.211 15.0513 13.3539 14.9039 13.4904 14.7687C13.6133 14.6465 13.7641 14.4506 13.9011 14.2918C14.0383 14.133 14.0834 14.0191 14.1748 13.8379C14.2662 13.6561 14.2205 13.4973 14.1522 13.361C14.0839 13.2247 13.5367 11.8848 13.3082 11.3401C13.086 10.8094 12.8602 10.8815 12.6926 10.8726C12.5329 10.8648 12.3507 10.8632 12.1679 10.8632C11.9851 10.8632 11.6889 10.9311 11.4378 11.2038C11.1868 11.4764 10.4798 12.135 10.4798 13.4743C10.4798 14.8136 11.4604 16.1085 11.5975 16.2903C11.7346 16.472 13.5277 19.2211 16.2731 20.4005C16.926 20.681 17.436 20.8486 17.8336 20.974C18.4891 21.1814 19.0857 21.1521 19.5574 21.0821C20.0832 21.0038 21.1767 20.4235 21.4047 19.7878C21.6326 19.1521 21.6326 18.6068 21.5644 18.4934C21.4961 18.3801 21.3133 18.3116 21.0396 18.1753L21.0401 18.1743Z" fill="#25D366"/>
</g>
<defs>
<clipPath id="clip0_2250_3791">
<rect width="22" height="22" fill="white" transform="translate(5 5)"/>
</clipPath>
</defs>
<zoom style="dark" value="|:#F7F9FA"/>
</svg>
