<svg width="32" height="32" viewBox="0 0 32 32" fill="none" xmlns="http://www.w3.org/2000/svg">
<path opacity="0.1" d="M0 16C0 7.16344 7.16344 0 16 0C24.8366 0 32 7.16344 32 16C32 24.8366 24.8366 32 16 32C7.16344 32 0 24.8366 0 16Z" fill="#0E72ED"/>
<path opacity="0.1" d="M28 16C28 22.6274 22.6274 28 16 28C9.37258 28 4 22.6274 4 16C4 9.37258 9.37258 4 16 4C22.6274 4 28 9.37258 28 16Z" fill="#0E72ED"/>
<path d="M9.00034 13.8335C9 13.9486 9 14.0706 9 14.2V17.8C9 18.9201 9 19.4802 9.21799 19.908C9.40973 20.2843 9.71569 20.5903 10.092 20.782C10.5198 21 11.0799 21 12.2 21H19.8C20.9201 21 21.4802 21 21.908 20.782C22.2843 20.5903 22.5903 20.2843 22.782 19.908C23 19.4802 23 18.9201 23 17.8V14.2C23 14.0706 23 13.9486 22.9997 13.8335L17.1765 16.9392C16.4412 17.3314 15.5588 17.3314 14.8235 16.9392L9.00034 13.8335Z" fill="#0E72ED"/>
<path d="M9.04367 12.7233L15.2941 16.0569C15.7353 16.2922 16.2647 16.2922 16.7059 16.0569L22.9563 12.7233C22.9254 12.4697 22.8724 12.2695 22.782 12.092C22.5903 11.7157 22.2843 11.4097 21.908 11.218C21.4802 11 20.9201 11 19.8 11H12.2C11.0799 11 10.5198 11 10.092 11.218C9.71569 11.4097 9.40973 11.7157 9.21799 12.092C9.12755 12.2695 9.07464 12.4697 9.04367 12.7233Z" fill="#0E72ED"/>
<zoom style="dark" value="|:#4793F1|:#4793F1|:#4793F1"/>
</svg>
