<svg width="24" height="24" viewBox="0 0 24 24" fill="none" xmlns="http://www.w3.org/2000/svg">
<path d="M4.5 3H13.5C14.3284 3 15 3.67157 15 4.5V6H16.5V4.5C16.5 2.84315 15.1568 1.5 13.5 1.5H4.5C2.84315 1.5 1.5 2.84314 1.5 4.5V13.5C1.5 15.1568 2.84314 16.5 4.5 16.5H6V15H4.5C3.67157 15 3 14.3284 3 13.5V4.5C3 3.67157 3.67157 3 4.5 3Z" fill="#FFFFFF8E"/>
<rect x="6.75" y="6.75" width="15" height="15" rx="2.25" stroke="#FFFFFF8E" stroke-width="1.5"/>
<path d="M13.7198 10.7197C14.0127 10.4268 14.4875 10.4268 14.7804 10.7197C15.0733 11.0126 15.0733 11.4874 14.7804 11.7803L13.0608 13.5H18.7501C19.1643 13.5 19.5001 13.8358 19.5001 14.25C19.5001 14.6642 19.1643 15 18.7501 15H13.0608L14.7804 16.7197C15.0733 17.0126 15.0733 17.4874 14.7804 17.7803C14.4875 18.0732 14.0127 18.0732 13.7198 17.7803L10.7198 14.7803L10.1895 14.25L10.7198 13.7197L13.7198 10.7197Z" fill="#FFFFFF8E"/>
<zoom style="press" value="|:#FFFFFFCC|#FFFFFFCC|:#FFFFFFCC"/>
</svg>
