<svg width="32" height="32" viewBox="0 0 32 32" fill="none" xmlns="http://www.w3.org/2000/svg">
<path opacity="0.1" d="M0 16C0 7.16344 7.16344 0 16 0C24.8366 0 32 7.16344 32 16C32 24.8366 24.8366 32 16 32C7.16344 32 0 24.8366 0 16Z" fill="#0E72ED"/>
<path opacity="0.1" d="M28 16C28 22.6274 22.6274 28 16 28C9.37258 28 4 22.6274 4 16C4 9.37258 9.37258 4 16 4C22.6274 4 28 9.37258 28 16Z" fill="#0E72ED"/>
<path d="M21.2501 17.3125H20.2246C19.7606 17.3125 19.3156 17.4968 18.9875 17.825L18.0694 18.7432C17.8845 18.9281 17.6038 18.9938 17.3622 18.8935C15.4395 18.0956 13.9044 16.5604 13.1066 14.6378C13.0064 14.3963 13.072 14.1156 13.2569 13.9307L14.175 13.0125C14.5032 12.6843 14.6875 12.2392 14.6875 11.775V10.75C14.6875 9.7835 13.904 9 12.9375 9H11.625C10.1753 9 9 10.1752 9 11.625C9 17.9007 14.0822 22.9893 20.3554 22.9999C21.8093 23.0024 23.0001 21.8288 23.0001 20.375V19.0625C23.0001 18.096 22.2165 17.3125 21.2501 17.3125Z" fill="#0E72ED"/>
<zoom style="dark" value="|:#4793F1|:#4793F1|:#4793F1"/>
</svg>
