<svg width="24" height="24" viewBox="0 0 24 24" fill="none" xmlns="http://www.w3.org/2000/svg">
<path d="M20.3458 17.0543C20.6968 17.2669 20.8111 17.7256 20.5743 18.0607C19.3609 19.7774 17.6561 21.0954 15.6762 21.8354C13.4637 22.6624 11.037 22.7192 8.78823 21.9967C6.53944 21.2742 4.59994 19.8146 3.28313 17.8537C1.96631 15.8928 1.34912 13.5452 1.53127 11.1903C1.71342 8.8353 2.68428 6.61053 4.28696 4.87546C5.88964 3.1404 8.03053 1.99638 10.3637 1.62829C12.6968 1.26019 15.0859 1.68951 17.1449 2.84688C18.9874 3.88254 20.4693 5.44703 21.4043 7.32988C21.5868 7.69743 21.4033 8.13309 21.0237 8.28916C20.6442 8.44524 20.2127 8.26234 20.026 7.89695C19.2211 6.32247 17.9678 5.01414 16.4168 4.14234C14.6492 3.14877 12.5982 2.78021 10.5953 3.09621C8.59233 3.41221 6.75445 4.39431 5.3786 5.88381C4.00275 7.37331 3.1693 9.28321 3.01293 11.3049C2.85655 13.3265 3.3864 15.3419 4.51684 17.0252C5.64728 18.7086 7.31228 19.9616 9.2428 20.5819C11.1733 21.2021 13.2566 21.1533 15.1559 20.4434C16.8225 19.8205 18.2621 18.7204 19.2995 17.2884C19.5403 16.9561 19.9948 16.8417 20.3458 17.0543Z" fill="#FFFFFF8E"/>
<path d="M21.75 4.5V7.875C21.75 8.08211 21.5821 8.25 21.375 8.25H18" stroke="#FFFFFF8E" stroke-width="1.5" stroke-linecap="round"/>
<path d="M9 8.625V15.375" stroke="#FFFFFF8E" stroke-width="1.5" stroke-linecap="round"/>
<path d="M15 8.625V15.375" stroke="#FFFFFF8E" stroke-width="1.5" stroke-linecap="round"/>
<zoom style="press" value="|:#FFFFFFCC|#FFFFFFCC|#FFFFFFCC|#FFFFFFCC"/>
</svg>
