<svg width="20" height="20" viewBox="0 0 20 20" fill="none" xmlns="http://www.w3.org/2000/svg">
<path d="M19.634 9.11645L13.3841 2.86646C12.896 2.3783 12.1044 2.37815 11.6161 2.86614C11.1277 3.35412 11.1276 4.14544 11.6157 4.6336L15.7321 8.75002H1.25C0.559644 8.75002 0 9.30966 0 10C0 10.6904 0.559644 11.25 1.25 11.25H15.7353L11.6167 15.3661C11.1284 15.8541 11.1283 16.6454 11.6164 17.1336C12.1045 17.6218 12.8961 17.622 13.3844 17.134L19.6332 10.8889C19.8483 10.674 19.9686 10.4002 19.9943 10.1194C20.0285 9.76112 19.9084 9.39088 19.634 9.11645Z" fill="#131619"/>
<zoom style="disable" value="|:#98A0A9"/>
</svg>
