<svg width="16" height="16" viewBox="0 0 16 16" fill="none" xmlns="http://www.w3.org/2000/svg">
<path d="M5.5 0.555556C5.5 0.248731 5.74873 0 6.05556 0H9.94444C10.2513 0 10.5 0.248731 10.5 0.555556C10.5 0.86238 10.2513 1.11111 9.94444 1.11111H8.5V1.51724C9.91879 1.61532 11.286 2.12946 12.4249 3.00691L12.4271 3.00865L12.9753 2.4098C13.1824 2.18347 13.5339 2.16794 13.7602 2.3751C13.9865 2.58227 14.002 2.93368 13.7949 3.16001L13.2525 3.75258C14.2185 4.76786 14.8753 6.04795 15.131 7.44199C15.4542 9.2039 15.1137 11.0231 14.1751 12.5488C13.2365 14.0745 11.7663 15.1987 10.0479 15.7047C8.32959 16.2107 6.48475 16.0627 4.86909 15.2891C3.40109 14.5862 2.21674 13.4122 1.5 11.9613V13.5C1.5 13.7761 1.27614 14 1 14C0.723858 14 0.5 13.7761 0.5 13.5V11.2C0.5 10.8134 0.813401 10.5 1.2 10.5H3.5C3.77614 10.5 4 10.7239 4 11C4 11.2761 3.77614 11.5 3.5 11.5H2.3875C3.00444 12.7592 4.02922 13.7783 5.30094 14.3872C6.69375 15.054 8.28413 15.1817 9.76547 14.7455C11.2468 14.3093 12.5142 13.3401 13.3233 12.0248C14.1325 10.7095 14.426 9.14129 14.1474 7.6224C13.8688 6.10351 13.0378 4.74154 11.8145 3.79906C10.5913 2.85658 9.0624 2.40032 7.52269 2.51825C5.98297 2.63619 4.54142 3.31996 3.47596 4.43774C2.4105 5.55553 1.79658 7.02818 1.75254 8.57178C1.74467 8.84781 1.51452 9.06519 1.23849 9.05732C0.962457 9.04944 0.745074 8.81929 0.752948 8.54326C0.804029 6.75268 1.51618 5.04441 2.75211 3.74778C3.98805 2.45115 5.66024 1.65798 7.44631 1.52117L7.5 1.51726V1.11111H6.05556C5.74873 1.11111 5.5 0.86238 5.5 0.555556Z" fill="#6E7680"/>
<path d="M8.5 5.5C8.5 5.22386 8.27614 5 8 5C7.72386 5 7.5 5.22386 7.5 5.5V8.58579L7.49987 8.62818C7.49918 8.78639 7.49829 8.98767 7.57612 9.17558C7.65395 9.36348 7.79691 9.50518 7.90928 9.61656L7.93934 9.64645L9.14645 10.8536C9.34171 11.0488 9.65829 11.0488 9.85355 10.8536C10.0488 10.6583 10.0488 10.3417 9.85355 10.1464L8.64645 8.93934C8.56901 8.8619 8.53058 8.823 8.50489 8.79309L8.50349 8.79145L8.50332 8.78929C8.50033 8.74998 8.5 8.6953 8.5 8.58579V5.5Z" fill="#6E7680"/>
</svg>
