<svg width="32" height="33" viewBox="0 0 32 33" fill="none" xmlns="http://www.w3.org/2000/svg">
<path opacity="0.1" d="M32 17C32 25.8366 24.8366 33 16 33C7.16344 33 0 25.8366 0 17C0 8.16344 7.16344 1 16 1C24.8366 1 32 8.16344 32 17Z" fill="#0E72ED"/>
<path opacity="0.1" d="M28 17C28 23.6274 22.6274 29 16 29C9.37258 29 4 23.6274 4 17C4 10.3726 9.37258 5 16 5C22.6274 5 28 10.3726 28 17Z" fill="#0E72ED"/>
<path fill-rule="evenodd" clip-rule="evenodd" d="M23.5 16.5C23.5 20.366 20.366 23.5 16.5 23.5H10.5918C9.98778 23.5 9.5 23.0116 9.5 22.4076V16.5C9.5 12.634 12.634 9.5 16.5 9.5C20.366 9.5 23.5 12.634 23.5 16.5ZM12.125 15.1875C12.125 14.9459 12.3209 14.75 12.5625 14.75H20.4375C20.6791 14.75 20.875 14.9459 20.875 15.1875C20.875 15.4291 20.6791 15.625 20.4375 15.625H12.5625C12.3209 15.625 12.125 15.4291 12.125 15.1875ZM12.5625 18.25C12.3209 18.25 12.125 18.4459 12.125 18.6875C12.125 18.9291 12.3209 19.125 12.5625 19.125H17.8125C18.0541 19.125 18.25 18.9291 18.25 18.6875C18.25 18.4459 18.0541 18.25 17.8125 18.25H12.5625Z" fill="#0E72ED"/>
<zoom style="dark" value="|:#4793F1|:#4793F1|:#4793F1"/>
</svg>
