<svg width="24" height="24" viewBox="0 0 24 24" fill="none" xmlns="http://www.w3.org/2000/svg">
<path d="M5.05578 8.88746C4.89584 8.60178 5.11252 8.26471 5.43992 8.26471C5.60864 8.26471 5.76224 8.35939 5.84576 8.50599C7.0556 10.6297 9.35754 12.066 12.0025 12.066C14.6474 12.066 16.9493 10.6297 18.1592 8.50599C18.2427 8.35939 18.3963 8.26471 18.565 8.26471C18.8924 8.26471 19.1091 8.60178 18.9491 8.88746C18.5051 9.68068 17.9263 10.3896 17.2437 10.9843L18.668 12.4189C18.8807 12.6333 18.8795 12.9795 18.6651 13.1923C18.4508 13.4051 18.1045 13.4039 17.8918 13.1895L16.4254 11.7125C16.4046 11.6915 16.3858 11.6692 16.369 11.6459C15.7721 12.036 15.1189 12.3483 14.4241 12.5684C14.4289 12.5784 14.4334 12.5887 14.4376 12.5991L15.2116 14.5119C15.3249 14.7919 15.1898 15.1107 14.9098 15.224C14.6298 15.3373 14.311 15.2022 14.1977 14.9222L13.4237 13.0093C13.3989 12.948 13.386 12.8848 13.384 12.8223C12.9352 12.9003 12.4736 12.941 12.0025 12.941C11.5268 12.941 11.0608 12.8995 10.608 12.82C10.6062 12.8833 10.5933 12.9473 10.5682 13.0094L9.79412 14.9222C9.68082 15.2022 9.36201 15.3373 9.08203 15.224C8.80206 15.1107 8.66694 14.7919 8.78024 14.5119L9.55431 12.5991C9.55903 12.5874 9.56412 12.576 9.56953 12.5648C8.87825 12.3447 8.2282 12.0332 7.63395 11.6447C7.61662 11.6689 7.59707 11.6921 7.5753 11.7139L6.09874 13.1909C5.8852 13.4045 5.53894 13.4045 5.32534 13.191C5.11174 12.9774 5.11169 12.6312 5.32523 12.4176L6.75956 10.9828C6.07762 10.3885 5.49949 9.68004 5.05578 8.88746Z" fill="#000001"/>
<zoom style="dark" value="|:#F7F9FA"/>
</svg>
