<svg width="32" height="32" viewBox="0 0 32 32" fill="none" xmlns="http://www.w3.org/2000/svg">
<path opacity="0.1" d="M0 16C0 7.16344 7.16344 0 16 0C24.8366 0 32 7.16344 32 16C32 24.8366 24.8366 32 16 32C7.16344 32 0 24.8366 0 16Z" fill="#0E72ED"/>
<path opacity="0.1" d="M28 16C28 22.6274 22.6274 28 16 28C9.37258 28 4 22.6274 4 16C4 9.37258 9.37258 4 16 4C22.6274 4 28 9.37258 28 16Z" fill="#0E72ED"/>
<path fill-rule="evenodd" clip-rule="evenodd" d="M9.7002 11C8.87177 11 8.2002 11.6716 8.2002 12.5V18C8.2002 19.6569 9.54334 21 11.2002 21H18.7002C19.5286 21 20.2002 20.3284 20.2002 19.5V18L23.0002 20.1C23.4946 20.4708 24.2002 20.1181 24.2002 19.5V12.5C24.2002 11.882 23.4946 11.5292 23.0002 11.9L20.2002 14V14C20.2002 12.3431 18.857 11 17.2002 11H9.7002Z" fill="#0E72ED"/>
<zoom style="dark" value="|:#4793F1|:#4793F1|:#4793F1"/>
</svg>
