<svg width="17" height="16" viewBox="0 0 17 16" fill="none" xmlns="http://www.w3.org/2000/svg">
<path fill-rule="evenodd" clip-rule="evenodd" d="M7.27073 3.01886L8.50059 1.97077L9.73046 3.01886C10.1309 3.36008 10.6287 3.5663 11.1531 3.60815L12.7639 3.73669L12.8924 5.34744C12.9343 5.87186 13.1405 6.36971 13.4817 6.77012L14.5298 7.99998L13.4817 9.22985C13.1405 9.63026 12.9343 10.1281 12.8924 10.6525L12.7639 12.2633L11.1531 12.3918C10.6287 12.4337 10.1309 12.6399 9.73046 12.9811L8.50059 14.0292L7.27073 12.9811C6.87032 12.6399 6.37247 12.4337 5.84805 12.3918L4.2373 12.2633L4.10876 10.6525C4.06691 10.1281 3.86069 9.63026 3.51947 9.22985L2.47138 7.99998L3.51947 6.77011C3.8607 6.36971 4.06691 5.87186 4.10876 5.34744L4.2373 3.73669L5.84805 3.60815C6.37247 3.5663 6.87032 3.36008 7.27073 3.01886ZM7.85197 0.552728C8.22573 0.234214 8.77545 0.234215 9.14921 0.552728L10.7034 1.87719C10.8635 2.01368 11.0627 2.09616 11.2725 2.1129L13.308 2.27534C13.7975 2.3144 14.1862 2.70311 14.2252 3.19262L14.3877 5.22812C14.4044 5.43789 14.4869 5.63703 14.6234 5.79719L15.9478 7.35136C16.2664 7.72512 16.2664 8.27484 15.9478 8.6486L14.6234 10.2028C14.4869 10.3629 14.4044 10.5621 14.3877 10.7718L14.2252 12.8073C14.1862 13.2969 13.7975 13.6856 13.308 13.7246L11.2725 13.8871C11.0627 13.9038 10.8635 13.9863 10.7034 14.1228L9.14921 15.4472C8.77545 15.7657 8.22573 15.7657 7.85197 15.4472L6.2978 14.1228C6.13764 13.9863 5.9385 13.9038 5.72873 13.8871L3.69323 13.7246C3.20372 13.6856 2.81501 13.2969 2.77595 12.8073L2.61351 10.7718C2.59677 10.5621 2.51429 10.3629 2.3778 10.2028L1.05334 8.6486C0.734824 8.27484 0.734825 7.72512 1.05334 7.35136L2.3778 5.79719C2.51429 5.63703 2.59677 5.43789 2.61351 5.22812L2.77595 3.19262C2.81501 2.70311 3.20372 2.3144 3.69323 2.27534L5.72873 2.1129C5.9385 2.09616 6.13764 2.01368 6.2978 1.87719L7.85197 0.552728ZM11.7809 7.03031C12.0738 6.73742 12.0738 6.26254 11.7809 5.96965C11.488 5.67676 11.0132 5.67676 10.7203 5.96965L7.75059 8.93932L6.78092 7.96965C6.48803 7.67676 6.01315 7.67676 5.72026 7.96965C5.42737 8.26254 5.42737 8.73742 5.72026 9.03031L7.14955 10.4596C7.4815 10.7915 8.01969 10.7915 8.35163 10.4596L11.7809 7.03031Z" fill="#0E72ED"/>
</svg>
