<svg width="24" height="24" viewBox="0 0 24 24" fill="none" xmlns="http://www.w3.org/2000/svg">
<path d="M8.62392 2.19748C8.85039 1.01325 10.0009 0 11.6379 0C12.4869 0 13.1048 0.430569 13.4658 0.991252C13.7234 1.38976 13.8508 1.84799 13.8961 2.2861C14.183 2.19347 14.483 2.14511 14.7852 2.14279C15.6212 2.14279 16.2475 2.56142 16.6274 3.10324C16.9871 3.61678 17.1334 4.24347 17.1334 4.81421V5.45786C17.1353 7.58494 17.1398 9.71138 17.1463 11.8378C17.145 12.1232 17.1709 12.4079 17.222 12.6895C17.4051 12.5267 17.5714 12.3627 17.7552 12.1798L18.038 11.9001C18.3382 11.6084 18.6902 11.2859 19.1082 11.0157C20.0121 10.4317 21.1218 10.164 22.6068 10.5304C23.1982 10.6756 23.5729 11.0747 23.7735 11.4871C23.9631 11.8812 24.0129 12.3155 23.9973 12.699C23.9669 13.4256 23.6771 14.3156 23.0578 14.8788L23.0203 14.9166C22.2165 15.6984 21.4006 16.4684 20.5731 17.2265C19.8984 17.8476 19.2084 18.4529 18.5038 19.0419C17.8801 19.5579 17.2511 20.0413 16.7639 20.3078C15.1061 21.3965 13.1061 21.9861 11.0543 21.9999C10.9239 22.0017 10.7945 21.9786 10.6733 21.9318C10.5522 21.885 10.4417 21.8155 10.3482 21.7273C10.2547 21.639 10.18 21.5338 10.1284 21.4175C10.0768 21.3012 10.0493 21.1761 10.0474 21.0495C10.0476 20.9229 10.0735 20.7976 10.1235 20.6807C10.1736 20.5638 10.2468 20.4577 10.3391 20.3683C10.4314 20.2789 10.5409 20.2081 10.6614 20.1599C10.7819 20.1116 10.911 20.0869 11.0413 20.0872C12.7179 20.0759 14.3381 19.5893 15.6633 18.7106C15.6907 18.6925 15.7189 18.6757 15.748 18.6603C16.0379 18.5069 16.5439 18.1336 17.1961 17.5955C17.8754 17.0271 18.5405 16.443 19.191 15.8437C20.0031 15.1001 20.8033 14.3445 21.5916 13.5771L21.6291 13.5394L21.6414 13.5281L21.677 13.4947C21.7676 13.4005 21.8362 13.2905 21.8789 13.1698C21.9492 12.995 21.9898 12.8103 21.9992 12.6229C22.009 12.4575 21.874 12.3277 21.7099 12.3047C21.0173 12.2075 20.5888 12.3681 20.2269 12.6015C19.9804 12.7612 19.7417 12.9724 19.4654 13.2427C19.3948 13.3093 19.3204 13.3835 19.2421 13.4627C19.0318 13.6701 18.7931 13.9071 18.5543 14.1176L18.5524 14.1202C18.1421 14.4772 17.6322 14.799 17.0389 14.8116C16.3453 14.826 15.8858 14.4263 15.6393 14.0485C15.4103 13.6965 15.297 13.2804 15.2349 12.9315C15.1745 12.5725 15.1444 12.2092 15.145 11.8454C15.1372 9.71704 15.1333 7.58808 15.1333 5.45912V4.81421C15.1333 4.52821 15.0557 4.29564 14.9651 4.16678C14.9416 4.12941 14.9097 4.09762 14.8719 4.07375C14.8453 4.05995 14.8153 4.05363 14.7852 4.05552C14.5625 4.06258 14.3487 4.14229 14.1783 4.28181C14.01 4.41129 13.9136 4.60678 13.9162 4.81358V9.81321C13.9162 10.3412 13.4684 10.7699 12.9159 10.7699C12.6527 10.7717 12.3996 10.672 12.2121 10.4926C12.0247 10.3132 11.9182 10.0688 11.9161 9.81321V2.67142C11.9161 2.35587 11.843 2.11828 11.7628 1.99445C11.7474 1.96629 11.7257 1.94181 11.6994 1.92279C11.6962 1.92064 11.6927 1.91894 11.689 1.91776C11.6727 1.91424 11.6559 1.91276 11.6392 1.91336C10.809 1.91336 10.5761 2.4225 10.5845 2.63999V2.67582L10.578 4.34844C10.5793 4.37609 10.5793 4.40375 10.578 4.43141L10.556 9.87733C10.5528 10.1329 10.4452 10.3769 10.2569 10.5554C10.0686 10.734 9.81495 10.8326 9.5518 10.8296C9.28878 10.8304 9.03616 10.7298 8.84945 10.5499C8.66273 10.3699 8.55718 10.1253 8.55598 9.86978L8.57734 4.48421C8.5301 4.30821 8.4641 4.20952 8.41104 4.15924C8.37222 4.12278 8.28681 4.05552 8.04222 4.05552C7.83453 4.05223 7.63251 4.12136 7.47281 4.25038C7.3531 4.35347 7.24375 4.52066 7.24375 4.81421V11.1866C7.24375 11.7146 6.79663 12.1433 6.24405 12.1433C5.98091 12.1452 5.72778 12.0454 5.54032 11.866C5.35286 11.6866 5.2464 11.4423 5.24434 11.1866V7.54094C5.21647 7.49602 5.18324 7.45446 5.14535 7.41711C5.11517 7.38494 5.07677 7.36109 5.03405 7.34797C5.01205 7.34231 4.93376 7.32534 4.76229 7.37939C4.38182 7.50134 4.20129 7.70185 4.101 7.96333C3.98323 8.26945 3.95864 8.71887 4.0777 9.28333C4.98487 13.6066 5.47211 15.7538 5.86358 16.8111C6.20911 17.7439 6.88722 18.5717 7.81769 19.1657C8.2771 19.4592 8.40134 20.0539 8.09463 20.4932C7.78793 20.9326 7.16675 21.0508 6.70734 20.7572C5.43717 19.9457 4.47499 18.7911 3.97805 17.4491C3.52706 16.2303 3.00747 13.9102 2.11777 9.65984C1.9573 8.89676 1.93271 8.05951 2.22324 7.30522C2.52929 6.50694 3.16276 5.87209 4.13076 5.56409C4.48818 5.44524 4.8681 5.40405 5.2437 5.4434V4.81358C5.2437 3.07181 6.69699 2.14279 8.04222 2.14279C8.24475 2.14279 8.43822 2.16165 8.62392 2.19748Z" fill="white" fill-opacity="0.62"/>
<zoom style="press" value="|:#FFFFFFCC"/>
</svg>
