<svg width="32" height="32" viewBox="0 0 32 32" fill="none" xmlns="http://www.w3.org/2000/svg">
<path opacity="0.1" d="M0 16C0 7.16344 7.16344 0 16 0C24.8366 0 32 7.16344 32 16C32 24.8366 24.8366 32 16 32C7.16344 32 0 24.8366 0 16Z" fill="#0E72ED"/>
<path opacity="0.1" d="M28 16C28 22.6274 22.6274 28 16 28C9.37258 28 4 22.6274 4 16C4 9.37258 9.37258 4 16 4C22.6274 4 28 9.37258 28 16Z" fill="#0E72ED"/>
<path d="M11.45 10C10.0975 10 9 11.0975 9 12.45V17.6513C9 19.0038 10.0975 20.1013 11.45 20.1013C11.5327 20.1013 11.6 20.1686 11.6 20.2513V22.85C11.6 23.0522 11.7218 23.2345 11.9087 23.3119C12.0955 23.3893 12.3106 23.3466 12.4536 23.2036L14.9405 20.7167C15.3343 20.3228 15.8689 20.1013 16.4251 20.1013H20.55C21.9025 20.1013 23 19.0038 23 17.6513V12.45C23 11.0975 21.9025 10 20.55 10H11.45Z" fill="#0E72ED"/>
<zoom style="dark" value="|:#4793F1|:#4793F1|:#4793F1"/>
</svg>
