<svg width="24" height="24" viewBox="0 0 24 24" fill="none" xmlns="http://www.w3.org/2000/svg">
<path d="M3 19.5C3 19.9142 3.33579 20.25 3.75 20.25H20.25C20.6642 20.25 21 19.9142 21 19.5C21 19.0858 20.6642 18.75 20.25 18.75H3.75C3.33579 18.75 3 19.0858 3 19.5ZM3.00001 14.25C3.00001 14.6642 3.33579 15 3.75001 15H9.75001C10.1642 15 10.5 14.6642 10.5 14.25C10.5 13.8358 10.1642 13.5 9.75001 13.5H3.75001C3.33579 13.5 3.00001 13.8358 3.00001 14.25ZM3.75001 9.74999C3.33579 9.74999 3.00001 9.41421 3.00001 9C3.00001 8.58578 3.33579 8.25 3.75001 8.25H9.75001C10.1642 8.25 10.5 8.58578 10.5 9C10.5 9.41421 10.1642 9.74999 9.75001 9.74999H3.75001ZM3.00001 3.75C3.00001 4.16421 3.33579 4.5 3.75001 4.5H12.75C13.1642 4.5 13.5 4.16421 13.5 3.75C13.5 3.33579 13.1642 3 12.75 3H3.75001C3.33579 3 3.00001 3.33579 3.00001 3.75ZM18.9697 3.96966C19.2626 3.67677 19.7374 3.67677 20.0303 3.96966L22.5 6.43933C23.0858 7.02512 23.0858 7.97486 22.5 8.56065L20.0303 11.0303C19.7374 11.3232 19.2626 11.3232 18.9697 11.0303C18.6768 10.7374 18.6768 10.2626 18.9697 9.96966L20.6893 8.24999H17.25C16.0074 8.24999 15 9.25735 15 10.5V16.5C15 16.9142 14.6642 17.25 14.25 17.25C13.8358 17.25 13.5 16.9142 13.5 16.5V10.5C13.5 8.42892 15.1789 6.74999 17.25 6.74999H20.6893L18.9697 5.03032C18.6768 4.73743 18.6768 4.26256 18.9697 3.96966Z" fill="white" fill-opacity="0.62"/>
<zoom style="press" value="|:#FFFFFFCC"/>
</svg>
