<svg width="32" height="32" viewBox="0 0 32 32" fill="none" xmlns="http://www.w3.org/2000/svg">
<path opacity="0.1" d="M0 16C0 7.16344 7.16344 0 16 0C24.8366 0 32 7.16344 32 16C32 24.8366 24.8366 32 16 32C7.16344 32 0 24.8366 0 16Z" fill="#0E72ED"/>
<path opacity="0.1" d="M28 16C28 22.6274 22.6274 28 16 28C9.37258 28 4 22.6274 4 16C4 9.37258 9.37258 4 16 4C22.6274 4 28 9.37258 28 16Z" fill="#0E72ED"/>
<path d="M20.2245 17.5125H21.25C22.2164 17.5125 23 18.296 23 19.2625V20.575C23 22.0288 21.8092 23.2024 20.3553 23.1999C14.0821 23.1893 9 18.1007 9 11.825C9 10.3752 10.1752 9.19995 11.6249 9.19995H12.9374C13.9039 9.19995 14.6874 9.98345 14.6874 10.95V11.975C14.6874 12.4392 14.5031 12.8843 14.1749 13.2125L13.2568 14.1307C13.0719 14.3156 13.0063 14.5963 13.1065 14.8378C13.9043 16.7604 15.4394 18.2956 17.3621 19.0935C17.6037 19.1938 17.8844 19.1281 18.0693 18.9432L18.9874 18.025C19.3155 17.6968 19.7605 17.5125 20.2245 17.5125Z" fill="#0E72ED"/>
<path d="M16.9999 9.69995C16.9999 9.97609 17.2237 10.2 17.4999 10.2H21.2928L17.1463 14.3464C16.9511 14.5417 16.9511 14.8582 17.1463 15.0535C17.3416 15.2488 17.6582 15.2488 17.8534 15.0535L21.9999 10.9071V14.7C21.9999 14.9761 22.2237 15.2 22.4999 15.2C22.776 15.2 22.9999 14.9761 22.9999 14.7V9.69995C22.9999 9.56734 22.9472 9.44017 22.8534 9.3464C22.7597 9.25263 22.6325 9.19995 22.4999 9.19995H17.4999C17.2237 9.19995 16.9999 9.42381 16.9999 9.69995Z" fill="#0E72ED"/>
<zoom style="dark" value="|:#4793F1|:#4793F1|:#4793F1|:#4793F1"/>
</svg>
