<svg width="40" height="40" viewBox="0 0 40 40" fill="none" xmlns="http://www.w3.org/2000/svg">
<rect width="40" height="40" rx="20" fill="#23D959"/>
<path d="M24.4285 21.8871H25.3814C26.771 21.8871 27.8976 23.0137 27.8976 24.4034V26.2905C27.8976 27.6802 26.771 28.8068 25.3814 28.8068C17.0433 28.8068 10.2839 22.0474 10.2839 13.7094C10.2839 12.3197 11.4105 11.1931 12.8002 11.1931H14.6873C16.077 11.1931 17.2036 12.3197 17.2036 13.7094V14.6622C17.2036 15.6632 16.8059 16.6232 16.0981 17.3311L15.9576 17.4716C15.5747 17.8545 15.4798 18.4395 15.7219 18.9238L15.8907 19.2614C16.7429 20.9658 18.1249 22.3478 19.8293 23.2L20.1669 23.3688C20.6512 23.6109 21.2362 23.516 21.6191 23.1331L21.7596 22.9926C22.4675 22.2848 23.4275 21.8871 24.4285 21.8871Z" fill="white"/>
<path fill-rule="evenodd" clip-rule="evenodd" d="M20.8507 11.1931C21.7759 11.1931 22.692 11.3754 23.5468 11.7294C24.4016 12.0835 25.1783 12.6025 25.8325 13.2567C26.4868 13.9109 27.0057 14.6876 27.3598 15.5424C27.7139 16.3972 27.8961 17.3134 27.8961 18.2386C27.8961 18.725 27.5018 19.1193 27.0154 19.1193C26.529 19.1193 26.1347 18.725 26.1347 18.2386C26.1347 15.3203 23.769 12.9545 20.8507 12.9545C20.3643 12.9545 19.97 12.5602 19.97 12.0738C19.97 11.5874 20.3643 11.1931 20.8507 11.1931ZM20.8507 14.7158C21.3133 14.7158 21.7713 14.807 22.1987 14.984C22.6261 15.161 23.0145 15.4205 23.3416 15.7476C23.6687 16.0747 23.9282 16.4631 24.1052 16.8905C24.2823 17.3179 24.3734 17.776 24.3734 18.2386C24.3734 18.725 23.9791 19.1193 23.4927 19.1193C23.0063 19.1193 22.612 18.725 22.612 18.2386C22.612 17.2658 21.8234 16.4772 20.8507 16.4772C20.3643 16.4772 19.97 16.0829 19.97 15.5965C19.97 15.1101 20.3643 14.7158 20.8507 14.7158Z" fill="white"/>
</svg>
