<svg width="24" height="24" viewBox="0 0 24 24" fill="none" xmlns="http://www.w3.org/2000/svg">
<path fill-rule="evenodd" clip-rule="evenodd" d="M15.0625 11.7647C15.0625 13.4561 13.6914 14.8272 12 14.8272C10.3086 14.8272 8.9375 13.4561 8.9375 11.7647C8.9375 10.0733 10.3086 8.70221 12 8.70221C13.6914 8.70221 15.0625 10.0733 15.0625 11.7647ZM14.1875 11.7647C14.1875 12.9728 13.2081 13.9522 12 13.9522C10.7919 13.9522 9.8125 12.9728 9.8125 11.7647C9.8125 10.5566 10.7919 9.57721 12 9.57721C13.2081 9.57721 14.1875 10.5566 14.1875 11.7647Z" fill="#000001"/>
<path fill-rule="evenodd" clip-rule="evenodd" d="M12 7.38971C8 7.38971 5 10.7925 5 11.7647C5 12.7369 8 16.1397 12 16.1397C16 16.1397 19 12.7369 19 11.7647C19 10.7925 16 7.38971 12 7.38971ZM5.92469 11.8514C5.9067 11.8141 5.89475 11.7854 5.88691 11.7647C5.89475 11.744 5.9067 11.7153 5.92469 11.678C5.98343 11.5564 6.08271 11.3929 6.22981 11.1979C6.52315 10.809 6.96739 10.3465 7.5372 9.90331C8.68205 9.01287 10.2481 8.26471 12 8.26471C13.7519 8.26471 15.3179 9.01287 16.4628 9.90331C17.0326 10.3465 17.4769 10.809 17.7702 11.1979C17.9173 11.3929 18.0166 11.5564 18.0753 11.678C18.0933 11.7153 18.1053 11.744 18.1131 11.7647C18.1053 11.7854 18.0933 11.8141 18.0753 11.8514C18.0166 11.9731 17.9173 12.1365 17.7702 12.3315C17.4769 12.7204 17.0326 13.1829 16.4628 13.6261C15.3179 14.5166 13.7519 15.2647 12 15.2647C10.2481 15.2647 8.68205 14.5166 7.5372 13.6261C6.96739 13.1829 6.52315 12.7204 6.22981 12.3315C6.08271 12.1365 5.98343 11.9731 5.92469 11.8514Z" fill="#000001"/>
<zoom style="dark" value="|:#F7F9FA|:#F7F9FA"/>
</svg>
