<svg width="8" height="11" viewBox="0 0 8 11" fill="none" xmlns="http://www.w3.org/2000/svg">
<path fill-rule="evenodd" clip-rule="evenodd" d="M4 1C2.89543 1 2 1.89543 2 3V4H6V3C6 1.89543 5.10457 1 4 1ZM7 3V4C7.55228 4 8 4.44772 8 5V10C8 10.5523 7.55228 11 7 11H1C0.447715 11 0 10.5523 0 10V5C0 4.44772 0.447715 4 1 4V3C1 1.34315 2.34315 0 4 0C5.65685 0 7 1.34315 7 3ZM3 5C2.44772 5 2 5.44772 2 6V9C2 9.55228 2.44772 10 3 10H5.5C5.77614 10 6 9.77614 6 9.5C6 9.22386 5.77614 9 5.5 9H3V8H5.5C5.77614 8 6 7.77614 6 7.5C6 7.22386 5.77614 7 5.5 7H3V6H5.5C5.77614 6 6 5.77614 6 5.5C6 5.22386 5.77614 5 5.5 5H3Z" fill="#040413" fill-opacity="0.56"/>
</svg>
