<svg width="16" height="16" viewBox="0 0 16 16" fill="none" xmlns="http://www.w3.org/2000/svg">
<path d="M6.33984 11.461V12H9.69484V11.461H9.56284C9.43818 11.461 9.30984 11.4463 9.17784 11.417C9.04584 11.3803 8.93951 11.3106 8.85884 11.208C8.77818 11.098 8.73784 10.9366 8.73784 10.724V6.10398H6.38384V6.64297H6.48284C6.60751 6.64297 6.73218 6.65764 6.85684 6.68697C6.98151 6.71631 7.08784 6.78231 7.17584 6.88497C7.26384 6.98031 7.30784 7.13064 7.30784 7.33597V10.746C7.30784 10.9513 7.26384 11.1053 7.17584 11.208C7.09518 11.3106 6.98884 11.3803 6.85684 11.417C6.73218 11.4463 6.60751 11.461 6.48284 11.461H6.33984Z" fill="#FFFFFF"/>
<path d="M7.38484 4.89397C7.54618 5.01131 7.74051 5.06997 7.96784 5.06997C8.19518 5.06997 8.38951 5.01131 8.55084 4.89397C8.71218 4.77664 8.79284 4.58597 8.79284 4.32197C8.79284 4.05064 8.71218 3.85997 8.55084 3.74997C8.38951 3.63264 8.19884 3.57397 7.97884 3.57397C7.74418 3.57397 7.54618 3.63264 7.38484 3.74997C7.23084 3.85997 7.15384 4.05064 7.15384 4.32197C7.15384 4.58597 7.23084 4.77664 7.38484 4.89397Z" fill="#FFFFFF"/>
<path fill-rule="evenodd" clip-rule="evenodd" d="M16 8C16 12.4183 12.4183 16 8 16C3.58172 16 0 12.4183 0 8C0 3.58172 3.58172 0 8 0C12.4183 0 16 3.58172 16 8ZM15 8C15 11.866 11.866 15 8 15C4.13401 15 1 11.866 1 8C1 4.13401 4.13401 1 8 1C11.866 1 15 4.13401 15 8Z" fill="#FFFFFF"/>
</svg>
