<svg width="16" height="16" viewBox="0 0 16 16" fill="none" xmlns="http://www.w3.org/2000/svg">
<path d="M13.0001 1H3C1.34314 1 0 2.34314 0 4V12C0 13.6569 1.34314 15 3 15H13.0001C14.6569 15 16.0001 13.6569 16.0001 12V4C16.0001 2.34314 14.6569 1 13.0001 1ZM7.922 6.10712L6.46253 5.87763C6.24524 5.84345 6.06605 5.69007 5.99964 5.48127L5.52869 4.00636C5.36902 3.50605 5.90638 3.06929 6.36609 3.32576L10.7028 5.74471C11.099 5.96578 11.099 6.53402 10.7028 6.75509L6.36585 9.17428C5.90638 9.43069 5.36902 8.99398 5.52869 8.49374L5.99939 7.01876C6.06604 6.80996 6.24524 6.65652 6.46252 6.6224L7.92175 6.39303C8.08532 6.36733 8.08533 6.13282 7.922 6.10712ZM13.0001 12.5H6.8927C6.69958 12.9406 6.26184 13.25 5.75012 13.25C5.23816 13.25 4.80054 12.9406 4.6073 12.5H3.00012C2.72375 12.5 2.50012 12.2764 2.50012 12C2.50012 11.7236 2.72375 11.5 3.00012 11.5H4.6073C4.80054 11.0594 5.23816 10.75 5.75012 10.75C6.26184 10.75 6.69958 11.0594 6.8927 11.5H13.0001C13.2765 11.5 13.5001 11.7236 13.5001 12C13.5001 12.2764 13.2765 12.5 13.0001 12.5Z" fill="#0E72ED"/>
</svg>
