<svg width="16" height="16" viewBox="0 0 16 16" fill="none" xmlns="http://www.w3.org/2000/svg">
<path fill-rule="evenodd" clip-rule="evenodd" d="M4.3761 10.7399C4.13203 10.984 4.13203 11.3797 4.3761 11.6238C4.62018 11.8679 5.01591 11.8679 5.25999 11.6238L8.00003 8.88374L10.7401 11.6238C10.9841 11.8679 11.3799 11.8679 11.6239 11.6238C11.868 11.3797 11.868 10.984 11.6239 10.7399L8.88391 7.99986L11.6239 5.25982C11.868 5.01574 11.868 4.62001 11.6239 4.37593C11.3799 4.13186 10.9841 4.13186 10.7401 4.37593L8.00003 7.11597L5.25998 4.37593C5.0159 4.13185 4.62018 4.13185 4.3761 4.37593C4.13202 4.62001 4.13202 5.01574 4.3761 5.25981L7.11614 7.99986L4.3761 10.7399Z" fill="#775111"/>
</svg>
