<svg width="48" height="48" viewBox="0 0 48 48" fill="none" xmlns="http://www.w3.org/2000/svg">
<path d="M7.58193 3H40.4181C41.3655 3.00158 42.2738 3.38028 42.9449 4.05132C43.616 4.72235 43.9952 5.63246 44 6.58303V8.13616C43.94 10.2865 43.88 14.8255 43.88 16.7964C43.88 17.9305 43.0448 18.8853 41.9708 18.8853C40.8452 18.8853 40.0723 18.182 39.4194 17.588L39.4029 17.5729C37.6125 15.9596 34.8646 15.661 32.5966 16.08C31.5814 16.3184 30.5675 16.617 29.6711 17.1539C27.1043 18.7071 25.4328 21.4545 25.4328 24.4404C25.4328 27.4263 27.1043 30.2339 29.6711 31.7269C30.5075 32.2638 31.5226 32.5624 32.5978 32.8008C34.9258 33.2198 37.6113 32.9212 39.4017 31.3079C39.9993 30.7107 40.7757 29.9943 41.9696 29.9943C43.0448 29.9943 43.88 30.9503 43.88 32.0844C43.88 34.1156 43.94 38.5943 44 40.7434V42.417C43.9956 43.3677 43.6164 44.2782 42.9453 44.9495C42.2742 45.6208 41.3657 45.9984 40.4181 46H7.58193C6.63429 45.9984 5.72576 45.6208 5.05467 44.9495C4.38358 44.2782 4.00444 43.3677 4 42.417V6.58424C4.00412 5.63324 4.38313 4.72252 5.05425 4.05097C5.72538 3.37941 6.63409 3.00158 7.58193 3Z" fill="#FF5B35"/>
</svg>
