<svg width="196" height="151" viewBox="0 0 196 151" fill="none" xmlns="http://www.w3.org/2000/svg">
<path d="M78.9307 76.9164C80.2134 76.3259 81.6551 76.1756 83.0319 76.4886L168.522 95.9273C171.192 96.5342 172.39 99.6566 170.812 101.894L166.51 107.993C166.037 108.664 165.439 109.238 164.75 109.683L122.984 136.651C121.298 137.74 119.201 137.976 117.316 137.29L41.3215 109.64C40.1883 109.228 39.1944 108.504 38.454 107.552L34.556 102.541C33.0348 100.586 33.7327 97.7231 35.9833 96.6871L78.9307 76.9164Z" fill="#2538BF"/>
<path d="M77.1039 75.9461C78.3821 75.3384 79.8255 75.1708 81.209 75.4696L168.109 94.2371C170.92 94.844 171.571 98.5586 169.134 100.085L121.278 130.07C120.313 130.674 119.131 130.82 118.048 130.469L34.7682 103.426C31.4608 102.352 31.1641 97.7882 34.3046 96.2951L77.1039 75.9461Z" fill="#A8CCF8"/>
<path d="M80.2218 79.1961C80.4862 79.0677 80.7868 79.034 81.0731 79.1008L153.734 96.0559C154.902 96.3285 155.09 97.9129 154.017 98.4502L131.04 109.964C130.757 110.106 130.432 110.138 130.127 110.055L60.8558 91.1003C59.7144 90.788 59.5696 89.2279 60.634 88.7109L80.2218 79.1961Z" fill="#0E72ED"/>
<path d="M67.5198 96.9658C68.8789 96.3098 70.4257 96.1544 71.8881 96.527L109.04 105.991C110.847 106.452 111.007 108.955 109.274 109.642L97 114.507C95.6589 115.039 94.1778 115.103 92.7961 114.688L57.7286 104.165C56.6084 103.829 56.4866 102.291 57.5398 101.783L67.5198 96.9658Z" fill="#648CFE"/>
<path d="M83.4059 24.5486C83.736 21.0246 86.8602 18.4352 90.3842 18.7649L171.69 26.3716C175.13 26.6934 177.696 29.6836 177.491 33.1323L174.049 91.2019C173.862 94.3478 170.909 96.5825 167.831 95.9065L84.0932 77.5176C80.9323 76.8235 78.7848 73.8819 79.0866 70.6598L83.4059 24.5486Z" fill="white"/>
<path d="M123.955 60.9931C130.628 62.3076 137.165 58.2597 138.555 51.9519C139.946 45.6441 135.664 39.465 128.991 38.1505C122.317 36.836 115.78 40.8838 114.39 47.1916C112.999 53.4994 117.281 59.6785 123.955 60.9931Z" fill="#648CFE"/>
<path d="M125.213 65.745C111.619 63.0674 101.289 67.0349 99.7245 74.1312C98.6815 78.8621 102.506 80.5084 107.511 81.4943L134.697 86.8496C135.109 86.9307 135.521 86.9846 135.929 87.0126C136.141 87.0271 136.352 87.0346 136.562 87.0353C140.868 87.05 144.123 87.1962 145.035 83.0567C145.636 80.3319 144.857 77.5421 142.9 74.9873C139.76 70.8884 133.587 67.3945 125.213 65.745Z" fill="#648CFE"/>
<path d="M85.3203 24.7279C85.5514 22.2611 87.7383 20.4486 90.2051 20.6793L171.511 28.286C173.919 28.5113 175.715 30.6044 175.572 33.0185L172.13 91.0881C172.013 93.0543 170.167 94.451 168.243 94.0285L84.5056 75.6396C82.293 75.1537 80.7898 73.0946 81.001 70.8391L85.3203 24.7279Z" stroke="#A8CCF8" stroke-width="3.84556"/>
<ellipse cx="127.178" cy="23.7594" rx="0.640925" ry="0.605564" fill="white"/>
<path d="M11.5879 13.1816L170.756 36.0907C172.404 36.3279 173.596 37.7874 173.499 39.4495L169.888 101.287C169.853 101.9 169.388 102.401 168.781 102.483L11.5879 123.753V13.1816Z" fill="url(#paint0_linear_1046_19228)" fill-opacity="0.6"/>
<rect width="7.57343" height="3.33588" transform="matrix(-0.0290584 0.998935 1.00022 0.0289589 166.52 136.836)" fill="#FFBF39"/>
<rect width="7.57367" height="3.33577" transform="matrix(0.75634 0.655201 0.656087 -0.753799 187.511 135.839)" fill="#A477FF"/>
<rect width="7.58308" height="3.33163" transform="matrix(-0.902009 0.431717 0.433375 0.901214 193.508 110.908)" fill="#F46670"/>
<rect width="7.58543" height="3.3306" transform="matrix(-0.972072 -0.234683 -0.235731 0.971818 56.5684 28.1396)" fill="#66CC84"/>
<path opacity="0.4" d="M66.564 61.6559V48.577C66.564 46.1015 64.5572 44.0947 62.0817 44.0947H4.61403C2.13855 44.0947 0.131775 46.1015 0.131775 48.577V61.6559C0.131775 64.1314 2.13855 66.1382 4.61403 66.1382H51.3425C51.7808 66.1382 52.2018 66.3094 52.5157 66.6154L58.9611 72.898C59.387 73.3133 60.1027 73.0114 60.1027 72.4166V66.1494C60.1027 66.1432 60.1077 66.1382 60.1139 66.1382H62.0817C64.5572 66.1382 66.564 64.1314 66.564 61.6559Z" fill="#648CFE"/>
<rect x="7.42334" y="55.0059" width="0.810149" height="1.61648" rx="0.405074" fill="white"/>
<rect x="19.5757" y="50.9648" width="0.810149" height="9.29476" rx="0.405074" fill="white"/>
<rect x="56.0327" y="50.5601" width="0.810149" height="10.5071" rx="0.405074" fill="white"/>
<rect x="39.019" y="48.9443" width="0.810149" height="13.336" rx="0.405074" fill="white"/>
<rect x="9.854" y="53.7935" width="0.810149" height="3.63708" rx="0.405074" fill="white"/>
<rect x="22.0059" y="53.7935" width="0.810149" height="3.63708" rx="0.405074" fill="white"/>
<rect x="58.4629" y="53.7935" width="0.810149" height="3.63708" rx="0.405074" fill="white"/>
<rect x="41.4497" y="53.7935" width="0.810149" height="3.63708" rx="0.405074" fill="white"/>
<rect x="12.2847" y="51.3687" width="0.810149" height="8.48652" rx="0.405074" fill="white"/>
<rect x="31.728" y="51.3687" width="0.810149" height="8.48652" rx="0.405074" fill="white"/>
<rect x="24.4365" y="51.3687" width="0.810149" height="8.48652" rx="0.405074" fill="white"/>
<rect x="43.8804" y="51.3687" width="0.810149" height="8.48652" rx="0.405074" fill="white"/>
<rect x="14.7148" y="52.9854" width="0.810149" height="5.25356" rx="0.405074" fill="white"/>
<rect x="34.1587" y="50.9648" width="0.810149" height="9.69889" rx="0.405074" fill="white"/>
<rect x="26.8677" y="52.9854" width="0.810149" height="5.25356" rx="0.405074" fill="white"/>
<rect x="51.1714" y="52.9854" width="0.810149" height="5.25356" rx="0.405074" fill="white"/>
<rect x="46.3105" y="52.9854" width="0.810149" height="5.25356" rx="0.405074" fill="white"/>
<rect x="17.1455" y="52.9854" width="0.810149" height="5.25356" rx="0.405074" fill="white"/>
<rect x="36.5889" y="50.5601" width="0.810149" height="10.9112" rx="0.405074" fill="white"/>
<rect x="29.2979" y="52.9854" width="0.810149" height="5.25356" rx="0.405074" fill="white"/>
<rect x="53.6016" y="52.9854" width="0.810149" height="5.25356" rx="0.405074" fill="white"/>
<rect x="48.7412" y="52.9854" width="0.810149" height="5.25356" rx="0.405074" fill="white"/>
<rect width="7.57444" height="3.33543" transform="matrix(-0.0810059 -0.995949 -0.997497 0.0807501 58.5669 13.1812)" fill="#FFBF39"/>
<rect width="7.57462" height="3.33535" transform="matrix(-0.82375 -0.568353 -0.569264 0.821189 41.5747 15.1763)" fill="#A477FF"/>
<rect width="7.58308" height="3.33163" transform="matrix(-0.902009 0.431717 0.433375 0.901214 17.5854 28.1396)" fill="#F46670"/>
<rect width="7.58543" height="3.3306" transform="matrix(-0.972072 -0.234683 -0.235731 0.971818 18.585 11.1875)" fill="#66CC84"/>
<defs>
<linearGradient id="paint0_linear_1046_19228" x1="58.6195" y1="67.2535" x2="150.428" y2="40.5626" gradientUnits="userSpaceOnUse">
<stop stop-color="#F4D176" stop-opacity="0"/>
<stop offset="1" stop-color="#F4D176" stop-opacity="0.6"/>
</linearGradient>
</defs>
</svg>
