<svg width="90" height="91" viewBox="0 0 90 91" fill="none" xmlns="http://www.w3.org/2000/svg">
<path d="M44.9951 90.4903C69.8453 90.4903 89.9903 70.3453 89.9903 45.4951C89.9903 20.645 69.8453 0.5 44.9951 0.5C20.145 0.5 0 20.645 0 45.4951C0 70.3453 20.145 90.4903 44.9951 90.4903Z" fill="#414155"/>
<path d="M50.1913 25.2984C50.1913 22.4348 47.8699 20.1133 45.0063 20.1133C42.1427 20.1133 39.8213 22.4348 39.8213 25.2984V50.3885C39.8213 53.2521 42.1427 55.5735 45.0063 55.5735C47.8699 55.5735 50.1913 53.2521 50.1913 50.3885V25.2984Z" fill="#636986"/>
<path d="M44.9965 70.8856C47.8602 70.8856 50.1816 68.5642 50.1816 65.7006C50.1816 62.837 47.8602 60.5156 44.9965 60.5156C42.1329 60.5156 39.8115 62.837 39.8115 65.7006C39.8115 68.5642 42.1329 70.8856 44.9965 70.8856Z" fill="#636986"/>
</svg>
