<svg width="17" height="17" viewBox="0 0 17 17" fill="none" xmlns="http://www.w3.org/2000/svg">
<path opacity="0.3" d="M8.5 15.0625C9.45621 15.0625 10.3552 14.8795 11.1971 14.5135C12.0435 14.1475 12.7892 13.6419 13.4343 12.9968C14.0794 12.3517 14.585 11.6083 14.951 10.7664C15.317 9.92002 15.5 9.01871 15.5 8.0625C15.5 7.10629 15.317 6.20727 14.951 5.36544C14.585 4.51904 14.0794 3.77328 13.4343 3.12819C12.7892 2.48309 12.0435 1.97753 11.1971 1.61152C10.3507 1.24551 9.44935 1.0625 8.49314 1.0625C7.53693 1.0625 6.63562 1.24551 5.78922 1.61152C4.94739 1.97753 4.20392 2.48309 3.55882 3.12819C2.9183 3.77328 2.41503 4.51904 2.04902 5.36544C1.68301 6.20727 1.5 7.10629 1.5 8.0625C1.5 9.01871 1.68301 9.92002 2.04902 10.7664C2.41503 11.6083 2.92059 12.3517 3.56569 12.9968C4.21078 13.6419 4.95425 14.1475 5.79608 14.5135C6.64248 14.8795 7.54379 15.0625 8.5 15.0625ZM8.5 13.8958C7.6902 13.8958 6.93301 13.7449 6.22843 13.4429C5.52386 13.1409 4.90392 12.7246 4.36863 12.1939C3.83791 11.6586 3.42157 11.0386 3.11961 10.3341C2.82222 9.62949 2.67353 8.8723 2.67353 8.0625C2.67353 7.2527 2.82222 6.49551 3.11961 5.79093C3.42157 5.08636 3.83791 4.46642 4.36863 3.93113C4.89935 3.39583 5.51699 2.97949 6.22157 2.68211C6.92614 2.38015 7.68333 2.22917 8.49314 2.22917C9.30294 2.22917 10.0601 2.38015 10.7647 2.68211C11.4739 2.97949 12.0938 3.39583 12.6245 3.93113C13.1598 4.46642 13.5784 5.08636 13.8804 5.79093C14.1824 6.49551 14.3333 7.2527 14.3333 8.0625C14.3333 8.8723 14.1824 9.62949 13.8804 10.3341C13.583 11.0386 13.1667 11.6586 12.6314 12.1939C12.0961 12.7246 11.4761 13.1409 10.7716 13.4429C10.067 13.7449 9.3098 13.8958 8.5 13.8958ZM8.36275 9.48309C8.53203 9.48309 8.66471 9.43505 8.76078 9.33897C8.86144 9.24289 8.91177 9.12851 8.91177 8.99583C8.91177 8.98211 8.91177 8.96838 8.91177 8.95466C8.91177 8.93636 8.91177 8.92263 8.91177 8.91348C8.91177 8.72132 8.96895 8.55662 9.08333 8.41936C9.19771 8.27753 9.37614 8.12655 9.61863 7.96642C9.94804 7.74681 10.2203 7.51806 10.4353 7.28015C10.6503 7.04224 10.7578 6.7174 10.7578 6.30564C10.7578 5.9259 10.6549 5.60564 10.449 5.34485C10.2477 5.08407 9.98235 4.88734 9.65294 4.75466C9.32353 4.6174 8.96438 4.54877 8.57549 4.54877C7.98529 4.54877 7.50261 4.67002 7.12745 4.9125C6.75686 5.15041 6.52353 5.42721 6.42745 5.74289C6.40915 5.79779 6.39543 5.8527 6.38627 5.9076C6.37712 5.9625 6.37255 6.01969 6.37255 6.07917C6.37255 6.23472 6.42288 6.35368 6.52353 6.43603C6.62418 6.51381 6.7317 6.5527 6.84608 6.5527C6.96046 6.5527 7.05654 6.52753 7.13431 6.47721C7.21667 6.42688 7.28758 6.36054 7.34706 6.27819L7.47059 6.11348C7.55294 5.9808 7.64673 5.86871 7.75196 5.77721C7.85719 5.68113 7.97386 5.60792 8.10196 5.5576C8.23464 5.50727 8.37647 5.48211 8.52745 5.48211C8.84314 5.48211 9.09477 5.56446 9.28235 5.72917C9.46993 5.8893 9.56373 6.09976 9.56373 6.36054C9.56373 6.59387 9.49052 6.78603 9.34412 6.93701C9.19771 7.08342 8.97353 7.26185 8.67157 7.4723C8.42451 7.64159 8.21863 7.82917 8.05392 8.03505C7.89379 8.24093 7.81373 8.51315 7.81373 8.85172C7.81373 8.86544 7.81373 8.88145 7.81373 8.89976C7.81373 8.91348 7.81373 8.92721 7.81373 8.94093C7.81373 9.30237 7.99673 9.48309 8.36275 9.48309ZM8.34216 11.5282C8.54346 11.5282 8.71732 11.4596 8.86373 11.3223C9.01013 11.1851 9.08333 11.0158 9.08333 10.8145C9.08333 10.6132 9.01013 10.4439 8.86373 10.3066C8.71732 10.1694 8.54346 10.1007 8.34216 10.1007C8.14085 10.1007 7.96699 10.1717 7.82059 10.3135C7.67876 10.4507 7.60784 10.6177 7.60784 10.8145C7.60784 11.0112 7.68105 11.1805 7.82745 11.3223C7.97386 11.4596 8.14543 11.5282 8.34216 11.5282Z" fill="#000001"/>
<zoom style="dark" value="|:#F5F5F5"/>
</svg>
