<svg width="17" height="16" viewBox="0 0 17 16" fill="none" xmlns="http://www.w3.org/2000/svg">
<path d="M1.94897 2.85714C1.94897 1.55533 3.0043 0.5 4.30612 0.5H12.3061C13.6079 0.5 14.6633 1.55533 14.6633 2.85714V13.1429C14.6633 14.4447 13.6079 15.5 12.3061 15.5H4.30612C3.0043 15.5 1.94897 14.4447 1.94897 13.1429V2.85714Z" stroke="#747487"/>
<path fill-rule="evenodd" clip-rule="evenodd" d="M4.94897 4.48994C4.94897 4.18618 5.19522 3.93994 5.49897 3.93994H10.399C10.7027 3.93994 10.949 4.18618 10.949 4.48994C10.949 4.7937 10.7027 5.03994 10.399 5.03994H5.49897C5.19522 5.03994 4.94897 4.7937 4.94897 4.48994ZM4.94897 11.29C4.94897 10.9862 5.19522 10.74 5.49897 10.74H9.39897C9.70273 10.74 9.94897 10.9862 9.94897 11.29C9.94897 11.5937 9.70273 11.84 9.39897 11.84H5.49897C5.19522 11.84 4.94897 11.5937 4.94897 11.29ZM5.49897 7.33997C5.19522 7.33997 4.94897 7.58621 4.94897 7.88997C4.94897 8.19372 5.19522 8.43997 5.49897 8.43997H11.399C11.7027 8.43997 11.949 8.19372 11.949 7.88997C11.949 7.58621 11.7027 7.33997 11.399 7.33997H5.49897Z" fill="#747487"/>
</svg>
