<svg width="32" height="32" viewBox="0 0 32 32" fill="none" xmlns="http://www.w3.org/2000/svg">
<path fill-rule="evenodd" clip-rule="evenodd" d="M2 26V6C2 2.68629 4.68629 0 8 0H18.4277V6.28573C18.4277 9.04716 20.6663 11.2857 23.4277 11.2857H30V26C30 29.3137 27.3137 32 24 32H8C4.68629 32 2 29.3137 2 26ZM6 17C6 16.4477 6.44772 16 7 16H25C25.5523 16 26 16.4477 26 17C26 17.5523 25.5523 18 25 18H7C6.44772 18 6 17.5523 6 17ZM7 23C6.44772 23 6 23.4477 6 24C6 24.5523 6.44772 25 7 25H25C25.5523 25 26 24.5523 26 24C26 23.4477 25.5523 23 25 23H7Z" fill="#DFE3E8"/>
<path d="M29.6924 9.28573C29.4881 8.79532 29.1862 8.34566 28.7991 7.96649L21.833 1.14257C21.4285 0.746314 20.9487 0.444379 20.4277 0.250696V6.28573C20.4277 7.94259 21.7709 9.28573 23.4277 9.28573H29.6924Z" fill="#DFE3E8"/>
</svg>
