<svg width="16" height="16" viewBox="0 0 16 16" fill="none" xmlns="http://www.w3.org/2000/svg">
<g clip-path="url(#clip0_5701_51996)">
<path d="M5.72078 8.4484C6.14718 8.4484 6.49284 8.10274 6.49284 7.67635C6.49284 7.24996 6.14718 6.9043 5.72078 6.9043C5.29439 6.9043 4.94873 7.24996 4.94873 7.67635C4.94873 8.10274 5.29439 8.4484 5.72078 8.4484Z" fill="#F7F9FA"/>
<path d="M11.1252 7.67635C11.1252 8.10274 10.7795 8.4484 10.3531 8.4484C9.92671 8.4484 9.58106 8.10274 9.58106 7.67635C9.58106 7.24996 9.92671 6.9043 10.3531 6.9043C10.7795 6.9043 11.1252 7.24996 11.1252 7.67635Z" fill="#F7F9FA"/>
<path fill-rule="evenodd" clip-rule="evenodd" d="M14.2748 13.0623C13.6817 13.1359 13.0808 13.0111 12.5987 12.7023C12.5032 12.8401 12.3811 13.0001 12.2334 13.1612C11.8424 13.5877 11.2034 14.0954 10.3528 14.0954C10.0795 14.0954 9.82081 14.0426 9.58088 13.9572V14.1102C9.58088 14.963 8.88956 15.6543 8.03678 15.6543C7.184 15.6543 6.49268 14.963 6.49268 14.1102V13.9571C6.2527 14.0426 5.99397 14.0954 5.72054 14.0954C4.86994 14.0954 4.23101 13.5877 3.84002 13.1612C3.69237 13.0001 3.57024 12.8402 3.47476 12.7024C2.99265 13.0111 2.39192 13.1359 1.79884 13.0623C0.893068 12.9499 0.396802 12.3031 0.173459 11.5954C-0.0447754 10.9039 -0.0346373 10.0863 0.0804692 9.39567C0.214431 8.59192 0.679594 6.52494 1.85462 4.6449C3.03731 2.75259 4.97711 1 8.03684 1C11.0652 1 13.0735 2.52613 14.3052 4.33943C15.522 6.13092 16 8.22411 16 9.47784L16 9.54332C16.0001 10.1689 16.0002 10.9498 15.8212 11.5979C15.7279 11.9355 15.577 12.2743 15.3216 12.5461C15.0575 12.8272 14.7076 13.0086 14.2748 13.0623ZM1.06686 9.56007C1.19026 8.81972 1.62583 6.89776 2.70262 5.17489C3.77174 3.46429 5.43485 2 8.03684 2C10.6702 2 12.3935 3.30473 13.478 4.90132C14.5772 6.51971 15 8.41547 15 9.4779L15 9.50715C15 10.1771 14.9964 10.828 14.8573 11.3316C14.7898 11.576 14.6994 11.7479 14.5928 11.8614C14.495 11.9655 14.3624 12.0437 14.1517 12.0699C13.4066 12.1623 12.7956 11.7825 12.6395 11.1581C12.6069 11.0278 12.5821 10.7289 12.5729 10.2995C12.5641 9.8886 12.5699 9.40688 12.5819 8.94393C12.5938 8.48191 12.6118 8.04318 12.6268 7.71964C12.6342 7.55799 12.641 7.42536 12.6458 7.33329L12.6516 7.2271L12.6531 7.19956L12.6536 7.19051C12.6695 6.91483 12.4589 6.67845 12.1832 6.66254C11.9076 6.64664 11.6711 6.85798 11.6552 7.13366L11.6531 7.17185L11.6472 7.28066C11.6423 7.37457 11.6354 7.50934 11.6278 7.6734C11.6127 8.00128 11.5944 8.44719 11.5822 8.91807C11.5701 9.38802 11.5638 9.88744 11.5731 10.3209C11.582 10.736 11.6054 11.1449 11.6694 11.4006C11.7203 11.6041 11.7953 11.7901 11.8903 11.9579C11.8782 11.978 11.8646 11.9999 11.8496 12.0234C11.7681 12.1508 11.6486 12.3192 11.4962 12.4855C11.1795 12.831 10.789 13.0954 10.3528 13.0954C9.90175 13.0954 9.44186 12.8164 9.05138 12.4559C8.86482 12.2837 8.71261 12.11 8.60702 11.9789C8.55453 11.9137 8.51436 11.8601 8.48801 11.8238C8.48659 11.8219 8.48522 11.82 8.48388 11.8181C8.66786 11.5821 8.93762 11.2079 9.0664 10.8932C9.20146 10.5632 9.28107 10.0551 9.31058 9.83863C9.31881 9.77823 9.28229 9.72168 9.22393 9.70409C8.99678 9.63562 8.4305 9.47781 8.037 9.47781C7.64151 9.47781 7.07152 9.63722 6.84666 9.70512C6.78979 9.72229 6.75368 9.77654 6.76027 9.83558C6.78383 10.0466 6.85284 10.545 7.0076 10.8932C7.13452 11.1788 7.40902 11.5655 7.59409 11.8118C7.59138 11.8155 7.58847 11.8196 7.58537 11.8238C7.55902 11.8601 7.51885 11.9137 7.46636 11.9789C7.36077 12.11 7.20857 12.2837 7.02201 12.4559C6.63152 12.8164 6.17164 13.0954 5.72054 13.0954C5.28437 13.0954 4.8939 12.831 4.57718 12.4855C4.42474 12.3192 4.30524 12.1508 4.22382 12.0234C4.20888 12 4.19533 11.9781 4.1832 11.9581C4.27829 11.7902 4.35338 11.6042 4.40429 11.4006C4.48279 11.0866 4.51543 10.6539 4.5276 10.2156C4.54007 9.76659 4.53169 9.27248 4.51541 8.81665C4.4991 8.35988 4.47466 7.93646 4.45434 7.62751C4.44416 7.47289 4.435 7.3466 4.42836 7.25874L4.42047 7.15694L4.4183 7.12996L4.39763 6.87702C4.3769 6.62341 4.15343 6.4353 3.9 6.45813C3.59844 6.48109 3.37496 6.7479 3.40526 7.04882L3.42161 7.21125L3.42363 7.23636L3.4312 7.3341C3.43763 7.41915 3.44656 7.54217 3.45649 7.69315C3.47638 7.9954 3.50019 8.40838 3.51605 8.85234C3.53194 9.29723 3.53964 9.76818 3.52799 10.1878C3.51604 10.618 3.48434 10.9573 3.43415 11.1581C3.27802 11.7826 2.66705 12.1623 1.92199 12.0699C1.53119 12.0214 1.27668 11.7684 1.1271 11.2944C0.972399 10.8043 0.967173 10.1582 1.06686 9.56007ZM8.3731 13.1907C8.43725 13.25 8.50663 13.3109 8.58088 13.3717V14.1102C8.58088 14.4107 8.33728 14.6543 8.03678 14.6543C7.73628 14.6543 7.49268 14.4107 7.49268 14.1102V13.3716C7.56687 13.3108 7.63618 13.2499 7.70029 13.1907C7.82681 13.074 7.93959 12.9576 8.03669 12.8503C8.13379 12.9576 8.24657 13.074 8.3731 13.1907Z" fill="#F7F9FA"/>
</g>
<defs>
<clipPath id="clip0_5701_51996">
<rect width="16" height="16" fill="white"/>
</clipPath>
</defs>
</svg>
