<svg width="16" height="16" viewBox="0 0 16 16" fill="none" xmlns="http://www.w3.org/2000/svg">
<path fill-rule="evenodd" clip-rule="evenodd" d="M12.2357 5.57895L11.827 6.28684L10.2605 9.00003H8.98091L8.95596 8.97191L8.35698 8.29701L10.0949 5.28684L10.5036 4.57895L9.89116 4.03759C9.36803 3.57518 9.22558 2.79255 9.58785 2.16509C10.0021 1.44765 10.9194 1.20184 11.6369 1.61605C11.9303 1.78547 12.1432 2.03672 12.2661 2.32504L12.5607 3.016L13.3063 2.92561C13.6175 2.8879 13.9415 2.94664 14.235 3.11605C14.9524 3.53027 15.1982 4.44765 14.784 5.16509C14.4217 5.79255 13.6727 6.0605 13.0107 5.83866L12.2357 5.57895ZM6.79639 9.00003L7.2095 8.28452L5.47115 6.32582L5.00999 5.8062L5.42749 5.25088C5.7841 4.77655 5.76907 4.10059 5.36031 3.64001C4.89293 3.11339 4.08713 3.06536 3.5605 3.53274C3.34511 3.7239 3.21076 3.96945 3.15765 4.2305L3.03038 4.8561L2.39408 4.90817C2.12858 4.9299 1.86882 5.03413 1.65342 5.22529C1.1268 5.69267 1.07877 6.49847 1.54615 7.0251C1.95491 7.48567 2.6243 7.58089 3.13764 7.28314L3.73861 6.93456L4.19977 7.45419L5.57171 9.00003H6.79639ZM4.4353 9.00003L3.56408 8.01836C2.70799 8.51491 1.59282 8.35814 0.910455 7.58927C0.131488 6.71156 0.211536 5.36856 1.08925 4.58959C1.44702 4.27207 1.88209 4.09728 2.32477 4.06106C2.41331 3.62581 2.63855 3.21457 2.99632 2.89704C3.87404 2.11808 5.21704 2.19812 5.99601 3.07584C6.67837 3.8447 6.70157 4.97059 6.10685 5.76164L7.65739 7.50873L9.22888 4.78684C8.35645 4.01568 8.11708 2.71253 8.72182 1.66509C9.41218 0.469359 10.9412 0.0596708 12.1369 0.750027C12.6243 1.03143 12.9811 1.45217 13.186 1.93288C13.7048 1.87 14.2476 1.96863 14.735 2.25003C15.9307 2.94038 16.3404 4.46936 15.65 5.66509C15.0453 6.71253 13.797 7.1568 12.693 6.78684L11.4152 9.00003H13.7132C13.8908 9.00003 14.0547 9.09358 14.1415 9.2486C14.438 9.77807 15.1223 11.0466 15.4286 12C15.6683 12.7459 15.8396 13.8062 15.929 14.4462C15.9702 14.7413 15.7395 15 15.4416 15H0.558498C0.260553 15 0.0298435 14.7413 0.0710636 14.4462C0.160455 13.8062 0.331824 12.7459 0.571466 12C0.877803 11.0466 1.56212 9.77807 1.85859 9.2486C1.94538 9.09358 2.10924 9.00003 2.2869 9.00003H4.4353ZM3.34053 10.5166C3.05779 10.3764 2.71493 10.492 2.57474 10.7747L2.15609 11.6191L2.13965 11.6522L2.12763 11.6872L1.84834 12.5001C1.74579 12.7986 1.90461 13.1236 2.20308 13.2262C2.50154 13.3287 2.82663 13.1699 2.92918 12.8715L3.19644 12.0936L3.59864 11.2824C3.73884 10.9997 3.62327 10.6568 3.34053 10.5166Z" fill="#F7F9FA"/>
</svg>
