<svg width="16" height="16" viewBox="0 0 16 16" fill="none" xmlns="http://www.w3.org/2000/svg">
<path fill-rule="evenodd" clip-rule="evenodd" d="M13.0107 5.83863L12.2356 5.57892L11.8269 6.28681L10.2605 9H7.95105L8.07549 8.78447L8.43603 8.16L8.52339 8.00869L10.0949 5.28681L10.5036 4.57892L9.89112 4.03756C9.36799 3.57515 9.22554 2.79252 9.5878 2.16506C10.002 1.44762 10.9194 1.20181 11.6368 1.61602C11.9303 1.78544 12.1432 2.03669 12.2661 2.32501L12.5606 3.01597L13.3063 2.92558C13.6175 2.88787 13.9415 2.94661 14.2349 3.11602C14.9524 3.53024 15.1982 4.44762 14.784 5.16506C14.4217 5.79252 13.6727 6.06047 13.0107 5.83863ZM6.79635 9L6.84064 8.92329L7.13039 8.42143L7.20946 8.28447L7.02167 8.07287L5.47114 6.32579L5.00998 5.80617L5.42747 5.25085C5.78408 4.77652 5.76906 4.10056 5.3603 3.63998C4.89292 3.11336 4.08711 3.06533 3.56049 3.53271C3.34509 3.72387 3.21074 3.96942 3.15763 4.23047L3.03036 4.85607L2.39407 4.90814C2.12856 4.92986 1.8688 5.0341 1.65341 5.22526C1.12678 5.69264 1.07875 6.49844 1.54613 7.02507C1.9549 7.48564 2.62428 7.58086 3.13762 7.28311L3.7386 6.93453L4.19976 7.45415L5.57169 9H6.79635ZM4.43529 9L3.6657 8.13285L3.56406 8.01833C3.51931 8.04429 3.47386 8.06846 3.42779 8.09085C2.59258 8.49682 1.55713 8.31792 0.91044 7.58924C0.131472 6.71153 0.21152 5.36853 1.08923 4.58956C1.4046 4.30967 1.78005 4.14068 2.16781 4.07975C2.21994 4.07156 2.27229 4.06532 2.32475 4.06103C2.33524 4.00945 2.34766 3.95821 2.36198 3.90742C2.46854 3.52963 2.68093 3.17691 2.99631 2.89701C3.87402 2.11805 5.21702 2.19809 5.99599 3.0758C6.64269 3.80448 6.69733 4.85384 6.19502 5.63492C6.16732 5.678 6.13792 5.72026 6.10683 5.76161L6.20847 5.87613L6.95777 6.72041L7.65736 7.50869L7.73644 7.37172L8.18433 6.59594L9.22884 4.78681C8.35641 4.01565 8.11704 2.7125 8.72178 1.66506C9.41214 0.469328 10.9411 0.0596403 12.1368 0.749996C12.6242 1.0314 12.981 1.45214 13.186 1.93285C13.7047 1.86997 14.2475 1.96859 14.7349 2.25C15.9307 2.94035 16.3403 4.46933 15.65 5.66506C15.0452 6.7125 13.797 7.15677 12.6929 6.78681L11.4152 9H13.7132C13.8908 9 14.0547 9.09355 14.1415 9.24857C14.438 9.77805 15.1223 11.0466 15.4286 12C15.6683 12.7458 15.8396 13.8062 15.929 14.4461C15.9702 14.7412 15.7395 15 15.4416 15H0.558498C0.260553 15 0.0298435 14.7412 0.0710636 14.4461C0.160455 13.8062 0.331824 12.7458 0.571466 12C0.877803 11.0466 1.56212 9.77805 1.85859 9.24857C1.94538 9.09355 2.10924 9 2.2869 9H4.43529ZM5.32279 10H2.58606C2.25882 10.6014 1.75685 11.5798 1.52353 12.3059C1.37023 12.783 1.24257 13.4342 1.14998 14H14.8501C14.7575 13.4342 14.6298 12.783 14.4765 12.3059C14.2432 11.5798 13.7413 10.6014 13.414 10H10.8378H7.3737H6.59767H6.12891H5.32279ZM3.34053 10.5166C3.05779 10.3764 2.71493 10.4919 2.57474 10.7747L2.15609 11.619L2.13965 11.6522L2.12763 11.6872L1.84834 12.5001C1.74579 12.7985 1.90461 13.1236 2.20308 13.2262C2.50154 13.3287 2.82663 13.1699 2.92918 12.8714L3.19644 12.0936L3.59864 11.2824C3.73884 10.9996 3.62327 10.6568 3.34053 10.5166Z" fill="#8E9194"/>
</svg>
