<svg width="24" height="24" viewBox="0 0 24 24" fill="none" xmlns="http://www.w3.org/2000/svg">
<path d="M22.2711 16.299L23.1827 15.3874C24.2726 14.2975 24.2726 12.5305 23.1827 11.4406C17.0067 5.26459 6.99341 5.26459 0.817411 11.4406C-0.27247 12.5305 -0.27247 14.2975 0.817411 15.3874L1.729 16.299C1.79874 16.3687 1.83361 16.4036 1.86398 16.4322C2.93881 17.4446 4.61623 17.4446 5.69105 16.4322C5.72142 16.4036 5.7563 16.3687 5.82604 16.299L6.2248 15.9002C6.77365 15.3514 7.14776 14.6523 7.29998 13.8912L7.56877 12.5473C7.66563 12.063 8.0037 11.662 8.46465 11.4848C10.7403 10.6095 13.2598 10.6095 15.5354 11.4848C15.9964 11.662 16.3345 12.063 16.4313 12.5473L16.7001 13.8912C16.8523 14.6523 17.2264 15.3514 17.7753 15.9002L18.174 16.299C18.2438 16.3687 18.2787 16.4036 18.309 16.4322C19.3839 17.4446 21.0613 17.4446 22.1361 16.4322C22.1665 16.4036 22.2013 16.3687 22.2711 16.299Z" fill="white"/>
</svg>
