<svg width="32" height="32" viewBox="0 0 32 32" fill="none" xmlns="http://www.w3.org/2000/svg">
<g clip-path="url(#clip0_5145_53386)">
<path d="M16.6666 15.9978C16.6666 13.0823 19.0301 10.7188 21.9457 10.7188C24.8611 10.7188 27.2247 13.0823 27.2247 15.9978C27.2247 18.9133 24.8611 21.2768 21.9457 21.2768C19.0301 21.2768 16.6666 18.9133 16.6666 15.9978Z" fill="#1ABCFE"/>
<path d="M6.10864 26.5603C6.10864 23.6448 8.47214 21.2812 11.3877 21.2812H16.6667V26.5603C16.6667 29.4758 14.3032 31.8393 11.3877 31.8393C8.47214 31.8393 6.10864 29.4758 6.10864 26.5603Z" fill="#0ACF83"/>
<path d="M16.6666 0.164062V10.7221H21.9457C24.8612 10.7221 27.2247 8.35862 27.2247 5.44309C27.2247 2.52757 24.8612 0.164062 21.9457 0.164062H16.6666Z" fill="#FF7262"/>
<path d="M6.10864 5.4431C6.10864 8.35862 8.47214 10.7221 11.3877 10.7221H16.6667V0.164062H11.3877C8.47214 0.164062 6.10864 2.52757 6.10864 5.4431Z" fill="#F24E1E"/>
<path d="M6.10864 15.9978C6.10864 18.9133 8.47214 21.2768 11.3877 21.2768H16.6667V10.7188H11.3877C8.47214 10.7188 6.10864 13.0823 6.10864 15.9978Z" fill="#A259FF"/>
</g>
<defs>
<clipPath id="clip0_5145_53386">
<rect width="21.3333" height="32" fill="white" transform="translate(6)"/>
</clipPath>
</defs>
</svg>
