<svg width="24" height="24" viewBox="0 0 24 24" fill="none" xmlns="http://www.w3.org/2000/svg">
<path d="M0.5 9.6C0.5 7.91159 0.500389 6.67536 0.580085 5.69993C0.659303 4.73034 0.814384 4.06255 1.09946 3.50305C1.62677 2.46816 2.46816 1.62677 3.50305 1.09946C4.06255 0.814384 4.73034 0.659303 5.69993 0.580085C6.67536 0.500389 7.91159 0.5 9.6 0.5H14.4C16.0884 0.5 17.3246 0.500389 18.3001 0.580085C19.2697 0.659303 19.9374 0.814384 20.4969 1.09946C21.5318 1.62677 22.3732 2.46816 22.9005 3.50305C23.1856 4.06255 23.3407 4.73034 23.4199 5.69993C23.4996 6.67536 23.5 7.91159 23.5 9.6V14.4C23.5 16.0884 23.4996 17.3246 23.4199 18.3001C23.3407 19.2697 23.1856 19.9374 22.9005 20.4969C22.3732 21.5318 21.5318 22.3732 20.4969 22.9005C19.9374 23.1856 19.2697 23.3407 18.3001 23.4199C17.3246 23.4996 16.0884 23.5 14.4 23.5H9.6C7.91159 23.5 6.67536 23.4996 5.69993 23.4199C4.73034 23.3407 4.06255 23.1856 3.50305 22.9005C2.46816 22.3732 1.62677 21.5318 1.09946 20.4969C0.814384 19.9374 0.659303 19.2697 0.580085 18.3001C0.500389 17.3246 0.5 16.0884 0.5 14.4V9.6Z" fill="#131619"/>
<path d="M15.5036 6.14172L17.8583 8.49644C18.2139 8.85206 18.2139 9.42865 17.8583 9.78427L16.6275 11.015L12.985 7.37245L14.2157 6.14172C14.5714 5.78609 15.1479 5.78609 15.5036 6.14172Z" fill="#F7F9FA"/>
<path d="M11.7476 8.60989L6.57499 13.7825C6.43567 13.9218 6.34529 14.1025 6.31743 14.2976L5.88205 17.3453C5.81765 17.796 6.20401 18.1823 6.65475 18.118L9.70241 17.6826C9.89747 17.6547 10.0782 17.5643 10.2175 17.425L15.3901 12.2524L11.7476 8.60989Z" fill="#F7F9FA"/>

<path d="M0.5 9.6C0.5 7.91159 0.500389 6.67536 0.580085 5.69993C0.659303 4.73034 0.814384 4.06255 1.09946 3.50305C1.62677 2.46816 2.46816 1.62677 3.50305 1.09946C4.06255 0.814384 4.73034 0.659303 5.69993 0.580085C6.67536 0.500389 7.91159 0.5 9.6 0.5H14.4C16.0884 0.5 17.3246 0.500389 18.3001 0.580085C19.2697 0.659303 19.9374 0.814384 20.4969 1.09946C21.5318 1.62677 22.3732 2.46816 22.9005 3.50305C23.1856 4.06255 23.3407 4.73034 23.4199 5.69993C23.4996 6.67536 23.5 7.91159 23.5 9.6V14.4C23.5 16.0884 23.4996 17.3246 23.4199 18.3001C23.3407 19.2697 23.1856 19.9374 22.9005 20.4969C22.3732 21.5318 21.5318 22.3732 20.4969 22.9005C19.9374 23.1856 19.2697 23.3407 18.3001 23.4199C17.3246 23.4996 16.0884 23.5 14.4 23.5H9.6C7.91159 23.5 6.67536 23.4996 5.69993 23.4199C4.73034 23.3407 4.06255 23.1856 3.50305 22.9005C2.46816 22.3732 1.62677 21.5318 1.09946 20.4969C0.814384 19.9374 0.659303 19.2697 0.580085 18.3001C0.500389 17.3246 0.5 16.0884 0.5 14.4V9.6Z" stroke="#6E7680"/>
</svg>
