<svg width="24" height="24" viewBox="0 0 24 24" fill="none" xmlns="http://www.w3.org/2000/svg">
<path fill-rule="evenodd" clip-rule="evenodd" d="M14.625 5C14.1418 5 13.75 5.39175 13.75 5.875C13.75 6.35825 14.1418 6.75 14.625 6.75H16.0126L13.1313 9.63128C12.7896 9.97299 12.7896 10.527 13.1313 10.8687C13.473 11.2104 14.027 11.2104 14.3687 10.8687L17.25 7.98744V9.375C17.25 9.85825 17.6418 10.25 18.125 10.25C18.6082 10.25 19 9.85825 19 9.375V5.875C19 5.39175 18.6082 5 18.125 5H14.625ZM10.8687 13.1313C10.527 12.7896 9.97299 12.7896 9.63128 13.1313L6.75 16.0126V14.625C6.75 14.1418 6.35825 13.75 5.875 13.75C5.39175 13.75 5 14.1418 5 14.625V18.125C5 18.6082 5.39175 19 5.875 19H9.375C9.85825 19 10.25 18.6082 10.25 18.125C10.25 17.6418 9.85825 17.25 9.375 17.25H7.98744L10.8687 14.3687C11.2104 14.027 11.2104 13.473 10.8687 13.1313Z" fill="#C4C4C4"/>
</svg>
