<svg width="24" height="24" viewBox="0 0 24 24" fill="none" xmlns="http://www.w3.org/2000/svg">
<path fill-rule="evenodd" clip-rule="evenodd" d="M5 8.86667C5 8.21327 5 7.88657 5.12716 7.63701C5.23901 7.41749 5.41749 7.23901 5.63701 7.12716C5.88657 7 6.21327 7 6.86667 7H17.1333C17.7867 7 18.1134 7 18.363 7.12716C18.5825 7.23901 18.761 7.41749 18.8728 7.63701C19 7.88657 19 8.21327 19 8.86667V15.6333C19 16.2867 19 16.6134 18.8728 16.863C18.761 17.0825 18.5825 17.261 18.363 17.3728C18.1134 17.5 17.7867 17.5 17.1333 17.5H6.86667C6.21327 17.5 5.88657 17.5 5.63701 17.3728C5.41749 17.261 5.23901 17.0825 5.12716 16.863C5 16.6134 5 16.2867 5 15.6333V8.86667ZM7.3333 11.4333C7.3333 11.1066 7.3333 10.9433 7.39688 10.8185C7.4528 10.7087 7.54204 10.6195 7.6518 10.5636C7.77659 10.5 7.93993 10.5 8.26663 10.5H15.7333C16.06 10.5 16.2233 10.5 16.3481 10.5636C16.4579 10.6195 16.5471 10.7087 16.6031 10.8185C16.6666 10.9433 16.6666 11.1066 16.6666 11.4333V15.4C16.6666 15.7267 16.6666 15.89 16.6031 16.0148C16.5471 16.1246 16.4579 16.2138 16.3481 16.2698C16.2233 16.3333 16.06 16.3333 15.7333 16.3333H8.26663C7.93993 16.3333 7.77659 16.3333 7.6518 16.2698C7.54204 16.2138 7.4528 16.1246 7.39688 16.0148C7.3333 15.89 7.3333 15.7267 7.3333 15.4V11.4333ZM8.24009 8.32606C8.2083 8.38845 8.2083 8.47013 8.2083 8.63348V8.86681C8.2083 9.03016 8.2083 9.11183 8.24009 9.17422C8.26805 9.2291 8.31267 9.27372 8.36755 9.30169C8.42994 9.33348 8.51162 9.33348 8.67496 9.33348H9.49163C9.65498 9.33348 9.73665 9.33348 9.79905 9.30169C9.85393 9.27372 9.89854 9.2291 9.92651 9.17422C9.9583 9.11183 9.9583 9.03016 9.9583 8.86681V8.63348C9.9583 8.47013 9.9583 8.38845 9.92651 8.32606C9.89854 8.27118 9.85393 8.22656 9.79905 8.1986C9.73665 8.16681 9.65498 8.16681 9.49163 8.16681H8.67496C8.51162 8.16681 8.42994 8.16681 8.36755 8.1986C8.31267 8.22656 8.26805 8.27118 8.24009 8.32606ZM11.125 8.63348C11.125 8.47013 11.125 8.38845 11.1568 8.32606C11.1848 8.27118 11.2294 8.22656 11.2843 8.1986C11.3466 8.16681 11.4283 8.16681 11.5917 8.16681H12.4083C12.5717 8.16681 12.6534 8.16681 12.7157 8.1986C12.7706 8.22656 12.8152 8.27118 12.8432 8.32606C12.875 8.38845 12.875 8.47013 12.875 8.63348V8.86681C12.875 9.03016 12.875 9.11183 12.8432 9.17422C12.8152 9.2291 12.7706 9.27372 12.7157 9.30169C12.6534 9.33348 12.5717 9.33348 12.4083 9.33348H11.5917C11.4283 9.33348 11.3466 9.33348 11.2843 9.30169C11.2294 9.27372 11.1848 9.2291 11.1568 9.17422C11.125 9.11183 11.125 9.03016 11.125 8.86681V8.63348ZM14.0735 8.32606C14.0417 8.38845 14.0417 8.47013 14.0417 8.63348V8.86681C14.0417 9.03016 14.0417 9.11183 14.0735 9.17422C14.1015 9.2291 14.1461 9.27372 14.201 9.30169C14.2633 9.33348 14.345 9.33348 14.5084 9.33348H15.325C15.4884 9.33348 15.5701 9.33348 15.6324 9.30169C15.6873 9.27372 15.7319 9.2291 15.7599 9.17422C15.7917 9.11183 15.7917 9.03016 15.7917 8.86681V8.63348C15.7917 8.47013 15.7917 8.38845 15.7599 8.32606C15.7319 8.27118 15.6873 8.22656 15.6324 8.1986C15.5701 8.16681 15.4884 8.16681 15.325 8.16681H14.5084C14.345 8.16681 14.2633 8.16681 14.201 8.1986C14.1461 8.22656 14.1015 8.27118 14.0735 8.32606Z" fill="#4793F1"/>
<zoom style="normal" value="|:#FFFFFF9E"/>
<zoom style="selected" value="|:#4793F1"/>
</svg>
