<svg width="24" height="24" viewBox="0 0 24 24" fill="none" xmlns="http://www.w3.org/2000/svg">
<path fill-rule="evenodd" clip-rule="evenodd" d="M5.6374 7.00413C5.263 6.96014 4.94744 7.27413 5.00734 7.62902C5.18171 8.66231 5.47313 10.5988 5.47313 12C5.47313 13.4012 5.18171 15.3376 5.00734 16.371C4.94744 16.7259 5.263 17.0399 5.6374 16.9959C7.00265 16.8354 9.92649 16.5232 12 16.5232C14.0735 16.5232 16.9973 16.8354 18.3626 16.9959C18.7369 17.0399 19.0525 16.7259 18.9927 16.371C18.8183 15.3376 18.5268 13.4012 18.5268 12C18.5268 10.5988 18.8183 8.66231 18.9927 7.62902C19.0525 7.27413 18.7369 6.96014 18.3626 7.00413C16.9973 7.16454 14.0735 7.47677 12 7.47677C9.92649 7.47677 7.00265 7.16454 5.6374 7.00413ZM10.2506 11.5833C11.0958 11.5833 11.781 10.9304 11.781 10.125C11.781 9.31959 11.0958 8.66666 10.2506 8.66666C9.40535 8.66666 8.72014 9.31959 8.72014 10.125C8.72014 10.9304 9.40535 11.5833 10.2506 11.5833ZM7.18974 14.1667C7.18974 13.2001 8.41409 12.4165 10.2506 12.4165C11.2601 12.4165 12.0847 12.6532 12.6225 13.027C12.6876 13.0721 12.7484 13.1192 12.8049 13.1682C13.1312 13.4513 13.3117 13.7954 13.3117 14.1665C13.3117 14.7304 12.892 15.2008 12.3341 15.3095L12.3165 15.3129L12.3149 15.3132C12.2939 15.3169 12.2727 15.3202 12.2513 15.3229C12.1976 15.3298 12.1428 15.3333 12.0872 15.3333H8.41409C7.7379 15.3333 7.18974 14.811 7.18974 14.1667ZM14.2446 14.1665C14.2446 13.6404 14.0395 13.1751 13.7175 12.7972C13.852 12.7867 13.9913 12.7812 14.1348 12.7812C15.1247 12.7812 15.9113 13.0414 16.3694 13.4389C16.655 13.6867 16.813 13.9878 16.813 14.3124C16.813 14.8058 16.4457 15.2174 15.9576 15.3125C15.9338 15.3172 15.9096 15.3211 15.8853 15.3242C15.8384 15.3302 15.7904 15.3333 15.7416 15.3333H13.8636C14.1039 15.002 14.2446 14.6002 14.2446 14.1665ZM15.4755 10.776C15.4755 11.4808 14.876 12.0521 14.1364 12.0521C13.3969 12.0521 12.7973 11.4808 12.7973 10.776C12.7973 10.0713 13.3969 9.49999 14.1364 9.49999C14.876 9.49999 15.4755 10.0713 15.4755 10.776Z" fill="#C4C4C4"/>
<zoom style="selected" value="|:#4F9AF7"/>
</svg>
