<svg width="16" height="16" viewBox="0 0 16 16" fill="none" xmlns="http://www.w3.org/2000/svg">
<path fill-rule="evenodd" clip-rule="evenodd" d="M13.9309 11.7199C13.7992 11.9293 13.82 12.2041 13.995 12.3791C14.2125 12.5966 14.5733 12.5714 14.7394 12.3124C15.5373 11.068 16 9.58803 16 8C16 6.41196 15.5373 4.93199 14.7393 3.68756C14.5733 3.42863 14.2124 3.40341 13.9949 3.62091C13.82 3.79583 13.7992 4.07065 13.9309 4.28009C14.6082 5.35779 15 6.63314 15 8C15 9.36685 14.6082 10.6422 13.9309 11.7199ZM2.06887 4.28051C2.20048 4.07108 2.17968 3.79627 2.00477 3.62136C1.78726 3.40385 1.42638 3.42908 1.26036 3.68804C0.462592 4.93237 0 6.41216 0 8C0 9.58783 0.462586 11.0676 1.26034 12.3119C1.42637 12.5709 1.78724 12.5961 2.00475 12.3786C2.17966 12.2037 2.20047 11.9289 2.06885 11.7195C1.39166 10.6419 1 9.36667 1 8C1 6.63332 1.39166 5.35812 2.06887 4.28051ZM4.28011 2.06912C4.07067 2.20076 3.79585 2.17996 3.62093 2.00504C3.40343 1.78754 3.42865 1.42668 3.68758 1.26065C4.93201 0.462705 6.41197 0 8 0C9.58783 0 11.0676 0.462586 12.3119 1.26034C12.5709 1.42637 12.5961 1.78724 12.3786 2.00475C12.2037 2.17966 11.9289 2.20047 11.7195 2.06885C10.6419 1.39166 9.36667 1 8 1C6.63315 1 5.3578 1.39176 4.28011 2.06912ZM11.7195 13.9311C11.9289 13.7995 12.2037 13.8203 12.3786 13.9952C12.5961 14.2127 12.5709 14.5736 12.312 14.7396C11.0676 15.5374 9.58784 16 8 16C6.41196 16 4.93199 15.5373 3.68756 14.7393C3.42863 14.5733 3.40341 14.2124 3.62091 13.9949C3.79583 13.82 4.07065 13.7992 4.28009 13.9309C5.35779 14.6082 6.63314 15 8 15C9.36668 15 10.6419 14.6083 11.7195 13.9311ZM8 11C9.65685 11 11 9.65685 11 8C11 6.34315 9.65685 5 8 5C6.34315 5 5 6.34315 5 8C5 9.65685 6.34315 11 8 11Z" fill="#F7F9FA"/>
</svg>
