<svg width="144" height="105" viewBox="0 0 144 105" fill="none" xmlns="http://www.w3.org/2000/svg">
<path fill-rule="evenodd" clip-rule="evenodd" d="M112.523 8.054C123.238 12.4894 133.137 18.6469 141.833 26.2694C144.703 28.7855 144.689 33.1784 141.989 35.8765C139.289 38.5748 134.927 38.5529 132.032 36.0648C124.638 29.7107 116.269 24.5611 107.232 20.8208C96.0624 16.1977 84.0909 13.8183 72.0002 13.8183C59.911 13.8183 47.9395 16.1977 36.7692 20.8216C27.7325 24.5619 19.3638 29.7109 11.9699 36.0648C9.07455 38.553 4.71251 38.5753 2.01194 35.8773C-0.688943 33.1789 -0.703395 28.7846 2.16776 26.2679C10.863 18.6462 20.7611 12.4892 31.4757 8.054C44.3239 2.73682 58.0933 0 71.9994 0C85.9054 0 99.6748 2.73682 112.523 8.054Z" fill="#268543"/>
<path fill-rule="evenodd" clip-rule="evenodd" d="M101.958 33.5423C109.322 36.59 116.165 40.7389 122.257 45.8353C125.184 48.2848 125.166 52.6857 122.466 55.3836C119.766 58.0816 115.409 58.0483 112.436 55.6547C107.661 51.8114 102.353 48.6608 96.6664 46.3075C88.8463 43.0695 80.4649 41.4041 72.0002 41.4041C63.5354 41.4041 55.1533 43.0703 47.3331 46.3067C41.6466 48.66 36.338 51.8108 31.563 55.6547C28.5894 58.0483 24.2327 58.0816 21.5326 55.3836C18.8325 52.6857 18.8143 48.2848 21.742 45.8352C27.8331 40.7388 34.6756 36.5898 42.0404 33.5415C51.5392 29.611 61.7192 27.5874 71.9994 27.5874C82.2795 27.5874 92.4595 29.611 101.958 33.5423Z" fill="#268543"/>
<path d="M91.3714 59.0751C95.3878 60.7372 99.1637 62.9052 102.611 65.52C105.64 67.8181 105.616 72.2192 102.926 74.9067C100.237 77.5942 95.9037 77.5296 92.7613 75.3883C90.6756 73.9671 88.4444 72.7606 86.101 71.7911C81.6293 69.9406 76.8374 68.9883 71.9978 68.9875C67.1589 68.9875 62.367 69.9398 57.8962 71.7911C55.5525 72.7609 53.3214 73.9675 51.2359 75.3884C48.0934 77.5296 43.7603 77.5942 41.0707 74.9067C38.3812 72.2192 38.3571 67.8182 41.3865 65.52C44.8332 62.9054 48.6089 60.7372 52.6242 59.0751C58.7673 56.5329 65.3499 55.224 71.9986 55.2248C78.6464 55.2248 85.2298 56.5329 91.3714 59.0751Z" fill="#268543"/>
<path d="M81.8845 95.9334C85.4147 92.4059 85.4209 86.4691 80.8084 84.56C78.0155 83.404 75.0221 82.8091 71.9991 82.8091C68.9761 82.8091 65.9826 83.404 63.1897 84.56C58.5772 86.4691 58.5834 92.4059 62.1137 95.9334L65.488 99.3051C69.0839 102.898 74.9142 102.898 78.5102 99.3051L81.8845 95.9334Z" fill="#268543"/>
</svg>
