<svg width="158" height="77" viewBox="0 0 158 77" fill="none" xmlns="http://www.w3.org/2000/svg">
<path d="M22.4573 23.4134C50.8339 24.2322 63.88 21.7303 81.946 14.1791C103.89 5.01306 116.425 -2.9248 137.407 2.92056C154.06 7.5832 169.36 31.5105 143.9 53.5728C121.114 73.315 87.2967 78.569 65.1425 75.8169C43.9803 73.1786 22.3371 66.014 5.80408 50.3885C-7.72291 37.6288 4.33114 22.8903 22.4573 23.4134Z" fill="url(#paint0_linear_941_20515)"/>
<g clip-path="url(#clip0_941_20515)">
<path d="M103.721 58.8144C103.721 62.4811 100.721 65.4811 97.054 65.4811H60.3874C56.7207 65.4811 53.7207 62.4811 53.7207 58.8144V30.4811C53.7207 26.8145 56.7207 23.8145 60.3874 23.8145H97.054C100.721 23.8145 103.721 26.8145 103.721 30.4811V58.8144Z" fill="#A8CCF8"/>
<path d="M108.721 25.4811C108.721 29.1478 105.721 32.1478 102.054 32.1478H55.3874C51.7207 32.1478 48.7207 29.1478 48.7207 25.4811C48.7207 21.8145 51.7207 18.8145 55.3874 18.8145H102.054C105.721 18.8145 108.721 21.8145 108.721 25.4811Z" fill="#A8CCF8"/>
<path d="M53.7207 32.1484H103.721V35.4818H53.7207V32.1484Z" fill="#4793F1"/>
<path d="M80.3874 12.1484H77.054C74.2924 12.1484 72.054 14.3868 72.054 17.1484V65.4818H85.3874V17.1484C85.3874 14.3884 83.149 12.1484 80.3874 12.1484Z" fill="#0E72ED"/>
<path d="M75.3874 18.8147C77.2207 18.8147 77.4924 17.9547 75.989 16.9031L64.7857 9.05973C63.2824 8.00807 61.3107 8.44973 60.4007 10.0414L57.0407 15.9214C56.1307 17.5131 56.8874 18.8147 58.7207 18.8147H75.3874ZM82.054 18.8147C80.2207 18.8147 79.949 17.9547 81.4524 16.9031L92.6574 9.05973C94.159 8.00807 96.1324 8.44973 97.0424 10.0414L100.402 15.9197C101.311 17.5131 100.554 18.8147 98.7207 18.8147H82.054Z" fill="#0E72ED"/>
</g>
<rect x="101.528" y="52.123" width="8.84489" height="3.89175" transform="rotate(26.6159 101.528 52.123)" fill="#FFBF39"/>
<rect x="52.9059" y="66.9883" width="8.84489" height="3.89175" transform="rotate(114.14 52.9059 66.9883)" fill="#14BCA0"/>
<rect x="114.956" y="7.04883" width="8.84489" height="3.89175" transform="rotate(-43.8713 114.956 7.04883)" fill="#F46670"/>
<rect x="37.2068" y="24.625" width="8.84489" height="3.89175" transform="rotate(77.3096 37.2068 24.625)" fill="#A477FF"/>
<defs>
<linearGradient id="paint0_linear_941_20515" x1="78.7214" y1="76.5019" x2="78.7214" y2="0.919034" gradientUnits="userSpaceOnUse">
<stop stop-color="#EFF2FD" stop-opacity="0"/>
<stop offset="1" stop-color="#EFF2FD"/>
</linearGradient>
<clipPath id="clip0_941_20515">
<rect width="60" height="60" fill="white" transform="translate(48.7207 7.14844)"/>
</clipPath>
</defs>
</svg>
