<svg width="158" height="76" viewBox="0 0 158 76" fill="none" xmlns="http://www.w3.org/2000/svg">
<g clip-path="url(#clip0_1269_25623)">
<path d="M104.035 58.1172C104.035 61.7839 101.035 64.7839 97.368 64.7839H60.7013C57.0347 64.7839 54.0347 61.7839 54.0347 58.1172V29.7839C54.0347 26.1172 57.0347 23.1172 60.7013 23.1172H97.368C101.035 23.1172 104.035 26.1172 104.035 29.7839V58.1172Z" fill="#A8CCF8"/>
<path d="M109.035 24.7839C109.035 28.4505 106.035 31.4505 102.368 31.4505H55.7013C52.0347 31.4505 49.0347 28.4505 49.0347 24.7839C49.0347 21.1172 52.0347 18.1172 55.7013 18.1172H102.368C106.035 18.1172 109.035 21.1172 109.035 24.7839Z" fill="#A8CCF8"/>
<path d="M54.0347 31.4512H104.035V34.7845H54.0347V31.4512Z" fill="#4793F1"/>
<path d="M80.7014 11.4512H77.368C74.6064 11.4512 72.368 13.6895 72.368 16.4512V64.7845H85.7014V16.4512C85.7014 13.6912 83.463 11.4512 80.7014 11.4512Z" fill="#0E72ED"/>
<path d="M75.7013 18.1175C77.5346 18.1175 77.8063 17.2575 76.3029 16.2058L65.0996 8.36247C63.5963 7.3108 61.6246 7.75247 60.7146 9.34413L57.3546 15.2241C56.4446 16.8158 57.2013 18.1175 59.0346 18.1175H75.7013ZM82.3679 18.1175C80.5346 18.1175 80.2629 17.2575 81.7663 16.2058L92.9713 8.36247C94.4729 7.3108 96.4463 7.75247 97.3563 9.34413L100.716 15.2225C101.625 16.8158 100.868 18.1175 99.0346 18.1175H82.3679Z" fill="#0E72ED"/>
</g>
<rect x="101.842" y="51.4258" width="8.84489" height="3.89175" transform="rotate(26.6159 101.842 51.4258)" fill="#FFBF39"/>
<rect x="53.2198" y="66.293" width="8.84489" height="3.89175" transform="rotate(114.14 53.2198 66.293)" fill="#14BCA0"/>
<rect x="115.27" y="6.35156" width="8.84489" height="3.89175" transform="rotate(-43.8713 115.27 6.35156)" fill="#F46670"/>
<rect x="37.5208" y="23.9277" width="8.84489" height="3.89175" transform="rotate(77.3096 37.5208 23.9277)" fill="#A477FF"/>
<defs>
<clipPath id="clip0_1269_25623">
<rect width="60" height="60" fill="white" transform="translate(49.0347 6.45117)"/>
</clipPath>
</defs>
</svg>
