<svg width="85" height="85" viewBox="0 0 85 85" fill="none" xmlns="http://www.w3.org/2000/svg">
<ellipse cx="54.4674" cy="72.6756" rx="21.8631" ry="5.10138" fill="url(#paint0_linear_1269_25644)"/>
<path d="M40.4496 43.2306C51.1999 42.2776 58.8836 45.7622 65.047 60.0789C56.565 68.0661 45.2582 72.3578 33.6126 72.0104L32.5471 71.9786C28.0087 57.0669 31.7327 49.7369 40.4496 43.2306Z" fill="#E7F1FD"/>
<path d="M41.3521 45.6946C50.0713 39.1944 53.7994 31.8756 49.2722 16.9948L16.7723 28.8945C22.9244 43.1803 30.4971 46.3615 41.3521 45.6946Z" fill="#E7F1FD"/>
<path d="M40.4496 43.2306C51.1999 42.2776 58.8836 45.7622 65.047 60.0789C56.565 68.0661 45.2582 72.3578 33.6126 72.0104L32.5471 71.9786C28.0087 57.0669 31.7327 49.7369 40.4496 43.2306Z" fill="#E7F1FD"/>
<mask id="mask0_1269_25644" style="mask-type:alpha" maskUnits="userSpaceOnUse" x="16" y="16" width="36" height="30">
<path d="M41.3522 45.6966C50.0714 39.1964 53.7995 31.8776 49.2724 16.9968L16.7725 28.8965C22.9246 43.1823 30.4972 46.3634 41.3522 45.6966Z" fill="#E7F1FD"/>
</mask>
<g mask="url(#mask0_1269_25644)">
<path d="M45.4565 39.3288C42.3651 28.7723 50.8521 26.1426 50.0209 18.9822L52.3766 17.9006L54.3857 36.0716C54.3857 36.0716 48.548 49.8854 45.4565 39.3288Z" fill="#4793F1"/>
</g>
<path d="M49.1977 52.6936C54.279 52.9823 58.7396 54.4964 62.3107 59.4983C62.6569 59.9832 62.5213 60.6539 62.0302 60.9913C54.2616 66.3287 45.2868 69.6487 35.9149 70.652L35.5837 70.6875C34.9566 70.7546 34.3935 70.2667 34.3387 69.6384C32.8072 52.0701 34.3919 54.0699 38.2533 54.3335C41.9313 54.5847 45.5171 52.4846 49.1977 52.6936Z" fill="#FFBF39"/>
<path fill-rule="evenodd" clip-rule="evenodd" d="M34.3765 26.6443C43.3511 23.3583 50.0029 18.9914 49.2336 16.8905C49.233 16.8888 49.2324 16.8871 49.2318 16.8854L48.4836 14.8421L45.9285 15.7776C42.6542 15.7792 37.3435 16.9302 31.5909 19.0365C25.8383 21.1428 21.04 23.6932 18.5388 25.8062L15.9837 26.7418L16.7336 28.79L16.7337 28.79C16.7337 28.7901 16.7337 28.7902 16.7337 28.7902C17.503 30.8911 25.4019 29.9303 34.3765 26.6443Z" fill="#2538BF"/>
<ellipse cx="32.2291" cy="20.7793" rx="17.305" ry="4.03782" transform="rotate(-20.11 32.2291 20.7793)" fill="#0E72ED"/>
<ellipse cx="46.1119" cy="55.0451" rx="11.5246" ry="2.68908" transform="rotate(1.17086 46.1119 55.0451)" fill="#C28030"/>
<path fill-rule="evenodd" clip-rule="evenodd" d="M32.2235 71.0937L32.2233 71.0938L32.9732 73.142L32.9732 73.142L32.9733 73.1422C33.7425 75.2431 41.6415 74.2823 50.6161 70.9963C59.5907 67.7103 66.2424 63.3433 65.4732 61.2425L65.4713 61.2374L64.7299 59.2126C65.4524 61.3206 58.8137 65.6712 49.866 68.9473C40.892 72.2331 32.9936 73.194 32.2235 71.0937Z" fill="#2538BF"/>
<path d="M7.03395 29.2571C6.15497 26.5821 6.85767 24.0622 7.86423 22.2295C8.07345 21.8485 8.45082 22.0961 8.29259 22.5009C7.11928 25.5026 7.33444 27.7534 7.45396 29.1728C7.48445 29.535 7.14741 29.6024 7.03395 29.2571Z" fill="#A8CCF8"/>
<path d="M66.6585 44.0898C66.1693 41.7829 65.0339 40.6361 63.7713 39.9927C63.3841 39.7954 63.1495 40.3589 63.5014 40.6139C65.5355 42.0878 66.0111 43.3052 66.3313 44.2008C66.4537 44.5431 66.7339 44.4454 66.6585 44.0898Z" fill="#A8CCF8"/>
<path d="M10.7152 31.1182C9.42495 27.1916 10.4564 23.4926 11.934 20.8023C12.2411 20.2431 12.795 20.6065 12.5628 21.2008C10.8405 25.6069 11.1563 28.9108 11.3317 30.9944C11.3765 31.5261 10.8818 31.6251 10.7152 31.1182Z" fill="#A8CCF8"/>
<path d="M25.3348 65.8842C23.6617 62.1049 24.3215 58.3219 25.525 55.4984C25.7752 54.9115 26.3624 55.2182 26.1902 55.8325C24.9132 60.3877 25.5549 63.644 25.9361 65.7C26.0333 66.2246 25.5508 66.3721 25.3348 65.8842Z" fill="#A8CCF8"/>
<path d="M65.8698 48.8447C64.7308 45.1724 61.775 43.1201 59.0409 41.9551C58.4539 41.705 58.1852 42.3808 58.7359 42.703C62.5627 44.9417 63.1093 46.0764 65.1061 49.1577C65.4134 49.6318 66.0372 49.3843 65.8698 48.8447Z" fill="#A8CCF8"/>
<defs>
<linearGradient id="paint0_linear_1269_25644" x1="34.6669" y1="75.4119" x2="75.093" y2="72.5243" gradientUnits="userSpaceOnUse">
<stop stop-color="#A8CCF8"/>
<stop offset="1" stop-color="#2538BF" stop-opacity="0"/>
</linearGradient>
</defs>
</svg>
