<svg width="159" height="97" viewBox="0 0 159 97" fill="none" xmlns="http://www.w3.org/2000/svg">
<path d="M23.1097 43.0736C51.4863 43.8924 64.5323 41.3905 82.5984 33.8393C104.542 24.6732 117.077 16.7354 138.059 22.5807C154.712 27.2434 170.013 51.1707 144.552 73.2329C121.767 92.9752 87.949 98.2292 65.7948 95.4771C44.6326 92.8387 22.9894 85.6742 6.45643 70.0487C-7.07057 57.289 4.98349 42.5505 23.1097 43.0736Z" fill="url(#paint0_linear_341_4149)"/>
<ellipse cx="90.8747" cy="64.64" rx="19.1909" ry="4.47788" fill="url(#paint1_linear_341_4149)"/>
<path d="M78.6129 38.8274C88.067 37.9894 94.8244 41.0538 100.245 53.6444C92.7853 60.6686 82.8417 64.4429 72.6002 64.1374L71.6632 64.1094C67.6719 50.9956 70.9469 44.5493 78.6129 38.8274Z" fill="#E7F1FD"/>
<path d="M79.4065 40.9953C87.0744 35.2788 90.353 28.8424 86.3717 15.7557L57.7902 26.2207C63.2006 38.7841 69.8602 41.5817 79.4065 40.9953Z" fill="#E7F1FD"/>
<path d="M78.6129 38.8274C88.067 37.9894 94.8244 41.0538 100.245 53.6444C92.7853 60.6686 82.8417 64.4429 72.6002 64.1374L71.6632 64.1094C67.6719 50.9956 70.9469 44.5493 78.6129 38.8274Z" fill="#E7F1FD"/>
<mask id="mask0_341_4149" style="mask-type:alpha" maskUnits="userSpaceOnUse" x="57" y="15" width="32" height="27">
<path d="M79.4065 40.9933C87.0744 35.2768 90.353 28.8404 86.3717 15.7537L57.7902 26.2188C63.2006 38.7822 69.8602 41.5798 79.4065 40.9933Z" fill="#E7F1FD"/>
</mask>
<g mask="url(#mask0_341_4149)">
<path d="M83.0159 35.3929C80.2972 26.1091 87.761 23.7964 87.03 17.4994L89.1017 16.5481L90.8686 32.5283C90.8686 32.5283 85.7346 44.6766 83.0159 35.3929Z" fill="#2538BF"/>
</g>
<path d="M86.3062 47.1496C90.7749 47.4034 94.6977 48.7349 97.8383 53.1338C98.1427 53.5602 98.0235 54.1501 97.5916 54.4468C90.7597 59.1407 82.8669 62.0604 74.6249 62.9428L74.3336 62.9739C73.7822 63.033 73.2869 62.6039 73.2387 62.0514C71.8919 46.6012 73.2856 48.3599 76.6814 48.5918C79.9159 48.8126 83.0694 46.9657 86.3062 47.1496Z" fill="#FFBF39"/>
<path fill-rule="evenodd" clip-rule="evenodd" d="M73.2718 24.2413C81.1644 21.3514 87.0142 17.511 86.3377 15.6635C86.3377 15.6634 86.3376 15.6634 86.3376 15.6633L86.3377 15.6633L85.6782 13.862L83.4311 14.6847C80.5516 14.6862 75.8812 15.6983 70.8221 17.5507C65.763 19.4031 61.5432 21.646 59.3435 23.5043L57.0966 24.327L57.7524 26.118C57.7536 26.1215 57.7549 26.125 57.7562 26.1285C58.4326 27.976 65.3792 27.1311 73.2718 24.2413Z" fill="#2538BF"/>
<ellipse cx="71.3834" cy="19.0825" rx="15.2186" ry="3.551" transform="rotate(-20.11 71.3834 19.0825)" fill="#648CFE"/>
<ellipse cx="83.5926" cy="49.216" rx="10.1352" ry="2.36487" transform="rotate(1.17086 83.5926 49.216)" fill="#C28030"/>
<path fill-rule="evenodd" clip-rule="evenodd" d="M86.8938 61.4448C94.7863 58.555 100.636 54.7146 99.9597 52.867C99.9597 52.867 99.9597 52.867 99.9597 52.867L99.9597 52.867L100.619 54.6683L100.619 54.6683L100.619 54.6686C101.296 56.5162 95.4459 60.3566 87.5533 63.2464C79.6608 66.1362 72.7142 66.9812 72.0377 65.1336L72.0326 65.1193L71.3819 63.3422C72.0801 65.1765 79.0157 64.3293 86.8938 61.4448Z" fill="#2538BF"/>
<path d="M49.238 26.525C48.4681 24.1796 49.0831 21.9702 49.9652 20.3622C50.1491 20.0271 50.4808 20.2447 50.3417 20.6008C49.3143 23.232 49.5023 25.2054 49.6072 26.4508C49.634 26.7694 49.3378 26.8287 49.238 26.525Z" fill="#0E72ED"/>
<path d="M101.575 39.5446C101.146 37.5235 100.152 36.5172 99.0455 35.9522C98.7051 35.7784 98.4987 36.2737 98.8081 36.4981C100.589 37.7896 101.007 38.8567 101.288 39.6421C101.395 39.9431 101.642 39.8573 101.575 39.5446Z" fill="#0E72ED"/>
<path d="M52.4689 28.1581C51.3387 24.7154 52.2415 21.4722 53.5364 19.1118C53.8062 18.6199 54.2931 18.9394 54.0891 19.462C52.5809 23.3244 52.8568 26.2212 53.0108 28.0493C53.0502 28.5169 52.6153 28.6039 52.4689 28.1581Z" fill="#0E72ED"/>
<path d="M65.3016 58.6753C63.8356 55.3615 64.4125 52.0448 65.467 49.5677C65.6868 49.0514 66.203 49.3211 66.0517 49.8614C64.9338 53.8542 65.4955 56.7094 65.8299 58.5133C65.9155 58.9746 65.4914 59.1044 65.3016 58.6753Z" fill="#0E72ED"/>
<path d="M100.882 43.7173C99.8827 40.4987 97.2928 38.6985 94.8955 37.6758C94.3794 37.4556 94.1431 38.0496 94.6273 38.333C97.9799 40.2952 98.461 41.2916 100.211 43.9925C100.481 44.4094 101.03 44.1917 100.882 43.7173Z" fill="#0E72ED"/>
<defs>
<linearGradient id="paint0_linear_341_4149" x1="79.3738" y1="96.1621" x2="79.3738" y2="20.5792" gradientUnits="userSpaceOnUse">
<stop stop-color="#EFF2FD" stop-opacity="0"/>
<stop offset="1" stop-color="#EFF2FD"/>
</linearGradient>
<linearGradient id="paint1_linear_341_4149" x1="73.4943" y1="67.0419" x2="108.979" y2="64.5072" gradientUnits="userSpaceOnUse">
<stop stop-color="#2538BF"/>
<stop offset="1" stop-color="#2538BF" stop-opacity="0"/>
</linearGradient>
</defs>
</svg>
