<svg width="16" height="16" viewBox="0 0 16 16" fill="none" xmlns="http://www.w3.org/2000/svg">
<path d="M3.2706 0C2.6681 0 2.17969 0.488417 2.17969 1.09091V14.9091C2.17969 15.5116 2.6681 16 3.2706 16H12.7251C13.3276 16 13.8161 15.5116 13.8161 14.9091V4.36364L9.45241 0H3.2706Z" fill="#34A953"/>
<path d="M9.45117 0L13.8148 4.36364H9.45119C9.45119 4.40359 9.45119 4.40359 9.45119 4.36364L9.45117 0Z" fill="#188138"/>
<path fill-rule="evenodd" clip-rule="evenodd" d="M11.8161 7.45471V12.9093H4.17969V7.45471H7.5206H11.8161ZM7.5206 8.61082H5.13423V9.87507H7.5206V8.61082ZM8.47514 9.87507V8.61082H10.8615V9.87507H8.47514ZM7.5206 10.6336H5.13423V11.8979H7.5206V10.6336ZM8.47514 11.8979V10.6336H10.8615V11.8979H8.47514Z" fill="white"/>
</svg>
