<svg width="16" height="16" viewBox="0 0 16 16" fill="none" xmlns="http://www.w3.org/2000/svg">
<path d="M1.20962 13.052L1.91523 14.2708C2.06185 14.5274 2.27262 14.729 2.52005 14.8756L5.04009 10.5136H0C0 10.7977 0.0733104 11.0818 0.219931 11.3384L1.20962 13.052Z" fill="#0066DA"/>
<path d="M8 5.3819L5.47995 1.01993C5.23253 1.16655 5.02176 1.36815 4.87514 1.62474L0.219931 9.68888C0.0760069 9.93994 0.000191627 10.2242 0 10.5136H5.04009L8 5.3819Z" fill="#00AC47"/>
<path d="M13.4794 14.8756C13.7268 14.729 13.9376 14.5274 14.0842 14.2708L14.3774 13.7668L15.7795 11.3384C15.9261 11.0818 15.9994 10.7977 15.9994 10.5136H10.959L12.0315 12.6213L13.4794 14.8756Z" fill="#EA4335"/>
<path d="M8.00051 5.3819L10.5206 1.01993C10.2731 0.873313 9.98906 0.800003 9.69582 0.800003H6.30521C6.01197 0.800003 5.72789 0.882477 5.48047 1.01993L8.00051 5.3819Z" fill="#00832D"/>
<path d="M10.9594 10.5136H5.03958L2.51953 14.8756C2.76695 15.0222 3.05103 15.0955 3.34427 15.0955H12.6547C12.9479 15.0955 13.232 15.0131 13.4794 14.8756L10.9594 10.5136Z" fill="#2684FC"/>
<path d="M13.4525 5.65681L11.1249 1.62474C10.9782 1.36815 10.7675 1.16655 10.52 1.01993L8 5.3819L10.9599 10.5136H15.9908C15.9908 10.2295 15.9175 9.94547 15.7709 9.68888L13.4525 5.65681Z" fill="#FFBA00"/>
</svg>
