<svg width="49" height="14" viewBox="0 0 49 14" fill="none" xmlns="http://www.w3.org/2000/svg">
<circle cx="7" cy="7" r="3" fill="#FF5C5C"/>
<path d="M16.0283 10.1626C17.9004 10.1626 19.0781 8.87939 19.0781 6.83154V6.82275C19.0781 4.7749 17.896 3.49609 16.0283 3.49609C14.1606 3.49609 12.9741 4.77051 12.9741 6.82275V6.83154C12.9741 8.87939 14.1431 10.1626 16.0283 10.1626ZM16.0283 9.0376C14.9824 9.0376 14.3276 8.17188 14.3276 6.83154V6.82275C14.3276 5.47803 14.9956 4.62109 16.0283 4.62109C17.0566 4.62109 17.7246 5.47803 17.7246 6.82275V6.83154C17.7246 8.17188 17.061 9.0376 16.0283 9.0376ZM20.3394 10H21.6094V5.94385H21.6797L24.6152 10H25.7139V3.65869H24.4438V7.69727H24.3735L21.4468 3.65869H20.3394V10ZM29.124 10H30.5171L30.9873 8.46191H33.2241L33.6943 10H35.0918L32.8857 3.65869H31.3257L29.124 10ZM32.0684 4.92432H32.1475L32.9209 7.46875H31.2905L32.0684 4.92432ZM36.1685 10H37.4956V3.65869H36.1685V10ZM39.0337 10H40.3608V7.67969H41.4463L42.6284 10H44.1313L42.7954 7.48193C43.5205 7.19629 43.9424 6.49756 43.9424 5.68457V5.67578C43.9424 4.42773 43.1162 3.65869 41.6748 3.65869H39.0337V10ZM40.3608 6.71289V4.6958H41.5122C42.1758 4.6958 42.5845 5.09131 42.5845 5.70215V5.71094C42.5845 6.33496 42.1934 6.71289 41.5298 6.71289H40.3608Z" fill="white" fill-opacity="0.62"/>
<rect x="0.5" y="0.5" width="48" height="13" rx="3.5" stroke="white" stroke-opacity="0.62"/>
</svg>
