<svg width="42" height="14" viewBox="0 0 42 14" fill="none" xmlns="http://www.w3.org/2000/svg">
<path d="M6.60791 10.1626C8.47998 10.1626 9.65771 8.87939 9.65771 6.83154V6.82275C9.65771 4.7749 8.47559 3.49609 6.60791 3.49609C4.74023 3.49609 3.55371 4.77051 3.55371 6.82275V6.83154C3.55371 8.87939 4.72266 10.1626 6.60791 10.1626ZM6.60791 9.0376C5.56201 9.0376 4.90723 8.17188 4.90723 6.83154V6.82275C4.90723 5.47803 5.5752 4.62109 6.60791 4.62109C7.63623 4.62109 8.3042 5.47803 8.3042 6.82275V6.83154C8.3042 8.17188 7.64062 9.0376 6.60791 9.0376ZM10.9189 10H12.2461V7.50391H14.8257V6.45361H12.2461V4.75293H15.0718V3.65869H10.9189V10ZM16.2979 10H17.625V7.50391H20.2046V6.45361H17.625V4.75293H20.4507V3.65869H16.2979V10ZM23.5444 10H24.9375L25.4077 8.46191H27.6445L28.1147 10H29.5122L27.3062 3.65869H25.7461L23.5444 10ZM26.4888 4.92432H26.5679L27.3413 7.46875H25.7109L26.4888 4.92432ZM30.5889 10H31.916V3.65869H30.5889V10ZM33.4541 10H34.7812V7.67969H35.8667L37.0488 10H38.5518L37.2158 7.48193C37.9409 7.19629 38.3628 6.49756 38.3628 5.68457V5.67578C38.3628 4.42773 37.5366 3.65869 36.0952 3.65869H33.4541V10ZM34.7812 6.71289V4.6958H35.9326C36.5962 4.6958 37.0049 5.09131 37.0049 5.70215V5.71094C37.0049 6.33496 36.6138 6.71289 35.9502 6.71289H34.7812Z" fill="white" fill-opacity="0.62"/>
<rect x="0.5" y="0.5" width="41" height="13" rx="3.5" stroke="white" stroke-opacity="0.62"/>
</svg>
