<svg width="24" height="24" viewBox="0 0 24 24" fill="none" xmlns="http://www.w3.org/2000/svg">
<path d="M0 9.6C0 6.23969 0 4.55953 0.653961 3.27606C1.2292 2.14708 2.14708 1.2292 3.27606 0.653961C4.55953 0 6.23968 0 9.6 0H14.4C17.7603 0 19.4405 0 20.7239 0.653961C21.8529 1.2292 22.7708 2.14708 23.346 3.27606C24 4.55953 24 6.23968 24 9.6V14.4C24 17.7603 24 19.4405 23.346 20.7239C22.7708 21.8529 21.8529 22.7708 20.7239 23.346C19.4405 24 17.7603 24 14.4 24H9.6C6.23969 24 4.55953 24 3.27606 23.346C2.14708 22.7708 1.2292 21.8529 0.653961 20.7239C0 19.4405 0 17.7603 0 14.4V9.6Z" fill="#252A30"/>
<path d="M7.625 16.601V7.3978C7.625 6.72248 8.35756 6.30172 8.94089 6.642L16.8293 11.2436C17.4081 11.5812 17.4081 12.4176 16.8293 12.7552L8.94089 17.3568C8.35756 17.6971 7.625 17.2763 7.625 16.601Z" fill="#F7F9FA"/>
<zoom name="greenRoom_welcome_start_hover" style="hover" value="|:#252A30e0"/>
<zoom name="greenRoom_welcome_start_default" style="default" value="|:#252A30cc"/>
</svg>
