<svg width="16" height="12" viewBox="0 0 16 12" fill="none" xmlns="http://www.w3.org/2000/svg">
<path fill-rule="evenodd" clip-rule="evenodd" d="M3 1H13C14.1046 1 15 1.89543 15 3V9C15 10.1046 14.1046 11 13 11H3C1.89543 11 1 10.1046 1 9V3C1 1.89543 1.89543 1 3 1ZM0 3C0 1.34315 1.34315 0 3 0H13C14.6569 0 16 1.34315 16 3V9C16 10.6569 14.6569 12 13 12H3C1.34315 12 0 10.6569 0 9V3ZM7.64453 6.89014C7.53857 7.92236 6.69434 8.62646 5.50488 8.62646C4.07617 8.62646 3.19092 7.63525 3.19092 6.03564V6.02881C3.19092 4.4292 4.07275 3.44141 5.50488 3.44141C6.67383 3.44141 7.54883 4.18652 7.64453 5.229V5.27002H6.63965V5.24609C6.53369 4.69238 6.09277 4.31641 5.50488 4.31641C4.729 4.31641 4.24707 4.96924 4.24707 6.02881V6.03564C4.24707 7.09521 4.729 7.75146 5.5083 7.75146C6.09961 7.75146 6.52686 7.40625 6.63623 6.87988L6.64307 6.85254H7.64795L7.64453 6.89014ZM12.833 6.89014C12.7271 7.92236 11.8828 8.62646 10.6934 8.62646C9.26465 8.62646 8.37939 7.63525 8.37939 6.03564V6.02881C8.37939 4.4292 9.26123 3.44141 10.6934 3.44141C11.8623 3.44141 12.7373 4.18652 12.833 5.229V5.27002H11.8281V5.24609C11.7222 4.69238 11.2812 4.31641 10.6934 4.31641C9.91748 4.31641 9.43555 4.96924 9.43555 6.02881V6.03564C9.43555 7.09521 9.91748 7.75146 10.6968 7.75146C11.2881 7.75146 11.7153 7.40625 11.8247 6.87988L11.8315 6.85254H12.8364L12.833 6.89014Z" fill="#F5F5F5"/>
</svg>
