<svg width="24" height="24" viewBox="0 0 24 24" fill="none" xmlns="http://www.w3.org/2000/svg">
<path d="M0 12C0 5.37258 5.37258 0 12 0V0C18.6274 0 24 5.37258 24 12V12C24 18.6274 18.6274 24 12 24V24C5.37258 24 0 18.6274 0 12V12Z" fill="black" fill-opacity="0.78"/>
<path fill-rule="evenodd" clip-rule="evenodd" d="M9.55806 7.55806C9.80214 7.31398 10.1979 7.31398 10.4419 7.55806L14.4419 11.5581C14.686 11.8021 14.686 12.1979 14.4419 12.4419L10.4419 16.4419C10.1979 16.686 9.80214 16.686 9.55806 16.4419C9.31398 16.1979 9.31398 15.8021 9.55806 15.5581L13.1161 12L9.55806 8.44194C9.31398 8.19786 9.31398 7.80214 9.55806 7.55806Z" fill="white"/>
<zoom name="greenRoom_next_arrow_hover" style="hover" value="|:#252A30e0"/>
<zoom name="greenRoom_next_arrow_default" style="default" value="|:#252A30cc"/>
</svg>
