<svg width="24" height="24" viewBox="0 0 24 24" fill="none" xmlns="http://www.w3.org/2000/svg">
<g filter="url(#filter0_b_6392:14892)">
<path d="M0 6C0 2.68629 2.68629 0 6 0H18C21.3137 0 24 2.68629 24 6V18C24 21.3137 21.3137 24 18 24H6C2.68629 24 0 21.3137 0 18V6Z" fill="black" fill-opacity="0.6"/>
<path fill-rule="evenodd" clip-rule="evenodd" d="M7 6C5.34315 6 4 7.34315 4 9V15C4 16.6569 5.34315 18 7 18H17C18.6569 18 20 16.6569 20 15V9C20 7.34315 18.6569 6 17 6H7ZM11.6445 12.8901C11.5386 13.9224 10.6943 14.6265 9.50488 14.6265C8.07617 14.6265 7.19092 13.6353 7.19092 12.0356V12.0288C7.19092 10.4292 8.07275 9.44141 9.50488 9.44141C10.6738 9.44141 11.5488 10.1865 11.6445 11.229V11.27H10.6396V11.2461C10.5337 10.6924 10.0928 10.3164 9.50488 10.3164C8.729 10.3164 8.24707 10.9692 8.24707 12.0288V12.0356C8.24707 13.0952 8.729 13.7515 9.5083 13.7515C10.0996 13.7515 10.5269 13.4062 10.6362 12.8799L10.6431 12.8525H11.6479L11.6445 12.8901ZM16.833 12.8901C16.7271 13.9224 15.8828 14.6265 14.6934 14.6265C13.2646 14.6265 12.3794 13.6353 12.3794 12.0356V12.0288C12.3794 10.4292 13.2612 9.44141 14.6934 9.44141C15.8623 9.44141 16.7373 10.1865 16.833 11.229V11.27H15.8281V11.2461C15.7222 10.6924 15.2812 10.3164 14.6934 10.3164C13.9175 10.3164 13.4355 10.9692 13.4355 12.0288V12.0356C13.4355 13.0952 13.9175 13.7515 14.6968 13.7515C15.2881 13.7515 15.7153 13.4062 15.8247 12.8799L15.8315 12.8525H16.8364L16.833 12.8901Z" fill="#F5F5F5"/>
</g>
<defs>
<filter id="filter0_b_6392:14892" x="-48" y="-48" width="120" height="120" filterUnits="userSpaceOnUse" color-interpolation-filters="sRGB">
<feFlood flood-opacity="0" result="BackgroundImageFix"/>
<feGaussianBlur in="BackgroundImage" stdDeviation="24"/>
<feComposite in2="SourceAlpha" operator="in" result="effect1_backgroundBlur_6392:14892"/>
<feBlend mode="normal" in="SourceGraphic" in2="effect1_backgroundBlur_6392:14892" result="shape"/>
</filter>
</defs>
</svg>
