<svg width="24" height="24" viewBox="0 0 24 24" fill="none" xmlns="http://www.w3.org/2000/svg">
<path d="M0 9.6C0 6.23969 0 4.55953 0.653961 3.27606C1.2292 2.14708 2.14708 1.2292 3.27606 0.653961C4.55953 0 6.23969 0 9.6 0H14.4C17.7603 0 19.4405 0 20.7239 0.653961C21.8529 1.2292 22.7708 2.14708 23.346 3.27606C24 4.55953 24 6.23969 24 9.6V14.4C24 17.7603 24 19.4405 23.346 20.7239C22.7708 21.8529 21.8529 22.7708 20.7239 23.346C19.4405 24 17.7603 24 14.4 24H9.6C6.23969 24 4.55953 24 3.27606 23.346C2.14708 22.7708 1.2292 21.8529 0.653961 20.7239C0 19.4405 0 17.7603 0 14.4V9.6Z" fill="#252A30" fill-opacity="0.8"/>
<path fill-rule="evenodd" clip-rule="evenodd" d="M8.5 16.8125C7.77513 16.8125 7.1875 16.2249 7.1875 15.5V8.5C7.1875 7.77513 7.77513 7.1875 8.5 7.1875C9.22487 7.1875 9.8125 7.77513 9.8125 8.5V15.5C9.8125 16.2249 9.22487 16.8125 8.5 16.8125Z" fill="white"/>
<path fill-rule="evenodd" clip-rule="evenodd" d="M15.5 16.8125C14.7751 16.8125 14.1875 16.2249 14.1875 15.5V8.5C14.1875 7.77513 14.7751 7.1875 15.5 7.1875C16.2249 7.1875 16.8125 7.77513 16.8125 8.5V15.5C16.8125 16.2249 16.2249 16.8125 15.5 16.8125Z" fill="white"/>
<zoom name="greenRoom_welcome_pause_hover" style="hover" value="|:#252A30e0"/>
<zoom name="greenRoom_welcome_pause_default" style="default" value="|:#252A30cc"/>
<zoom name="greenRoom_welcome_pause_press" style="press" value="|:#252A30ff"/>
</svg>
