<svg width="60" height="60" viewBox="0 0 60 60" fill="none" xmlns="http://www.w3.org/2000/svg">
<path fill-rule="evenodd" clip-rule="evenodd" d="M51.875 10.2905C51.875 8.63451 50.7887 7.17455 49.2026 6.6987L31.7026 1.4487C29.2965 0.726883 26.875 2.52856 26.875 5.04054V54.9603C26.875 57.4723 29.2965 59.274 31.7026 58.5522L49.2026 53.3022C50.7887 52.8263 51.875 51.3663 51.875 49.7103V10.2905ZM23.125 7.50043C23.125 6.4649 22.2855 5.62543 21.25 5.62543H13.125C10.0184 5.62543 7.5 8.14383 7.5 11.2504V48.7504C7.5 51.857 10.0184 54.3754 13.125 54.3754H21.25C22.2855 54.3754 23.125 53.536 23.125 52.5004C23.125 51.4649 22.2855 50.6254 21.25 50.6254H13.125C12.0895 50.6254 11.25 49.786 11.25 48.7504V11.2504C11.25 10.2149 12.0895 9.37543 13.125 9.37543H21.25C22.2855 9.37543 23.125 8.53596 23.125 7.50043ZM33.75 31.6777C34.7855 31.6777 35.625 30.8382 35.625 29.8027C35.625 28.7671 34.7855 27.9277 33.75 27.9277C32.7145 27.9277 31.875 28.7671 31.875 29.8027C31.875 30.8382 32.7145 31.6777 33.75 31.6777Z" fill="#F5F5F5"/>
</svg>
