<svg width="100" height="100" viewBox="0 0 100 100" fill="none" xmlns="http://www.w3.org/2000/svg">
<g filter="url(#filter0_d)">
<path d="M80 33C80 30.7909 78.2091 29 76 29H24C21.7909 29 20 30.7909 20 33V68H80V33Z" fill="#1A1A1A"/>
<path d="M20 68H80L86 75H14L20 68Z" fill="#2E2D2D"/>
<circle r="0.954023" transform="matrix(-1 0 0 1 31.1788 33.8388)" fill="#F26D21"/>
<circle r="0.954023" transform="matrix(-1 0 0 1 28.3165 33.8388)" fill="#FAAC2A"/>
<circle r="0.954023" transform="matrix(-1 0 0 1 25.4542 33.8388)" fill="#00A832"/>
<path d="M49.3084 49.7596C49.7182 49.7596 50.0535 50.0924 50.0208 50.5009C49.8947 52.0741 49.3687 53.5936 48.4873 54.9126C47.4681 56.4379 46.0195 57.6268 44.3247 58.3288C42.6299 59.0308 40.7649 59.2145 38.9657 58.8566C37.1665 58.4987 35.5138 57.6153 34.2167 56.3182C32.9195 55.021 32.0361 53.3683 31.6782 51.5691C31.3203 49.7699 31.504 47.9049 32.206 46.2101C32.9081 44.5153 34.0969 43.0667 35.6222 42.0475C36.9413 41.1662 38.4607 40.6402 40.034 40.514C40.4425 40.4813 40.7752 40.8166 40.7752 41.2264V49.0176C40.7752 49.4274 41.1074 49.7596 41.5172 49.7596H49.3084Z" fill="url(#paint0_linear)"/>
<path d="M50.7928 48.2752C51.2026 48.2752 51.5379 47.9425 51.5052 47.534C51.4279 46.5698 51.2001 45.6222 50.8288 44.7257C50.3627 43.6004 49.6795 42.5779 48.8182 41.7167C47.9569 40.8554 46.9344 40.1722 45.8091 39.706C44.9127 39.3347 43.965 39.107 43.0008 39.0297C42.5923 38.9969 42.2596 39.3322 42.2596 39.742V47.5332C42.2596 47.943 42.5918 48.2752 43.0016 48.2752H50.7928Z" fill="#FAAC2A"/>
<path fill-rule="evenodd" clip-rule="evenodd" d="M54.8735 44.5653C54.8735 44.1555 55.2057 43.8232 55.6156 43.8232H70.8269C71.2367 43.8232 71.5689 44.1555 71.5689 44.5653V45.6783C71.5689 46.0881 71.2367 46.4203 70.8269 46.4203H55.6156C55.2057 46.4203 54.8735 46.0881 54.8735 45.6783V44.5653ZM53.0186 54.2117C53.0186 53.8019 53.3508 53.4697 53.7606 53.4697H61.1807C61.5906 53.4697 61.9228 53.8019 61.9228 54.2117V55.3248C61.9228 55.7346 61.5906 56.0668 61.1808 56.0668H53.7606C53.3508 56.0668 53.0186 55.7346 53.0186 55.3248V54.2117ZM54.8739 48.6465C54.464 48.6465 54.1318 48.9787 54.1318 49.3885V50.5015C54.1318 50.9113 54.464 51.2435 54.8739 51.2435H69.7142C70.124 51.2435 70.4562 50.9113 70.4562 50.5015V49.3885C70.4562 48.9787 70.124 48.6465 69.7142 48.6465H54.8739Z" fill="#00A832"/>
<path d="M14 75.092C14 76.1457 14.8543 77 15.908 77L84.092 77C85.1457 77 86 76.1457 86 75.092V74.977C86 74.7136 85.7864 74.5 85.523 74.5L14.477 74.5C14.2136 74.5 14 74.7136 14 74.977V75.092Z" fill="#383838"/>
<path d="M56.2012 74.8578C56.2012 74.6602 56.041 74.5 55.8434 74.5L44.1566 74.5C43.959 74.5 43.7989 74.6602 43.7989 74.8578C43.7989 75.4505 44.2794 75.931 44.8721 75.931L55.1279 75.931C55.7207 75.931 56.2012 75.4505 56.2012 74.8578Z" fill="#575353"/>
</g>
<g filter="url(#filter1_d)">
<rect x="65.5" y="17" width="29.3333" height="22" rx="8.8" fill="white"/>
<mask id="mask0" style="mask-type:alpha" maskUnits="userSpaceOnUse" x="65" y="16" width="30" height="23">
<path fill-rule="evenodd" clip-rule="evenodd" d="M66.0995 20.0021C65.5 21.1786 65.5 22.7187 65.5 25.799V30.199C65.5 33.2793 65.5 34.8195 66.0995 35.996C66.6268 37.0309 67.4682 37.8723 68.5031 38.3996C69.6796 38.999 71.2197 38.999 74.3 38.999H86.0333C89.1136 38.999 90.6538 38.999 91.8303 38.3996C92.8652 37.8723 93.7066 37.0309 94.2339 35.996C94.8333 34.8195 94.8333 33.2793 94.8333 30.199V25.799C94.8333 22.7187 94.8333 21.1786 94.2339 20.0021C93.7066 18.9672 92.8652 18.1258 91.8303 17.5985C90.6538 16.999 89.1136 16.999 86.0333 16.999H74.3C71.2197 16.999 69.6796 16.999 68.5031 17.5985C67.4682 18.1258 66.6268 18.9672 66.0995 20.0021ZM80.8148 21.8508C80.4569 21.4929 79.8765 21.4929 79.5185 21.8508L75.197 26.1723C74.8391 26.5303 74.8391 27.1107 75.197 27.4686C75.555 27.8266 76.1354 27.8266 76.4934 27.4686L78.6241 25.338C78.855 25.107 79.25 25.2706 79.25 25.5973V33.499C79.25 34.0053 79.6604 34.4157 80.1667 34.4157C80.6729 34.4157 81.0833 34.0053 81.0833 33.499V25.5973C81.0833 25.2706 81.4783 25.107 81.7093 25.338L83.8399 27.4686C84.1979 27.8266 84.7783 27.8266 85.1363 27.4686C85.4942 27.1107 85.4942 26.5303 85.1363 26.1723L80.8148 21.8508Z" fill="black"/>
</mask>
<g mask="url(#mask0)">
<rect x="65.5" y="13.333" width="29.3333" height="29.3333" fill="#23D959"/>
</g>
</g>
<path opacity="0.8" d="M52.3663 13.1002C52.8054 12.2247 54.1108 12.4369 54.25 13.4063L54.3092 13.8183C54.3519 14.1156 54.5259 14.3779 54.7831 14.5328L55.417 14.9146C56.1899 15.3801 55.9997 16.5503 55.1191 16.7471L54.397 16.9085C54.104 16.974 53.8559 17.1677 53.7213 17.4361L53.5347 17.8082C53.0956 18.6836 51.7901 18.4715 51.6509 17.5021L51.5918 17.09C51.5491 16.7928 51.3751 16.5305 51.1178 16.3756L50.484 15.9938C49.7111 15.5283 49.9013 14.3581 50.7818 14.1613L51.5039 13.9999C51.797 13.9344 52.0451 13.7407 52.1797 13.4723L52.3663 13.1002Z" fill="#D5E7EB"/>
<circle cx="7.5" cy="48.5" r="1.5" stroke="#FAAC2A" stroke-width="2"/>
<defs>
<filter id="filter0_d" x="8" y="24" width="84" height="60" filterUnits="userSpaceOnUse" color-interpolation-filters="sRGB">
<feFlood flood-opacity="0" result="BackgroundImageFix"/>
<feColorMatrix in="SourceAlpha" type="matrix" values="0 0 0 0 0 0 0 0 0 0 0 0 0 0 0 0 0 0 127 0" result="hardAlpha"/>
<feOffset dy="1"/>
<feGaussianBlur stdDeviation="3"/>
<feComposite in2="hardAlpha" operator="out"/>
<feColorMatrix type="matrix" values="0 0 0 0 0 0 0 0 0 0 0 0 0 0 0 0 0 0 0.08 0"/>
<feBlend mode="normal" in2="BackgroundImageFix" result="effect1_dropShadow"/>
<feBlend mode="normal" in="SourceGraphic" in2="effect1_dropShadow" result="shape"/>
</filter>
<filter id="filter1_d" x="61.5" y="10.833" width="37.333" height="37.333" filterUnits="userSpaceOnUse" color-interpolation-filters="sRGB">
<feFlood flood-opacity="0" result="BackgroundImageFix"/>
<feColorMatrix in="SourceAlpha" type="matrix" values="0 0 0 0 0 0 0 0 0 0 0 0 0 0 0 0 0 0 127 0" result="hardAlpha"/>
<feOffset dy="1.5"/>
<feGaussianBlur stdDeviation="2"/>
<feComposite in2="hardAlpha" operator="out"/>
<feColorMatrix type="matrix" values="0 0 0 0 0.159566 0 0 0 0 0.279749 0 0 0 0 0.420833 0 0 0 0.08 0"/>
<feBlend mode="normal" in2="BackgroundImageFix" result="effect1_dropShadow"/>
<feBlend mode="normal" in="SourceGraphic" in2="effect1_dropShadow" result="shape"/>
</filter>
<linearGradient id="paint0_linear" x1="31.5" y1="40.4844" x2="53.8816" y2="49.2272" gradientUnits="userSpaceOnUse">
<stop stop-color="#A2E0FF"/>
<stop offset="1" stop-color="#4BC3FF"/>
</linearGradient>
</defs>
</svg>
