<svg width="24" height="24" viewBox="0 0 24 24" fill="none" xmlns="http://www.w3.org/2000/svg">
<g filter="url(#filter0_b_7584_59761)">
<path d="M0 6C0 2.68629 2.68629 0 6 0H18C21.3137 0 24 2.68629 24 6V18C24 21.3137 21.3137 24 18 24H6C2.68629 24 0 21.3137 0 18V6Z" fill="black" fill-opacity="0.8"/>
<path fill-rule="evenodd" clip-rule="evenodd" d="M13.72 5.04866C13.55 4.96866 13.35 4.98866 13.2 5.09866L9.33 7.99866H6.5C5.12 7.99866 4 9.11866 4 10.4987V13.4987C4 14.8787 5.12 15.9987 6.5 15.9987H9.33L13.2 18.8987C13.29 18.9687 13.39 18.9987 13.5 18.9987C13.58 18.9987 13.65 18.9787 13.72 18.9487C13.89 18.8587 14 18.6887 14 18.4987V5.49866C14 5.30866 13.89 5.13866 13.72 5.04866ZM20 11.9987C20 14.0177 19.249 15.8597 18.022 17.2697C17.833 17.4867 17.496 17.4947 17.292 17.2907C17.104 17.1027 17.097 16.8047 17.271 16.6047C18.351 15.3737 19 13.7697 19 11.9987C19 10.2277 18.351 8.62366 17.271 7.39166C17.097 7.19266 17.104 6.89466 17.292 6.70666C17.496 6.50266 17.833 6.51066 18.022 6.72766C19.249 8.13766 20 9.97966 20 11.9987ZM15.899 15.1346C16.587 14.2737 17 13.1847 17 11.9987C17 10.8127 16.587 9.72365 15.899 8.86265C15.719 8.63665 15.384 8.61465 15.18 8.81865L15.149 8.84865C14.974 9.02465 14.967 9.30265 15.121 9.49765C15.669 10.1867 16 11.0557 16 11.9987C16 12.9416 15.669 13.8106 15.121 14.4996C14.967 14.6946 14.974 14.9727 15.149 15.1476L15.18 15.1786C15.384 15.3827 15.719 15.3596 15.899 15.1346Z" fill="#F7F9FA"/>
</g>
<defs>
<filter id="filter0_b_7584_59761" x="-48" y="-48" width="120" height="120" filterUnits="userSpaceOnUse" color-interpolation-filters="sRGB">
<feFlood flood-opacity="0" result="BackgroundImageFix"/>
<feGaussianBlur in="BackgroundImage" stdDeviation="24"/>
<feComposite in2="SourceAlpha" operator="in" result="effect1_backgroundBlur_7584_59761"/>
<feBlend mode="normal" in="SourceGraphic" in2="effect1_backgroundBlur_7584_59761" result="shape"/>
</filter>
</defs>
</svg>
