<svg width="100" height="100" viewBox="0 0 100 100" fill="none" xmlns="http://www.w3.org/2000/svg">
<path fill-rule="evenodd" clip-rule="evenodd" d="M46.8537 40.7783C50.2482 40.7783 53 43.5301 53 46.9247V62.2905C53 65.685 50.2482 68.4369 46.8537 68.4369H31.4108C30.8674 68.4369 30.3463 68.6527 29.9621 69.0369L23.4975 75.5015C22.2068 76.7922 20 75.8781 20 74.0528V70.4856C20 69.3541 19.0827 68.4369 17.9512 68.4369H17.1463C13.7518 68.4369 11 65.685 11 62.2905V46.9247C11 43.5301 13.7518 40.7783 17.1463 40.7783H46.8537ZM33.9095 54.6195C33.9095 55.6739 33.0548 56.5286 32.0004 56.5286C30.946 56.5286 30.0913 55.6739 30.0913 54.6195C30.0913 53.5652 30.946 52.7104 32.0004 52.7104C33.0548 52.7104 33.9095 53.5652 33.9095 54.6195ZM28.182 54.6198C28.182 55.6741 27.3272 56.5289 26.2729 56.5289C25.2185 56.5289 24.3638 55.6741 24.3638 54.6198C24.3638 53.5654 25.2185 52.7107 26.2729 52.7107C27.3272 52.7107 28.182 53.5654 28.182 54.6198ZM37.7279 56.5286C38.7823 56.5286 39.637 55.6739 39.637 54.6195C39.637 53.5652 38.7823 52.7104 37.7279 52.7104C36.6736 52.7104 35.8188 53.5652 35.8188 54.6195C35.8188 55.6739 36.6736 56.5286 37.7279 56.5286Z" fill="url(#paint0_linear)"/>
<g filter="url(#filter0_d)">
<path fill-rule="evenodd" clip-rule="evenodd" d="M48.3171 18.5C44.276 18.5 41 21.776 41 25.8171V44.1098C41 48.1509 44.276 51.4268 48.3171 51.4268H66.4166C67.0634 51.4268 67.6838 51.6838 68.1412 52.1412L77.3363 61.3363C78.8728 62.8728 81.5 61.7846 81.5 59.6117V53.6098C81.5 52.4042 82.4773 51.4268 83.6829 51.4268C87.724 51.4268 91 48.1509 91 44.1098V25.8171C91 21.776 87.724 18.5 83.6829 18.5H48.3171Z" fill="url(#paint1_linear)"/>
<path fill-rule="evenodd" clip-rule="evenodd" d="M76.4654 34.7796C76.4654 40.5593 71.78 45.2447 66.0003 45.2447C60.2205 45.2447 55.5352 40.5593 55.5352 34.7796C55.5352 28.9998 60.2205 24.3145 66.0003 24.3145C71.78 24.3145 76.4654 28.9998 76.4654 34.7796ZM70.6 34.7781C71.4257 34.7781 72.095 34.1088 72.095 33.2831C72.095 32.4574 71.4257 31.7881 70.6 31.7881C69.7743 31.7881 69.105 32.4574 69.105 33.2831C69.105 34.1088 69.7743 34.7781 70.6 34.7781ZM61.3998 34.7792C62.2255 34.7792 62.8948 34.1099 62.8948 33.2842C62.8948 32.4585 62.2255 31.7892 61.3998 31.7892C60.5741 31.7892 59.9048 32.4585 59.9048 33.2842C59.9048 34.1099 60.5741 34.7792 61.3998 34.7792ZM69.679 37.3304C70.1726 37.136 70.7281 37.5105 70.5499 38.0102C69.8835 39.8799 68.0975 41.2182 65.999 41.2182C63.9005 41.2182 62.1145 39.8799 61.4481 38.0102C61.2699 37.5105 61.8254 37.136 62.319 37.3304C63.3975 37.7552 64.6556 37.999 65.999 37.999C67.3424 37.999 68.6005 37.7552 69.679 37.3304Z" fill="white"/>
<circle cx="91" cy="59.5" r="1.5" fill="url(#paint2_linear)"/>
</g>
<path d="M37.3875 10.5388C37.4402 9.5737 38.6954 9.23739 39.2235 10.0468L40.0321 11.2859C40.1909 11.5293 40.4476 11.6915 40.7356 11.7305L42.4214 11.9584C43.3009 12.0773 43.6012 13.1978 42.8989 13.7406L41.5529 14.7809C41.323 14.9586 41.1818 15.2275 41.1659 15.5176L41.0853 16.995C41.0326 17.96 39.7774 18.2964 39.2493 17.4869L38.4407 16.2478C38.2819 16.0045 38.0252 15.8422 37.7372 15.8033L36.0514 15.5754C35.1719 15.4565 34.8716 14.3359 35.5739 13.7932L36.9199 12.7529C37.1498 12.5752 37.291 12.3063 37.3069 12.0162L37.3875 10.5388Z" fill="url(#paint3_linear)"/>
<path d="M61.2975 79.9807C61.5938 79.0532 62.9062 79.0532 63.2025 79.9807L63.3939 80.5796C63.4822 80.8558 63.6861 81.0801 63.9526 81.1943L64.8547 81.5808C65.6629 81.9271 65.6629 83.0729 64.8547 83.4192L63.9526 83.8057C63.6861 83.9199 63.4822 84.1442 63.3939 84.4204L63.2025 85.0193C62.9062 85.9468 61.5938 85.9468 61.2975 85.0193L61.1061 84.4204C61.0178 84.1442 60.8139 83.9199 60.5474 83.8057L59.6453 83.4192C58.8371 83.0729 58.8371 81.9271 59.6453 81.5808L60.5474 81.1943C60.8139 81.0801 61.0178 80.8558 61.1061 80.5796L61.2975 79.9807Z" fill="url(#paint4_linear)"/>
<defs>
<filter id="filter0_d" x="37" y="15.5" width="59.5" height="51.5557" filterUnits="userSpaceOnUse" color-interpolation-filters="sRGB">
<feFlood flood-opacity="0" result="BackgroundImageFix"/>
<feColorMatrix in="SourceAlpha" type="matrix" values="0 0 0 0 0 0 0 0 0 0 0 0 0 0 0 0 0 0 127 0" result="hardAlpha"/>
<feOffset dy="1"/>
<feGaussianBlur stdDeviation="2"/>
<feComposite in2="hardAlpha" operator="out"/>
<feColorMatrix type="matrix" values="0 0 0 0 0.0534375 0 0 0 0 0.2375 0 0 0 0 0.138106 0 0 0 0.08 0"/>
<feBlend mode="normal" in2="BackgroundImageFix" result="effect1_dropShadow"/>
<feBlend mode="normal" in="SourceGraphic" in2="effect1_dropShadow" result="shape"/>
</filter>
<linearGradient id="paint0_linear" x1="32" y1="40.7783" x2="32" y2="76.5198" gradientUnits="userSpaceOnUse">
<stop stop-color="#ECF4FF"/>
<stop offset="1" stop-color="#F5F5F5"/>
</linearGradient>
<linearGradient id="paint1_linear" x1="41" y1="18.5" x2="98.3064" y2="44.9681" gradientUnits="userSpaceOnUse">
<stop stop-color="#EE874D"/>
<stop offset="1" stop-color="#F5C958"/>
</linearGradient>
<linearGradient id="paint2_linear" x1="89.5" y1="58" x2="93.1196" y2="59.4139" gradientUnits="userSpaceOnUse">
<stop stop-color="#A2FFD2"/>
<stop offset="1" stop-color="#FFCD4B"/>
</linearGradient>
<linearGradient id="paint3_linear" x1="43.323" y1="15.6885" x2="34.9924" y2="10.5478" gradientUnits="userSpaceOnUse">
<stop stop-color="#F09B51"/>
<stop offset="1" stop-color="#D2ED2E"/>
</linearGradient>
<linearGradient id="paint4_linear" x1="65.1" y1="84.9655" x2="59.4107" y2="79.0759" gradientUnits="userSpaceOnUse">
<stop stop-color="#2EFA2A"/>
<stop offset="1" stop-color="#C6EEFF"/>
</linearGradient>
</defs>
</svg>
