<svg fill="none" height="16" viewBox="0 0 16 16" width="16" xmlns="http://www.w3.org/2000/svg"><path d="m1.50009 8.5h12.99991m-3.5 2.5h1.5m-6.80224-9h4.60444c.7928 0 1.1893 0 1.5308.12897.3017.11395.5714.29917.7861.53988.2429.27246.3852.64244.6698 1.38241l1.4978 3.89417c.0797.20725.1196.31088.1476.41752.0249.09474.0428.19118.0536.28855.0121.10959.0121.22062.0121.44267v1.70583c0 1.1201 0 1.6802-.218 2.108-.1917.3763-.4977.6823-.874.874-.4278.218-.9879.218-2.108.218h-7.55352c-1.10011 0-1.65016 0-2.07364-.2126-.37259-.187-.67742-.4859-.87186-.8546-.22099-.4192-.23195-.9691-.25387-2.069l-.03461-1.73671c-.00467-.23426-.00701-.3514.00416-.46712.00992-.1028.02779-.20468.05345-.30472.02888-.11262.07093-.22197.15505-.44066l1.48589-3.86332c.2846-.73997.42691-1.10996.66988-1.38241.21467-.24072.48436-.42594.78609-.53989.34152-.12897.73792-.12897 1.53074-.12897z" stroke="#6e7680" stroke-linecap="round" stroke-linejoin="round"/></svg>