<svg width="12" height="12" viewBox="0 0 12 12" fill="none" xmlns="http://www.w3.org/2000/svg">
<g clip-path="url(#clip0_290_56508)">
<path fill-rule="evenodd" clip-rule="evenodd" d="M3 7.5C3.8271 7.5 4.5 8.17275 4.5 9C4.5 9.82725 3.8271 10.5 3 10.5C2.1729 10.5 1.5 9.82725 1.5 9C1.5 8.17275 2.1729 7.5 3 7.5ZM3 6.75C1.7574 6.75 0.75 7.75747 0.75 9C0.75 10.2425 1.7574 11.25 3 11.25C4.24268 11.25 5.25 10.2425 5.25 9C5.25 7.75747 4.2426 6.75 3 6.75ZM9 1.5C9.8271 1.5 10.5 2.17275 10.5 3C10.5 3.82725 9.8271 4.5 9 4.5C8.1729 4.5 7.5 3.82725 7.5 3C7.5 2.17275 8.17298 1.5 9 1.5ZM9 0.75C7.7574 0.75 6.75 1.75747 6.75 3C6.75 4.24253 7.7574 5.25 9 5.25C10.2427 5.25 11.25 4.24253 11.25 3C11.25 1.75747 10.2427 0.75 9 0.75ZM1.12514 5.625C1.33244 5.625 1.50014 5.45655 1.50014 5.25V3.75C1.50014 2.50928 2.50941 1.5 3.75014 1.5H5.25C5.4573 1.5 5.625 1.33155 5.625 1.125C5.625 0.91845 5.4573 0.75 5.25 0.75H3.75014C2.09556 0.75 0.750137 2.09617 0.750137 3.75V5.25C0.750137 5.45655 0.917837 5.625 1.12514 5.625ZM6.75 11.25H8.25014C9.90471 11.25 11.2501 9.90383 11.2501 8.25L11.25 6.75C11.25 6.54345 11.0823 6.375 10.875 6.375C10.6677 6.375 10.5 6.54345 10.5 6.75L10.5001 8.25C10.5001 9.49072 9.49086 10.5 8.25014 10.5H6.75C6.5427 10.5 6.375 10.6684 6.375 10.875C6.375 11.0816 6.5427 11.25 6.75 11.25Z" fill="#F5F5F5"/>
</g>
<defs>
<clipPath id="clip0_290_56508">
<rect width="12" height="12" fill="white" transform="translate(0.212769)"/>
</clipPath>
</defs>
</svg>
