<svg width="16" height="16" viewBox="0 0 16 16" fill="none" xmlns="http://www.w3.org/2000/svg">
<path fill-rule="evenodd" clip-rule="evenodd" d="M14.7949 2.19499C15.0684 1.92162 15.0684 1.4784 14.7949 1.20503C14.5216 0.931657 14.0783 0.931657 13.805 1.20503L10.275 4.73509V2.22501C10.275 1.8384 9.96152 1.52501 9.57491 1.52501C9.18831 1.52501 8.8749 1.8384 8.8749 2.22501V6.42505C8.8749 6.81165 9.18831 7.12506 9.57491 7.12506H13.775C14.1616 7.12506 14.475 6.81165 14.475 6.42505C14.475 6.03845 14.1616 5.72505 13.775 5.72505H11.2649L14.7949 2.19499ZM2.22501 8.87525C1.8384 8.87525 1.52501 9.18865 1.52501 9.57526C1.52501 9.96186 1.8384 10.2753 2.22501 10.2753H4.73509L1.20503 13.8053C0.931657 14.0787 0.931657 14.5219 1.20503 14.7952C1.4784 15.0687 1.92162 15.0687 2.19499 14.7952L5.72505 11.2652V13.7753C5.72505 14.1619 6.03845 14.4753 6.42505 14.4753C6.81165 14.4753 7.12506 14.1619 7.12506 13.7753V9.57526C7.12506 9.38961 7.05131 9.21156 6.92003 9.08027C6.78875 8.949 6.6107 8.87525 6.42505 8.87525H2.22501Z" fill="#F7F9FA"/>
</svg>
