<svg width="24" height="24" viewBox="0 0 24 24" fill="none" xmlns="http://www.w3.org/2000/svg">
<path fill-rule="evenodd" clip-rule="evenodd" d="M12 24C18.6274 24 24 18.6274 24 12C24 5.37258 18.6274 0 12 0C5.37258 0 0 5.37258 0 12C0 18.6274 5.37258 24 12 24ZM10.752 6.21899L11.478 14.403H12.5175L13.26 6.21899H10.752ZM11.1315 17.8515C11.3735 18.0385 11.665 18.132 12.006 18.132C12.336 18.132 12.622 18.044 12.864 17.868C13.117 17.681 13.2435 17.351 13.2435 16.878C13.2435 16.405 13.117 16.0805 12.864 15.9045C12.622 15.7285 12.336 15.6405 12.006 15.6405C11.665 15.6405 11.3735 15.7285 11.1315 15.9045C10.8895 16.0805 10.7685 16.405 10.7685 16.878C10.7685 17.34 10.8895 17.6645 11.1315 17.8515Z" fill="#C28031"/>
</svg>
