<svg width="16" height="16" viewBox="0 0 16 16" fill="none" xmlns="http://www.w3.org/2000/svg">
<path d="M2 2.64286C2 2.28782 2.33579 2 2.75 2L6.875 2C7.28921 2 7.625 2.28782 7.625 2.64286L7.625 5.85714C7.625 6.21218 7.28921 6.5 6.875 6.5L2.75 6.5C2.33579 6.5 2 6.21218 2 5.85714L2 2.64286Z" fill="#F7F9FA"/>
<path d="M8.375 2.64286C8.375 2.28782 8.71079 2 9.125 2L13.25 2C13.6642 2 14 2.28782 14 2.64286V5.85714C14 6.21218 13.6642 6.5 13.25 6.5L9.125 6.5C8.71079 6.5 8.375 6.21218 8.375 5.85714V2.64286Z" fill="#F7F9FA"/>
<path d="M5.375 7.91667C5.375 7.54848 5.03921 7.25 4.625 7.25H2.75C2.33579 7.25 2 7.54848 2 7.91667V9.58333C2 9.95152 2.33579 10.25 2.75 10.25H4.625C5.03921 10.25 5.375 9.95152 5.375 9.58333V7.91667Z" fill="#F7F9FA"/>
<path d="M9.6875 7.91667C9.6875 7.54848 9.35171 7.25 8.9375 7.25H7.0625C6.64829 7.25 6.3125 7.54848 6.3125 7.91667V9.58333C6.3125 9.95152 6.64829 10.25 7.0625 10.25H8.9375C9.35171 10.25 9.6875 9.95152 9.6875 9.58333V7.91667Z" fill="#F7F9FA"/>
<path d="M10.625 7.91667C10.625 7.54848 10.9608 7.25 11.375 7.25H13.25C13.6642 7.25 14 7.54848 14 7.91667V9.58333C14 9.95152 13.6642 10.25 13.25 10.25H11.375C10.9608 10.25 10.625 9.95152 10.625 9.58333V7.91667Z" fill="#F7F9FA"/>
<path d="M5.375 11.6667C5.375 11.2985 5.03921 11 4.625 11H2.75C2.33579 11 2 11.2985 2 11.6667V13.3333C2 13.7015 2.33579 14 2.75 14H4.625C5.03921 14 5.375 13.7015 5.375 13.3333V11.6667Z" fill="#F7F9FA"/>
<path d="M9.6875 11.6667C9.6875 11.2985 9.35171 11 8.9375 11H7.0625C6.64829 11 6.3125 11.2985 6.3125 11.6667V13.3333C6.3125 13.7015 6.64829 14 7.0625 14H8.9375C9.35171 14 9.6875 13.7015 9.6875 13.3333V11.6667Z" fill="#F7F9FA"/>
<path d="M10.625 11.6667C10.625 11.2985 10.9608 11 11.375 11H13.25C13.6642 11 14 11.2985 14 11.6667V13.3333C14 13.7015 13.6642 14 13.25 14H11.375C10.9608 14 10.625 13.7015 10.625 13.3333V11.6667Z" fill="#F7F9FA"/>
</svg>
