<svg width="16" height="16" viewBox="0 0 16 16" fill="none" xmlns="http://www.w3.org/2000/svg">
<path d="M13.25 5.375C13.6642 5.375 14 5.03921 14 4.625L14 2.75C14 2.33579 13.6642 2 13.25 2L11.375 2C10.9608 2 10.625 2.33579 10.625 2.75L10.625 4.625C10.625 5.03921 10.9608 5.375 11.375 5.375L13.25 5.375Z" fill="#F7F9FA"/>
<path d="M13.25 9.6875C13.6642 9.6875 14 9.35171 14 8.9375L14 7.0625C14 6.64829 13.6642 6.3125 13.25 6.3125L11.375 6.3125C10.9608 6.3125 10.625 6.64829 10.625 7.0625L10.625 8.9375C10.625 9.35171 10.9608 9.6875 11.375 9.6875L13.25 9.6875Z" fill="#F7F9FA"/>
<path d="M13.25 10.625C13.6642 10.625 14 10.9608 14 11.375L14 13.25C14 13.6642 13.6642 14 13.25 14L11.375 14C10.9608 14 10.625 13.6642 10.625 13.25L10.625 11.375C10.625 10.9608 10.9608 10.625 11.375 10.625L13.25 10.625Z" fill="#F7F9FA"/>
<path d="M9.125 14C9.53921 14 9.875 13.6642 9.875 13.25L9.875 2.75C9.875 2.33579 9.53921 2 9.125 2L2.75 2C2.33579 2 2 2.33579 2 2.75L2 13.25C2 13.6642 2.33579 14 2.75 14L9.125 14Z" fill="#F7F9FA"/>
</svg>
