<svg fill="none" height="16" viewBox="0 0 16 16" width="16" xmlns="http://www.w3.org/2000/svg"><path clip-rule="evenodd" d="m8 2c3.3 0 6 2.7 6 6s-2.7 6-6 6-6-2.7-6-6 2.7-6 6-6zm0-1c-3.9 0-7 3.1-7 7s3.1 7 7 7 7-3.1 7-7-3.1-7-7-7zm.00002 9.8042c-.3 0-.6.3-.6.6s.3.6.6.6.6-.3.6-.6-.3-.6-.6-.6zm-.50002-1.3042c0 .3.2.5.5.5s.5-.2.5-.5c0-.8.3-1.5.8-2 .4-.4.7-.9.7-1.5 0-1.1-.9-2-2-2s-2 .9-2 2c0 .3.2.5.5.5s.5-.2.5-.5c0-.6.4-1 1-1s1 .4 1 1c0 .3-.1.6-.3.8-.8.6-1.2 1.6-1.2 2.7z" fill="#37373b" fill-rule="evenodd"/>
<zoom style="dark" value="|:#9c9cad"/>
</svg>
