<svg width="16" height="16" viewBox="0 0 16 16" fill="none" xmlns="http://www.w3.org/2000/svg">
<path d="M6 5.5C5.44772 5.5 5 5.94772 5 6.5C5 7.05228 5.44772 7.5 6 7.5H10C10.5523 7.5 11 7.05228 11 6.5C11 5.94772 10.5523 5.5 10 5.5H6Z" fill="#F7F9FA"/>
<path fill-rule="evenodd" clip-rule="evenodd" d="M0 3.5C0 4.05228 0.447715 4.5 1 4.5V14.5C1 15.0523 1.44772 15.5 2 15.5H14C14.5523 15.5 15 15.0523 15 14.5V4.5C15.5523 4.5 16 4.05228 16 3.5V1.5C16 0.947715 15.5523 0.5 15 0.5H1C0.447715 0.5 0 0.947715 0 1.5V3.5ZM15 1.5H1V3.5H15V1.5ZM2 4.5H14V14.5H2V4.5Z" fill="#F7F9FA"/>
</svg>
