<svg width="16" height="16" viewBox="0 0 16 16" fill="none" xmlns="http://www.w3.org/2000/svg">
<path d="M13.25 9.6875C13.6642 9.6875 14 9.35171 14 8.9375V7.0625C14 6.64829 13.6642 6.3125 13.25 6.3125H11.375C10.9608 6.3125 10.625 6.64829 10.625 7.0625V8.9375C10.625 9.35171 10.9608 9.6875 11.375 9.6875H13.25Z" fill="#F7F9FA"/>
<path d="M9.125 14C9.53921 14 9.875 13.6642 9.875 13.25V2.75C9.875 2.33579 9.53921 2 9.125 2L2.75 2C2.33579 2 2 2.33579 2 2.75V13.25C2 13.6642 2.33579 14 2.75 14H9.125Z" fill="#F7F9FA"/>
</svg>
