<svg width="14" height="14" viewBox="0 0 14 14" fill="none" xmlns="http://www.w3.org/2000/svg">
<path fill-rule="evenodd" clip-rule="evenodd" d="M7 14C10.866 14 14 10.866 14 7C14 3.13401 10.866 0 7 0C3.13401 0 0 3.13401 0 7C0 10.866 3.13401 14 7 14ZM6.27197 3.62775L6.69547 8.40175H7.30185L7.73497 3.62775H6.27197ZM6.49335 10.4134C6.63451 10.5225 6.80456 10.577 7.00347 10.577C7.19597 10.577 7.36281 10.5257 7.50397 10.423C7.65156 10.3139 7.72535 10.1214 7.72535 9.8455C7.72535 9.56958 7.65156 9.38029 7.50397 9.27762C7.36281 9.17496 7.19597 9.12362 7.00347 9.12362C6.80456 9.12362 6.63451 9.17496 6.49335 9.27762C6.35218 9.38029 6.2816 9.56958 6.2816 9.8455C6.2816 10.115 6.35218 10.3043 6.49335 10.4134Z" fill="#C28031"/>
</svg>
