<svg width="16" height="16" viewBox="0 0 16 16" fill="none" xmlns="http://www.w3.org/2000/svg">
<path fill-rule="evenodd" clip-rule="evenodd" d="M13.9261 7.39873C13.748 4.13776 11.0473 1.54839 7.74194 1.54839C4.32133 1.54839 1.54839 4.32133 1.54839 7.74194C1.54839 11.1625 4.32133 13.9355 7.74194 13.9355C8.09363 13.9355 8.4385 13.9062 8.77419 13.8498V14.9677C8.77419 15.1193 8.7905 15.267 8.82147 15.4092C8.46875 15.4584 8.10828 15.4839 7.74194 15.4839C3.46618 15.4839 0 12.0177 0 7.74194C0 3.46618 3.46618 0 7.74194 0C12.0177 0 15.4839 3.46618 15.4839 7.74194C15.4839 8.01455 15.4698 8.28387 15.4423 8.54926C15.0734 8.02209 14.5445 7.61507 13.9261 7.39873ZM12.3871 7.26862V6.19355C12.3871 5.76598 12.0405 5.41935 11.6129 5.41935C11.1853 5.41935 10.8387 5.76598 10.8387 6.19355V8.01435C11.2651 7.6327 11.7979 7.36747 12.3871 7.26862ZM8.79515 11.5759C8.48351 11.4757 8.25806 11.1836 8.25806 10.8387V4.64516C8.25806 4.21759 8.6047 3.87097 9.03226 3.87097C9.45982 3.87097 9.80645 4.21759 9.80645 4.64516V10.0827C9.2703 10.3928 8.8865 10.9372 8.79515 11.5759ZM7.22581 4.64516C7.22581 4.21759 6.87917 3.87097 6.45161 3.87097C6.02405 3.87097 5.67742 4.21759 5.67742 4.64516V10.8387C5.67742 11.2663 6.02405 11.6129 6.45161 11.6129C6.87917 11.6129 7.22581 11.2663 7.22581 10.8387V4.64516ZM3.87097 5.41935C4.29854 5.41935 4.64516 5.76598 4.64516 6.19355V9.29032C4.64516 9.71788 4.29854 10.0645 3.87097 10.0645C3.4434 10.0645 3.09677 9.71788 3.09677 9.29032V6.19355C3.09677 5.76598 3.4434 5.41935 3.87097 5.41935ZM13.4194 10.3226V10.8387H12.3871V10.3226C12.3871 10.0376 12.6182 9.80645 12.9032 9.80645C13.1882 9.80645 13.4194 10.0376 13.4194 10.3226ZM16 11.871C16 11.3009 15.5379 10.8387 14.9677 10.8387V10.3226C14.9677 9.18235 14.0435 8.25806 12.9032 8.25806C11.763 8.25806 10.8387 9.18235 10.8387 10.3226V10.8387C10.2686 10.8387 9.80645 11.3009 9.80645 11.871V14.9677C9.80645 15.5379 10.2686 16 10.8387 16H14.9677C15.5379 16 16 15.5379 16 14.9677V11.871Z" fill="#00FF91"/>
</svg>
