<svg width="16" height="16" viewBox="0 0 16 16" fill="none" xmlns="http://www.w3.org/2000/svg">
<path fill-rule="evenodd" clip-rule="evenodd" d="M2 5C2 4.44772 2.44771 4 3 4H13C13.5523 4 14 4.44772 14 5V11C14 11.5523 13.5523 12 13 12H3C2.44771 12 2 11.5523 2 11V5ZM9 7C9 6.72386 9.22386 6.5 9.5 6.5H12.5C12.7761 6.5 13 6.72386 13 7V9C13 9.27614 12.7761 9.5 12.5 9.5H9.5C9.22386 9.5 9 9.27614 9 9V7ZM3.5 6C3.22386 6 3 6.22385 3 6.5V9.5C3 9.77615 3.22386 10 3.5 10H7.5C7.77614 10 8 9.77615 8 9.5V6.5C8 6.22385 7.77614 6 7.5 6H3.5Z" fill="#F7F9FA"/>
</svg>
