<svg width="16" height="16" viewBox="0 0 16 16" fill="none" xmlns="http://www.w3.org/2000/svg">
<path d="M8.91771 9.16459C8.73246 9.07197 8.50721 9.14705 8.41459 9.33229C8.32197 9.51754 8.39705 9.74279 8.58229 9.83541C8.78734 9.93793 9.28761 10.2887 9.53959 10.7927C9.63221 10.9779 9.85746 11.053 10.0427 10.9604C10.2279 10.8678 10.303 10.6425 10.2104 10.4573C9.86239 9.76126 9.21266 9.31207 8.91771 9.16459Z" fill="#F7F9FA"/>
<path fill-rule="evenodd" clip-rule="evenodd" d="M3.5 2.375C3.5 2.58211 3.66789 2.75 3.875 2.75H4.25V4.57143C4.25 5.76119 4.77371 6.82513 5.59696 7.53267C5.80657 7.71282 6.03559 7.86987 6.28033 8C6.03559 8.13013 5.80657 8.28718 5.59696 8.46733C4.77371 9.17487 4.25 10.2388 4.25 11.4286V13.25H3.875C3.66789 13.25 3.5 13.4179 3.5 13.625C3.5 13.8321 3.66789 14 3.875 14H12.125C12.3321 14 12.5 13.8321 12.5 13.625C12.5 13.4179 12.3321 13.25 12.125 13.25H11.75V11.4286C11.75 10.2388 11.2263 9.17487 10.403 8.46733C10.1934 8.28718 9.96441 8.13013 9.71967 8C9.96441 7.86987 10.1934 7.71282 10.403 7.53267C11.2263 6.82513 11.75 5.76119 11.75 4.57143V2.75H12.125C12.3321 2.75 12.5 2.58211 12.5 2.375C12.5 2.16789 12.3321 2 12.125 2H3.875C3.66789 2 3.5 2.16789 3.5 2.375ZM5 4.57143V2.75H11V4.57143C11 5.78377 10.3314 6.82532 9.36756 7.33779L8.49371 7.80243C8.42066 7.84128 8.375 7.91726 8.375 8C8.375 8.08274 8.42066 8.15873 8.49371 8.19757L9.36756 8.66221C10.3314 9.17468 11 10.2162 11 11.4286V13.25H5V11.4286C5 10.2162 5.66864 9.17468 6.63244 8.66221L7.50629 8.19757C7.57934 8.15873 7.625 8.08274 7.625 8C7.625 7.91726 7.57934 7.84128 7.50629 7.80243L6.63244 7.33779C5.66864 6.82532 5 5.78377 5 4.57143Z" fill="#F7F9FA"/>
</svg>
