<svg width="16" height="16" viewBox="0 0 16 16" fill="none" xmlns="http://www.w3.org/2000/svg">
<path fill-rule="evenodd" clip-rule="evenodd" d="M12.3024 15C13.1685 15 14.0243 14.6677 14.519 13.9568C16.7482 10.7538 16.4608 6.27646 13.6569 3.40202C10.5327 0.199327 5.46734 0.199327 2.34315 3.40202C-0.46084 6.27646 -0.748229 10.7538 1.48098 13.9568C1.97572 14.6677 2.83153 15 3.69762 15H12.3024ZM4.0895 5.93752C5.05656 7.58062 6.2901 9.67468 6.54395 10.0971C6.62066 10.2247 6.71411 10.345 6.82416 10.4551C7.55068 11.1816 8.7286 11.1816 9.45511 10.4551C10.1816 9.72857 10.1816 8.55063 9.45511 7.8241C9.34053 7.70951 9.21471 7.613 9.08121 7.53455C8.62494 7.2609 6.56107 6.0451 4.9375 5.0895C4.38621 4.76503 3.76503 5.38622 4.0895 5.93752Z" fill="#FF7A00"/>
</svg>
