<svg width="16" height="16" viewBox="0 0 16 16" fill="none" xmlns="http://www.w3.org/2000/svg">
<g clip-path="url(#clip0_4_10)">
<path d="M12.3536 6.35355C12.5488 6.15829 12.5488 5.84171 12.3536 5.64645C12.1583 5.45118 11.8417 5.45118 11.6465 5.64645L7.04148 10.2514L5.39045 8.18765C5.21795 7.97202 4.9033 7.93706 4.68767 8.10957C4.47204 8.28207 4.43708 8.59672 4.60958 8.81235L6.60958 11.3123C6.69843 11.4234 6.83036 11.4914 6.97237 11.4992C7.11437 11.5071 7.25301 11.4541 7.35357 11.3536L12.3536 6.35355Z" fill="#F7F9FA"/>
<path fill-rule="evenodd" clip-rule="evenodd" d="M8.4363 0.159583C8.21239 -0.0531935 7.78962 -0.0531944 7.56571 0.159581C6.54252 1.1319 3.8807 3.40184 1.36539 3.37707C1.0973 3.37443 0.85168 3.55542 0.828313 3.80959C0.114371 11.5756 4.69254 15.0739 7.9497 15.9829C7.98374 15.9924 8.0183 15.9924 8.05234 15.9829C11.3095 15.0739 15.8876 11.5756 15.1737 3.80959C15.1504 3.55542 14.9047 3.37443 14.6366 3.37707C12.1213 3.40185 9.45948 1.1319 8.4363 0.159583ZM3.70117 11.8694C4.95086 13.5433 6.60317 14.5174 8.00102 14.9553C9.39885 14.5174 11.0512 13.5434 12.3008 11.8694C13.5466 10.2007 14.4359 7.7786 14.2142 4.36349C12.8311 4.26458 11.5087 3.64772 10.4505 2.99244C9.43007 2.36062 8.56554 1.6364 8.001 1.12068C7.43647 1.6364 6.57194 2.36061 5.55155 2.99244C4.49328 3.64772 3.1709 4.26457 1.78781 4.36349C1.56615 7.7786 2.45543 10.2007 3.70117 11.8694Z" fill="#F7F9FA"/>
</g>
<defs>
<clipPath id="clip0_4_10">
<rect width="16" height="16" fill="white"/>
</clipPath>
</defs>
</svg>
