<svg width="16" height="16" viewBox="0 0 16 16" fill="none" xmlns="http://www.w3.org/2000/svg">
<g clip-path="url(#clip0_38_140)">
<path d="M2 2.75C2 2.33579 2.33579 2 2.75 2H4.625C5.03921 2 5.375 2.33579 5.375 2.75V4.625C5.375 5.03921 5.03921 5.375 4.625 5.375H2.75C2.33579 5.375 2 5.03921 2 4.625V2.75Z" fill="#F7F9FA"/>
<path d="M6.3125 2.75C6.3125 2.33579 6.64829 2 7.0625 2H8.9375C9.35171 2 9.6875 2.33579 9.6875 2.75V4.625C9.6875 5.03921 9.35171 5.375 8.9375 5.375H7.0625C6.64829 5.375 6.3125 5.03921 6.3125 4.625V2.75Z" fill="#F7F9FA"/>
<path d="M14 2.75C14 2.33579 13.6642 2 13.25 2H11.375C10.9608 2 10.625 2.33579 10.625 2.75V4.625C10.625 5.03921 10.9608 5.375 11.375 5.375H13.25C13.6642 5.375 14 5.03921 14 4.625V2.75Z" fill="#F7F9FA"/>
<path d="M2 7.0625C2 6.64829 2.33579 6.3125 2.75 6.3125H4.625C5.03921 6.3125 5.375 6.64829 5.375 7.0625V8.9375C5.375 9.35171 5.03921 9.6875 4.625 9.6875H2.75C2.33579 9.6875 2 9.35171 2 8.9375V7.0625Z" fill="#F7F9FA"/>
<path d="M9.6875 7.0625C9.6875 6.64829 9.35171 6.3125 8.9375 6.3125H7.0625C6.64829 6.3125 6.3125 6.64829 6.3125 7.0625V8.9375C6.3125 9.35171 6.64829 9.6875 7.0625 9.6875H8.9375C9.35171 9.6875 9.6875 9.35171 9.6875 8.9375V7.0625Z" fill="#F7F9FA"/>
<path d="M10.625 7.0625C10.625 6.64829 10.9608 6.3125 11.375 6.3125H13.25C13.6642 6.3125 14 6.64829 14 7.0625V8.9375C14 9.35171 13.6642 9.6875 13.25 9.6875H11.375C10.9608 9.6875 10.625 9.35171 10.625 8.9375V7.0625Z" fill="#F7F9FA"/>
<path d="M5.375 11.375C5.375 10.9608 5.03921 10.625 4.625 10.625H2.75C2.33579 10.625 2 10.9608 2 11.375V13.25C2 13.6642 2.33579 14 2.75 14H4.625C5.03921 14 5.375 13.6642 5.375 13.25V11.375Z" fill="#F7F9FA"/>
<path d="M6.3125 11.375C6.3125 10.9608 6.64829 10.625 7.0625 10.625H8.9375C9.35171 10.625 9.6875 10.9608 9.6875 11.375V13.25C9.6875 13.6642 9.35171 14 8.9375 14H7.0625C6.64829 14 6.3125 13.6642 6.3125 13.25V11.375Z" fill="#F7F9FA"/>
<path d="M14 11.375C14 10.9608 13.6642 10.625 13.25 10.625H11.375C10.9608 10.625 10.625 10.9608 10.625 11.375V13.25C10.625 13.6642 10.9608 14 11.375 14H13.25C13.6642 14 14 13.6642 14 13.25V11.375Z" fill="#F7F9FA"/>
</g>
<defs>
<clipPath id="clip0_38_140">
<rect width="12" height="12" fill="white" transform="translate(2 2)"/>
</clipPath>
</defs>
</svg>
