<svg width="16" height="16" viewBox="0 0 16 16" fill="none" xmlns="http://www.w3.org/2000/svg">
<path fill-rule="evenodd" clip-rule="evenodd" d="M2.54634 3.50372C2.22543 3.46413 1.95495 3.74672 2.00629 4.06612C2.15575 4.99608 2.40554 6.73887 2.40554 8C2.40554 9.26112 2.15575 11.0039 2.00629 11.9339C1.95495 12.2532 2.22543 12.5358 2.54634 12.4962C3.71656 12.3519 6.22269 12.0709 8 12.0709C9.77727 12.0709 12.2834 12.3519 13.4537 12.4962C13.7745 12.5358 14.0451 12.2532 13.9937 11.9339C13.8442 11.0039 13.5945 9.26112 13.5945 8C13.5945 6.73887 13.8442 4.99608 13.9937 4.06612C14.0451 3.74672 13.7745 3.46413 13.4537 3.50372C12.2834 3.64809 9.77727 3.9291 8 3.9291C6.22269 3.9291 3.71656 3.64809 2.54634 3.50372ZM6.50049 7.62504C7.22499 7.62504 7.81231 7.0374 7.81231 6.31252C7.81231 5.58763 7.22499 5 6.50049 5C5.776 5 5.18869 5.58763 5.18869 6.31252C5.18869 7.0374 5.776 7.62504 6.50049 7.62504ZM3.87691 9.95C3.87691 9.08011 4.92636 8.37495 6.50054 8.37495C7.36577 8.37495 8.0726 8.58793 8.53366 8.92425C8.58936 8.96489 8.64148 9.00732 8.68986 9.05139C8.9696 9.30624 9.12432 9.61595 9.12432 9.94992C9.12432 10.4574 8.76459 10.8807 8.28637 10.9786L8.27136 10.9815L8.26989 10.9818C8.25188 10.9852 8.23371 10.9881 8.21539 10.9906C8.16937 10.9968 8.12242 11 8.07471 11H4.92636C4.34677 11 3.87691 10.5299 3.87691 9.95ZM9.92382 9.94992C9.92382 9.47643 9.74803 9.05756 9.47208 8.71755C9.58745 8.70804 9.70678 8.70312 9.82978 8.70312C10.6783 8.70312 11.3526 8.93728 11.7453 9.29502C11.99 9.518 12.1254 9.78897 12.1254 10.0812C12.1254 10.5252 11.8106 10.8957 11.3922 10.9813C11.3718 10.9855 11.3511 10.989 11.3302 10.9918C11.2899 10.9972 11.2489 11 11.2072 11H9.59735C9.8033 10.7019 9.92382 10.3401 9.92382 9.94992ZM10.9791 6.89844C10.9791 7.5327 10.4652 8.04688 9.8312 8.04688C9.1973 8.04688 8.6834 7.5327 8.6834 6.89844C8.6834 6.26418 9.1973 5.75 9.8312 5.75C10.4652 5.75 10.9791 6.26418 10.9791 6.89844Z" fill="#F7F9FA"/>
</svg>
