<svg width="16" height="16" viewBox="0 0 16 16" fill="none" xmlns="http://www.w3.org/2000/svg">
<g clip-path="url(#clip0_4_3)">
<path fill-rule="evenodd" clip-rule="evenodd" d="M0.828313 3.80959C0.85168 3.55542 1.0973 3.37443 1.36539 3.37707C3.8807 3.40184 6.54252 1.1319 7.56571 0.159581C7.78962 -0.0531944 8.21239 -0.0531935 8.4363 0.159583C9.45948 1.1319 12.1213 3.40185 14.6366 3.37707C14.9047 3.37443 15.1504 3.55542 15.1737 3.80959C15.8876 11.5756 11.3095 15.0739 8.05234 15.9829C8.0183 15.9924 7.98374 15.9924 7.9497 15.9829C4.69254 15.0739 0.114371 11.5756 0.828313 3.80959ZM8.00313 4.146C7.55433 4.146 7.20211 4.53085 7.24177 4.97789L7.62132 9.25651C7.63867 9.45206 7.80249 9.602 7.99882 9.602C8.19485 9.602 8.35853 9.45249 8.37625 9.25726L8.76436 4.97941C8.80496 4.53184 8.45254 4.146 8.00313 4.146ZM7.42097 11.901C7.5823 12.0257 7.77664 12.088 8.00397 12.088C8.22397 12.088 8.41464 12.0293 8.57597 11.912C8.74464 11.7873 8.82897 11.5673 8.82897 11.252C8.82897 10.9367 8.74464 10.7203 8.57597 10.603C8.41464 10.4857 8.22397 10.427 8.00397 10.427C7.77664 10.427 7.5823 10.4857 7.42097 10.603C7.25964 10.7203 7.17897 10.9367 7.17897 11.252C7.17897 11.56 7.25964 11.7763 7.42097 11.901Z" fill="#F8A435"/>
</g>
<defs>
<clipPath id="clip0_4_3">
<rect width="16" height="16" fill="white"/>
</clipPath>
</defs>
</svg>
