<svg width="16" height="16" viewBox="0 0 16 16" fill="none" xmlns="http://www.w3.org/2000/svg">
<path d="M13.25 4.625C13.6642 4.625 14 4.28921 14 3.875V2.75C14 2.33579 13.6642 2 13.25 2H11.375C10.9608 2 10.625 2.33579 10.625 2.75V3.875C10.625 4.28921 10.9608 4.625 11.375 4.625H13.25Z" fill="#F7F9FA"/>
<path d="M9.125 14C9.53921 14 9.875 13.6642 9.875 13.25V2.75C9.875 2.33579 9.53921 2 9.125 2L2.75 2C2.33579 2 2 2.33579 2 2.75V13.25C2 13.6642 2.33579 14 2.75 14H9.125Z" fill="#F7F9FA"/>
<path d="M13.25 8C13.6642 8 14 7.66421 14 7.25V6.125C14 5.71079 13.6642 5.375 13.25 5.375H11.375C10.9608 5.375 10.625 5.71079 10.625 6.125V7.25C10.625 7.66421 10.9608 8 11.375 8H13.25Z" fill="#F7F9FA"/>
<rect x="10.625" y="8.75" width="1.5" height="1.5" rx="0.5" fill="#F7F9FA"/>
<rect x="10.625" y="10.625" width="1.5" height="1.5" rx="0.5" fill="#F7F9FA"/>
<rect x="10.625" y="12.5" width="1.5" height="1.5" rx="0.5" fill="#F7F9FA"/>
<rect x="12.5" y="8.75" width="1.5" height="1.5" rx="0.5" fill="#F7F9FA"/>
<rect x="12.5" y="10.625" width="1.5" height="1.5" rx="0.5" fill="#F7F9FA"/>
<rect x="12.5" y="12.5" width="1.5" height="1.5" rx="0.5" fill="#F7F9FA"/>
</svg>
