<svg width="16" height="16" viewBox="0 0 16 16" fill="none" xmlns="http://www.w3.org/2000/svg">
<path fill-rule="evenodd" clip-rule="evenodd" d="M8 3.875C5.72183 3.875 3.875 5.72183 3.875 8C3.875 10.2782 5.72183 12.125 8 12.125C10.2782 12.125 12.125 10.2782 12.125 8C12.125 5.72183 10.2782 3.875 8 3.875ZM3.125 8C3.125 5.30761 5.30761 3.125 8 3.125C10.6924 3.125 12.875 5.30761 12.875 8C12.875 10.6924 10.6924 12.875 8 12.875C5.30761 12.875 3.125 10.6924 3.125 8ZM8 4.625C8.20711 4.625 8.375 4.79289 8.375 5V7.625H10.25C10.4571 7.625 10.625 7.79289 10.625 8C10.625 8.20711 10.4571 8.375 10.25 8.375H8C7.79289 8.375 7.625 8.20711 7.625 8V5C7.625 4.79289 7.79289 4.625 8 4.625Z" fill="#F7F9FA"/>
</svg>
