<svg width="16" height="16" viewBox="0 0 16 16" fill="none" xmlns="http://www.w3.org/2000/svg">
<path d="M4.1176 12.7593H11.8824C12.1663 12.7593 12.4101 12.6992 12.6138 12.579C12.8175 12.4588 12.9745 12.2951 13.0847 12.0881C13.1949 11.8843 13.25 11.6556 13.25 11.4018C13.25 11.2849 13.2333 11.1663 13.1999 11.0461C13.1665 10.9258 13.1181 10.8106 13.0546 10.7004L9.16722 3.92752C9.03697 3.70042 8.86665 3.53009 8.65625 3.41654C8.44919 3.29966 8.23044 3.24121 8 3.24121C7.76956 3.24121 7.54914 3.29966 7.33874 3.41654C7.12834 3.53009 6.95968 3.70042 6.83278 3.92752L2.94537 10.7004C2.81512 10.9242 2.75 11.158 2.75 11.4018C2.75 11.6556 2.8051 11.8843 2.91531 12.0881C3.02552 12.2951 3.18249 12.4588 3.38621 12.579C3.58993 12.6992 3.83373 12.7593 4.1176 12.7593ZM8.00501 9.40796C7.73783 9.40796 7.60091 9.27103 7.59423 8.99717L7.5291 6.26697C7.52576 6.13673 7.56751 6.02819 7.65434 5.94135C7.74451 5.85452 7.85973 5.81111 8 5.81111C8.13693 5.81111 8.25048 5.85619 8.34065 5.94636C8.43416 6.0332 8.47925 6.14174 8.47591 6.27198L8.40076 8.99717C8.39742 9.27103 8.26551 9.40796 8.00501 9.40796ZM8.00501 11.0862C7.85472 11.0862 7.72281 11.0344 7.60926 10.9309C7.49905 10.8273 7.44394 10.7004 7.44394 10.5501C7.44394 10.4032 7.49905 10.2763 7.60926 10.1694C7.71947 10.0625 7.85138 10.0091 8.00501 10.0091C8.1553 10.0091 8.28554 10.0625 8.39575 10.1694C8.5093 10.2729 8.56608 10.3998 8.56608 10.5501C8.56608 10.7004 8.5093 10.8273 8.39575 10.9309C8.28554 11.0344 8.1553 11.0862 8.00501 11.0862Z" fill="#FFCD00"/>
</svg>
