<svg width="16" height="16" viewBox="0 0 16 16" fill="none" xmlns="http://www.w3.org/2000/svg">
<path clip-rule="evenodd" d="M13 3H3C1.89543 3 1 3.89543 1 5V9.29289L4.08579 6.20711C4.86684 5.42606 6.13317 5.42606 6.91421 6.20711L10.5 9.79289L11.0858 9.20711C11.8668 8.42606 13.1332 8.42606 13.9142 9.20711L15 10.2929V5C15 3.89543 14.1046 3 13 3ZM14.9047 11.6118L13.2071 9.91421C12.8166 9.52369 12.1834 9.52369 11.7929 9.91421L11.2071 10.5L10.8536 10.8536L8.70711 13H13C13.8912 13 14.6462 12.4171 14.9047 11.6118ZM7.29289 13L9.79289 10.5L6.20711 6.91421C5.81658 6.52369 5.18342 6.52369 4.79289 6.91421L1 10.7071V11C1 12.1046 1.89543 13 3 13H7.29289ZM3 2C1.34315 2 0 3.34315 0 5V11C0 12.6569 1.34315 14 3 14H13C14.6569 14 16 12.6569 16 11V5C16 3.34315 14.6569 2 13 2H3ZM12 6C12 6.55228 11.5523 7 11 7C10.4477 7 10 6.55228 10 6C10 5.44772 10.4477 5 11 5C11.5523 5 12 5.44772 12 6Z" fill="#909096" fill-rule="evenodd"/>
<zoom style="dark" value=":none|:#F7F9FA"/>
</svg>
