<svg width="16" height="16" viewBox="0 0 16 16" fill="none" xmlns="http://www.w3.org/2000/svg">
<path fill-rule="evenodd" clip-rule="evenodd" d="M3.2 1.2H12.8C13.904 1.2 14.8 2.096 14.8 3.2V12.8C14.8 13.3304 14.5893 13.8391 14.2142 14.2142C13.8391 14.5893 13.3304 14.8 12.8 14.8H3.2C2.66957 14.8 2.16086 14.5893 1.78579 14.2142C1.41071 13.8391 1.2 13.3304 1.2 12.8V3.2C1.2 2.096 2.09486 1.2 3.2 1.2ZM0 3.2C0 2.35131 0.337142 1.53737 0.937258 0.937258C1.53737 0.337142 2.35131 0 3.2 0H12.8C13.2202 0 13.6363 0.0827704 14.0246 0.243585C14.4128 0.404401 14.7656 0.640111 15.0627 0.937258C15.3599 1.23441 15.5956 1.58717 15.7564 1.97541C15.9172 2.36365 16 2.77977 16 3.2V12.8C16 13.2202 15.9172 13.6363 15.7564 14.0246C15.5956 14.4128 15.3599 14.7656 15.0627 15.0627C14.7656 15.3599 14.4128 15.5956 14.0246 15.7564C13.6363 15.9172 13.2202 16 12.8 16H3.2C2.77977 16 2.36365 15.9172 1.97541 15.7564C1.58717 15.5956 1.23441 15.3599 0.937258 15.0627C0.640111 14.7656 0.404401 14.4128 0.243585 14.0246C0.0827704 13.6363 0 13.2202 0 12.8V3.2ZM8.52114 2.448C8.45279 2.37961 8.37164 2.32536 8.28232 2.28835C8.193 2.25134 8.09726 2.23229 8.00057 2.23229C7.90389 2.23229 7.80815 2.25134 7.71883 2.28835C7.6295 2.32536 7.54835 2.37961 7.48 2.448L5.95086 3.976C5.84356 4.08315 5.78322 4.22853 5.78311 4.38017C5.783 4.5318 5.84314 4.67727 5.95029 4.78457C6.05743 4.89187 6.20282 4.95221 6.35445 4.95232C6.50609 4.95243 6.65156 4.89229 6.75886 4.78514L8 3.54286L9.24114 4.784C9.34844 4.89115 9.49391 4.95128 9.64555 4.95118C9.79718 4.95107 9.94257 4.89073 10.0497 4.78343C10.1569 4.67613 10.217 4.53066 10.2169 4.37902C10.2168 4.22739 10.1564 4.082 10.0491 3.97486L8.52114 2.448ZM7.48 13.5509C7.76686 13.8389 8.23429 13.8389 8.52 13.5509L10.0491 12.0229C10.1037 11.9701 10.1473 11.9071 10.1772 11.8374C10.2071 11.7677 10.2229 11.6927 10.2236 11.6168C10.2242 11.5409 10.2098 11.4657 10.181 11.3955C10.1523 11.3252 10.1099 11.2614 10.0562 11.2078C10.0026 11.1541 9.93877 11.1117 9.86855 11.083C9.79832 11.0542 9.72307 11.0398 9.6472 11.0404C9.57133 11.0411 9.49634 11.0569 9.42663 11.0868C9.35691 11.1167 9.29386 11.1603 9.24114 11.2149L8 12.456L6.76 11.2149C6.65285 11.1076 6.50747 11.0472 6.35583 11.0471C6.2042 11.047 6.05873 11.1071 5.95143 11.2143C5.84413 11.3214 5.78379 11.4668 5.78368 11.6185C5.78358 11.7701 5.84371 11.9156 5.95086 12.0229L7.48 13.5509ZM13.552 7.47886C13.6204 7.54721 13.6746 7.62836 13.7116 7.71768C13.7487 7.807 13.7677 7.90274 13.7677 7.99943C13.7677 8.09612 13.7487 8.19185 13.7116 8.28118C13.6746 8.3705 13.6204 8.45165 13.552 8.52L12.024 10.0491C11.9169 10.1564 11.7715 10.2168 11.6198 10.2169C11.4682 10.217 11.3227 10.1569 11.2154 10.0497C11.1081 9.94257 11.0478 9.79718 11.0477 9.64555C11.0476 9.49391 11.1077 9.34844 11.2149 9.24114L12.4571 8L11.2171 6.75886C11.1131 6.65108 11.0555 6.50674 11.0568 6.35691C11.0581 6.20709 11.1182 6.06377 11.2241 5.95782C11.3301 5.85187 11.4734 5.79177 11.6232 5.79047C11.773 5.78917 11.9174 5.84677 12.0251 5.95086L13.5531 7.47886H13.552ZM2.44914 7.47886C2.38076 7.54721 2.32651 7.62836 2.2895 7.71768C2.25248 7.807 2.23343 7.90274 2.23343 7.99943C2.23343 8.09612 2.25248 8.19185 2.2895 8.28118C2.32651 8.3705 2.38076 8.45165 2.44914 8.52L3.97714 10.0491C4.08492 10.1532 4.22926 10.2108 4.37909 10.2095C4.52891 10.2082 4.67223 10.1481 4.77818 10.0422C4.88413 9.93623 4.94423 9.79291 4.94553 9.64309C4.94683 9.49326 4.88923 9.34892 4.78514 9.24114L3.544 8L4.78514 6.75886C4.88923 6.65108 4.94683 6.50674 4.94553 6.35691C4.94423 6.20709 4.88413 6.06377 4.77818 5.95782C4.67223 5.85187 4.52891 5.79177 4.37909 5.79047C4.22926 5.78917 4.08492 5.84677 3.97714 5.95086L2.44914 7.47886ZM6.85714 8C6.85714 7.6969 6.97755 7.40621 7.19188 7.19188C7.40621 6.97755 7.6969 6.85714 8 6.85714C8.3031 6.85714 8.59379 6.97755 8.80812 7.19188C9.02245 7.40621 9.14286 7.6969 9.14286 8C9.14286 8.3031 9.02245 8.59379 8.80812 8.80812C8.59379 9.02245 8.3031 9.14286 8 9.14286C7.6969 9.14286 7.40621 9.02245 7.19188 8.80812C6.97755 8.59379 6.85714 8.3031 6.85714 8Z" fill="#F7F9FA"/>
</svg>
