<svg width="16" height="16" viewBox="0 0 16 16" fill="none" xmlns="http://www.w3.org/2000/svg">
<rect height="15" rx="4.5" stroke="#52528017" width="15" x="0.5" y="0.5"/>
<path d="M7.37498 11.375C7.37498 11.7202 7.65477 12 7.99998 12C8.3452 12 8.62498 11.7202 8.62498 11.375V8.62503H11.375C11.7202 8.62503 12 8.34521 12 8.00003C12 7.65484 11.7202 7.37503 11.375 7.37503H8.62498V4.625C8.62498 4.27982 8.3452 4 7.99998 4C7.65477 4 7.37498 4.27982 7.37498 4.625V7.37503H4.625C4.27991 7.37503 4 7.65484 4 8.00003C4 8.34521 4.27991 8.62503 4.625 8.62503H7.37498V11.375Z" fill="#52528017"/>
<zoom style="dark" value=":none|#FFFFFF17|:#FFFFFF17"/>
</svg>
