<svg width="16" height="16" viewBox="0 0 16 16" fill="none" xmlns="http://www.w3.org/2000/svg">
<path d="M8.00313 4.14795C7.55433 4.14795 7.20211 4.5328 7.24177 4.97984L7.62132 9.25846C7.63867 9.45402 7.80249 9.60395 7.99882 9.60395C8.19485 9.60395 8.35853 9.45445 8.37625 9.25921L8.76436 4.98137C8.80496 4.5338 8.45254 4.14795 8.00313 4.14795Z" fill="#686874"/>
<path d="M7.42097 11.903C7.5823 12.0276 7.77664 12.09 8.00397 12.09C8.22397 12.09 8.41464 12.0313 8.57597 11.9139C8.74464 11.7893 8.82897 11.5693 8.82897 11.254C8.82897 10.9386 8.74464 10.7223 8.57597 10.6049C8.41464 10.4876 8.22397 10.4289 8.00397 10.4289C7.77664 10.4289 7.5823 10.4876 7.42097 10.6049C7.25964 10.7223 7.17897 10.9386 7.17897 11.254C7.17897 11.5619 7.25964 11.7783 7.42097 11.903Z" fill="#686874"/>
<path fill-rule="evenodd" clip-rule="evenodd" d="M16 8.00195C16 12.4202 12.4183 16.002 8 16.002C3.58172 16.002 0 12.4202 0 8.00195C0 3.58368 3.58172 0.00195312 8 0.00195312C12.4183 0.00195312 16 3.58368 16 8.00195ZM15 8.00195C15 11.8679 11.866 15.002 8 15.002C4.13401 15.002 1 11.8679 1 8.00195C1 4.13596 4.13401 1.00195 8 1.00195C11.866 1.00195 15 4.13596 15 8.00195Z" fill="#686874"/>
<zoom style="dark" value="|:#FFFFFF|:#FFFFFF|:#FFFFFF"/>
</svg>
