<svg width="16" height="16" viewBox="0 0 16 16" fill="none" xmlns="http://www.w3.org/2000/svg">
<path fill-rule="evenodd" clip-rule="evenodd" d="M13.3491 3.32205C13.4119 3.36975 13.4648 3.42937 13.5045 3.49751C13.5443 3.56564 13.5702 3.64095 13.5808 3.71912C13.5915 3.79729 13.5866 3.87679 13.5664 3.95307C13.5463 4.02935 13.5113 4.10091 13.4635 4.16365L7.06351 12.5636C7.0116 12.6317 6.94573 12.6878 6.87033 12.7283C6.79492 12.7688 6.71173 12.7927 6.62634 12.7984C6.54094 12.8041 6.45532 12.7914 6.37522 12.7613C6.29511 12.7311 6.22238 12.6842 6.16191 12.6236L2.56191 9.02365C2.45593 8.90991 2.39823 8.75947 2.40097 8.60403C2.40371 8.44859 2.46668 8.30028 2.57661 8.19035C2.68655 8.08042 2.83485 8.01745 2.99029 8.01471C3.14574 8.01197 3.29617 8.06966 3.40991 8.17565L6.52511 11.29L12.5091 3.43645C12.6054 3.31001 12.748 3.22695 12.9054 3.2055C13.0629 3.18405 13.2225 3.22597 13.3491 3.32205Z" fill="#0E72ED"/>
<zoom style="dark" value="|:#4793F1"/>
<zoom style="selected" value="|:#FFFFFF"/>
</svg>
