<svg width="201" height="201" viewBox="0 0 201 201" fill="none" xmlns="http://www.w3.org/2000/svg">
<g clip-path="url(#clip0_391_7773)">
<g clip-path="url(#clip1_391_7773)">
<path d="M109.28 152.33L139.425 130.971H200.5V138.571L102.071 170.453L109.28 152.33Z" fill="url(#paint0_linear_391_7773)"/>
<path d="M47.0239 86.9595L55.5196 105.539C55.9386 106.455 56.8214 107.073 57.8259 107.151L95.9881 110.143C96.7944 110.206 97.4837 109.569 97.4837 108.76V77.8983L47.0239 86.9595Z" fill="#0E72ED"/>
<path d="M152.531 85.0179V103.602C152.531 105.134 151.289 106.376 149.757 106.376H98.8717C98.1056 106.376 97.4845 105.755 97.4845 104.989V77.8983L152.531 85.0179Z" fill="#4793F1"/>
<path d="M47.0239 86.9595V147.232C47.0239 148.358 47.7047 149.372 48.7469 149.799L100.76 171.1V103.788L47.0239 86.9595Z" fill="#4793F1"/>
<path d="M47.0239 86.9595V117.479C47.0239 118.595 47.693 119.603 48.7219 120.036L86.0133 135.734C86.5939 135.979 87.2613 135.802 87.6158 135.282C89.356 132.726 94.2561 124.734 95.5177 114.143C96.3738 106.957 100.76 103.788 100.76 103.788L47.0239 86.9595Z" fill="#2538BF"/>
<path d="M152.531 85.0182V147.259C152.531 148.372 151.867 149.377 150.842 149.812L100.761 171.1V103.788L152.531 85.0182Z" fill="#0E72ED"/>
<path d="M152.531 85.0182V120.738C152.531 121.049 152.331 121.32 152.032 121.403C150.016 121.968 142.268 124.121 135.493 125.794C128.997 127.398 119.371 132.976 116.219 134.869C115.618 135.229 114.856 135.091 114.465 134.51C112.942 132.245 109.343 126.103 107.314 116.085C105.877 108.99 102.072 103.788 102.072 103.788L152.531 85.0182Z" fill="#2538BF"/>
<path d="M47.0242 86.9595L100.761 103.788C100.761 103.788 95.0603 107.733 92.8967 114.143C90.0148 122.682 85.1052 126.715 83.9641 127.563C83.8107 127.677 83.6275 127.713 83.4418 127.667C81.2429 127.132 66.633 123.478 58.1647 118.997C48.9902 114.143 32.6072 110.26 32.6072 110.26C32.6072 110.26 38.5051 104.435 40.471 96.0208C42.437 89.5485 47.0242 86.9595 47.0242 86.9595Z" fill="#E7F1FD"/>
<path d="M152.531 85.0182L100.761 103.788C100.761 103.788 106.659 107.024 107.97 112.849C109.24 118.493 111.74 125.353 115.471 129.895C115.679 130.148 116.039 130.211 116.325 130.051C122.864 126.381 127.979 122.505 142.046 118.376C156.463 114.144 154.93 112.42 164.865 108.605C164.865 108.605 158.429 98.61 157.119 92.785C155.808 86.9599 152.531 85.0182 152.531 85.0182Z" fill="#A8CCF8"/>
</g>
<path d="M152.897 42.7083C144.009 74.5995 121.617 65.5887 129.44 57.0279C137.263 48.467 151.85 63.325 119.954 78.58" stroke="#0E72ED" stroke-width="1.41459" stroke-linecap="round" stroke-dasharray="2.63 2.63"/>
<path d="M173.534 23.5336L164.096 18.5C164.096 18.5 159.581 22.787 155.917 24.792C153.698 26.0062 148.996 26.6795 148.996 26.6795L158.929 34.8591C158.929 34.8591 165.425 33.6691 168.501 31.0839C171.214 28.804 173.534 23.5336 173.534 23.5336Z" fill="#FFBF39"/>
<path d="M0.878491 165.952C0.758402 165.968 0.686928 165.82 0.772635 165.734L7.55883 158.948L23.6016 160.231L38.0933 162.122C38.1989 162.135 38.2414 162.263 38.1608 162.333C36.9694 163.364 30.6668 168.574 24.885 168.574C19.7513 167.29 16.1084 166.997 11.4091 166.007C7.40101 165.162 2.29413 165.758 0.878491 165.952Z" fill="#2538BF"/>
<path d="M1.78345 161.194L8.84227 152.852C8.84227 152.852 17.6722 151.613 22.3182 154.135C27.7199 157.067 35.7942 158.627 35.7942 158.627C35.7942 158.627 34.5107 165.686 26.1685 168.894C21.0348 167.611 19.7514 166.328 14.6177 162.477C10.7674 159.59 1.78345 161.194 1.78345 161.194Z" fill="#FFBF39"/>
<path d="M171.77 174.995C171.629 174.885 171.653 174.668 171.813 174.588L177.269 171.86L199.497 175.726C199.497 175.726 199.23 177.513 198.047 178.625C195.826 180.714 191.282 181.524 189.833 182.008C188.429 181.75 186.933 180.558 186.933 180.558C184.034 180.142 179.069 179.671 174.853 177.175C173.787 176.544 172.378 175.469 171.77 174.995Z" fill="#2538BF"/>
<path d="M185.967 167.995L192.732 168.478L197.564 163.162C197.564 163.162 198.731 164.08 199.014 166.062C199.15 167.013 199.883 170.266 199.98 172.344C200.06 174.041 199.497 175.726 199.497 175.726L189.833 179.108L185.967 167.995Z" fill="#C28030"/>
<path d="M187.32 158.214C187.437 157.988 187.706 157.89 187.941 157.988C189.383 158.589 194.227 160.667 197.181 162.653C199.789 164.405 197.008 170.511 196.637 171.294C196.615 171.341 196.631 171.395 196.676 171.422C197.312 171.797 201.566 174.455 198.991 177.062C196.385 179.702 190.939 181.66 189.937 182.005C189.833 182.041 189.723 182.04 189.62 182.002C188.69 181.657 183.845 179.823 180.849 178.001C178.05 176.298 174.221 172.998 173.08 171.997C172.935 171.869 172.987 171.632 173.171 171.574C174.523 171.151 178.778 169.695 181.183 167.436C183.651 165.116 186.538 159.723 187.32 158.214Z" fill="#FFBF39"/>
<path d="M59.0098 71.9752C64.3003 70.4375 71.7233 67.2274 75.5022 65.6896C83.816 68.7652 84.0632 73.0385 89.4574 78.3762C91.2527 80.1526 91.3604 85.9881 91.3604 85.9881C91.3604 85.9881 88.1888 92.3313 73.5993 93.6C72.3306 87.891 73.04 83.8823 69.7933 80.2791C66.5466 76.6759 62.0329 77.3574 59.0098 71.9752Z" fill="#2538BF"/>
<path d="M59.0098 71.9753C64.3003 70.4375 71.8582 66.5931 75.6372 65.0554C83.9509 68.1309 84.6031 72.0198 89.9973 77.3574C91.7926 79.1339 94.532 82.7396 94.532 82.7396C94.532 82.7396 86.9741 88.8906 75.6372 90.4284C74.1256 87.3529 72.8376 84.0362 69.5909 80.433C66.3442 76.8298 62.0329 77.3574 59.0098 71.9753Z" fill="#FFBF39"/>
</g>
<defs>
<linearGradient id="paint0_linear_391_7773" x1="102" y1="170" x2="173.068" y2="198.398" gradientUnits="userSpaceOnUse">
<stop stop-color="#2538BF"/>
<stop offset="1" stop-color="#2538BF" stop-opacity="0"/>
</linearGradient>
<clipPath id="clip0_391_7773">
<rect width="200" height="200" fill="white" transform="translate(0.5 0.5)"/>
</clipPath>
<clipPath id="clip1_391_7773">
<rect width="167.893" height="93.1108" fill="white" transform="translate(32.6072 77.8983)"/>
</clipPath>
</defs>
</svg>
