<svg width="16" height="16" viewBox="0 0 16 16" fill="none" xmlns="http://www.w3.org/2000/svg">
<path d="M9.5 14.0005L9.395 13.993C8.9825 13.933 8.6975 13.5505 8.7575 13.1455L10.2575 2.64548C10.3175 2.23298 10.7 1.94798 11.105 2.00798C11.5175 2.06798 11.8025 2.44298 11.7425 2.85548L10.2425 13.3555C10.19 13.7305 9.8675 14.0005 9.5 14.0005ZM5 14.0005L4.895 13.993C4.4825 13.933 4.1975 13.5505 4.2575 13.1455L5.7575 2.64548C5.8175 2.23298 6.1925 1.94798 6.605 2.00798C7.0175 2.06798 7.3025 2.45048 7.2425 2.85548L5.7425 13.3555C5.69 13.7305 5.3675 14.0005 5 14.0005ZM13.25 6.50048H3.5C3.0875 6.50048 2.75 6.16298 2.75 5.75048C2.75 5.33798 3.0875 5.00048 3.5 5.00048H13.25C13.6625 5.00048 14 5.33798 14 5.75048C14 6.16298 13.6625 6.50048 13.25 6.50048ZM12.5 11.0005H2.75C2.3375 11.0005 2 10.663 2 10.2505C2 9.83798 2.3375 9.50048 2.75 9.50048H12.5C12.9125 9.50048 13.25 9.83798 13.25 10.2505C13.25 10.663 12.9125 11.0005 12.5 11.0005Z" fill="#686874"/>
<zoom style="dark" value="|:#FFFFFF"/>
</svg>
