<svg width="16" height="16" viewBox="0 0 16 16" fill="none" xmlns="http://www.w3.org/2000/svg">
<path fill-rule="evenodd" clip-rule="evenodd" d="M5 0C5.27614 0 5.5 0.223858 5.5 0.5V1.00008L10.2 1C10.3031 1 10.4031 1 10.5 1.00008V0.5C10.5 0.223858 10.7239 0 11 0C11.2761 0 11.5 0.223858 11.5 0.5V1.00877C12.3652 1.02929 12.9123 1.09786 13.362 1.32698C13.9265 1.6146 14.3854 2.07354 14.673 2.63803C14.9021 3.0877 14.9707 3.63476 14.9912 4.5H1.00877C1.02929 3.63476 1.09786 3.0877 1.32698 2.63803C1.6146 2.07354 2.07354 1.6146 2.63803 1.32698C3.0877 1.09786 3.63476 1.02929 4.5 1.00877V0.5C4.5 0.223858 4.72386 0 5 0ZM10.5 2.13378V2.92857C10.5 3.20471 10.7239 3.42857 11 3.42857C11.2761 3.42857 11.5 3.20471 11.5 2.92857V2.13378C11.7989 2.30669 12 2.62986 12 3C12 3.55228 11.5523 4 11 4C10.4477 4 10 3.55228 10 3C10 2.62986 10.2011 2.30669 10.5 2.13378ZM4.5 2.92857V2.13378C4.2011 2.30669 4 2.62986 4 3C4 3.55228 4.44772 4 5 4C5.55228 4 6 3.55228 6 3C6 2.62986 5.7989 2.30669 5.5 2.13378V2.92857C5.5 3.20471 5.27614 3.42857 5 3.42857C4.72386 3.42857 4.5 3.20471 4.5 2.92857Z" fill="#686874"/>
<path d="M8.82306 8.6699C9.33917 8.25066 9.99656 8 10.7129 8C12.0191 8 13.1304 8.83481 13.5422 10H12.6801C12.4804 10 12.3613 10.2225 12.4721 10.3887L14.005 12.688C14.1039 12.8364 14.322 12.8364 14.421 12.688L14.7479 12.1976L15.9539 10.3887C16.0646 10.2225 15.9455 10 15.7458 10H14.5869C14.1428 8.27478 12.5767 7 10.7129 7C9.69809 7 8.77121 7.37835 8.06633 8.00068C7.85933 8.18344 7.88086 8.50217 8.08789 8.6849C8.29493 8.86764 8.60872 8.84401 8.82306 8.6699Z" fill="#686874"/>
<path d="M6.83891 12H5.68011C5.48043 12 5.36134 11.7775 5.4721 11.6113L7.00497 9.31201C7.10392 9.16358 7.32204 9.16358 7.42099 9.31201L8.95386 11.6113C9.06462 11.7775 8.94552 12 8.74585 12H7.88359C8.29087 13.1523 9.38215 13.9815 10.6696 13.9997C10.684 13.9999 10.6984 14 10.7129 14C10.7327 14 10.7525 13.9998 10.7722 13.9994C11.4655 13.986 12.1009 13.7378 12.6027 13.3301C12.8171 13.156 13.1309 13.1324 13.3379 13.3151C13.4255 13.3924 13.4798 13.494 13.4978 13.5994C13.5223 13.7431 13.4789 13.8939 13.3594 13.9993C12.6546 14.6216 11.7277 15 10.7129 15C9.69844 15 8.7722 14.6224 8.06707 14C7.47666 13.4789 7.04126 12.7862 6.83891 12Z" fill="#686874"/>
<path fill-rule="evenodd" clip-rule="evenodd" d="M1 9.2L1.00008 5.5H14.9999L15 8.42642C14.1257 6.97284 12.5336 6 10.7126 6C9.44465 6 8.28464 6.47373 7.40421 7.25104C7.08875 7.52957 6.94011 7.88213 6.92223 8.23442C6.63026 8.30328 6.35913 8.47758 6.17264 8.75731L4.63977 11.0566C4.08598 11.8873 4.68147 13 5.67984 13H6.12898C6.28497 13.357 6.48141 13.6923 6.71253 14H5.8C4.11984 14 3.27976 14 2.63803 13.673C2.07354 13.3854 1.6146 12.9265 1.32698 12.362C1 11.7202 1 10.8802 1 9.2Z" fill="#686874"/>
<zoom style="dark" value="|:#FFFFFF|:#FFFFFF|:#FFFFFF|:#FFFFFF"/>
</svg>
