<svg width="200" height="200" viewBox="0 0 200 200" fill="none" xmlns="http://www.w3.org/2000/svg">
<g clip-path="url(#clip0_1145_215452)">
<path opacity="0.25" d="M155.231 125.852C147.49 156.546 213.05 151.137 197.326 173.909C181.602 196.681 158.028 185.888 101.632 180.118C45.2366 174.348 -0.263331 221.896 7.36537 180.118C14.9941 138.34 40.8724 142.735 20.5567 117.62C0.241033 92.5051 -13.1405 2.00011 20.5567 2C47.7333 1.99991 96.1514 70.0283 158.278 58.8036C220.405 47.5789 162.972 95.1594 155.231 125.852Z" fill="#A8CCF8"/>
</g>
<mask id="mask0_1145_215452" style="mask-type:alpha" maskUnits="userSpaceOnUse" x="45" y="83" width="106" height="54">
<path d="M46.5096 119.551C44.4357 118.019 44.8468 114.806 47.2397 113.845L123.038 83.419C124.098 82.9934 125.303 83.1476 126.222 83.8264L150.052 101.43C150.713 101.919 150.782 102.883 150.196 103.46C135.386 118.061 116.571 127.93 96.1392 131.812L69.972 136.785C69.2637 136.919 68.532 136.736 67.9708 136.283L55.0459 125.857L46.5096 119.551Z" fill="#2538BF"/>
</mask>
<g mask="url(#mask0_1145_215452)">
<circle cx="129.816" cy="118.403" r="54.345" transform="rotate(66.7375 129.816 118.403)" fill="url(#paint0_linear_1145_215452)"/>
</g>
<path d="M46.341 139.856L45.2512 81.0047V80.5646C45.2512 80.496 45.2192 80.4314 45.1646 80.3899L20 61.2429V121.513C20 121.584 20.0345 121.651 20.0927 121.692L45.9946 140.039C46.1415 140.143 46.3444 140.036 46.341 139.856Z" fill="#0E72ED"/>
<path d="M126.736 47.0789L45.1255 79.9864C44.7047 80.1561 44.4317 80.5672 44.4383 81.0208L45.2971 139.279C45.3069 139.94 45.8958 140.443 46.551 140.349L68.5595 137.187C90.9161 133.975 111.566 123.408 127.249 107.155C127.397 107.002 127.479 106.797 127.477 106.584L127.038 47.281C127.037 47.126 126.88 47.021 126.736 47.0789Z" fill="#648CFE"/>
<path d="M20 61.2429L99.4826 28.1338C100.551 27.6887 101.775 27.8372 102.706 28.525L126.561 46.1478C127.198 46.6176 127.263 47.5446 126.7 48.0998C111.89 62.7013 92.9274 72.3662 72.4102 75.7701L45.7822 80.1878C45.1486 80.2929 44.4994 80.1368 43.9828 79.7552L31.5072 70.5391L20 61.2429Z" fill="#A8CCF8"/>
<path d="M43.5393 34.145C42.7058 40.1763 43.4365 61.7245 43.5298 64.3581C43.5359 64.5312 43.597 64.6988 43.7068 64.8327C48.116 70.2144 56.137 68.3248 58.1799 64.7976C58.246 64.6834 58.2757 64.5537 58.2757 64.4218V41.8481C58.2757 38.9638 60.792 30.5503 62.9645 27.4466C65.137 24.343 67.6534 19.4086 80.3802 16.0594C90.5481 13.3837 92.8776 19.3924 92.7726 22.7443C92.7723 22.7535 92.7722 22.7523 92.7722 22.7615V45.5022C92.7722 45.7389 92.8712 45.9594 93.0592 46.1032C96.004 48.3567 103.446 49.4301 104.804 44.2916C104.821 44.2273 104.829 44.1625 104.829 44.096V17.0642C104.829 7.01166 95.0541 3.12872 91.127 2.33373L91.1189 2.33206C91.1047 2.32916 91.0984 2.32787 91.0807 2.32581C90.4253 2.2497 70.8065 0.0895104 55.0867 12.3161C47.1228 18.5103 44.4275 27.7174 43.5393 34.145Z" fill="#F0F2FF"/>
<path fill-rule="evenodd" clip-rule="evenodd" d="M96.8098 99.7144C99.0573 97.0088 100.583 93.3793 100.583 90.2192C100.583 85.6251 97.3579 83.7629 93.3793 86.06C89.4006 88.3571 86.1753 93.9435 86.1753 98.5377C86.1753 101.534 87.5474 103.368 89.6058 103.644L89.6058 117.551L96.8098 113.392L96.8098 99.7144Z" fill="#252A30"/>
<mask id="mask1_1145_215452" style="mask-type:alpha" maskUnits="userSpaceOnUse" x="86" y="85" width="15" height="33">
<path fill-rule="evenodd" clip-rule="evenodd" d="M96.8097 99.7149C99.0572 97.0093 100.583 93.3798 100.583 90.2197C100.583 85.6256 97.3579 83.7634 93.3793 86.0605C89.4006 88.3576 86.1753 93.944 86.1753 98.5382C86.1753 101.535 87.5474 103.369 89.6058 103.645L89.6058 117.552L96.8097 113.393L96.8097 99.7149Z" fill="#F4D176"/>
</mask>
<g mask="url(#mask1_1145_215452)">
<path fill-rule="evenodd" clip-rule="evenodd" d="M93.2564 97.9384C95.504 95.2328 97.03 91.6032 97.03 88.4431C97.03 83.849 93.8047 81.9868 89.826 84.2839C85.8474 86.581 82.6221 92.1674 82.6221 96.7616C82.6221 99.758 83.9942 101.592 86.0525 101.868L86.0525 115.775L93.2564 111.616L93.2564 97.9384Z" fill="#FFBF39"/>
</g>
<mask id="mask2_1145_215452" style="mask-type:alpha" maskUnits="userSpaceOnUse" x="89" y="80" width="45" height="48">
<path d="M133.947 80.5691L95.5021 85.0104L89.604 98.3343V117.547L133.947 127.203V80.5691Z" fill="#FFBF39"/>
</mask>
<g mask="url(#mask2_1145_215452)">
<circle opacity="0.6" cx="84.7604" cy="102.99" r="35.1321" transform="rotate(51.2399 84.7604 102.99)" fill="url(#paint1_linear_1145_215452)"/>
</g>
<path fill-rule="evenodd" clip-rule="evenodd" d="M99.9118 171.29C101.494 178.058 108.264 182.262 115.032 180.679C121.8 179.097 126.003 172.327 124.421 165.559C122.838 158.791 116.069 154.588 109.301 156.17C102.533 157.753 98.3292 164.522 99.9118 171.29ZM104.555 170.015C105.556 174.294 109.837 176.952 114.116 175.952C118.396 174.951 121.054 170.67 120.054 166.391C119.053 162.111 114.772 159.453 110.492 160.453C106.213 161.454 103.555 165.735 104.555 170.015Z" fill="#2538BF"/>
<path d="M154.005 155.291C154.802 155.105 155.6 155.6 155.786 156.398L156.935 161.308L124.71 168.843C122.955 169.253 121.2 168.163 120.79 166.409C120.38 164.654 121.469 162.899 123.224 162.489L154.005 155.291Z" fill="#2538BF"/>
<path d="M151.419 153.916L157.179 152.569C157.353 152.529 157.527 152.637 157.568 152.811L161.649 170.265C162.041 171.943 160.999 173.621 159.322 174.013C157.645 174.405 155.967 173.363 155.575 171.686L151.419 153.916Z" fill="#2538BF"/>
<rect x="136.963" y="159.276" width="5.93232" height="14.8308" rx="2.96616" transform="rotate(-13.161 136.963 159.276)" fill="#2538BF"/>
<path fill-rule="evenodd" clip-rule="evenodd" d="M98.5612 168.976C100.144 175.744 106.913 179.947 113.681 178.365C120.449 176.782 124.653 170.013 123.07 163.245C121.488 156.477 114.718 152.273 107.95 153.856C101.182 155.438 96.9786 162.208 98.5612 168.976ZM103.205 167.7C104.205 171.98 108.486 174.638 112.766 173.637C117.046 172.636 119.704 168.356 118.703 164.076C117.702 159.796 113.422 157.138 109.142 158.139C104.862 159.139 102.204 163.42 103.205 167.7Z" fill="#FFBF39"/>
<path d="M152.654 152.976C153.451 152.79 154.249 153.285 154.435 154.083L155.583 158.993L123.359 166.528C121.604 166.938 119.849 165.848 119.439 164.094C119.029 162.339 120.118 160.584 121.873 160.174L152.654 152.976Z" fill="#FFBF39"/>
<path d="M150.137 153.565L155.629 152.281C155.786 152.244 155.943 152.342 155.98 152.499L159.628 168.1C160.001 169.695 159.01 171.29 157.415 171.663C155.82 172.036 154.224 171.045 153.851 169.45L150.137 153.565Z" fill="#FFBF39"/>
<rect x="135.613" y="156.961" width="5.93232" height="14.8308" rx="2.96616" transform="rotate(-13.161 135.613 156.961)" fill="#FFBF39"/>
<defs>
<linearGradient id="paint0_linear_1145_215452" x1="102.643" y1="165.955" x2="162.423" y2="72.2102" gradientUnits="userSpaceOnUse">
<stop stop-color="#2538BF"/>
<stop offset="0.927083" stop-color="#2538BF" stop-opacity="0"/>
</linearGradient>
<linearGradient id="paint1_linear_1145_215452" x1="67.1943" y1="133.731" x2="105.84" y2="73.128" gradientUnits="userSpaceOnUse">
<stop stop-color="#FFBF39"/>
<stop offset="1" stop-color="#FFBF39" stop-opacity="0"/>
</linearGradient>
<clipPath id="clip0_1145_215452">
<rect width="200" height="195.261" fill="white" transform="translate(0 2)"/>
</clipPath>
</defs>
</svg>
