<svg width="9" height="13" viewBox="0 0 10 13" fill="none" xmlns="http://www.w3.org/2000/svg">
<path fill-rule="evenodd" clip-rule="evenodd" d="M8.4002 3.60156C8.39998 1.61352 6.78829 0.00195312 4.8002 0.00195312C2.8121 0.00195312 1.20041 1.61352 1.2002 3.60156V4.80156H2.4002V3.60156H2.40039C2.40071 2.27635 3.4751 1.20215 4.80039 1.20215C6.12568 1.20215 7.20007 2.27635 7.20039 3.60156H7.2002V4.80156H8.4002V3.60195C8.4002 3.60182 8.4002 3.60169 8.4002 3.60156ZM1.5 4.80176C0.671573 4.80176 0 5.47333 0 6.30176V10.5018C0 11.3302 0.671572 12.0018 1.5 12.0018H8.1C8.92843 12.0018 9.6 11.3302 9.6 10.5018V6.30176C9.6 5.47333 8.92843 4.80176 8.1 4.80176H1.5Z" fill="#686874"/>
<zoom style="dark" value="|:#FFFFFF"/>
</svg>
