<svg width="16" height="16" viewBox="0 0 16 16" fill="none" xmlns="http://www.w3.org/2000/svg">
<path d="M1.27248 3.36502C1 3.8998 1 4.59987 1 6V8C1 9.40013 1 10.1002 1.27248 10.635C1.51217 11.1054 1.89462 11.4878 2.36502 11.7275C2.75399 11.9257 3.23039 11.9797 4 11.9945V15.5068C4 15.9614 4.57259 16.173 4.8765 15.8307L8.31925 12H11C12.4001 12 13.1002 12 13.635 11.7275C14.1054 11.4878 14.4878 11.1054 14.7275 10.635C15 10.1002 15 9.40013 15 8V6C15 4.59987 15 3.8998 14.7275 3.36502C14.4878 2.89462 14.1054 2.51217 13.635 2.27248C13.1002 2 12.4001 2 11 2H5C3.59987 2 2.8998 2 2.36502 2.27248C1.89462 2.51217 1.51217 2.89462 1.27248 3.36502Z" fill="#909096"/>
<zoom style="dark" value="|:#FFFFFF89"/>
<zoom style="hover" value="|:#2E2E2E"/>
<zoom style="hover_dark" value="|:#F5F5F5"/>
</svg>
