<svg width="16" height="16" viewBox="0 0 16 16" fill="none" xmlns="http://www.w3.org/2000/svg">
<path fill-rule="evenodd" clip-rule="evenodd" d="M5 1C5.27614 1 5.5 1.22386 5.5 1.5V2.00008L10.2 2C10.3031 2 10.4031 2 10.5 2.00008V1.5C10.5 1.22386 10.7239 1 11 1C11.2761 1 11.5 1.22386 11.5 1.5V2.00877C12.3652 2.02929 12.9123 2.09786 13.362 2.32698C13.9265 2.6146 14.3854 3.07354 14.673 3.63803C14.9021 4.0877 14.9707 4.63476 14.9912 5.5H1.00877C1.02929 4.63476 1.09786 4.0877 1.32698 3.63803C1.6146 3.07354 2.07354 2.6146 2.63803 2.32698C3.0877 2.09786 3.63476 2.02929 4.5 2.00877V1.5C4.5 1.22386 4.72386 1 5 1ZM10.5 3.13378V3.92857C10.5 4.20471 10.7239 4.42857 11 4.42857C11.2761 4.42857 11.5 4.20471 11.5 3.92857V3.13378C11.7989 3.30669 12 3.62986 12 4C12 4.55228 11.5523 5 11 5C10.4477 5 10 4.55228 10 4C10 3.62986 10.2011 3.30669 10.5 3.13378ZM4.5 3.92857V3.13378C4.2011 3.30669 4 3.62986 4 4C4 4.55228 4.44772 5 5 5C5.55228 5 6 4.55228 6 4C6 3.62986 5.7989 3.30669 5.5 3.13378V3.92857C5.5 4.20471 5.27614 4.42857 5 4.42857C4.72386 4.42857 4.5 4.20471 4.5 3.92857Z" fill="#909096"/>
<path d="M1.00008 6.5L1 10.2C1 11.8802 1 12.7202 1.32698 13.362C1.6146 13.9265 2.07354 14.3854 2.63803 14.673C3.27976 15 4.11984 15 5.8 15H10.2C11.8802 15 12.7202 15 13.362 14.673C13.9265 14.3854 14.3854 13.9265 14.673 13.362C15 12.7202 15 11.8802 15 10.2L14.9999 6.5H1.00008Z" fill="#909096"/>
<zoom style="dark" value="|:#FFFFFF89|:#FFFFFF89"/>
<zoom style="hover" value="|:#2E2E2E|:#2E2E2E"/>
<zoom style="hover_dark" value="|:#F5F5F5|:#F5F5F5"/>
<zoom style="avatar" value="|:#909096|:#909096"/>
<zoom style="avatar_dark" value="|:#F5F5F5|:#F5F5F5"/>
</svg>

