<svg width="16" height="17" viewBox="0 0 16 17" fill="none" xmlns="http://www.w3.org/2000/svg">
<path d="M5.375 7.66862C6.66366 7.66862 7.70833 6.62395 7.70833 5.33529C7.70833 4.04662 6.66366 3.00195 5.375 3.00195C4.08634 3.00195 3.04167 4.04662 3.04167 5.33529C3.04167 6.62395 4.08634 7.66862 5.375 7.66862Z" fill="#686874"/>
<path d="M13.25 6.35612C13.25 7.56424 12.2706 8.54362 11.0625 8.54362C9.85438 8.54362 8.875 7.56424 8.875 6.35612C8.875 5.148 9.85438 4.16862 11.0625 4.16862C12.2706 4.16862 13.25 5.148 13.25 6.35612Z" fill="#686874"/>
<path d="M5.375 8.83529C2.75 8.83529 1 10.0105 1 11.4603C1 12.4268 1.7835 13.2103 2.75 13.2103H8C8.07955 13.2103 8.15786 13.205 8.2346 13.1947C8.2744 13.1894 8.31378 13.1827 8.35269 13.1747C9.15013 13.0116 9.75 12.306 9.75 11.4603C9.75 10.9036 9.49199 10.3874 9.02551 9.96271C8.27711 9.28129 6.99208 8.83529 5.375 8.83529Z" fill="#686874"/>
<path d="M13.6875 13.2103H9.95659C10.3723 12.7459 10.625 12.1326 10.625 11.4603C10.625 10.8181 10.4001 10.2468 10.0304 9.76659C10.3484 9.72976 10.6924 9.71029 11.0625 9.71029C13.6875 9.71029 15 10.6897 15 11.8978C15 12.6227 14.4124 13.2103 13.6875 13.2103Z" fill="#686874"/>
<zoom style="dark" value="|:#FFFFFF|:#FFFFFF|:#FFFFFF|:#FFFFFF"/>
</svg>
