<svg width="16" height="16" viewBox="0 0 16 16" fill="none" xmlns="http://www.w3.org/2000/svg">
<path d="M7.12741 1.14458C7.48431 0.421426 8.51551 0.421426 8.87241 1.14458L10.6838 4.8148C10.6943 4.83607 10.7146 4.85081 10.738 4.85423L14.7884 5.44277C15.5864 5.55874 15.9051 6.53946 15.3276 7.10236L12.3967 9.95923C12.3798 9.97578 12.372 9.99964 12.376 10.023L13.0679 14.057C13.2042 14.8518 12.37 15.4579 11.6562 15.0827L8.03345 13.1781C8.01245 13.167 7.98737 13.167 7.96637 13.1781L4.34365 15.0827C3.62985 15.4579 2.7956 14.8518 2.93192 14.057L3.6238 10.023C3.62781 9.99964 3.62006 9.97578 3.60307 9.95923L0.672228 7.10236C0.094754 6.53946 0.413411 5.55874 1.21146 5.44277L5.26179 4.85423C5.28526 4.85081 5.30555 4.83607 5.31605 4.8148L7.12741 1.14458Z" fill="#909096"/>
<zoom style="dark" value="|:#FFFFFF89"/>
<zoom style="hover" value="|:#2E2E2E"/>
<zoom style="hover_dark" value="|:#F5F5F5"/>

</svg>
