<svg width="16" height="16" viewBox="0 0 16 16" fill="none" xmlns="http://www.w3.org/2000/svg">
<path fill-rule="evenodd" clip-rule="evenodd" d="M6 1C2.68629 1 0 3.68629 0 7C0 9.61244 1.66962 11.8349 4 12.6586V15.5068C4 15.9614 4.57259 16.173 4.8765 15.8307L7.42052 13H10C13.3137 13 16 10.3137 16 7C16 3.68629 13.3137 1 10 1H6ZM6.5 7C6.5 7.55228 6.05228 8 5.5 8C4.94772 8 4.5 7.55228 4.5 7C4.5 6.44772 4.94772 6 5.5 6C6.05228 6 6.5 6.44772 6.5 7ZM10.5 8C11.0523 8 11.5 7.55228 11.5 7C11.5 6.44772 11.0523 6 10.5 6C9.94771 6 9.5 6.44772 9.5 7C9.5 7.55228 9.94771 8 10.5 8Z" fill="#909096"/>
<zoom style="dark" value="|:#FFFFFF89"/>
<zoom style="hover" value="|:#2E2E2E"/>
<zoom style="hover_dark" value="|:#F5F5F5"/>
</svg>
