<svg width="16" height="16" viewBox="0 0 16 16" fill="none" xmlns="http://www.w3.org/2000/svg">
<path d="M1 0.5C0.447715 0.5 0 0.947715 0 1.5V3.5H16V1.5C16 0.947715 15.5523 0.5 15 0.5H1Z" fill="#686874"/>
<path fill-rule="evenodd" clip-rule="evenodd" d="M15 4.5H1V14.5C1 15.0523 1.44772 15.5 2 15.5H14C14.5523 15.5 15 15.0523 15 14.5V4.5ZM5 6.5C5 5.94772 5.44772 5.5 6 5.5H10C10.5523 5.5 11 5.94772 11 6.5C11 7.05228 10.5523 7.5 10 7.5H6C5.44772 7.5 5 7.05228 5 6.5Z" fill="#686874"/><zoom style="dark" value="|:#FFFFFF|:#FFFFFF"/>
</svg>
