<svg width="200" height="191" viewBox="0 0 200 191" fill="none" xmlns="http://www.w3.org/2000/svg">
<path d="M19.6053 51.3219C19.6967 50.8569 20.1044 50.5215 20.5783 50.5215L135.572 50.5215C136.196 50.5215 136.665 51.0917 136.545 51.7044L117.35 149.382C117.258 149.847 116.851 150.183 116.377 150.183H1.98567C1.04904 150.183 0.345501 149.327 0.526111 148.408L19.6053 51.3219Z" fill="#4793F1"/>
<path d="M19.7181 51.462C19.7535 50.9155 20.2067 50.5215 20.7544 50.5215H135.652C136.25 50.5215 136.711 51.0455 136.636 51.6379L124.244 149.316C124.181 149.811 123.832 150.183 123.333 150.183C114.088 150.183 27.5968 150.182 6.56989 150.183C4.78109 150.183 3.65251 148.22 4.31088 146.557C12.7358 125.273 19.1273 60.5856 19.7181 51.462Z" fill="#A8CCF8"/>
<path d="M19.7562 51.3772C19.8004 50.8647 20.2251 50.5215 20.7395 50.5215H135.727C136.297 50.5215 136.75 51.0008 136.717 51.5698L131.129 149.249C131.099 149.773 130.739 150.183 130.214 150.184C119.599 150.205 14.4412 150.409 12.8502 150.304C11.2659 150.199 18.9175 61.089 19.7562 51.3772Z" fill="#648CFE"/>
<path d="M19.7378 51.446C19.7518 50.9092 20.19 50.5215 20.727 50.5215H135.813C136.35 50.5215 136.789 50.9491 136.804 51.486L139.477 149.164C139.492 149.722 139.099 150.183 138.541 150.183C127.632 150.183 27.6739 150.183 22.4895 150.183C17.3163 150.183 19.4763 61.5005 19.7378 51.446Z" fill="#2538BF"/>
<path d="M19.8656 51.619C19.8105 51.0373 20.267 50.5215 20.8513 50.5215H135.798C136.341 50.5215 136.783 50.9424 136.792 51.485C136.946 60.3111 138.416 127.21 147.796 145.562C148.115 146.186 147.78 146.934 147.086 147.03C127.876 149.672 48.8523 150.13 38.6896 150.178C38.044 150.181 37.4739 149.761 37.2751 149.147C27.8058 119.878 24.1862 97.2975 19.8656 51.619Z" fill="#A8CCF8"/>
<path d="M19.8541 51.5977C19.8046 51.0188 20.2611 50.5215 20.8421 50.5215H135.816C136.352 50.5215 136.79 50.9466 136.807 51.4819L137.327 67.9394L21.1855 67.1616L19.8541 51.5977Z" fill="#4793F1"/>
<path d="M112.622 77.9434H122.618L124.348 87.9391H114.352L112.622 77.9434Z" fill="#648CFE"/>
<path d="M94.9373 77.9434H104.933L106.663 87.9391H96.6674L94.9373 77.9434Z" fill="#648CFE"/>
<path d="M77.2525 77.9434H87.2483L88.9783 87.9391H78.9825L77.2525 77.9434Z" fill="#648CFE"/>
<path d="M115.698 92.9375H125.694L127.424 102.933H117.428L115.698 92.9375Z" fill="#648CFE"/>
<path d="M98.0127 92.9375H108.008L109.738 102.933H99.7427L98.0127 92.9375Z" fill="#648CFE"/>
<path d="M80.3281 92.9375H90.3239L92.0539 102.933H82.0582L80.3281 92.9375Z" fill="#E7F1FD"/>
<path d="M62.6432 92.9375H72.639L74.369 102.933H64.3733L62.6432 92.9375Z" fill="#E7F1FD"/>
<path d="M44.9584 92.9375H54.9542L56.6842 102.933H46.6885L44.9584 92.9375Z" fill="#E7F1FD"/>
<path d="M118.389 109.086H128.385L130.115 119.082H120.119L118.389 109.086Z" fill="#648CFE"/>
<path d="M100.704 109.086H110.7L112.43 119.082H102.434L100.704 109.086Z" fill="#648CFE"/>
<path d="M83.0197 109.086H93.0154L94.7454 119.082H84.7497L83.0197 109.086Z" fill="#648CFE"/>
<path d="M65.3343 109.086H75.33L77.0601 119.082H67.0643L65.3343 109.086Z" fill="#E7F1FD"/>
<path d="M47.6497 109.086H57.6455L59.3755 119.082H49.3798L47.6497 109.086Z" fill="#648CFE"/>
<path d="M103.78 125.232H113.775L115.505 135.228H105.51L103.78 125.232Z" fill="#648CFE"/>
<path d="M86.0953 125.232H96.091L97.8211 135.228H87.8253L86.0953 125.232Z" fill="#648CFE"/>
<path d="M68.4102 125.232H78.4059L80.1359 135.228H70.1402L68.4102 125.232Z" fill="#E7F1FD"/>
<path d="M50.7253 125.232H60.7211L62.4511 135.228H52.4554L50.7253 125.232Z" fill="#E7F1FD"/>
<path d="M91.9755 105.959C95.1928 113.424 99.1486 121.565 87.6613 121.399C77.9741 121.259 80.0356 96.0593 99.8034 115.546" stroke="#2538BF" stroke-width="0.872797" stroke-linecap="round"/>
<path opacity="0.5" d="M140.69 116.657C115.913 110.153 91.9625 116.666 91.9625 116.666C102.143 112.545 120.111 104.727 139.741 107.166L140.69 116.657Z" fill="#0538BF"/>
<rect x="159.784" y="47.8438" width="84.3009" height="7.97441" transform="rotate(132.19 159.784 47.8438)" fill="url(#paint0_linear_3315_120008)"/>
<path d="M91.7996 116.912L103.17 110.305C102.363 106.475 100.828 105.586 97.2611 104.95L91.7996 116.912Z" fill="#B28100"/>
<path d="M162.186 39.2558C163.818 40.7347 163.941 43.2562 162.463 44.8878L159.785 47.842L153.876 42.4865L156.554 39.5323C158.033 37.9007 160.554 37.777 162.186 39.2558Z" fill="#E7F1FD"/>
<path d="M133.628 183.199L137.611 177.447L175.221 167.27C178.319 169.629 185.664 174.526 190.265 175.234C194.867 175.942 197.198 174.939 197.788 174.349C198.968 174.644 200 175.854 194.69 178.331C189.381 180.809 181.563 174.349 178.319 170.809L175.221 184.969C175.221 184.969 172.846 181.429 170.354 181.429C164.159 181.429 150.885 189.836 150.885 189.836L153.54 181.429C153.54 181.429 147.688 183.285 143.805 183.641C143.805 180.986 133.628 183.199 133.628 183.199Z" fill="#2538BF"/>
<path d="M180.211 174.776C180.5 171.241 177.722 165.725 177.722 165.725C177.722 165.725 197.025 162.83 198.795 154.825C199.056 153.646 197.411 151.145 197.025 152.289C194.37 160.159 176.172 165.182 176.172 165.182C176.172 165.182 176.432 159.112 174.458 155.75C172.246 153.538 165.853 150.527 165.853 150.527C165.853 150.527 167.531 153.59 167.821 155.75C163.839 152.653 144.233 156.192 144.233 156.192C144.233 156.192 157.163 161.884 153.205 161.214C149.68 160.617 137.805 167.257 137.805 167.257C137.805 167.257 140.121 168.571 141.622 169.382C138.175 174.776 133.308 176.594 133.308 176.594C133.308 176.594 141.622 179.201 145.255 176.594C145.629 177.468 144.233 179.201 144.233 179.201C144.233 179.201 150.122 177.05 158.972 176.594C155.59 177.442 154.547 183.183 154.547 183.183C154.547 183.183 170.476 175.661 173.279 177.05C175.786 177.468 174.459 180.528 174.459 180.528C174.459 180.528 179.955 177.903 180.211 174.776Z" fill="#FFBF39"/>
<path d="M147.787 171.252C150.433 169.929 154.516 168.138 158.849 166.685M176.106 165.057C173.514 164.238 168.504 164.134 164.602 165.036M164.602 165.036C164.749 163.421 163.805 160.013 158.849 159.305M164.602 165.036C162.703 165.475 160.752 166.047 158.849 166.685M168.141 164.615C168.289 166.237 167.964 170.455 165.487 174.349M158.849 166.685C156.784 169.24 152.389 174.349 151.327 174.349M153.982 168.154C152.655 167.169 149.38 165.347 146.902 165.942" stroke="#DC7929" stroke-width="0.884955" stroke-linecap="round"/>
<path d="M55.8294 22.1481C54.1726 18.9871 49.9033 14.3278 49.9033 14.3278C49.9033 14.3278 58.4792 8.5913 55.3095 1.33971C54.7927 0.77649 53.5398 0.454737 53.1013 0.77649C55.7406 7.98337 48.8179 13.9774 48.8179 13.9774C48.8179 13.9774 48.2301 10.1892 43.1014 5.75387C40.8164 3.97795 35.9429 1.84732 35.9429 1.84732C35.9429 1.84732 38.3841 4.42255 39.6399 6.31469C35.9793 3.90319 27.5641 8.70038 27.5641 8.70038C27.5641 8.70038 37.2177 12.6578 34.8104 12.3976C32.6669 12.1659 29.8687 19.0603 29.8687 19.0603C29.8687 19.0603 31.7485 20.0302 32.9461 20.6233C33.9062 25.7001 32.297 27.7237 32.297 27.7237C32.297 27.7237 37.9663 29.3347 38.5279 26.7144C39.1701 27.4585 39.3282 29.114 39.3282 29.114C39.3282 29.114 41.2998 26.7083 45.6817 25.5553C44.3514 26.5934 46.7432 31.7756 46.7432 31.7756C46.7432 31.7756 51.2049 23.7559 53.3772 24.7516C54.898 24.9104 55.7704 27.7376 55.7704 27.7376C55.7704 27.7376 57.2948 24.9439 55.8294 22.1481Z" fill="#FFBF39"/>
<path d="M48.6723 14.1714C47.7702 14.3406 46.4717 14.6907 45.1325 15.2367M36.7254 23.9059C38.0528 19.9236 40.8258 17.9033 41.5926 17.2669M45.1325 15.2367C43.9525 12.9642 40.5307 8.50771 36.2829 8.8617M45.1325 15.2367C43.8934 15.7419 42.6195 16.4147 41.5926 17.2669M46.4599 15.2367C47.7873 16.799 50.1767 20.5431 49.1148 23.021M42.0351 17.7112C42.7726 18.5962 43.8935 20.8971 42.4776 23.021M41.5926 17.2669C40.4127 16.235 37.3449 14.7024 34.513 16.8263" stroke="#DC7929" stroke-width="0.884955" stroke-linecap="round"/>
<defs>
<linearGradient id="paint0_linear_3315_120008" x1="201.935" y1="47.8438" x2="201.935" y2="55.8182" gradientUnits="userSpaceOnUse">
<stop stop-color="#EDC456"/>
<stop offset="1" stop-color="#FFE8AC"/>
</linearGradient>
</defs>
</svg>
