<svg width="16" height="16" viewBox="0 0 16 16" fill="none" xmlns="http://www.w3.org/2000/svg">
<path fill-rule="evenodd" clip-rule="evenodd" d="M9.40571 2.53824C9.27619 2.47537 9.12381 2.49109 9.00952 2.57753L6.06095 4.85632H3.90476C2.85333 4.85632 2 5.7364 2 6.82079V9.17816C2 10.2625 2.85333 11.1426 3.90476 11.1426H6.06095L9.00952 13.4214C9.07809 13.4764 9.15429 13.5 9.23809 13.5C9.29905 13.5 9.35238 13.4843 9.40571 13.4607C9.53524 13.39 9.61905 13.2564 9.61905 13.1071V2.89184C9.61905 2.74254 9.53524 2.60896 9.40571 2.53824Z" fill="#686874"/>
<path fill-rule="evenodd" clip-rule="evenodd" d="M10.9521 8.00014C10.9521 7.68455 11.208 7.42871 11.5236 7.42871L13.4283 7.42871C13.7439 7.42871 13.9998 7.68455 13.9998 8.00014C13.9998 8.31573 13.7439 8.57157 13.4283 8.57157H11.5236C11.208 8.57157 10.9521 8.31573 10.9521 8.00014Z" fill="#686874"/>
<path fill-rule="evenodd" clip-rule="evenodd" d="M10.4195 5.80932C10.2617 5.53601 10.3554 5.18653 10.6287 5.02874L12.2782 4.07636C12.5515 3.91856 12.901 4.01221 13.0588 4.28552C13.2166 4.55883 13.123 4.90831 12.8497 5.0661L11.2001 6.01848C10.9268 6.17628 10.5773 6.08263 10.4195 5.80932Z" fill="#686874"/>
<path fill-rule="evenodd" clip-rule="evenodd" d="M10.4194 10.1907C10.5772 9.91736 10.9266 9.82372 11.1999 9.98152L12.8495 10.9339C13.1228 11.0917 13.2165 11.4412 13.0587 11.7145C12.9009 11.9878 12.5514 12.0814 12.2781 11.9236L10.6285 10.9713C10.3552 10.8135 10.2616 10.464 10.4194 10.1907Z" fill="#686874"/>
<zoom style="dark" value="|:#FFFFFF|:#FFFFFF|:#FFFFFF|:#FFFFFF"/>
</svg>
