<svg width="14" height="14" viewBox="0 0 14 14" fill="none" xmlns="http://www.w3.org/2000/svg">

<path d="M7.76562 6.0158C7.76562 6.43864 7.42284 6.78142 7 6.78142C6.57716 6.78142 6.23438 6.43864 6.23438 6.0158C6.23438 5.59296 6.57716 5.25018 7 5.25018C7.42284 5.25018 7.76562 5.59296 7.76562 6.0158Z" fill="#909096"/>
<path d="M6.99999 7.21887C6.08125 7.21887 5.46875 7.63021 5.46875 8.13762C5.46875 8.47589 5.74297 8.75012 6.08125 8.75012H7.91874C7.94658 8.75012 7.97399 8.74826 8.00085 8.74466C8.01478 8.74279 8.02856 8.74046 8.04218 8.73767C8.32128 8.68056 8.53124 8.43361 8.53124 8.13762C8.53124 7.94279 8.44093 7.76212 8.27767 7.61347C8.01573 7.37497 7.56597 7.21887 6.99999 7.21887Z" fill="#909096"/>
<path d="M3.72494 10.2752C1.56921 9.6218 0 7.61922 0 5.25012C0 2.35063 2.35051 0.00012207 5.25 0.00012207C7.61909 0.00012207 9.62168 1.56933 10.2751 3.72506C12.4308 4.37844 14 6.38103 14 8.75012C14 11.6496 11.6495 14.0001 8.75 14.0001C6.38091 14.0001 4.37832 12.4309 3.72494 10.2752ZM3.5 6.30012V7.70012C3.5 8.68021 3.5 9.17026 3.69074 9.54461C3.85852 9.87389 4.12623 10.1416 4.45552 10.3094C4.82986 10.5001 5.31991 10.5001 6.3 10.5001H7.7C8.68009 10.5001 9.17014 10.5001 9.54448 10.3094C9.87377 10.1416 10.1415 9.87389 10.3093 9.54461C10.5 9.17026 10.5 8.68021 10.5 7.70012V6.30012C10.5 5.32003 10.5 4.82998 10.3093 4.45564C10.1415 4.12636 9.87377 3.85864 9.54448 3.69086C9.17014 3.50012 8.68009 3.50012 7.7 3.50012H6.3C5.31991 3.50012 4.82986 3.50012 4.45552 3.69086C4.12623 3.85864 3.85852 4.12636 3.69074 4.45564C3.5 4.82998 3.5 5.32003 3.5 6.30012Z" fill="#909096"/>
<zoom style="dark" value="|:#FFFFFF89|:#FFFFFF89|:#FFFFFF89"/>
<zoom style="hover" value="|:#2E2E2E|:#2E2E2E|:#2E2E2E"/>
<zoom style="hover_dark" value="|:#F5F5F5|:#F5F5F5|:#F5F5F5"/>
<zoom style="avatar" value="|:#909096|:#909096|:#909096"/>
<zoom style="avatar_dark" value="|:#F5F5F5|:#F5F5F5|:#F5F5F5"/>
</svg>
