<svg width="16" height="16" viewBox="0 0 16 16" fill="none" xmlns="http://www.w3.org/2000/svg">
<path fill-rule="evenodd" clip-rule="evenodd" d="M12.2071 2.50005C11.8166 2.10952 11.1834 2.10952 10.7929 2.50005L10.1464 3.14649C9.95118 3.34176 9.95118 3.65834 10.1464 3.8536L12.1464 5.8536C12.3417 6.04886 12.6583 6.04886 12.8536 5.8536L13.5 5.20715C13.8905 4.81663 13.8905 4.18346 13.5 3.79294L12.2071 2.50005ZM9.35356 4.64651C9.25979 4.55274 9.13262 4.50006 9.00001 4.50006C8.8674 4.50006 8.74022 4.55274 8.64645 4.64651L3.36055 9.93241C3.15115 10.1418 3.00842 10.4085 2.95034 10.6989L2.50972 12.902C2.47693 13.0659 2.52824 13.2354 2.64645 13.3536C2.76467 13.4718 2.93414 13.5231 3.09807 13.4904L5.30117 13.0497C5.59156 12.9917 5.85826 12.8489 6.06766 12.6395L11.3536 7.35361C11.4473 7.25985 11.5 7.13267 11.5 7.00006C11.5 6.86745 11.4473 6.74028 11.3536 6.64651L9.35356 4.64651Z" fill="#707070"/>
<zoom style="dark" value="|:#FFFFFF89"/>
<zoom style="hover" value="|:#222230"/>
<zoom style="hover_dark" value="|:#F5F5F5"/>
</svg>
