<svg width="132" height="90" viewBox="0 0 132 90" fill="none" xmlns="http://www.w3.org/2000/svg">
<path d="M1.38459 45.1732L130.181 1.45166L80.3245 69.607C80.1035 69.9092 79.7164 70.0399 79.3574 69.9337L1.41792 46.8627C0.588712 46.6172 0.565703 45.4511 1.38459 45.1732Z" fill="#A8CCF8"/>
<path d="M1.38459 45.1732L130.181 1.45166L80.3245 69.607C80.1035 69.9092 79.7164 70.0399 79.3574 69.9337L1.41792 46.8627C0.588712 46.6172 0.565703 45.4511 1.38459 45.1732Z" stroke="#A8CCF8" stroke-width="0.8865"/>
<path d="M27.5781 53.9095L130.181 1.4517L42.8322 59.528L37.0728 82.3679L35.1239 89.6872L27.5781 53.9095Z" fill="#648CFE"/>
<path d="M35.1233 89.6872L42.8315 59.528L62.0554 64.754L35.1233 89.6872Z" fill="#2538BF"/>
</svg>
