<svg width="12" height="12" viewBox="0 0 12 12" fill="none" xmlns="http://www.w3.org/2000/svg">
<path fill-rule="evenodd" clip-rule="evenodd" d="M0.75 1.875V10.125C0.75 10.3321 0.917893 10.5 1.125 10.5H10.875C11.0821 10.5 11.25 10.3321 11.25 10.125V3.625C11.25 3.41789 11.0821 3.25 10.875 3.25H5.37675C4.94731 3.25 4.55533 3.00552 4.36643 2.61985L3.92081 1.71005C3.85785 1.5815 3.72719 1.5 3.58404 1.5H1.125C0.917893 1.5 0.75 1.66789 0.75 1.875ZM0 1.875C0 1.25368 0.50368 0.75 1.125 0.75H3.58404C4.01348 0.75 4.40546 0.994483 4.59436 1.38015L5.03998 2.28995C5.10294 2.41851 5.2336 2.5 5.37675 2.5H10.875C11.4963 2.5 12 3.00368 12 3.625V10.125C12 10.7463 11.4963 11.25 10.875 11.25H1.125C0.50368 11.25 0 10.7463 0 10.125V1.875Z" fill="black"/>
</svg>
