<svg width="20" height="20" viewBox="0 0 20 20" fill="none" xmlns="http://www.w3.org/2000/svg">
<path fill-rule="evenodd" clip-rule="evenodd" d="M15.8902 4.64017C16.0366 4.49372 16.0366 4.25628 15.8902 4.10983C15.7437 3.96339 15.5063 3.96339 15.3598 4.10983L4.10983 15.3598C3.96339 15.5063 3.96339 15.7437 4.10983 15.8902C4.25628 16.0366 4.49372 16.0366 4.64017 15.8902L6.03033 14.5L8.5 14.5C8.5 15.3284 9.17157 16 10 16C10.8284 16 11.5 15.3284 11.5 14.5L14.3107 14.5C15.1098 14.5 15.7615 13.8386 15.7615 13.0276C15.7615 12.628 15.6073 12.2506 15.3212 11.9847L15.119 11.7795C14.3021 10.9504 13.8457 9.8238 13.8457 8.65282C13.8457 8.07483 13.7213 7.52585 13.4984 7.03197L15.8902 4.64017ZM12.9216 7.60877L6.78033 13.75H14.3107C14.6852 13.75 15.0115 13.4349 15.0115 13.0276C15.0115 12.8202 14.9326 12.6475 14.8107 12.5341C14.8026 12.5266 14.7947 12.519 14.787 12.5111L14.5848 12.3059C13.6275 11.3344 13.0957 10.0178 13.0957 8.65282C13.0957 8.28642 13.0343 7.93516 12.9216 7.60877ZM10 15.25C9.58579 15.25 9.25 14.9142 9.25 14.5H10.75C10.75 14.9142 10.4142 15.25 10 15.25Z" fill="#909096"/>
<path d="M10.7464 4.82372C11.4596 4.96654 12.1025 5.31004 12.6155 5.79365L12.0848 6.32432C11.5327 5.81171 10.7994 5.5 10.0001 5.5C8.3038 5.5 6.90459 6.90399 6.90459 8.65282C6.90459 10.0178 6.37276 11.3344 5.41547 12.3059L5.21328 12.5111C5.20556 12.519 5.19766 12.5266 5.1896 12.5341C5.06766 12.6475 4.98877 12.8202 4.98877 13.0276C4.98877 13.1434 5.01516 13.2518 5.06154 13.3476L4.51662 13.8925C4.34198 13.6494 4.23877 13.3504 4.23877 13.0276C4.23877 12.628 4.39292 12.2506 4.67905 11.9847L4.88124 11.7795C5.69819 10.9504 6.15459 9.8238 6.15459 8.65282C6.15459 6.75944 7.48888 5.17731 9.25358 4.82377C9.25121 4.7995 9.25 4.77489 9.25 4.75C9.25 4.33579 9.58579 4 10 4C10.4142 4 10.75 4.33579 10.75 4.75C10.75 4.77487 10.7488 4.79946 10.7464 4.82372Z" fill="#909096"/>
<zoom style="dark" value="|:#FFFFFF89|:#FFFFFF89"/>
<zoom style="selected" value="|:#F5F5F5|:#F5F5F5"/>
<zoom style="black" value="|:#222230|:#222230"/>
<zoom style="black_dark" value="|:#E0E0E1|:#E0E0E1"/>
</svg>

