<svg width="16" height="17" viewBox="0 0 16 17" fill="none" xmlns="http://www.w3.org/2000/svg">
<path fill-rule="evenodd" clip-rule="evenodd" d="M3.5 5.50195C3.5 3.01667 5.51472 1.00195 8 1.00195C10.4853 1.00195 12.5 3.01667 12.5 5.50195V6.00195H13C13.5523 6.00195 14 6.44967 14 7.00195V14.002C14 14.5542 13.5523 15.002 13 15.002H3C2.44772 15.002 2 14.5542 2 14.002V7.00195C2 6.44967 2.44772 6.00195 3 6.00195H3.5V5.50195ZM11.5 5.50195V6.00195H4.5V5.50195C4.5 3.56896 6.067 2.00195 8 2.00195C9.933 2.00195 11.5 3.56896 11.5 5.50195ZM6.4873 8.00397V13.002H9.53231V12.001H7.6073V10.958H9.4273V9.95697H7.6073V9.01197H9.53231V8.00397H6.4873Z" fill="#131619"/>
<zoom style="dark" value="|:#FFFFFF"/>
</svg>
