<svg width="16" height="17" viewBox="0 0 16 17" fill="none" xmlns="http://www.w3.org/2000/svg">
<path d="M16 8.00195C16 12.4202 12.4183 16.002 8 16.002C3.58172 16.002 0 12.4202 0 8.00195C0 3.58367 3.58172 0.00195312 8 0.00195312C12.4183 0.00195312 16 3.58367 16 8.00195Z" fill="#FFD700"/>
<path d="M7.99954 9.60395C7.80321 9.60395 7.63939 9.45402 7.62204 9.25846L7.24248 4.97984C7.20283 4.5328 7.55505 4.14795 8.00385 4.14795C8.45326 4.14795 8.80568 4.5338 8.76508 4.98137L8.37696 9.25921C8.35925 9.45445 8.19557 9.60395 7.99954 9.60395ZM8.00469 12.09C7.77735 12.09 7.58302 12.0276 7.42169 11.9029C7.26035 11.7783 7.17969 11.5619 7.17969 11.2539C7.17969 10.9386 7.26035 10.7223 7.42169 10.6049C7.58302 10.4876 7.77735 10.4289 8.00469 10.4289C8.22469 10.4289 8.41535 10.4876 8.57669 10.6049C8.74535 10.7223 8.82969 10.9386 8.82969 11.2539C8.82969 11.5693 8.74535 11.7893 8.57669 11.9139C8.41535 12.0313 8.22469 12.09 8.00469 12.09Z" fill="#B36200"/>
<zoom style="service"/>
<zoom style="service_dark" value="|:#C28030|:#361E00"/>
</svg>
