<svg width="14" height="14" viewBox="0 0 14 14" fill="none" xmlns="http://www.w3.org/2000/svg">
<path d="M1.06237e-05 4.43984C0 4.47586 0 4.51257 0 4.55V9.45C0 10.4301 0 10.9201 0.190739 11.2945C0.358517 11.6238 0.626233 11.8915 0.955517 12.0593C1.32986 12.25 1.81991 12.25 2.8 12.25H11.2C12.1801 12.25 12.6701 12.25 13.0445 12.0593C13.3738 11.8915 13.6415 11.6238 13.8093 11.2945C14 10.9201 14 10.4301 14 9.45V4.55C14 4.51232 14 4.47537 14 4.43912L8.07181 7.77372C7.40591 8.14829 6.59283 8.14829 5.92692 7.77372L1.06237e-05 4.43984Z" fill="white"/>
<path d="M0.0202733 3.4473L6.3559 7.01109C6.75544 7.23584 7.24329 7.23584 7.64284 7.01109L13.9797 3.44662C13.9571 3.13128 13.9096 2.9024 13.8093 2.70552C13.6415 2.37623 13.3738 2.10852 13.0445 1.94074C12.6701 1.75 12.1801 1.75 11.2 1.75H2.8C1.81991 1.75 1.32986 1.75 0.955517 1.94074C0.626233 2.10852 0.358517 2.37623 0.190739 2.70552C0.0903511 2.90254 0.0427985 3.13161 0.0202733 3.4473Z" fill="white"/>
</svg>