<svg width="12" height="12" viewBox="0 0 12 12" fill="none" xmlns="http://www.w3.org/2000/svg">
<path fill-rule="evenodd" clip-rule="evenodd" d="M0.75 3.3375C0.75 2.32309 1.57309 1.5 2.5875 1.5H9.4125C10.4269 1.5 11.25 2.32309 11.25 3.3375V7.23847C11.25 8.25288 10.4269 9.07597 9.4125 9.07597H6.31882C5.90164 9.07597 5.50072 9.24211 5.20534 9.53749L3.34017 11.4027C3.23292 11.5099 3.07162 11.542 2.93149 11.484C2.79137 11.4259 2.7 11.2892 2.7 11.1375V9.18847C2.7 9.12648 2.64949 9.07597 2.5875 9.07597C1.57309 9.07597 0.75 8.25288 0.75 7.23847V3.3375ZM2.5875 2.25C1.98731 2.25 1.5 2.73731 1.5 3.3375V7.23847C1.5 7.83867 1.98731 8.32597 2.5875 8.32597C3.06371 8.32597 3.45 8.71227 3.45 9.18847V10.2322L4.67501 9.00716C5.11088 8.57129 5.70251 8.32597 6.31882 8.32597H9.4125C10.0127 8.32597 10.5 7.83867 10.5 7.23847V3.3375C10.5 2.73731 10.0127 2.25 9.4125 2.25H2.5875Z" fill="#000001"/>
</svg>
