<svg width="121" height="120" viewBox="0 0 121 120" fill="none" xmlns="http://www.w3.org/2000/svg">
<path d="M15.4817 33.7321C15.4817 23.3768 23.8763 14.9821 34.2317 14.9821H53C55.0711 14.9821 56.75 13.3032 56.75 11.2321C56.75 9.16108 55.0711 7.48215 53 7.48215H34.2317C19.7342 7.48215 7.98169 19.2347 7.98169 33.7321V86.261C7.98169 100.758 19.7342 112.511 34.2317 112.511H86.7673C101.265 112.511 113.017 100.758 113.017 86.261V67.5C113.017 65.4289 111.338 63.75 109.267 63.75C107.196 63.75 105.517 65.4289 105.517 67.5V86.261C105.517 96.6163 97.1226 105.011 86.7673 105.011H34.2317C23.8764 105.011 15.4817 96.6163 15.4817 86.261V33.7321Z" fill="#6E7680"/>
<path d="M86.3333 71.25C88.4044 71.25 90.0833 69.5711 90.0833 67.5C90.0833 65.4289 88.4044 63.75 86.3333 63.75H62.0533L111.902 13.9016C113.366 12.4372 113.366 10.0628 111.902 8.59835C110.437 7.13388 108.063 7.13388 106.598 8.59835L56.75 58.4467V34.1667C56.75 32.0956 55.0711 30.4167 53 30.4167C50.9289 30.4167 49.25 32.0956 49.25 34.1667L49.25 67.5C49.25 69.5711 50.9289 71.25 53 71.25L86.3333 71.25Z" fill="#6E7680"/>
</svg>
