<svg width="15" height="15" viewBox="0 0 15 15" fill="none" xmlns="http://www.w3.org/2000/svg">
<path d="M3.5625 7.00195C3.5625 7.84764 2.87694 8.5332 2.03125 8.5332C1.18556 8.5332 0.5 7.84764 0.5 7.00195C0.5 6.15627 1.18556 5.4707 2.03125 5.4707C2.87694 5.4707 3.5625 6.15627 3.5625 7.00195Z" fill="#040413"/>
<path d="M9.03125 7.00195C9.03125 7.84764 8.34569 8.5332 7.5 8.5332C6.65431 8.5332 5.96875 7.84764 5.96875 7.00195C5.96875 6.15627 6.65431 5.4707 7.5 5.4707C8.34569 5.4707 9.03125 6.15627 9.03125 7.00195Z" fill="#040413"/>
<path d="M12.9688 8.5332C13.8144 8.5332 14.5 7.84764 14.5 7.00195C14.5 6.15627 13.8144 5.4707 12.9688 5.4707C12.1231 5.4707 11.4375 6.15627 11.4375 7.00195C11.4375 7.84764 12.1231 8.5332 12.9688 8.5332Z" fill="#040413"/>
<zoom style="dark" value="|:#F0F0F0|:#F0F0F0|:#F0F0F0"/>
<zoom style="hover_dark" value="|:#FFFFFF|:#FFFFFF|:#FFFFFF"/>
<zoom style="hover" value="|:#000000|:#000000|:#000000"/>
</svg>
