<svg width="16" height="16" viewBox="0 0 16 16" fill="none" xmlns="http://www.w3.org/2000/svg">
<path fill-rule="evenodd" clip-rule="evenodd" d="M4.99902 8C4.99902 8.55228 4.55131 9 3.99902 9C3.44674 9 2.99902 8.55228 2.99902 8C2.99902 7.44772 3.44674 7 3.99902 7C4.55131 7 4.99902 7.44772 4.99902 8ZM8.99988 8C8.99988 8.55228 8.55216 9 7.99988 9C7.44759 9 6.99988 8.55228 6.99988 8C6.99988 7.44772 7.44759 7 7.99988 7C8.55216 7 8.99988 7.44772 8.99988 8ZM12.0007 9C12.553 9 13.0007 8.55228 13.0007 8C13.0007 7.44772 12.553 7 12.0007 7C11.4484 7 11.0007 7.44772 11.0007 8C11.0007 8.55228 11.4484 9 12.0007 9Z" fill="#222230"/>
</svg>
