<svg width="16" height="16" viewBox="0 0 16 16" fill="none" xmlns="http://www.w3.org/2000/svg">
<path clip-rule="evenodd" d="M11.5 8C11.5 9.933 9.933 11.5 8 11.5C6.067 11.5 4.5 9.933 4.5 8C4.5 6.067 6.067 4.5 8 4.5C9.933 4.5 11.5 6.067 11.5 8ZM10.5 8C10.5 9.38071 9.38071 10.5 8 10.5C6.61929 10.5 5.5 9.38071 5.5 8C5.5 6.61929 6.61929 5.5 8 5.5C9.38071 5.5 10.5 6.61929 10.5 8Z" fill="#000001" fill-rule="evenodd"/>
<path clip-rule="evenodd" d="M8 3C3.42857 3 0 6.88889 0 8C0 9.11111 3.42857 13 8 13C12.5714 13 16 9.11111 16 8C16 6.88889 12.5714 3 8 3ZM1.05679 8.09908C1.03622 8.05648 1.02257 8.02367 1.01361 8C1.02257 7.97633 1.03622 7.94352 1.05679 7.90092C1.12392 7.76188 1.23739 7.57506 1.4055 7.35219C1.74074 6.90774 2.24844 6.37918 2.89966 5.87269C4.20806 4.85504 5.99788 4 8 4C10.0021 4 11.7919 4.85504 13.1003 5.87269C13.7516 6.37918 14.2593 6.90774 14.5945 7.35219C14.7626 7.57506 14.8761 7.76188 14.9432 7.90092C14.9638 7.94352 14.9774 7.97633 14.9864 8C14.9774 8.02367 14.9638 8.05648 14.9432 8.09908C14.8761 8.23812 14.7626 8.42494 14.5945 8.64781C14.2593 9.09226 13.7516 9.62082 13.1003 10.1273C11.7919 11.145 10.0021 12 8 12C5.99788 12 4.20806 11.145 2.89966 10.1273C2.24844 9.62082 1.74074 9.09226 1.4055 8.64781C1.23739 8.42494 1.12392 8.23812 1.05679 8.09908Z" fill="#000001" fill-rule="evenodd"/>
<zoom style="dark" value=":none|:#F7F9FA|:#F7F9FA"/>
</svg>
