<svg width="16" height="16" viewBox="0 0 16 16" fill="none" xmlns="http://www.w3.org/2000/svg">
<path d="M3.18211 11.8436C2.46334 11.8436 1.8667 11.704 1.39217 11.4249C0.924625 11.1388 0.57571 10.7236 0.345426 10.1792C0.115142 9.62796 0 8.95804 0 8.1695C0 7.30419 0.125609 6.57495 0.376828 5.9818C0.635025 5.38166 1.00488 4.92807 1.48638 4.62103C1.97486 4.30701 2.55406 4.14999 3.22398 4.14999C3.61476 4.14999 3.9567 4.19535 4.24979 4.28607C4.54985 4.37679 4.81503 4.48844 5.04531 4.62103L4.57428 5.99227C4.36493 5.86666 4.16256 5.77943 3.96716 5.73058C3.77875 5.67475 3.58336 5.64684 3.38099 5.64684C2.99718 5.64684 2.67618 5.73756 2.41798 5.91899C2.16676 6.10043 1.97835 6.37607 1.85274 6.74592C1.73411 7.10879 1.67479 7.56238 1.67479 8.10669C1.67479 8.53935 1.72364 8.92315 1.82134 9.25811C1.91903 9.59307 2.06209 9.85824 2.2505 10.0536C2.44589 10.2421 2.69362 10.3363 2.99369 10.3363C3.07743 10.3363 3.16815 10.3293 3.26585 10.3153C3.37052 10.3014 3.46124 10.2804 3.538 10.2525V8.82894H2.84715V7.38444H5.06625V11.4039C4.75222 11.5644 4.4382 11.6761 4.12418 11.7389C3.81015 11.8087 3.49613 11.8436 3.18211 11.8436Z" fill="#0404138E"/>
<path d="M6.00071 11.7389V10.5037L7.35101 10.3467V5.65731L6.00071 5.5003V4.26514H10.3028V5.5003L8.99441 5.65731V10.3467L10.3028 10.5037V11.7389H6.00071Z" fill="#0404138E"/>
<path d="M11.4467 11.7389V4.26514H16V5.76198H13.1214V7.46818H15.8325V8.96502H13.1214V11.7389H11.4467Z" fill="#0404138E"/>
<zoom style="dark" value=":none|:#999999FF|:#999999FF|:#999999FF"/>
<zoom style="hover" value=":none|:#222230FF|:#222230FF|:#222230FF"/>
<zoom style="hover_dark" value=":none|:#F5F5F5FF|:#F5F5F5FF|:#F5F5F5FF"/>
<zoom style="selected" value=":none|:#0E72EDFF|:#0E72EDFF|:#0E72EDFF"/>
<zoom style="selected_dark" value=":none|:#4F9AF7FF|:#4F9AF7FF|:#4F9AF7FF"/>
</svg>
