<svg width="12" height="12" viewBox="0 0 12 12" fill="none" xmlns="http://www.w3.org/2000/svg">
<path fill-rule="evenodd" clip-rule="evenodd" d="M11.8893 1.86716C12.0375 1.91852 12.0366 2.13005 11.8876 2.1788C11.8478 2.19187 11.8078 2.20542 11.7677 2.21953C11.6349 2.26627 11.5007 2.31928 11.3707 2.38094C11.3358 2.39749 11.3012 2.41467 11.267 2.43254C11.0777 2.53131 10.8992 2.65118 10.7464 2.80121C10.5886 2.95624 10.4636 3.13589 10.3612 3.32923C10.3432 3.36331 10.3259 3.39781 10.3092 3.43268C10.2478 3.56103 10.1952 3.69432 10.1487 3.82957C10.1351 3.86919 10.1218 3.90954 10.1091 3.94942C10.0612 4.10002 9.84936 4.10437 9.79618 3.95551C9.78205 3.9158 9.76776 3.87609 9.75319 3.83646C9.70361 3.70163 9.65063 3.56739 9.58964 3.43803C9.5723 3.40125 9.5543 3.36482 9.53552 3.32883C9.43991 3.14558 9.32427 2.97376 9.17373 2.82385C9.01666 2.66744 8.83506 2.54118 8.64203 2.4364C8.61244 2.42033 8.58257 2.40477 8.55249 2.38968C8.42548 2.326 8.29454 2.27075 8.16321 2.2216C8.12206 2.20621 8.08066 2.19133 8.03955 2.17706C7.89222 2.1257 7.8896 1.91765 8.03693 1.86541C8.07892 1.85055 8.12126 1.83518 8.16377 1.81921C8.29235 1.77089 8.42314 1.71686 8.54987 1.65519C8.58199 1.63955 8.61389 1.62341 8.64549 1.60673C8.83898 1.50456 9.02106 1.38195 9.17286 1.22994C9.32576 1.07683 9.45117 0.897137 9.55578 0.705937C9.57141 0.677363 9.58658 0.648532 9.60131 0.619494C9.66476 0.494385 9.72 0.365439 9.76882 0.23668C9.78494 0.19414 9.80057 0.151076 9.81536 0.108723C9.86679 -0.0375228 10.0743 -0.0375228 10.1266 0.108723C10.1415 0.1507 10.1569 0.192304 10.1728 0.233497L10.1732 0.234576C10.2244 0.367434 10.2805 0.496004 10.3435 0.618969C10.3582 0.647766 10.3733 0.676256 10.3888 0.704421C10.4945 0.896458 10.6185 1.07342 10.7682 1.22994L10.7691 1.23081C10.9143 1.38256 11.0875 1.5041 11.2731 1.60482C11.3063 1.62282 11.3398 1.64015 11.3737 1.65687C11.5034 1.72095 11.6377 1.77605 11.7714 1.8252C11.8106 1.8396 11.8503 1.85371 11.8893 1.86716ZM10.2337 1.75611C10.325 1.8507 10.4221 1.93556 10.5227 2.01197C10.4182 2.08768 10.3168 2.17195 10.2209 2.26608C10.1199 2.36529 10.0299 2.47019 9.9494 2.57846C9.87631 2.47986 9.79466 2.38373 9.70294 2.2924C9.60378 2.19366 9.49909 2.10506 9.39126 2.02528C9.50008 1.9463 9.60531 1.85829 9.70355 1.7599C9.80289 1.66043 9.89223 1.55471 9.97278 1.44547C10.0494 1.55 10.1335 1.65138 10.2261 1.74826L10.2322 1.75456L10.2337 1.75611Z" fill="#5E5E6F"/>
<path fill-rule="evenodd" clip-rule="evenodd" d="M6.01953 1.1737C5.87656 0.773265 5.30903 0.772394 5.1678 1.1737C4.78422 2.26619 4.25069 3.40047 3.40856 4.24138C2.56642 5.0823 1.38865 5.59503 0.29893 5.98066C-0.10383 6.12343 -0.0977281 6.69274 0.305904 6.83289C1.41742 7.21853 2.55422 7.74954 3.40856 8.60264C4.269 9.46184 4.71273 10.5804 5.11201 11.7008C5.25759 12.1091 5.8382 12.0969 5.96896 11.6843C6.33598 10.5256 6.85295 9.38523 7.71339 8.54084C8.57383 7.69644 9.7333 7.20112 10.8352 6.83812C11.2441 6.70319 11.2476 6.1243 10.8413 5.98414C9.74376 5.60547 8.5965 5.10058 7.77529 4.24225V4.24138C6.96976 3.39873 6.43537 2.33931 6.01953 1.1737ZM5.59573 2.15644C5.95525 3.01196 6.40903 3.82524 7.02529 4.53194V4.54325L7.23337 4.76074C7.97066 5.53134 8.91288 6.0362 9.82092 6.40423C8.90559 6.76109 7.95402 7.25387 7.18807 8.00554C6.41233 8.76681 5.89849 9.71661 5.52902 10.6712C5.17289 9.77131 4.70632 8.83864 3.9385 8.07193C3.17222 7.30676 2.22626 6.7866 1.29728 6.40522C2.21247 6.03357 3.1816 5.5279 3.9385 4.7721C4.6951 4.0166 5.21511 3.07456 5.59573 2.15644Z" fill="#5E5E6F"/>
<zoom style="dark" value=":none|:#98A0A9|:#98A0A9"/>
</svg>
