<svg width="16" height="16" viewBox="0 0 16 16" fill="none" xmlns="http://www.w3.org/2000/svg">
<path d="M6.38268 1.07612C6.19891 1 5.96594 1 5.5 1C5.03406 1 4.80109 1 4.61732 1.07612C4.37229 1.17761 4.17761 1.37229 4.07612 1.61732C4 1.80109 4 2.03406 4 2.5C4 2.96594 4 3.19891 4.07612 3.38268C4.17761 3.62771 4.37229 3.82239 4.61732 3.92388C4.80109 4 5.03406 4 5.5 4C5.96594 4 6.19891 4 6.38268 3.92388C6.62771 3.82239 6.82239 3.62771 6.92388 3.38268C7 3.19891 7 2.96594 7 2.5C7 2.03406 7 1.80109 6.92388 1.61732C6.82239 1.37229 6.62771 1.17761 6.38268 1.07612Z" fill="#6E7680"/>
<path d="M11.3827 1.07612C11.1989 1 10.9659 1 10.5 1C10.0341 1 9.80109 1 9.61732 1.07612C9.37229 1.17761 9.17761 1.37229 9.07612 1.61732C9 1.80109 9 2.03406 9 2.5C9 2.96594 9 3.19891 9.07612 3.38268C9.17761 3.62771 9.37229 3.82239 9.61732 3.92388C9.80109 4 10.0341 4 10.5 4C10.9659 4 11.1989 4 11.3827 3.92388C11.6277 3.82239 11.8224 3.62771 11.9239 3.38268C12 3.19891 12 2.96594 12 2.5C12 2.03406 12 1.80109 11.9239 1.61732C11.8224 1.37229 11.6277 1.17761 11.3827 1.07612Z" fill="#6E7680"/>
<path d="M10.5 6.5C10.9659 6.5 11.1989 6.5 11.3827 6.57612C11.6277 6.67761 11.8224 6.87229 11.9239 7.11732C12 7.30109 12 7.53406 12 8C12 8.46594 12 8.69891 11.9239 8.88268C11.8224 9.12771 11.6277 9.32239 11.3827 9.42388C11.1989 9.5 10.9659 9.5 10.5 9.5C10.0341 9.5 9.80109 9.5 9.61732 9.42388C9.37229 9.32239 9.17761 9.12771 9.07612 8.88268C9 8.69891 9 8.46594 9 8C9 7.53406 9 7.30109 9.07612 7.11732C9.17761 6.87229 9.37229 6.67761 9.61732 6.57612C9.80109 6.5 10.0341 6.5 10.5 6.5Z" fill="#6E7680"/>
<path d="M6.38268 6.57612C6.19891 6.5 5.96594 6.5 5.5 6.5C5.03406 6.5 4.80109 6.5 4.61732 6.57612C4.37229 6.67761 4.17761 6.87229 4.07612 7.11732C4 7.30109 4 7.53406 4 8C4 8.46594 4 8.69891 4.07612 8.88268C4.17761 9.12771 4.37229 9.32239 4.61732 9.42388C4.80109 9.5 5.03406 9.5 5.5 9.5C5.96594 9.5 6.19891 9.5 6.38268 9.42388C6.62771 9.32239 6.82239 9.12771 6.92388 8.88268C7 8.69891 7 8.46594 7 8C7 7.53406 7 7.30109 6.92388 7.11732C6.82239 6.87229 6.62771 6.67761 6.38268 6.57612Z" fill="#6E7680"/>
<path d="M10.5 12C10.9659 12 11.1989 12 11.3827 12.0761C11.6277 12.1776 11.8224 12.3723 11.9239 12.6173C12 12.8011 12 13.0341 12 13.5C12 13.9659 12 14.1989 11.9239 14.3827C11.8224 14.6277 11.6277 14.8224 11.3827 14.9239C11.1989 15 10.9659 15 10.5 15C10.0341 15 9.80109 15 9.61732 14.9239C9.37229 14.8224 9.17761 14.6277 9.07612 14.3827C9 14.1989 9 13.9659 9 13.5C9 13.0341 9 12.8011 9.07612 12.6173C9.17761 12.3723 9.37229 12.1776 9.61732 12.0761C9.80109 12 10.0341 12 10.5 12Z" fill="#6E7680"/>
<path d="M6.38268 12.0761C6.19891 12 5.96594 12 5.5 12C5.03406 12 4.80109 12 4.61732 12.0761C4.37229 12.1776 4.17761 12.3723 4.07612 12.6173C4 12.8011 4 13.0341 4 13.5C4 13.9659 4 14.1989 4.07612 14.3827C4.17761 14.6277 4.37229 14.8224 4.61732 14.9239C4.80109 15 5.03406 15 5.5 15C5.96594 15 6.19891 15 6.38268 14.9239C6.62771 14.8224 6.82239 14.6277 6.92388 14.3827C7 14.1989 7 13.9659 7 13.5C7 13.0341 7 12.8011 6.92388 12.6173C6.82239 12.3723 6.62771 12.1776 6.38268 12.0761Z" fill="#6E7680"/>
<zoom style="dark" value=":none|:#F7F9FA|:#F7F9FA|:#F7F9FA|:#F7F9FA|:#F7F9FA|:#F7F9FA"/>
</svg>
