<svg width="16" height="16" viewBox="0 0 16 16" fill="none" xmlns="http://www.w3.org/2000/svg">
<path clip-rule="evenodd" d="M8.00442 4.5C6.07706 4.5 4.51463 6.067 4.51463 8C4.51463 9.933 6.07706 11.5 8.00442 11.5C9.93178 11.5 11.4942 9.933 11.4942 8C11.4942 6.067 9.93178 4.5 8.00442 4.5ZM5.51171 8C5.51171 6.61929 6.62773 5.5 8.00442 5.5C9.38111 5.5 10.4971 6.61929 10.4971 8C10.4971 9.38071 9.38111 10.5 8.00442 10.5C6.62773 10.5 5.51171 9.38071 5.51171 8Z" fill="#000001" fill-rule="evenodd"/>
<path clip-rule="evenodd" d="M6.04221 15.2826C6.15653 15.6054 6.427 15.8516 6.7645 15.9043C7.16772 15.9673 7.58093 16 8.00176 16C8.41793 16 8.82667 15.968 9.22565 15.9064C9.5638 15.8542 9.83496 15.6077 9.94946 15.2844L10.3469 14.162C10.6091 13.4218 11.3679 12.9821 12.1376 13.1244L13.3109 13.3412C13.6464 13.4032 13.9939 13.2917 14.2084 13.0255C14.7223 12.3879 15.1406 11.6695 15.4412 10.8922C15.5647 10.5728 15.4875 10.2147 15.2661 9.95379L14.4884 9.03772C13.9808 8.43975 13.9808 7.56033 14.4884 6.96235L15.2661 6.04626C15.4875 5.7854 15.5648 5.42724 15.4412 5.10783C15.1406 4.33059 14.7224 3.61216 14.2085 2.97453C13.994 2.7084 13.6465 2.59688 13.3109 2.65889L12.1376 2.87572C11.3679 3.01798 10.6091 2.57827 10.3469 1.83803L9.94943 0.715641C9.83493 0.392298 9.56377 0.145797 9.22562 0.0935773C8.82665 0.0319639 8.41792 0 8.00176 0C7.58094 0 7.16774 0.0326813 6.76454 0.0956513C6.42703 0.148361 6.15656 0.394625 6.04224 0.717441L5.6454 1.83803C5.38325 2.57827 4.62445 3.01798 3.85467 2.87572L2.69112 2.66069C2.35547 2.59866 2.00788 2.71028 1.79341 2.97656C1.27799 3.61648 0.858925 4.33771 0.558349 5.11805C0.435414 5.43721 0.512735 5.79479 0.73389 6.0553L1.50391 6.96235C2.01154 7.56033 2.01154 8.43975 1.50391 9.03772L0.73391 9.94475C0.512753 10.2053 0.435434 10.5628 0.558372 10.882C0.858958 11.6624 1.27803 12.3836 1.79346 13.0235C2.00794 13.2898 2.35552 13.4014 2.69118 13.3394L3.85467 13.1244C4.62445 12.9821 5.38325 13.4218 5.6454 14.162L6.04221 15.2826ZM7.27113 14.9622C7.08759 14.9431 6.93498 14.8157 6.87322 14.6413L6.58498 13.8274C6.15909 12.6248 4.92584 11.9096 3.67398 12.1409L2.82865 12.2971C2.64747 12.3306 2.46144 12.262 2.35308 12.1126C2.06879 11.7206 1.82424 11.2982 1.6252 10.8512C1.55003 10.6824 1.58368 10.4863 1.70319 10.3455L2.2631 9.68599C3.08793 8.71438 3.08793 7.2857 2.2631 6.31408L1.70316 5.6545C1.58366 5.51373 1.55001 5.31768 1.62518 5.14887C1.82421 4.70191 2.06875 4.27946 2.35302 3.88747C2.46139 3.73805 2.64742 3.66945 2.8286 3.70294L3.67398 3.85916C4.92584 4.09051 6.15909 3.37532 6.58498 2.17272L6.87325 1.35871C6.93501 1.18432 7.08762 1.05692 7.27116 1.03781C7.51102 1.01283 7.75474 1 8.00176 1C8.24449 1 8.48406 1.01239 8.71989 1.03652C8.90377 1.05534 9.05678 1.18284 9.11864 1.35753L9.40733 2.17272C9.83322 3.37532 11.0665 4.09051 12.3183 3.85916L13.1736 3.70111C13.3547 3.66764 13.5407 3.73618 13.6491 3.88552C13.932 4.27534 14.1756 4.69532 14.3742 5.1396C14.4497 5.30853 14.4161 5.5049 14.2965 5.64586L13.7292 6.31408C12.9044 7.2857 12.9044 8.71438 13.7292 9.68599L14.2965 10.3542C14.4161 10.4952 14.4497 10.6915 14.3742 10.8605C14.1756 11.3047 13.9319 11.7247 13.649 12.1146C13.5406 12.2639 13.3547 12.3324 13.1735 12.299L12.3183 12.1409C11.0665 11.9096 9.83322 12.6248 9.40734 13.8274L9.11867 14.6425C9.05681 14.8172 8.9038 14.9447 8.71992 14.9635C8.48408 14.9876 8.24451 15 8.00176 15C7.75473 15 7.511 14.9872 7.27113 14.9622Z" fill="#000001" fill-rule="evenodd"/>
<zoom style="dark" value=":none|:#FFFFFF|:#FFFFFF"/>
<zoom style="menuHover" value=":none|:#FFFFFF|:#FFFFFF"/>
</svg>
