<svg width="16" height="16" viewBox="0 0 16 16" fill="none" xmlns="http://www.w3.org/2000/svg">
<path d="M9.97434 3.65813C10.0617 3.39616 9.92009 3.113 9.65811 3.02567C9.39614 2.93835 9.11298 3.07993 9.02566 3.3419L6.02566 12.3419C5.93833 12.6039 6.07991 12.887 6.34189 12.9744C6.60386 13.0617 6.88702 12.9201 6.97434 12.6581L9.97434 3.65813Z" fill="#000001"/>
<path d="M3.8254 4.12036C4.03506 4.30007 4.05934 4.61572 3.87963 4.82538L1.15854 7.99999L3.87963 11.1746C4.05934 11.3843 4.03506 11.6999 3.8254 11.8796C3.61573 12.0593 3.30008 12.035 3.12037 11.8254L0.120372 8.32538C-0.0401239 8.13814 -0.0401239 7.86184 0.120372 7.67459L3.12037 4.17459C3.30008 3.96493 3.61573 3.94065 3.8254 4.12036Z" fill="#000001"/>
<path d="M12.1746 4.12037C12.3843 3.94066 12.6999 3.96494 12.8796 4.1746L15.8796 7.6746C16.0401 7.86185 16.0401 8.13815 15.8796 8.3254L12.8796 11.8254C12.6999 12.0351 12.3843 12.0593 12.1746 11.8796C11.9649 11.6999 11.9407 11.3843 12.1204 11.1746L14.8415 8L12.1204 4.8254C11.9407 4.61573 11.9649 4.30008 12.1746 4.12037Z" fill="#000001"/>
<zoom style="dark" value=":none|:#FFFFFF|:#FFFFFF|:#FFFFFF"/>
<zoom style="menuHover" value=":none|:#FFFFFF|:#FFFFFF|:#FFFFFF"/>
</svg>
