<svg width="16" height="16" viewBox="0 0 16 16" fill="none" xmlns="http://www.w3.org/2000/svg">
<path d="M12.5 3.5C12.5 2.11929 11.3807 1 10 1H3.5C2.11929 1 1 2.11929 1 3.5V10C1 11.3807 2.11929 12.5 3.5 12.5H7.5C7.77614 12.5 8 12.7239 8 13C8 13.2761 7.77614 13.5 7.5 13.5H3.5C1.567 13.5 0 11.933 0 10V3.5C0 1.567 1.567 0 3.5 0H10C11.933 0 13.5 1.567 13.5 3.5V7.5C13.5 7.77614 13.2761 8 13 8C12.7239 8 12.5 7.77614 12.5 7.5V3.5Z" fill="#000001"/>
<path d="M10 13C10 12.7239 10.2239 12.5 10.5 12.5H12.5V10.5C12.5 10.2239 12.7239 10 13 10C13.2761 10 13.5 10.2239 13.5 10.5V12.5H15.5C15.7761 12.5 16 12.7239 16 13C16 13.2761 15.7761 13.5 15.5 13.5H13.5V15.5C13.5 15.7761 13.2761 16 13 16C12.7239 16 12.5 15.7761 12.5 15.5V13.5H10.5C10.2239 13.5 10 13.2761 10 13Z" fill="#000001"/>
<zoom style="dark" value=":none|:#FFFFFF|:#FFFFFF"/>
<zoom style="menuHover" value=":none|:#FFFFFF|:#FFFFFF"/>
</svg>
