<svg width="200" height="200" viewBox="0 0 200 200" fill="none" xmlns="http://www.w3.org/2000/svg">
<g clip-path="url(#clip0_3078_421758)">
<path opacity="0.25" d="M155.231 125.852C147.49 156.546 213.05 151.137 197.326 173.909C181.602 196.681 158.028 185.888 101.632 180.118C45.2366 174.348 -0.263331 221.896 7.36537 180.118C14.9941 138.34 40.8724 142.735 20.5567 117.62C0.241033 92.5051 -13.1405 2.00011 20.5567 2C47.7333 1.99991 96.1514 70.0283 158.278 58.8036C220.405 47.5789 162.972 95.1594 155.231 125.852Z" fill="#A8CCF8"/>
</g>
<mask id="mask0_3078_421758" style="mask-type:alpha" maskUnits="userSpaceOnUse" x="45" y="83" width="106" height="54">
<path d="M46.5091 119.551C44.4352 118.019 44.8463 114.806 47.2392 113.845L123.038 83.419C124.098 82.9934 125.303 83.1476 126.222 83.8264L150.051 101.43C150.713 101.919 150.781 102.883 150.196 103.46C135.386 118.061 116.57 127.93 96.1387 131.812L69.9716 136.785C69.2632 136.919 68.5315 136.736 67.9703 136.283L55.0455 125.857L46.5091 119.551Z" fill="#2538BF"/>
</mask>
<g mask="url(#mask0_3078_421758)">
<circle cx="129.816" cy="118.403" r="54.345" transform="rotate(66.7375 129.816 118.403)" fill="url(#paint0_linear_3078_421758)"/>
</g>
<path d="M46.341 139.856L45.2512 81.0049V80.5648C45.2512 80.4963 45.2192 80.4316 45.1646 80.3901L20 61.2432V121.513C20 121.584 20.0345 121.651 20.0927 121.692L45.9946 140.039C46.1415 140.143 46.3444 140.036 46.341 139.856Z" fill="#0E72ED"/>
<path d="M126.737 47.0787L45.126 79.9862C44.7052 80.1559 44.4321 80.5669 44.4388 81.0206L45.2976 139.278C45.3074 139.94 45.8963 140.443 46.5515 140.349L68.56 137.187C90.9166 133.975 111.567 123.408 127.25 107.154C127.397 107.001 127.479 106.796 127.478 106.584L127.038 47.2807C127.037 47.1258 126.88 47.0208 126.737 47.0787Z" fill="#648CFE"/>
<path d="M20 61.2432L99.4826 28.134C100.551 27.6889 101.775 27.8374 102.706 28.5253L126.561 46.148C127.198 46.6179 127.263 47.5448 126.7 48.1C111.89 62.7016 92.9274 72.3664 72.4102 75.7703L45.7822 80.188C45.1486 80.2931 44.4994 80.1371 43.9828 79.7554L31.5072 70.5393L20 61.2432Z" fill="#A8CCF8"/>
<path d="M43.5393 34.1452C42.7058 40.1766 43.4365 61.7248 43.5298 64.3584C43.5359 64.5314 43.597 64.699 43.7068 64.8329C48.116 70.2146 56.137 68.3251 58.1799 64.7978C58.246 64.6837 58.2757 64.5539 58.2757 64.422V41.8483C58.2757 38.9641 60.792 30.5505 62.9645 27.4469C65.137 24.3432 67.6534 19.4088 80.3802 16.0597C90.5481 13.3839 92.8776 19.3927 92.7726 22.7445C92.7723 22.7537 92.7722 22.7526 92.7722 22.7617V45.5025C92.7722 45.7392 92.8712 45.9596 93.0592 46.1035C96.004 48.357 103.446 49.4303 104.804 44.2919C104.821 44.2276 104.829 44.1628 104.829 44.0963V17.0644C104.829 7.0119 95.0541 3.12896 91.127 2.33397L91.1189 2.3323C91.1047 2.3294 91.0984 2.32811 91.0807 2.32606C90.4253 2.24994 70.8065 0.0897546 55.0867 12.3163C47.1228 18.5105 44.4275 27.7177 43.5393 34.1452Z" fill="#F0F2FF"/>
<path fill-rule="evenodd" clip-rule="evenodd" d="M96.8103 99.7149C99.0578 97.0093 100.584 93.3798 100.584 90.2197C100.584 85.6256 97.3584 83.7634 93.3798 86.0605C89.4011 88.3576 86.1758 93.944 86.1758 98.5382C86.1758 101.535 87.5479 103.369 89.6063 103.645L89.6063 117.552L96.8103 113.393L96.8103 99.7149Z" fill="#252A30"/>
<mask id="mask1_3078_421758" style="mask-type:alpha" maskUnits="userSpaceOnUse" x="86" y="85" width="15" height="33">
<path fill-rule="evenodd" clip-rule="evenodd" d="M96.8102 99.7149C99.0577 97.0093 100.584 93.3798 100.584 90.2197C100.584 85.6256 97.3584 83.7634 93.3798 86.0605C89.4011 88.3576 86.1758 93.944 86.1758 98.5382C86.1758 101.535 87.5479 103.369 89.6062 103.645L89.6062 117.552L96.8102 113.393L96.8102 99.7149Z" fill="#F4D176"/>
</mask>
<g mask="url(#mask1_3078_421758)">
<path fill-rule="evenodd" clip-rule="evenodd" d="M93.2574 97.9387C95.505 95.233 97.031 91.6035 97.031 88.4434C97.031 83.8492 93.8057 81.9871 89.827 84.2841C85.8484 86.5812 82.623 92.1676 82.623 96.7618C82.623 99.7583 83.9951 101.593 86.0534 101.869L86.0534 115.775L93.2574 111.616L93.2574 97.9387Z" fill="#FFBF39"/>
</g>
<mask id="mask2_3078_421758" style="mask-type:alpha" maskUnits="userSpaceOnUse" x="89" y="80" width="45" height="48">
<path d="M133.946 80.5693L95.5016 85.0106L89.6035 98.3345V117.548L133.946 127.203V80.5693Z" fill="#FFBF39"/>
</mask>
<g mask="url(#mask2_3078_421758)">
<circle opacity="0.6" cx="84.7599" cy="102.991" r="35.1321" transform="rotate(51.2399 84.7599 102.991)" fill="url(#paint1_linear_3078_421758)"/>
</g>
<path fill-rule="evenodd" clip-rule="evenodd" d="M99.9132 171.29C101.496 178.058 108.265 182.262 115.033 180.679C121.801 179.096 126.005 172.327 124.422 165.559C122.84 158.791 116.07 154.588 109.302 156.17C102.534 157.753 98.3307 164.522 99.9132 171.29ZM104.557 170.014C105.558 174.294 109.838 176.952 114.118 175.951C118.398 174.951 121.056 170.67 120.055 166.39C119.054 162.111 114.774 159.452 110.494 160.453C106.214 161.454 103.556 165.735 104.557 170.014Z" fill="#2538BF"/>
<path d="M154.007 155.291C154.805 155.104 155.602 155.6 155.789 156.397L156.937 161.307L124.712 168.842C122.958 169.253 121.203 168.163 120.792 166.408C120.382 164.654 121.472 162.899 123.227 162.488L154.007 155.291Z" fill="#2538BF"/>
<path d="M151.422 153.916L157.181 152.569C157.355 152.529 157.529 152.637 157.57 152.811L161.651 170.265C162.044 171.943 161.002 173.621 159.324 174.013C157.647 174.405 155.969 173.363 155.577 171.686L151.422 153.916Z" fill="#2538BF"/>
<rect x="136.967" y="159.275" width="5.93232" height="14.8308" rx="2.96616" transform="rotate(-13.161 136.967 159.275)" fill="#2538BF"/>
<path fill-rule="evenodd" clip-rule="evenodd" d="M98.5636 168.976C100.146 175.744 106.916 179.947 113.684 178.365C120.451 176.782 124.655 170.013 123.072 163.245C121.49 156.477 114.721 152.273 107.953 153.856C101.185 155.438 96.9811 162.208 98.5636 168.976ZM103.207 167.7C104.208 171.98 108.489 174.638 112.768 173.637C117.048 172.636 119.706 168.356 118.705 164.076C117.705 159.796 113.424 157.138 109.144 158.139C104.865 159.139 102.206 163.42 103.207 167.7Z" fill="#FFBF39"/>
<path d="M152.655 152.976C153.453 152.79 154.251 153.285 154.437 154.083L155.585 158.993L123.361 166.528C121.606 166.938 119.851 165.848 119.441 164.094C119.031 162.339 120.12 160.584 121.875 160.174L152.655 152.976Z" fill="#FFBF39"/>
<path d="M150.139 153.564L155.631 152.28C155.788 152.244 155.945 152.341 155.982 152.498L159.63 168.099C160.003 169.694 159.012 171.29 157.417 171.663C155.822 172.036 154.226 171.045 153.853 169.45L150.139 153.564Z" fill="#FFBF39"/>
<rect x="135.615" y="156.961" width="5.93232" height="14.8308" rx="2.96616" transform="rotate(-13.161 135.615 156.961)" fill="#FFBF39"/>
<defs>
<linearGradient id="paint0_linear_3078_421758" x1="102.643" y1="165.955" x2="162.423" y2="72.2097" gradientUnits="userSpaceOnUse">
<stop stop-color="#2538BF"/>
<stop offset="0.927083" stop-color="#2538BF" stop-opacity="0"/>
</linearGradient>
<linearGradient id="paint1_linear_3078_421758" x1="67.1938" y1="133.731" x2="105.839" y2="73.1282" gradientUnits="userSpaceOnUse">
<stop stop-color="#FFBF39"/>
<stop offset="1" stop-color="#FFBF39" stop-opacity="0"/>
</linearGradient>
<clipPath id="clip0_3078_421758">
<rect width="200" height="195.261" fill="white" transform="translate(0 2)"/>
</clipPath>
</defs>
</svg>
