<svg width="16" height="16" viewBox="0 0 16 16" fill="none" xmlns="http://www.w3.org/2000/svg">
<path d="M9 1C9 1.03316 8.99839 1.06595 8.99523 1.09829C11.3483 1.56953 13.1276 3.67912 13.1276 6.20376C13.1276 7.76507 13.7361 9.26723 14.8254 10.3727L15.095 10.6463C15.4765 11.0008 15.682 11.504 15.682 12.0368C15.682 13.1181 14.813 14 13.7477 14L10 14C10 15.1046 9.10457 16 8 16C6.89543 16 6 15.1046 6 14L2.2527 14C1.18731 14 0.318359 13.1181 0.318359 12.0368C0.318359 11.504 0.523889 11.0009 0.905397 10.6463L1.17498 10.3727C2.26425 9.26723 2.87279 7.76507 2.87279 6.20376C2.87279 3.67925 4.65185 1.56974 7.00478 1.09836C7.00162 1.066 7 1.03319 7 1C7 0.447715 7.44772 0 8 0C8.55229 0 9 0.447715 9 1ZM7 14C7 14.5523 7.44772 15 8 15C8.55228 15 9 14.5523 9 14H7Z" fill="#0E72ED"/>
<zoom style="dark" value="|:#4793F1"/>
</svg>
