<svg width="40" height="40" viewBox="0 0 40 40" fill="none" xmlns="http://www.w3.org/2000/svg">
<rect width="40" height="40" rx="13.3333" fill="#9D87C9"/>
<path d="M11.6667 16.6665V8.33317C11.6667 7.87293 12.0398 7.49984 12.5 7.49984H27.5C27.9603 7.49984 28.3334 7.87293 28.3334 8.33317V16.6665C28.3334 17.1267 27.9603 17.4998 27.5 17.4998H12.5C12.0398 17.4998 11.6667 17.1267 11.6667 16.6665Z" stroke="white" stroke-width="1.66667"/>
<path fill-rule="evenodd" clip-rule="evenodd" d="M32.5001 25V16.6667C32.5001 15.7462 31.7539 15 30.8334 15H20.0001H9.16673C8.24625 15 7.50006 15.7462 7.50006 16.6667V25C7.50006 25.9205 8.24625 26.6667 9.16673 26.6667H10.0001V21.6667C10.0001 20.7462 10.7463 20 11.6667 20H27.5001H28.3334C29.2539 20 30.0001 20.7462 30.0001 21.6667V26.6667H30.8334C31.7539 26.6667 32.5001 25.9205 32.5001 25ZM27.5001 20C27.0398 20 26.6667 19.6269 26.6667 19.1667C26.6667 18.7064 27.0398 18.3333 27.5001 18.3333C27.9603 18.3333 28.3334 18.7064 28.3334 19.1667C28.3334 19.6269 27.9603 20 27.5001 20Z" fill="white"/>
<path d="M10.8334 30V21.6667C10.8334 21.2064 11.2065 20.8333 11.6667 20.8333H28.3334C28.7936 20.8333 29.1667 21.2064 29.1667 21.6667V30C29.1667 30.4602 28.7936 30.8333 28.3334 30.8333H11.6667C11.2065 30.8333 10.8334 30.4602 10.8334 30Z" stroke="white" stroke-width="1.66667"/>
<rect x="14.1667" y="25" width="11.6667" height="1.66667" rx="0.833333" fill="white"/>
</svg>
