<svg width="16" height="16" viewBox="0 0 16 16" fill="none" xmlns="http://www.w3.org/2000/svg">
<path fill-rule="evenodd" clip-rule="evenodd" d="M5 2.5C5 2.22386 5.22386 2 5.5 2C5.77614 2 6 2.22386 6 2.5V3H10V2.5C10 2.22386 10.2239 2 10.5 2C10.7761 2 11 2.22386 11 2.5V3H12C13.1046 3 14 3.89543 14 5V6V7V12C14 13.1046 13.1046 14 12 14H4C2.89543 14 2 13.1046 2 12V7V6V5C2 3.89543 2.89543 3 4 3H5V2.5ZM10 4V4.5C10 4.77614 10.2239 5 10.5 5C10.7761 5 11 4.77614 11 4.5V4H12C12.5523 4 13 4.44772 13 5V6H3V5C3 4.44772 3.44772 4 4 4H5V4.5C5 4.77614 5.22386 5 5.5 5C5.77614 5 6 4.77614 6 4.5V4H10ZM13 7V12C13 12.5523 12.5523 13 12 13H4C3.44772 13 3 12.5523 3 12V7H13Z" fill="#232333"/>
<zoom style="dark" value="|:#F5F5F5"/>
</svg>
