<svg width="16" height="16" viewBox="0 0 16 16" fill="none" xmlns="http://www.w3.org/2000/svg">
<path fill-rule="evenodd" clip-rule="evenodd" d="M7.32332 10.733C7.31108 10.7219 7.29905 10.7105 7.28723 10.6987C7.27911 10.6906 7.27116 10.6824 7.26337 10.6741L3.29258 6.70332C2.90205 6.31279 2.90253 5.68011 3.29365 5.29018C3.68477 4.90025 4.31842 4.90073 4.70894 5.29125L7.99695 8.57922L11.2932 5.29335C11.6843 4.90344 12.3182 4.90369 12.709 5.29391C13.0999 5.68413 13.0996 6.31655 12.7085 6.70646L8.81212 10.5906C8.78204 10.6316 8.74843 10.6708 8.71131 10.7078C8.32918 11.0887 7.71554 11.097 7.32332 10.733Z" fill="#222230"/>
<zoom style="dark" value="|:#E0E0E1"/>
<zoom style="press" value="|:#0C63CE"/>
<zoom style="press_dark" value="|:#4F9AF7"/>

</svg>
