<svg width="16" height="16" viewBox="0 0 16 16" fill="none" xmlns="http://www.w3.org/2000/svg">
<path d="M0 3.00012C0 2.44784 0.447715 2.00012 1 2.00012H15C15.5523 2.00012 16 2.44784 16 3.00012C16 3.55241 15.5523 4.00012 15 4.00012H1C0.447715 4.00012 0 3.55241 0 3.00012Z" fill="#909096"/>
<path d="M2.5 8.00012C2.5 7.44784 2.94772 7.00012 3.5 7.00012H12.5C13.0523 7.00012 13.5 7.44784 13.5 8.00012C13.5 8.55241 13.0523 9.00012 12.5 9.00012H3.5C2.94772 9.00012 2.5 8.55241 2.5 8.00012Z" fill="#909096"/>
<path d="M6 12.0001C5.44772 12.0001 5 12.4478 5 13.0001C5 13.5524 5.44772 14.0001 6 14.0001H10C10.5523 14.0001 11 13.5524 11 13.0001C11 12.4478 10.5523 12.0001 10 12.0001H6Z" fill="#909096"/>

<zoom style="dark" value="|:#FFFFFF89|:#FFFFFF89|:#FFFFFF89"/>
<zoom style="hover" value="|:#000001|:#000001|:#000001"/>
<zoom style="hover_dark" value="|:#F5F5F5|:#F5F5F5|:#F5F5F5"/>
<zoom style="selected" value="|:#0C63CE|:#0C63CE|:#0C63CE"/>
<zoom style="selected_dark" value="|:#4F9AF7|:#4F9AF7|:#4F9AF7"/>

</svg>
