<svg width="293" height="245" viewBox="0 0 293 245" fill="none" xmlns="http://www.w3.org/2000/svg">
<path d="M260.952 119.171C249.04 165.35 311.579 174.661 287.383 208.922C263.186 243.184 155.507 244.301 124.878 244.301C93.5052 244.301 -10.8228 234.855 0.916623 171.998C12.6561 109.141 100.885 146.201 69.6224 108.414C38.3595 70.6276 114.677 -17.4314 162.321 3.04735C194.846 17.028 129.603 100.784 187.767 77.8943C245.931 55.0042 272.865 72.9925 260.952 119.171Z" fill="#326199" fill-opacity="0.3"/>
<path opacity="0.3" d="M243.021 183.928H269.208C270.138 183.928 270.51 185.129 269.742 185.654L236.882 208.158L226.225 200.202L243.021 183.928Z" fill="url(#paint0_linear_1235_35859)"/>
<path d="M207.509 169.302C206.523 168.368 209.764 168.692 210.974 169.302C221.15 174.435 221.832 184.225 221.832 184.225H212.305C212.305 184.225 214.546 175.964 207.509 169.302Z" fill="#4793F1"/>
<path d="M245.91 169.302C246.896 168.368 243.655 168.692 242.445 169.302C232.268 174.435 231.587 184.225 231.587 184.225H241.114C241.114 184.225 238.872 175.964 245.91 169.302Z" fill="#648CFE"/>
<path d="M240.223 160.345C241.092 159.295 236.862 159.736 235.643 160.345C225.391 165.47 224.082 184.225 224.082 184.225H235.643C235.643 184.225 234.661 167.066 240.223 160.345Z" fill="#2538BF"/>
<path d="M212.191 161.083C209.561 158.208 216.113 159.228 218.291 160.319C228.53 165.45 229.837 184.225 229.837 184.225L217.202 184.225C217.202 184.225 219.38 168.943 212.191 161.083Z" fill="#A8CCF8"/>
<path d="M208.651 183.615C208.403 182.377 209.349 181.222 210.612 181.222H241.319C242.57 181.222 243.513 182.356 243.286 183.586L239.311 205.039C238.959 206.934 237.306 208.31 235.378 208.31H216.885C214.979 208.31 213.338 206.965 212.963 205.097L208.651 183.615Z" fill="#648CFE"/>
<path d="M210.905 181.62C210.659 181.584 210.685 181.222 210.933 181.222H241.319C242.57 181.222 243.513 182.356 243.286 183.586L239.696 202.958C239.585 203.556 238.704 203.475 238.704 202.867V194.316C238.704 189.349 235.059 185.135 230.145 184.42L210.905 181.62Z" fill="#2538BF"/>
<ellipse cx="216.654" cy="41.7099" rx="18.6129" ry="18.6205" fill="#EBF6FF"/>
<path opacity="0.2" d="M194.76 194.127C202.95 198.177 196.374 224.292 161.629 224.292C144.471 224.292 132.221 225.782 112.119 218.334C92.0168 210.885 89.0728 210.736 80.8831 206.639C72.6933 202.543 82.7104 186.679 115.841 194.127C148.972 201.575 186.57 190.077 194.76 194.127Z" fill="#6784FF"/>
<rect x="104.233" y="53.6278" width="81.8966" height="152.688" rx="4.13033" fill="#0F73EE"/>
<path d="M104.233 175.231C104.233 174.161 105.401 173.5 106.319 174.051L109.817 176.151L181.291 206.316H108.364C106.083 206.316 104.233 204.467 104.233 202.186V175.231Z" fill="#0D3DE4"/>
<path d="M186.131 57.7586C186.131 55.2062 183.839 53.2647 181.321 53.6845L119.125 64.0549L177.941 74.11L186.131 94.5926V57.7586Z" fill="#0D3DE4"/>
<ellipse cx="143.691" cy="195.144" rx="6.70063" ry="6.70339" fill="#A4C4FF"/>
<rect x="128.057" y="58.0966" width="32.0141" height="2.97929" rx="1.48964" fill="#A4C4FF"/>
<rect x="110.186" y="65.5448" width="69.9844" height="118.427" rx="0.688388" fill="#2B245E"/>
<path fill-rule="evenodd" clip-rule="evenodd" d="M127.61 94.8894C128.998 94.8894 130.123 93.764 130.123 92.3758C130.123 90.9875 128.998 89.8621 127.61 89.8621C126.221 89.8621 125.096 90.9875 125.096 92.3758C125.096 93.764 126.221 94.8894 127.61 94.8894ZM127.61 96.1463C125.096 96.1463 123.211 97.2717 123.211 98.66C123.211 99.3541 123.86 99.9168 124.468 99.9168H130.752C131.359 99.9168 132.009 99.3541 132.009 98.66C132.009 97.2717 130.123 96.1463 127.61 96.1463Z" fill="#A4C4FF"/>
<rect x="142.201" y="90.1238" width="26.8025" height="1.4901" rx="0.745048" fill="#A4C4FF"/>
<rect x="142.201" y="94.593" width="26.8025" height="1.4901" rx="0.745048" fill="#A4C4FF"/>
<rect x="142.201" y="99.0618" width="26.8025" height="1.4901" rx="0.745048" fill="#A4C4FF"/>
<rect x="146.669" y="151.199" width="22.3354" height="1.4901" rx="0.745048" fill="#A4C4FF"/>
<rect x="146.669" y="164.606" width="22.3354" height="1.4901" rx="0.745048" fill="#A4C4FF"/>
<rect x="146.669" y="155.668" width="22.3354" height="1.4901" rx="0.745048" fill="#A4C4FF"/>
<rect x="146.669" y="160.137" width="22.3354" height="1.4901" rx="0.745048" fill="#A4C4FF"/>
<path d="M145.925 108.631C145.925 107.871 146.541 107.255 147.302 107.255H218.887H229.423C230.183 107.255 230.8 107.871 230.8 108.631V135.625C230.8 136.403 230.155 137.026 229.377 137.001L152.396 134.458C152.064 134.447 151.739 134.556 151.482 134.765L148.17 137.457C147.271 138.188 145.925 137.548 145.925 136.389V108.631Z" fill="#486CD3"/>
<rect x="154.858" y="115.448" width="67.0063" height="1.4901" rx="0.745048" fill="white"/>
<rect x="154.858" y="121.406" width="67.0063" height="1.4901" rx="0.745048" fill="white"/>
<rect x="154.858" y="127.365" width="67.0063" height="1.4901" rx="0.745048" fill="white"/>
<rect x="180.919" y="5.21387" width="35.7367" height="35.7514" rx="2.75355" fill="#486CD3"/>
<path fill-rule="evenodd" clip-rule="evenodd" d="M197.317 21.501C200.24 21.501 202.609 19.1317 202.609 16.209C202.609 13.2863 200.24 10.917 197.317 10.917C194.394 10.917 192.025 13.2863 192.025 16.209C192.025 19.1317 194.394 21.501 197.317 21.501ZM197.317 24.147C192.025 24.147 188.056 26.5163 188.056 29.4389C188.056 30.9003 189.423 32.0849 190.702 32.0849H203.932C205.211 32.0849 206.578 30.9003 206.578 29.4389C206.578 26.5163 202.609 24.147 197.317 24.147Z" fill="white"/>
<path d="M97.3369 120.665C101.706 120.636 106.026 121.593 109.974 123.466C113.921 125.339 117.396 128.08 120.138 131.483C122.88 134.887 124.818 138.865 125.809 143.123C126.8 147.38 126.818 151.806 125.861 156.071C124.904 160.336 122.997 164.33 120.282 167.755C117.567 171.18 114.115 173.948 110.182 175.853C106.249 177.757 101.937 178.749 97.5678 178.754C93.1985 178.759 88.8842 177.778 84.9468 175.883L97.5327 149.709L97.3369 120.665Z" fill="#214BE0"/>
<path d="M71.0541 161.622C68.529 156.005 67.8542 149.73 69.1272 143.704C70.4001 137.678 73.5549 132.213 78.1357 128.098L97.5327 149.709L71.0541 161.622Z" fill="#493AB7"/>
<path d="M85.1696 175.989C80.6387 173.856 76.7363 170.587 73.8417 166.499C70.9471 162.411 69.1586 157.643 68.6499 152.659L97.5327 149.709L85.1696 175.989Z" fill="#FFBF39"/>
<path d="M73.2634 133.768C75.8834 129.776 79.4468 126.492 83.6382 124.207C87.8297 121.921 92.5197 120.705 97.2931 120.666L97.5327 149.709L73.2634 133.768Z" fill="#4793F1"/>
<path d="M38.8035 33.4844C38.757 32.6937 39.3857 32.0269 40.1779 32.0269H135.754C136.585 32.0269 137.227 32.7577 137.119 33.5819L134.04 57.1633C134.024 57.2877 134.025 57.4138 134.043 57.538L137.095 78.7116C137.215 79.5416 136.571 80.2848 135.733 80.2848H40.1868C39.3914 80.2848 38.7614 79.6127 38.813 78.8189L40.2068 57.3508L38.8035 33.4844Z" fill="#486CD3"/>
<path d="M87.1384 43.9438L104.978 44.6887L130.292 43.9438L124.161 48.634C124.033 48.7317 123.876 48.7816 123.715 48.7751L96.9394 47.6892C96.5914 47.675 96.2428 47.6889 95.8969 47.7305L87.1384 48.7852V43.9438Z" fill="white"/>
<path d="M87.1384 60.3302L104.978 61.075L121.73 63.3095L107.212 64.0543H96.4165L87.1384 65.1715V60.3302Z" fill="white"/>
<path d="M87.113 69.6407H99.9921C100.34 69.6407 100.687 69.6686 101.03 69.724L112.054 71.5034H103.865L93.8137 71.8759H87.113V69.6407Z" fill="white"/>
<path d="M87.1384 53.2545L104.978 53.6269L121.358 54.3717L128.058 55.1166L98.2778 56.2338H87.1384V53.2545Z" fill="white"/>
<path d="M63.5722 42.9348C65.7985 42.9198 67.9995 43.4077 70.0111 44.3621C72.0227 45.3165 73.793 46.7128 75.1901 48.447C76.5872 50.1812 77.575 52.2085 78.0799 54.3777C78.5848 56.547 78.5938 58.8022 78.1061 60.9754C77.6185 63.1486 76.6468 65.1837 75.2636 66.9289C73.8803 68.6742 72.1212 70.0846 70.1172 71.0549C68.1133 72.0253 65.9162 72.5307 63.6899 72.5334C61.4635 72.5361 59.2652 72.0361 57.259 71.0705L63.6719 57.734L63.5722 42.9348Z" fill="white"/>
<path d="M50.1801 63.8039C48.8935 60.9417 48.5496 57.7444 49.1982 54.674C49.8468 51.6035 51.4543 48.8188 53.7884 46.7221L63.6719 57.734L50.1801 63.8039Z" fill="#4793F1"/>
<path d="M57.0004 70.7958C54.6917 69.7089 52.7033 68.0429 51.2284 65.96C49.7535 63.877 48.8422 61.4478 48.583 58.9083L63.2999 57.4052L57.0004 70.7958Z" fill="#493AB7"/>
<path d="M51.3058 49.6113C52.4652 47.8447 53.9894 46.3471 55.7757 45.2191C57.5621 44.091 59.5692 43.3588 61.662 43.0717L63.6719 57.734L51.3058 49.6113Z" fill="#0E72ED"/>
<path d="M57.0959 44.4771C58.6099 43.7254 60.2415 43.2389 61.9199 43.0386L63.6719 57.734L57.0959 44.4771Z" fill="#A477FF"/>
<path d="M60.669 43.2426C61.7547 43.0174 62.8623 42.9151 63.9708 42.9375L63.6719 57.734L60.669 43.2426Z" fill="#2538BF"/>
<ellipse cx="63.6615" cy="57.7227" rx="7.07289" ry="7.07581" fill="#A4C4FF"/>
<defs>
<linearGradient id="paint0_linear_1235_35859" x1="234.456" y1="208.518" x2="255.863" y2="182.386" gradientUnits="userSpaceOnUse">
<stop stop-color="#00118C"/>
<stop offset="1" stop-color="#3646B5" stop-opacity="0"/>
</linearGradient>
</defs>
</svg>
