<svg width="20" height="20" viewBox="0 0 20 20" fill="none" xmlns="http://www.w3.org/2000/svg">
<path fill-rule="evenodd" clip-rule="evenodd" d="M10 20C15.5228 20 20 15.5228 20 10C20 4.47715 15.5228 0 10 0C4.47715 0 0 4.47715 0 10C0 15.5228 4.47715 20 10 20ZM15.4954 6.63102C15.7058 6.35743 15.6547 5.96502 15.3811 5.75457C15.1075 5.54411 14.7151 5.59529 14.5046 5.86889L8.68861 13.4297L5.44194 10.183C5.19786 9.93894 4.80214 9.93894 4.55806 10.183C4.31398 10.4271 4.31398 10.8228 4.55806 11.0669L8.30806 14.8169C8.43523 14.9441 8.61103 15.0103 8.7905 14.9986C8.96998 14.987 9.13573 14.8986 9.24539 14.756L15.4954 6.63102Z" fill="#268543"/>
</svg>
