<svg width="20" height="20" viewBox="0 0 20 20" fill="none" xmlns="http://www.w3.org/2000/svg">
<path d="M10.6243 1.72768C11.2225 1.01662 12.3467 1.11496 12.8118 1.91902L18.5693 11.8722C19.0344 12.6762 18.5576 13.6971 17.6416 13.8586L6.89455 15.7532L3.60685 10.0697L10.6243 1.72768Z" fill="#6E7680"/>
<path d="M2.65773 10.6166L5.94543 16.3001L5.20816 16.725C4.56702 17.0944 3.7472 16.8752 3.37704 16.2352L1.42981 12.869C1.05965 12.2291 1.27932 11.4109 1.92046 11.0414L2.65773 10.6166Z" fill="#6E7680"/>
<path d="M7.47368 16.6825L7.44256 16.7005L8.96412 19.3308C9.33429 19.9707 10.1541 20.19 10.7952 19.8205L11.3207 19.5177C11.9618 19.1483 12.1815 18.33 11.8114 17.6901L10.881 16.0818L7.47368 16.6825Z" fill="#6E7680"/>
</svg>
