<svg width="20" height="20" viewBox="0 0 20 20" fill="none" xmlns="http://www.w3.org/2000/svg">
<path d="M11.5295 11.941C11.2208 11.7866 10.8454 11.9118 10.691 12.2205C10.5366 12.5292 10.6618 12.9046 10.9705 13.059C11.3122 13.2299 12.146 13.8146 12.566 14.6545C12.7204 14.9632 13.0958 15.0884 13.4045 14.934C13.7132 14.7796 13.8384 14.4042 13.684 14.0955C13.104 12.9354 12.0211 12.1868 11.5295 11.941Z" fill="#222230"/>
<path fill-rule="evenodd" clip-rule="evenodd" d="M2.5 0.625C2.5 0.970178 2.77982 1.25 3.125 1.25H3.75V4.28571C3.75 6.26865 4.62286 8.04188 5.99493 9.22112C6.34428 9.52137 6.72598 9.78311 7.13389 10C6.72598 10.2169 6.34428 10.4786 5.99493 10.7789C4.62286 11.9581 3.75 13.7314 3.75 15.7143V18.75H3.125C2.77982 18.75 2.5 19.0298 2.5 19.375C2.5 19.7202 2.77982 20 3.125 20H16.875C17.2202 20 17.5 19.7202 17.5 19.375C17.5 19.0298 17.2202 18.75 16.875 18.75H16.25V15.7143C16.25 13.7314 15.3771 11.9581 14.0051 10.7789C13.6557 10.4786 13.274 10.2169 12.8661 10C13.274 9.78311 13.6557 9.52137 14.0051 9.22112C15.3771 8.04188 16.25 6.26864 16.25 4.28571V1.25H16.875C17.2202 1.25 17.5 0.970178 17.5 0.625C17.5 0.279822 17.2202 0 16.875 0H3.125C2.77982 0 2.5 0.279822 2.5 0.625ZM5 4.28571V1.25H15V4.28571C15 6.30628 13.8856 8.04221 12.2793 8.89632L10.8229 9.67072C10.7011 9.73546 10.625 9.8621 10.625 10C10.625 10.1379 10.7011 10.2645 10.8229 10.3293L12.2793 11.1037C13.8856 11.9578 15 13.6937 15 15.7143V18.75H5V15.7143C5 13.6937 6.1144 11.9578 7.72073 11.1037L9.17715 10.3293C9.29891 10.2645 9.375 10.1379 9.375 10C9.375 9.8621 9.29891 9.73546 9.17715 9.67072L7.72073 8.89632C6.1144 8.04221 5 6.30628 5 4.28571Z" fill="#222230"/>
</svg>
