<svg width="20" height="20" viewBox="0 0 20 20" fill="none" xmlns="http://www.w3.org/2000/svg">
<path fill-rule="evenodd" clip-rule="evenodd" d="M1.28312 6.11967C1.25149 6.51598 1.25007 7.00967 1.25 7.65734C1.25 7.68766 1.25 7.719 1.25 7.75V12.25C1.25 13.6501 1.25 14.3502 1.52248 14.885C1.74719 15.326 2.09737 15.6897 2.52787 15.9309C2.55657 15.947 2.58562 15.9625 2.61502 15.9775C3.1498 16.25 3.84987 16.25 5.25 16.25H14.75C16.1501 16.25 16.8502 16.25 17.385 15.9775C17.8554 15.7378 18.2378 15.3554 18.4775 14.885C18.75 14.3502 18.75 13.6501 18.75 12.25V7.75C18.75 7.71802 18.75 7.6864 18.75 7.65514C18.7499 7.00742 18.7485 6.51381 18.7167 6.1176C18.6829 5.69585 18.6148 5.38446 18.4775 5.11502C18.2378 4.64462 17.8554 4.26217 17.385 4.02248C16.8502 3.75 16.1501 3.75 14.75 3.75H5.25C3.84987 3.75 3.1498 3.75 2.61502 4.02248C2.14462 4.26217 1.76217 4.64462 1.52248 5.11502C1.38497 5.3849 1.31686 5.69687 1.28312 6.11967ZM14.75 5H5.25C4.52931 5 4.06397 5.00097 3.70979 5.02991C3.37022 5.05765 3.24432 5.10475 3.18251 5.13624C2.94731 5.25608 2.75608 5.44731 2.63624 5.68251C2.60475 5.74432 2.55765 5.87022 2.52991 6.20979C2.51192 6.42995 2.50474 6.69305 2.50188 7.03374L8.31104 11.3906C9.31104 12.1406 10.686 12.1406 11.686 11.3906L17.4981 7.03156C17.4952 6.69193 17.488 6.42948 17.4701 6.20979C17.4423 5.87022 17.3953 5.74432 17.3638 5.68251C17.2439 5.44731 17.0527 5.25608 16.8175 5.13624C16.7557 5.10475 16.6298 5.05765 16.2902 5.02991C15.936 5.00097 15.4707 5 14.75 5ZM17.5 12.25V8.59264L12.436 12.3906C10.9916 13.4739 9.00548 13.4739 7.56103 12.3906L2.5 8.59483V12.25C2.5 12.9707 2.50097 13.436 2.52991 13.7902C2.55765 14.1298 2.60475 14.2557 2.63624 14.3175C2.75608 14.5527 2.94731 14.7439 3.18251 14.8638C3.24432 14.8952 3.37022 14.9423 3.70979 14.9701C4.06397 14.999 4.52931 15 5.25 15H14.75C15.4707 15 15.936 14.999 16.2902 14.9701C16.6298 14.9423 16.7557 14.8952 16.8175 14.8638C17.0527 14.7439 17.2439 14.5527 17.3638 14.3175C17.3953 14.2557 17.4423 14.1298 17.4701 13.7902C17.499 13.436 17.5 12.9707 17.5 12.25Z" fill="#222230"/>
</svg>
