<svg width="16" height="16" viewBox="0 0 16 16" fill="none" xmlns="http://www.w3.org/2000/svg">
<path fill-rule="evenodd" clip-rule="evenodd" d="M12.917 13C13.4886 13 13.93 12.4925 13.802 11.9355C12.6928 7.10757 8.89243 3.30718 4.06451 2.19801C3.50747 2.07004 3 2.51143 3 3.08298C3 3.54166 3.33281 3.92902 3.77857 4.03716C7.81072 5.01541 10.9846 8.18928 11.9628 12.2214C12.071 12.6672 12.4583 13 12.917 13Z" fill="#66CC841A"/>
<path fill-rule="evenodd" clip-rule="evenodd" d="M8.80677 13C9.41417 13 9.86177 12.4288 9.64465 11.8615C8.67721 9.33397 6.66603 7.32279 4.13846 6.35535C3.57119 6.13823 3 6.58583 3 7.19323C3 7.60465 3.27089 7.96257 3.65167 8.11837C5.56717 8.90214 7.09786 10.4328 7.88163 12.3483C8.03743 12.7291 8.39535 13 8.80677 13Z" fill="#66CC844D"/>
<path fill-rule="evenodd" clip-rule="evenodd" d="M5.6653 12.3291C5.84581 12.637 5.60661 13 5.24976 13H3.5C3.22386 13 3 12.7761 3 12.5V10.7502C3 10.3934 3.36302 10.1542 3.67086 10.3347C4.49422 10.8175 5.18251 11.5058 5.6653 12.3291Z" fill="#66CC84FF"/>

<zoom style="green1" value="|:#66CC841A|:#66CC844D|:#66CC84FF"/>
<zoom style="green2" value="|:#66CC8466|:#66CC84FF|:#66CC84FF"/>
<zoom style="green3" value="|:#66CC84FF|:#66CC84FF|:#66CC84FF"/>

<zoom style="gray1" value="|:#2222301A|:#2222304D|:#222230FF"/>
<zoom style="gray2" value="|:#22223066|:#222230FF|:#222230FF"/>
<zoom style="gray3" value="|:#222230FF|:#222230FF|:#222230FF"/>

<zoom style="red" value="|:#C54348FF|:#C54348FF|:#C54348FF"/>

</svg>
