<svg width="24" height="24" viewBox="0 0 24 24" fill="none" xmlns="http://www.w3.org/2000/svg">
<path d="M23.5369 10.5413C23.5369 4.71539 18.8127 0 12.9956 0C11.3827 0 9.80501 0.317296 8.33307 0.951891C6.89644 1.56004 5.61843 2.42379 4.51671 3.52552C3.41498 4.61843 2.55124 5.90525 1.94308 7.33307C1.31731 8.81383 1 10.3827 1 12.0044C1 13.6262 1.31731 15.195 1.94308 16.6757C2.55124 18.1036 3.41498 19.3816 4.51671 20.4833C5.61843 21.585 6.90525 22.4487 8.33307 23.0569C9.80501 23.6827 11.3827 24 13.0044 24C14.5644 24 16.054 23.7003 17.4202 23.1626L16.5123 20.8711C15.4282 21.303 14.2472 21.5409 13.0044 21.5409C10.4572 21.5409 8.05988 20.545 6.26185 18.747C4.46383 16.9489 3.46786 14.5516 3.46786 12.0044C3.46786 9.45718 4.46383 7.05988 6.26185 5.26184C8.06871 3.46383 10.4572 2.46787 13.0044 2.46787C17.4642 2.46787 21.0779 6.08153 21.0779 10.5413C21.0779 12.1807 20.5843 13.7143 19.7381 14.9923L17.6404 9.8274C17.3319 9.06943 16.9618 7.93241 15.5692 7.93241C14.1766 7.93241 13.8065 9.07819 13.5068 9.8274L11.5765 14.5957L8.98531 8.0558H6.26185L9.48768 16.0059C9.81384 16.8079 10.1752 17.9009 11.5765 17.9009C12.9779 17.9009 13.3305 16.8079 13.6567 16.0059L15.5692 11.2817L17.4906 16.0059C17.8785 16.9842 18.2927 17.9009 19.5707 17.9009C20.4785 17.9009 21.0514 17.3191 21.3687 16.9401C22.726 15.1686 23.5369 12.9475 23.5369 10.5413Z" fill="#98A0A9"/>
</svg>
