<svg width="24" height="24" viewBox="0 0 24 24" fill="none" xmlns="http://www.w3.org/2000/svg">
<path fill-rule="evenodd" clip-rule="evenodd" d="M1.22014 5.03118C1 5.43517 1 5.96402 1 7.02171V12.0869C1 14.8567 1 16.2416 1.57648 17.2996C2.08357 18.2302 2.89271 18.9868 3.88793 19.4609C5.01935 20 6.50046 20 9.46267 20H19.7684C20.8996 20 21.4652 20 21.8972 19.7942C22.2772 19.6131 22.5862 19.3242 22.7799 18.9688C23 18.5648 23 18.036 23 16.9783V11.9131C23 9.14328 23 7.75835 22.4235 6.70041C21.9164 5.76981 21.1073 5.01321 20.1121 4.53905C18.9806 4 17.4995 4 14.5373 4H4.23156C3.1004 4 2.53483 4 2.10279 4.20584C1.72275 4.38691 1.41377 4.67582 1.22014 5.03118ZM4.88037 14.2422H7.50537V15H4.00537V9.36328H4.88037V14.2422ZM9.53037 9.36328V15H8.65537V9.36328H9.53037ZM13.5202 15L15.5319 9.36328H14.5983L13.0593 14.0156H13.0358L11.5007 9.36328H10.5515L12.5632 15H13.5202ZM17.4319 14.2422H20.1351V15H16.5569V9.36328H20.1351V10.1172H17.4319V11.7656H19.9905V12.4922H17.4319V14.2422Z" fill="#98A0A9"/>
</svg>
