<svg width="24" height="24" viewBox="0 0 24 24" fill="none" xmlns="http://www.w3.org/2000/svg">
<g clip-path="url(#clip0_923_50835)">
<g clip-path="url(#clip1_923_50835)">
<path fill-rule="evenodd" clip-rule="evenodd" d="M0 12C0 17.9333 4.33333 22.8667 10 23.8667L10.0671 23.813C10.0447 23.8087 10.0224 23.8043 10 23.7998V15.3332H7V11.9998H10V9.33317C10 6.33317 11.9333 4.6665 14.6667 4.6665C15.5333 4.6665 16.4667 4.79984 17.3333 4.93317V7.99984H15.8C14.3333 7.99984 14 8.73317 14 9.6665V11.9998H17.2L16.6667 15.3332H14V23.7998C13.9776 23.8043 13.9553 23.8087 13.9329 23.813L14 23.8667C19.6667 22.8667 24 17.9333 24 12C24 5.4 18.6 0 12 0C5.4 0 0 5.4 0 12Z" fill="#98A0A9"/>
</g>
</g>
<defs>
<clipPath id="clip0_923_50835">
<rect width="24" height="24" fill="white"/>
</clipPath>
<clipPath id="clip1_923_50835">
<rect width="24" height="24" fill="white"/>
</clipPath>
</defs>
</svg>
