<svg width="24" height="24" viewBox="0 0 24 24" fill="none" xmlns="http://www.w3.org/2000/svg">
<path fill-rule="evenodd" clip-rule="evenodd" d="M21.3768 4.50153C22.4095 4.7775 23.2226 5.5908 23.4986 6.62335C24 8.49505 24 12.4001 24 12.4001C24 12.4001 24 16.3052 23.4986 18.1768C23.2226 19.2093 22.4095 20.0227 21.3768 20.2986C19.5051 20.8003 12 20.8003 12 20.8003C12 20.8003 4.49503 20.8003 2.62334 20.2986C1.5908 20.0227 0.777495 19.2093 0.501532 18.1768C0 16.3052 0 12.4001 0 12.4001C0 12.4001 0 8.49505 0.501532 6.62335C0.777495 5.5908 1.5908 4.7775 2.62334 4.50153C4.49503 4 12 4 12 4C12 4 19.5051 4 21.3768 4.50153ZM9.59993 8.80003V16.0002L15.8352 12.4002L9.59993 8.80003Z" fill="#98A0A9"/>
</svg>
