<svg width="16" height="16" viewBox="0 0 16 16" fill="none" xmlns="http://www.w3.org/2000/svg">
<path d="M3.32389 5.00033C3.32389 4.07985 4.07009 3.33366 4.99056 3.33366H7.00033C7.18442 3.33366 7.33366 3.18442 7.33366 3.00033C7.33366 2.81623 7.18442 2.66699 7.00033 2.66699H4.99056C3.7019 2.66699 2.65723 3.71166 2.65723 5.00033V11.0003C2.65723 12.289 3.7019 13.3337 4.99056 13.3337H11.0003C12.289 13.3337 13.3337 12.289 13.3337 11.0003V9.00033C13.3337 8.81623 13.1844 8.66699 13.0003 8.66699C12.8162 8.66699 12.667 8.81623 12.667 9.00033V11.0003C12.667 11.9208 11.9208 12.667 11.0003 12.667H4.99056C4.07009 12.667 3.32389 11.9208 3.32389 11.0003V5.00033Z" fill="#98A0A9"/>
<path d="M9.66699 2.66699C9.4829 2.66699 9.33366 2.81623 9.33366 3.00033C9.33366 3.18442 9.4829 3.33366 9.66699 3.33366H12.1956L6.76462 8.76462C6.63445 8.8948 6.63445 9.10585 6.76462 9.23603C6.8948 9.3662 7.10585 9.3662 7.23603 9.23603L12.667 3.80506V6.33366C12.667 6.51775 12.8162 6.66699 13.0003 6.66699C13.1844 6.66699 13.3337 6.51775 13.3337 6.33366V3.00033C13.3337 2.81623 13.1844 2.66699 13.0003 2.66699H9.66699Z" fill="#98A0A9"/>
</svg>
