<svg width="14" height="14" viewBox="0 0 14 14" fill="none" xmlns="http://www.w3.org/2000/svg">
<path d="M3.62814 3.62814C3.799 3.45729 4.076 3.45729 4.24686 3.62814L7 6.38128L9.75314 3.62814C9.924 3.45729 10.201 3.45729 10.3719 3.62814C10.5427 3.799 10.5427 4.076 10.3719 4.24686L7.61872 7L10.3719 9.75314C10.5427 9.924 10.5427 10.201 10.3719 10.3719C10.201 10.5427 9.924 10.5427 9.75314 10.3719L7 7.61872L4.24686 10.3719C4.076 10.5427 3.799 10.5427 3.62814 10.3719C3.45729 10.201 3.45729 9.924 3.62814 9.75314L6.38128 7L3.62814 4.24686C3.45729 4.076 3.45729 3.799 3.62814 3.62814Z" fill="#E8173D"/>
<path fill-rule="evenodd" clip-rule="evenodd" d="M14 7C14 10.866 10.866 14 7 14C3.13401 14 0 10.866 0 7C0 3.13401 3.13401 0 7 0C10.866 0 14 3.13401 14 7ZM13.125 7C13.125 10.3827 10.3827 13.125 7 13.125C3.61726 13.125 0.875 10.3827 0.875 7C0.875 3.61726 3.61726 0.875 7 0.875C10.3827 0.875 13.125 3.61726 13.125 7Z" fill="#E8173D"/>
</svg>
