<svg width="16" height="16" viewBox="0 0 16 16" fill="none" xmlns="http://www.w3.org/2000/svg">
<path fill-rule="evenodd" clip-rule="evenodd" d="M0.217987 3.09202C0 3.51984 0 4.0799 0 5.2V10.8C0 11.9201 0 12.4802 0.217987 12.908C0.409734 13.2843 0.715695 13.5903 1.09202 13.782C1.51984 14 2.0799 14 3.2 14H12.8C13.9201 14 14.4802 14 14.908 13.782C15.2843 13.5903 15.5903 13.2843 15.782 12.908C16 12.4802 16 11.9201 16 10.8V5.2C16 4.0799 16 3.51984 15.782 3.09202C15.5903 2.71569 15.2843 2.40973 14.908 2.21799C14.4802 2 13.9201 2 12.8 2H3.2C2.0799 2 1.51984 2 1.09202 2.21799C0.715695 2.40973 0.409734 2.71569 0.217987 3.09202ZM5.85355 7.85356L7.50044 6.20668V11C7.50044 11.2761 7.7243 11.5 8.00044 11.5C8.27658 11.5 8.50044 11.2761 8.50044 11V6.20711L10.1469 7.85355C10.3421 8.04882 10.6587 8.04882 10.854 7.85355C11.0493 7.65829 11.0493 7.34171 10.854 7.14645L8.35399 4.64645C8.2532 4.54566 8.12008 4.49689 7.98801 4.50015C7.86408 4.50311 7.74103 4.55187 7.64645 4.64646L5.14645 7.14646C4.95118 7.34172 4.95118 7.6583 5.14645 7.85356C5.34171 8.04883 5.65829 8.04883 5.85355 7.85356Z" fill="#F7F9FA"/>
</svg>
