<svg width="16" height="16" viewBox="0 0 16 16" fill="none" xmlns="http://www.w3.org/2000/svg">
<path d="M8 3C8.27614 3 8.5 3.22386 8.5 3.5V7.5H12.5C12.7761 7.5 13 7.72386 13 8C13 8.27614 12.7761 8.5 12.5 8.5H8.5V13C8.5 13.2761 8.27614 13.5 8 13.5C7.72386 13.5 7.5 13.2761 7.5 13V8.5H3.5C3.22386 8.5 3 8.27614 3 8C3 7.72386 3.22386 7.5 3.5 7.5H7.5V3.5C7.5 3.22386 7.72386 3 8 3Z" fill="#000001"/>
<path fill-rule="evenodd" clip-rule="evenodd" d="M0 6.4C0 4.15979 0 3.03969 0.435974 2.18404C0.819467 1.43139 1.43139 0.819467 2.18404 0.435974C3.03969 0 4.15979 0 6.4 0H9.6C11.8402 0 12.9603 0 13.816 0.435974C14.5686 0.819467 15.1805 1.43139 15.564 2.18404C16 3.03969 16 4.15979 16 6.4V9.6C16 11.8402 16 12.9603 15.564 13.816C15.1805 14.5686 14.5686 15.1805 13.816 15.564C12.9603 16 11.8402 16 9.6 16H6.4C4.15979 16 3.03969 16 2.18404 15.564C1.43139 15.1805 0.819467 14.5686 0.435974 13.816C0 12.9603 0 11.8402 0 9.6V6.4ZM6.4 1H9.6C10.7366 1 11.5289 1.00078 12.1458 1.05118C12.7509 1.10062 13.0986 1.19279 13.362 1.32698C13.9265 1.6146 14.3854 2.07354 14.673 2.63803C14.8072 2.90138 14.8994 3.24907 14.9488 3.85424C14.9992 4.47108 15 5.26339 15 6.4V9.6C15 10.7366 14.9992 11.5289 14.9488 12.1458C14.8994 12.7509 14.8072 13.0986 14.673 13.362C14.3854 13.9265 13.9265 14.3854 13.362 14.673C13.0986 14.8072 12.7509 14.8994 12.1458 14.9488C11.5289 14.9992 10.7366 15 9.6 15H6.4C5.26339 15 4.47108 14.9992 3.85424 14.9488C3.24907 14.8994 2.90138 14.8072 2.63803 14.673C2.07354 14.3854 1.6146 13.9265 1.32698 13.362C1.19279 13.0986 1.10062 12.7509 1.05118 12.1458C1.00078 11.5289 1 10.7366 1 9.6V6.4C1 5.26339 1.00078 4.47108 1.05118 3.85424C1.10062 3.24907 1.19279 2.90138 1.32698 2.63803C1.6146 2.07354 2.07354 1.6146 2.63803 1.32698C2.90138 1.19279 3.24907 1.10062 3.85424 1.05118C4.47108 1.00078 5.26339 1 6.4 1Z" fill="#131619"/>
</svg>
