<svg width="24" height="24" viewBox="0 0 24 24" fill="none" xmlns="http://www.w3.org/2000/svg">
<path d="M14.1876 5.93369C13.9783 5.81287 13.7107 5.88457 13.5899 6.09382L12.7149 7.60937C12.5941 7.81862 12.6658 8.08619 12.8751 8.207C13.0843 8.32782 13.3519 8.25612 13.4727 8.04687L14.3477 6.53132C14.4685 6.32207 14.3968 6.0545 14.1876 5.93369Z" fill="#3B90F7"/>
<path d="M17.1001 9.36681C17.3093 9.246 17.5769 9.31769 17.6977 9.52695C17.8185 9.7362 17.7468 10.0038 17.5376 10.1246L15.2643 11.4371C15.055 11.5579 14.7874 11.4862 14.6666 11.2769C14.5458 11.0677 14.6175 10.8001 14.8268 10.6793L17.1001 9.36681Z" fill="#3B90F7"/>
<path d="M18.5605 13.8281C18.8021 13.8281 18.998 14.0239 18.998 14.2656C18.998 14.5072 18.8021 14.7031 18.5605 14.7031H16.8105C16.5689 14.7031 16.373 14.5072 16.373 14.2656C16.373 14.0239 16.5689 13.8281 16.8105 13.8281H18.5605Z" fill="#3B90F7"/>
<path fill-rule="evenodd" clip-rule="evenodd" d="M9.0929 8.09107C9.41451 7.48269 10.2802 7.46654 10.6242 8.0625L15.1662 15.9295C15.5103 16.5254 15.0635 17.267 14.3758 17.2414L10.0455 17.0797C9.88097 17.0736 9.71801 17.114 9.5754 17.1964L8.31758 17.9226C7.86447 18.1842 7.28508 18.0289 7.02348 17.5758L5.12708 14.2912C4.86548 13.838 5.02072 13.2586 5.47383 12.997L6.73165 12.2708C6.87426 12.1885 6.99074 12.0676 7.06771 11.922L9.0929 8.09107ZM7.72348 12.5538C7.64651 12.6994 7.53003 12.8203 7.38742 12.9026L7.36422 12.916L9.33297 16.326L9.35617 16.3126C9.49878 16.2302 9.66174 16.1898 9.8263 16.196L14.4085 16.367L9.86646 8.5L7.72348 12.5538ZM5.91133 13.7548L6.60645 13.3535L8.5752 16.7635L7.88008 17.1648C7.84548 17.1848 7.80123 17.1729 7.78125 17.1383L5.88485 13.8537C5.86487 13.819 5.87673 13.7748 5.91133 13.7548Z" fill="#3B90F7"/>
</svg>
