<svg width="158" height="95" viewBox="0 0 158 95" fill="none" xmlns="http://www.w3.org/2000/svg">
<path d="M75.5906 9.45176C81.7128 5.91714 91.6388 5.91714 97.7609 9.45176L145.455 36.9881C152.725 41.1854 152.725 47.9907 145.455 52.1881L80.0476 89.9512C73.9255 93.4858 63.9995 93.4858 57.8773 89.9512L10.8759 62.8149C3.22321 58.3966 3.22319 51.2331 10.8759 46.8149L75.5906 9.45176Z" fill="#2538BF"/>
<rect width="81.1329" height="101.525" rx="12.8" transform="matrix(0.866025 0.5 -0.866025 0.5 86.6211 2.97168)" fill="white"/>
<mask id="mask0_496_389724" style="mask-type:alpha" maskUnits="userSpaceOnUse" x="5" y="6" width="146" height="85">
<rect width="81.1329" height="101.525" rx="12.8" transform="matrix(0.866025 0.5 -0.866025 0.5 86.6221 2.97168)" fill="white"/>
</mask>
<g mask="url(#mask0_496_389724)">
<rect opacity="0.1" width="81.1329" height="101.525" rx="12.8" transform="matrix(0.866025 0.5 -0.866025 0.5 86.6221 2.97168)" fill="url(#paint0_linear_496_389724)"/>
</g>
<path d="M75.5849 8.53559C81.7971 5.40394 91.1495 5.58654 96.981 8.95334L145.799 37.1385C151.921 40.6731 151.921 46.4039 145.799 49.9385L135.804 55.7092L65.5408 15.1428L65.5408 13.5991L75.5849 8.53559Z" fill="#C28030"/>
<path d="M75.536 7.77207C81.6581 4.23745 91.5841 4.23745 97.7062 7.77207L145.799 35.5385C151.921 39.0731 151.921 44.8039 145.799 48.3385L135.804 54.1092L65.5408 13.5428L75.536 7.77207Z" fill="#FFBF39"/>
<rect width="55.537" height="4.18554" rx="2.09277" transform="matrix(0.866025 0.5 -0.866025 0.5 89.8828 10.7988)" fill="white"/>
<rect width="28.8831" height="4.18554" rx="2.09277" transform="matrix(0.866025 0.5 -0.866025 0.5 83.8408 14.2871)" fill="white"/>
<rect x="-2.24007e-08" y="0.375821" width="51.8632" height="12.0263" rx="6.01313" transform="matrix(0.866025 0.5 -0.866025 0.5 73.5081 23.7875)" stroke="#C4C8EA" stroke-width="0.751641"/>
<rect width="52.6149" height="12.7779" rx="6.38895" transform="matrix(0.866025 0.5 -0.866025 0.5 58.2109 33.043)" fill="#2BA09B"/>
<rect width="52.6149" height="12.7779" rx="6.38895" transform="matrix(0.866025 0.5 -0.866025 0.5 58.2109 32.2432)" fill="#66CC84"/>
<rect x="-2.24007e-08" y="0.375821" width="51.8632" height="12.0263" rx="6.01313" transform="matrix(0.866025 0.5 -0.866025 0.5 43.5628 41.0746)" stroke="#C4C8EA" stroke-width="0.751641"/>
<rect x="-2.24007e-08" y="0.375821" width="51.8632" height="12.0263" rx="6.01313" transform="matrix(0.866025 0.5 -0.866025 0.5 28.5911 49.7192)" stroke="#C4C8EA" stroke-width="0.751641"/>
<path d="M70.9822 32.5838L69.6951 31.8407L77.3372 29.6931L78.8851 30.5867L75.1625 34.9973L73.8754 34.2542L76.8352 30.9022L76.7908 30.8766L70.9822 32.5838ZM73.1348 31.2481L76.175 33.0034L75.2374 33.5447L72.1972 31.7895L73.1348 31.2481Z" fill="#545C93"/>
<path d="M55.0304 40.662L60.7113 37.3821L62.9859 38.6954C63.4039 38.9367 63.6905 39.1737 63.8458 39.4064C64.0012 39.6392 64.0391 39.8597 63.9596 40.0679C63.8819 40.275 63.7007 40.4608 63.4159 40.6252C63.194 40.7533 62.9545 40.8403 62.6974 40.8862C62.4422 40.9311 62.1833 40.9396 61.9207 40.9119C61.6619 40.8841 61.4113 40.8259 61.169 40.7373L61.1135 40.7693C61.3207 40.8996 61.4621 41.0517 61.5379 41.2258C61.6156 41.4009 61.6119 41.5813 61.5269 41.7671C61.4436 41.9518 61.2624 42.1247 60.9832 42.286C60.6817 42.46 60.3378 42.5721 59.9513 42.6223C59.5685 42.6724 59.1635 42.6532 58.7363 42.5646C58.3091 42.476 57.8829 42.3089 57.4576 42.0633L55.0304 40.662ZM57.2134 40.7885L58.1926 41.3539C58.5273 41.5471 58.8353 41.6512 59.1163 41.6662C59.3993 41.68 59.648 41.6251 59.8625 41.5012C60.0197 41.4105 60.1205 41.3085 60.1649 41.1953C60.2093 41.0822 60.1954 40.9652 60.1233 40.8446C60.053 40.725 59.9217 40.6097 59.7294 40.4987L58.7224 39.9173L57.2134 40.7885ZM59.5352 39.4481L60.4256 39.9622C60.5902 40.0572 60.765 40.125 60.9499 40.1656C61.1385 40.2061 61.3234 40.2168 61.5047 40.1976C61.6877 40.1794 61.8542 40.1271 62.004 40.0406C62.2092 39.9221 62.3017 39.7844 62.2814 39.6274C62.2629 39.4716 62.1205 39.3168 61.8542 39.163L60.9416 38.6361L59.5352 39.4481Z" fill="white"/>
<path d="M48.7622 50.0689L47.5473 49.3674C47.6822 49.2638 47.7766 49.1571 47.8302 49.0471C47.8857 48.9361 47.9032 48.8245 47.8829 48.7124C47.8626 48.6003 47.8052 48.4903 47.7109 48.3825C47.6184 48.2757 47.4908 48.1754 47.3281 48.0814C47.0341 47.9116 46.7049 47.8059 46.3406 47.7643C45.9782 47.7216 45.5981 47.7456 45.2005 47.8364C44.8048 47.9261 44.41 48.0846 44.0161 48.312C43.6111 48.5458 43.3309 48.777 43.1756 49.0055C43.0221 49.235 42.9842 49.4534 43.0619 49.6605C43.1395 49.8676 43.3217 50.0539 43.6083 50.2194C43.7692 50.3123 43.9393 50.386 44.1187 50.4404C44.2999 50.4959 44.4849 50.5312 44.6735 50.5461C44.864 50.56 45.0535 50.5531 45.2421 50.5253C45.4326 50.4986 45.6175 50.4495 45.7969 50.378L47.0063 51.0826C46.7142 51.215 46.3841 51.3148 46.0161 51.3821C45.6518 51.4494 45.269 51.4771 44.8677 51.4654C44.4701 51.4536 44.0706 51.396 43.6693 51.2924C43.2718 51.1889 42.8908 51.0319 42.5265 50.8216C42.0198 50.529 41.6814 50.2013 41.5113 49.8383C41.343 49.4763 41.3605 49.1032 41.564 48.7188C41.7692 48.3355 42.1807 47.9656 42.7983 47.609C43.4178 47.2513 44.0614 47.0143 44.729 46.8979C45.3966 46.7815 46.0438 46.773 46.6707 46.8723C47.2995 46.9705 47.8635 47.1637 48.3628 47.452C48.6919 47.6421 48.9508 47.8449 49.1395 48.0606C49.3299 48.2773 49.4455 48.4999 49.4862 48.7284C49.5287 48.9558 49.4908 49.1827 49.3725 49.409C49.256 49.6365 49.0526 49.8564 48.7622 50.0689Z" fill="#545C93"/>
<path d="M27.0999 59.1128L25.0861 57.9501L30.767 54.6702L32.7975 55.8425C33.3689 56.1724 33.7471 56.5221 33.932 56.8915C34.1188 57.2599 34.1114 57.6303 33.9098 58.003C33.7101 58.3766 33.3153 58.7338 32.7254 59.0744C32.1336 59.416 31.5132 59.645 30.8641 59.7614C30.2168 59.8789 29.5714 59.8831 28.9279 59.7742C28.2862 59.6664 27.6769 59.4459 27.0999 59.1128ZM27.3163 58.0494L28.0791 58.4898C28.4341 58.6948 28.7957 58.8309 29.1637 58.8982C29.5354 58.9655 29.9154 58.9575 30.3038 58.8742C30.6958 58.7909 31.1036 58.627 31.527 58.3825C31.9468 58.1402 32.2279 57.9063 32.3703 57.6811C32.5145 57.4568 32.5284 57.2385 32.4119 57.026C32.2954 56.8136 32.0596 56.6048 31.7046 56.3998L30.939 55.9578L27.3163 58.0494Z" fill="#545C93"/>
<defs>
<linearGradient id="paint0_linear_496_389724" x1="12.9659" y1="86.8531" x2="84.3139" y2="43.9641" gradientUnits="userSpaceOnUse">
<stop stop-color="#9FA4C7"/>
<stop offset="1" stop-color="#9FA4C7" stop-opacity="0"/>
</linearGradient>
</defs>
</svg>
