<svg width="14" height="15" viewBox="0 0 14 15" fill="none" xmlns="http://www.w3.org/2000/svg">
<path fill-rule="evenodd" clip-rule="evenodd" d="M4.60853 8.09287C4.61823 8.10358 4.62824 8.11411 4.63856 8.12445C4.64565 8.13155 4.65284 8.13851 4.66011 8.14532L8.13452 11.6198C8.47622 11.9615 9.02982 11.9611 9.37101 11.6188C9.7122 11.2766 9.71178 10.7222 9.37007 10.3804L6.4931 7.50344L9.36823 4.61925C9.70941 4.27701 9.70919 3.72233 9.36774 3.38036C9.0263 3.03839 8.47293 3.03861 8.13176 3.38085L4.73315 6.79017C4.6973 6.81649 4.663 6.8459 4.63062 6.87838C4.29727 7.21274 4.29001 7.74968 4.60853 8.09287Z" fill="#000001"/>
</svg>
