<svg width="16" height="16" viewBox="0 0 16 16" fill="none" xmlns="http://www.w3.org/2000/svg">
<path fill-rule="evenodd" clip-rule="evenodd" d="M7.99984 -0.000244141C3.58165 -0.000244141 0 3.58141 0 7.99959C0 12.4178 3.58165 15.9994 7.99984 15.9994C12.418 15.9994 15.9997 12.4178 15.9997 7.99959C15.9997 3.58141 12.418 -0.000244141 7.99984 -0.000244141ZM11.353 6.35302C11.5482 6.15776 11.5482 5.84118 11.353 5.64592C11.1577 5.45066 10.8411 5.45066 10.6459 5.64592L6.9995 9.29228L5.35309 7.64588C5.15783 7.45061 4.84125 7.45061 4.64599 7.64588C4.45072 7.84114 4.45072 8.15772 4.64599 8.35298L6.64595 10.3529C6.84121 10.5482 7.15779 10.5482 7.35305 10.3529L11.353 6.35302Z" fill="#00A832"/>
</svg>
