<svg width="16" height="16" viewBox="0 0 16 16" fill="none" xmlns="http://www.w3.org/2000/svg">
<path d="M0 4C0 1.79086 1.79086 0 4 0H12C14.2091 0 16 1.79086 16 4V12C16 14.2091 14.2091 16 12 16H4C1.79086 16 0 14.2091 0 12V4Z" fill="#00A832"/>
<path fill-rule="evenodd" clip-rule="evenodd" d="M6.5 4.25C6.5 3.83579 6.83579 3.5 7.25 3.5H8.75C9.16421 3.5 9.5 3.83579 9.5 4.25V11.75C9.5 12.1642 9.16421 12.5 8.75 12.5H7.25C6.83579 12.5 6.5 12.1642 6.5 11.75V4.25ZM2.75 8.75C2.75 8.33579 3.08579 8 3.5 8H5C5.41421 8 5.75 8.33579 5.75 8.75V11.75C5.75 12.1642 5.41421 12.5 5 12.5H3.5C3.08579 12.5 2.75 12.1642 2.75 11.75V8.75ZM11 5.75C10.5858 5.75 10.25 6.08579 10.25 6.5V11.75C10.25 12.1642 10.5858 12.5 11 12.5H12.5C12.9142 12.5 13.25 12.1642 13.25 11.75V6.5C13.25 6.08579 12.9142 5.75 12.5 5.75H11Z" fill="white"/>
</svg>
