<svg width="16" height="16" viewBox="0 0 16 16" fill="none" xmlns="http://www.w3.org/2000/svg">
<path d="M7.5 6.20668L5.85311 7.85356C5.65785 8.04883 5.34127 8.04883 5.14601 7.85356C4.95074 7.6583 4.95074 7.34172 5.14601 7.14646L7.64601 4.64646C7.74059 4.55187 7.86364 4.50311 7.98757 4.50015C8.11964 4.49689 8.25276 4.54566 8.35355 4.64645L10.8536 7.14645C11.0488 7.34171 11.0488 7.65829 10.8536 7.85355C10.6583 8.04882 10.3417 8.04882 10.1464 7.85355L8.5 6.20711V11C8.5 11.2761 8.27614 11.5 8 11.5C7.72386 11.5 7.5 11.2761 7.5 11V6.20668Z" fill="#6E7680"/>
<path fill-rule="evenodd" clip-rule="evenodd" d="M0.217987 3.09202C0 3.51984 0 4.0799 0 5.2V10.8C0 11.9201 0 12.4802 0.217987 12.908C0.409734 13.2843 0.715695 13.5903 1.09202 13.782C1.51984 14 2.0799 14 3.2 14H12.8C13.9201 14 14.4802 14 14.908 13.782C15.2843 13.5903 15.5903 13.2843 15.782 12.908C16 12.4802 16 11.9201 16 10.8V5.2C16 4.0799 16 3.51984 15.782 3.09202C15.5903 2.71569 15.2843 2.40973 14.908 2.21799C14.4802 2 13.9201 2 12.8 2H3.2C2.0799 2 1.51984 2 1.09202 2.21799C0.715695 2.40973 0.409734 2.71569 0.217987 3.09202ZM12.8 3H3.2C2.62345 3 2.25117 3.00078 1.96784 3.02393C1.69617 3.04612 1.59545 3.0838 1.54601 3.10899C1.35785 3.20487 1.20487 3.35785 1.10899 3.54601C1.0838 3.59545 1.04612 3.69617 1.02393 3.96784C1.00078 4.25117 1 4.62345 1 5.2V10.8C1 11.3766 1.00078 11.7488 1.02393 12.0322C1.04612 12.3038 1.0838 12.4045 1.10899 12.454C1.20487 12.6422 1.35785 12.7951 1.54601 12.891C1.59545 12.9162 1.69617 12.9539 1.96784 12.9761C2.25117 12.9992 2.62345 13 3.2 13H12.8C13.3766 13 13.7488 12.9992 14.0322 12.9761C14.3038 12.9539 14.4045 12.9162 14.454 12.891C14.6422 12.7951 14.7951 12.6422 14.891 12.454C14.9162 12.4045 14.9539 12.3038 14.9761 12.0322C14.9992 11.7488 15 11.3766 15 10.8V5.2C15 4.62345 14.9992 4.25117 14.9761 3.96784C14.9539 3.69617 14.9162 3.59545 14.891 3.54601C14.7951 3.35785 14.6422 3.20487 14.454 3.10899C14.4045 3.0838 14.3038 3.04612 14.0322 3.02393C13.7488 3.00078 13.3766 3 12.8 3Z" fill="#6E7680"/>
</svg>
