<svg width="24" height="24" viewBox="0 0 24 24" fill="none" xmlns="http://www.w3.org/2000/svg">
<path fill-rule="evenodd" clip-rule="evenodd" d="M12 22C17.5228 22 22 17.5228 22 12C22 6.47715 17.5228 2 12 2C6.47715 2 2 6.47715 2 12C2 17.5228 6.47715 22 12 22ZM10.96 7.1825L11.565 14.0025H12.4312L13.05 7.1825H10.96ZM11.2762 16.8762C11.4779 17.0321 11.7208 17.11 12.005 17.11C12.28 17.11 12.5183 17.0367 12.72 16.89C12.9308 16.7342 13.0362 16.4592 13.0362 16.065C13.0362 15.6708 12.9308 15.4004 12.72 15.2537C12.5183 15.1071 12.28 15.0337 12.005 15.0337C11.7208 15.0337 11.4779 15.1071 11.2762 15.2537C11.0745 15.4004 10.9737 15.6708 10.9737 16.065C10.9737 16.45 11.0745 16.7204 11.2762 16.8762Z" fill="#C28030"/>
</svg>
