<svg width="16" height="16" viewBox="0 0 16 16" fill="none" xmlns="http://www.w3.org/2000/svg">
<rect width="16" height="16" rx="4" fill="#FFFFFF00"/>
<path d="M5.39623 4.65377C5.19121 4.44874 4.85879 4.44874 4.65377 4.65377C4.44874 4.85879 4.44874 5.19121 4.65377 5.39623L7.25754 8L4.65377 10.6038C4.44874 10.8088 4.44874 11.1412 4.65377 11.3462C4.85879 11.5513 5.19121 11.5513 5.39623 11.3462L8 8.74246L10.6038 11.3462C10.8088 11.5513 11.1412 11.5513 11.3462 11.3462C11.5513 11.1412 11.5513 10.8088 11.3462 10.6038L8.74246 8L11.3462 5.39623C11.5513 5.19121 11.5513 4.85879 11.3462 4.65377C11.1412 4.44874 10.8088 4.44874 10.6038 4.65377L8 7.25754L5.39623 4.65377Z" fill="#F7F9FA"/>
<zoom style="hover" value=":none|:#FFFFFF54|:#F7F9FA"/>
<zoom style="press" value=":none|:#0000006B|:#F7F9FA"/>
</svg>
