<svg width="14" height="14" viewBox="0 0 14 14" fill="none" xmlns="http://www.w3.org/2000/svg">
<path d="M6.37498 10.375C6.37498 10.7202 6.65477 11 6.99998 11C7.3452 11 7.62498 10.7202 7.62498 10.375V7.62503H10.375C10.7202 7.62503 11 7.34521 11 7.00003C11 6.65484 10.7202 6.37503 10.375 6.37503H7.62498V3.625C7.62498 3.27982 7.3452 3 6.99998 3C6.65477 3 6.37498 3.27982 6.37498 3.625V6.37503H3.625C3.27991 6.37503 3 6.65484 3 7.00003C3 7.34521 3.27991 7.62503 3.625 7.62503H6.37498V10.375Z" fill="#0E72ED"/>
</svg>
