<svg width="14" height="14" viewBox="0 0 14 14" fill="none" xmlns="http://www.w3.org/2000/svg">
<path fill-rule="evenodd" clip-rule="evenodd" d="M5.33189 5.32725L0.999721 5.67452L4.29953 8.50214L3.29141 12.7288L6.99994 10.4634L10.7085 12.7282L9.70047 8.50214L12.9994 5.67525L8.66901 5.32714L7.00002 1.31554L5.33189 5.32725ZM7.07737 1.12953C7.07736 1.12954 7.07737 1.12952 7.07737 1.12953V1.12953ZM3.57609 13.5802C2.97514 13.9472 2.23026 13.406 2.39355 12.7217L3.32443 8.81888L0.277592 6.20803C-0.256868 5.75016 0.0276163 4.87483 0.728726 4.81843L4.72918 4.49776L6.26943 0.793575C6.53961 0.143807 7.46039 0.143807 7.73057 0.793575L9.27166 4.49776L13.2713 4.81928C13.9724 4.87483 14.2569 5.75016 13.7224 6.20803L10.6756 8.81888L11.6065 12.7217C11.7697 13.406 11.0249 13.9472 10.4248 13.5802L7 11.4887L3.57609 13.5802Z" fill="#323539"/>
<zoom  style="dark" value="|:#F5F5F5"/>
<zoom  style="disable" value="|:#6e7680"/>
<zoom  style="disable_dark" value="|:#98a0a9"/>
</svg>
