<svg width="17" height="17" viewBox="0 0 17 17" fill="none" xmlns="http://www.w3.org/2000/svg">
<path fill-rule="evenodd" clip-rule="evenodd" d="M1.5 7.9C1.5 5.65979 1.5 4.53968 1.93597 3.68404C2.31947 2.93139 2.93139 2.31947 3.68404 1.93597C4.53968 1.5 5.65979 1.5 7.9 1.5H9.1C11.3402 1.5 12.4603 1.5 13.316 1.93597C14.0686 2.31947 14.6805 2.93139 15.064 3.68404C15.5 4.53968 15.5 5.65979 15.5 7.9V9.1C15.5 11.3402 15.5 12.4603 15.064 13.316C14.6805 14.0686 14.0686 14.6805 13.316 15.064C12.4603 15.5 11.3402 15.5 9.1 15.5H7.9C5.65979 15.5 4.53968 15.5 3.68404 15.064C2.93139 14.6805 2.31947 14.0686 1.93597 13.316C1.5 12.4603 1.5 11.3402 1.5 9.1V7.9ZM10.5 5.92859C10.5 7.03316 9.60457 7.92859 8.5 7.92859C7.39543 7.92859 6.5 7.03316 6.5 5.92859C6.5 4.82402 7.39543 3.92859 8.5 3.92859C9.60457 3.92859 10.5 4.82402 10.5 5.92859ZM4.5 11.4714C4.5 10.1459 6.1 9.07141 8.5 9.07141C9.97847 9.07141 11.1534 9.47918 11.8376 10.1022C12.2641 10.4905 12.5 10.9625 12.5 11.4714C12.5 12.2446 11.9515 12.8897 11.2225 13.0389C11.1869 13.0462 11.1509 13.0523 11.1145 13.0572C11.0443 13.0666 10.9727 13.0714 10.9 13.0714H6.1C5.21634 13.0714 4.5 12.3551 4.5 11.4714Z" fill="#F1F4F6"/>
</svg>
