<svg width="14" height="20" viewBox="0 0 14 20" fill="none" xmlns="http://www.w3.org/2000/svg">
<path fill-rule="evenodd" clip-rule="evenodd" d="M6.70502 12.0697C6.69883 12.0642 6.69276 12.0584 6.68682 12.0525C6.68182 12.0475 6.67697 12.0424 6.67227 12.0373L3.19148 8.55653C3.02063 8.38567 3.02084 8.10887 3.19195 7.93828C3.36306 7.76769 3.64028 7.76789 3.81114 7.93875L6.99749 11.1251L10.1918 7.94081C10.3629 7.77023 10.6402 7.77034 10.8112 7.94106C10.9822 8.11178 10.9821 8.38846 10.811 8.55905L7.37362 11.9856C7.35675 12.012 7.33677 12.0369 7.31368 12.06C7.14604 12.2271 6.87656 12.2303 6.70502 12.0697Z" fill="#131619"/>
</svg>