<svg width="12" height="12" viewBox="0 0 12 12" fill="none" xmlns="http://www.w3.org/2000/svg">
<g id="Vector">
<path d="M9.375 0C9.58211 0 9.75 0.167893 9.75 0.375V1.875H11.625C11.8321 1.875 12 2.04289 12 2.25C12 2.45711 11.8321 2.625 11.625 2.625H9.75V4.125C9.75 4.33211 9.58211 4.5 9.375 4.5C9.16789 4.5 9 4.33211 9 4.125V0.375C9 0.167893 9.16789 0 9.375 0Z" fill="#D3D3D3"/>
<path d="M0 2.25C0 2.04289 0.167893 1.875 0.375 1.875H7.125C7.33211 1.875 7.5 2.04289 7.5 2.25C7.5 2.45711 7.33211 2.625 7.125 2.625H0.375C0.167893 2.625 0 2.45711 0 2.25Z" fill="#D3D3D3"/>
<path d="M2.625 3.75C2.83211 3.75 3 3.91789 3 4.125V7.875C3 8.08211 2.83211 8.25 2.625 8.25C2.41789 8.25 2.25 8.08211 2.25 7.875V6.37495H0.375C0.167893 6.37495 0 6.20706 0 5.99995C0 5.79285 0.167893 5.62495 0.375 5.62495H2.25V4.125C2.25 3.91789 2.41789 3.75 2.625 3.75Z" fill="#D3D3D3"/>
<path d="M4.5 5.99995C4.5 5.79285 4.66789 5.62495 4.875 5.62495H11.625C11.8321 5.62495 12 5.79285 12 5.99995C12 6.20706 11.8321 6.37495 11.625 6.37495H4.875C4.66789 6.37495 4.5 6.20706 4.5 5.99995Z" fill="#D3D3D3"/>
<path d="M6.375 7.5C6.58211 7.5 6.75 7.66789 6.75 7.875V9.375H11.625C11.8321 9.375 12 9.54289 12 9.75C12 9.95711 11.8321 10.125 11.625 10.125H6.75V11.625C6.75 11.8321 6.58211 12 6.375 12C6.16789 12 6 11.8321 6 11.625V7.875C6 7.66789 6.16789 7.5 6.375 7.5Z" fill="#D3D3D3"/>
<path d="M0 9.75C0 9.54289 0.167893 9.375 0.375 9.375H4.125C4.33211 9.375 4.5 9.54289 4.5 9.75C4.5 9.95711 4.33211 10.125 4.125 10.125H0.375C0.167893 10.125 0 9.95711 0 9.75Z" fill="#D3D3D3"/>
</g>
</svg>
