<svg width="16" height="16" viewBox="0 0 16 16" fill="none" xmlns="http://www.w3.org/2000/svg">
<path d="M11.5 10C11.7761 10 12 9.77614 12 9.5C12 9.22386 11.7761 9 11.5 9H7.70711L15.8536 0.853554C16.0488 0.658291 16.0488 0.341709 15.8536 0.146446C15.6583 -0.0488155 15.3417 -0.0488155 15.1464 0.146446L7 8.29289V4.5C7 4.22386 6.77614 4 6.5 4C6.22386 4 6 4.22386 6 4.5V9.5C6 9.77614 6.22386 10 6.5 10H11.5Z" fill="#6E7680"/>
<path d="M0.985352 3.5C0.985352 2.11929 2.10464 1 3.48535 1H6.5C6.77614 1 7 0.776143 7 0.5C7 0.223858 6.77614 2.38419e-07 6.5 2.38419e-07H3.48535C1.55236 2.38419e-07 -0.0146484 1.567 -0.0146484 3.5V12.5C-0.0146484 14.433 1.55236 16 3.48535 16H12.5C14.433 16 16 14.433 16 12.5V9.5C16 9.22386 15.7761 9 15.5 9C15.2239 9 15 9.22386 15 9.5V12.5C15 13.8807 13.8807 15 12.5 15H3.48535C2.10464 15 0.985352 13.8807 0.985352 12.5V3.5Z" fill="#6E7680"/>
<zoom style="dark" value="|:#98A0A9|:#98A0A9"/>
</svg>
