<svg width="14" height="14" viewBox="0 0 14 14" fill="none" xmlns="http://www.w3.org/2000/svg">
<path fill-rule="evenodd" clip-rule="evenodd" d="M9.07171 6.70405C9.06619 6.69786 9.06047 6.69179 9.05453 6.68584C9.04954 6.68085 9.04446 6.67599 9.0393 6.67129L5.55855 3.1905C5.3877 3.01965 5.1109 3.01986 4.94031 3.19097C4.76971 3.36209 4.76992 3.63931 4.94078 3.81016L8.12709 6.99651L4.94284 10.1908C4.77226 10.3619 4.77237 10.6392 4.94309 10.8102C5.11381 10.9812 5.39049 10.9811 5.56108 10.81L8.98764 7.37264C9.01401 7.35577 9.03896 7.33579 9.06199 7.3127C9.22912 7.14506 9.23231 6.87558 9.07171 6.70405Z" fill="#F7F9FA"/>
<zoom style="disable" value="|:#6E7680|:#6E7680"/>
</svg>
