<svg width="14" height="14" viewBox="0 0 14 14" fill="none" xmlns="http://www.w3.org/2000/svg">
<path d="M10.8468 4.64172C10.9941 4.4502 10.9583 4.17552 10.7667 4.0282C10.5752 3.88087 10.3005 3.9167 10.1532 4.10822L6.08203 9.40078L3.80936 7.12811C3.6385 6.95725 3.3615 6.95725 3.19064 7.12811C3.01979 7.29896 3.01979 7.57597 3.19064 7.74683L5.81564 10.3718C5.90466 10.4608 6.02772 10.5072 6.15335 10.499C6.27898 10.4909 6.39501 10.429 6.47177 10.3292L10.8468 4.64172Z" fill="#268543"/>
<path fill-rule="evenodd" clip-rule="evenodd" d="M14 7C14 10.866 10.866 14 7 14C3.13401 14 0 10.866 0 7C0 3.13401 3.13401 0 7 0C10.866 0 14 3.13401 14 7ZM13.125 7C13.125 10.3827 10.3827 13.125 7 13.125C3.61726 13.125 0.875 10.3827 0.875 7C0.875 3.61726 3.61726 0.875 7 0.875C10.3827 0.875 13.125 3.61726 13.125 7Z" fill="#268543"/>
</svg>
