<svg width="17" height="16" viewBox="0 0 17 16" fill="none" xmlns="http://www.w3.org/2000/svg">
<path d="M0.5 1C0.5 0.447715 0.947715 0 1.5 0H4C4.55228 0 5 0.447715 5 1V3.5C5 4.05228 4.55228 4.5 4 4.5H1.5C0.947715 4.5 0.5 4.05228 0.5 3.5V1Z" fill="#F7F9FA"/>
<path d="M6.25 1C6.25 0.447715 6.69772 0 7.25 0H9.75C10.3023 0 10.75 0.447715 10.75 1V3.5C10.75 4.05228 10.3023 4.5 9.75 4.5H7.25C6.69772 4.5 6.25 4.05228 6.25 3.5V1Z" fill="#F7F9FA"/>
<path d="M16.5 1C16.5 0.447715 16.0523 0 15.5 0H13C12.4477 0 12 0.447715 12 1V3.5C12 4.05228 12.4477 4.5 13 4.5H15.5C16.0523 4.5 16.5 4.05228 16.5 3.5V1Z" fill="#F7F9FA"/>
<path d="M0.5 6.75C0.5 6.19772 0.947715 5.75 1.5 5.75H4C4.55228 5.75 5 6.19772 5 6.75V9.25C5 9.80228 4.55228 10.25 4 10.25H1.5C0.947715 10.25 0.5 9.80228 0.5 9.25V6.75Z" fill="#F7F9FA"/>
<path d="M10.75 6.75C10.75 6.19772 10.3023 5.75 9.75 5.75H7.25C6.69772 5.75 6.25 6.19772 6.25 6.75V9.25C6.25 9.80228 6.69772 10.25 7.25 10.25H9.75C10.3023 10.25 10.75 9.80228 10.75 9.25V6.75Z" fill="#F7F9FA"/>
<path d="M12 6.75C12 6.19772 12.4477 5.75 13 5.75H15.5C16.0523 5.75 16.5 6.19772 16.5 6.75V9.25C16.5 9.80228 16.0523 10.25 15.5 10.25H13C12.4477 10.25 12 9.80228 12 9.25V6.75Z" fill="#F7F9FA"/>
<path d="M5 12.5C5 11.9477 4.55228 11.5 4 11.5H1.5C0.947715 11.5 0.5 11.9477 0.5 12.5V15C0.5 15.5523 0.947715 16 1.5 16H4C4.55228 16 5 15.5523 5 15V12.5Z" fill="#F7F9FA"/>
<path d="M6.25 12.5C6.25 11.9477 6.69772 11.5 7.25 11.5H9.75C10.3023 11.5 10.75 11.9477 10.75 12.5V15C10.75 15.5523 10.3023 16 9.75 16H7.25C6.69772 16 6.25 15.5523 6.25 15V12.5Z" fill="#F7F9FA"/>
<path d="M16.5 12.5C16.5 11.9477 16.0523 11.5 15.5 11.5H13C12.4477 11.5 12 11.9477 12 12.5V15C12 15.5523 12.4477 16 13 16H15.5C16.0523 16 16.5 15.5523 16.5 15V12.5Z" fill="#F7F9FA"/>
</svg>
