<svg width="16" height="16" viewBox="0 0 16 16" fill="none" xmlns="http://www.w3.org/2000/svg">
<path fill-rule="evenodd" clip-rule="evenodd" d="M12 0.669922C12.5523 0.669922 13 1.11662 13 1.66766V12.0441C13 12.4126 12.7965 12.7511 12.4706 12.9245L6.97059 15.8512C6.30448 16.2056 5.5 15.724 5.5 14.9708V12.6428H4C3.44771 12.6428 3 12.1961 3 11.645V1.66766C3 1.11662 3.44772 0.669922 4 0.669922H12ZM4 1.66766H11.125L6.02941 4.37915C5.70355 4.55255 5.5 4.89103 5.5 5.25951V11.645H4V1.66766ZM7.5 10.1484C7.22386 10.1484 7 9.92507 7 9.64955C7 9.37403 7.22386 9.15068 7.5 9.15068C7.77614 9.15068 8 9.37403 8 9.64955C8 9.92507 7.77614 10.1484 7.5 10.1484Z" fill="white"/>
</svg>
