<svg width="24" height="24" viewBox="0 0 24 24" fill="none" xmlns="http://www.w3.org/2000/svg">
<path d="M4.86146 6.20581C4.55674 6.20581 4.30972 6.45283 4.30972 6.75755C4.30972 7.06226 4.55674 7.30928 4.86146 7.30928H19.2066C19.5113 7.30928 19.7583 7.06226 19.7583 6.75755C19.7583 6.45283 19.5113 6.20581 19.2066 6.20581H4.86146Z" fill="#6E7680"/>
<path d="M4.30972 10.6197C4.30972 10.315 4.55674 10.068 4.86146 10.068H19.2066C19.5113 10.068 19.7583 10.315 19.7583 10.6197C19.7583 10.9244 19.5113 11.1714 19.2066 11.1714H4.86146C4.55674 11.1714 4.30972 10.9244 4.30972 10.6197Z" fill="#6E7680"/>
<path d="M4.86146 13.9301C4.55674 13.9301 4.30972 14.1771 4.30972 14.4818C4.30972 14.7866 4.55674 15.0336 4.86146 15.0336H19.2066C19.5113 15.0336 19.7583 14.7866 19.7583 14.4818C19.7583 14.1771 19.5113 13.9301 19.2066 13.9301H4.86146Z" fill="#6E7680"/>
<path d="M4.86146 17.7923C4.55674 17.7923 4.30972 18.0393 4.30972 18.344C4.30972 18.6487 4.55674 18.8957 4.86146 18.8957H19.2066C19.5113 18.8957 19.7583 18.6487 19.7583 18.344C19.7583 18.0393 19.5113 17.7923 19.2066 17.7923H4.86146Z" fill="#6E7680"/>
</svg>
