<svg width="16" height="16" viewBox="0 0 16 16" fill="none" xmlns="http://www.w3.org/2000/svg">
<path fill-rule="evenodd" clip-rule="evenodd" d="M9.5 2.96714C9.5 2.36812 8.83239 2.01083 8.33397 2.3431L5.09861 4.50001H3C2.44772 4.50001 2 4.94773 2 5.50001V11C2 11.5523 2.44772 12 3 12H5.09861L8.33398 14.1569C8.83239 14.4892 9.5 14.1319 9.5 13.5329V2.96714ZM5.65331 5.33206L8.5 3.43427V13.0658L5.65331 11.168C5.48904 11.0585 5.29604 11 5.09861 11H3V5.50001H5.09861C5.29604 5.50001 5.48904 5.44158 5.65331 5.33206Z" fill="white"/>
<path d="M11.0306 12.4285C10.7454 12.4815 10.5 12.2483 10.5 11.9582C10.5 11.6944 10.7047 11.4793 10.9622 11.4218C12.4145 11.0971 13.5 9.80033 13.5 8.25005C13.5 6.69976 12.4145 5.403 10.9622 5.07831C10.7047 5.02076 10.5 4.80571 10.5 4.54192C10.5 4.25179 10.7454 4.01863 11.0306 4.07158C13.005 4.43813 14.5 6.1695 14.5 8.25005C14.5 10.3306 13.005 12.062 11.0306 12.4285Z" fill="white"/>
<path d="M11.0656 10.3477C10.7752 10.4606 10.5 10.214 10.5 9.90245C10.5 9.65376 10.6834 9.44902 10.8962 9.32029C11.2581 9.1013 11.5 8.70392 11.5 8.25005C11.5 7.79617 11.2581 7.39879 10.8962 7.17981C10.6834 7.05107 10.5 6.84633 10.5 6.59764C10.5 6.28612 10.7752 6.03945 11.0656 6.15241C11.905 6.47904 12.5 7.29506 12.5 8.25005C12.5 9.20503 11.905 10.0211 11.0656 10.3477Z" fill="white"/>
</svg>
