<svg width="14" height="14" viewBox="0 0 14 14" fill="none" xmlns="http://www.w3.org/2000/svg">
<path fill-rule="evenodd" clip-rule="evenodd" d="M4.93058 7.29686C4.9361 7.30305 4.94183 7.30912 4.94776 7.31506C4.95275 7.32006 4.95783 7.32491 4.963 7.32962L8.44374 10.8104C8.61459 10.9813 8.89139 10.981 9.06199 10.8099C9.23258 10.6388 9.23237 10.3616 9.06152 10.1907L5.87521 7.00439L9.05945 3.81011C9.23004 3.63899 9.22993 3.36166 9.05921 3.19067C8.88848 3.01968 8.6118 3.01979 8.44122 3.19091L5.01466 6.62827C4.98829 6.64513 4.96333 6.66511 4.94031 6.68821C4.77318 6.85584 4.76999 7.12533 4.93058 7.29686Z" fill="#F7F9FA"/>
<zoom style="disable" value="|:#6E7680|:#6E7680"/>
</svg>
