<svg width="32" height="32" viewBox="0 0 32 32" fill="none" xmlns="http://www.w3.org/2000/svg">
<rect width="32" height="32" rx="16" fill="#F1F4F6"/>
<path d="M10.3496 15.9996C10.3496 16.1683 10.4089 16.3118 10.5273 16.4303C10.6504 16.5488 10.7939 16.608 10.958 16.608H15.3809V21.0309C15.3809 21.1949 15.4401 21.3362 15.5586 21.4547C15.6771 21.5778 15.8206 21.6393 15.9893 21.6393C16.1579 21.6393 16.3014 21.5778 16.4199 21.4547C16.543 21.3362 16.6045 21.1949 16.6045 21.0309V16.608H21.0205C21.1846 16.608 21.3258 16.5488 21.4443 16.4303C21.5674 16.3118 21.6289 16.1683 21.6289 15.9996C21.6289 15.831 21.5674 15.6875 21.4443 15.569C21.3258 15.4459 21.1846 15.3844 21.0205 15.3844H16.6045V10.9684C16.6045 10.8043 16.543 10.663 16.4199 10.5446C16.3014 10.4215 16.1579 10.36 15.9893 10.36C15.8206 10.36 15.6771 10.4215 15.5586 10.5446C15.4401 10.663 15.3809 10.8043 15.3809 10.9684V15.3844H10.958C10.7939 15.3844 10.6504 15.4459 10.5273 15.569C10.4089 15.6875 10.3496 15.831 10.3496 15.9996Z" fill="#C5C8CD"/>
<zoom style="dark" value="|:#27282B"/>
</svg>
