<svg width="40" height="40" viewBox="0 0 40 40" fill="none" xmlns="http://www.w3.org/2000/svg">
<rect width="40" height="40" rx="10" fill="#F1F4F6"/>
<path fill-rule="evenodd" clip-rule="evenodd" d="M18.7841 13.0628L15.246 17.9278L13.3592 16.4183C13.0357 16.1596 12.5638 16.212 12.305 16.5354C12.0462 16.8589 12.0987 17.3309 12.4221 17.5896L14.9221 19.5896C15.0821 19.7176 15.2875 19.7746 15.4906 19.7473C15.6936 19.72 15.8767 19.6108 15.9972 19.4451L19.9972 13.9451C20.2408 13.6101 20.1668 13.141 19.8318 12.8974C19.4968 12.6538 19.0277 12.7278 18.7841 13.0628ZM21.5002 14.2495C21.086 14.2495 20.7502 14.5853 20.7502 14.9995C20.7502 15.4137 21.086 15.7495 21.5002 15.7495H27.0002C27.4144 15.7495 27.7502 15.4137 27.7502 14.9995C27.7502 14.5853 27.4144 14.2495 27.0002 14.2495H21.5002ZM21.5002 17.7495C21.086 17.7495 20.7502 18.0853 20.7502 18.4995C20.7502 18.9137 21.086 19.2495 21.5002 19.2495H27.0002C27.4144 19.2495 27.7502 18.9137 27.7502 18.4995C27.7502 18.0853 27.4144 17.7495 27.0002 17.7495H21.5002ZM21.5002 21.2495C21.086 21.2495 20.7502 21.5853 20.7502 21.9995C20.7502 22.4137 21.086 22.7495 21.5002 22.7495H27.0002C27.4144 22.7495 27.7502 22.4137 27.7502 21.9995C27.7502 21.5853 27.4144 21.2495 27.0002 21.2495H21.5002ZM21.5002 24.7495C21.086 24.7495 20.7502 25.0853 20.7502 25.4995C20.7502 25.9137 21.086 26.2495 21.5002 26.2495H27.0002C27.4144 26.2495 27.7502 25.9137 27.7502 25.4995C27.7502 25.0853 27.4144 24.7495 27.0002 24.7495H21.5002ZM19.9972 20.9451C20.2408 20.6101 20.1668 20.141 19.8318 19.8974C19.4968 19.6538 19.0277 19.7278 18.7841 20.0628L15.246 24.9277L13.3592 23.4183C13.0357 23.1596 12.5638 23.212 12.305 23.5354C12.0462 23.8589 12.0987 24.3309 12.4221 24.5896L14.9221 26.5896C15.0821 26.7176 15.2875 26.7746 15.4906 26.7473C15.6936 26.72 15.8767 26.6108 15.9972 26.4451L19.9972 20.9451Z" fill="#131619"/>
<zoom  style="dark" value="|:#252A30|:#FFFFFF"/>
</svg>
