<svg width="24" height="24" viewBox="0 0 24 24" fill="none" xmlns="http://www.w3.org/2000/svg">
<path d="M7.49686 6.87814C7.326 6.70729 7.049 6.70729 6.87814 6.87814C6.70729 7.049 6.70729 7.326 6.87814 7.49686L11.3813 12L6.87814 16.5031C6.70729 16.674 6.70729 16.951 6.87814 17.1219C7.049 17.2927 7.326 17.2927 7.49686 17.1219L12 12.6187L16.5031 17.1219C16.674 17.2927 16.951 17.2927 17.1219 17.1219C17.2927 16.951 17.2927 16.674 17.1219 16.5031L12.6187 12L17.1219 7.49686C17.2927 7.326 17.2927 7.049 17.1219 6.87814C16.951 6.70729 16.674 6.70729 16.5031 6.87814L12 11.3813L7.49686 6.87814Z" fill="#131619"/>
</svg>
