<svg width="16" height="16" viewBox="0 0 16 16" fill="none" xmlns="http://www.w3.org/2000/svg">
<path d="M1.5 2.85714C1.5 1.55533 2.55533 0.5 3.85714 0.5H11.8571C13.159 0.5 14.2143 1.55533 14.2143 2.85714V13.1429C14.2143 14.4447 13.159 15.5 11.8571 15.5H3.85714C2.55533 15.5 1.5 14.4447 1.5 13.1429V2.85714ZM5.05015 3.43994C4.47025 3.43994 4.00015 3.91004 4.00015 4.48994C4.00015 5.06984 4.47025 5.53994 5.05015 5.53994H9.95015C10.5301 5.53994 11.0002 5.06984 11.0002 4.48994C11.0002 3.91004 10.5301 3.43994 9.95015 3.43994H5.05015ZM5.05012 10.2404C4.47022 10.2404 4.00012 10.7105 4.00012 11.2904C4.00012 11.8703 4.47022 12.3404 5.05012 12.3404H8.95012C9.53002 12.3404 10.0001 11.8703 10.0001 11.2904C10.0001 10.7105 9.53002 10.2404 8.95012 10.2404H5.05012ZM5.05012 6.84033C4.47022 6.84033 4.00012 7.31043 4.00012 7.89033C4.00012 8.47023 4.47022 8.94033 5.05012 8.94033H10.9501C11.53 8.94033 12.0001 8.47023 12.0001 7.89033C12.0001 7.31043 11.53 6.84033 10.9501 6.84033H5.05012Z" fill="white" stroke="white"/>
</svg>
