<svg width="16" height="16" viewBox="0 0 16 16" fill="none" xmlns="http://www.w3.org/2000/svg">
<path d="M10.8528 7.64564C10.6572 7.45075 10.3407 7.45141 10.1459 7.6471L8.49946 9.3009L8.49951 3.50002C8.49951 3.22387 8.27566 3.00001 7.99952 3.00001C7.72337 3.00001 7.49951 3.22386 7.49951 3.50001L7.49946 9.29216L5.85367 7.64637C5.6584 7.45111 5.34186 7.45115 5.14664 7.64645C4.95142 7.84176 4.95146 8.15837 5.14672 8.35364L7.64672 10.8536C7.73136 10.9383 7.83879 10.9862 7.94924 10.9975L4.50036 10.995C4.22421 10.9948 4.0002 11.2185 4 11.4947C3.9998 11.7708 4.2235 11.9948 4.49964 11.995L11.4996 12C11.7758 12.0002 11.9998 11.7765 12 11.5004C12.0002 11.2242 11.7765 11.0002 11.5004 11L8.06029 10.9976C8.17181 10.9867 8.28036 10.9384 8.36561 10.8527L10.8543 8.35287C11.0491 8.15717 11.0485 7.84053 10.8528 7.64564Z" fill="#F7F9FA"/>
<path fill-rule="evenodd" clip-rule="evenodd" d="M16 8C16 3.58172 12.4183 0 8 0C3.58172 0 0 3.58172 0 8C0 12.4183 3.58172 16 8 16C12.4183 16 16 12.4183 16 8ZM15 8C15 4.13401 11.866 1 8 1C4.13401 1 1 4.13401 1 8C1 11.866 4.13401 15 8 15C11.866 15 15 11.866 15 8Z" fill="#F7F9FA"/>
</svg>
