<svg width="16" height="16" viewBox="0 0 16 16" fill="none" xmlns="http://www.w3.org/2000/svg">
<path fill-rule="evenodd" clip-rule="evenodd" d="M0 8.00049C0 3.58221 3.58172 0.000488281 8 0.000488281C12.4183 0.000488281 16 3.58221 16 8.00049C16 12.4188 12.4183 16.0005 8 16.0005C3.58172 16.0005 0 12.4188 0 8.00049ZM11.0103 4.64693C11.2056 4.8422 11.2056 5.15878 11.0103 5.35404L8.53523 7.8291L11.0103 10.3042C11.2056 10.4994 11.2056 10.816 11.0103 11.0113C10.815 11.2065 10.4984 11.2065 10.3032 11.0113L7.82812 8.53621L5.35344 11.0109C5.15818 11.2062 4.84159 11.2062 4.64633 11.0109C4.45107 10.8156 4.45107 10.4991 4.64633 10.3038L7.12102 7.8291L4.64633 5.35441C4.45107 5.15915 4.45107 4.84257 4.64633 4.64731C4.84159 4.45204 5.15818 4.45205 5.35344 4.64731L7.82812 7.12199L10.3032 4.64693C10.4984 4.45167 10.815 4.45167 11.0103 4.64693Z" fill="#DE2828"/>
</svg>
