<svg width="131" height="111" viewBox="0 0 131 111" fill="none" xmlns="http://www.w3.org/2000/svg"><g clip-path="url(#a)"><rect x="1" y="1" width="112" height="92" rx="4" fill="#131619" stroke="#4793F1" stroke-width="2" stroke-linecap="round" stroke-dasharray="11 6"/><rect x="48" y="63" width="82" height="47" rx="5" fill="#222" stroke="#4793F1" stroke-width="2"/><path d="M106.089 109.179H72.031c-.573-12.054 6.994-16.915 11.137-17.769 5.295 2.946 9.702 1.228 11.854 0 10.169 2.562 11.632 13.429 11.067 17.769Z" fill="#444B53"/><path d="M99.703 80.685c0 6.454-4.77 11.686-10.653 11.686-5.884 0-10.653-5.232-10.653-11.686C78.397 74.232 83.166 69 89.05 69c1.874 0 3.635.53 5.165 1.463.484.295 2.744-.663 4.681 1.418.571.828.807 1.12.807 4.482v4.322Z" fill="#444B53"/><path d="M83.069 92.112c5.29 2.832 9.738 1.263 12.043.008 4.688 1.266 7.384 4.4 8.861 7.774 1.38 3.155 1.679 6.494 1.517 8.62H72.671c-.262-10.999 6.56-15.49 10.398-16.401Zm15.97-15.749h.664-.664v4.323c0 6.146-4.529 11.022-9.99 11.022-5.46 0-9.989-4.876-9.989-11.022s4.53-11.02 9.99-11.02a9.22 9.22 0 0 1 4.82 1.365c.207.126.435.149.57.156.151.009.32.001.472-.006l.105-.006c.294-.015.605-.032.95-.009.734.049 1.594.275 2.41 1.135.261.377.39.569.488 1.014.113.518.174 1.365.174 3.05Z" stroke="#fff" stroke-opacity=".09" stroke-width="1.328"/><path fill-rule="evenodd" clip-rule="evenodd" d="M71.036 58.253c.763-.542 2.488-.797 3.186.042.595.715 1.287 2.004 1.226 1.706-.133-.663-.595-2.05-.508-2.862.063-.593.334-1.207.885-1.546.462-.286 1.04-.498 1.591-.53.584-.035 1.27.203 1.588.52.934.928 1.548 3.18 1.546 3.05-.015-.51-.458-2.203-.25-2.93.138-.483.668-1.022.987-1.172.495-.231 1.127-.43 1.7-.47.462-.032 1.197.33 1.425.54.55.503 1.227 2.162 1.454 2.748.095.242-.055-.729.17-1.438.414-1.32 2.895-2.22 3.654.23.356 1.143.331 1.093.54 1.87.243.911.37 1.468.498 2.142.135.719.412 2.358.398 3.191-.01.572-.192 1.903-.498 2.753 0 0-1.305 2.717-1.246 3.765.06 1.05.13 1.038.276 1.752.149.716.651 1.573.651 1.573s-1.366.563-2.163.644c-.72.076-1.944-1.07-2.277-1.43-.459-.498-1.077-.213-1.215.282-.215.782-.746 2.225-1.328 2.463-1.142.465-3.616 1.025-5.537 1.521 0 0-.152-1.873-1.043-2.291-.662-.315-1.838-.992-2.523-1.331l-1.905-1.233c-.67-.502-2.21-1.167-3.135-2.918-.82-1.552-1-2.373-.772-3.144.229-.782.904-1.357 1.212-1.508.348-.172 1.204-.396 1.575-.304.452.111.628.132 1.047.46.551.433.767.657.433.112-.258-.426-.85-.898-1.225-1.508-.364-.586-1.155-1.475-1.394-2.515-.09-.394-.183-1.41.977-2.234Z" fill="#fff" stroke="#fff" stroke-width="1.35" stroke-linejoin="round"/></g><defs><clipPath id="a"><path fill="#fff" d="M0 0h131v111H0z"/></clipPath></defs></svg>