<svg width="17" height="16" viewBox="0 0 17 16" fill="none" xmlns="http://www.w3.org/2000/svg">
<path d="M5 1C5 0.447715 4.55228 0 4 0H1.5C0.947715 0 0.5 0.447715 0.5 1V3.5C0.5 4.05228 0.947715 4.5 1.5 4.5H4C4.55228 4.5 5 4.05228 5 3.5V1Z" fill="#F7F9FA"/>
<path d="M10.75 1C10.75 0.447715 10.3023 0 9.75 0H7.25C6.69772 0 6.25 0.447715 6.25 1V3.5C6.25 4.05228 6.69772 4.5 7.25 4.5H9.75C10.3023 4.5 10.75 4.05228 10.75 3.5V1Z" fill="#F7F9FA"/>
<path d="M12 1C12 0.447715 12.4477 0 13 0H15.5C16.0523 0 16.5 0.447715 16.5 1V3.5C16.5 4.05228 16.0523 4.5 15.5 4.5H13C12.4477 4.5 12 4.05228 12 3.5V1Z" fill="#F7F9FA"/>
<path d="M16.5 6.5C16.5 5.94772 16.0523 5.5 15.5 5.5H1.5C0.947715 5.5 0.5 5.94772 0.5 6.5V15C0.5 15.5523 0.947715 16 1.5 16H15.5C16.0523 16 16.5 15.5523 16.5 15V6.5Z" fill="#F7F9FA"/>
</svg>
