<svg width="40" height="40" viewBox="0 0 40 40" fill="none" xmlns="http://www.w3.org/2000/svg">
<rect width="40" height="40" rx="10" fill="#F1F4F6"/>
<path d="M17.75 14.25C17.75 13.5596 18.3096 13 19 13H21C21.6904 13 22.25 13.5596 22.25 14.25V25.75C22.25 26.4404 21.6904 27 21 27H19C18.3096 27 17.75 26.4404 17.75 25.75V14.25Z" fill="#131619"/>
<path d="M12 21.25C12 20.5596 12.5596 20 13.25 20H15.25C15.9404 20 16.5 20.5596 16.5 21.25V25.75C16.5 26.4404 15.9404 27 15.25 27H13.25C12.5596 27 12 26.4404 12 25.75V21.25Z" fill="#131619"/>
<path d="M24.75 16C24.0596 16 23.5 16.5596 23.5 17.25V25.75C23.5 26.4404 24.0596 27 24.75 27H26.75C27.4404 27 28 26.4404 28 25.75V17.25C28 16.5596 27.4404 16 26.75 16H24.75Z" fill="#131619"/>
<zoom  style="dark" value="|:#252A30|:#FFFFFF|:#FFFFFF|:#FFFFFF"/>
</svg>
