<svg width="32" height="32" viewBox="0 0 32 32" fill="none" xmlns="http://www.w3.org/2000/svg">
<rect width="32" height="32" rx="16" fill="#0E72ED"/>
<path fill-rule="evenodd" clip-rule="evenodd" d="M20.2778 16.7786V19C20.2778 19.9818 19.4818 20.7778 18.5 20.7778H13.5C12.5182 20.7778 11.7222 19.9818 11.7222 19V14C11.7222 13.0182 12.5182 12.2222 13.5 12.2222H16.1917L17.4139 11H13.5C11.8431 11 10.5 12.3431 10.5 14V19C10.5 20.6569 11.8431 22 13.5 22H18.5C20.1569 22 21.5 20.6569 21.5 19V15.5564L20.2778 16.7786Z" fill="#F5F5F5"/>
<path d="M20.8813 10.4844C21.0766 10.2892 21.3932 10.2892 21.5884 10.4844L22.2955 11.1915C22.4908 11.3868 22.4908 11.7034 22.2955 11.8986L17.6658 16.5284C17.6283 16.5659 17.5774 16.5869 17.5244 16.5869L16.393 16.5869C16.2825 16.5869 16.193 16.4974 16.193 16.3869L16.193 15.2556C16.193 15.2025 16.2141 15.1517 16.2516 15.1142L20.8813 10.4844Z" fill="#F5F5F5"/>
</svg>
