<svg width="16" height="16" viewBox="0 0 16 16" fill="none" xmlns="http://www.w3.org/2000/svg">
<path fill-rule="evenodd" clip-rule="evenodd" d="M8 10C6.9 10 6 9.1 6 8V3C6 1.9 6.9 1 8 1C9.1 1 10 1.9 10 3V8C10 9.1 9.1 10 8 10ZM11 3C11 1.34 9.66 0 8 0C6.34 0 5 1.34 5 3V8C5 9.66 6.34 11 8 11C9.66 11 11 9.66 11 8V3ZM3.01 8.1C3 8.07 3 8.03 3 8C3 7.72 3.22 7.5 3.5 7.5C3.78 7.5 4 7.72 4 8C4 10.21 5.79 12 8 12C10.21 12 12 10.21 12 8C12 7.72 12.22 7.5 12.5 7.5C12.78 7.5 13 7.72 13 8C13 8.03 13 8.07 12.99 8.1C12.95 10.64 11 12.72 8.5 12.97V15H10.5C10.78 15 11 15.22 11 15.5C11 15.78 10.78 16 10.5 16H5.5C5.22 16 5 15.78 5 15.5C5 15.22 5.22 15 5.5 15H7.5V12.97C5 12.72 3.05 10.64 3.01 8.1Z" fill="white"/>
</svg>
