<svg width="16" height="16" viewBox="0 0 16 16" fill="none" xmlns="http://www.w3.org/2000/svg">
<path d="M6.43019 3.4069C6.63324 3.06885 6.75 2.67306 6.75 2.25C6.75 1.00736 5.74264 0 4.5 0C3.25736 0 2.25 1.00736 2.25 2.25C2.25 3.49264 3.25736 4.5 4.5 4.5C4.74644 4.5 4.98362 4.46038 5.20553 4.38716C5.5348 3.97661 5.95269 3.64018 6.43019 3.4069Z" fill="#F7F9FA"/>
<path d="M10.793 4.38668C10.4641 3.97678 10.0469 3.6408 9.57026 3.40764C9.36693 3.06943 9.25 2.67337 9.25 2.25C9.25 1.00736 10.2574 0 11.5 0C12.7426 0 13.75 1.00736 13.75 2.25C13.75 3.49264 12.7426 4.5 11.5 4.5C11.253 4.5 11.0153 4.46021 10.793 4.38668Z" fill="#F7F9FA"/>
<path d="M5.49279 5.84343C5.41589 6.09031 5.37447 6.35282 5.37447 6.62501C5.37447 8.07476 6.54972 9.25001 7.99946 9.25001C8.0251 9.25001 8.05064 9.24964 8.0761 9.24891C9.49065 9.20863 10.625 8.04928 10.625 6.625C10.625 5.17525 9.44974 4 8 4C6.82241 4 5.82543 4.77535 5.49279 5.84343Z" fill="#F7F9FA"/>
<path d="M4.51886 5.78573L4.5 5.78571C1.8 5.78571 0 6.99454 0 8.48571C0 9.47982 0.805888 10.2857 1.8 10.2857H4.90421C5.40616 10.1079 5.95439 9.97604 6.53925 9.89415C5.29021 9.33539 4.41992 8.08184 4.41992 6.62501C4.41992 6.33597 4.45418 6.05493 4.51886 5.78573Z" fill="#F7F9FA"/>
<path d="M9.45967 9.89415C10.0445 9.97604 10.5928 10.1079 11.0947 10.2857H14.2C15.1941 10.2857 16 9.47982 16 8.48571C16 6.99454 14.2 5.78571 11.5 5.78571L11.4801 5.78573C11.5447 6.05493 11.579 6.33597 11.579 6.62501C11.579 8.08184 10.7087 9.33539 9.45967 9.89415Z" fill="#F7F9FA"/>
<path d="M2.75 13.9C2.75 12.1603 4.85 10.75 7.99999 10.75C11.15 10.75 13.25 12.1603 13.25 13.9C13.25 15.0598 12.3098 16 11.15 16H4.85C3.6902 16 2.75 15.0598 2.75 13.9Z" fill="#F7F9FA"/>
</svg>
