<svg width="14" height="14" viewBox="0 0 14 14" fill="none" xmlns="http://www.w3.org/2000/svg">
<path d="M10.3719 0.128141C10.201 -0.0427136 9.92404 -0.0427136 9.75318 0.128141C9.58233 0.298995 9.58233 0.576005 9.75318 0.746859L12.5063 3.49999H0.43754C0.195916 3.49999 4.00543e-05 3.69586 4.00543e-05 3.93749C4.00543e-05 4.17911 0.195916 4.37499 0.43754 4.37499H12.5063L9.75318 7.12814C9.58233 7.299 9.58233 7.576 9.75318 7.74686C9.92404 7.91771 10.201 7.91771 10.3719 7.74686L13.8689 4.24982C13.9499 4.17043 14.0001 4.05982 14.0001 3.93749C14.0001 3.81462 13.9494 3.70359 13.8679 3.62412L10.3719 0.128141Z" fill="#FFFFFF"/>
<path d="M3.62818 6.25315C3.79904 6.08229 4.07604 6.08229 4.2469 6.25315C4.41775 6.424 4.41775 6.70101 4.2469 6.87186L1.49377 9.62499H13.5625C13.8042 9.62499 14 9.82087 14 10.0625C14 10.3041 13.8042 10.5 13.5625 10.5H1.49375L4.2469 13.2531C4.41775 13.424 4.41775 13.701 4.2469 13.8719C4.07604 14.0427 3.79904 14.0427 3.62818 13.8719L0.131144 10.3748C0.0502081 10.2954 0 10.1848 0 10.0625C0 9.93963 0.050647 9.82859 0.132203 9.74912L3.62818 6.25315Z" fill="#FFFFFF"/>
<zoom style="disable" value="|:#6E7680|:#6E7680"/>
</svg>
