<svg width="16" height="16" viewBox="0 0 16 16" fill="none" xmlns="http://www.w3.org/2000/svg">
<path d="M6.10122 5.59648V5.59598L9.46022 7.60798L11.4617 6.76548C11.8685 6.58976 12.3071 6.4994 12.7502 6.49998C12.8242 6.49998 12.8972 6.50348 12.9697 6.50798C12.7292 5.56961 12.2212 4.72132 11.5076 4.06622C10.794 3.41112 9.90544 2.97742 8.94995 2.81785C7.99447 2.65828 7.01321 2.7797 6.12544 3.16735C5.23768 3.55501 4.48164 4.1922 3.94922 5.00148L4.00022 4.99998C4.74247 4.99901 5.47021 5.20563 6.10122 5.59648Z" fill="#0364B8"/>
<path d="M6.10099 5.59599C5.46978 5.20522 4.74186 4.99878 3.99949 4.99999L3.94849 5.00149C3.22199 5.01058 2.5117 5.21744 1.89393 5.59986C1.27616 5.98227 0.77426 6.52578 0.442158 7.17199C0.110056 7.81821 -0.0396972 8.54269 0.00898847 9.26761C0.0576742 9.99253 0.302959 10.6905 0.718488 11.2865L3.67949 10.04L4.99649 9.48599L7.92799 8.25199L9.45899 7.60799L6.10099 5.59599Z" fill="#0078D4"/>
<path d="M12.9704 6.508C12.8974 6.50289 12.8242 6.50022 12.7509 6.5C12.3079 6.49964 11.8696 6.59017 11.4629 6.766L9.46094 7.608L10.0414 7.9555L11.9439 9.095L12.7739 9.592L15.6124 11.292C15.8704 10.8133 16.004 10.2774 16.0012 9.73365C15.9983 9.18986 15.8591 8.65547 15.5962 8.17944C15.3333 7.7034 14.9552 7.30095 14.4964 7.00893C14.0377 6.71692 13.513 6.54468 12.9704 6.508Z" fill="#1490DF"/>
<path d="M12.7738 9.59199L11.9438 9.09499L10.0413 7.95499L9.46125 7.60799L7.92975 8.25199L4.99825 9.48599L3.68075 10.04L0.71875 11.2865C1.08691 11.8158 1.57772 12.2481 2.14924 12.5464C2.72077 12.8448 3.35602 13.0004 4.00075 13H12.7508C13.3375 13.0002 13.9133 12.8415 14.4172 12.5408C14.921 12.2401 15.334 11.8085 15.6123 11.292L12.7738 9.59199Z" fill="#28A8EA"/>
</svg>
