<svg width="16" height="16" viewBox="0 0 16 16" fill="none" xmlns="http://www.w3.org/2000/svg">
<path d="M7.54804 9.05701C10.0491 9.05701 12.0765 7.02953 12.0765 4.52851C12.0765 2.02748 10.0491 0 7.54804 0C5.04701 0 3.01953 2.02748 3.01953 4.52851C3.01953 7.02953 5.04701 9.05701 7.54804 9.05701Z" fill="#036C70"/>
<path d="M12.0748 12.6793C14.2423 12.6793 15.9993 10.9222 15.9993 8.75483C15.9993 6.58741 14.2423 4.83038 12.0748 4.83038C9.90743 4.83038 8.15039 6.58741 8.15039 8.75483C8.15039 10.9222 9.90743 12.6793 12.0748 12.6793Z" fill="#1A9BA1"/>
<path d="M8.15077 15.3965C9.98474 15.3965 11.4715 13.9098 11.4715 12.0758C11.4715 10.2418 9.98474 8.75512 8.15077 8.75512C6.3168 8.75512 4.83008 10.2418 4.83008 12.0758C4.83008 13.9098 6.3168 15.3965 8.15077 15.3965Z" fill="#37C6D0"/>
<path opacity="0.2" d="M8.44294 4.45193V12.1198C8.44358 12.1589 8.43967 12.198 8.43129 12.2362C8.40479 12.3937 8.32322 12.5366 8.20112 12.6395C8.07902 12.7424 7.92433 12.7986 7.76465 12.7981H4.90886C4.88848 12.702 4.87102 12.6059 4.85937 12.5069C4.84474 12.4105 4.83599 12.3133 4.83317 12.2158C4.83026 12.1693 4.83026 12.1227 4.83026 12.0761C4.83034 11.4194 5.02506 10.7774 5.38983 10.2313C5.7546 9.68515 6.27305 9.2594 6.87967 9.0078C5.80635 8.84708 4.82637 8.30646 4.11796 7.48426C3.40956 6.66206 3.01979 5.61291 3.01956 4.52762C3.0187 4.2749 3.04014 4.0226 3.0836 3.77364H7.76465C7.85377 3.77349 7.94204 3.79093 8.0244 3.82496C8.10676 3.859 8.1816 3.90895 8.24461 3.97197C8.30763 4.03498 8.35758 4.10982 8.39162 4.19218C8.42565 4.27454 8.44309 4.36281 8.44294 4.45193Z" fill="black"/>
<path opacity="0.1" d="M8.73405 4.45193V11.5375C8.73162 11.7939 8.6287 12.0391 8.44743 12.2203C8.26616 12.4016 8.021 12.5045 7.76465 12.5069H4.85937C4.84474 12.4105 4.83599 12.3133 4.83317 12.2158C4.83026 12.1693 4.83026 12.1227 4.83026 12.0761C4.83034 11.4194 5.02506 10.7774 5.38983 10.2313C5.7546 9.68515 6.27305 9.2594 6.87967 9.0078C5.80635 8.84708 4.82637 8.30646 4.11796 7.48426C3.40956 6.66206 3.01979 5.61291 3.01956 4.52762C3.0187 4.2749 3.04014 4.0226 3.0836 3.77365C3.09816 3.67467 3.11853 3.5786 3.14182 3.48254H7.76465C8.02147 3.48346 8.2675 3.58589 8.4491 3.76748C8.6307 3.94908 8.73312 4.19512 8.73405 4.45193Z" fill="black"/>
<path opacity="0.2" d="M8.44293 4.45193V11.5375C8.44308 11.6267 8.42564 11.7149 8.39161 11.7973C8.35758 11.8797 8.30762 11.9545 8.24461 12.0175C8.18159 12.0805 8.10676 12.1305 8.02439 12.1645C7.94203 12.1985 7.85376 12.216 7.76465 12.2158H4.83317C4.83026 12.1693 4.83026 12.1227 4.83026 12.0761C4.83033 11.4194 5.02506 10.7774 5.38983 10.2313C5.75459 9.68515 6.27304 9.2594 6.87967 9.0078C5.80635 8.84708 4.82637 8.30646 4.11796 7.48426C3.40956 6.66206 3.01979 5.61291 3.01956 4.52762C3.0187 4.2749 3.04014 4.0226 3.0836 3.77364H7.76465C7.85376 3.77349 7.94203 3.79093 8.02439 3.82496C8.10676 3.859 8.18159 3.90895 8.24461 3.97197C8.30762 4.03498 8.35758 4.10982 8.39161 4.19218C8.42564 4.27454 8.44308 4.36281 8.44293 4.45193Z" fill="black"/>
<path opacity="0.1" d="M8.15182 4.45193V11.5375C8.15197 11.6267 8.13454 11.7149 8.1005 11.7973C8.06647 11.8797 8.01651 11.9545 7.9535 12.0175C7.89048 12.0805 7.81565 12.1305 7.73329 12.1645C7.65092 12.1985 7.56265 12.216 7.47354 12.2158H4.83317C4.83026 12.1693 4.83026 12.1227 4.83026 12.0761C4.83033 11.4194 5.02506 10.7774 5.38983 10.2313C5.75459 9.68515 6.27304 9.2594 6.87967 9.0078C5.80635 8.84708 4.82637 8.30646 4.11796 7.48426C3.40956 6.66206 3.01979 5.61291 3.01956 4.52762C3.0187 4.2749 3.04014 4.0226 3.0836 3.77364H7.47354C7.56265 3.77349 7.65092 3.79093 7.73329 3.82496C7.81565 3.859 7.89048 3.90895 7.9535 3.97197C8.01651 4.03498 8.06647 4.10982 8.1005 4.19218C8.13454 4.27454 8.15197 4.36281 8.15182 4.45193Z" fill="black"/>
<path d="M7.47192 3.77364H0.67916C0.30407 3.77364 0 4.07771 0 4.4528V11.2456C0 11.6207 0.30407 11.9247 0.67916 11.9247H7.47192C7.84701 11.9247 8.15108 11.6207 8.15108 11.2456V4.4528C8.15108 4.07771 7.84701 3.77364 7.47192 3.77364Z" fill="#038387"/>
<path d="M3.01972 7.8754C2.87089 7.77683 2.74661 7.64548 2.65642 7.49142C2.56874 7.33045 2.52506 7.14921 2.52978 6.96597C2.5221 6.71802 2.60581 6.47589 2.765 6.28564C2.93231 6.09525 3.14857 5.9543 3.3903 5.87809C3.66589 5.78723 3.95455 5.74238 4.24471 5.74534C4.62621 5.73136 5.00719 5.78477 5.37014 5.90313V6.69786C5.21231 6.60216 5.04039 6.53192 4.8607 6.48971C4.6659 6.44175 4.46599 6.41771 4.26538 6.4181C4.05397 6.4105 3.84393 6.45498 3.65376 6.54764C3.58187 6.57861 3.5206 6.62991 3.47746 6.69523C3.43433 6.76054 3.41122 6.83704 3.41097 6.91531C3.41004 7.01222 3.4469 7.10568 3.51373 7.17586C3.59314 7.25821 3.68698 7.3253 3.79058 7.37381C3.90664 7.43145 4.07985 7.50792 4.31021 7.60321C4.33566 7.61125 4.36047 7.62118 4.38444 7.6329C4.61157 7.72177 4.8307 7.82988 5.03944 7.95603C5.19759 8.05354 5.33029 8.18725 5.42662 8.34612C5.52578 8.52579 5.57409 8.72909 5.56635 8.93416C5.57758 9.18866 5.49975 9.43911 5.34627 9.64243C5.19291 9.82943 4.98789 9.96712 4.75677 10.0383C4.48522 10.1236 4.20179 10.1649 3.91721 10.1606C3.66233 10.1617 3.40783 10.1407 3.15654 10.098C2.94405 10.0641 2.73657 10.0041 2.53881 9.91928V9.07972C2.72813 9.21477 2.93967 9.31557 3.16382 9.37752C3.38666 9.44698 3.61833 9.48404 3.85171 9.48756C4.06777 9.50131 4.28346 9.4555 4.47527 9.35511C4.54067 9.31755 4.59471 9.26302 4.63166 9.19727C4.66861 9.13152 4.68709 9.05701 4.68516 8.98161C4.68557 8.92853 4.67537 8.87591 4.65518 8.82682C4.63498 8.77773 4.60519 8.73317 4.56755 8.69574C4.47279 8.60283 4.36319 8.52638 4.24326 8.46955C4.10527 8.40007 3.9013 8.30876 3.63134 8.19562C3.41725 8.10944 3.21227 8.00217 3.01943 7.8754H3.01972Z" fill="white"/>
</svg>
