<svg width="144" height="127" viewBox="0 0 144 127" fill="none" xmlns="http://www.w3.org/2000/svg">
<path fill-rule="evenodd" clip-rule="evenodd" d="M89.9843 18.5825C84.0581 17.5319 78.0416 17 71.9994 17C58.0933 17 44.3239 19.8173 31.4757 25.2909C20.7611 29.8565 10.863 36.1946 2.16776 44.0405C-0.703395 46.6312 -0.688943 51.1548 2.01194 53.9325C4.71251 56.7099 9.07455 56.6869 11.9699 54.1256C19.3638 47.5848 27.7325 42.2843 36.7692 38.434C47.9395 33.6741 59.911 31.2247 72.0002 31.2247C75.4296 31.2247 78.8495 31.4218 82.2442 31.8127L89.9843 18.5825ZM93.2732 33.7873L100.708 21.0792C104.715 22.2401 108.661 23.6455 112.523 25.2909C123.238 29.8568 133.137 36.1954 141.833 44.042C144.703 46.6321 144.689 51.1543 141.989 53.9317C139.289 56.7094 134.927 56.6868 132.032 54.1255C124.638 47.5845 116.269 42.2835 107.232 38.4332C102.696 36.5005 98.0279 34.9488 93.2732 33.7873ZM74.2761 45.4328C73.5179 45.4101 72.7589 45.3988 71.9994 45.3988C61.7192 45.3988 51.5392 47.4819 42.0404 51.528C34.6756 54.666 27.8331 58.937 21.742 64.1833C18.8143 66.7049 18.8325 71.2352 21.5326 74.0126C24.2327 76.7899 28.5894 76.7556 31.563 74.2915C36.338 70.3347 41.6466 67.0912 47.3331 64.6687C53.2356 62.1541 59.4583 60.5603 65.795 59.9298L74.2761 45.4328ZM77.9914 59.9088L85.7479 46.6505C91.2931 47.6682 96.7286 49.3009 101.958 51.5288C109.322 54.6662 116.165 58.9371 122.257 64.1834C125.184 66.7049 125.166 71.2352 122.466 74.0126C119.766 76.7899 115.409 76.7556 112.436 74.2916C107.661 70.3353 102.353 67.0919 96.6664 64.6695C90.6975 62.1254 84.4017 60.5243 77.9914 59.9088ZM56.1136 76.4783C54.9367 76.8783 53.7728 77.3233 52.6242 77.8126C48.6089 79.5235 44.8332 81.7555 41.3865 84.4471C38.3571 86.8128 38.3812 91.3433 41.0707 94.1098C42.0828 95.1508 43.3275 95.7907 44.654 96.0665L56.1136 76.4783ZM60.4256 89.9345L69.8076 73.8976C70.5368 73.8652 71.2673 73.849 71.9986 73.8491C78.6464 73.8491 85.2299 75.1956 91.3714 77.8126C95.3878 79.5236 99.1637 81.7554 102.611 84.4471C105.64 86.8128 105.616 91.3433 102.926 94.1098C100.237 96.8763 95.9037 96.8099 92.7613 94.6056C90.6756 93.1426 88.4444 91.9006 86.101 90.9025C81.6293 88.9976 76.8374 88.0174 71.9978 88.0166C68.0601 88.0166 64.1534 88.6657 60.4256 89.9345ZM80.8084 104.047C85.4209 106.012 85.4147 112.124 81.8845 115.755L78.5102 119.226C74.9142 122.925 69.0839 122.925 65.488 119.226L62.1137 115.755C58.5834 112.124 58.5772 106.012 63.1897 104.047C65.9826 102.857 68.9761 102.245 71.9991 102.245C75.0221 102.245 78.0155 102.857 80.8084 104.047Z" fill="#DE2828"/>
<path fill-rule="evenodd" clip-rule="evenodd" d="M110.022 1.55314C107.943 0.362369 105.28 1.07582 104.075 3.14668L36.1758 119.807C34.9705 121.878 35.679 124.522 37.7582 125.713C39.8374 126.904 42.5001 126.19 43.7053 124.12L111.604 7.45885C112.81 5.388 112.101 2.74392 110.022 1.55314Z" fill="#DE2828"/>
</svg>
