<svg width="24" height="24" viewBox="0 0 24 24" fill="none" xmlns="http://www.w3.org/2000/svg">
<path d="M9.75 9.28409C9.75 8.11325 10.7354 7.125 12 7.125C13.2646 7.125 14.25 8.11325 14.25 9.28409C14.25 10.0877 13.7907 10.8004 13.0892 11.1739C12.3128 11.5872 11.25 12.4178 11.25 13.6932V13.875C11.25 14.2892 11.5858 14.625 12 14.625C12.4142 14.625 12.75 14.2892 12.75 13.875V13.6932C12.75 13.3117 13.1078 12.8632 13.794 12.498C14.9501 11.8825 15.75 10.6805 15.75 9.28409C15.75 7.24164 14.0491 5.625 12 5.625C9.95085 5.625 8.25 7.24164 8.25 9.28409C8.25 9.6983 8.58579 10.0341 9 10.0341C9.41421 10.0341 9.75 9.6983 9.75 9.28409Z" fill="white"/>
<path d="M13.125 17.25C13.125 17.8713 12.6213 18.375 12 18.375C11.3787 18.375 10.875 17.8713 10.875 17.25C10.875 16.6287 11.3787 16.125 12 16.125C12.6213 16.125 13.125 16.6287 13.125 17.25Z" fill="white"/>
<path fill-rule="evenodd" clip-rule="evenodd" d="M24 12C24 18.6274 18.6274 24 12 24C5.37258 24 0 18.6274 0 12C0 5.37258 5.37258 0 12 0C18.6274 0 24 5.37258 24 12ZM22.5 12C22.5 17.799 17.799 22.5 12 22.5C6.20101 22.5 1.5 17.799 1.5 12C1.5 6.20101 6.20101 1.5 12 1.5C17.799 1.5 22.5 6.20101 22.5 12Z" fill="white"/>
</svg>
