<svg width="16" height="16" viewBox="0 0 16 16" fill="none" xmlns="http://www.w3.org/2000/svg">
<path d="M10.4966 3.38416C9.71819 3.14386 8.88121 3 8.00195 3C3.43052 3 0.00195313 6.88889 0.00195313 8C0.00195313 8.60421 1.0158 10.0298 2.67595 11.2048L3.39438 10.4864C3.22346 10.3699 3.05905 10.2498 2.90161 10.1273C2.2504 9.62082 1.74269 9.09226 1.40745 8.64781C1.23934 8.42494 1.12587 8.23812 1.05874 8.09908C1.03818 8.05648 1.02452 8.02367 1.01556 8C1.02452 7.97633 1.03818 7.94352 1.05874 7.90092C1.12587 7.76188 1.23934 7.57506 1.40745 7.35219C1.74269 6.90774 2.2504 6.37918 2.90161 5.87269C4.21001 4.85504 5.99983 4 8.00195 4C8.58207 4 9.14436 4.07178 9.68227 4.19851L10.4966 3.38416Z" fill="white"/>
<path d="M9.17822 4.70257C8.8106 4.57142 8.41462 4.5 8.00195 4.5C6.06896 4.5 4.50195 6.067 4.50195 8C4.50195 8.41266 4.57337 8.80865 4.70452 9.17626L5.52682 8.35396C5.51043 8.23833 5.50195 8.12016 5.50195 8C5.50195 6.61929 6.62124 5.5 8.00195 5.5C8.12211 5.5 8.24029 5.50848 8.35592 5.52487L9.17822 4.70257Z" fill="white"/>
<path fill-rule="evenodd" clip-rule="evenodd" d="M0.141067 15.1539L14.4414 0.853553C14.4439 0.85108 14.4464 0.848588 14.4488 0.846076L15.1484 0.146447C15.3437 -0.0488155 15.6602 -0.0488155 15.8555 0.146447C16.0508 0.341709 16.0508 0.658291 15.8555 0.853553L12.4647 4.24434C14.63 5.48276 16.002 7.29714 16.002 8C16.002 9.11111 12.5734 13 8.00195 13C6.72095 13 5.52969 12.6946 4.47847 12.2306L0.855507 15.8536C0.660244 16.0488 0.343662 16.0488 0.1484 15.8536C-0.0443866 15.6608 -0.046831 15.3497 0.141067 15.1539ZM11.729 4.98003L10.8051 5.90391C11.2428 6.4882 11.502 7.21383 11.502 8C11.502 9.933 9.93495 11.5 8.00195 11.5C7.21579 11.5 6.49016 11.2408 5.90587 10.8032L5.24346 11.4656C6.09088 11.7947 7.02093 12 8.00195 12C10.0041 12 11.7939 11.145 13.1023 10.1273C13.7535 9.62082 14.2612 9.09226 14.5965 8.64781C14.7646 8.42494 14.878 8.23812 14.9452 8.09908C14.9657 8.05648 14.9794 8.02367 14.9883 8C14.9794 7.97633 14.9657 7.94352 14.9452 7.90092C14.878 7.76188 14.7646 7.57506 14.5965 7.35219C14.2612 6.90774 13.7535 6.37918 13.1023 5.87269C12.6896 5.55171 12.2291 5.24692 11.729 4.98003ZM10.0878 6.6213L6.62326 10.0858C7.01847 10.3476 7.49241 10.5 8.00195 10.5C9.38267 10.5 10.502 9.38071 10.502 8C10.502 7.49046 10.3495 7.01652 10.0878 6.6213Z" fill="white"/>
</svg>
