<svg width="24" height="24" viewBox="0 0 24 24" fill="none" xmlns="http://www.w3.org/2000/svg">
<path d="M7.10889 20.3486H9.44678C9.89111 20.3486 10.2295 20.2324 10.4619 20C10.6943 19.7676 10.8105 19.4258 10.8105 18.9746V5.00879C10.8105 4.54395 10.6943 4.20215 10.4619 3.9834C10.2295 3.75781 9.89111 3.64502 9.44678 3.64502H7.10889C6.65771 3.64502 6.31592 3.76123 6.0835 3.99365C5.85791 4.22607 5.74512 4.56445 5.74512 5.00879V18.9746C5.74512 19.4258 5.85791 19.7676 6.0835 20C6.31592 20.2324 6.65771 20.3486 7.10889 20.3486ZM14.5635 20.3486H16.8911C17.3423 20.3486 17.6807 20.2324 17.9062 20C18.1387 19.7676 18.2549 19.4258 18.2549 18.9746V5.00879C18.2549 4.54395 18.1387 4.20215 17.9062 3.9834C17.6807 3.75781 17.3423 3.64502 16.8911 3.64502H14.5635C14.1123 3.64502 13.7705 3.76123 13.5381 3.99365C13.3057 4.22607 13.1895 4.56445 13.1895 5.00879V18.9746C13.1895 19.4258 13.3057 19.7676 13.5381 20C13.7705 20.2324 14.1123 20.3486 14.5635 20.3486Z" fill="white"/>
</svg>
