<svg width="24" height="24" viewBox="0 0 24 24" fill="none" xmlns="http://www.w3.org/2000/svg">
<path d="M11.4802 10.8091H9.8213C9.75817 10.3824 9.57638 10.0478 9.27591 9.80545C8.97544 9.56053 8.60049 9.43807 8.15105 9.43807C7.55012 9.43807 7.06786 9.65901 6.70427 10.1009C6.3432 10.5402 6.16267 11.1639 6.16267 11.9718C6.16267 12.8 6.34446 13.43 6.70805 13.8618C7.07417 14.291 7.55138 14.5056 8.13969 14.5056C8.57651 14.5056 8.94641 14.392 9.2494 14.1647C9.55239 13.935 9.74303 13.6131 9.8213 13.199L11.4802 13.2065C11.4221 13.6812 11.2529 14.1281 10.9727 14.5473C10.6924 14.9664 10.3111 15.306 9.82887 15.5661C9.34914 15.8262 8.77724 15.9562 8.11318 15.9562C7.42135 15.9562 6.80274 15.7996 6.25735 15.4866C5.71449 15.1735 5.28525 14.7202 4.96964 14.1269C4.65655 13.5335 4.5 12.8152 4.5 11.9718C4.5 11.126 4.65907 10.4064 4.97721 9.81303C5.29535 9.21967 5.72712 8.7677 6.2725 8.45714C6.81789 8.14405 7.43145 7.9875 8.11318 7.9875C8.71159 7.9875 9.25066 8.0986 9.7304 8.32079C10.2127 8.54046 10.6066 8.86113 10.9121 9.28279C11.2201 9.70193 11.4095 10.2107 11.4802 10.8091Z" fill="white"/>
<path d="M19.5 10.8091H17.8411C17.778 10.3824 17.5962 10.0478 17.2957 9.80545C16.9953 9.56053 16.6203 9.43807 16.1709 9.43807C15.5699 9.43807 15.0877 9.65901 14.7241 10.1009C14.363 10.5402 14.1825 11.1639 14.1825 11.9718C14.1825 12.8 14.3643 13.43 14.7279 13.8618C15.094 14.291 15.5712 14.5056 16.1595 14.5056C16.5963 14.5056 16.9662 14.392 17.2692 14.1647C17.5722 13.935 17.7628 13.6131 17.8411 13.199L19.5 13.2065C19.4419 13.6812 19.2728 14.1281 18.9925 14.5473C18.7122 14.9664 18.331 15.306 17.8487 15.5661C17.369 15.8262 16.7971 15.9562 16.133 15.9562C15.4412 15.9562 14.8226 15.7996 14.2772 15.4866C13.7343 15.1735 13.3051 14.7202 12.9895 14.1269C12.6764 13.5335 12.5198 12.8152 12.5198 11.9718C12.5198 11.126 12.6789 10.4064 12.997 9.81303C13.3152 9.21967 13.7469 8.7677 14.2923 8.45714C14.8377 8.14405 15.4513 7.9875 16.133 7.9875C16.7314 7.9875 17.2705 8.0986 17.7502 8.32079C18.2325 8.54046 18.6264 8.86113 18.9319 9.28279C19.2399 9.70193 19.4293 10.2107 19.5 10.8091Z" fill="white"/>
<path fill-rule="evenodd" clip-rule="evenodd" d="M16.8 4.5H7.2C5.91513 4.5 5.04169 4.50117 4.36656 4.55633C3.70893 4.61006 3.37263 4.70745 3.13803 4.82698C2.57354 5.1146 2.1146 5.57354 1.82698 6.13803C1.70745 6.37263 1.61006 6.70893 1.55633 7.36656C1.50117 8.04169 1.5 8.91513 1.5 10.2V13.8C1.5 15.0849 1.50117 15.9583 1.55633 16.6334C1.61006 17.2911 1.70745 17.6274 1.82698 17.862C2.1146 18.4265 2.57354 18.8854 3.13803 19.173C3.37263 19.2926 3.70893 19.3899 4.36656 19.4437C5.04169 19.4988 5.91513 19.5 7.2 19.5H16.8C18.0849 19.5 18.9583 19.4988 19.6334 19.4437C20.2911 19.3899 20.6274 19.2926 20.862 19.173C21.4265 18.8854 21.8854 18.4265 22.173 17.862C22.2926 17.6274 22.3899 17.2911 22.4437 16.6334C22.4988 15.9583 22.5 15.0849 22.5 13.8V10.2C22.5 8.91513 22.4988 8.04169 22.4437 7.36656C22.3899 6.70893 22.2926 6.37263 22.173 6.13803C21.8854 5.57354 21.4265 5.1146 20.862 4.82698C20.6274 4.70745 20.2911 4.61006 19.6334 4.55633C18.9583 4.50117 18.0849 4.5 16.8 4.5ZM0.490471 5.45704C0 6.41965 0 7.67976 0 10.2V13.8C0 16.3202 0 17.5804 0.490471 18.543C0.921901 19.3897 1.61031 20.0781 2.45704 20.5095C3.41965 21 4.67976 21 7.2 21H16.8C19.3202 21 20.5804 21 21.543 20.5095C22.3897 20.0781 23.0781 19.3897 23.5095 18.543C24 17.5804 24 16.3202 24 13.8V10.2C24 7.67976 24 6.41965 23.5095 5.45704C23.0781 4.61031 22.3897 3.9219 21.543 3.49047C20.5804 3 19.3202 3 16.8 3H7.2C4.67976 3 3.41965 3 2.45704 3.49047C1.61031 3.9219 0.921901 4.61031 0.490471 5.45704Z" fill="white"/>
</svg>
