<svg width="24" height="24" viewBox="0 0 24 24" fill="none" xmlns="http://www.w3.org/2000/svg">
<path d="M10.474 24C5.76013 24 2.71326 20.7319 2.71326 15.6738V6.375C2.71326 5.13427 3.72253 4.125 4.96326 4.125C5.22546 4.125 5.47888 4.1704 5.71326 4.25391V3.75C5.71326 2.50927 6.72253 1.5 7.96326 1.5C8.25622 1.5 8.53602 1.55566 8.79235 1.6582C9.0531 0.703125 9.92761 0 10.9633 0C11.9989 0 12.8734 0.703125 13.1342 1.6582C13.3905 1.55566 13.6703 1.5 13.9633 1.5C15.204 1.5 16.2133 2.50927 16.2133 3.75V13.1675L17.224 11.3555C17.8832 10.1748 19.1547 10.0195 20.0717 10.4736C20.9872 10.9277 21.6303 12.0366 21.0883 13.2744L18.9393 18.1772C17.1742 22.2041 14.5638 24 10.474 24ZM4.96326 5.625C4.55017 5.625 4.21326 5.96192 4.21326 6.375V15.6738C4.21326 19.8838 6.61267 22.5 10.474 22.5C13.931 22.5 16.0521 21.0264 17.5653 17.5737L19.7142 12.6709C19.9486 12.1377 19.5355 11.8814 19.4037 11.8169C19.2719 11.751 18.8207 11.5752 18.5336 12.0864L17.5228 13.897C17.1844 14.5049 16.5077 14.7935 15.8353 14.6192C15.1644 14.4434 14.7133 13.8604 14.7133 13.1675V3.75C14.7133 3.33692 14.3763 3 13.9633 3C13.5502 3 13.2133 3.33692 13.2133 3.75V11.9106C13.2133 12.3252 12.8778 12.6606 12.4633 12.6606C12.0487 12.6606 11.7133 12.3252 11.7133 11.9106V2.25C11.7133 1.83692 11.3763 1.5 10.9633 1.5C10.5502 1.5 10.2133 1.83692 10.2133 2.25V11.9985C10.2133 12.4131 9.87781 12.7485 9.46326 12.7485C9.0487 12.7485 8.71326 12.4131 8.71326 11.9985V3.75C8.71326 3.33692 8.37634 3 7.96326 3C7.55017 3 7.21326 3.33692 7.21326 3.75V12.375C7.21326 12.7896 6.87781 13.125 6.46326 13.125C6.0487 13.125 5.71326 12.7896 5.71326 12.375V6.375C5.71326 5.96192 5.37634 5.625 4.96326 5.625Z" fill="white"/>
</svg>
