<svg width="24" height="24" viewBox="0 0 24 24" fill="none" xmlns="http://www.w3.org/2000/svg">
<path d="M19.3125 0.507058C19.3769 0.332934 19.6232 0.332934 19.6876 0.507058L20.0771 1.55978C20.4823 2.65466 21.3455 3.5179 22.4404 3.92304L23.4931 4.31259C23.6673 4.37702 23.6673 4.62329 23.4931 4.68773L22.4404 5.07727C21.3455 5.48241 20.4823 6.34565 20.0771 7.44053L19.6876 8.49326C19.6232 8.66738 19.3769 8.66738 19.3125 8.49326L18.9229 7.44053C18.5178 6.34565 17.6545 5.48241 16.5597 5.07727L15.5069 4.68773C15.3328 4.62329 15.3328 4.37702 15.5069 4.31259L16.5597 3.92304C17.6545 3.5179 18.5178 2.65466 18.9229 1.55978L19.3125 0.507058Z" fill="#FFD647"/>
<path fill-rule="evenodd" clip-rule="evenodd" d="M9.96681 4.96797C8.85268 7.97888 6.47876 10.3528 3.46785 11.4669L1.26728 12.2812C0.831969 12.4423 0.831969 13.058 1.26728 13.2191L3.46785 14.0334C6.47876 15.1475 8.85268 17.5214 9.96681 20.5323L10.7811 22.7329C10.9422 23.1682 11.5579 23.1682 11.719 22.7329L12.5332 20.5323C13.6474 17.5214 16.0213 15.1475 19.0322 14.0334L21.2328 13.2191C21.6681 13.058 21.6681 12.4423 21.2328 12.2812L19.0322 11.4669C16.0213 10.3528 13.6474 7.97888 12.5332 4.96797L11.719 2.7674C11.5579 2.33209 10.9422 2.33209 10.7811 2.7674L9.96681 4.96797ZM11.25 5.80889C9.97987 8.97207 7.47195 11.48 4.30877 12.7501C7.47195 14.0203 9.97987 16.5282 11.25 19.6914C12.5202 16.5282 15.0281 14.0203 18.1913 12.7501C15.0281 11.48 12.5202 8.97207 11.25 5.80889Z" fill="#FFD647"/>
</svg>
