<svg width="24" height="24" viewBox="0 0 24 24" fill="none" xmlns="http://www.w3.org/2000/svg">
<path d="M12 5.25C10.4507 5.25 9.89294 6.27298 9.68278 6.73535C9.51137 7.11244 9.06675 7.27917 8.68967 7.10778C8.31256 6.93637 8.14582 6.49174 8.31723 6.11465C8.60706 5.47702 9.54928 3.75 12 3.75C13.33 3.75 14.3042 4.24889 14.9288 5.02759C15.5315 5.77901 15.75 6.71615 15.75 7.525C15.75 8.77833 15.2127 9.64593 14.5047 10.2219C13.9344 10.6859 13.2696 10.9484 12.75 11.113V12.75C12.75 13.1642 12.4142 13.5 12 13.5C11.5858 13.5 11.25 13.1642 11.25 12.75V10.8358C11.25 10.3268 11.5894 9.89037 12.0666 9.75255C12.575 9.60571 13.1319 9.40507 13.5581 9.05836C13.9501 8.73944 14.25 8.28473 14.25 7.525C14.25 6.95885 14.0935 6.38349 13.7587 5.96616C13.4459 5.57611 12.92 5.25 12 5.25Z" fill="white"/>
<path d="M12.75 15.75C12.75 16.1642 12.4142 16.5 12 16.5C11.5858 16.5 11.25 16.1642 11.25 15.75C11.25 15.3358 11.5858 15 12 15C12.4142 15 12.75 15.3358 12.75 15.75Z" fill="white"/>
<path fill-rule="evenodd" clip-rule="evenodd" d="M4.5 19.5V23.25L9.85714 19.5H21C22.2426 19.5 23.25 18.4926 23.25 17.25V3C23.25 1.75736 22.2426 0.75 21 0.75H3C1.75736 0.75 0.75 1.75736 0.75 3V17.25C0.75 18.4926 1.75736 19.5 3 19.5H4.5ZM6 20.369V18H3C2.58579 18 2.25 17.6642 2.25 17.25V3C2.25 2.58579 2.58579 2.25 3 2.25H21C21.4142 2.25 21.75 2.58579 21.75 3V17.25C21.75 17.6642 21.4142 18 21 18H9.38431L6 20.369Z" fill="white"/>
</svg>
