<svg width="14" height="14" viewBox="0 0 14 14" fill="none" xmlns="http://www.w3.org/2000/svg">
<path fill-rule="evenodd" clip-rule="evenodd" d="M12.8583 3.49644L10.5036 1.14172C10.1479 0.786094 9.57135 0.786093 9.21573 1.14172L1.57499 8.78245C1.43567 8.92178 1.34529 9.10253 1.31743 9.29759L0.882047 12.3453C0.817655 12.796 1.20401 13.1823 1.65475 13.118L4.70241 12.6826C4.89747 12.6547 5.07822 12.5643 5.21755 12.425L12.8583 4.78427C13.2139 4.42865 13.2139 3.85206 12.8583 3.49644ZM12.2396 4.11516C12.2535 4.12907 12.2535 4.15164 12.2396 4.16555L11.0088 5.39629L8.60371 2.99117L9.83445 1.76044C9.84836 1.74652 9.87093 1.74652 9.88484 1.76044L12.2396 4.11516ZM7.36628 4.22861L9.77139 6.63372L4.59883 11.8063C4.59338 11.8117 4.5863 11.8153 4.57867 11.8164L1.78446 12.2155L2.18363 9.42133C2.18472 9.4137 2.18826 9.40662 2.19371 9.40117L7.36628 4.22861Z" fill="#000001"/>
<zoom style="dark" value="|:#FFFFFF89"/>
<zoom style="hover" value="|:#222230"/>
<zoom style="hover_dark" value="|:#F5F5F5"/>
</svg>
