<svg width="24" height="24" viewBox="0 0 24 24" fill="none" xmlns="http://www.w3.org/2000/svg">
<path fill-rule="evenodd" clip-rule="evenodd" d="M10.5 1.5C9.46447 1.5 8.625 2.33947 8.625 3.375V20.625C8.625 21.6605 9.46447 22.5 10.5 22.5H13.5C14.5355 22.5 15.375 21.6605 15.375 20.625V3.375C15.375 2.33947 14.5355 1.5 13.5 1.5H10.5ZM13.5 3H10.5C10.2929 3 10.125 3.16789 10.125 3.375V20.625C10.125 20.8321 10.2929 21 10.5 21H13.5C13.7071 21 13.875 20.8321 13.875 20.625V3.375C13.875 3.16789 13.7071 3 13.5 3Z" fill="white"/>
<path fill-rule="evenodd" clip-rule="evenodd" d="M1.875 12C0.839466 12 0 12.8395 0 13.875V20.625C0 21.6605 0.839466 22.5 1.875 22.5H4.875C5.91053 22.5 6.75 21.6605 6.75 20.625V13.875C6.75 12.8395 5.91053 12 4.875 12H1.875ZM4.875 13.5H1.875C1.66789 13.5 1.5 13.6679 1.5 13.875V20.625C1.5 20.8321 1.66789 21 1.875 21H4.875C5.08211 21 5.25 20.8321 5.25 20.625V13.875C5.25 13.6679 5.08211 13.5 4.875 13.5Z" fill="white"/>
<path fill-rule="evenodd" clip-rule="evenodd" d="M17.25 7.875C17.25 6.83947 18.0895 6 19.125 6H22.125C23.1605 6 24 6.83947 24 7.875V20.625C24 21.6605 23.1605 22.5 22.125 22.5H19.125C18.0895 22.5 17.25 21.6605 17.25 20.625V7.875ZM19.125 7.5H22.125C22.3321 7.5 22.5 7.66789 22.5 7.875V20.625C22.5 20.8321 22.3321 21 22.125 21H19.125C18.9179 21 18.75 20.8321 18.75 20.625V7.875C18.75 7.66789 18.9179 7.5 19.125 7.5Z" fill="white"/>
</svg>
