<svg width="24" height="24" viewBox="0 0 24 24" fill="none" xmlns="http://www.w3.org/2000/svg">
<path d="M7.40611 3C8.02651 3 8.53125 3.50476 8.53125 4.12516V5.66251C8.53125 5.96296 8.41426 6.24572 8.20171 6.45827L6.82457 7.8354C6.10832 8.55195 5.89218 9.61006 6.27438 10.5318C7.61508 13.7627 10.2374 16.385 13.4691 17.7263C13.7643 17.8485 14.0769 17.9106 14.398 17.9106C15.0537 17.9106 15.6978 17.6427 16.1649 17.1755L17.5422 15.798C17.7513 15.5889 18.0408 15.4689 18.3369 15.4689H19.8752C20.4956 15.4689 21.0002 15.9735 21.0002 16.5939V18.5627C21.0002 19.9067 19.8966 21 18.5358 21C9.96946 20.9856 3.00018 14.0043 3.00018 5.43766C3.00018 4.09366 4.09367 3.00016 5.43782 3.00016L7.40611 3ZM7.40611 1.5L5.4375 1.50016C3.2628 1.50016 1.5 3.26296 1.5 5.43766C1.5 14.8511 9.12332 22.4841 18.533 22.5H18.5397C20.7174 22.5 22.4999 20.7411 22.4999 18.5627V16.5939C22.4999 15.144 21.3245 13.9689 19.8749 13.9689H18.3366C17.6406 13.9689 16.973 14.2454 16.481 14.7377L15.1038 16.115C14.9141 16.3047 14.6573 16.4106 14.3978 16.4106C14.2778 16.4106 14.1574 16.388 14.043 16.3404C11.1589 15.1434 8.85614 12.8408 7.65944 9.95686C7.50929 9.59461 7.60772 9.17356 7.88507 8.89606L9.26221 7.51877C9.75436 7.02647 10.0311 6.35866 10.0311 5.66251V4.12516C10.0314 2.67526 8.85601 1.5 7.40611 1.5Z" fill="white"/>
</svg>
