<svg width="24" height="24" viewBox="0 0 24 24" fill="none" xmlns="http://www.w3.org/2000/svg">
<path d="M12 4.5C11.1716 4.5 10.5 5.17157 10.5 6V10.5C10.5 11.3284 11.1716 12 12 12C12.8284 12 13.5 11.3284 13.5 10.5V6C13.5 5.17157 12.8284 4.5 12 4.5Z" fill="white"/>
<path fill-rule="evenodd" clip-rule="evenodd" d="M3 6.31579C3 2.82767 5.82768 0 9.31579 0H14.6842C18.1723 0 21 2.82768 21 6.31579V15C21 19.9706 16.9706 24 12 24C7.02944 24 3 19.9706 3 15V6.31579ZM9.31579 1.5H14.6842C17.3439 1.5 19.5 3.6561 19.5 6.31579V15C19.5 19.1421 16.1421 22.5 12 22.5C7.85786 22.5 4.5 19.1421 4.5 15V6.31579C4.5 3.6561 6.6561 1.5 9.31579 1.5Z" fill="white"/>
</svg>
