<svg width="20" height="20" viewBox="0 0 20 20" fill="none" xmlns="http://www.w3.org/2000/svg">
<path d="M3.75 7.5C3.75 5.77411 5.14911 4.375 6.875 4.375H13.125C14.8509 4.375 16.25 5.77411 16.25 7.5V7.86612L14.8169 6.43306C14.5729 6.18898 14.1771 6.18898 13.9331 6.43306C13.689 6.67714 13.689 7.07286 13.9331 7.31694L16.4331 9.81694C16.493 9.87686 16.562 9.92208 16.6358 9.95258C16.7084 9.98268 16.7879 9.9995 16.8713 9.99999L16.875 10L16.8787 9.99999C16.9621 9.9995 17.0416 9.98268 17.1142 9.95258C17.188 9.92208 17.257 9.87686 17.3169 9.81694L19.8169 7.31694C20.061 7.07286 20.061 6.67714 19.8169 6.43306C19.5729 6.18898 19.1771 6.18898 18.9331 6.43306L17.5 7.86612V7.5C17.5 5.08375 15.5412 3.125 13.125 3.125H6.875C4.45875 3.125 2.5 5.08375 2.5 7.5V8.125C2.5 8.47018 2.77982 8.75 3.125 8.75C3.47018 8.75 3.75 8.47018 3.75 8.125V7.5Z" fill="white"/>
<path d="M3.75 12.1339L5.18306 13.5669C5.42714 13.811 5.82286 13.811 6.06694 13.5669C6.31102 13.3229 6.31102 12.9271 6.06694 12.6831L3.56694 10.1831C3.32286 9.93898 2.92714 9.93898 2.68306 10.1831L0.183059 12.6831C-0.0610195 12.9271 -0.0610195 13.3229 0.183059 13.5669C0.427136 13.811 0.822864 13.811 1.06694 13.5669L2.5 12.1339V12.5C2.5 14.9162 4.45875 16.875 6.875 16.875H13.125C15.5412 16.875 17.5 14.9162 17.5 12.5V11.875C17.5 11.5298 17.2202 11.25 16.875 11.25C16.5298 11.25 16.25 11.5298 16.25 11.875V12.5C16.25 14.2259 14.8509 15.625 13.125 15.625H6.875C5.14911 15.625 3.75 14.2259 3.75 12.5V12.1339Z" fill="white"/>
</svg>
