<svg width="24" height="24" viewBox="0 0 24 24" fill="none" xmlns="http://www.w3.org/2000/svg">
<path fill-rule="evenodd" clip-rule="evenodd" d="M15 4C14.4477 4 14 4.44772 14 5C14 5.55228 14.4477 6 15 6H16.5858L13.2929 9.29289C12.9024 9.68342 12.9024 10.3166 13.2929 10.7071C13.6834 11.0976 14.3166 11.0976 14.7071 10.7071L18 7.41421V9C18 9.55228 18.4477 10 19 10C19.5523 10 20 9.55228 20 9V5C20 4.44772 19.5523 4 19 4H15ZM10.7071 13.2929C10.3166 12.9024 9.68342 12.9024 9.29289 13.2929L6 16.5858V15C6 14.4477 5.55228 14 5 14C4.44772 14 4 14.4477 4 15V19C4 19.5523 4.44772 20 5 20H9C9.55228 20 10 19.5523 10 19C10 18.4477 9.55228 18 9 18H7.41421L10.7071 14.7071C11.0976 14.3166 11.0976 13.6834 10.7071 13.2929Z" fill="#DCDCDC"/>
</svg>
