<svg width="16" height="16" viewBox="0 0 16 16" fill="none" xmlns="http://www.w3.org/2000/svg">
<path fill-rule="evenodd" clip-rule="evenodd" d="M5.06002 7.42C6.55671 7.42 7.77002 6.20669 7.77002 4.71C7.77002 3.21331 6.55671 2 5.06002 2C3.56333 2 2.35002 3.21331 2.35002 4.71C2.35002 5.23514 2.49939 5.72539 2.75795 6.14059C1.70379 6.68251 1.04635 7.54266 0.644923 8.56716C0.202607 9.69601 0.0666292 11.0332 0.0219804 12.3833C-0.0243469 13.7843 1.12756 14.8999 2.50004 14.8999H9.61366C9.61581 14.8999 9.61796 14.8999 9.62011 14.8999L9.62405 14.8999H13.32C14.6985 14.8999 15.8277 13.7858 15.868 12.4149C15.8996 11.3378 15.9059 10.2754 15.656 9.36428C15.428 8.53283 14.9848 7.81895 14.1835 7.3101C14.4535 6.88871 14.6101 6.38764 14.6101 5.85001C14.6101 4.35332 13.3968 3.14001 11.9001 3.14001C10.4034 3.14001 9.19011 4.35332 9.19011 5.85001C9.19011 6.39209 9.34927 6.897 9.6234 7.32055C9.08809 7.70561 8.70304 8.28886 8.43822 8.9148C8.11688 9.67432 7.94713 10.554 7.90937 11.3847C7.8718 12.2113 7.96306 13.0311 8.19835 13.6654C8.22732 13.7435 8.25996 13.8221 8.29651 13.8999H2.50004C1.66339 13.8999 0.994747 13.2234 1.02143 12.4164C1.0653 11.0898 1.19868 9.89495 1.576 8.93198C1.93743 8.00955 2.51725 7.3108 3.47559 6.90881C3.92119 7.23046 4.46847 7.42 5.06002 7.42ZM9.61778 13.8999H13.32C14.1507 13.8999 14.8438 13.2228 14.8684 12.3855C14.9005 11.2922 14.8962 10.3749 14.6916 9.62877C14.5045 8.94665 14.1538 8.42095 13.477 8.05426C13.0328 8.37262 12.4883 8.56001 11.9001 8.56001C11.3127 8.56001 10.7689 8.37311 10.325 8.05552C9.94072 8.28273 9.6096 8.71256 9.35918 9.30444C9.0927 9.93431 8.94183 10.6934 8.90834 11.4301C8.87466 12.1711 8.96153 12.8475 9.13592 13.3176C9.32161 13.8182 9.52146 13.8987 9.61778 13.8999ZM6.77002 4.71C6.77002 5.65441 6.00443 6.42 5.06002 6.42C4.11561 6.42 3.35002 5.65441 3.35002 4.71C3.35002 3.76559 4.11561 3 5.06002 3C6.00443 3 6.77002 3.76559 6.77002 4.71ZM13.6101 5.85001C13.6101 6.79442 12.8445 7.56001 11.9001 7.56001C10.9557 7.56001 10.1901 6.79442 10.1901 5.85001C10.1901 4.90561 10.9557 4.14001 11.9001 4.14001C12.8445 4.14001 13.6101 4.90561 13.6101 5.85001Z" fill="white"/>
</svg>
