<svg width="24" height="24" viewBox="0 0 24 24" fill="none" xmlns="http://www.w3.org/2000/svg">
<path d="M4.72587 10.2852C4.71715 10.2765 4.7087 10.2676 4.7005 10.2586C4.42716 9.96447 4.43326 9.50405 4.71906 9.21738C4.74682 9.18954 4.77622 9.16433 4.80695 9.14177L7.71945 6.22009C8.01182 5.9268 8.48604 5.92661 8.77865 6.21967C9.07125 6.51274 9.07144 6.98807 8.77907 7.28137L6.31515 9.75304L8.78063 12.2186C9.07347 12.5114 9.07382 12.9865 8.78144 13.2798C8.48905 13.5731 8.01463 13.5734 7.7218 13.2806L4.7442 10.303L4.72587 10.2852Z" fill="white"/>
<path fill-rule="evenodd" clip-rule="evenodd" d="M0 4.5C0 2.84315 1.34315 1.5 3 1.5H21C22.6569 1.5 24 2.84315 24 4.5V15C24 16.6569 22.6569 18 21 18H13.5V21H18.75C19.1642 21 19.5 21.3358 19.5 21.75C19.5 22.1642 19.1642 22.5 18.75 22.5H5.25C4.83579 22.5 4.5 22.1642 4.5 21.75C4.5 21.3358 4.83579 21 5.25 21H10.5V18H3C1.34315 18 0 16.6569 0 15V4.5ZM3 3H12V16.5H3C2.17157 16.5 1.5 15.8284 1.5 15V4.5C1.5 3.67157 2.17157 3 3 3ZM19.3 10.2586C19.2918 10.2676 19.2834 10.2765 19.2746 10.2852L19.2563 10.303L16.2787 13.2806C15.9859 13.5734 15.5115 13.5731 15.2191 13.2798C14.9267 12.9865 14.927 12.5114 15.2199 12.2186L17.6854 9.75304L15.2214 7.28137C14.9291 6.98807 14.9293 6.51274 15.2219 6.21967C15.5145 5.92661 15.9887 5.9268 16.2811 6.22009L19.1936 9.14177C19.2243 9.16433 19.2537 9.18954 19.2814 9.21738C19.5672 9.50405 19.5733 9.96447 19.3 10.2586Z" fill="white"/>
</svg>
