<svg width="24" height="24" viewBox="0 0 24 24" fill="none" xmlns="http://www.w3.org/2000/svg">
<path d="M8.01653 11.9175C8.26307 11.6709 8.3079 11.2894 8.14389 10.9818C7.96669 10.6493 7.8049 10.3074 7.65944 9.95686C7.50929 9.59461 7.60772 9.17356 7.88507 8.89606L9.26221 7.51877C9.75436 7.02647 10.0311 6.35866 10.0311 5.66251V4.12516C10.0314 2.67526 8.85601 1.5 7.40611 1.5L5.4375 1.50016C3.2628 1.50016 1.5 3.26296 1.5 5.43766C1.5 8.78844 2.46593 11.9136 4.13452 14.55C4.38636 14.9479 4.93987 14.9941 5.27285 14.6611C5.53181 14.4022 5.56765 13.9965 5.37291 13.6863C3.87006 11.2928 3.00018 8.46419 3.00018 5.43766C3.00018 4.09366 4.09367 3.00016 5.43782 3.00016L7.40611 3C8.02651 3 8.53125 3.50476 8.53125 4.12516V5.66251C8.53125 5.96296 8.41426 6.24572 8.20171 6.45827L6.82457 7.8354C6.10832 8.55195 5.89218 9.61006 6.27438 10.5318C6.4506 10.9565 6.64895 11.3706 6.86791 11.7727C7.09998 12.1988 7.67342 12.2606 8.01653 11.9175Z" fill="white"/>
<path d="M9.7048 15.3507C9.39749 15.0756 9.39884 14.601 9.69048 14.3094C9.98212 14.0177 10.4535 14.0197 10.7629 14.2924C11.7285 15.1434 12.8348 15.8389 14.043 16.3404C14.1574 16.388 14.2778 16.4106 14.3978 16.4106C14.6573 16.4106 14.9141 16.3047 15.1038 16.115L16.481 14.7377C16.973 14.2454 17.6406 13.9689 18.3366 13.9689H19.8749C21.3245 13.9689 22.4999 15.144 22.4999 16.5939V18.5627C22.4999 20.7411 20.7174 22.5 18.5397 22.5H18.533C14.1043 22.4925 10.0714 20.7978 7.04264 18.0242C6.73523 17.7427 6.73634 17.2635 7.03107 16.9688C7.32582 16.674 7.80251 16.6755 8.11105 16.9558C10.8696 19.4615 14.5279 20.9933 18.5358 21C19.8966 21 21.0002 19.9067 21.0002 18.5627V16.5939C21.0002 15.9735 20.4956 15.4689 19.8752 15.4689H18.3369C18.0408 15.4689 17.7513 15.5889 17.5422 15.798L16.1649 17.1755C15.6978 17.6427 15.0537 17.9106 14.398 17.9106C14.0769 17.9106 13.7643 17.8485 13.4691 17.7263C12.0849 17.1518 10.8126 16.3423 9.7048 15.3507Z" fill="white"/>
<path fill-rule="evenodd" clip-rule="evenodd" d="M23.4723 0.527728C24.0092 1.0647 24.0092 1.9353 23.4723 2.47227L2.47227 23.4723C1.9353 24.0092 1.0647 24.0092 0.527728 23.4723C-0.00924274 22.9353 -0.00924274 22.0647 0.527728 21.5277L21.5277 0.527728C22.0647 -0.00924274 22.9353 -0.00924274 23.4723 0.527728Z" fill="#FF0055"/>
</svg>