<svg width="24" height="24" viewBox="0 0 24 24" fill="none" xmlns="http://www.w3.org/2000/svg">
<path fill-rule="evenodd" clip-rule="evenodd" d="M12 24C5.37258 24 0 18.6274 0 12C0 5.37258 5.37258 0 12 0C18.6274 0 24 5.37258 24 12C24 18.6274 18.6274 24 12 24ZM1.93482 15C1.65192 14.0494 1.5 13.0425 1.5 12C1.5 10.9575 1.65192 9.95056 1.93482 9H6.92371C6.81038 9.96956 6.75 10.9814 6.75 12.0162C6.75 13.0403 6.80913 14.041 6.92019 15H1.93482ZM2.51045 16.5C3.80635 19.2279 6.24389 21.3084 9.20565 22.1241C8.28641 20.7808 7.55936 18.8063 7.14186 16.5H2.51045ZM8.66804 16.5C8.91311 17.76 9.25493 18.8906 9.66366 19.8323C10.091 20.8167 10.5616 21.5259 11.0094 21.9672C11.4519 22.4033 11.7851 22.5 12 22.5C12.2149 22.5 12.5481 22.4033 12.9906 21.9672C13.4384 21.5259 13.909 20.8167 14.3363 19.8323C14.7451 18.8906 15.0869 17.76 15.332 16.5H8.66804ZM16.8581 16.5C16.4406 18.8063 15.7136 20.7808 14.7944 22.1241C17.7561 21.3084 20.1937 19.2279 21.4896 16.5H16.8581ZM22.0652 15H17.0798C17.1909 14.041 17.25 13.0403 17.25 12.0162C17.25 10.9814 17.1896 9.96956 17.0763 9H22.0652C22.3481 9.95056 22.5 10.9575 22.5 12C22.5 13.0425 22.3481 14.0494 22.0652 15ZM15.5692 15H8.43085C8.31373 14.0512 8.25 13.0497 8.25 12.0162C8.25 10.972 8.31507 9.95933 8.43457 9H15.5654C15.6849 9.95933 15.75 10.972 15.75 12.0162C15.75 13.0497 15.6863 14.0512 15.5692 15ZM7.14687 7.5H2.51045C3.80749 4.76965 6.24819 2.68789 9.21349 1.87375C8.29422 3.2179 7.56636 5.19419 7.14687 7.5ZM9.66447 4.18212C9.25821 5.12156 8.91811 6.24726 8.6733 7.5H15.3267C15.0819 6.24726 14.7418 5.12156 14.3355 4.18212C13.9078 3.19299 13.4365 2.47948 12.988 2.03529C12.5444 1.59592 12.2119 1.5 12 1.5C11.7881 1.5 11.4556 1.59592 11.012 2.03529C10.5635 2.47948 10.0922 3.19299 9.66447 4.18212ZM16.8531 7.5H21.4896C20.1925 4.76965 17.7518 2.68788 14.7865 1.87375C15.7058 3.2179 16.4336 5.19419 16.8531 7.5Z" fill="white"/>
</svg>
