<svg width="24" height="24" viewBox="0 0 24 24" fill="none" xmlns="http://www.w3.org/2000/svg">
<path d="M22.875 21V22.5C22.875 23.3284 22.2035 24 21.375 24H13.1926C12.7268 24 12.2674 23.8916 11.8509 23.6832L9.99682 22.7562C9.16773 22.3414 9.16773 21.1582 9.99691 20.7437L11.8509 19.8166C12.2675 19.6084 12.7268 19.5 13.1926 19.5H21.375C22.2035 19.5 22.875 20.1716 22.875 21ZM15 4.5H9C8.58544 4.5 8.25 4.83544 8.25 5.25C8.25 5.66456 8.58544 6 9 6H15C15.4146 6 15.75 5.66456 15.75 5.25C15.75 4.83544 15.4146 4.5 15 4.5ZM15 8.25H9C8.58544 8.25 8.25 8.58545 8.25 9C8.25 9.41455 8.58544 9.75 9 9.75H15C15.4146 9.75 15.75 9.41455 15.75 9C15.75 8.58545 15.4146 8.25 15 8.25ZM12.75 12.75C12.75 12.3354 12.4146 12 12 12H9C8.58544 12 8.25 12.3354 8.25 12.75C8.25 13.1646 8.58544 13.5 9 13.5H12C12.4146 13.5 12.75 13.1646 12.75 12.75ZM7.125 21H6C4.96609 21 4.125 20.1588 4.125 19.125V18H4.5C4.91456 18 5.25 17.6646 5.25 17.25C5.25 16.8354 4.91456 16.5 4.5 16.5H4.125V15H4.5C4.91456 15 5.25 14.6646 5.25 14.25C5.25 13.8354 4.91456 13.5 4.5 13.5H4.125V12H4.5C4.91456 12 5.25 11.6646 5.25 11.25C5.25 10.8354 4.91456 10.5 4.5 10.5H4.125V9H4.5C4.91456 9 5.25 8.66455 5.25 8.25C5.25 7.83544 4.91456 7.5 4.5 7.5H4.125V6H4.5C4.91456 6 5.25 5.66456 5.25 5.25C5.25 4.83544 4.91456 4.5 4.5 4.5H4.125V3.375C4.125 2.34119 4.96609 1.5 6 1.5H16.875C17.9089 1.5 18.75 2.34119 18.75 3.375V17.25C18.75 17.6642 19.0858 18 19.5 18C19.9142 18 20.25 17.6642 20.25 17.25V3.375C20.25 1.51098 18.739 0 16.875 0H6C4.13598 0 2.625 1.51098 2.625 3.375V4.5H1.875C1.46045 4.5 1.125 4.83544 1.125 5.25C1.125 5.66456 1.46045 6 1.875 6H2.625V7.5H1.875C1.46045 7.5 1.125 7.83544 1.125 8.25C1.125 8.66455 1.46045 9 1.875 9H2.625V10.5H1.875C1.46045 10.5 1.125 10.8354 1.125 11.25C1.125 11.6646 1.46045 12 1.875 12H2.625V13.5H1.875C1.46045 13.5 1.125 13.8354 1.125 14.25C1.125 14.6646 1.46045 15 1.875 15H2.625V16.5H1.875C1.46045 16.5 1.125 16.8354 1.125 17.25C1.125 17.6646 1.46045 18 1.875 18H2.625V19.125C2.625 20.989 4.13598 22.5 6 22.5H7.125C7.53918 22.5 7.875 22.1642 7.875 21.75C7.875 21.3358 7.53918 21 7.125 21Z" fill="white"/>
</svg>
