<svg width="24" height="24" viewBox="0 0 24 24" fill="none" xmlns="http://www.w3.org/2000/svg">
<path d="M19.2 4.5H4.8C3.93517 4.5 3.37676 4.50117 2.95175 4.53589C2.54426 4.56918 2.39318 4.6257 2.31901 4.66349C2.03677 4.8073 1.8073 5.03677 1.66349 5.31901C1.6257 5.39318 1.56918 5.54426 1.53589 5.95175C1.50117 6.37676 1.5 6.93517 1.5 7.8V9.75C1.5 10.1642 1.16421 10.5 0.75 10.5C0.335786 10.5 0 10.1642 0 9.75V7.8C0 6.11984 0 5.27976 0.32698 4.63803C0.614601 4.07354 1.07354 3.6146 1.63803 3.32698C2.27976 3 3.11984 3 4.8 3H19.2C20.8802 3 21.7202 3 22.362 3.32698C22.9265 3.6146 23.3854 4.07354 23.673 4.63803C24 5.27976 24 6.11984 24 7.8V16.2C24 17.8802 24 18.7202 23.673 19.362C23.3854 19.9265 22.9265 20.3854 22.362 20.673C21.7202 21 20.8802 21 19.2 21H11.25C10.8358 21 10.5 20.6642 10.5 20.25C10.5 19.8358 10.8358 19.5 11.25 19.5H19.2C20.0648 19.5 20.6232 19.4988 21.0482 19.4641C21.4557 19.4308 21.6068 19.3743 21.681 19.3365C21.9632 19.1927 22.1927 18.9632 22.3365 18.681C22.3743 18.6068 22.4308 18.4557 22.4641 18.0482C22.4988 17.6232 22.5 17.0648 22.5 16.2V7.8C22.5 6.93517 22.4988 6.37676 22.4641 5.95175C22.4308 5.54426 22.3743 5.39318 22.3365 5.31901C22.1927 5.03677 21.9632 4.8073 21.681 4.66349C21.6068 4.6257 21.4557 4.56918 21.0482 4.53589C20.6232 4.50117 20.0648 4.5 19.2 4.5Z" fill="white"/>
<path d="M0.75 12C0.335786 12 0 12.3358 0 12.75C0 13.1642 0.335786 13.5 0.75 13.5C4.47792 13.5 7.5 16.5221 7.5 20.25C7.5 20.6642 7.83579 21 8.25 21C8.66421 21 9 20.6642 9 20.25C9 15.6937 5.30635 12 0.75 12Z" fill="white"/>
<path d="M1.5 21C2.32843 21 3 20.3284 3 19.5C3 18.6716 2.32843 18 1.5 18C0.671573 18 0 18.6716 0 19.5C0 20.3284 0.671573 21 1.5 21Z" fill="white"/>
<path d="M0 15.75C0 15.3358 0.335786 15 0.75 15C3.6495 15 6 17.3505 6 20.25C6 20.6642 5.66421 21 5.25 21C4.83579 21 4.5 20.6642 4.5 20.25C4.5 18.1789 2.82107 16.5 0.75 16.5C0.335786 16.5 0 16.1642 0 15.75Z" fill="white"/>
</svg>
