<svg width="24" height="24" viewBox="0 0 24 24" fill="none" xmlns="http://www.w3.org/2000/svg">
<path fill-rule="evenodd" clip-rule="evenodd" d="M0 1.5C0 0.671573 0.671573 0 1.5 0H22.5C23.3284 0 24 0.671573 24 1.5C24 2.32843 23.3284 3 22.5 3H1.5C0.671573 3 0 2.32843 0 1.5Z" fill="white"/>
<path fill-rule="evenodd" clip-rule="evenodd" d="M0 12C0 11.1716 0.671573 10.5 1.5 10.5H22.5C23.3284 10.5 24 11.1716 24 12C24 12.8284 23.3284 13.5 22.5 13.5H1.5C0.671573 13.5 0 12.8284 0 12Z" fill="white"/>
<path fill-rule="evenodd" clip-rule="evenodd" d="M0 22.5C0 21.6716 0.671573 21 1.5 21H22.5C23.3284 21 24 21.6716 24 22.5C24 23.3284 23.3284 24 22.5 24H1.5C0.671573 24 0 23.3284 0 22.5Z" fill="white"/>
</svg>
