<svg width="24" height="24" viewBox="0 0 24 24" fill="none" xmlns="http://www.w3.org/2000/svg">
<path d="M12.9759 17.5667L11.1219 18.4937C10.2927 18.9083 10.2927 20.0914 11.1219 20.5061L12.9759 21.4332C13.3925 21.6416 13.8519 21.75 14.3177 21.75H22.5C23.3284 21.75 24 21.0784 24 20.25V18.75C24 17.9215 23.3284 17.25 22.5 17.25H14.3175C13.8518 17.2499 13.3925 17.3583 12.9759 17.5667ZM24 5.25V14.999C24 15.4131 23.6642 15.749 23.25 15.749C22.8358 15.749 22.5 15.4131 22.5 14.999V5.25C22.5 4.4229 21.8271 3.75 21 3.75H3C2.1729 3.75 1.5 4.4229 1.5 5.25V17.25C1.5 18.0771 2.1729 18.75 3 18.75H8.25C8.66415 18.75 9 19.0858 9 19.5C9 19.9142 8.66415 20.25 8.25 20.25H3C1.3431 20.25 0 18.9069 0 17.25V5.25C0 3.5931 1.3431 2.25 3 2.25H21C22.6567 2.25 24 3.5931 24 5.25Z" fill="white"/>
</svg>
