<svg width="16" height="16" viewBox="0 0 16 16" fill="none" xmlns="http://www.w3.org/2000/svg">
<path fill-rule="evenodd" clip-rule="evenodd" d="M14.5 4.02002C14.5 2.63281 13.3706 1.51085 11.9834 1.52008L3.98338 1.57327C2.60918 1.58241 1.5 2.69899 1.5 4.07321V8.00001C1.5 9.38072 2.61929 10.5 4 10.5H5.5V13.0181L8.9624 10.5H12C13.3807 10.5 14.5 9.38072 14.5 8.00001V4.02002ZM11.9767 0.520099C13.9188 0.507185 15.5 2.07793 15.5 4.02002V8.00001C15.5 9.933 13.933 11.5 12 11.5H9.28758L4.5 14.9819V11.5H4C2.067 11.5 0.5 9.933 0.5 8.00001V4.07321C0.5 2.1493 2.05286 0.586088 3.97673 0.573295L11.9767 0.520099Z" fill="white"/>
</svg>
