<svg width="16" height="16" viewBox="0 0 16 16" fill="none" xmlns="http://www.w3.org/2000/svg">
<path fill-rule="evenodd" clip-rule="evenodd" d="M11.502 8C11.502 9.933 9.93495 11.5 8.00195 11.5C6.06896 11.5 4.50195 9.933 4.50195 8C4.50195 6.067 6.06896 4.5 8.00195 4.5C9.93495 4.5 11.502 6.067 11.502 8ZM10.502 8C10.502 9.38071 9.38267 10.5 8.00195 10.5C6.62124 10.5 5.50195 9.38071 5.50195 8C5.50195 6.61929 6.62124 5.5 8.00195 5.5C9.38267 5.5 10.502 6.61929 10.502 8Z" fill="white"/>
<path fill-rule="evenodd" clip-rule="evenodd" d="M8.00195 3C3.43052 3 0.00195312 6.88889 0.00195312 8C0.00195312 9.11111 3.43052 13 8.00195 13C12.5734 13 16.002 9.11111 16.002 8C16.002 6.88889 12.5734 3 8.00195 3ZM1.05874 8.09908C1.03818 8.05648 1.02452 8.02367 1.01556 8C1.02452 7.97633 1.03818 7.94352 1.05874 7.90092C1.12587 7.76188 1.23934 7.57506 1.40745 7.35219C1.74269 6.90774 2.2504 6.37918 2.90161 5.87269C4.21001 4.85504 5.99983 4 8.00195 4C10.0041 4 11.7939 4.85504 13.1023 5.87269C13.7535 6.37918 14.2612 6.90774 14.5965 7.35219C14.7646 7.57506 14.878 7.76188 14.9452 7.90092C14.9657 7.94352 14.9794 7.97633 14.9883 8C14.9794 8.02367 14.9657 8.05648 14.9452 8.09908C14.878 8.23812 14.7646 8.42494 14.5965 8.64781C14.2612 9.09226 13.7535 9.62082 13.1023 10.1273C11.7939 11.145 10.0041 12 8.00195 12C5.99983 12 4.21001 11.145 2.90161 10.1273C2.2504 9.62082 1.74269 9.09226 1.40745 8.64781C1.23934 8.42494 1.12587 8.23812 1.05874 8.09908Z" fill="white"/>
</svg>
