<svg width="24" height="24" viewBox="0 0 24 24" fill="none" xmlns="http://www.w3.org/2000/svg">
<path d="M14.25 12.75C13.4216 12.75 12.75 13.4216 12.75 14.25V22.5C12.75 23.3284 13.4216 24 14.25 24H22.5C23.3284 24 24 23.3284 24 22.5V14.25C24 13.4216 23.3284 12.75 22.5 12.75H14.25Z" fill="white"/>
<path d="M1 1.5C1 1.22386 1.22386 1 1.5 1H9.75C10.0261 1 10.25 1.22386 10.25 1.5V9.75C10.25 10.0261 10.0261 10.25 9.75 10.25H1.5C1.22386 10.25 1 10.0261 1 9.75V1.5ZM13.75 1.5C13.75 1.22386 13.9739 1 14.25 1H22.5C22.7761 1 23 1.22386 23 1.5V9.75C23 10.0261 22.7761 10.25 22.5 10.25H14.25C13.9739 10.25 13.75 10.0261 13.75 9.75V1.5ZM1 14.25C1 13.9739 1.22386 13.75 1.5 13.75H9.75C10.0261 13.75 10.25 13.9739 10.25 14.25V22.5C10.25 22.7761 10.0261 23 9.75 23H1.5C1.22386 23 1 22.7761 1 22.5V14.25ZM13.75 14.25C13.75 13.9739 13.9739 13.75 14.25 13.75H22.5C22.7761 13.75 23 13.9739 23 14.25V22.5C23 22.7761 22.7761 23 22.5 23H14.25C13.9739 23 13.75 22.7761 13.75 22.5V14.25Z" stroke="white" stroke-width="2"/>
</svg>