<svg width="24" height="24" viewBox="0 0 24 24" fill="none" xmlns="http://www.w3.org/2000/svg">
<path d="M18.5219 1.15165C17.1816 0.932314 15.5435 0.750006 13.797 0.75C11.9627 0.749994 10.2745 0.970479 8.92748 1.22771C7.45177 1.50952 6.34397 2.47293 5.7472 3.71569C5.50867 4.21241 5.94319 4.71018 6.49114 4.652C6.78832 4.62045 7.05485 4.42274 7.20292 4.16315C7.63173 3.41137 8.33863 2.86727 9.20884 2.70109C10.4877 2.45687 12.0793 2.24999 13.797 2.25C15.3757 2.25001 16.8705 2.40839 18.121 2.60641C18.2093 2.10376 18.3445 1.61728 18.5219 1.15165Z" fill="white"/>
<path d="M20.9706 10.2217C20.8594 11.1082 20.4387 11.8984 19.8201 12.4808C19.6282 12.6615 19.5 12.9053 19.5 13.1689C19.5 13.7845 20.1409 14.1759 20.6134 13.7813C21.4325 13.0972 22.0398 12.1681 22.323 11.1068C21.8415 10.8572 21.3887 10.5601 20.9706 10.2217Z" fill="white"/>
<path d="M5.625 14.25C6.24632 14.25 6.75 13.7463 6.75 13.125C6.75 12.5037 6.24632 12 5.625 12C5.00368 12 4.5 12.5037 4.5 13.125C4.5 13.7463 5.00368 14.25 5.625 14.25Z" fill="white"/>
<path d="M10.5 13.125C10.5 13.7463 9.99632 14.25 9.375 14.25C8.75368 14.25 8.25 13.7463 8.25 13.125C8.25 12.5037 8.75368 12 9.375 12C9.99632 12 10.5 12.5037 10.5 13.125Z" fill="white"/>
<path d="M14.25 13.125C14.25 13.7463 13.7463 14.25 13.125 14.25C12.5037 14.25 12 13.7463 12 13.125C12 12.5037 12.5037 12 13.125 12C13.7463 12 14.25 12.5037 14.25 13.125Z" fill="white"/>
<path fill-rule="evenodd" clip-rule="evenodd" d="M9.29701 6C7.46276 5.99999 5.7745 6.22048 4.4275 6.47771C2.15096 6.91245 0.75 8.96929 0.75 11.1714V15C0.75 17.8995 3.1005 20.25 6 20.25H6.83319C6.82934 20.3501 6.8142 20.4422 6.78849 20.5193C6.59601 21.0967 6.23293 21.3224 5.96668 21.4495C5.65149 21.5999 5.4277 21.9567 5.51294 22.3575C5.60256 22.7788 5.98316 23.0161 6.35494 22.9969C7.60183 22.9324 10.317 22.4851 12.0267 20.25H12.75C15.6495 20.25 18 17.8995 18 15V11.2002C18 8.91586 16.4976 6.81612 14.1435 6.42177C12.7812 6.19358 11.0966 6.00001 9.29701 6ZM4.70886 7.95109C5.98769 7.70687 7.57927 7.49999 9.29701 7.5C10.9931 7.50001 12.5922 7.68281 13.8957 7.90116C15.4283 8.15789 16.5 9.54374 16.5 11.2002V15C16.5 17.0711 14.8211 18.75 12.75 18.75H11.2402L11.0175 19.0837C10.2679 20.2073 9.17005 20.8227 8.15461 21.1517C8.17446 21.1005 8.19345 21.0479 8.21151 20.9937C8.40305 20.4191 8.35119 19.7781 8.18758 19.2701L8.02007 18.75H6C3.92893 18.75 2.25 17.0711 2.25 15V11.1714C2.25 9.57056 3.24992 8.22969 4.70886 7.95109Z" fill="white"/>
</svg>
