<svg width="352" height="160" viewBox="0 0 352 160" fill="none" xmlns="http://www.w3.org/2000/svg">
<path d="M107.987 15.8594C108.176 14.7135 109.824 14.7135 110.013 15.8594L110.596 19.4037L114.141 19.9875C115.286 20.1762 115.286 21.8238 114.141 22.0125L110.596 22.5963L110.013 26.1406C109.824 27.2865 108.176 27.2865 107.987 26.1406L107.404 22.5963L103.859 22.0125C102.714 21.8238 102.714 20.1762 103.859 19.9875L107.404 19.4037L107.987 15.8594Z" fill="#0E72ED"/>
<path d="M304.481 116.289C304.764 114.57 307.236 114.57 307.519 116.289L308.394 121.606L313.711 122.481C315.43 122.764 315.43 125.236 313.711 125.519L308.394 126.394L307.519 131.711C307.236 133.43 304.764 133.43 304.481 131.711L303.606 126.394L298.289 125.519C296.57 125.236 296.57 122.764 298.289 122.481L303.606 121.606L304.481 116.289Z" fill="#0E72ED"/>
<path d="M42.975 98.7187C43.3525 96.4271 46.6475 96.4271 47.025 98.7187L48.1926 105.807L55.2813 106.975C57.5729 107.352 57.5729 110.648 55.2813 111.025L48.1926 112.193L47.025 119.281C46.6475 121.573 43.3525 121.573 42.975 119.281L41.8074 112.193L34.7187 111.025C32.4271 110.648 32.4271 107.352 34.7187 106.975L41.8074 105.807L42.975 98.7187Z" fill="#FFBF39"/>
<rect x="88" y="83.6382" width="175.096" height="141.362" rx="16.0638" fill="#A4C4FF"/>
<path d="M211.862 149.643L199.104 157.951L206.491 169.295C206.967 170.026 208.091 169.803 208.252 168.945L211.862 149.643Z" fill="#4B8AFF"/>
<rect x="162" y="130.203" width="121.317" height="43.5" rx="8.7" transform="rotate(-33.073 162 130.203)" fill="#4B8AFF"/>
<path fill-rule="evenodd" clip-rule="evenodd" d="M190.142 137.196C192.523 135.645 193.196 132.458 191.646 130.077C190.095 127.696 186.908 127.023 184.527 128.573C182.146 130.124 181.473 133.311 183.024 135.692C184.574 138.073 187.761 138.746 190.142 137.196ZM191.546 139.351C187.235 142.158 185.258 146.194 186.809 148.575C187.584 149.765 189.327 150.005 190.368 149.327L201.146 142.308C202.188 141.63 202.673 139.939 201.898 138.749C200.347 136.368 195.857 136.543 191.546 139.351Z" fill="white"/>
<rect x="199.517" y="119.614" width="72.9833" height="20.3" rx="7.25" transform="rotate(-33.073 199.517 119.614)" fill="white"/>
<path d="M57.0284 60.3037L45.4946 50.3652L36.6579 60.6205C36.0886 61.2811 36.6162 62.2984 37.4842 62.2136L57.0284 60.3037Z" fill="#4B8AFF"/>
<rect x="61.8071" y="7" width="121.317" height="43.5" rx="8.7" transform="rotate(40.7509 61.8071 7)" fill="#4B8AFF"/>
<path fill-rule="evenodd" clip-rule="evenodd" d="M62.9314 35.9761C65.0839 37.8308 68.3324 37.5895 70.1872 35.437C72.0419 33.2845 71.8006 30.036 69.6481 28.1813C67.4956 26.3265 64.2471 26.5679 62.3924 28.7203C60.5376 30.8728 60.779 34.1213 62.9314 35.9761ZM61.2523 37.9247C57.3549 34.5664 52.9283 33.7926 51.0736 35.945C50.1462 37.0213 50.4014 38.7615 51.3431 39.5729L61.0866 47.9687C62.0283 48.7802 63.7871 48.7754 64.7145 47.6992C66.5692 45.5467 65.1497 41.283 61.2523 37.9247Z" fill="white"/>
<rect x="82.4285" y="40.0815" width="72.9833" height="20.3" rx="7.25" transform="rotate(40.7509 82.4285 40.0815)" fill="white"/>
<path d="M203.481 46.3489L189.567 52.5312L195.064 64.9022C195.419 65.6992 196.564 65.6567 196.858 64.8357L203.481 46.3489Z" fill="#0956B5"/>
<rect x="157.328" y="19.2559" width="121.317" height="43.5" rx="8.7" transform="rotate(-23.9578 157.328 19.2559)" fill="#0956B5"/>
<rect x="196.048" y="14.7441" width="72.9833" height="20.3" rx="7.25" transform="rotate(-23.9578 196.048 14.7441)" fill="white"/>
<path d="M179.217 32.4687C181.336 31.5272 182.29 29.0464 181.349 26.9276C180.407 24.8088 177.926 23.8544 175.808 24.7959C173.689 25.7374 172.734 28.2182 173.676 30.337C174.617 32.4558 177.098 33.4102 179.217 32.4687Z" fill="white"/>
<path d="M191.206 24.5574C192.089 26.5437 191.194 28.8695 189.207 29.7522C187.221 30.6348 184.895 29.74 184.013 27.7537C183.13 25.7673 184.025 23.4415 186.011 22.5589C187.997 21.6763 190.323 22.571 191.206 24.5574Z" fill="white"/>
<path d="M180.069 34.3869C175.753 36.3047 173.735 39.5155 174.794 41.8992C175.5 43.4883 177.361 44.2041 178.95 43.4979L187.582 39.6624C187.712 39.6043 187.837 39.5383 187.956 39.4654C188.017 39.4275 188.077 39.3878 188.135 39.3463C189.327 38.4954 189.798 36.897 189.18 35.5066C188.774 34.5913 187.972 33.9311 186.895 33.5736C185.167 33 182.728 33.2055 180.069 34.3869Z" fill="white"/>
<path d="M196.933 35.5072L190.798 38.2329C191.143 37.1657 191.11 35.9727 190.619 34.8673C190.15 33.8115 189.363 33.0364 188.404 32.5169C188.9 32.2241 189.451 31.9408 190.06 31.6704C194.376 29.7526 197.249 30.404 198.132 32.3903C198.661 33.5821 198.125 34.9776 196.933 35.5072Z" fill="white"/>
<path fill-rule="evenodd" clip-rule="evenodd" d="M104.064 74C95.192 74 88 81.192 88 90.0638V141.468L88 208.936C88 217.808 95.192 225 104.064 225H247.032C255.904 225 263.096 217.808 263.096 208.936V117.372C263.096 108.501 255.904 101.308 247.032 101.308H182.375L166.713 80.4255C163.679 76.3806 158.918 74 153.862 74H104.064Z" fill="#0E72ED"/>
</svg>
