<svg width="24" height="24" viewBox="0 0 24 24" fill="none" xmlns="http://www.w3.org/2000/svg">
<path d="M9 16.5C8.17157 16.5 7.5 15.8284 7.5 15V9C7.5 8.17157 8.17157 7.5 9 7.5C9.82843 7.5 10.5 8.17157 10.5 9V15C10.5 15.8284 9.82843 16.5 9 16.5Z" fill="white"/>
<path d="M13.5 15C13.5 15.8284 14.1716 16.5 15 16.5C15.8284 16.5 16.5 15.8284 16.5 15V9C16.5 8.17157 15.8284 7.5 15 7.5C14.1716 7.5 13.5 8.17157 13.5 9V15Z" fill="white"/>
<path fill-rule="evenodd" clip-rule="evenodd" d="M0.653961 3.27606C0 4.55953 0 6.23969 0 9.6V14.4C0 17.7603 0 19.4405 0.653961 20.7239C1.2292 21.8529 2.14708 22.7708 3.27606 23.346C4.55953 24 6.23969 24 9.6 24H14.4C17.7603 24 19.4405 24 20.7239 23.346C21.8529 22.7708 22.7708 21.8529 23.346 20.7239C24 19.4405 24 17.7603 24 14.4V9.6C24 6.23969 24 4.55953 23.346 3.27606C22.7708 2.14708 21.8529 1.2292 20.7239 0.653961C19.4405 0 17.7603 0 14.4 0H9.6C6.23969 0 4.55953 0 3.27606 0.653961C2.14708 1.2292 1.2292 2.14708 0.653961 3.27606ZM14.4 1.5H9.6C7.89509 1.5 6.70662 1.50117 5.78136 1.57676C4.87361 1.65093 4.35208 1.78919 3.95704 1.99047C3.11031 2.4219 2.4219 3.11031 1.99047 3.95704C1.78919 4.35208 1.65093 4.87361 1.57676 5.78136C1.50117 6.70662 1.5 7.89509 1.5 9.6V14.4C1.5 16.1049 1.50117 17.2934 1.57676 18.2186C1.65093 19.1264 1.78919 19.6479 1.99047 20.043C2.4219 20.8897 3.11031 21.5781 3.95704 22.0095C4.35208 22.2108 4.87361 22.3491 5.78136 22.4232C6.70662 22.4988 7.89509 22.5 9.6 22.5H14.4C16.1049 22.5 17.2934 22.4988 18.2186 22.4232C19.1264 22.3491 19.6479 22.2108 20.043 22.0095C20.8897 21.5781 21.5781 20.8897 22.0095 20.043C22.2108 19.6479 22.3491 19.1264 22.4232 18.2186C22.4988 17.2934 22.5 16.1049 22.5 14.4V9.6C22.5 7.89509 22.4988 6.70662 22.4232 5.78136C22.3491 4.87361 22.2108 4.35208 22.0095 3.95704C21.5781 3.11031 20.8897 2.4219 20.043 1.99047C19.6479 1.78919 19.1264 1.65093 18.2186 1.57676C17.2934 1.50117 16.1049 1.5 14.4 1.5Z" fill="white"/>
</svg>
