<svg width="24" height="24" viewBox="0 0 24 24" fill="none" xmlns="http://www.w3.org/2000/svg">
<path fill-rule="evenodd" clip-rule="evenodd" d="M18 1.005C18.8284 1.005 19.5 1.67506 19.5 2.50161V18.0663C19.5 18.619 19.1947 19.1267 18.7059 19.3868L10.4559 23.7769C9.45672 24.3085 8.25 23.5862 8.25 22.4563V18.9643H6C5.17157 18.9643 4.5 18.2942 4.5 17.4677V2.50161C4.5 1.67506 5.17157 1.005 6 1.005H18ZM6 2.50161H16.6875L9.04412 6.56885C8.55532 6.82895 8.25 7.33667 8.25 7.88938V17.4677H6V2.50161ZM11.25 15.2227C10.8358 15.2227 10.5 14.8877 10.5 14.4744C10.5 14.0612 10.8358 13.7261 11.25 13.7261C11.6642 13.7261 12 14.0612 12 14.4744C12 14.8877 11.6642 15.2227 11.25 15.2227Z" fill="white"/>
</svg>