<svg width="24" height="24" viewBox="0 0 24 24" fill="none" xmlns="http://www.w3.org/2000/svg">
<path d="M5.47559 20.6748C5.68066 20.6748 5.87549 20.6372 6.06006 20.562C6.24463 20.4937 6.43945 20.3979 6.64453 20.2749L18.6006 13.3638C19.0312 13.1108 19.3286 12.8887 19.4927 12.6973C19.6636 12.499 19.749 12.2632 19.749 11.9897C19.749 11.7163 19.6636 11.4839 19.4927 11.2925C19.3286 11.0942 19.0312 10.8721 18.6006 10.626L6.64453 3.70459C6.43945 3.58838 6.24463 3.49609 6.06006 3.42773C5.87549 3.35254 5.68066 3.31494 5.47559 3.31494C5.09961 3.31494 4.79883 3.44824 4.57324 3.71484C4.35449 3.98145 4.24512 4.33691 4.24512 4.78125V19.1982C4.24512 19.6426 4.35449 19.998 4.57324 20.2646C4.79883 20.5381 5.09961 20.6748 5.47559 20.6748Z" fill="white"/>
</svg>
