<svg width="24" height="24" viewBox="0 0 24 24" fill="none" xmlns="http://www.w3.org/2000/svg">
<path d="M9 8.4744V15.5256C9 16.2698 9.73177 16.7385 10.324 16.3736L16.0471 12.848C16.651 12.4761 16.651 11.5239 16.0471 11.152L10.324 7.62637C9.73177 7.26154 9 7.73024 9 8.4744Z" fill="white"/>
<path fill-rule="evenodd" clip-rule="evenodd" d="M0 9.6C0 6.23969 0 4.55953 0.653961 3.27606C1.2292 2.14708 2.14708 1.2292 3.27606 0.653961C4.55953 0 6.23969 0 9.6 0H14.4C17.7603 0 19.4405 0 20.7239 0.653961C21.8529 1.2292 22.7708 2.14708 23.346 3.27606C24 4.55953 24 6.23969 24 9.6V14.4C24 17.7603 24 19.4405 23.346 20.7239C22.7708 21.8529 21.8529 22.7708 20.7239 23.346C19.4405 24 17.7603 24 14.4 24H9.6C6.23969 24 4.55953 24 3.27606 23.346C2.14708 22.7708 1.2292 21.8529 0.653961 20.7239C0 19.4405 0 17.7603 0 14.4V9.6ZM9.6 1.5H14.4C16.1049 1.5 17.2934 1.50117 18.2186 1.57676C19.1264 1.65093 19.6479 1.78919 20.043 1.99047C20.8897 2.4219 21.5781 3.11031 22.0095 3.95704C22.2108 4.35208 22.3491 4.87361 22.4232 5.78136C22.4988 6.70662 22.5 7.89509 22.5 9.6V14.4C22.5 16.1049 22.4988 17.2934 22.4232 18.2186C22.3491 19.1264 22.2108 19.6479 22.0095 20.043C21.5781 20.8897 20.8897 21.5781 20.043 22.0095C19.6479 22.2108 19.1264 22.3491 18.2186 22.4232C17.2934 22.4988 16.1049 22.5 14.4 22.5H9.6C7.89509 22.5 6.70662 22.4988 5.78136 22.4232C4.87361 22.3491 4.35208 22.2108 3.95704 22.0095C3.11031 21.5781 2.4219 20.8897 1.99047 20.043C1.78919 19.6479 1.65093 19.1264 1.57676 18.2186C1.50117 17.2934 1.5 16.1049 1.5 14.4V9.6C1.5 7.89509 1.50117 6.70662 1.57676 5.78136C1.65093 4.87361 1.78919 4.35208 1.99047 3.95704C2.4219 3.11031 3.11031 2.4219 3.95704 1.99047C4.35208 1.78919 4.87361 1.65093 5.78136 1.57676C6.70662 1.50117 7.89509 1.5 9.6 1.5Z" fill="white"/>
</svg>
