<svg width="24" height="24" viewBox="0 0 24 24" fill="none" xmlns="http://www.w3.org/2000/svg">
<path d="M12.1963 0C12.6105 0 12.9463 0.335786 12.9463 0.75C12.9463 1.16421 12.6105 1.5 12.1963 1.5H4.39834C3.32025 1.5 2.44629 2.37397 2.44629 3.45206V15.9555C2.44629 16.3697 2.11051 16.7055 1.6963 16.7055C1.28209 16.7055 0.946311 16.3697 0.94631 15.9555L0.946289 3.45206C0.946289 1.54554 2.49183 0 4.39834 0H12.1963Z" fill="white"/>
<path d="M15.9463 3.54456C15.9463 3.13034 15.6105 2.79456 15.1963 2.79456H7.39834C5.49183 2.79456 3.94629 4.3401 3.94629 6.24661L3.94631 18.7501C3.94631 19.1643 4.28209 19.5 4.6963 19.5C5.11051 19.5 5.44629 19.1643 5.44629 18.7501V6.24661C5.44629 5.16852 6.32026 4.29456 7.39834 4.29456H15.1963C15.6105 4.29456 15.9463 3.95877 15.9463 3.54456Z" fill="white"/>
<path fill-rule="evenodd" clip-rule="evenodd" d="M6.94629 9.04108V20.5479C6.94629 22.4544 8.49183 24 10.3983 24H19.6038C21.5103 24 23.0559 22.4544 23.0559 20.5479V11.8165C23.0559 11.1979 22.8068 10.6053 22.365 10.1725L18.3571 6.24639C17.9269 5.82502 17.3488 5.58902 16.7466 5.58902H10.3983C8.49183 5.58902 6.94629 7.13456 6.94629 9.04108ZM8.44629 20.5479V9.04108C8.44629 7.96299 9.32026 7.08902 10.3983 7.08902H16.2246V10.3561C16.2246 11.4059 17.0756 12.2568 18.1253 12.2568H21.5559V20.5479C21.5559 21.626 20.6819 22.5 19.6038 22.5H10.3983C9.32025 22.5 8.44629 21.626 8.44629 20.5479ZM20.8179 10.7568L17.7246 7.72661V10.3561C17.7246 10.5774 17.904 10.7568 18.1253 10.7568H20.8179Z" fill="white"/>
</svg>
