<svg width="24" height="24" viewBox="0 0 24 24" fill="none" xmlns="http://www.w3.org/2000/svg">
<path d="M2.25129 20.9436H7.05487C7.4533 20.9436 7.83526 20.7858 8.11725 20.5048L22.0582 6.60032C22.6445 6.0153 22.6445 5.06672 22.0582 4.4817L18.005 0.439188C17.4183 -0.145827 16.4672 -0.145827 15.8809 0.439188L1.94001 14.3438C1.6584 14.6247 1.49982 15.0059 1.49982 15.403V20.1946C1.49982 20.6082 1.83637 20.9436 2.25129 20.9436ZM16.9429 1.49846L20.9962 5.54097L18.2547 8.27519L14.2066 4.22727L16.9429 1.49846ZM3.00202 15.403L13.1446 5.28654L17.1927 9.33437L7.05489 19.4455H3.00204L3.00202 15.403ZM22.5002 23.2496C22.5002 22.8354 22.1647 22.4996 21.7502 22.4996H2.25019C1.83601 22.4996 1.50019 22.8354 1.50019 23.2496C1.50019 23.6638 1.83601 23.9996 2.25019 23.9996H21.7502C22.1647 23.9996 22.5002 23.6638 22.5002 23.2496Z" fill="white"/>
</svg>
