<svg width="24" height="24" viewBox="0 0 24 24" fill="none" xmlns="http://www.w3.org/2000/svg">
<path d="M2.15625 0.75C1.3796 0.75 0.75 1.3796 0.75 2.15625V9.89062C0.75 10.6673 1.3796 11.2969 2.15625 11.2969H9.89062C10.6673 11.2969 11.2969 10.6673 11.2969 9.89062V2.15625C11.2969 1.3796 10.6673 0.75 9.89062 0.75H2.15625Z" fill="white"/>
<path d="M14.1094 0.75C13.3327 0.75 12.7031 1.3796 12.7031 2.15625V9.89062C12.7031 10.6673 13.3327 11.2969 14.1094 11.2969H21.8438C22.6204 11.2969 23.25 10.6673 23.25 9.89062V2.15625C23.25 1.3796 22.6204 0.75 21.8438 0.75H14.1094Z" fill="white"/>
<path d="M0.75 14.1094C0.75 13.3327 1.3796 12.7031 2.15625 12.7031H9.89062C10.6673 12.7031 11.2969 13.3327 11.2969 14.1094V21.8438C11.2969 22.6204 10.6673 23.25 9.89062 23.25H2.15625C1.3796 23.25 0.75 22.6204 0.75 21.8438V14.1094Z" fill="white"/>
<path d="M14.1094 12.7031C13.3327 12.7031 12.7031 13.3327 12.7031 14.1094V21.8438C12.7031 22.6204 13.3327 23.25 14.1094 23.25H21.8438C22.6204 23.25 23.25 22.6204 23.25 21.8438V14.1094C23.25 13.3327 22.6204 12.7031 21.8438 12.7031H14.1094Z" fill="white"/>
</svg>