<svg width="24" height="24" viewBox="0 0 24 24" fill="none" xmlns="http://www.w3.org/2000/svg">
<path d="M2.25 4.28571C2.25 2.33299 3.83299 0.75 5.78571 0.75H17.7857C19.7384 0.75 21.3214 2.33299 21.3214 4.28571V19.7143C21.3214 21.667 19.7384 23.25 17.7857 23.25H5.78571C3.83299 23.25 2.25 21.667 2.25 19.7143V4.28571Z" stroke="white" stroke-width="1.5"/>
<path fill-rule="evenodd" clip-rule="evenodd" d="M6.75012 6.73467C6.75012 6.27903 7.11949 5.90967 7.57512 5.90967H14.9251C15.3808 5.90967 15.7501 6.27903 15.7501 6.73467C15.7501 7.1903 15.3808 7.55967 14.9251 7.55967H7.57512C7.11949 7.55967 6.75012 7.1903 6.75012 6.73467ZM6.75013 16.9351C6.75013 16.4795 7.11949 16.1101 7.57513 16.1101H13.4251C13.8808 16.1101 14.2501 16.4795 14.2501 16.9351C14.2501 17.3907 13.8808 17.7601 13.4251 17.7601H7.57513C7.11949 17.7601 6.75013 17.3907 6.75013 16.9351ZM7.57513 11.01C7.11949 11.01 6.75013 11.3794 6.75013 11.835C6.75013 12.2906 7.11949 12.66 7.57513 12.66H16.4251C16.8808 12.66 17.2501 12.2906 17.2501 11.835C17.2501 11.3794 16.8808 11.01 16.4251 11.01H7.57513Z" fill="white"/>
</svg>
