<svg width="14" height="14" viewBox="0 0 14 14" fill="none" xmlns="http://www.w3.org/2000/svg">
<path d="M5.6875 6.125C5.44588 6.125 5.25 6.32088 5.25 6.5625V10.0625C5.25 10.3041 5.44588 10.5 5.6875 10.5C5.92912 10.5 6.125 10.3041 6.125 10.0625V6.5625C6.125 6.32088 5.92912 6.125 5.6875 6.125Z" fill="#000001"/>
<path d="M7.875 6.5625C7.875 6.32088 8.07088 6.125 8.3125 6.125C8.55412 6.125 8.75 6.32088 8.75 6.5625V10.0625C8.75 10.3041 8.55412 10.5 8.3125 10.5C8.07088 10.5 7.875 10.3041 7.875 10.0625V6.5625Z" fill="#000001"/>
<path fill-rule="evenodd" clip-rule="evenodd" d="M3.26585 3.5L4.5371 1.59115C4.79388 1.15291 5.25644 0.875 5.76631 0.875H8.23393C8.7438 0.875 9.20637 1.15291 9.46314 1.59115L10.7344 3.5H12.6875C12.9291 3.5 13.125 3.69588 13.125 3.9375C13.125 4.17912 12.9291 4.375 12.6875 4.375H12.1766L11.5432 11.9223C11.4862 12.6022 10.9177 13.125 10.2353 13.125H3.76467C3.08234 13.125 2.51382 12.6022 2.45676 11.9223L1.82343 4.375H1.3125C1.07088 4.375 0.875 4.17912 0.875 3.9375C0.875 3.69588 1.07088 3.5 1.3125 3.5H3.26585ZM5.28868 2.03934C5.39507 1.85316 5.57909 1.75 5.76631 1.75H8.23393C8.42115 1.75 8.60518 1.85316 8.71157 2.03934L8.71899 2.05233L9.68311 3.5H4.31713L5.28125 2.05233L5.28868 2.03934ZM2.7015 4.375H11.2985L10.6713 11.8491C10.6523 12.0757 10.4628 12.25 10.2353 12.25H3.76467C3.53722 12.25 3.34772 12.0757 3.3287 11.8491L2.7015 4.375Z" fill="#000001"/>
<zoom style="dark" value="|:#FFFFFF89|:#FFFFFF89|:#FFFFFF89"/>
<zoom style="hover" value="|:#222230|:#222230|:#222230"/>
<zoom style="hover_dark" value="|:#F5F5F5|:#F5F5F5|:#F5F5F5"/>
</svg>
