<svg width="24" height="24" viewBox="0 0 24 24" fill="none" xmlns="http://www.w3.org/2000/svg">
<path d="M18.75 19.5V11.25C18.75 7.52208 15.7279 4.5 12 4.5C8.27208 4.5 5.25 7.52208 5.25 11.25V19.5C5.25 20.3284 4.57843 21 3.75 21C1.67893 21 0 19.3211 0 17.25V15.75C0 13.6789 1.67893 12 3.75 12V11.25C3.75 6.69365 7.44365 3 12 3C16.5563 3 20.25 6.69365 20.25 11.25V12C22.3211 12 24 13.6789 24 15.75V17.25C24 19.3211 22.3211 21 20.25 21C19.4216 21 18.75 20.3284 18.75 19.5Z" fill="white"/>
<path d="M7.71967 15.5303C7.42678 15.2374 7.42678 14.7626 7.71967 14.4697L11.4697 10.7197C11.7626 10.4268 12.2374 10.4268 12.5303 10.7197L16.2803 14.4697C16.5732 14.7626 16.5732 15.2374 16.2803 15.5303C15.9874 15.8232 15.5126 15.8232 15.2197 15.5303L12.75 13.0607V20.25C12.75 20.6642 12.4142 21 12 21C11.5858 21 11.25 20.6642 11.25 20.25V13.0607L8.78033 15.5303C8.48744 15.8232 8.01256 15.8232 7.71967 15.5303Z" fill="#00FF91"/>
</svg>
