<svg width="338" height="125" viewBox="0 0 338 125" fill="none" xmlns="http://www.w3.org/2000/svg">
<g clip-path="url(#clip0_1440_217599)">
<circle opacity="0.3" cx="158.5" cy="52.5" r="10" stroke="#0B5CFF"/>
<circle opacity="0.1" cx="136" cy="33" r="7.5" stroke="#0B5CFF"/>
<circle opacity="0.1" cx="198.5" cy="2.5" r="10" stroke="#0B5CFF"/>
<circle opacity="0.1" cx="195" cy="99" r="6.5" stroke="#0B5CFF"/>
<circle opacity="0.3" cx="181" cy="61" r="7" stroke="#0B5CFF"/>
<circle opacity="0.3" cx="161" cy="74" r="8" stroke="#0B5CFF"/>
<rect opacity="0.5" x="135" width="68" height="125" fill="url(#paint0_linear_1440_217599)"/>
<g clip-path="url(#clip1_1440_217599)">
<path fill-rule="evenodd" clip-rule="evenodd" d="M158.896 60.3088C162.125 60.2095 164.851 58.1108 165.877 55.209L176.329 59.564C176.216 59.9767 176.156 60.411 176.156 60.8594C176.156 61.445 176.259 62.0067 176.446 62.5276L166.003 70.1225C164.9 68.8059 163.243 67.9688 161.391 67.9688C161.068 67.9688 160.752 67.9941 160.443 68.043L158.896 60.3088ZM167.085 72.0404C167.293 72.6502 167.406 73.3041 167.406 73.9844C167.406 77.3067 164.713 80 161.391 80C158.068 80 155.375 77.3067 155.375 73.9844C155.375 71.7669 156.575 69.8297 158.361 68.7864L156.611 60.0362C153.375 59.1413 151 56.1762 151 52.6562C151 48.4278 154.428 45 158.656 45C162.885 45 166.312 48.4278 166.312 52.6562C166.312 52.7773 166.31 52.8977 166.304 53.0173L177.367 57.6267C178.269 56.5916 179.597 55.9375 181.078 55.9375C183.796 55.9375 186 58.1411 186 60.8594C186 63.5777 183.796 65.7812 181.078 65.7812C179.735 65.7812 178.518 65.2435 177.63 64.3715L167.085 72.0404Z" fill="#0B5CFF"/>
<path d="M157 47.5005C160 47.0005 162 48.0005 163 50.0005" stroke="white"/>
</g>
<rect x="114" width="2" height="125" fill="url(#paint1_linear_1440_217599)"/>
<rect x="222" width="2" height="125" fill="url(#paint2_linear_1440_217599)"/>
<path fill-rule="evenodd" clip-rule="evenodd" d="M169 15.8784L126.764 39.4521V86.5479L169 110.122L211.236 86.5479V39.4521L169 15.8784ZM212 39L169 15L126 39V87L169 111L212 87V39Z" fill="#A477FF"/>
<path d="M90.3089 39.3129L96.0466 33.5752L101.212 38.864C101.495 39.1542 101.284 39.6458 100.881 39.6336L90.3089 39.3129Z" fill="#0B5CFF"/>
<rect width="64.6588" height="23.2241" rx="4.04428" transform="matrix(-1 0.000184619 -0.0112866 0.99993 96.0332 22)" fill="#0B5CFF"/>
<path fill-rule="evenodd" clip-rule="evenodd" d="M85.7607 37.574C85.6899 37.9044 85.9003 38.2296 86.2307 38.3004C86.5611 38.3712 86.8863 38.1608 86.9571 37.8304L87.3779 35.8669H89.7236C90.0614 35.8669 90.3353 35.593 90.3353 35.2551C90.3353 34.9172 90.0614 34.6433 89.7236 34.6433H87.64L88.1644 32.1962H89.7236C90.0614 32.1962 90.3353 31.9223 90.3353 31.5844C90.3353 31.2466 90.0614 30.9726 89.7236 30.9726H88.4266L88.7924 29.2655C88.8632 28.9351 88.6528 28.6099 88.3224 28.5391C87.9921 28.4683 87.6668 28.6787 87.596 29.0091L87.1753 30.9726H84.7559L85.1218 29.2655C85.1926 28.9351 84.9821 28.6099 84.6518 28.5391C84.3214 28.4683 83.9962 28.6787 83.9254 29.0091L83.5046 30.9726H81.1587C80.8208 30.9726 80.5469 31.2466 80.5469 31.5844C80.5469 31.9223 80.8208 32.1962 81.1587 32.1962H83.2424L82.718 34.6433H81.1587C80.8208 34.6433 80.5469 34.9172 80.5469 35.2551C80.5469 35.593 80.8208 35.8669 81.1587 35.8669H82.4558L82.09 37.574C82.0192 37.9044 82.2297 38.2296 82.56 38.3004C82.8904 38.3712 83.2156 38.1608 83.2864 37.8304L83.7072 35.8669H86.1265L85.7607 37.574ZM83.9694 34.6433H86.3887L86.9131 32.1962H84.4938L83.9694 34.6433Z" fill="white"/>
<rect width="38.8979" height="10.8385" rx="3.37023" transform="matrix(-1 0.000132109 -0.0113185 0.99993 76.123 28.2012)" fill="white"/>
<path d="M96.8089 82.7968L100.74 78.8662L104.278 82.4893C104.472 82.688 104.327 83.0248 104.051 83.0164L96.8089 82.7968Z" fill="#648CFE"/>
<rect width="44.2937" height="15.9094" rx="2.77048" transform="matrix(-1 0.000184619 -0.0112866 0.99993 101.55 71)" fill="#648CFE"/>
<path fill-rule="evenodd" clip-rule="evenodd" d="M94.5131 81.6693C94.4646 81.8957 94.6087 82.1184 94.835 82.1669C95.0614 82.2154 95.2841 82.0713 95.3326 81.845L95.6209 80.4999H97.2278C97.4592 80.4999 97.6469 80.3123 97.6469 80.0808C97.6469 79.8493 97.4592 79.6617 97.2278 79.6617H95.8005L96.1597 77.9853H97.2278C97.4592 77.9853 97.6469 77.7977 97.6469 77.5663C97.6469 77.3348 97.4592 77.1472 97.2278 77.1472H96.3393L96.5899 75.9777C96.6384 75.7514 96.4943 75.5286 96.2679 75.4801C96.0416 75.4316 95.8188 75.5757 95.7703 75.8021L95.4821 77.1472H93.8248L94.0754 75.9777C94.1239 75.7514 93.9797 75.5286 93.7534 75.4801C93.5271 75.4316 93.3043 75.5757 93.2558 75.8021L92.9676 77.1472H91.3605C91.129 77.1472 90.9414 77.3348 90.9414 77.5663C90.9414 77.7977 91.129 77.9853 91.3605 77.9853H92.788L92.4287 79.6617H91.3605C91.129 79.6617 90.9414 79.8493 90.9414 80.0808C90.9414 80.3123 91.129 80.4999 91.3605 80.4999H92.2491L91.9985 81.6693C91.95 81.8957 92.0942 82.1184 92.3205 82.1669C92.5468 82.2154 92.7696 82.0713 92.8181 81.845L93.1063 80.4999H94.7637L94.5131 81.6693ZM93.2859 79.6617H94.9433L95.3025 77.9853H93.6452L93.2859 79.6617Z" fill="white"/>
<rect width="26.6464" height="7.42479" rx="2.30873" transform="matrix(-1 0.000132109 -0.0113185 0.99993 87.9109 75.248)" fill="white"/>
<path d="M261.327 42.6095L256.673 37.9561L252.484 42.2454C252.254 42.4808 252.426 42.8795 252.753 42.8696L261.327 42.6095Z" fill="#648CFE"/>
<rect width="52.4397" height="18.8353" rx="3.28" transform="matrix(1 0.000184619 0.0112866 0.99993 255.936 29)" fill="#648CFE"/>
<path fill-rule="evenodd" clip-rule="evenodd" d="M264.786 41.6306C264.728 41.8986 264.899 42.1623 265.167 42.2197C265.435 42.2772 265.699 42.1065 265.756 41.8386L266.097 40.2461H268C268.274 40.2461 268.496 40.024 268.496 39.7499C268.496 39.4759 268.274 39.2538 268 39.2538H266.31L266.735 37.2691H268C268.274 37.2691 268.496 37.047 268.496 36.7729C268.496 36.4989 268.274 36.2768 268 36.2768H266.948L267.245 34.8922C267.302 34.6243 267.131 34.3605 266.864 34.3031C266.596 34.2457 266.332 34.4164 266.274 34.6843L265.933 36.2768H263.971L264.268 34.8922C264.325 34.6243 264.154 34.3605 263.887 34.3031C263.619 34.2457 263.355 34.4164 263.297 34.6843L262.956 36.2768H261.054C260.78 36.2768 260.557 36.4989 260.557 36.7729C260.557 37.047 260.78 37.2691 261.054 37.2691H262.744L262.318 39.2538H261.054C260.78 39.2538 260.557 39.4759 260.557 39.7499C260.557 40.024 260.78 40.2461 261.054 40.2461H262.106L261.809 41.6306C261.751 41.8986 261.922 42.1623 262.19 42.2197C262.458 42.2772 262.722 42.1065 262.779 41.8386L263.12 40.2461H265.083L264.786 41.6306ZM263.333 39.2538H265.295L265.721 37.2691H263.758L263.333 39.2538Z" fill="white"/>
<rect width="31.547" height="8.79029" rx="2.73333" transform="matrix(1 0.000132109 0.0113185 0.99993 272.084 34.0293)" fill="white"/>
<path d="M244.78 85.0428L239.098 79.3604L233.982 84.5982C233.702 84.8856 233.911 85.3725 234.31 85.3603L244.78 85.0428Z" fill="#0B5CFF"/>
<rect width="64.0355" height="23.0002" rx="4.00529" transform="matrix(1 0.000184619 0.0112866 0.99993 238.938 68)" fill="#0B5CFF"/>
<path fill-rule="evenodd" clip-rule="evenodd" d="M249.745 83.4243C249.675 83.7515 249.883 84.0736 250.21 84.1437C250.538 84.2138 250.86 84.0054 250.93 83.6782L251.346 81.7336H253.67C254.004 81.7336 254.275 81.4623 254.275 81.1277C254.275 80.7931 254.004 80.5218 253.67 80.5218H251.606L252.125 78.0983H253.67C254.004 78.0983 254.275 77.8271 254.275 77.4924C254.275 77.1578 254.004 76.8866 253.67 76.8866H252.385L252.747 75.1958C252.817 74.8687 252.609 74.5466 252.282 74.4765C251.955 74.4064 251.633 74.6148 251.563 74.9419L251.146 76.8866H248.75L249.112 75.1958C249.182 74.8687 248.974 74.5466 248.647 74.4765C248.319 74.4064 247.997 74.6148 247.927 74.9419L247.511 76.8866H245.187C244.853 76.8866 244.581 77.1578 244.581 77.4924C244.581 77.8271 244.853 78.0983 245.187 78.0983H247.251L246.732 80.5218H245.187C244.853 80.5218 244.581 80.7931 244.581 81.1277C244.581 81.4623 244.853 81.7336 245.187 81.7336H246.472L246.11 83.4243C246.039 83.7515 246.248 84.0736 246.575 84.1437C246.902 84.2138 247.224 84.0054 247.294 83.6782L247.711 81.7336H250.107L249.745 83.4243ZM247.971 80.5218H250.367L250.886 78.0983H248.49L247.971 80.5218Z" fill="white"/>
<rect width="38.5228" height="10.734" rx="3.33774" transform="matrix(1 0.000132109 0.0113185 0.99993 258.656 74.1406)" fill="white"/>
</g>
<defs>
<linearGradient id="paint0_linear_1440_217599" x1="169" y1="0" x2="169" y2="125" gradientUnits="userSpaceOnUse">
<stop stop-color="#0B5CFF" stop-opacity="0"/>
<stop offset="0.526042" stop-color="#0B5CFF" stop-opacity="0.594287"/>
<stop offset="1" stop-color="#0B5CFF" stop-opacity="0"/>
</linearGradient>
<linearGradient id="paint1_linear_1440_217599" x1="115" y1="0" x2="115" y2="125" gradientUnits="userSpaceOnUse">
<stop stop-color="#9747FF" stop-opacity="0"/>
<stop offset="0.53125" stop-color="#9747FF"/>
<stop offset="1" stop-color="#9747FF" stop-opacity="0"/>
</linearGradient>
<linearGradient id="paint2_linear_1440_217599" x1="223" y1="0" x2="223" y2="125" gradientUnits="userSpaceOnUse">
<stop stop-color="#9747FF" stop-opacity="0"/>
<stop offset="0.53125" stop-color="#9747FF"/>
<stop offset="1" stop-color="#9747FF" stop-opacity="0"/>
</linearGradient>
<clipPath id="clip0_1440_217599">
<rect width="338" height="125" fill="white"/>
</clipPath>
<clipPath id="clip1_1440_217599">
<rect width="35" height="35" fill="white" transform="translate(151 45)"/>
</clipPath>
</defs>
</svg>
