<svg width="14" height="14" viewBox="0 0 14 14" fill="none" xmlns="http://www.w3.org/2000/svg">
<path fill-rule="evenodd" clip-rule="evenodd" d="M3.22159 6.12094C4.46369 6.05737 5.51032 5.25375 5.92918 4.14237L10.1158 5.88679C10.081 6.03344 10.0625 6.18644 10.0625 6.34375C10.0625 6.55497 10.0958 6.75842 10.1573 6.94915L5.96037 10.0015C5.51947 9.5023 4.87463 9.1875 4.15625 9.1875C4.04872 9.1875 3.94284 9.19455 3.83905 9.20822L3.22159 6.12094ZM6.45446 10.8786C6.52467 11.1046 6.5625 11.3447 6.5625 11.5938C6.5625 12.9227 5.48519 14 4.15625 14C2.82731 14 1.75 12.9227 1.75 11.5938C1.75 10.7305 2.20456 9.97346 2.88737 9.54886L2.17658 5.99491C0.917168 5.61494 0 4.44583 0 3.0625C0 1.37113 1.37113 0 3.0625 0C4.75387 0 6.125 1.37113 6.125 3.0625C6.125 3.08848 6.12468 3.11439 6.12403 3.14022L10.591 5.00146C10.9504 4.61602 11.4627 4.375 12.0312 4.375C13.1186 4.375 14 5.25644 14 6.34375C14 7.43106 13.1186 8.3125 12.0312 8.3125C11.517 8.3125 11.0487 8.1153 10.698 7.7924L6.45446 10.8786Z" fill="#909096"/>
<zoom style="dark" value="|:#F5F5F5"/>
<zoom style="selected" value="|:#F5F5F5"/>
<zoom style="hover" value="|:#2E2E2E"/>
<zoom style="hover_dark" value="|:#F5F5F5"/>
<zoom style="avatar" value="|:#909096"/>
<zoom style="avatar_dark" value="|:#F5F5F5"/>
</svg>
