<svg width="16" height="16" viewBox="0 0 16 16" fill="none" xmlns="http://www.w3.org/2000/svg">
<path d="M11 0C11.2706 0 11.5179 0.152859 11.6389 0.394847L12.961 3.03903L15.6052 4.36112C15.8471 4.48212 16 4.72945 16 5C16 5.27055 15.8471 5.51788 15.6052 5.63888L12.961 6.96097L11.6389 9.60515C11.5179 9.84714 11.2706 10 11 10C10.7294 10 10.4821 9.84714 10.3611 9.60515L9.03903 6.96097L6.39484 5.63888C6.15286 5.51788 6 5.27055 6 5C6 4.72945 6.15286 4.48212 6.39484 4.36112L9.03903 3.03903L10.3611 0.394847C10.4821 0.152859 10.7294 0 11 0Z" fill="#909096"/>
<path d="M3.5 7.99999C3.76514 7.99999 4.00752 8.14979 4.1261 8.38694L4.95508 10.0449L6.61305 10.8739C6.8502 10.9925 7 11.2348 7 11.5C7 11.7651 6.8502 12.0075 6.61305 12.1261L4.95508 12.9551L4.1261 14.613C4.00752 14.8502 3.76514 15 3.5 15C3.23486 15 2.99247 14.8502 2.8739 14.613L2.04492 12.9551L0.38695 12.1261C0.149802 12.0075 0 11.7651 0 11.5C0 11.2348 0.149802 10.9925 0.38695 10.8739L2.04492 10.0449L2.8739 8.38694C2.99247 8.14979 3.23486 7.99999 3.5 7.99999Z" fill="#909096"/>
<path d="M14.2453 11.4606C14.1042 11.1783 13.8156 11 13.5 11C13.1843 11 12.8958 11.1783 12.7546 11.4606L12.3233 12.3233L11.4606 12.7546C11.1783 12.8958 11 13.1844 11 13.5C11 13.8156 11.1783 14.1042 11.4606 14.2454L12.3233 14.6767L12.7546 15.5393C12.8958 15.8217 13.1843 16 13.5 16C13.8156 16 14.1042 15.8217 14.2453 15.5393L14.6767 14.6767L15.5393 14.2454C15.8216 14.1042 16 13.8156 16 13.5C16 13.1844 15.8216 12.8958 15.5393 12.7546L14.6767 12.3233L14.2453 11.4606Z" fill="#909096"/>
<zoom style="dark" value="|:#FFFFFF89|:#FFFFFF89|:#FFFFFF89"/><zoom style="selected" value="|:#F5F5F5|:#F5F5F5|:#F5F5F5"/>
</svg>
