<svg width="338" height="125" viewBox="0 0 338 125" fill="none" xmlns="http://www.w3.org/2000/svg">
<g clip-path="url(#clip0_1441_57108)">
<circle cx="54" cy="72" r="26" fill="#0B5CFF"/>
<path d="M49.7253 71.314C51.6836 71.314 53.2856 69.6767 53.3034 67.657C53.3213 65.6373 51.7483 64 49.79 64C47.8317 64 46.2297 65.6373 46.2118 67.657C46.1939 69.6767 47.767 71.314 49.7253 71.314Z" fill="white"/>
<path d="M61.7106 69.2569C61.6938 71.1504 60.1919 72.6854 58.356 72.6854C56.5201 72.6854 55.0454 71.1504 55.0622 69.2569C55.0789 67.3635 56.5808 65.8285 58.4167 65.8285C60.2526 65.8285 61.7274 67.3635 61.7106 69.2569Z" fill="white"/>
<path d="M49.7091 73.1425C45.72 73.1425 43.0444 74.9845 43.0242 77.2566C43.0108 78.7714 44.1906 79.9994 45.6593 79.9994H53.6374C53.7583 79.9994 53.8774 79.9911 53.9941 79.9749C54.0547 79.9666 54.1146 79.9561 54.1738 79.9437C55.3879 79.6879 56.3093 78.5821 56.321 77.2566C56.3288 76.3842 55.9439 75.5752 55.2409 74.9095C54.113 73.8415 52.1664 73.1425 49.7091 73.1425Z" fill="white"/>
<path d="M62.2803 79.9994H56.6107C57.2488 79.2715 57.6414 78.3103 57.6507 77.2566C57.6596 76.2502 57.3258 75.3547 56.7707 74.6021C57.2544 74.5444 57.7774 74.5139 58.3398 74.5139C62.3289 74.5139 64.3098 76.0488 64.2931 77.9423C64.283 79.0784 63.3819 79.9994 62.2803 79.9994Z" fill="white"/>
<circle cx="258.5" cy="38.5" r="13.5" fill="#0B5CFF"/>
<path fill-rule="evenodd" clip-rule="evenodd" d="M252.875 34.8937C252.875 33.7103 253.835 32.75 255.019 32.75H262.981C264.165 32.75 265.125 33.7103 265.125 34.8937V39.4449C265.125 40.6284 264.165 41.5886 262.981 41.5886H259.372C258.885 41.5886 258.418 41.7825 258.073 42.1271L255.897 44.3031C255.772 44.4282 255.584 44.4657 255.42 44.3979C255.257 44.3302 255.15 44.1707 255.15 43.9937V41.7199C255.15 41.6476 255.091 41.5886 255.019 41.5886C253.835 41.5886 252.875 40.6284 252.875 39.4449V34.8937Z" fill="white"/>
<circle cx="293.5" cy="86.5" r="21.5" fill="#0B5CFF"/>
<path fill-rule="evenodd" clip-rule="evenodd" d="M294.522 92.7907C294.407 93.3307 294.751 93.8623 295.291 93.978C295.831 94.0937 296.362 93.7498 296.478 93.2097L297.166 90.0002H301C301.552 90.0002 302 89.5525 302 89.0002C302 88.4479 301.552 88.0002 301 88.0002H297.594L298.451 84.0002H301C301.552 84.0002 302 83.5525 302 83.0002C302 82.4479 301.552 82.0002 301 82.0002H298.88L299.478 79.2097C299.594 78.6697 299.25 78.1381 298.71 78.0224C298.17 77.9067 297.638 78.2507 297.522 78.7907L296.835 82.0002H292.88L293.478 79.2097C293.594 78.6697 293.25 78.1381 292.71 78.0224C292.17 77.9067 291.638 78.2507 291.522 78.7907L290.835 82.0002H287C286.448 82.0002 286 82.4479 286 83.0002C286 83.5525 286.448 84.0002 287 84.0002H290.406L289.549 88.0002H287C286.448 88.0002 286 88.4479 286 89.0002C286 89.5525 286.448 90.0002 287 90.0002H289.12L288.522 92.7907C288.407 93.3307 288.751 93.8623 289.291 93.978C289.831 94.0937 290.362 93.7498 290.478 93.2097L291.166 90.0002H295.12L294.522 92.7907ZM291.594 88.0002H295.549L296.406 84.0002H292.451L291.594 88.0002Z" fill="white"/>
<circle cx="149.5" cy="14.5" r="10.5" fill="#0B5CFF"/>
<path fill-rule="evenodd" clip-rule="evenodd" d="M149.594 13.9991C151.214 13.9991 152.511 12.6866 152.492 11.0674C152.473 9.44831 151.144 8.13574 149.525 8.13574C147.906 8.13574 146.609 9.44831 146.628 11.0674C146.647 12.6866 147.975 13.9991 149.594 13.9991ZM149.612 15.465C146.68 15.465 144.496 16.7775 144.515 18.3967C144.525 19.2062 145.29 19.8625 145.999 19.8625H153.328C154.037 19.8625 154.787 19.2062 154.777 18.3967C154.758 16.7775 152.544 15.465 149.612 15.465Z" fill="white"/>
<path fill-rule="evenodd" clip-rule="evenodd" d="M192.902 52.6191L191.532 52.9164L190.861 52.2256L192.232 51.9284C192.416 51.8884 192.716 52.0105 192.901 52.2013C193.086 52.392 193.087 52.5791 192.902 52.6191ZM194.974 51.7517C194.789 51.561 194.788 51.3739 194.973 51.3339L197.714 50.7394C197.899 50.6994 198.198 50.8216 198.383 51.0123C198.568 51.203 198.569 51.3901 198.384 51.4301L195.643 52.0246C195.459 52.0646 195.159 51.9425 194.974 51.7517ZM200.456 50.5628C200.271 50.372 200.271 50.185 200.455 50.1449L203.196 49.5504C203.381 49.5104 203.68 49.6326 203.866 49.8233C204.051 50.014 204.051 50.2011 203.867 50.2411L201.125 50.8356C200.941 50.8757 200.641 50.7535 200.456 50.5628ZM205.938 49.3738C205.753 49.183 205.753 48.996 205.937 48.9559L208.678 48.3614C208.863 48.3214 209.163 48.4436 209.348 48.6343C209.533 48.8251 209.533 49.0121 209.349 49.0522L206.608 49.6466C206.423 49.6867 206.123 49.5645 205.938 49.3738ZM211.421 48.1848C211.235 47.994 211.235 47.807 211.419 47.767L214.161 47.1725C214.345 47.1324 214.645 47.2546 214.83 47.4453C215.015 47.6361 215.016 47.8231 214.831 47.8632L212.09 48.4577C211.905 48.4977 211.606 48.3755 211.421 48.1848ZM216.903 46.9958C216.718 46.8051 216.717 46.618 216.902 46.578L219.643 45.9835C219.827 45.9434 220.127 46.0656 220.312 46.2564C220.497 46.4471 220.498 46.6342 220.313 46.6742L217.572 47.2687C217.388 47.3087 217.088 47.1865 216.903 46.9958ZM222.385 45.8068C222.2 45.6161 222.199 45.429 222.384 45.389L225.125 44.7945C225.31 44.7545 225.609 44.8766 225.794 45.0674C225.979 45.2581 225.98 45.4452 225.795 45.4852L223.054 46.0797C222.87 46.1197 222.57 45.9975 222.385 45.8068ZM227.867 44.6178C227.682 44.4271 227.682 44.24 227.866 44.2L230.607 43.6055C230.792 43.5655 231.091 43.6876 231.277 43.8784C231.462 44.0691 231.462 44.2562 231.278 44.2962L228.536 44.8907C228.352 44.9307 228.052 44.8086 227.867 44.6178ZM233.349 43.4288C233.164 43.2381 233.164 43.051 233.348 43.011L236.089 42.4165C236.274 42.3765 236.574 42.4987 236.759 42.6894C236.944 42.8801 236.944 43.0672 236.76 43.1072L234.019 43.7017C233.834 43.7417 233.534 43.6196 233.349 43.4288ZM238.832 42.2399C238.646 42.0491 238.646 41.862 238.831 41.822L240.201 41.5248L240.871 42.2155L239.501 42.5127C239.316 42.5528 239.017 42.4306 238.832 42.2399Z" fill="#A477FF"/>
<path fill-rule="evenodd" clip-rule="evenodd" d="M167.28 17.1324L165.162 16.691L164.651 15.297L166.769 15.7384C167.054 15.7979 167.399 16.1581 167.541 16.5431C167.682 16.928 167.565 17.1918 167.28 17.1324ZM170.743 17.2106C170.602 16.8257 170.719 16.5618 171.004 16.6213L175.239 17.5041C175.524 17.5635 175.87 17.9238 176.011 18.3087C176.152 18.6936 176.035 18.9575 175.75 18.898L171.515 18.0152C171.23 17.9558 170.884 17.5955 170.743 17.2106ZM179.214 18.9762C179.072 18.5913 179.189 18.3275 179.474 18.3869L183.71 19.2697C183.995 19.3292 184.34 19.6894 184.482 20.0743C184.623 20.4592 184.506 20.7231 184.221 20.6637L179.985 19.7809C179.7 19.7214 179.355 19.3612 179.214 18.9762ZM187.684 20.7419C187.543 20.3569 187.66 20.0931 187.945 20.1525L192.18 21.0353C192.465 21.0948 192.811 21.455 192.952 21.8399C193.093 22.2249 192.976 22.4887 192.691 22.4293L188.456 21.5465C188.171 21.487 187.825 21.1268 187.684 20.7419ZM196.155 22.5075C196.014 22.1226 196.13 21.8587 196.415 21.9182L200.651 22.801C200.936 22.8604 201.281 23.2206 201.423 23.6056C201.564 23.9905 201.447 24.2544 201.162 24.1949L196.926 23.3121C196.641 23.2527 196.296 22.8924 196.155 22.5075ZM204.625 24.2731C204.484 23.8882 204.601 23.6243 204.886 23.6838L209.121 24.5666C209.406 24.626 209.752 24.9863 209.893 25.3712C210.034 25.7561 209.917 26.02 209.632 25.9606L205.397 25.0777C205.112 25.0183 204.766 24.6581 204.625 24.2731ZM213.096 26.0388C212.955 25.6538 213.071 25.39 213.356 25.4494L217.592 26.3322C217.877 26.3917 218.222 26.7519 218.364 27.1368C218.505 27.5218 218.388 27.7856 218.103 27.7262L213.868 26.8434C213.582 26.7839 213.237 26.4237 213.096 26.0388ZM221.566 27.8044C221.425 27.4195 221.542 27.1556 221.827 27.2151L226.062 28.0979C226.347 28.1573 226.693 28.5175 226.834 28.9025C226.975 29.2874 226.858 29.5513 226.573 29.4918L222.338 28.609C222.053 28.5496 221.707 28.1893 221.566 27.8044ZM230.037 29.57C229.896 29.1851 230.012 28.9212 230.297 28.9807L234.533 29.8635C234.818 29.9229 235.163 30.2832 235.305 30.6681C235.446 31.053 235.329 31.3169 235.044 31.2575L230.809 30.3746C230.523 30.3152 230.178 29.955 230.037 29.57ZM238.507 31.3357C238.366 30.9507 238.483 30.6869 238.768 30.7463L240.886 31.1877L241.397 32.5817L239.279 32.1403C238.994 32.0808 238.648 31.7206 238.507 31.3357Z" fill="#A477FF"/>
<path fill-rule="evenodd" clip-rule="evenodd" d="M82.7425 57.1747L81.206 58.196L80.0536 57.6712L81.5901 56.65C81.797 56.5125 82.2227 56.5185 82.541 56.6634C82.8592 56.8083 82.9494 57.0372 82.7425 57.1747ZM84.8647 55.1189C84.5464 54.974 84.4562 54.745 84.6631 54.6075L87.7361 52.565C87.943 52.4275 88.3687 52.4335 88.6869 52.5784C89.0052 52.7233 89.0954 52.9522 88.8885 53.0898L85.8155 55.1322C85.6086 55.2698 85.1829 55.2638 84.8647 55.1189ZM91.0106 51.0339C90.6924 50.889 90.6022 50.66 90.8091 50.5225L93.8821 48.48C94.089 48.3425 94.5147 48.3485 94.8329 48.4934C95.1511 48.6383 95.2414 48.8673 95.0345 49.0048L91.9615 51.0473C91.7546 51.1848 91.3289 51.1788 91.0106 51.0339ZM97.1566 46.9489C96.8384 46.804 96.7481 46.5751 96.955 46.4375L100.028 44.3951C100.235 44.2575 100.661 44.2635 100.979 44.4084C101.297 44.5533 101.387 44.7823 101.18 44.9198L98.1075 46.9623C97.9006 47.0998 97.4749 47.0938 97.1566 46.9489ZM103.303 42.8639C102.984 42.719 102.894 42.4901 103.101 42.3526L106.174 40.3101C106.381 40.1726 106.807 40.1785 107.125 40.3234C107.443 40.4683 107.533 40.6973 107.326 40.8348L104.253 42.8773C104.047 43.0148 103.621 43.0088 103.303 42.8639ZM109.449 38.779C109.13 38.6341 109.04 38.4051 109.247 38.2676L112.32 36.2251C112.527 36.0876 112.953 36.0936 113.271 36.2385C113.589 36.3834 113.679 36.6123 113.472 36.7498L110.399 38.7923C110.193 38.9298 109.767 38.9239 109.449 38.779ZM115.595 34.694C115.276 34.5491 115.186 34.3201 115.393 34.1826L118.466 32.1401C118.673 32.0026 119.099 32.0086 119.417 32.1535C119.735 32.2984 119.825 32.5273 119.618 32.6649L116.545 34.7073C116.338 34.8449 115.913 34.8389 115.595 34.694ZM121.741 30.609C121.422 30.4641 121.332 30.2351 121.539 30.0976L124.612 28.0551C124.819 27.9176 125.245 27.9236 125.563 28.0685C125.881 28.2134 125.971 28.4424 125.764 28.5799L122.691 30.6224C122.484 30.7599 122.059 30.7539 121.741 30.609ZM127.886 26.524C127.568 26.3791 127.478 26.1502 127.685 26.0126L130.758 23.9702C130.965 23.8326 131.391 23.8386 131.709 23.9835C132.027 24.1284 132.117 24.3574 131.91 24.4949L128.837 26.5374C128.63 26.6749 128.205 26.6689 127.886 26.524ZM134.032 22.439C133.714 22.2941 133.624 22.0652 133.831 21.9277L135.367 20.9064L136.52 21.4312L134.983 22.4524C134.776 22.5899 134.351 22.5839 134.032 22.439Z" fill="#A477FF"/>
<path fill-rule="evenodd" clip-rule="evenodd" d="M193.752 68.9853L191.697 68.4933L191.337 67.1384L193.392 67.6303C193.669 67.6966 193.973 68.0536 194.073 68.4278C194.172 68.8019 194.028 69.0516 193.752 68.9853ZM197.18 69.1718C197.081 68.7977 197.224 68.5481 197.501 68.6143L201.61 69.5983C201.887 69.6645 202.192 70.0215 202.291 70.3957C202.391 70.7699 202.247 71.0195 201.97 70.9532L197.861 69.9693C197.584 69.903 197.279 69.546 197.18 69.1718ZM205.398 71.1397C205.299 70.7656 205.443 70.516 205.72 70.5822L209.829 71.5662C210.105 71.6324 210.41 71.9895 210.51 72.3636C210.609 72.7378 210.465 72.9874 210.188 72.9211L206.079 71.9372C205.803 71.8709 205.498 71.5139 205.398 71.1397ZM213.617 73.1077C213.518 72.7335 213.661 72.4839 213.938 72.5501L218.047 73.5341C218.324 73.6003 218.629 73.9574 218.728 74.3315C218.827 74.7057 218.684 74.9553 218.407 74.8891L214.298 73.9051C214.021 73.8389 213.716 73.4818 213.617 73.1077ZM221.835 75.0756C221.736 74.7014 221.88 74.4518 222.156 74.5181L226.266 75.502C226.542 75.5683 226.847 75.9253 226.946 76.2995C227.046 76.6736 226.902 76.9232 226.625 76.857L222.516 75.873C222.239 75.8068 221.935 75.4498 221.835 75.0756ZM230.054 77.0435C229.954 76.6693 230.098 76.4197 230.375 76.486L234.484 77.4699C234.761 77.5362 235.065 77.8932 235.165 78.2674C235.264 78.6415 235.12 78.8912 234.844 78.8249L230.734 77.8409C230.458 77.7747 230.153 77.4177 230.054 77.0435ZM238.272 79.0114C238.173 78.6373 238.316 78.3876 238.593 78.4539L242.702 79.4379C242.979 79.5041 243.284 79.8611 243.383 80.2353C243.482 80.6095 243.339 80.8591 243.062 80.7928L238.953 79.8089C238.676 79.7426 238.371 79.3856 238.272 79.0114ZM246.49 80.9793C246.391 80.6052 246.535 80.3556 246.812 80.4218L250.921 81.4058C251.197 81.472 251.502 81.829 251.602 82.2032C251.701 82.5774 251.557 82.827 251.28 82.7607L247.171 81.7768C246.895 81.7105 246.59 81.3535 246.49 80.9793ZM254.709 82.9473C254.609 82.5731 254.753 82.3235 255.03 82.3897L259.139 83.3737C259.416 83.4399 259.721 83.797 259.82 84.1711C259.919 84.5453 259.776 84.7949 259.499 84.7287L255.39 83.7447C255.113 83.6785 254.808 83.3214 254.709 82.9473ZM262.927 84.9152C262.828 84.541 262.972 84.2914 263.248 84.3576L265.303 84.8496L265.663 86.2046L263.608 85.7126C263.331 85.6464 263.027 85.2893 262.927 84.9152Z" fill="#A477FF"/>
<path fill-rule="evenodd" clip-rule="evenodd" d="M83.8084 79.3502L81.9334 79.5578L81.2216 78.528L83.0966 78.3204C83.3491 78.2925 83.7131 78.5003 83.9097 78.7847C84.1062 79.069 84.0609 79.3222 83.8084 79.3502ZM86.7454 78.4707C86.5488 78.1863 86.5942 77.9331 86.8467 77.9052L90.5968 77.4899C90.8493 77.462 91.2133 77.6698 91.4098 77.9542C91.6064 78.2386 91.5611 78.4917 91.3086 78.5197L87.5585 78.9349C87.306 78.9629 86.942 78.755 86.7454 78.4707ZM94.2456 77.6402C94.049 77.3558 94.0943 77.1027 94.3468 77.0747L98.0969 76.6595C98.3494 76.6315 98.7134 76.8394 98.91 77.1237C99.1066 77.4081 99.0612 77.6613 98.8087 77.6892L95.0587 78.1045C94.8062 78.1324 94.4421 77.9246 94.2456 77.6402ZM101.746 76.8097C101.549 76.5254 101.595 76.2722 101.847 76.2442L105.597 75.829C105.85 75.801 106.214 76.0089 106.41 76.2932C106.607 76.5776 106.561 76.8308 106.309 76.8588L102.559 77.274C102.306 77.3019 101.942 77.0941 101.746 76.8097ZM109.246 75.9793C109.049 75.6949 109.095 75.4417 109.347 75.4138L113.097 74.9985C113.35 74.9706 113.714 75.1784 113.91 75.4628C114.107 75.7471 114.062 76.0003 113.809 76.0283L110.059 76.4435C109.806 76.4715 109.442 76.2636 109.246 75.9793ZM116.746 75.1488C116.549 74.8644 116.595 74.6112 116.847 74.5833L120.597 74.168C120.85 74.1401 121.214 74.3479 121.41 74.6323C121.607 74.9167 121.562 75.1698 121.309 75.1978L117.559 75.613C117.307 75.641 116.943 75.4331 116.746 75.1488ZM124.246 74.3183C124.05 74.0339 124.095 73.7808 124.347 73.7528L128.098 73.3376C128.35 73.3096 128.714 73.5175 128.911 73.8018C129.107 74.0862 129.062 74.3394 128.809 74.3673L125.059 74.7826C124.807 74.8105 124.443 74.6027 124.246 74.3183ZM131.746 73.4878C131.55 73.2035 131.595 72.9503 131.848 72.9223L135.598 72.5071C135.85 72.4791 136.214 72.687 136.411 72.9713C136.607 73.2557 136.562 73.5089 136.31 73.5369L132.559 73.9521C132.307 73.98 131.943 73.7722 131.746 73.4878ZM139.247 72.6574C139.05 72.373 139.095 72.1198 139.348 72.0919L143.098 71.6766C143.35 71.6487 143.714 71.8565 143.911 72.1409C144.108 72.4252 144.062 72.6784 143.81 72.7064L140.06 73.1216C139.807 73.1496 139.443 72.9417 139.247 72.6574ZM146.747 71.8269C146.55 71.5425 146.595 71.2893 146.848 71.2614L148.723 71.0538L149.435 72.0835L147.56 72.2911C147.307 72.3191 146.943 72.1112 146.747 71.8269Z" fill="#A477FF"/>
<path fill-rule="evenodd" clip-rule="evenodd" d="M152.576 26.1481L152.766 26.9246C152.79 27.0263 152.727 27.1238 152.623 27.1424C152.52 27.1609 152.415 27.0935 152.391 26.9918L152.201 26.2152L152.576 26.1481ZM152.913 28.3271C153.016 28.3085 153.12 28.376 153.145 28.4777L153.524 30.0308C153.549 30.1325 153.486 30.23 153.382 30.2486C153.278 30.2671 153.174 30.1997 153.15 30.098L152.77 28.5449C152.745 28.4431 152.809 28.3456 152.913 28.3271ZM153.671 31.4333C153.775 31.4147 153.879 31.4822 153.904 31.5839L154.283 33.137C154.308 33.2387 154.244 33.3362 154.141 33.3548C154.037 33.3733 153.933 33.3059 153.908 33.2042L153.529 31.6511C153.504 31.5493 153.568 31.4518 153.671 31.4333ZM154.43 34.5395C154.534 34.5209 154.638 34.5884 154.663 34.6901L155.042 36.2432C155.067 36.3449 155.003 36.4424 154.9 36.461C154.796 36.4795 154.692 36.4121 154.667 36.3103L154.288 34.7573C154.263 34.6555 154.327 34.558 154.43 34.5395ZM155.189 37.6457C155.293 37.6271 155.397 37.6946 155.422 37.7963L155.801 39.3494C155.826 39.4511 155.762 39.5486 155.659 39.5672C155.555 39.5857 155.451 39.5183 155.426 39.4165L155.047 37.8634C155.022 37.7617 155.086 37.6642 155.189 37.6457ZM155.948 40.7519C156.052 40.7333 156.156 40.8008 156.181 40.9025L156.56 42.4556C156.585 42.5573 156.521 42.6548 156.418 42.6734C156.314 42.6919 156.21 42.6245 156.185 42.5227L155.806 40.9696C155.781 40.8679 155.845 40.7704 155.948 40.7519ZM156.707 43.8581C156.811 43.8395 156.915 43.907 156.94 44.0087L157.129 44.7852L156.754 44.8524L156.565 44.0758C156.54 43.9741 156.604 43.8766 156.707 43.8581Z" fill="#A477FF"/>
<path fill-rule="evenodd" clip-rule="evenodd" d="M269.954 51.6832L269 50.4726L269.553 50L270.507 51.2106C270.632 51.3697 270.61 51.6044 270.457 51.7349C270.305 51.8654 270.079 51.8422 269.954 51.6832ZM271.911 53.5802C272.064 53.4497 272.289 53.4728 272.415 53.6319L274.323 56.0531C274.448 56.2121 274.426 56.4469 274.273 56.5773C274.12 56.7078 273.895 56.6847 273.77 56.5257L271.862 54.1044C271.736 53.9454 271.759 53.7107 271.911 53.5802ZM275.727 58.4227C275.88 58.2922 276.105 58.3153 276.23 58.4743L278.138 60.8956C278.264 61.0546 278.241 61.2893 278.089 61.4198C277.936 61.5503 277.711 61.5272 277.585 61.3681L275.677 58.9469C275.552 58.7879 275.574 58.5531 275.727 58.4227ZM279.543 63.2651C279.695 63.1346 279.921 63.1578 280.046 63.3168L281 64.5274L280.447 65L279.493 63.7894C279.368 63.6303 279.39 63.3956 279.543 63.2651Z" fill="#A477FF"/>
<g clip-path="url(#clip1_1441_57108)">
<path fill-rule="evenodd" clip-rule="evenodd" d="M160.219 60.9966C163.171 60.9059 165.663 58.987 166.601 56.3339L176.157 60.3156C176.055 60.693 176 61.0901 176 61.5C176 62.0354 176.094 62.549 176.265 63.0253L166.717 69.9692C165.708 68.7654 164.194 68 162.5 68C162.205 68 161.916 68.0232 161.633 68.0679L160.219 60.9966ZM167.706 71.7227C167.897 72.2802 168 72.878 168 73.5C168 76.5376 165.538 79 162.5 79C159.462 79 157 76.5376 157 73.5C157 71.4726 158.097 69.7014 159.73 68.7476L158.13 60.7473C155.172 59.9292 153 57.2182 153 54C153 50.134 156.134 47 160 47C163.866 47 167 50.134 167 54C167 54.1107 166.997 54.2207 166.992 54.3301L177.107 58.5444C177.932 57.5981 179.146 57 180.5 57C182.985 57 185 59.0147 185 61.5C185 63.9853 182.985 66 180.5 66C179.272 66 178.159 65.5083 177.347 64.7111L167.706 71.7227Z" fill="#0B5CFF"/>
</g>
</g>
<defs>
<clipPath id="clip0_1441_57108">
<rect width="338" height="125" fill="white"/>
</clipPath>
<clipPath id="clip1_1441_57108">
<rect width="32" height="32" fill="white" transform="translate(153 47)"/>
</clipPath>
</defs>
</svg>
