<svg width="14" height="14" viewBox="0 0 14 14" fill="none" xmlns="http://www.w3.org/2000/svg">
<path d="M13.8285 1.68521L12.3148 0.171463C12.0862 -0.0571541 11.7155 -0.0571544 11.4869 0.171463L10.951 0.70732L13.2927 3.04896L13.8285 2.5131C14.0572 2.28449 14.0572 1.91383 13.8285 1.68521Z" fill="#222230"/>
<path d="M10.3323 1.32604L12.6739 3.66768L8.91664 7.425C8.82707 7.51457 8.71087 7.57267 8.58548 7.59058L6.62627 7.87047C6.3365 7.91187 6.08814 7.6635 6.12953 7.37373L6.40942 5.41452C6.42733 5.28913 6.48543 5.17293 6.575 5.08336L10.3323 1.32604Z" fill="#222230"/>
<path d="M7.43347 1.75H2.625C1.6585 1.75 0.875 2.5335 0.875 3.5V11.375C0.875 12.3415 1.6585 13.125 2.625 13.125H10.5C11.4665 13.125 12.25 12.3415 12.25 11.375V6.5665L13.125 5.6915V11.375C13.125 12.8247 11.9497 14 10.5 14H2.625C1.17525 14 0 12.8247 0 11.375V3.5C0 2.05025 1.17525 0.875 2.625 0.875H8.30847L7.43347 1.75Z" fill="#222230"/>
<zoom style="dark" value="|:#F5F5F5|:#F5F5F5|:#F5F5F5"/>
<zoom style="hover" value="|:#F5F5F5|:#F5F5F5|:#F5F5F5"/>
</svg>
