<svg width="14" height="14" viewBox="0 0 14 14" fill="none" xmlns="http://www.w3.org/2000/svg">
<path fill-rule="evenodd" clip-rule="evenodd" d="M6.125 6.125C7.81637 6.125 9.1875 4.75387 9.1875 3.0625C9.1875 1.37113 7.81637 0 6.125 0C4.43363 0 3.0625 1.37113 3.0625 3.0625C3.0625 4.75387 4.43363 6.125 6.125 6.125ZM6.125 5.25C7.33312 5.25 8.3125 4.27062 8.3125 3.0625C8.3125 1.85438 7.33312 0.875 6.125 0.875C4.91688 0.875 3.9375 1.85438 3.9375 3.0625C3.9375 4.27062 4.91688 5.25 6.125 5.25Z" fill="#222230"/>
<path d="M11.375 7.875C11.375 8.11662 11.5709 8.3125 11.8125 8.3125C12.0541 8.3125 12.25 8.11662 12.25 7.875V6.5625H13.5625C13.8041 6.5625 14 6.36662 14 6.125C14 5.88338 13.8041 5.6875 13.5625 5.6875H12.25V4.375C12.25 4.13338 12.0541 3.9375 11.8125 3.9375C11.5709 3.9375 11.375 4.13338 11.375 4.375V5.6875H10.0625C9.82088 5.6875 9.625 5.88338 9.625 6.125C9.625 6.36662 9.82088 6.5625 10.0625 6.5625H11.375V7.875Z" fill="#222230"/>
<path fill-rule="evenodd" clip-rule="evenodd" d="M0 11.55C0 9.52035 2.45 7.875 6.125 7.875C9.8 7.875 12.25 9.52035 12.25 11.55C12.25 12.9031 11.1531 14 9.8 14H2.45C1.0969 14 0 12.9031 0 11.55ZM0.875 11.55C0.875 10.9263 1.24574 10.2533 2.14569 9.6949C3.04654 9.13597 4.40749 8.75 6.125 8.75C7.84251 8.75 9.20346 9.13597 10.1043 9.6949C11.0043 10.2533 11.375 10.9263 11.375 11.55C11.375 12.4198 10.6698 13.125 9.8 13.125H2.45C1.58015 13.125 0.875 12.4198 0.875 11.55Z" fill="#222230"/>
<zoom style="dark" value="|:#F5F5F5|:#F5F5F5|:#F5F5F5"/>
<zoom style="hover" value="|:#F5F5F5|:#F5F5F5|:#F5F5F5"/>
</svg>
