<svg width="14" height="14" viewBox="0 0 14 14" fill="none" xmlns="http://www.w3.org/2000/svg">
<path fill-rule="evenodd" clip-rule="evenodd" d="M3.15837 6.12353C4.44999 6.08381 5.54027 5.24432 5.95064 4.0836L10.1314 5.82558C10.0865 5.99068 10.0625 6.16442 10.0625 6.34375C10.0625 6.57799 10.1034 6.80268 10.1785 7.01105L6.00127 10.049C5.55987 9.52237 4.89717 9.1875 4.15625 9.1875C4.02725 9.1875 3.90061 9.19765 3.7771 9.2172L3.15837 6.12353ZM6.43409 10.8162C6.51733 11.0601 6.5625 11.3216 6.5625 11.5938C6.5625 12.9227 5.48519 14 4.15625 14C2.82731 14 1.75 12.9227 1.75 11.5938C1.75 10.7068 2.22992 9.93187 2.94425 9.51457L2.24423 6.01446C0.950146 5.65653 0 4.47048 0 3.0625C0 1.37113 1.37113 0 3.0625 0C4.75387 0 6.125 1.37113 6.125 3.0625C6.125 3.11092 6.12388 3.15907 6.12165 3.20694L10.5466 5.05068C10.9076 4.63665 11.4389 4.375 12.0312 4.375C13.1186 4.375 14 5.25644 14 6.34375C14 7.43106 13.1186 8.3125 12.0312 8.3125C11.4941 8.3125 11.0072 8.09739 10.652 7.74861L6.43409 10.8162Z" fill="#6E7680"/>
<zoom style="dark" value="|:#98A0A9"/>
</svg>
