<svg width="338" height="125" viewBox="0 0 338 125" fill="none" xmlns="http://www.w3.org/2000/svg">
<mask id="mask0_1441_57048" style="mask-type:alpha" maskUnits="userSpaceOnUse" x="55" y="19" width="229" height="106">
<rect x="55" y="19.7422" width="228.821" height="105.258" fill="#C4C4C4"/>
</mask>
<g mask="url(#mask0_1441_57048)">
<path d="M125.198 30.1718C125.321 29.418 126.392 29.418 126.514 30.1718L126.894 32.5035L129.198 32.8875C129.943 33.0117 129.943 34.0955 129.198 34.2197L126.894 34.6038L126.514 36.9354C126.392 37.6892 125.321 37.6892 125.198 36.9354L124.818 34.6038L122.514 34.2197C121.77 34.0955 121.77 33.0117 122.514 32.8875L124.818 32.5035L125.198 30.1718Z" fill="#E6F1FF"/>
<path d="M252.931 96.2406C253.115 95.1099 254.721 95.1099 254.905 96.2406L255.474 99.7381L258.93 100.314C260.048 100.5 260.048 102.126 258.93 102.312L255.474 102.889L254.905 106.386C254.721 107.517 253.115 107.517 252.931 106.386L252.361 102.889L248.905 102.312C247.788 102.126 247.788 100.5 248.905 100.314L252.361 99.7381L252.931 96.2406Z" fill="#E6F1FF"/>
<path d="M82.9363 84.6766C83.1816 83.169 85.3236 83.169 85.569 84.6766L86.328 89.3399L90.9361 90.1081C92.4258 90.3564 92.4258 92.5241 90.9361 92.7724L86.328 93.5405L85.569 98.2039C85.3236 99.7115 83.1816 99.7115 82.9363 98.2039L82.1772 93.5405L77.5692 92.7724C76.0795 92.5241 76.0795 90.3564 77.5692 90.1081L82.1772 89.3399L82.9363 84.6766Z" fill="#E6F1FF"/>
<rect opacity="0.8" x="112.206" y="74.7646" width="113.823" height="92.9964" rx="5.7216" fill="#A4C4FF"/>
<path d="M192.656 118.177L184.431 123.716L189.685 131.715C189.856 131.975 190.254 131.889 190.308 131.581L192.656 118.177Z" fill="#E6F1FF"/>
<rect opacity="0.5" width="79.1237" height="28.4144" rx="3.09876" transform="matrix(0.832864 -0.553554 0.549633 0.835273 160.311 105.641)" fill="#A477FF"/>
<path fill-rule="evenodd" clip-rule="evenodd" d="M179.327 110.085C180.166 109.519 180.395 108.376 179.839 107.531C179.282 106.686 178.15 106.459 177.311 107.025C176.472 107.59 176.242 108.734 176.799 109.579C177.356 110.424 178.487 110.65 179.327 110.085ZM179.831 110.85C178.311 111.874 177.622 113.327 178.179 114.172C178.457 114.594 179.076 114.672 179.443 114.425L183.242 111.865C183.61 111.618 183.777 111.011 183.498 110.588C182.942 109.743 181.351 109.826 179.831 110.85Z" fill="white"/>
<rect width="47.5665" height="13.3008" rx="2.5823" transform="matrix(0.833515 -0.55253 0.549625 0.835278 184.699 98.5049)" fill="white"/>
<path d="M92.0713 59.4272L84.5769 52.8857L78.3635 60.1765C78.1619 60.413 78.3492 60.7778 78.6566 60.7476L92.0713 59.4272Z" fill="#89BEFF"/>
<rect width="79.2674" height="28.4712" rx="3.09876" transform="matrix(0.753568 0.657374 -0.64868 0.761053 95.1873 24.3516)" fill="#89BEFF"/>
<path fill-rule="evenodd" clip-rule="evenodd" d="M95.972 44.1275C96.7344 44.793 97.8847 44.7081 98.5411 43.9378C99.1975 43.1676 99.1116 42.0037 98.3492 41.3382C97.5867 40.6727 96.4365 40.7576 95.78 41.5279C95.1236 42.2981 95.2095 43.462 95.972 44.1275ZM95.3777 44.8248C93.9971 43.6198 92.4296 43.3405 91.7731 44.1107C91.4449 44.4958 91.5355 45.1194 91.8691 45.4105L95.3204 48.423C95.654 48.7141 96.2768 48.7133 96.605 48.3282C97.2614 47.5579 96.7582 46.0298 95.3777 44.8248Z" fill="white"/>
<rect width="47.6861" height="13.2873" rx="2.5823" transform="matrix(0.753602 0.657333 -0.648656 0.761074 108.588 46.123)" fill="white"/>
<path fill-rule="evenodd" clip-rule="evenodd" d="M117.927 68.4238C114.767 68.4238 112.205 70.9855 112.205 74.1454V112.808H112.205V162.034C112.205 165.194 114.767 167.756 117.927 167.756H220.307C223.467 167.756 226.028 165.194 226.028 162.034V92.1054C226.028 88.9454 223.467 86.3838 220.307 86.3838H173.551L161.956 70.7387C160.877 69.2826 159.172 68.4238 157.359 68.4238H117.927Z" fill="#0B5CFF"/>
</g>
<g opacity="0.6">
<path d="M186.953 50.2293L178.23 54.6641L182.382 63.1126C182.519 63.3915 182.925 63.3555 183.017 63.0563L186.953 50.2293Z" fill="#0B5CFF"/>
<rect width="78.8605" height="27.6791" rx="3.09876" transform="matrix(0.90393 -0.428089 0.443184 0.895981 157.272 33.7598)" fill="#0B5CFF"/>
<rect width="47.252" height="13.1171" rx="2.5823" transform="matrix(0.90637 -0.422863 0.448786 0.893426 182.443 29.9326)" fill="white"/>
<path d="M171.557 41.2187C172.899 40.5529 173.451 38.9348 172.791 37.6046C172.13 36.2745 170.506 35.7359 169.165 36.4017C167.823 37.0675 167.271 38.6856 167.932 40.0157C168.592 41.3459 170.216 41.8845 171.557 41.2187Z" fill="white"/>
<path d="M179.084 35.7952C179.704 37.0422 179.186 38.5591 177.928 39.1833C176.67 39.8075 175.148 39.3026 174.529 38.0556C173.909 36.8085 174.427 35.2916 175.685 34.6674C176.943 34.0432 178.465 34.5481 179.084 35.7952Z" fill="white"/>
<path d="M172.156 42.4229C169.422 43.7792 168.203 45.8964 168.946 47.3929C169.442 48.3905 170.659 48.7944 171.666 48.2951L177.132 45.5826C177.215 45.5415 177.294 45.4955 177.368 45.4453C177.407 45.4192 177.445 45.392 177.481 45.3637C178.228 44.7832 178.491 43.745 178.057 42.8721C177.772 42.2975 177.238 41.898 176.535 41.7006C175.406 41.3839 173.839 41.5874 172.156 42.4229Z" fill="white"/>
<path d="M183.054 42.6441L179.169 44.5717C179.364 43.8776 179.313 43.1139 178.968 42.42C178.639 41.7571 178.112 41.2836 177.481 40.9789C177.793 40.7766 178.141 40.5788 178.526 40.3876C181.26 39.0313 183.128 39.3641 183.748 40.6112C184.12 41.3594 183.809 42.2695 183.054 42.6441Z" fill="white"/>
</g>
</svg>
