<svg width="1200" height="240" viewBox="0 0 1200 240" fill="none" xmlns="http://www.w3.org/2000/svg">
<g clip-path="url(#clip0_1593_204990)">
<rect width="1200" height="240" fill="#4F90EE" fill-opacity="0.1"/>
<g opacity="0.1">
<circle cx="1074.5" cy="492.5" r="620.5" fill="url(#paint0_radial_1593_204990)" fill-opacity="0.6"/>
<circle opacity="0.6" cx="235" cy="-243" r="685" fill="url(#paint1_radial_1593_204990)" fill-opacity="0.6"/>
<ellipse opacity="0.8" cx="992" cy="-25" rx="453" ry="237" fill="url(#paint2_radial_1593_204990)" fill-opacity="0.2"/>
</g>
<path d="M15.598 -29C25.5104 16.4851 125.296 51.2293 221.302 63.7789C317.308 76.3285 339.879 40.8505 307.247 23.2396C292.245 15.1434 199.539 3.29259 190.37 80.4754C171.669 237.882 544.711 289.011 870.773 236.92C1051.43 208.059 1137.57 15.5361 975 23.2394C811.474 30.9882 869.638 207.62 1156 221.5" stroke="#A8CCF8" stroke-width="0.709796"/>
<path d="M1134.39 116.442L1129.84 75.9658C1129.07 69.126 1122.91 64.2035 1116.07 64.9712L938.966 84.8483C932.126 85.6159 927.203 91.7831 927.971 98.6229L932.514 139.099C933.282 145.939 939.449 150.861 946.289 150.094L1090.29 133.932C1092.01 133.738 1093.74 134.227 1095.11 135.293L1117.15 152.47C1117.61 152.825 1118.27 152.456 1118.2 151.881L1116.03 132.517C1115.94 131.713 1116.52 130.988 1117.32 130.898L1123.39 130.216C1130.23 129.449 1135.15 123.282 1134.39 116.442Z" stroke="#A8CCF8" stroke-width="2.86111"/>
<rect x="951.945" y="116.711" width="1.2561" height="3.76829" rx="0.628049" transform="rotate(-6.40381 951.945 116.711)" fill="#E7F1FD" stroke="#A8CCF8" stroke-width="1.2561"/>
<rect x="987.992" y="100.026" width="1.2561" height="27.6341" rx="0.628049" transform="rotate(-6.40381 987.992 100.026)" fill="#E7F1FD" stroke="#A8CCF8" stroke-width="1.2561"/>
<rect x="1100.2" y="86.1688" width="1.2561" height="31.4024" rx="0.628049" transform="rotate(-6.40381 1100.2 86.1688)" fill="#E7F1FD" stroke="#A8CCF8" stroke-width="1.2561"/>
<rect x="1047.21" y="87.0599" width="1.2561" height="40.1951" rx="0.628049" transform="rotate(-6.40381 1047.21 87.0599)" fill="#E7F1FD" stroke="#A8CCF8" stroke-width="1.2561"/>
<rect x="959.015" y="112.126" width="1.2561" height="10.0488" rx="0.628049" transform="rotate(-6.40381 959.015 112.126)" fill="#E7F1FD" stroke="#A8CCF8" stroke-width="1.2561"/>
<rect x="996.462" y="107.923" width="1.2561" height="10.0488" rx="0.628049" transform="rotate(-6.40381 996.462 107.923)" fill="#E7F1FD" stroke="#A8CCF8" stroke-width="1.2561"/>
<rect x="1108.81" y="95.3142" width="1.2561" height="10.0488" rx="0.628049" transform="rotate(-6.40381 1108.81 95.3142)" fill="#E7F1FD" stroke="#A8CCF8" stroke-width="1.2561"/>
<rect x="1056.38" y="101.198" width="1.2561" height="10.0488" rx="0.628049" transform="rotate(-6.40381 1056.38 101.198)" fill="#E7F1FD" stroke="#A8CCF8" stroke-width="1.2561"/>
<rect x="965.664" y="103.796" width="1.2561" height="25.122" rx="0.628049" transform="rotate(-6.40381 965.664 103.796)" fill="#E7F1FD" stroke="#A8CCF8" stroke-width="1.2561"/>
<rect x="1025.58" y="97.0712" width="1.2561" height="25.122" rx="0.628049" transform="rotate(-6.40381 1025.58 97.0712)" fill="#E7F1FD" stroke="#A8CCF8" stroke-width="1.2561"/>
<rect x="1003.11" y="99.593" width="1.2561" height="25.122" rx="0.628049" transform="rotate(-6.40381 1003.11 99.593)" fill="#E7F1FD" stroke="#A8CCF8" stroke-width="1.2561"/>
<rect x="1063.03" y="92.8683" width="1.2561" height="25.122" rx="0.628049" transform="rotate(-6.40381 1063.03 92.8683)" fill="#E7F1FD" stroke="#A8CCF8" stroke-width="1.2561"/>
<rect x="973.713" y="107.948" width="1.2561" height="15.0732" rx="0.628049" transform="rotate(-6.40381 973.713 107.948)" fill="#E7F1FD" stroke="#A8CCF8" stroke-width="1.2561"/>
<rect x="1032.93" y="94.9824" width="1.2561" height="28.8902" rx="0.628049" transform="rotate(-6.40381 1032.93 94.9824)" fill="#E7F1FD" stroke="#A8CCF8" stroke-width="1.2561"/>
<rect x="1011.16" y="103.745" width="1.2561" height="15.0732" rx="0.628049" transform="rotate(-6.40381 1011.16 103.745)" fill="#E7F1FD" stroke="#A8CCF8" stroke-width="1.2561"/>
<rect x="1086.06" y="95.3395" width="1.2561" height="15.0732" rx="0.628049" transform="rotate(-6.40381 1086.06 95.3395)" fill="#E7F1FD" stroke="#A8CCF8" stroke-width="1.2561"/>
<rect x="1071.08" y="97.0208" width="1.2561" height="15.0732" rx="0.628049" transform="rotate(-6.40381 1071.08 97.0208)" fill="#E7F1FD" stroke="#A8CCF8" stroke-width="1.2561"/>
<rect x="981.203" y="107.108" width="1.2561" height="15.0732" rx="0.628049" transform="rotate(-6.40381 981.203 107.108)" fill="#E7F1FD" stroke="#A8CCF8" stroke-width="1.2561"/>
<rect x="1040.28" y="92.8936" width="1.2561" height="32.6585" rx="0.628049" transform="rotate(-6.40381 1040.28 92.8936)" fill="#E7F1FD" stroke="#A8CCF8" stroke-width="1.2561"/>
<rect x="1018.65" y="102.905" width="1.2561" height="15.0732" rx="0.628049" transform="rotate(-6.40381 1018.65 102.905)" fill="#E7F1FD" stroke="#A8CCF8" stroke-width="1.2561"/>
<rect x="1093.55" y="94.4989" width="1.2561" height="15.0732" rx="0.628049" transform="rotate(-6.40381 1093.55 94.4989)" fill="#E7F1FD" stroke="#A8CCF8" stroke-width="1.2561"/>
<rect x="1078.57" y="96.1801" width="1.2561" height="15.0732" rx="0.628049" transform="rotate(-6.40381 1078.57 96.1801)" fill="#E7F1FD" stroke="#A8CCF8" stroke-width="1.2561"/>
<path d="M134.59 88.6892L138.326 68.4622C139.7 61.0272 146.841 56.1135 154.276 57.487L208.97 67.5914C216.405 68.965 221.319 76.1057 219.945 83.5407L216.215 103.734C214.841 111.169 207.7 116.083 200.265 114.709L164.49 108.1C163.151 107.853 161.769 108.147 160.647 108.919L146.546 118.622C145.039 119.659 143.031 118.357 143.363 116.558L145.565 104.638C145.568 104.62 145.556 104.602 145.537 104.599C138.121 103.229 133.22 96.1056 134.59 88.6892Z" fill="#A8CCF8"/>
<circle cx="154.962" cy="82.7004" r="6.34347" transform="rotate(10.4669 154.962 82.7004)" fill="#4793F1"/>
<circle cx="177.141" cy="86.7979" r="6.34347" transform="rotate(10.4669 177.141 86.7979)" fill="#4793F1"/>
<circle cx="199.32" cy="90.8953" r="6.34347" transform="rotate(10.4669 199.32 90.8953)" fill="#4793F1"/>
</g>
<defs>
<radialGradient id="paint0_radial_1593_204990" cx="0" cy="0" r="1" gradientUnits="userSpaceOnUse" gradientTransform="translate(1074.5 492.5) rotate(90) scale(620.5)">
<stop stop-color="#0B5CFF" stop-opacity="0.4"/>
<stop offset="0.65625" stop-color="#0B5CFF" stop-opacity="0.2"/>
<stop offset="1" stop-color="#D7E6FC" stop-opacity="0"/>
</radialGradient>
<radialGradient id="paint1_radial_1593_204990" cx="0" cy="0" r="1" gradientUnits="userSpaceOnUse" gradientTransform="translate(235 -243) rotate(90) scale(685)">
<stop stop-color="#0B5CFF" stop-opacity="0.4"/>
<stop offset="0.65625" stop-color="#0B5CFF" stop-opacity="0.2"/>
<stop offset="1" stop-color="#D7E6FC" stop-opacity="0"/>
</radialGradient>
<radialGradient id="paint2_radial_1593_204990" cx="0" cy="0" r="1" gradientUnits="userSpaceOnUse" gradientTransform="translate(992 -25) rotate(90) scale(237 453)">
<stop stop-color="#00FF91"/>
<stop offset="0.65625" stop-color="#00FF91" stop-opacity="0.2"/>
<stop offset="1" stop-color="#D7E6FC" stop-opacity="0"/>
</radialGradient>
<clipPath id="clip0_1593_204990">
<rect width="1200" height="240" fill="white"/>
</clipPath>
</defs>
</svg>
