<svg width="14" height="14" viewBox="0 0 14 14" fill="none" xmlns="http://www.w3.org/2000/svg">
<path fill-rule="evenodd" clip-rule="evenodd" d="M0.875 2.1875V11.8125C0.875 12.0541 1.07088 12.25 1.3125 12.25H12.6875C12.9291 12.25 13.125 12.0541 13.125 11.8125V4.22917C13.125 3.98754 12.9291 3.79167 12.6875 3.79167H6.27287C5.77186 3.79167 5.31455 3.50644 5.09417 3.05649L4.57428 1.99506C4.50082 1.84508 4.34838 1.75 4.18138 1.75H1.3125C1.07088 1.75 0.875 1.94588 0.875 2.1875ZM0 2.1875C0 1.46263 0.587626 0.875 1.3125 0.875H4.18138C4.68239 0.875 5.13971 1.16023 5.36009 1.61017L5.87997 2.67161C5.95343 2.82159 6.10587 2.91667 6.27287 2.91667H12.6875C13.4124 2.91667 14 3.50429 14 4.22917V11.8125C14 12.5374 13.4124 13.125 12.6875 13.125H1.3125C0.587626 13.125 0 12.5374 0 11.8125V2.1875Z" fill="#222230"/>
<zoom style="dark" value="|:#F5F5F5"/>
<zoom style="hover" value="|:#F5F5F5"/>
</svg>
