<svg width="16" height="16" viewBox="0 0 16 16" fill="none" xmlns="http://www.w3.org/2000/svg">
<path fill-rule="evenodd" clip-rule="evenodd" d="M0 4.5C0 3.67157 0.671573 3 1.5 3H9C10.6569 3 12 4.34315 12 6V6.00002L14.8 3.90002C15.2944 3.5292 16 3.88198 16 4.50002V11.5C16 12.1181 15.2944 12.4708 14.8 12.1L12 10V11.5C12 12.3284 11.3284 13 10.5 13H3C1.34315 13 0 11.6569 0 10V4.5ZM8.35359 5.64644C8.54886 5.84171 8.54886 6.15829 8.35359 6.35355L6.70718 7.99997L8.35365 9.64644C8.54891 9.8417 8.54891 10.1583 8.35365 10.3535C8.15838 10.5488 7.8418 10.5488 7.64654 10.3535L6.00007 8.70707L4.3536 10.3535C4.15833 10.5488 3.84175 10.5488 3.64649 10.3535C3.45123 10.1583 3.45123 9.84171 3.64649 9.64644L5.29296 7.99997L3.64654 6.35354C3.45128 6.15828 3.45128 5.8417 3.64654 5.64644C3.8418 5.45117 4.15838 5.45117 4.35365 5.64644L6.00007 7.29286L7.64649 5.64644C7.84175 5.45118 8.15833 5.45118 8.35359 5.64644Z" fill="#909096"/>
<zoom style="dark" value="|:#FFFFFF89"/>
<zoom style="hover" value="|:#222230"/>
<zoom style="selected" value="|:#F5F5F5"/>
</svg>
