<svg width="338" height="125" viewBox="0 0 338 125" fill="none" xmlns="http://www.w3.org/2000/svg">
<ellipse cx="169" cy="96.5" rx="120" ry="22.5" fill="url(#paint0_linear_1440_216877)"/>
<path fill-rule="evenodd" clip-rule="evenodd" d="M52.5694 84H49V88.5C49 90.3973 50.2525 92.2398 52.611 94C65.699 103.768 112.845 111 169 111C225.155 111 272.301 103.768 285.389 94C287.747 92.2398 289 90.3973 289 88.5V84H279H276.431C272.302 87.9023 260.257 91.3788 243.003 94H254.996C254.025 94.1961 253.03 94.3899 252.01 94.5812C231.067 98.508 201.713 101 169 101C136.287 101 106.933 98.508 85.9901 94.5812C84.9701 94.3899 83.9747 94.1961 83.0042 94H85.9968C68.7431 91.3788 56.6976 87.9023 52.5694 84Z" fill="#2538BF"/>
<path d="M284.021 84.3306C284.022 84.3306 284.02 84.3391 284.013 84.3561C284.017 84.3391 284.02 84.3306 284.021 84.3306ZM283.184 83.6519C283.623 84.0539 283.837 84.3363 283.938 84.5C283.837 84.6637 283.623 84.9461 283.184 85.3481C282.149 86.2969 280.339 87.448 277.543 88.687C271.988 91.1498 263.637 93.4882 252.931 95.4955C231.602 99.4948 201.925 102 169 102C136.075 102 106.398 99.4948 85.0686 95.4955C74.3629 93.4882 66.0121 91.1498 60.4565 88.687C57.6615 87.448 55.8513 86.2969 54.8158 85.3481C54.3772 84.9461 54.163 84.6637 54.0622 84.5C54.163 84.3363 54.3772 84.0539 54.8158 83.6519C55.8513 82.7031 57.6615 81.552 60.4565 80.313C66.0121 77.8502 74.3629 75.5118 85.0686 73.5045C106.398 69.5052 136.075 67 169 67C201.925 67 231.602 69.5052 252.931 73.5045C263.637 75.5118 271.988 77.8502 277.543 80.313C280.339 81.552 282.149 82.7031 283.184 83.6519ZM53.9789 84.3306C53.9796 84.3306 53.9829 84.3391 53.9867 84.356C53.9801 84.3391 53.9781 84.3306 53.9789 84.3306ZM53.9789 84.6694C53.9781 84.6694 53.9801 84.6609 53.9867 84.6439C53.9829 84.6609 53.9796 84.6694 53.9789 84.6694ZM284.013 84.644C284.02 84.6609 284.022 84.6694 284.021 84.6694C284.02 84.6694 284.017 84.6609 284.013 84.644Z" stroke="url(#paint1_linear_1440_216877)" stroke-width="10"/>
<ellipse opacity="0.43" cx="169" cy="84.5" rx="72" ry="10.5" fill="#648CFE"/>
<path d="M241.236 81.5882C241.236 92.0816 206.5 95 169.5 95C136.985 95 96.5 92.0816 96.5 81.5882L73 0H266L241.236 81.5882Z" fill="url(#paint2_linear_1440_216877)"/>
<rect opacity="0.2" x="148.989" y="20" width="52.903" height="50.1186" rx="8" transform="rotate(19.8149 148.989 20)" fill="#4793F1"/>
<rect opacity="0.1" x="88" y="37.1699" width="16.5368" height="15.6664" rx="4" transform="rotate(-33.6761 88 37.1699)" fill="#4793F1"/>
<rect opacity="0.2" x="134.534" y="2" width="10.6357" height="10.0759" rx="2" transform="rotate(8.75841 134.534 2)" fill="#4793F1"/>
<rect opacity="0.1" x="215" y="21.4199" width="26.3694" height="24.9816" rx="4" transform="rotate(-3.08691 215 21.4199)" fill="#4793F1"/>
<rect x="139" y="39.2354" width="42.6194" height="40.3763" rx="8" transform="rotate(-15.2845 139 39.2354)" fill="#0B5CFF"/>
<path fill-rule="evenodd" clip-rule="evenodd" d="M165.522 59.7907C165.407 60.3307 165.751 60.8623 166.291 60.978C166.831 61.0937 167.362 60.7498 167.478 60.2097L168.166 57.0002H172C172.552 57.0002 173 56.5525 173 56.0002C173 55.4479 172.552 55.0002 172 55.0002H168.594L169.451 51.0002H172C172.552 51.0002 173 50.5525 173 50.0002C173 49.4479 172.552 49.0002 172 49.0002H169.88L170.478 46.2097C170.594 45.6697 170.25 45.1381 169.71 45.0224C169.17 44.9067 168.638 45.2507 168.522 45.7907L167.835 49.0002H163.88L164.478 46.2097C164.594 45.6697 164.25 45.1381 163.71 45.0224C163.17 44.9067 162.638 45.2507 162.522 45.7907L161.835 49.0002H158C157.448 49.0002 157 49.4479 157 50.0002C157 50.5525 157.448 51.0002 158 51.0002H161.406L160.549 55.0002H158C157.448 55.0002 157 55.4479 157 56.0002C157 56.5525 157.448 57.0002 158 57.0002H160.12L159.522 59.7907C159.407 60.3307 159.751 60.8623 160.291 60.978C160.831 61.0937 161.362 60.7498 161.478 60.2097L162.166 57.0002H166.12L165.522 59.7907ZM162.594 55.0002H166.549L167.406 51.0002H163.451L162.594 55.0002Z" fill="white"/>
<defs>
<linearGradient id="paint0_linear_1440_216877" x1="169" y1="74" x2="169" y2="119" gradientUnits="userSpaceOnUse">
<stop offset="0.223958" stop-color="#0B5CFF" stop-opacity="0"/>
<stop offset="1" stop-color="#0B5CFF" stop-opacity="0.49"/>
</linearGradient>
<linearGradient id="paint1_linear_1440_216877" x1="289" y1="85" x2="49" y2="85" gradientUnits="userSpaceOnUse">
<stop offset="0.65625" stop-color="#0B5CFF"/>
<stop offset="1" stop-color="#850BFF"/>
</linearGradient>
<linearGradient id="paint2_linear_1440_216877" x1="170" y1="10.0588" x2="169.375" y2="98.3522" gradientUnits="userSpaceOnUse">
<stop stop-color="#0B5CFF" stop-opacity="0"/>
<stop offset="1" stop-color="#0B5CFF" stop-opacity="0.4"/>
</linearGradient>
</defs>
</svg>
