<svg width="201" height="201" viewBox="0 0 201 201" fill="none" xmlns="http://www.w3.org/2000/svg">
<path d="M59.5 120.5C42.5 125 19.3454 101.964 25.5042 94.8177C33.5875 85.4382 44.6386 87.3095 46.565 93.5175C50.3825 105.82 32.26 124.1 14.9156 109.621C7.14362 103.133 -4.67538 79.8914 32.487 63.3337" stroke="#2538BF" stroke-dasharray="2 2"/>
<path d="M15.8642 46.1965L96.257 18.9061L65.1374 61.4478C64.9995 61.6364 64.7579 61.718 64.5338 61.6517L15.885 47.2511C15.3674 47.0978 15.353 46.37 15.8642 46.1965Z" fill="#A8CCF8"/>
<path d="M15.8642 46.1965L96.257 18.9061L65.1374 61.4478C64.9995 61.6364 64.7579 61.718 64.5338 61.6517L15.885 47.2511C15.3674 47.0978 15.353 46.37 15.8642 46.1965Z" stroke="#A8CCF8" stroke-width="0.553342"/>
<path d="M32.2137 51.6495L96.2573 18.9061L41.735 55.1565L38.1401 69.4129L36.9237 73.9815L32.2137 51.6495Z" fill="#648CFE"/>
<path d="M36.9236 73.9815L41.735 55.1566L53.7343 58.4186L36.9236 73.9815Z" fill="#2538BF"/>
<path d="M59.1262 123.712C58.6257 121.424 60.0745 119.164 62.3621 118.664L167.398 95.6851C169.686 95.1847 171.946 96.6335 172.446 98.921L186.876 164.881C187.376 167.169 185.928 169.429 183.64 169.929L78.6042 192.908C76.3166 193.408 74.0565 191.959 73.556 189.672L59.1262 123.712Z" fill="#2538BF"/>
<path d="M61.7645 118.903C61.4299 117.374 61.9644 115.784 63.1552 114.768L110.731 74.1551C111.594 73.4182 112.768 73.1613 113.86 73.4705L174.048 90.5079C175.554 90.9344 176.704 92.1555 177.038 93.6849L191.702 160.713C192.203 163.003 190.752 165.266 188.462 165.767L81.4816 189.17C79.1915 189.671 76.9289 188.221 76.4279 185.931L61.7645 118.903Z" fill="#648CFE"/>
<path d="M84.9976 179.225L179.933 158.457C181.772 158.054 182.938 156.236 182.535 154.397L168.731 91.2988L154.658 83.1175L141.775 75.6994L65.9772 92.2814C64.1375 92.6839 62.9724 94.5015 63.3748 96.3412L80.9378 176.623C81.3403 178.463 83.1579 179.628 84.9976 179.225Z" fill="white"/>
<path d="M145.896 92.1998L142.505 76.6999L167.365 91.0859L150.063 94.8709C148.175 95.284 146.309 94.0881 145.896 92.1998Z" fill="#A8CCF8" stroke="#A8CCF8"/>
<path d="M190.938 157.221L176.794 92.5667C176.65 91.9113 175.839 91.6734 175.364 92.1475L129.118 138.347C128.245 139.219 128.564 140.702 129.718 141.137L185.293 162.1C188.444 163.288 191.658 160.511 190.938 157.221Z" fill="#A8CCF8"/>
<path d="M75.6641 182.439L61.5198 117.785C61.3764 117.129 62.0142 116.574 62.6435 116.807L123.957 139.476C125.114 139.904 125.443 141.385 124.576 142.262L82.8301 184.516C80.4636 186.911 76.3837 185.729 75.6641 182.439Z" fill="#A8CCF8"/>
<path d="M187.881 151.452L127.143 123.941L120.686 124.842L186.898 154.137L187.881 151.452Z" fill="#2538BF"/>
<path d="M74.9888 177.238L122.319 122.949L123.785 122.628L127.143 123.941L77.2302 177.728L74.9888 177.238Z" fill="#2538BF"/>
<path d="M81.4816 189.17L188.462 165.767C190.752 165.266 192.203 163.003 191.702 160.713L189.98 152.844C189.859 152.291 189.471 151.835 188.945 151.628L125.805 126.708C124.522 126.201 123.061 126.521 122.107 127.517L75.1393 176.525C74.7479 176.933 74.5856 177.51 74.7065 178.062L76.4279 185.931C76.9289 188.221 79.1915 189.671 81.4816 189.17Z" fill="#648CFE"/>
<path d="M145.004 48.6618C144.651 47.5737 145.331 46.4224 146.454 46.2062L148.009 45.9067L149.565 45.6073C150.688 45.3911 151.747 46.2077 151.823 47.349L152.775 61.6007C152.833 62.4697 152.234 63.2456 151.379 63.4103C150.524 63.5749 149.68 63.0766 149.411 62.2482L145.004 48.6618Z" fill="#0E72ED"/>
<path d="M178.526 50.1157C179.225 49.2239 180.543 49.1358 181.353 49.9267L183.745 52.2595L186.136 54.5924C186.947 55.3833 186.891 56.7031 186.017 57.4231L165.979 73.9261C165.23 74.5433 164.136 74.4973 163.441 73.8193L162.693 73.09C161.998 72.412 161.925 71.3195 162.524 70.555L178.526 50.1157Z" fill="#0E72ED"/>
</svg>
