<svg width="16" height="16" viewBox="0 0 16 16" fill="none" xmlns="http://www.w3.org/2000/svg">
<path fill-rule="evenodd" clip-rule="evenodd" d="M5.90234 9.20352C6.12109 9.5681 6.41276 9.85977 6.77734 10.0785C7.14648 10.2973 7.55208 10.4066 7.99414 10.4066C8.4362 10.4066 8.83952 10.2973 9.2041 10.0785C9.57324 9.85977 9.86491 9.5681 10.0791 9.20352C10.2979 8.83438 10.4072 8.42878 10.4072 7.98672C10.4072 7.54467 10.2979 7.14363 10.0791 6.7836C9.86491 6.41902 9.57324 6.12735 9.2041 5.9086C8.83952 5.68985 8.4362 5.58047 7.99414 5.58047C7.55208 5.58047 7.14876 5.68985 6.78418 5.9086C6.4196 6.12735 6.12793 6.41902 5.90918 6.7836C5.69043 7.14363 5.58105 7.54467 5.58105 7.98672C5.58105 8.42878 5.68815 8.83438 5.90234 9.20352ZM8.69429 9.21822L8.68961 9.22103C8.48677 9.34273 8.26249 9.40665 7.99414 9.40665C7.72678 9.40665 7.49883 9.34314 7.28947 9.2196C7.0689 9.08678 6.89697 8.91537 6.76368 8.69539C6.64356 8.486 6.58105 8.25641 6.58105 7.98672C6.58105 7.71836 6.64493 7.4985 6.7638 7.30286L6.76667 7.2981C6.90097 7.07426 7.07484 6.90039 7.29868 6.76609C7.50151 6.64439 7.72579 6.58047 7.99414 6.58047C8.26249 6.58047 8.48677 6.64439 8.68961 6.76609L8.6943 6.76889C8.92019 6.90275 9.08968 7.07362 9.21689 7.29015L9.22064 7.29653L9.22449 7.30286C9.34335 7.4985 9.40723 7.71836 9.40723 7.98672C9.40723 8.25508 9.34325 8.48372 9.21881 8.69372L9.21689 8.69697C9.08968 8.91351 8.92019 9.08436 8.69429 9.21822Z" fill="#323539"/>
<path fill-rule="evenodd" clip-rule="evenodd" d="M13.7021 12.184C13.6885 12.3481 13.6201 12.4916 13.4971 12.6147L12.6152 13.4897C12.4922 13.6127 12.3509 13.6811 12.1914 13.6947C12.0365 13.7084 11.8861 13.6697 11.7402 13.5785L10.4209 12.7719C10.307 12.8266 10.1862 12.879 10.0586 12.9291C9.93099 12.9792 9.80111 13.0271 9.66895 13.0727L9.31348 14.5766C9.27702 14.7543 9.19727 14.891 9.07422 14.9867C8.95117 15.087 8.80078 15.1371 8.62305 15.1371H7.36523C7.1875 15.1371 7.03711 15.087 6.91406 14.9867C6.79102 14.891 6.70898 14.7543 6.66797 14.5766L6.3125 13.0727C6.18034 13.0271 6.05046 12.9792 5.92285 12.9291C5.79525 12.879 5.67448 12.8266 5.56055 12.7719L4.24805 13.5785C4.09766 13.6697 3.94271 13.7084 3.7832 13.6947C3.62826 13.6811 3.48926 13.6127 3.36621 13.4897L2.49121 12.6147C2.36816 12.4916 2.29753 12.3481 2.2793 12.184C2.26562 12.0199 2.30892 11.865 2.40918 11.7191L3.20898 10.4135C3.1543 10.295 3.10189 10.1742 3.05176 10.0512C3.00163 9.92813 2.95833 9.80508 2.92188 9.68204L1.4043 9.31973C1.22656 9.28327 1.08984 9.20352 0.994141 9.08047C0.898438 8.95743 0.850586 8.80704 0.850586 8.6293V7.392C0.850586 7.21882 0.898438 7.07071 0.994141 6.94766C1.08984 6.82462 1.22656 6.74486 1.4043 6.7084L2.9082 6.3461C2.94922 6.20482 2.99479 6.07266 3.04492 5.94962C3.09961 5.82657 3.14974 5.71036 3.19531 5.60098L2.39551 4.27481C2.29525 4.12898 2.25195 3.97859 2.26562 3.82364C2.2793 3.66413 2.34994 3.52286 2.47754 3.39981L3.36621 2.51797C3.49382 2.39949 3.63053 2.33113 3.77637 2.3129C3.92676 2.29467 4.07715 2.32885 4.22754 2.41544L5.55371 3.23575C5.66764 3.1765 5.78841 3.12182 5.91602 3.07169C6.04818 3.017 6.18034 2.96687 6.3125 2.9213L6.66797 1.41055C6.70898 1.23738 6.79102 1.10066 6.91406 1.0004C7.03711 0.900136 7.1875 0.850006 7.36523 0.850006H8.62305C8.80078 0.850006 8.95117 0.900136 9.07422 1.0004C9.19727 1.10066 9.27702 1.23738 9.31348 1.41055L9.66895 2.93497C9.81022 2.98054 9.94238 3.02839 10.0654 3.07852C10.193 3.12865 10.3115 3.18334 10.4209 3.24258L11.7607 2.41544C11.9111 2.32885 12.0592 2.29695 12.2051 2.31973C12.3509 2.33796 12.4876 2.40404 12.6152 2.51797L13.5107 3.39981C13.6383 3.52286 13.7067 3.66413 13.7158 3.82364C13.7295 3.97859 13.6885 4.12898 13.5928 4.27481L12.7861 5.60098C12.8317 5.71036 12.8796 5.82657 12.9297 5.94962C12.9844 6.07266 13.0345 6.20482 13.0801 6.3461L14.584 6.7084C14.7572 6.74486 14.8916 6.82462 14.9873 6.94766C15.0876 7.07071 15.1377 7.21882 15.1377 7.392V8.6293C15.1377 8.80704 15.0876 8.95743 14.9873 9.08047C14.8916 9.20352 14.7572 9.28327 14.584 9.31973L13.0664 9.68204C13.0254 9.80508 12.9798 9.92813 12.9297 10.0512C12.8841 10.1742 12.8317 10.295 12.7725 10.4135L13.5791 11.7191C13.6794 11.865 13.7204 12.0199 13.7021 12.184ZM7.15903 12.3068L7.59165 14.1371H8.38979L8.82242 12.3068L9.34295 12.1273C9.46206 12.0862 9.57871 12.0432 9.69294 11.9984C9.79972 11.9564 9.89799 11.9136 9.98817 11.8704L10.4785 11.635L12.0787 12.6133L12.6226 12.0736L11.6287 10.4648L11.878 9.96627C11.9212 9.87996 11.9591 9.79252 11.9919 9.70386L11.9975 9.68878L12.0036 9.67388C12.0457 9.57045 12.0837 9.46777 12.1177 9.36581L12.2935 8.83846L14.1377 8.39818V7.6295L12.3006 7.18692L12.1284 6.6531C12.0926 6.54215 12.0548 6.44337 12.0159 6.35575L12.0095 6.34143L12.0036 6.32691C11.9543 6.20602 11.9075 6.09227 11.8631 5.9856L11.6674 5.51598L12.629 3.935L12.0795 3.39387L10.4536 4.39759L9.94462 4.12188C9.87444 4.08386 9.79327 4.046 9.69978 4.00927L9.68813 4.00461C9.59068 3.96491 9.48218 3.92546 9.36194 3.88668L8.82354 3.713L8.38912 1.85001H7.59188L7.15965 3.68696L6.63849 3.86667C6.52576 3.90554 6.41239 3.94852 6.29837 3.9957L6.29005 3.99915L6.28167 4.00244C6.18453 4.0406 6.09588 4.08094 6.01506 4.12296L5.51092 4.38512L3.90521 3.3919L3.35819 3.93472L4.31315 5.51817L4.11839 5.9856C4.07143 6.0983 4.0205 6.21649 3.96571 6.34003C3.9319 6.4244 3.89928 6.51907 3.86855 6.62491L3.70671 7.18234L1.85059 7.6295V8.39818L3.71643 8.84363L3.88067 9.39795C3.90745 9.48832 3.93971 9.58028 3.97785 9.67388C4.02236 9.78313 4.06873 9.88996 4.11694 9.99442L4.34101 10.4799L3.36461 12.0738L3.90584 12.6151L5.5016 11.6344L5.99328 11.8704C6.08346 11.9136 6.18172 11.9564 6.2885 11.9984C6.40274 12.0432 6.51939 12.0862 6.63849 12.1273L7.15903 12.3068Z" fill="#323539"/>
<zoom style="dark" value="|:#F5F5F5|:#F5F5F5"/>
<zoom style="hover" value="|:#F5F5F5|:#F5F5F5"/>
</svg>
