<svg viewBox="0 0 344 144" fill="none" xmlns="http://www.w3.org/2000/svg">
<g>
	<path d="M75.9,26.3c-1.7,0-3.1,1.4-3.1,3.1s1.4,3.1,3.1,3.1s3.1-1.4,3.1-3.1S77.6,26.3,75.9,26.3z" fill="#E7F1FD"/>
	<path d="M113.4,26.3c-1.7,0-3.1,1.4-3.1,3.1s1.4,3.1,3.1,3.1c1.7,0,3.1-1.4,3.1-3.1S115.1,26.3,113.4,26.3z" fill="#E7F1FD"/>
	<path d="M332,0H12C5.4,0,0,5.4,0,12v120c0,6.6,5.4,12,12,12h42V43.3c0-12,9.1-21.8,20.7-23.1c0.9-0.1,1.8-0.2,2.7-0.2
		h0h195.4c9.3,0,16.8,7.4,17.2,16.6h0h0v0.6V144h42c6.6,0,12-5.4,12-12V12C344,5.4,338.6,0,332,0z" fill="#E7F1FD"/>
        <zoom style="dark" value="||||:#252A30"/>
	<path d="M94.6,26.3c-1.7,0-3.1,1.4-3.1,3.1s1.4,3.1,3.1,3.1s3.1-1.4,3.1-3.1S96.3,26.3,94.6,26.3z" fill="#E7F1FD"/>
	<path d="M60.2,36.6c0.3-8.3,6.4-15.1,14.5-16.4C63.1,21.5,54,31.4,54,43.3V144h6.2L60.2,36.6L60.2,36.6z" fill="#A8CCF8"/>
	<path d="M64.9,37.2V144h220.4V37.2H64.9z M144.3,55.4h87c2.1,0,3.8,1.7,3.8,3.8s-1.7,3.8-3.8,3.8h-87
		c-2.1,0-3.8-1.7-3.8-3.8S142.2,55.4,144.3,55.4z M144.3,67.4h44.2c2.1,0,3.8,1.7,3.8,3.8c0,2.1-1.7,3.8-3.8,3.8h-44.2
		c-2.1,0-3.8-1.7-3.8-3.8C140.5,69.1,142.2,67.4,144.3,67.4z M87,107c0-1.6,0.4-3.3,1.2-4.7l0.9,0.5c-0.7,1.3-1.1,2.7-1.1,4.2v1.4
		h-1V107z M87,114.4h1v6h-1V114.4z M88.8,132.3c-1.2-1.7-1.9-3.7-1.9-5.8v-0.2h1v0.2c0,1.9,0.6,3.7,1.7,5.2L88.8,132.3z M89.7,76.4
		V60.5c0-3.5,2.9-6.4,6.4-6.4h21.7c3.5,0,6.4,2.9,6.4,6.4v15.9c0,3.5-2.9,6.4-6.4,6.4H96.1C92.6,82.8,89.7,79.9,89.7,76.4z
		 M100,136.3h-3.3c-1,0-1.9-0.1-2.8-0.4l0.3-1c0.8,0.2,1.7,0.4,2.5,0.4h3.3V136.3z M112,136.3h-6v-1h6V136.3z M124,136.3h-6v-1h6
		V136.3z M136,136.3h-6v-1h6V136.3z M148,136.3h-6v-1h6V136.3z M154.1,136.1l-0.2-1c1.8-0.4,3.6-1.4,4.8-2.8l0.8,0.7
		C158.1,134.6,156.2,135.7,154.1,136.1z M170.3,117.3c0,5-3.7,9.1-8.5,9.7c0,0.1,0,0.1,0,0.2l-1-0.1c0,0,0,0,0-0.1
		c-0.1,0-0.2,0-0.3,0h-55.3c-5.4,0-9.8-4.4-9.8-9.8V98.4c-0.8,0.1-1.6,0.3-2.3,0.7l-0.4-0.9c0.9-0.4,1.8-0.6,2.8-0.8
		c0.2-5.2,4.5-9.3,9.7-9.3h55.3c5.4,0,9.8,4.4,9.8,9.8V117.3z M257.3,126.6c0,5.4-4.4,9.8-9.8,9.8h-55.3c-5.4,0-9.8-4.4-9.8-9.8V107
		c0-5.4,4.4-9.8,9.8-9.8h55.3c5.4,0,9.8,4.4,9.8,9.8V126.6z" fill="#FFFFFF"/>
	<path d="M144.3,63h87c2.1,0,3.8-1.7,3.8-3.8s-1.7-3.8-3.8-3.8h-87c-2.1,0-3.8,1.7-3.8,3.8S142.2,63,144.3,63z" fill="#A8CCF8"/>
	<path d="M144.3,75h44.2c2.1,0,3.8-1.7,3.8-3.8c0-2.1-1.7-3.8-3.8-3.8h-44.2c-2.1,0-3.8,1.7-3.8,3.8
		C140.5,73.3,142.2,75,144.3,75z" fill="#4793F1"/>
	<rect x="106" y="135.3" width="6" height="1" fill="#C4C8EA"/>
	<rect x="87" y="114.4" width="1" height="6" fill="#C4C8EA"/>
	<path d="M88,126.4h-1v0.2c0,2.1,0.6,4.1,1.9,5.8l0.8-0.6c-1.1-1.5-1.7-3.3-1.7-5.2V126.4z" fill="#C4C8EA"/>
	<path d="M94.2,135l-0.3,1c0.9,0.3,1.9,0.4,2.8,0.4h3.3v-1h-3.3C95.9,135.3,95,135.2,94.2,135z" fill="#C4C8EA"/>
	<rect x="118" y="135.3" width="6" height="1" fill="#C4C8EA"/>
	<rect x="130" y="135.3" width="6" height="1" fill="#C4C8EA"/>
	<rect x="142" y="135.3" width="6" height="1" fill="#C4C8EA"/>
	<path d="M95.5,97.4c-1,0.1-1.9,0.4-2.8,0.8l0.4,0.9c0.7-0.3,1.5-0.6,2.3-0.7v-0.6C95.5,97.7,95.5,97.5,95.5,97.4z" fill="#C4C8EA"/>
	<path d="M153.9,135.1l0.2,1c2.1-0.4,4-1.6,5.3-3.2l-0.8-0.7C157.4,133.7,155.7,134.8,153.9,135.1z" fill="#C4C8EA"/>
	<path d="M88,107c0-1.5,0.4-2.9,1.1-4.2l-0.9-0.5c-0.8,1.4-1.2,3-1.2,4.7v1.4h1V107z" fill="#C4C8EA"/>
	<path d="M160.8,127.1l1,0.1c0-0.1,0-0.1,0-0.2C161.5,127,161.1,127.1,160.8,127.1C160.8,127.1,160.8,127.1,160.8,127.1
		z" fill="#C4C8EA"/>
	<path d="M160.5,88h-55.3c-5.2,0-9.5,4.1-9.7,9.3c0,0.1,0,0.3,0,0.4v0.6v18.9c0,5.4,4.4,9.8,9.8,9.8h55.3
		c0.1,0,0.2,0,0.3,0c0.3,0,0.7,0,1-0.1c4.8-0.6,8.5-4.7,8.5-9.7V97.8C170.3,92.4,165.9,88,160.5,88z M163.2,119.6h-4.4
		c-0.1,0-0.2,0-0.3,0.1l-2.7,2.6c-0.6,0.6-1.7,0.2-1.7-0.7v-11.2c0-0.9,1.1-1.3,1.7-0.7l8.2,8.2
		C164.5,118.5,164.1,119.6,163.2,119.6z" fill="#648CFE"/>
	<path d="M247.5,97.3h-55.3c-5.4,0-9.8,4.4-9.8,9.8v19.5c0,5.4,4.4,9.8,9.8,9.8h55.3c5.4,0,9.8-4.4,9.8-9.8V107
		C257.3,101.7,252.9,97.3,247.5,97.3z" fill="#648CFE"/>
	<path d="M155.7,109.7c-0.6-0.6-1.7-0.2-1.7,0.7v11.2c0,0.9,1.1,1.3,1.7,0.7l2.7-2.6c0.1-0.1,0.2-0.1,0.3-0.1h4.4
		c0.9,0,1.3-1.1,0.7-1.7L155.7,109.7z" fill="#FFFFFF"/>
	<path d="M117.8,82.8c3.5,0,6.4-2.9,6.4-6.4V60.5c0-3.5-2.9-6.4-6.4-6.4H96.1c-3.5,0-6.4,2.9-6.4,6.4v15.9
		c0,3.5,2.9,6.4,6.4,6.4H117.8z M101,67.1h5.3v-5.3c0-0.5,0.4-0.9,0.9-0.9c0.5,0,0.9,0.4,0.9,0.9v5.3h5.3c0.5,0,0.9,0.4,0.9,0.9
		c0,0.5-0.4,0.9-0.9,0.9H108v5.3c0,0.5-0.4,0.9-0.9,0.9c-0.5,0-0.9-0.4-0.9-0.9v-5.3H101c-0.5,0-0.9-0.4-0.9-0.9
		C100.1,67.5,100.5,67.1,101,67.1z" fill="#648CFE"/>
	<path d="M101,68.8h5.3v5.3c0,0.5,0.4,0.9,0.9,0.9c0.5,0,0.9-0.4,0.9-0.9v-5.3h5.3c0.5,0,0.9-0.4,0.9-0.9
		c0-0.5-0.4-0.9-0.9-0.9H108v-5.3c0-0.5-0.4-0.9-0.9-0.9c-0.5,0-0.9,0.4-0.9,0.9v5.3H101c-0.5,0-0.9,0.4-0.9,0.9
		C100.1,68.4,100.5,68.8,101,68.8z" fill="#FFFFFF"/>
	<path d="M290,36.6L290,36.6L290,36.6c-0.4-9.2-7.9-16.6-17.2-16.6H77.4h0c-0.9,0-1.8,0.1-2.7,0.2
		c-8,1.3-14.2,8.1-14.5,16.4h0V144h4.7V37.2h220.4V144h4.7V37.2V36.6z M75.9,32.5c-1.7,0-3.1-1.4-3.1-3.1s1.4-3.1,3.1-3.1
		s3.1,1.4,3.1,3.1S77.6,32.5,75.9,32.5z M94.6,32.5c-1.7,0-3.1-1.4-3.1-3.1s1.4-3.1,3.1-3.1s3.1,1.4,3.1,3.1S96.3,32.5,94.6,32.5z
		 M113.4,32.5c-1.7,0-3.1-1.4-3.1-3.1s1.4-3.1,3.1-3.1c1.7,0,3.1,1.4,3.1,3.1S115.1,32.5,113.4,32.5z" fill="#4793F1"/>
</g>
</svg>
