<svg width="14" height="14" viewBox="0 0 14 14" fill="none" xmlns="http://www.w3.org/2000/svg">
<path d="M5.5 6C5.22386 6 5 6.22386 5 6.5V10.5C5 10.7761 5.22386 11 5.5 11C5.77614 11 6 10.7761 6 10.5V6.5C6 6.22386 5.77614 6 5.5 6Z" fill="#0E72ED"/>
<path d="M8 6.5C8 6.22386 8.22386 6 8.5 6C8.77614 6 9 6.22386 9 6.5V10.5C9 10.7761 8.77614 11 8.5 11C8.22386 11 8 10.7761 8 10.5V6.5Z" fill="#0E72ED"/>
<path fill-rule="evenodd" clip-rule="evenodd" d="M2.7324 3L4.18526 0.818458C4.47872 0.317612 5.00736 0 5.59007 0H8.41021C8.99292 0 9.52157 0.317612 9.81502 0.818458L11.2679 3H13.5C13.7761 3 14 3.22386 14 3.5C14 3.77614 13.7761 4 13.5 4H12.9161L12.1923 12.6254C12.1271 13.4025 11.4773 14 10.6975 14H3.30248C2.52268 14 1.87294 13.4025 1.80773 12.6254L1.08392 4H0.5C0.223858 4 0 3.77614 0 3.5C0 3.22386 0.223858 3 0.5 3H2.7324ZM5.0442 1.33067C5.16579 1.1179 5.37611 1 5.59007 1H8.41021C8.62417 1 8.83449 1.1179 8.95608 1.33067L8.96457 1.34552L10.0664 3H3.93387L5.03572 1.34552L5.0442 1.33067ZM2.08743 4H11.9126L11.1958 12.5418C11.174 12.8008 10.9575 13 10.6975 13H3.30248C3.04254 13 2.82596 12.8008 2.80423 12.5418L2.08743 4Z" fill="#0E72ED"/>
<zoom name="NewIM_delete_dark" style="dark" value="|:#4793F1|:#4793F1|:#4793F1"/>
<zoom name="NewIM_delete_selected" style="selected" value="|:#2057b1|:#2057b1|:#2057b1"/>
<zoom name="NewIM_delete_selected_dark" style="selected_dark" value="|:#A8CCF8|:#A8CCF8|:#A8CCF8"/>
</svg>
