<svg width="16" height="16" viewBox="0 0 16 16" fill="none" xmlns="http://www.w3.org/2000/svg">
<path d="M14.207 4.12746C14.5975 3.73672 14.5975 3.10321 14.207 2.71247L11.7886 0.292687C11.3981 -0.098051 10.7649 -0.0980503 10.3744 0.292687L8.74498 1.92305L12.5776 5.75782L14.207 4.12746Z" fill="#6E7680"/>
<path d="M11.8705 6.46531L8.03789 2.63054L1.79289 8.87907C1.60536 9.0667 1.5 9.3212 1.5 9.58656V12.5066C1.5 12.7829 1.72385 13.0069 1.99999 13.0069L4.9184 13.0069C5.18361 13.0069 5.43796 12.9015 5.62549 12.7138L11.8705 6.46531Z" fill="#6E7680"/>
<path d="M8.69355 14.5806C10.0813 13.4236 12.0644 13.3176 13.5674 14.3201L13.7226 14.4237C13.9524 14.5769 14.2628 14.5148 14.416 14.2849C14.5692 14.055 14.5071 13.7444 14.2774 13.5912L14.1221 13.4876C12.2506 12.2393 9.78133 12.3713 8.05337 13.812L7.67991 14.1234C6.17951 15.3744 3.97325 15.2742 2.59221 13.8925L2.35355 13.6537C2.15829 13.4583 1.84171 13.4583 1.64645 13.6537C1.45118 13.849 1.45118 14.1658 1.64645 14.3612L1.8851 14.5999C3.63186 16.3476 6.42236 16.4743 8.32009 14.892L8.69355 14.5806Z" fill="#6E7680"/>
<zoom style="dark" value="|:#FFFFFF89|:#FFFFFF89|:#FFFFFF89"/>
<zoom style="hover" value="|:#222230|:#222230|:#222230"/>
<zoom style="selected" value="|:#F5F5F5|:#F5F5F5|:#F5F5F5"/>
<zoom style="search" value="|:#909096|:#909096|:#909096"/>
<zoom style="search_dark" value="|:#FFFFFF|:#FFFFFF|:#FFFFFF"/>
</svg>
