<svg width="16" height="16" viewBox="0 0 16 16" fill="none" xmlns="http://www.w3.org/2000/svg">
<path fill-rule="evenodd" clip-rule="evenodd" d="M3 0C1.89543 0 1 0.895431 1 2V14C1 15.1046 1.89543 16 3 16H6.02561C6.00882 15.9182 6 15.8335 6 15.7467V13.3438C6 12.9442 6.15874 12.561 6.44129 12.2784L12.2042 6.51549C12.8915 5.82817 14.0059 5.82817 14.6932 6.51549L15 6.82228V2C15 0.895431 14.1046 0 13 0H3ZM4 4C4 3.72386 4.22386 3.5 4.5 3.5H11.5C11.7761 3.5 12 3.72386 12 4C12 4.27614 11.7761 4.5 11.5 4.5H4.5C4.22386 4.5 4 4.27614 4 4ZM4.5 6.5C4.22386 6.5 4 6.72386 4 7C4 7.27614 4.22386 7.5 4.5 7.5H8.5C8.77614 7.5 9 7.27614 9 7C9 6.72386 8.77614 6.5 8.5 6.5H4.5ZM4 10C4 9.72386 4.22386 9.5 4.5 9.5H5.5C5.77614 9.5 6 9.72386 6 10C6 10.2761 5.77614 10.5 5.5 10.5H4.5C4.22386 10.5 4 10.2761 4 10Z" fill="#909096"/>
<path d="M13.9861 7.2226C13.6893 6.9258 13.2081 6.9258 12.9113 7.2226L7.1484 12.9855C7.05338 13.0805 7 13.2094 7 13.3438V15.7467C7 15.8866 7.11342 16 7.25333 16H9.65623C9.7906 16 9.91947 15.9466 10.0145 15.8516L15.7774 10.0887C16.0742 9.79189 16.0742 9.3107 15.7774 9.0139L13.9861 7.2226Z" fill="#909096"/>
<zoom style="dark" value="|:#FFFFFF89|:#FFFFFF89"/>
<zoom style="hover" value="|:#222230|:#222230"/>
<zoom style="selected" value="|:#F5F5F5|:#F5F5F5"/>
<zoom style="search" value="|:#909096|:#909096"/>
<zoom style="search_dark" value="|:#FFFFFF|:#FFFFFF"/>
</svg>
