<svg width="14" height="14" viewBox="0 0 14 14" fill="none" xmlns="http://www.w3.org/2000/svg">
<path d="M7 2.625C7.24162 2.625 7.4375 2.82088 7.4375 3.0625V6.5625H10.9375C11.1791 6.5625 11.375 6.75838 11.375 7C11.375 7.24162 11.1791 7.4375 10.9375 7.4375H7.4375V11.375C7.4375 11.6166 7.24162 11.8125 7 11.8125C6.75838 11.8125 6.5625 11.6166 6.5625 11.375V7.4375H3.0625C2.82088 7.4375 2.625 7.24162 2.625 7C2.625 6.75838 2.82088 6.5625 3.0625 6.5625H6.5625V3.0625C6.5625 2.82088 6.75838 2.625 7 2.625Z" fill="#222230"/>
<path fill-rule="evenodd" clip-rule="evenodd" d="M0 5.6C0 3.63982 0 2.65972 0.381477 1.91103C0.717034 1.25247 1.25247 0.717034 1.91103 0.381477C2.65972 0 3.63982 0 5.6 0H8.4C10.3602 0 11.3403 0 12.089 0.381477C12.7475 0.717034 13.283 1.25247 13.6185 1.91103C14 2.65972 14 3.63982 14 5.6V8.4C14 10.3602 14 11.3403 13.6185 12.089C13.283 12.7475 12.7475 13.283 12.089 13.6185C11.3403 14 10.3602 14 8.4 14H5.6C3.63982 14 2.65972 14 1.91103 13.6185C1.25247 13.283 0.717034 12.7475 0.381477 12.089C0 11.3403 0 10.3602 0 8.4V5.6ZM5.6 0.875H8.4C9.39453 0.875 10.0878 0.875681 10.6275 0.919779C11.1571 0.963042 11.4613 1.04369 11.6917 1.16111C12.1856 1.41278 12.5872 1.81435 12.8389 2.30827C12.9563 2.53871 13.037 2.84294 13.0802 3.37246C13.1243 3.9122 13.125 4.60547 13.125 5.6V8.4C13.125 9.39453 13.1243 10.0878 13.0802 10.6275C13.037 11.1571 12.9563 11.4613 12.8389 11.6917C12.5872 12.1856 12.1856 12.5872 11.6917 12.8389C11.4613 12.9563 11.1571 13.037 10.6275 13.0802C10.0878 13.1243 9.39453 13.125 8.4 13.125H5.6C4.60547 13.125 3.9122 13.1243 3.37246 13.0802C2.84294 13.037 2.53871 12.9563 2.30827 12.8389C1.81435 12.5872 1.41278 12.1856 1.16111 11.6917C1.04369 11.4613 0.963042 11.1571 0.919779 10.6275C0.875681 10.0878 0.875 9.39453 0.875 8.4V5.6C0.875 4.60547 0.875681 3.9122 0.919779 3.37246C0.963042 2.84294 1.04369 2.53871 1.16111 2.30827C1.41278 1.81435 1.81435 1.41278 2.30827 1.16111C2.53871 1.04369 2.84294 0.963042 3.37246 0.919779C3.9122 0.875681 4.60547 0.875 5.6 0.875Z" fill="#222230"/>
<zoom style="dark" value="|:#F5F5F5|:#F5F5F5"/>
<zoom style="hover" value="|:#F5F5F5|:#F5F5F5"/>
</svg>
