<svg width="14" height="14" viewBox="0 0 14 14" fill="none" xmlns="http://www.w3.org/2000/svg">
<path fill-rule="evenodd" clip-rule="evenodd" d="M8.31765 12.621C8.28091 12.8599 8.44472 13.0832 8.68354 13.12C8.92235 13.1567 9.14573 12.9929 9.18247 12.7541L9.59655 10.0626H12.6875C12.9291 10.0626 13.125 9.8667 13.125 9.62507C13.125 9.38345 12.9291 9.18757 12.6875 9.18757H9.73117L10.4042 4.81257H12.6875C12.9291 4.81257 13.125 4.61669 13.125 4.37507C13.125 4.13345 12.9291 3.93757 12.6875 3.93757H10.5389L10.9325 1.37909C10.9692 1.14027 10.8054 0.91689 10.5666 0.880149C10.3278 0.843408 10.1044 1.00722 10.0676 1.24604L9.65357 3.93757H5.28886L5.68247 1.37909C5.71921 1.14027 5.5554 0.91689 5.31659 0.880149C5.07777 0.843408 4.85439 1.00722 4.81765 1.24604L4.40357 3.93757H1.3125C1.07088 3.93757 0.875 4.13345 0.875 4.37507C0.875 4.61669 1.07088 4.81257 1.3125 4.81257H4.26895L3.59587 9.18757H1.3125C1.07088 9.18757 0.875 9.38345 0.875 9.62507C0.875 9.8667 1.07088 10.0626 1.3125 10.0626H3.46126L3.06765 12.621C3.03091 12.8599 3.19472 13.0832 3.43354 13.12C3.67235 13.1567 3.89573 12.9929 3.93247 12.7541L4.34655 10.0626H8.71126L8.31765 12.621ZM4.48117 9.18757H8.84587L9.51895 4.81257H5.15425L4.48117 9.18757Z" fill="#222230"/>
<zoom style="dark" value="|:#F5F5F5"/>
<zoom style="hover" value="|:#F5F5F5"/>
</svg>
