<svg width="16" height="16" viewBox="0 0 16 16" fill="none" xmlns="http://www.w3.org/2000/svg">
<path fill-rule="evenodd" clip-rule="evenodd" d="M1 3.5C1 2.67157 1.67157 2 2.5 2H5.07295C5.64111 2 6.1605 2.321 6.41459 2.82918L6.8618 3.72361C6.9465 3.893 7.11963 4 7.30902 4H13.5C14.3284 4 15 4.67157 15 5.5V12.5C15 13.3284 14.3284 14 13.5 14H2.5C1.67157 14 1 13.3284 1 12.5V4V3.5ZM9.35355 6.64645C9.15829 6.45118 8.84171 6.45118 8.64645 6.64645C8.45118 6.84171 8.45118 7.15829 8.64645 7.35355L9.79289 8.5H5C4.72386 8.5 4.5 8.72386 4.5 9C4.5 9.27614 4.72386 9.5 5 9.5H9.79289L8.64645 10.6464C8.45118 10.8417 8.45118 11.1583 8.64645 11.3536C8.84171 11.5488 9.15829 11.5488 9.35355 11.3536L11.3536 9.35355C11.5488 9.15829 11.5488 8.84171 11.3536 8.64645L9.35355 6.64645Z" fill="#FAAC2A"/>
<path fill-rule="evenodd" clip-rule="evenodd" d="M2 3.5V12.5C2 12.7761 2.22386 13 2.5 13H13.5C13.7761 13 14 12.7761 14 12.5V5.5C14 5.22386 13.7761 5 13.5 5H7.30902C6.74086 5 6.22146 4.679 5.96738 4.17082L5.52016 3.27639C5.43547 3.107 5.26234 3 5.07295 3H2.5C2.22386 3 2 3.22386 2 3.5ZM1 3.5C1 2.67157 1.67157 2 2.5 2H5.07295C5.64111 2 6.1605 2.321 6.41459 2.82918L6.8618 3.72361C6.9465 3.893 7.11963 4 7.30902 4H13.5C14.3284 4 15 4.67157 15 5.5V12.5C15 13.3284 14.3284 14 13.5 14H2.5C1.67157 14 1 13.3284 1 12.5V3.5Z" fill="#C28030"/>
<zoom style="dark" value="|:#FAAC2A|:#FAAC2A"/>
</svg>
