<svg width="10" height="4" viewBox="0 0 10 4" fill="none" xmlns="http://www.w3.org/2000/svg">
<path d="M1.18774 3.02344C0.999756 3.02344 0.827148 2.97729 0.669922 2.88501C0.516113 2.79272 0.393066 2.66968 0.300781 2.51587C0.208496 2.36206 0.162354 2.18945 0.162354 1.99805C0.162354 1.81006 0.208496 1.63916 0.300781 1.48535C0.393066 1.32812 0.516113 1.20337 0.669922 1.11108C0.827148 1.0188 0.999756 0.972656 1.18774 0.972656C1.47827 0.972656 1.72437 1.07349 1.92603 1.27515C2.12769 1.47339 2.22852 1.71436 2.22852 1.99805C2.22852 2.18945 2.18066 2.36206 2.08496 2.51587C1.99268 2.66968 1.86792 2.79272 1.71069 2.88501C1.55688 2.97729 1.38257 3.02344 1.18774 3.02344ZM4.99707 3.02344C4.80908 3.02344 4.63647 2.97729 4.47925 2.88501C4.32544 2.79272 4.20239 2.66968 4.11011 2.51587C4.02124 2.36206 3.97681 2.18945 3.97681 1.99805C3.97681 1.81006 4.02124 1.63916 4.11011 1.48535C4.20239 1.32812 4.32544 1.20337 4.47925 1.11108C4.63647 1.0188 4.80908 0.972656 4.99707 0.972656C5.28076 0.972656 5.52173 1.07349 5.71997 1.27515C5.92163 1.47339 6.02246 1.71436 6.02246 1.99805C6.02246 2.18945 5.97632 2.36206 5.88403 2.51587C5.79175 2.66968 5.6687 2.79272 5.51489 2.88501C5.36108 2.97729 5.18848 3.02344 4.99707 3.02344ZM8.8064 3.02344C8.61499 3.02344 8.44067 2.97729 8.28345 2.88501C8.12622 2.79272 8.00146 2.66968 7.90918 2.51587C7.81689 2.36206 7.77075 2.18945 7.77075 1.99805C7.77075 1.81006 7.81689 1.63916 7.90918 1.48535C8.00146 1.32812 8.12622 1.20337 8.28345 1.11108C8.44067 1.0188 8.61499 0.972656 8.8064 0.972656C9.09009 0.972656 9.33105 1.07349 9.5293 1.27515C9.73096 1.47339 9.83179 1.71436 9.83179 1.99805C9.83179 2.18945 9.78564 2.36206 9.69336 2.51587C9.60107 2.66968 9.47632 2.79272 9.31909 2.88501C9.16528 2.97729 8.99438 3.02344 8.8064 3.02344Z" fill="#0E72ED"/>
</svg>
