<svg width="16" height="16" viewBox="0 0 16 16" fill="none" xmlns="http://www.w3.org/2000/svg">
<g clip-path="url(#clip0_3693_6016)">
<path d="M6.94985 10.5799L5.54985 7.35992C5.39985 7.01992 4.99985 6.85992 4.65985 7.00992C4.31985 7.15992 4.15985 7.55992 4.30985 7.89992L5.70985 11.1199C5.85985 11.4599 6.25985 11.6199 6.59985 11.4699C6.76985 11.3999 6.88985 11.2599 6.95985 11.0999C7.02985 10.9299 7.01985 10.7499 6.95985 10.5799H6.94985Z" fill="white"/>
<path d="M4.69 5.43997C4.69 5.03997 4.37 4.71997 3.97 4.71997C3.57 4.71997 3.25 5.03997 3.25 5.43997C3.25 5.83997 3.57 6.15997 3.97 6.15997C4.37 6.15997 4.69 5.83997 4.69 5.43997Z" fill="white"/>
<path d="M7.89018 4.87994C7.74018 4.53994 7.34018 4.37994 7.00018 4.52994C6.66018 4.67994 6.50018 5.07994 6.65018 5.41994L9.13018 11.1199C9.28018 11.4599 9.68018 11.6199 10.0202 11.4699C10.3602 11.3199 10.5202 10.9199 10.3702 10.5799L7.89018 4.87994Z" fill="white"/>
<path d="M11.3101 4.87994C11.1601 4.53994 10.7601 4.37994 10.4201 4.52994C10.0801 4.67994 9.9201 5.07994 10.0701 5.41994L11.4601 8.58994C11.6101 8.92994 12.0101 9.08994 12.3501 8.93994C12.6901 8.78994 12.8501 8.38994 12.7001 8.04994L11.3101 4.87994Z" fill="white"/>
<path d="M12 1C13.7 1 15 2.3 15 4V12C15 13.7 13.7 15 12 15H4C2.3 15 1 13.7 1 12V4C1 2.3 2.3 1 4 1H12ZM12 0H4C1.8 0 0 1.8 0 4V12C0 14.2 1.8 16 4 16H12C14.2 16 16 14.2 16 12V4C16 1.8 14.2 0 12 0Z" fill="white"/>
</g>
<defs>
<clipPath id="clip0_3693_6016">
<rect width="16" height="16" fill="white"/>
</clipPath>
</defs>
<zoom style="dark" value="|:#F7F9FA |:#F7F9FA"/>
</svg>
