<svg width="16" height="16" viewBox="0 0 16 16" fill="none" xmlns="http://www.w3.org/2000/svg">
<path d="M7.9998 4C9.1026 4 9.9997 4.897 9.9997 6V11.5C9.9997 11.7759 9.7754 12 9.4997 12H2.9999C1.8971 12 1 11.103 1 10V4.5C1 4.2241 1.2243 4 1.5 4H7.9998ZM15.5762 3.8252C15.3203 3.7041 15.0274 3.7314 14.7999 3.8994L12.2001 5.8428C11.9794 6.0088 11.9345 6.3233 12.1005 6.544C12.2655 6.7647 12.581 6.8077 12.7997 6.6436L15 4.999V11.001L12.7996 9.3565C12.5809 9.1924 12.2654 9.2354 12.1004 9.4561C11.9344 9.6768 11.9793 9.9913 12.2 10.1573L14.7998 12.1007C15.0273 12.2687 15.3203 12.296 15.5761 12.1749C15.7793 12.0811 16 11.8525 16 11.501V4.499C16 4.1475 15.7793 3.9189 15.5762 3.8252ZM7.9998 3H1.5C0.6715 3 0 3.6719 0 4.5V10C0 11.6567 1.3431 13 2.9999 13H9.4997C10.3281 13 10.9997 12.3286 10.9997 11.5V6C10.9997 4.3433 9.6566 3 7.9998 3Z" fill="#6E7680"/>
<zoom style="dark" value="|:#98A0A9"/>
</svg>
