<svg width="16" height="16" viewBox="0 0 16 16" fill="none" xmlns="http://www.w3.org/2000/svg">
<path fill-rule="evenodd" clip-rule="evenodd" d="M6.67082 3.27639C6.75552 3.107 6.92865 3 7.11803 3H8.88197C9.07135 3 9.24448 3.107 9.32918 3.27639L9.69098 4H6.30902L6.67082 3.27639ZM5.19098 4L5.77639 2.82918C6.03048 2.321 6.54988 2 7.11803 2H8.88197C9.45012 2 9.96952 2.321 10.2236 2.82918L10.809 4H11.995H13H13.5C13.7761 4 14 4.22386 14 4.5C14 4.77614 13.7761 5 13.5 5H12.9L12.1351 12.6493C12.0584 13.4161 11.4131 14 10.6425 14H5.35748C4.58685 14 3.94161 13.4161 3.86493 12.6493L3.1 5H2.5C2.22386 5 2 4.77614 2 4.5C2 4.22386 2.22386 4 2.5 4H3H4.00499H5.19098ZM4.10499 5H11.895L11.14 12.5498C11.1145 12.8054 10.8994 13 10.6425 13H5.35748C5.10061 13 4.88552 12.8054 4.85996 12.5498L4.10499 5ZM6 6.5C6 6.22386 6.22386 6 6.5 6C6.77614 6 7 6.22386 7 6.5V11.5C7 11.7761 6.77614 12 6.5 12C6.22386 12 6 11.7761 6 11.5V6.5ZM9.5 6C9.22386 6 9 6.22386 9 6.5V11.5C9 11.7761 9.22386 12 9.5 12C9.77614 12 10 11.7761 10 11.5V6.5C10 6.22386 9.77614 6 9.5 6Z" fill="#040413" fill-opacity="0.56"/>
<zoom style="hover" value="|:#222230FF"/>
<zoom style="press" value="|:#0862D1FF"/>
<zoom style="dark" value="|:#FFFFFF89"/>
<zoom style="hover_dark" value="|:#F5F5F5FF"/>
<zoom style="press_dark" value="|:#F5F5F5FF"/>
</svg>
