<svg width="12" height="12" viewBox="0 0 12 12" fill="none" xmlns="http://www.w3.org/2000/svg">
<path fill-rule="evenodd" clip-rule="evenodd" d="M7.77576 5.74633C7.77102 5.74102 7.76611 5.73582 7.76103 5.73072C7.75675 5.72644 7.7524 5.72228 7.74797 5.71825L4.76448 2.73472C4.61803 2.58827 4.38077 2.58845 4.23455 2.73512C4.08833 2.88179 4.08851 3.11941 4.23495 3.26585L6.96608 5.99701L4.23672 8.73496C4.09051 8.88164 4.0906 9.11936 4.23693 9.26592C4.38327 9.41248 4.62042 9.41238 4.76664 9.26571L7.70369 6.31941C7.72629 6.30495 7.74768 6.28782 7.76742 6.26803C7.91067 6.12434 7.91341 5.89335 7.77576 5.74633Z" fill="#6E7680"/>
<zoom style="dark" value="|:#98A0A9"/>
</svg>
