<svg width="12" height="12" viewBox="0 0 12 12" fill="none" xmlns="http://www.w3.org/2000/svg">
<path fill-rule="evenodd" clip-rule="evenodd" d="M0.79 11.9993C0.569 11.9993 0.375 11.8543 0.312 11.6443C0.104 10.9603 0 10.2383 0 9.49934C0 5.53134 3.097 2.27334 7 2.01634V0.499336C7 0.297336 7.122 0.114336 7.309 0.0373363C7.495 -0.0386637 7.711 0.00333631 7.854 0.145336L11.854 4.14534C12.049 4.34134 12.049 4.65734 11.854 4.85234L7.854 8.85234C7.71 8.99534 7.494 9.03734 7.309 8.96134C7.122 8.88434 7 8.70134 7 8.49934V7.01834C4.315 7.21934 2.048 9.02534 1.27 11.6423C1.206 11.8533 1.011 11.9993 0.79 11.9993Z" fill="black"/>
</svg>
