<svg width="10" height="10" viewBox="0 0 10 10" fill="none" xmlns="http://www.w3.org/2000/svg">
<path clip-rule="evenodd" d="M10 5C10 7.76142 7.76142 10 5 10C2.23858 10 0 7.76142 0 5C0 2.23858 2.23858 0 5 0C7.76142 0 10 2.23858 10 5ZM3.56694 2.68306C3.32286 2.43898 2.92714 2.43898 2.68306 2.68306C2.43898 2.92714 2.43898 3.32286 2.68306 3.56694L4.11612 5L2.68306 6.43306C2.43898 6.67714 2.43898 7.07286 2.68306 7.31694C2.92714 7.56102 3.32286 7.56102 3.56694 7.31694L5 5.88388L6.43306 7.31694C6.67714 7.56102 7.07286 7.56102 7.31694 7.31694C7.56102 7.07286 7.56102 6.67714 7.31694 6.43306L5.88388 5L7.31694 3.56694C7.56102 3.32286 7.56102 2.92714 7.31694 2.68306C7.07286 2.43898 6.67714 2.43898 6.43306 2.68306L5 4.11612L3.56694 2.68306Z" fill="#FF2638" fill-rule="evenodd"/>
<zoom style="dark" value=":none|:#F21F31"/>
</svg>
