<svg width="14" height="14" viewBox="0 0 14 14" fill="none" xmlns="http://www.w3.org/2000/svg">
<path d="M7.56928 10.2472L6.48779 10.788C6.00409 11.0298 6.00409 11.72 6.48779 11.9619L7.56928 12.5027C7.81227 12.6242 8.08028 12.6875 8.35197 12.6875H13.125C13.6083 12.6875 14 12.2958 14 11.8125V10.9375C14 10.4542 13.6083 10.0625 13.125 10.0625H8.35189C8.0802 10.0624 7.81227 10.1257 7.56928 10.2472ZM14 3.0625V8.7494C14 8.99099 13.8041 9.1869 13.5625 9.1869C13.3209 9.1869 13.125 8.99099 13.125 8.7494V3.0625C13.125 2.58002 12.7325 2.1875 12.25 2.1875H1.75C1.26752 2.1875 0.875 2.58002 0.875 3.0625V10.0625C0.875 10.545 1.26752 10.9375 1.75 10.9375H4.8125C5.05409 10.9375 5.25 11.1334 5.25 11.375C5.25 11.6166 5.05409 11.8125 4.8125 11.8125H1.75C0.783475 11.8125 0 11.029 0 10.0625V3.0625C0 2.09598 0.783475 1.3125 1.75 1.3125H12.25C13.2164 1.3125 14 2.09598 14 3.0625Z" fill="#6E7680"/>
<zoom style="dark" value=":none|:#F1F4F6"/>
</svg>
