<svg width="8" height="8" viewBox="0 0 8 8" fill="none" xmlns="http://www.w3.org/2000/svg">
<path fill-rule="evenodd" clip-rule="evenodd" d="M5.5 1.25H2.5C2.36193 1.25 2.25 1.36193 2.25 1.5V6.5C2.25 6.63807 2.36193 6.75 2.5 6.75H5.5C5.63807 6.75 5.75 6.63807 5.75 6.5V1.5C5.75 1.36193 5.63807 1.25 5.5 1.25ZM2.5 0C1.67157 0 1 0.671573 1 1.5V6.5C1 7.32843 1.67157 8 2.5 8H5.5C6.32843 8 7 7.32843 7 6.5V1.5C7 0.671573 6.32843 0 5.5 0H2.5Z" fill="#09A639"/>
<zoom style="dark" value="|:#09A639"/>
<zoom style="selected" value="|:#09A639"/>
</svg>
