<svg width="16" height="16" viewBox="0 0 16 16" fill="none" xmlns="http://www.w3.org/2000/svg">
<path fill-rule="evenodd" clip-rule="evenodd" d="M9.50588 14.424C9.46389 14.6969 9.65111 14.9522 9.92404 14.9942C10.197 15.0362 10.4523 14.849 10.4943 14.576L10.9675 11.5H14.5C14.7761 11.5 15 11.2762 15 11C15 10.7239 14.7761 10.5 14.5 10.5H11.1213L11.8906 5.50002H14.5C14.7761 5.50002 15 5.27616 15 5.00002C15 4.72388 14.7761 4.50002 14.5 4.50002H12.0444L12.4943 1.57604C12.5362 1.30311 12.349 1.04781 12.0761 1.00582C11.8032 0.963833 11.5479 1.15105 11.5059 1.42398L11.0326 4.50002H6.04441L6.49426 1.57604C6.53625 1.30311 6.34903 1.04781 6.0761 1.00582C5.80317 0.963833 5.54787 1.15105 5.50588 1.42398L5.03265 4.50002H1.5C1.22386 4.50002 1 4.72388 1 5.00002C1 5.27616 1.22386 5.50002 1.5 5.50002H4.8788L4.10957 10.5H1.5C1.22386 10.5 1 10.7239 1 11C1 11.2762 1.22386 11.5 1.5 11.5H3.95572L3.50588 14.424C3.4639 14.6969 3.65111 14.9522 3.92404 14.9942C4.19697 15.0362 4.45227 14.849 4.49426 14.576L4.96749 11.5H9.95572L9.50588 14.424ZM5.12134 10.5H10.1096L10.8788 5.50002H5.89057L5.12134 10.5Z" fill="#222230"/>
<zoom name="NewUI_Search_ChannelTab_dark" style="dark" value="|:#FFFFFF"/>
<zoom name="NewUI_Search_ChannelTab_selected" style="selected" value="|:#FFFFFF"/>
</svg>
