<svg width="16" height="16" viewBox="0 0 16 16" fill="none" xmlns="http://www.w3.org/2000/svg">
<path fill-rule="evenodd" clip-rule="evenodd" d="M5.63495 8.33829C5.64126 8.34536 5.6478 8.3523 5.65459 8.3591C5.66029 8.36481 5.66609 8.37035 5.672 8.37573L9.64999 12.3538C9.84525 12.549 10.1616 12.5488 10.3566 12.3532C10.5515 12.1577 10.5513 11.8408 10.356 11.6456L6.71452 8.00404L10.3537 4.35344C10.5486 4.15787 10.5485 3.84092 10.3534 3.6455C10.1583 3.45009 9.84206 3.45021 9.6471 3.64578L5.73104 7.57418C5.7009 7.59346 5.67238 7.6163 5.64607 7.64269C5.45506 7.83427 5.45141 8.14225 5.63495 8.33829Z" fill="#6E7680"/>
<zoom style="dark" value="|:#98A0A9"/>
<zoom style="hover" value="|:#222230"/>
<zoom style="hover_dark" value="|:#F5F5F5"/>
</svg>
