<svg width="14" height="14" viewBox="0 0 14 14" fill="none" xmlns="http://www.w3.org/2000/svg">
<path fill-rule="evenodd" clip-rule="evenodd" d="M8.14353 0.981148C9.45157 -0.32705 11.5723 -0.327049 12.8804 0.981149L13.019 1.1198C14.327 2.42797 14.327 4.5489 13.019 5.85707L10.8488 8.02752C10.678 8.19839 10.401 8.1984 10.2301 8.02756C10.0592 7.85672 10.0592 7.57971 10.2301 7.40884L12.4002 5.23839C13.3666 4.27192 13.3666 2.70494 12.4002 1.73848L12.2616 1.59983C11.2953 0.633391 9.72861 0.63339 8.76229 1.59983L6.59211 3.77028C6.42126 3.94115 6.14425 3.94116 5.97339 3.77032C5.80252 3.59948 5.80251 3.32247 5.97335 3.1516L8.14353 0.981148ZM9.05936 4.94064C9.23021 5.1115 9.23021 5.3885 9.05936 5.55936L5.55936 9.05936C5.3885 9.23021 5.1115 9.23021 4.94064 9.05936C4.76979 8.8885 4.76979 8.6115 4.94064 8.44064L8.44064 4.94064C8.6115 4.76979 8.8885 4.76979 9.05936 4.94064ZM3.7699 5.97244C3.94077 6.14328 3.94078 6.42029 3.76994 6.59116L1.59976 8.76161C0.633414 9.72808 0.633413 11.2951 1.59976 12.2615L1.73839 12.4002C2.70471 13.3666 4.27139 13.3666 5.23771 12.4002L7.40789 10.2297C7.57874 10.0589 7.85574 10.0588 8.02661 10.2297C8.19747 10.4005 8.19749 10.6775 8.02665 10.8484L5.85647 13.0189C4.54843 14.327 2.42767 14.327 1.11963 13.0189L0.981002 12.8802C-0.327003 11.572 -0.326999 9.4511 0.981004 8.14293L3.15118 5.97248C3.32203 5.80161 3.59904 5.80159 3.7699 5.97244Z" fill="#6E7680"/>
<zoom style="dark" value=":none|:#F1F4F6"/>
</svg>
