<svg width="14" height="14" viewBox="0 0 14 14" fill="none" xmlns="http://www.w3.org/2000/svg">
<path d="M7.00249 4.375C6.60979 4.375 6.3016 4.71174 6.3363 5.10291L6.66841 8.8467C6.68359 9.01781 6.82694 9.149 6.99872 9.149C7.17025 9.149 7.31347 9.01819 7.32897 8.84736L7.66857 5.10424C7.7041 4.71262 7.39573 4.375 7.00249 4.375Z" fill="#000001"/>
<path d="M6.4931 11.1606C6.63427 11.2697 6.80431 11.3243 7.00323 11.3243C7.19573 11.3243 7.36256 11.2729 7.50373 11.1703C7.65131 11.0612 7.7251 10.8687 7.7251 10.5928C7.7251 10.3168 7.65131 10.1275 7.50373 10.0249C7.36256 9.92221 7.19573 9.87088 7.00323 9.87088C6.80431 9.87088 6.63427 9.92221 6.4931 10.0249C6.35194 10.1275 6.28135 10.3168 6.28135 10.5928C6.28135 10.8623 6.35194 11.0515 6.4931 11.1606Z" fill="#000001"/>
<path fill-rule="evenodd" clip-rule="evenodd" d="M5.44185 1.375C6.13472 0.124999 7.8669 0.125001 8.55977 1.375L13.7563 10.75C14.4492 12 13.5831 13.5625 12.1973 13.5625H1.80428C0.418538 13.5625 -0.447548 12 0.245322 10.75L5.44185 1.375ZM7.79447 1.7992L12.991 11.1742C13.39 11.8941 12.8565 12.6875 12.1973 12.6875H1.80428C1.14508 12.6875 0.611601 11.8941 1.01062 11.1742L6.20715 1.7992C6.56685 1.15027 7.43477 1.15027 7.79447 1.7992Z" fill="#000001"/>
<zoom style="dark" value="|:#F7F9FA |:#F7F9FA"/>
</svg>
