<svg width="12" height="12" viewBox="0 0 12 12" fill="none" xmlns="http://www.w3.org/2000/svg">
<path d="M4.5 4.125C4.08579 4.125 3.75 4.46079 3.75 4.875C3.75 5.28921 4.08579 5.625 4.5 5.625H7.5C7.91421 5.625 8.25 5.28921 8.25 4.875C8.25 4.46079 7.91421 4.125 7.5 4.125H4.5Z" fill="#6E7680"/>
<path fill-rule="evenodd" clip-rule="evenodd" d="M0 2.625C0 3.03921 0.335786 3.375 0.75 3.375V10.875C0.75 11.2892 1.08579 11.625 1.5 11.625H10.5C10.9142 11.625 11.25 11.2892 11.25 10.875V3.375C11.6642 3.375 12 3.03921 12 2.625V1.125C12 0.710786 11.6642 0.375 11.25 0.375H0.75C0.335786 0.375 0 0.710786 0 1.125V2.625ZM11.25 1.125H0.75V2.625H11.25V1.125ZM1.5 3.375H10.5V10.875H1.5V3.375Z" fill="#6E7680"/>
<zoom name="NewUI_Arch_Channel_dark" style="dark" value="|:#98A0A9|:#98A0A9"/>
</svg>
