<svg width="8" height="8" viewBox="0 0 8 8" fill="none" xmlns="http://www.w3.org/2000/svg">
<path fill-rule="evenodd" clip-rule="evenodd" d="M5.60007 6.3002C5.0151 6.73962 4.28796 7 3.5 7C1.567 7 0 5.433 0 3.5C0 1.567 1.567 0 3.5 0C5.433 0 7 1.567 7 3.5C7 4.28796 6.73962 5.0151 6.3002 5.60007C6.31879 5.61407 6.33663 5.62952 6.35355 5.64645L7.85355 7.14645C8.04882 7.34171 8.04882 7.65829 7.85355 7.85355C7.65829 8.04882 7.34171 8.04882 7.14645 7.85355L5.64645 6.35355C5.62952 6.33663 5.61407 6.31879 5.60007 6.3002ZM6 3.5C6 4.88071 4.88071 6 3.5 6C2.11929 6 1 4.88071 1 3.5C1 2.11929 2.11929 1 3.5 1C4.88071 1 6 2.11929 6 3.5Z" fill="white"/>
</svg>
