<svg width="227" height="201" viewBox="0 0 227 201" fill="none" xmlns="http://www.w3.org/2000/svg">
<path d="M91.6462 111.308C93.4717 110.419 95.5495 110.193 97.5235 110.668L214.464 138.798C218.013 139.651 219.629 143.777 217.605 146.814L211.344 156.205C210.722 157.138 209.926 157.944 208.999 158.576L152.072 197.463C149.698 199.085 146.678 199.437 143.994 198.404L40.4245 158.538C38.8643 157.937 37.5088 156.903 36.5185 155.556L30.8281 147.817C28.8866 145.176 29.8125 141.422 32.759 139.987L91.6462 111.308Z" fill="#2538BF"/>
<path d="M89.9077 110.035C91.7253 109.121 93.8047 108.869 95.7882 109.322L214.89 136.534C218.639 137.391 219.538 142.321 216.332 144.445L150.437 188.124C149.077 189.026 147.375 189.244 145.831 188.714L31.454 149.421C27.0583 147.911 26.6485 141.854 30.8007 139.766L89.9077 110.035Z" fill="#A8CCF8"/>
<path d="M94.7613 114.169C95.1371 113.976 95.5702 113.925 95.9805 114.026L195.452 138.582C197.012 138.967 197.272 141.074 195.852 141.827L164.217 158.598C163.815 158.811 163.347 158.859 162.911 158.733L68.0758 131.28C66.5547 130.84 66.3541 128.767 67.7626 128.043L94.7613 114.169Z" fill="#0E72ED"/>
<path d="M77.468 140.777C79.4 139.791 81.6295 139.557 83.724 140.121L134.759 153.876C137.173 154.526 137.397 157.864 135.091 158.831L117.996 165.999C116.082 166.802 113.944 166.898 111.965 166.27L63.9686 151.033C62.4779 150.56 62.3093 148.518 63.7022 147.807L77.468 140.777Z" fill="#648CFE"/>
<path d="M98.0642 34.3056C98.4935 29.457 102.797 25.8908 107.641 26.3703L218.682 37.3606C223.346 37.8223 226.818 41.8774 226.556 46.5572L221.804 131.372C221.561 135.71 217.464 138.781 213.231 137.798L98.8128 111.216C94.5653 110.229 91.6927 106.265 92.0773 101.922L98.0642 34.3056Z" fill="white"/>
<path d="M100.679 34.5371C100.979 31.1431 103.992 28.6468 107.383 28.9824L218.424 39.9727C221.689 40.2959 224.119 43.1345 223.935 46.4103L219.183 131.225C219.031 133.937 216.471 135.856 213.825 135.241L99.4068 108.659C96.4335 107.969 94.4228 105.194 94.692 102.153L100.679 34.5371Z" stroke="#A8CCF8" stroke-width="5.24975"/>
<circle cx="158.341" cy="34.2492" fill="white" r="0.874958"/>
<path d="M0.411621 10.6255L217.8 41.9878C220.048 42.3122 221.674 44.304 221.542 46.5722L216.61 131.244C216.561 132.079 215.928 132.763 215.098 132.876L0.411621 161.993V10.6255Z" fill="url(#paint0_linear_8061_183646)"/>
<rect height="10.1064" rx="2.82039" transform="rotate(6.47283 131.177 42.3042)" width="44.8912" fill="#A8CCF8" x="131.177" y="42.3042"/>
<path d="M125.241 96.2365C125.334 94.5916 126.811 93.3761 128.443 93.6015L153.455 97.0559C155.035 97.274 156.119 98.7571 155.849 100.328L154.988 105.324C154.726 106.848 153.285 107.876 151.758 107.629L127.352 103.679C125.927 103.449 124.906 102.178 124.987 100.736L125.241 96.2365Z" fill="#A8CCF8"/>
<rect height="10.1064" rx="2.82039" transform="rotate(6.47283 129.295 58.885)" width="24.9134" fill="#DEE2FD" x="129.295" y="58.885"/>
<rect height="10.1064" rx="2.82039" transform="rotate(8.59585 127.511 75.3523)" width="55.3062" fill="#DEE2FD" x="127.511" y="75.3523"/>
<rect height="10.1064" rx="3.05542" transform="rotate(6.47283 117.632 40.7673)" width="10.1064" fill="#A8CCF8" x="117.632" y="40.7673"/>
<rect height="10.1064" rx="3.05542" transform="rotate(6.47283 112.316 90.8003)" width="10.1064" fill="#A8CCF8" x="112.316" y="90.8003"/>
<rect height="10.1064" rx="3.05542" transform="rotate(6.47283 115.75 57.3484)" width="10.1064" fill="#DEE2FD" x="115.75" y="57.3484"/>
<rect height="10.1064" rx="3.05542" transform="rotate(6.47283 114.14 73.3523)" width="10.1064" fill="#DEE2FD" x="114.14" y="73.3523"/>
<path clip-rule="evenodd" d="M76.1354 67.1794C68.0128 60.3925 66.93 48.306 73.7169 40.1834C80.5039 32.0608 92.5904 30.978 100.713 37.7649C105.86 42.0656 108.18 48.4944 107.463 54.694L108.788 69.4872L93.9957 70.8123C88.022 72.621 81.2828 71.4804 76.1354 67.1794Z" fill="#FD3D4A" fill-rule="evenodd"/>
<path d="M89.7821 66.0241C87.6905 66.0241 85.8415 65.737 84.2352 65.1629C82.6289 64.5955 81.2789 63.7582 80.1853 62.6509C79.0916 61.5435 78.2645 60.1867 77.704 58.5804C77.1435 56.9741 76.8633 55.1354 76.8633 53.0643C76.8633 51.0616 77.1469 49.2707 77.7143 47.6917C78.2884 46.1128 79.1189 44.773 80.2058 43.6726C81.2994 42.5652 82.6255 41.7211 84.1839 41.1401C85.7492 40.5591 87.5196 40.2686 89.495 40.2686C91.4157 40.2686 93.0972 40.583 94.5395 41.2118C95.9886 41.8338 97.1984 42.678 98.169 43.7443C99.1465 44.8038 99.8779 45.9966 100.363 47.3226C100.855 48.6487 101.101 50.0157 101.101 51.4238C101.101 52.415 101.054 53.4197 100.958 54.4382C100.862 55.4567 100.661 56.3931 100.353 57.2475C100.045 58.0951 99.5703 58.7787 98.9277 59.2981C98.2921 59.8176 97.4308 60.0774 96.344 60.0774C95.8655 60.0774 95.3392 60.0022 94.765 59.8518C94.1909 59.7014 93.6816 59.4519 93.2373 59.1033C92.793 58.7547 92.5299 58.2865 92.4479 57.6987L92.3248 57.6987C92.1608 58.0951 91.9079 58.4711 91.5661 58.8265C91.2312 59.1819 90.7903 59.4656 90.2435 59.6775C89.7035 59.8894 89.0439 59.9817 88.2646 59.9543C87.376 59.9202 86.5934 59.7219 85.9167 59.3597C85.24 58.9905 84.6727 58.4916 84.2147 57.8627C83.7636 57.227 83.4218 56.4922 83.1894 55.6583C82.9638 54.8176 82.851 53.9119 82.851 52.9413C82.851 52.0185 82.9877 51.1743 83.2612 50.4088C83.5346 49.6432 83.9139 48.9734 84.3992 48.3992C84.8914 47.825 85.4656 47.3671 86.1217 47.0253C86.7848 46.6767 87.4991 46.4614 88.2646 46.3793C88.9482 46.311 89.5702 46.3418 90.1307 46.4716C90.6912 46.5947 91.1526 46.7826 91.5148 47.0355C91.8771 47.2816 92.1061 47.555 92.2018 47.8558L92.3248 47.8558L92.3248 46.7074L94.4985 46.7074L94.4985 55.9762C94.4985 56.5503 94.6591 57.0561 94.9803 57.4936C95.3016 57.9311 95.7698 58.1498 96.385 58.1498C97.0822 58.1498 97.6154 57.9106 97.9845 57.4321C98.3604 56.9536 98.6167 56.2154 98.7534 55.2174C98.897 54.2195 98.9688 52.9413 98.9688 51.3828C98.9688 50.4669 98.8423 49.5646 98.5894 48.676C98.3433 47.7806 97.9674 46.9433 97.4616 46.164C96.9626 45.3848 96.3303 44.6979 95.5648 44.1032C94.7992 43.5085 93.9004 43.0437 92.8682 42.7088C91.8429 42.367 90.6775 42.1961 89.3719 42.1961C87.7656 42.1961 86.3268 42.4456 85.0554 42.9446C83.7909 43.4367 82.7143 44.1579 81.8257 45.108C80.944 46.0513 80.2707 47.1996 79.8059 48.553C79.3479 49.8995 79.1189 51.4307 79.1189 53.1463C79.1189 54.8893 79.3479 56.4375 79.8059 57.7909C80.2707 59.1443 80.9542 60.2858 81.8565 61.2155C82.7656 62.1451 83.89 62.8491 85.2297 63.3276C86.5695 63.8129 88.1142 64.0555 89.8641 64.0555C90.616 64.0555 91.3576 63.9838 92.089 63.8402C92.8204 63.6967 93.4663 63.5395 94.0268 63.3686C94.5873 63.1977 94.9906 63.0712 95.2367 62.9892L95.8108 64.8758C95.387 65.0535 94.8334 65.2312 94.1499 65.4089C93.4732 65.5867 92.7486 65.7336 91.9762 65.8498C91.2107 65.966 90.4793 66.0241 89.7821 66.0241ZM88.5927 57.8627C89.5087 57.8627 90.2503 57.6782 90.8176 57.3091C91.385 56.9399 91.7985 56.3829 92.0582 55.6378C92.318 54.8928 92.4479 53.9529 92.4479 52.8182C92.4479 51.6699 92.3043 50.7745 92.0172 50.1319C91.7301 49.4894 91.3063 49.0383 90.7459 48.7786C90.1854 48.5188 89.495 48.3889 88.6747 48.3889C87.8955 48.3889 87.2291 48.594 86.6754 49.0041C86.1286 49.4074 85.7082 49.9474 85.4143 50.6241C85.1272 51.294 84.9837 52.0253 84.9837 52.8182C84.9837 53.6932 85.0999 54.5168 85.3323 55.2892C85.5647 56.0548 85.944 56.6768 86.4703 57.1553C86.9967 57.6269 87.7041 57.8627 88.5927 57.8627Z" fill="#000001"/>
<defs>
<linearGradient gradientUnits="userSpaceOnUse" id="paint0_linear_8061_183646" x1="-23" x2="340.08" y1="280" y2="279">
<stop stop-color="#FFBF39" stop-opacity="0.01" opacity="0.1"/>
<stop offset="1" stop-color="#FFBF39" stop-opacity="0.3" opacity="0.3"/>
</linearGradient>
</defs>
<zoom style="Notify" value="||||||||||||||||||:white"/>
</svg>
