<svg width="20" height="20" viewBox="0 0 20 20" fill="none" xmlns="http://www.w3.org/2000/svg">
<path d="M1.25 0.625C0.559644 0.625 0 1.18464 0 1.875V4.375H20V1.875C20 1.18464 19.4404 0.625 18.75 0.625H1.25Z" fill="#6E7680"/>
<path fill-rule="evenodd" clip-rule="evenodd" d="M18.75 5.625H1.25V18.125C1.25 18.8154 1.80964 19.375 2.5 19.375H17.5C18.1904 19.375 18.75 18.8154 18.75 18.125V5.625ZM6.25 8.125C6.25 7.43464 6.80964 6.875 7.5 6.875H12.5C13.1904 6.875 13.75 7.43464 13.75 8.125C13.75 8.81536 13.1904 9.375 12.5 9.375H7.5C6.80964 9.375 6.25 8.81536 6.25 8.125Z" fill="#6E7680"/>
<zoom name="NewUI_Archive_Channel_dark" style="dark" value="|:#98A0A9|:#98A0A9"/>
</svg>
