<svg width="14" height="14" viewBox="0 0 14 14" fill="none" xmlns="http://www.w3.org/2000/svg">
<path fill-rule="evenodd" clip-rule="evenodd" d="M10.0625 7C10.0625 8.69137 8.69137 10.0625 7 10.0625C5.30863 10.0625 3.9375 8.69137 3.9375 7C3.9375 5.30863 5.30863 3.9375 7 3.9375C8.69137 3.9375 10.0625 5.30863 10.0625 7ZM9.1875 7C9.1875 8.20812 8.20812 9.1875 7 9.1875C5.79188 9.1875 4.8125 8.20812 4.8125 7C4.8125 5.79188 5.79188 4.8125 7 4.8125C8.20812 4.8125 9.1875 5.79188 9.1875 7Z" fill="#131619"/>
<path fill-rule="evenodd" clip-rule="evenodd" d="M7 2.625C3 2.625 0 6.02778 0 7C0 7.97222 3 11.375 7 11.375C11 11.375 14 7.97222 14 7C14 6.02778 11 2.625 7 2.625ZM0.924689 7.08669C0.906695 7.04942 0.894747 7.02071 0.886905 7C0.894747 6.97929 0.906695 6.95058 0.924689 6.91331C0.983429 6.79164 1.08271 6.62818 1.22981 6.43316C1.52315 6.04427 1.96739 5.58178 2.5372 5.1386C3.68205 4.24816 5.24814 3.5 7 3.5C8.75186 3.5 10.3179 4.24816 11.4628 5.1386C12.0326 5.58178 12.4769 6.04427 12.7702 6.43316C12.9173 6.62818 13.0166 6.79164 13.0753 6.91331C13.0933 6.95058 13.1053 6.97929 13.1131 7C13.1053 7.02071 13.0933 7.04942 13.0753 7.08669C13.0166 7.20836 12.9173 7.37182 12.7702 7.56684C12.4769 7.95573 12.0326 8.41821 11.4628 8.8614C10.3179 9.75184 8.75186 10.5 7 10.5C5.24814 10.5 3.68205 9.75184 2.5372 8.8614C1.96739 8.41821 1.52315 7.95573 1.22981 7.56684C1.08271 7.37182 0.983429 7.20836 0.924689 7.08669Z" fill="#131619"/>
<zoom style="dark" value=":none|:#F1F4F6|:#F1F4F6"/>
<zoom style="disable" value=":none|:#6E7680|:#6E7680"/>
</svg>
