<svg width="14" height="14" viewBox="0 0 14 14" fill="none" xmlns="http://www.w3.org/2000/svg">
<path fill-rule="evenodd" clip-rule="evenodd" d="M1.42097 3.60737C1.16666 4.10649 1.16666 4.75989 1.16666 6.06667V6.76668C1.16666 8.07347 1.16666 8.72686 1.42097 9.22599C1.64468 9.66503 2.00163 10.022 2.44068 10.2457C2.71777 10.3869 3.04241 10.4497 3.49999 10.4776V12.9511C3.49999 13.4899 4.16802 13.7407 4.52257 13.335L6.99999 10.5L6.99997 10.5H9.09999C10.4068 10.5 11.0602 10.5 11.5593 10.2457C11.9983 10.022 12.3553 9.66503 12.579 9.22599C12.8333 8.72686 12.8333 8.07347 12.8333 6.76668V6.06668C12.8333 4.75989 12.8333 4.10649 12.579 3.60737C12.3553 3.16832 11.9983 2.81137 11.5593 2.58766C11.0602 2.33334 10.4068 2.33334 9.09999 2.33334H4.89999C3.5932 2.33334 2.93981 2.33334 2.44068 2.58766C2.00163 2.81137 1.64468 3.16832 1.42097 3.60737Z" fill="#909096"/>
<zoom name="NewUI_Search_All_dark" style="dark" value="|:#FFFFFF"/>
</svg>
