<svg width="14" height="14" viewBox="0 0 14 14" fill="none" xmlns="http://www.w3.org/2000/svg">
<path d="M3.0625 7C3.0625 7.84569 2.37694 8.53125 1.53125 8.53125C0.685564 8.53125 0 7.84569 0 7C0 6.15431 0.685564 5.46875 1.53125 5.46875C2.37694 5.46875 3.0625 6.15431 3.0625 7Z" fill="#131619"/>
<path d="M8.53125 7C8.53125 7.84569 7.84569 8.53125 7 8.53125C6.15431 8.53125 5.46875 7.84569 5.46875 7C5.46875 6.15431 6.15431 5.46875 7 5.46875C7.84569 5.46875 8.53125 6.15431 8.53125 7Z" fill="#131619"/>
<path d="M12.4688 8.53125C13.3144 8.53125 14 7.84569 14 7C14 6.15431 13.3144 5.46875 12.4688 5.46875C11.6231 5.46875 10.9375 6.15431 10.9375 7C10.9375 7.84569 11.6231 8.53125 12.4688 8.53125Z" fill="#131619"/>
<zoom style="dark" value="|:#F7F9FA|:#F7F9FA|:#F7F9FA"/>
</svg>
