<svg width="88" height="88" viewBox="0 0 88 88" fill="none" xmlns="http://www.w3.org/2000/svg">
<path fill-rule="evenodd" clip-rule="evenodd" d="M0 44C0 30.0558 0 23.0837 2.34468 17.6084C5.28236 10.7483 10.7483 5.28236 17.6084 2.34468C23.0837 0 30.0558 0 44 0C57.9442 0 64.9163 0 70.3916 2.34468C77.2517 5.28236 82.7176 10.7483 85.6553 17.6084C88 23.0837 88 30.0558 88 44C88 57.9442 88 64.9163 85.6553 70.3916C82.7176 77.2517 77.2517 82.7176 70.3916 85.6553C64.9163 88 57.9442 88 44 88C30.0558 88 23.0837 88 17.6084 85.6553C10.7483 82.7176 5.28236 77.2517 2.34468 70.3916C0 64.9163 0 57.9442 0 44Z" fill="#0E71EB"/>
<path fill-rule="evenodd" clip-rule="evenodd" d="M26.763 29.8221C26 31.3194 26 33.2796 26 37.2V50.8C26 54.7204 26 56.6806 26.763 58.1779C27.4341 59.4951 28.5049 60.5659 29.8221 61.237C31.3194 62 33.2796 62 37.2 62H50.8C54.7204 62 56.6806 62 58.1779 61.237C59.4951 60.5659 60.5659 59.4951 61.237 58.1779C62 56.6806 62 54.7204 62 50.8V37.2C62 33.2796 62 31.3194 61.237 29.8221C60.5659 28.5049 59.4951 27.4341 58.1779 26.763C56.6806 26 54.7204 26 50.8 26H37.2C33.2796 26 31.3194 26 29.8221 26.763C28.5049 27.4341 27.4341 28.5049 26.763 29.8221ZM36 34.5C37.5188 34.5 38.75 33.2688 38.75 31.75C38.75 30.2312 37.5188 29 36 29C34.4812 29 33.25 30.2312 33.25 31.75C33.25 33.2688 34.4812 34.5 36 34.5ZM54.75 32C54.75 33.5188 53.5188 34.75 52 34.75C50.4812 34.75 49.25 33.5188 49.25 32C49.25 30.4812 50.4812 29.25 52 29.25C53.5188 29.25 54.75 30.4812 54.75 32ZM40.1855 52.8662C40.1855 53.4924 39.6779 54 39.0518 54C38.4256 54 37.918 53.4924 37.918 52.8662V43.6632C37.918 43.6006 37.8672 43.5498 37.8046 43.5498C37.7811 43.5498 37.7583 43.5571 37.7391 43.5706L35.9874 44.81C35.4105 45.2182 34.6133 44.8056 34.6133 44.0989C34.6133 43.8153 34.7514 43.5494 34.9834 43.3863L37.4827 41.6295C37.7717 41.4264 38.1163 41.3174 38.4695 41.3174C39.4173 41.3174 40.1855 42.0857 40.1855 43.0334V52.8662ZM53.3604 47.5049C53.3604 51.7852 51.4443 54.3076 48.2188 54.3076C46.4283 54.3076 44.9624 53.5017 44.2166 52.1847C43.8615 51.5576 44.4158 50.8887 45.1364 50.8887C45.6547 50.8887 46.0836 51.2615 46.4149 51.66C46.8331 52.163 47.4858 52.4531 48.2451 52.4531C50.0802 52.4531 51.1407 50.7836 51.1883 47.8619C51.1891 47.8109 51.1479 47.7686 51.0969 47.7686C51.0621 47.7686 51.0303 47.7885 51.0143 47.8194C50.4082 48.9919 49.2172 49.6582 47.7529 49.6582C45.3359 49.6582 43.5781 47.8828 43.5781 45.4482C43.5781 42.8555 45.5293 41.001 48.2891 41.001C51.3213 41.001 53.3604 43.3037 53.3604 47.5049ZM45.8018 45.3779C45.8018 46.8721 46.8213 47.9092 48.2979 47.9092C49.7656 47.9092 50.8115 46.8633 50.8115 45.4219C50.8115 43.9629 49.7393 42.8467 48.3066 42.8467C46.874 42.8467 45.8018 43.9453 45.8018 45.3779Z" fill="white"/>
<rect x="35" y="23" width="2" height="10" rx="1" fill="white"/>
<rect x="51" y="23" width="2" height="10" rx="1" fill="white"/>
</svg>
