<svg width="24" height="24" viewBox="0 0 24 24" fill="none" xmlns="http://www.w3.org/2000/svg">
<path d="M0 9.6C0 6.23969 0 4.55953 0.653961 3.27606C1.2292 2.14708 2.14708 1.2292 3.27606 0.653961C4.55953 0 6.23969 0 9.6 0H14.4C17.7603 0 19.4405 0 20.7239 0.653961C21.8529 1.2292 22.7708 2.14708 23.346 3.27606C24 4.55953 24 6.23969 24 9.6V14.4C24 17.7603 24 19.4405 23.346 20.7239C22.7708 21.8529 21.8529 22.7708 20.7239 23.346C19.4405 24 17.7603 24 14.4 24H9.6C6.23969 24 4.55953 24 3.27606 23.346C2.14708 22.7708 1.2292 21.8529 0.653961 20.7239C0 19.4405 0 17.7603 0 14.4V9.6Z" fill="#FFFFFF01"/>
<path d="M12.875 7.625C12.875 7.14175 13.2668 6.75 13.75 6.75H16.375C16.8582 6.75 17.25 7.14175 17.25 7.625V16.375C17.25 16.8582 16.8582 17.25 16.375 17.25H13.75C13.2668 17.25 12.875 16.8582 12.875 16.375V7.625Z" fill="#0E72ED"/>
<path fill-rule="evenodd" clip-rule="evenodd" d="M7.625 5C6.17525 5 5 6.17525 5 7.625V16.375C5 17.8247 6.17525 19 7.625 19H16.375C17.8247 19 19 17.8247 19 16.375V7.625C19 6.17525 17.8247 5 16.375 5H7.625ZM16.375 5.875H7.625C6.6585 5.875 5.875 6.6585 5.875 7.625V16.375C5.875 17.3415 6.6585 18.125 7.625 18.125H16.375C17.3415 18.125 18.125 17.3415 18.125 16.375V7.625C18.125 6.6585 17.3415 5.875 16.375 5.875Z" fill="#0E72ED"/>
<zoom style="dark" value="||:#4793F1"/>
</svg>
