<svg width="24" height="24" viewBox="0 0 24 24" fill="none" xmlns="http://www.w3.org/2000/svg">
<path d="M4.85355 14.7464C4.53857 15.0614 4 14.8383 4 14.3929L4 8.80708C4 8.36163 4.53857 8.13855 4.85355 8.45353L7.64645 11.2464C7.84171 11.4417 7.84171 11.7583 7.64645 11.9535L4.85355 14.7464Z" fill="#747487"/>
<path fill-rule="evenodd" clip-rule="evenodd" d="M9.5 7.39999C9.5 7.06862 9.7796 6.79999 10.1245 6.79999H17.8755C18.2204 6.79999 18.5 7.06862 18.5 7.39999C18.5 7.73136 18.2204 7.99999 17.8755 7.99999H10.1245C9.7796 7.99999 9.5 7.73136 9.5 7.39999Z" fill="#747487"/>
<path fill-rule="evenodd" clip-rule="evenodd" d="M11.5 10.2C11.5 9.8686 11.7175 9.59998 11.9857 9.59998H18.0143C18.2825 9.59998 18.5 9.8686 18.5 10.2C18.5 10.5313 18.2825 10.8 18.0143 10.8H11.9857C11.7175 10.8 11.5 10.5313 11.5 10.2Z" fill="#747487"/>
<path fill-rule="evenodd" clip-rule="evenodd" d="M11.5 13C11.5 12.6686 11.7175 12.4 11.9857 12.4H18.0143C18.2825 12.4 18.5 12.6686 18.5 13C18.5 13.3313 18.2825 13.6 18.0143 13.6H11.9857C11.7175 13.6 11.5 13.3313 11.5 13Z" fill="#747487"/>
<path fill-rule="evenodd" clip-rule="evenodd" d="M9.5 15.8C9.5 15.4686 9.7796 15.2 10.1245 15.2H17.8755C18.2204 15.2 18.5 15.4686 18.5 15.8C18.5 16.1314 18.2204 16.4 17.8755 16.4H10.1245C9.7796 16.4 9.5 16.1314 9.5 15.8Z" fill="#747487"/>
<zoom style="dark" value="|:#999999|:#999999|:#999999|:#999999|:#999999"/>
<zoom style="disabled" value="|:#909096|:#909096|:#909096|:#909096|:#909096"/>
<zoom style="disabled_dark" value="|:#707070|:#707070|:#707070|:#707070|:#707070"/>
<zoom style="hover" value="|:#222230|:#222230|:#222230|:#222230|:#222230"/>
<zoom style="hover_dark" value="|:#F5F5F5|:#F5F5F5|:#F5F5F5|:#F5F5F5|:#F5F5F5"/>
<zoom style="selected" value="|:#0E72ED|:#0E72ED|:#0E72ED|:#0E72ED|:#0E72ED"/>
<zoom style="selected_dark" value="|:#4F9AF7|:#4F9AF7|:#4F9AF7|:#4F9AF7|:#4F9AF7"/>
</svg>
