<svg width="14" height="14" viewBox="0 0 14 14" fill="none" xmlns="http://www.w3.org/2000/svg">
<path d="M14 7C14 7.74855 13.9398 8.48255 13.8249 9.19825C13.4443 11.5676 11.5675 13.4443 9.19823 13.8249C8.48252 13.9398 7.7485 14 7 14C6.2515 14 5.51748 13.9398 4.80177 13.8249C2.43247 13.4443 0.555676 11.5676 0.175136 9.19825C0.0601828 8.48257 0 7.74855 0 7C0 6.25145 0.0601828 5.51745 0.175136 4.80175C0.555676 2.43244 2.43247 0.555675 4.80177 0.175135C5.51748 0.0601817 6.2515 0 7 0C7.7485 0 8.48252 0.0601817 9.19823 0.175135C11.5675 0.555675 13.4443 2.43244 13.8249 4.80175C13.9398 5.51743 14 6.25145 14 7Z" fill="#0B5CFF"/>
<path d="M14 7C14 7.74855 13.9398 8.48255 13.8249 9.19825C13.4443 11.5676 11.5675 13.4443 9.19823 13.8249C8.48252 13.9398 7.7485 14 7 14C6.2515 14 5.51748 13.9398 4.80177 13.8249C2.43247 13.4443 0.555676 11.5676 0.175136 9.19825C0.0601828 8.48257 0 7.74855 0 7C0 6.25145 0.0601828 5.51745 0.175136 4.80175C0.555676 2.43244 2.43247 0.555675 4.80177 0.175135C5.51748 0.0601817 6.2515 0 7 0C7.7485 0 8.48252 0.0601817 9.19823 0.175135C11.5675 0.555675 13.4443 2.43244 13.8249 4.80175C13.9398 5.51743 14 6.25145 14 7Z" fill="url(#paint0_radial_3955_14787)"/>
<path d="M14 7C14 7.74853 13.9398 8.48255 13.8248 9.19823C13.4443 11.5676 11.5675 13.4443 9.19818 13.8248C8.48247 13.9398 7.74848 14 6.99998 14C6.25147 14 5.51745 13.9398 4.80175 13.8248C2.43242 13.4443 0.555651 11.5676 0.175112 9.19823C0.0601578 8.48252 0 7.74853 0 7C0 6.25148 0.0601578 5.51743 0.175112 4.80172C0.555677 2.43244 2.43244 0.555626 4.80175 0.175112C5.51748 0.0601578 6.25145 0 6.99998 0C7.7485 0 8.4825 0.0601578 9.19818 0.175112C11.5675 0.555626 13.4443 2.43244 13.8248 4.80172C13.9398 5.51743 14 6.25143 14 7Z" fill="url(#paint1_radial_3955_14787)"/>
<g clip-path="url(#clip0_3955_14787)">
<path d="M7.32531 9.10557L6.7073 9.41456C6.43091 9.55274 6.4309 9.94717 6.70728 10.0854L7.32528 10.3944C7.46415 10.4638 7.61728 10.5 7.77254 10.5H10.5C10.7761 10.5 11 10.2761 11 10V9.5C11 9.22386 10.7761 9 10.5 9H7.77251C7.61727 9 7.46416 9.03615 7.32531 9.10557ZM11 5V8.49964H7.77252C7.54089 8.49964 7.30896 8.55438 7.10178 8.6579L6.4837 8.96698C6.18539 9.11609 6.00003 9.41595 6 9.74951V10H4C3.44773 10 3 9.55231 3 9V5C3 4.4477 3.44773 4 4 4H10C10.5523 4 11 4.4477 11 5Z" fill="white"/>
</g>
<defs>
<radialGradient id="paint0_radial_3955_14787" cx="0" cy="0" r="1" gradientUnits="userSpaceOnUse" gradientTransform="translate(7 6.18653) scale(9.43783 7.88795)">
<stop offset="0.82" stop-color="#0B5CFF" stop-opacity="0"/>
<stop offset="0.98" stop-color="#003CB3"/>
</radialGradient>
<radialGradient id="paint1_radial_3955_14787" cx="0" cy="0" r="1" gradientUnits="userSpaceOnUse" gradientTransform="translate(6.99997 7.81054) scale(9.43445 7.88512)">
<stop offset="0.8" stop-color="#0B5CFF" stop-opacity="0"/>
<stop offset="1" stop-color="#71A5F1"/>
</radialGradient>
<clipPath id="clip0_3955_14787">
<rect width="9" height="9" fill="white" transform="translate(2.5 2.5)"/>
</clipPath>
</defs>
</svg>
