<svg width="16" height="16" viewBox="0 0 16 16" fill="none" xmlns="http://www.w3.org/2000/svg">
<path d="M3.18215 14.8614L3.08371 14.8163C2.44901 14.5254 2 13.8926 2 13.1072V4.11209C2 2.36729 3.38619 1 5.06609 1H10.9339C12.6138 1 14 2.36729 14 4.11209V13.1281C14 13.8695 13.5721 14.5367 12.9163 14.8372C12.2578 15.1389 11.4626 15.0228 10.912 14.4764L7.98726 11.6419L5.02866 14.4928L4.99712 14.5193C4.71047 14.7601 4.30515 14.9651 3.82203 14.9651C3.58609 14.9651 3.37377 14.9102 3.30081 14.8913L3.28686 14.8878L3.18215 14.8614Z" fill="#909096"/>
<zoom name="NewUI_Search_Bookmark_dark" style="dark" value="|:#FFFFFF"/>
</svg>
