<svg width="16" height="16" viewBox="0 0 16 16" fill="none" xmlns="http://www.w3.org/2000/svg">
<g clip-path="url(#clip0_3307_666)">
<path d="M6.69116 2.02846C7.22651 0.943724 8.77331 0.943724 9.30865 2.02846L10.6754 4.79775C10.6911 4.82966 10.7216 4.85177 10.7568 4.85689L13.8129 5.30096C15.0099 5.47491 15.4879 6.946 14.6217 7.79035L12.4103 9.94594C12.3848 9.97078 12.3732 10.0066 12.3792 10.0416L12.9013 13.0854C13.1058 14.2776 11.8544 15.1868 10.7837 14.6239L8.05022 13.1868C8.01872 13.1703 7.9811 13.1703 7.9496 13.1868L5.21615 14.6239C4.14545 15.1868 2.89407 14.2776 3.09855 13.0854L3.6206 10.0416C3.62661 10.0066 3.61498 9.97078 3.5895 9.94594L1.37809 7.79035C0.511882 6.946 0.989868 5.47491 2.18694 5.30096L5.24304 4.85689C5.27825 4.85177 5.30869 4.82966 5.32444 4.79775L6.69116 2.02846Z" fill="#FAAC2A"/>
</g>
<defs>
<clipPath id="clip0_3307_666">
<rect width="16" height="16" fill="white"/>
</clipPath>
</defs>
</svg>
