<svg width="16" height="16" viewBox="0 0 16 16" fill="none" xmlns="http://www.w3.org/2000/svg">
<g clip-path="url(#clip0_3307_776)">
<path d="M8.86053 2.24974L10.2273 5.01903C10.3158 5.19851 10.4871 5.32291 10.6851 5.35169L13.7412 5.79577C14.5282 5.91012 14.8424 6.87722 14.273 7.4323L12.0616 9.5879C11.9182 9.7276 11.8528 9.92889 11.8867 10.1262L12.4087 13.1699C12.5431 13.9537 11.7205 14.5514 11.0166 14.1813L8.28313 12.7443C8.10597 12.6511 7.89433 12.6511 7.71718 12.7443L4.98372 14.1813C4.27984 14.5514 3.45717 13.9537 3.5916 13.1699L4.11364 10.1262C4.14748 9.92888 4.08208 9.7276 3.93875 9.5879L1.72734 7.4323C1.15789 6.87722 1.47212 5.91012 2.25909 5.79577L5.31518 5.35169C5.51325 5.32291 5.68447 5.19851 5.77305 5.01903L7.13977 2.24974C7.49172 1.53663 8.50859 1.53663 8.86053 2.24974Z" stroke="#707070"/>
</g>
<defs>
<clipPath id="clip0_3307_776">
<rect width="16" height="16" fill="white"/>
</clipPath>
</defs>
<zoom style="hover" value=":none||#222230|||:white"/>
<zoom style="press" value=":none||#0E72ED|||:white"/>
<zoom style="dark" value=":none||#ffffff8A|||:white"/>
<zoom style="hover_dark" value=":none||#F5F5F5|||:white"/>
<zoom style="press_dark" value=":none||#F5F5F5|||:white"/>
</svg>
