<svg width="16" height="16" viewBox="0 0 16 16" fill="none" xmlns="http://www.w3.org/2000/svg">
<path d="M5.0625 5C5.0625 3.41833 6.37141 2.0625 7.99952 2.0625C9.62783 2.0625 10.9375 3.41853 10.9375 5C10.9375 6.07855 10.3267 7.05962 9.41149 7.57027C8.95027 7.82763 8.46885 8.17304 8.09663 8.60862C7.72205 9.04697 7.43729 9.60301 7.43716 10.2604L7.43702 10.9999C7.43696 11.3106 7.68875 11.5624 7.99941 11.5625C8.31007 11.5626 8.56196 11.3108 8.56202 11.0001L8.56216 10.2606C8.56222 9.94569 8.69586 9.6391 8.9519 9.33947C9.21032 9.03706 9.57176 8.76913 9.95966 8.55269C11.2141 7.85273 12.0625 6.50531 12.0625 5C12.0625 2.80934 10.2612 0.9375 7.99952 0.9375C5.73763 0.9375 3.9375 2.80954 3.9375 5C3.9375 5.31066 4.18934 5.5625 4.5 5.5625C4.81066 5.5625 5.0625 5.31066 5.0625 5Z" fill="#6E7680"/>
<path d="M8 14C8.27614 14 8.5 13.7761 8.5 13.5C8.5 13.2239 8.27614 13 8 13C7.72386 13 7.5 13.2239 7.5 13.5C7.5 13.7761 7.72386 14 8 14Z" fill="#6E7680"/>
<zoom style="dark" value="|:#98A0A9|:#98A0A9"/>
<zoom style="menu" value="|:#131619 |:#131619"/>
<zoom style="menu_dark" value="|:#F7F9FA |:#F7F9FA"/>
</svg>
