<svg width="14" height="14" viewBox="0 0 14 14" fill="none" xmlns="http://www.w3.org/2000/svg">
<path d="M7.76562 6.01568C7.76562 6.43852 7.42284 6.7813 7 6.7813C6.57716 6.7813 6.23438 6.43852 6.23438 6.01568C6.23438 5.59283 6.57716 5.25005 7 5.25005C7.42284 5.25005 7.76562 5.59283 7.76562 6.01568Z" fill="#707070"/>
<path d="M6.99999 7.21875C6.08125 7.21875 5.46875 7.63009 5.46875 8.1375C5.46875 8.47577 5.74297 8.74999 6.08125 8.74999H7.91874C7.94658 8.74999 7.97399 8.74813 8.00085 8.74454C8.01478 8.74267 8.02856 8.74034 8.04218 8.73755C8.32128 8.68044 8.53124 8.43349 8.53124 8.1375C8.53124 7.94267 8.44093 7.762 8.27767 7.61335C8.01573 7.37485 7.56597 7.21875 6.99999 7.21875Z" fill="#707070"/>
<path d="M5.25 0C7.61909 0 9.62168 1.56921 10.2751 3.72494C12.4308 4.37832 14 6.38091 14 8.75C14 11.6495 11.6495 14 8.75 14C6.38091 14 4.37832 12.4308 3.72494 10.2751C1.56921 9.62168 0 7.61909 0 5.25C0 2.35051 2.35051 0 5.25 0ZM8.50622 4.38168C8.29789 4.37531 8.0394 4.375 7.7 4.375H6.3C6.12934 4.375 5.97913 4.37508 5.84548 4.37597C5.58403 4.3777 5.38591 4.38253 5.22186 4.39594C4.98415 4.41536 4.89602 4.44833 4.85276 4.47037C4.68812 4.55426 4.55426 4.68812 4.47037 4.85276C4.44833 4.89602 4.41536 4.98415 4.39594 5.22186C4.38253 5.38591 4.3777 5.58403 4.37597 5.84548C4.37508 5.97913 4.375 6.12934 4.375 6.3V7.7C4.375 8.0394 4.37531 8.29789 4.38168 8.50622C4.38478 8.60755 4.38931 8.69701 4.39594 8.77814C4.41536 9.01585 4.44833 9.10398 4.47037 9.14724C4.55426 9.31188 4.68812 9.44574 4.85276 9.52963C4.89602 9.55167 4.98415 9.58464 5.22186 9.60406C5.30299 9.61069 5.39245 9.61522 5.49379 9.61832C5.70211 9.62469 5.96061 9.625 6.3 9.625H7.7C7.87066 9.625 8.02087 9.62492 8.15452 9.62403C8.41597 9.6223 8.61409 9.61747 8.77814 9.60406C9.01585 9.58464 9.10398 9.55167 9.14724 9.52963C9.31188 9.44574 9.44574 9.31188 9.52963 9.14724C9.55167 9.10398 9.58464 9.01585 9.60406 8.77814C9.61747 8.61409 9.6223 8.41597 9.62403 8.15452C9.62492 8.02087 9.625 7.87066 9.625 7.7V6.3C9.625 5.96061 9.62469 5.70211 9.61832 5.49379C9.61522 5.39245 9.61069 5.30299 9.60406 5.22186C9.58464 4.98415 9.55167 4.89602 9.52963 4.85276C9.44574 4.68812 9.31188 4.55426 9.14724 4.47037C9.10398 4.44833 9.01585 4.41536 8.77814 4.39594C8.69701 4.38931 8.60755 4.38478 8.50622 4.38168ZM8.49557 3.50606C8.57987 3.50203 8.6647 3.5 8.75 3.5C8.92618 3.5 9.10034 3.50868 9.27206 3.52563C8.60286 1.96679 7.05393 0.875 5.25 0.875C2.83375 0.875 0.875 2.83375 0.875 5.25C0.875 7.05393 1.96679 8.60286 3.52563 9.27206C3.50868 9.10034 3.5 8.92618 3.5 8.75C3.5 8.6647 3.50203 8.57987 3.50606 8.49557C3.5 8.2716 3.5 8.01037 3.5 7.7V6.3C3.5 5.31991 3.5 4.82986 3.69074 4.45552C3.85852 4.12623 4.12623 3.85852 4.45552 3.69074C4.82986 3.5 5.31991 3.5 6.3 3.5H7.7C8.01037 3.5 8.2716 3.5 8.49557 3.50606ZM5.50443 10.4939C5.42013 10.498 5.3353 10.5 5.25 10.5C5.07382 10.5 4.89966 10.4913 4.72794 10.4744C5.39714 12.0332 6.94607 13.125 8.75 13.125C11.1662 13.125 13.125 11.1662 13.125 8.75C13.125 6.94607 12.0332 5.39714 10.4744 4.72794C10.4913 4.89966 10.5 5.07382 10.5 5.25C10.5 5.3353 10.498 5.42013 10.4939 5.50443C10.5 5.7284 10.5 5.98963 10.5 6.3V7.7C10.5 8.68009 10.5 9.17014 10.3093 9.54448C10.1415 9.87377 9.87377 10.1415 9.54448 10.3093C9.17014 10.5 8.68009 10.5 7.7 10.5H6.3C5.98963 10.5 5.7284 10.5 5.50443 10.4939Z" fill="#707070"/>
<zoom style="hover" value="|:#222230|:#222230|:#222230"/>
<zoom style="press" value="|:#0E72ED|:#0E72ED|:#0E72ED"/>
<zoom style="active" value="|:#0E72ED|:#0E72ED|:#0E72ED"/>
<zoom style="dark" value="|:#ffffff8A|:#ffffff8A|:#ffffff8A"/>
<zoom style="hover_dark" value="|:#F5F5F5|:#F5F5F5|:#F5F5F5"/>
<zoom style="press_dark" value="|:#F5F5F5|:#F5F5F5|:#F5F5F5"/>
<zoom style="active_dark" value="|:#4793F1|:#4793F1|:#4793F1"/>
</svg>
