<svg width="200" height="200" viewBox="0 0 200 200" fill="none" xmlns="http://www.w3.org/2000/svg">
<path d="M48.3096 160.223L109.615 166.992L110.922 169.259L81.2486 186.498C80.9407 186.677 80.5612 186.662 80.2742 186.456C77.2784 184.307 60.7076 172.326 53.0277 164.728C51.2163 162.936 48.3096 160.223 48.3096 160.223Z" fill="#2538BF"/>
<path d="M5.367 131.765C19.8144 123.985 63.6791 138.33 63.6791 138.33L64.9861 140.597L41.6149 156.052C41.3515 156.227 41.0348 156.26 40.7516 156.127C37.3308 154.515 14.8973 143.79 7.08939 136.066C5.27796 134.274 4.64108 132.346 5.367 131.765Z" fill="#2538BF"/>
<path d="M155.182 126.73L174.947 134.878C175.673 135.177 175.695 136.206 174.985 136.554C172.05 137.993 166.189 140.926 161.583 143.606C151.265 149.609 126.714 160.869 126.714 160.869L122.882 140.045L155.182 126.73Z" fill="#2538BF"/>
<path d="M6.29441 126.309C6.26602 126.04 6.4899 125.822 6.75984 125.833C7.99496 125.884 11.2807 125.91 14.1024 124.966C17.6571 123.777 26.5233 118.853 29.8438 117.334C48.9847 108.581 54.4086 109.545 70.5513 101.785C81.9955 96.2845 92.489 89.4118 94.1317 88.3226C94.2732 88.2287 94.4308 88.216 94.5785 88.2968C98.7124 90.5568 158.769 123.362 169.017 127.306C171.432 128.235 173.774 129.179 175.346 129.821C176.081 130.121 176.09 131.16 175.362 131.491C171.139 133.409 161.001 138.086 155.413 141.27C149.302 144.752 134.529 157.817 113.227 168.176C102.044 173.614 83.5575 179.721 80.7238 180.646C80.4801 180.725 80.2325 180.695 80.0123 180.567C78.6091 179.751 73.1878 176.591 69.3135 174.225C63.6357 170.759 26.0251 150.422 13.1226 138.762C7.48045 133.664 6.47271 128.003 6.29441 126.309Z" fill="#A8CCF8"/>
<path d="M36.3188 130.153L83.1849 109.949L65.1653 119.313L40.9717 130.847L36.3188 130.153Z" fill="#648CFE"/>
<path d="M48.9807 136.858L56.6474 133.088L57.0626 135.12L51.3334 138.049L48.9807 136.858Z" fill="#648CFE"/>
<path d="M67.9125 137.173L76.3839 133.234L75.5042 135.118L58.3234 143.894L67.9125 137.173Z" fill="#648CFE"/>
<path d="M59.3674 132.084L64.6935 129.241L62.2796 131.882L60.4249 133.13L59.3674 132.084Z" fill="#648CFE"/>
<path d="M77.4854 132.575L79.9104 132.054L79.2681 133.041L78.5429 133.621L77.4854 132.575Z" fill="#648CFE"/>
<path d="M43.2409 133.801L86.1725 113.151L101.735 104.729L99.9647 106.379L73.8409 120.879L44.4637 135.655L43.2409 133.801Z" fill="#648CFE"/>
<path d="M50.1328 135.963L109.033 165.784L110.23 166.155L72.4496 175.618L70.6767 172.922C70.6734 172.917 70.6744 172.919 70.671 172.914C70.5594 172.751 57.1276 153.169 52.6843 142.043C51.7291 139.651 50.1328 135.963 50.1328 135.963Z" fill="#2538BF"/>
<path d="M10.2523 110.425C25.9152 105.828 65.8974 129.23 65.8974 129.23L66.7217 131.737L72.4497 175.619C72.4497 175.619 23.5571 134.002 11.0767 115.022C9.66494 112.875 9.42744 110.843 10.2523 110.425Z" fill="#2538BF"/>
<path d="M154.892 135.103L172.591 147.32C173.238 147.766 173.053 148.772 172.291 148.964C169.141 149.758 162.819 151.407 157.777 153.072C146.5 156.797 120.269 162.683 120.269 162.683L120.681 141.371L154.892 135.103Z" fill="#2538BF"/>
<path d="M9.45044 103.428C9.47644 103.158 9.74058 102.991 10.0035 103.06C11.2025 103.372 14.4036 104.092 17.3455 103.76C21.0551 103.343 30.6984 100.373 34.2451 99.5815C54.6893 95.0177 59.7953 97.1149 77.1123 92.8953C89.3823 89.9054 100.998 85.3656 102.83 84.6375C102.988 84.5745 103.147 84.5951 103.276 84.7067C106.874 87.816 158.982 132.812 168.205 138.863C170.387 140.295 172.495 141.725 173.902 142.69C174.558 143.139 174.357 144.152 173.581 144.323C169.08 145.315 158.23 147.775 152.13 149.728C145.466 151.862 128.429 161.593 105.553 167.28C93.5494 170.263 74.2858 172.359 71.3185 172.672C71.062 172.699 70.8236 172.616 70.633 172.442C69.4221 171.339 64.7601 167.083 61.4492 163.936C56.5946 159.322 23.9129 131.341 13.6356 117.133C9.14055 110.918 9.28665 105.132 9.45044 103.428Z" fill="#F7F9FA"/>
<path d="M37.9551 113.791L87.8295 103.761L68.3337 109.194L42.366 115.462L37.9551 113.791Z" fill="#648CFE"/>
<path d="M48.96 122.984L57.2037 120.894V122.984L51.0209 124.655L48.96 122.984Z" fill="#648CFE"/>
<path d="M67.4121 127.231L76.4802 125.141L75.2437 126.813L56.6953 131.827L67.4121 127.231Z" fill="#648CFE"/>
<path d="M60.0898 120.477L65.8604 118.805L62.9751 120.895L60.9142 121.731L60.0898 120.477Z" fill="#648CFE"/>
<path d="M77.7168 124.725H80.1899L79.3655 125.561L78.5412 125.979L77.7168 124.725Z" fill="#648CFE"/>
<path d="M44.0146 118.804L90.1176 107.521L107.017 102.506L104.956 103.76L76.5155 112.535L44.839 120.893L44.0146 118.804Z" fill="#648CFE"/>
<path d="M110.503 18.9074C108.679 17.1573 114.669 17.7637 116.906 18.9074C135.716 28.5258 136.976 46.8705 136.976 46.8705H119.367C119.367 46.8705 123.509 31.3909 110.503 18.9074Z" fill="#2974FF"/>
<path d="M181.48 18.9074C183.303 17.1573 177.313 17.7637 175.077 18.9074C156.267 28.5258 155.006 46.8705 155.006 46.8705H172.615C172.615 46.8705 168.473 31.3909 181.48 18.9074Z" fill="#2974FF"/>
<path d="M170.972 2.12347C172.578 0.15612 164.759 0.981547 162.505 2.12347C143.556 11.7268 141.137 46.8712 141.137 46.8712H162.505C162.505 46.8712 160.691 14.7183 170.972 2.12347Z" fill="#4B8AFF"/>
<path d="M119.154 3.50613C114.293 -1.88138 126.402 0.0288313 130.429 2.07438C149.354 11.6884 151.77 46.8709 151.77 46.8709L128.416 46.871C128.416 46.871 132.442 18.2339 119.154 3.50613Z" fill="#78A7FF"/>
<path d="M167.801 58.4362L200 73.9689L170.964 90.9667C170.25 91.3845 169.447 91.6254 168.621 91.6695L166.89 91.7619C163.446 91.9456 160.786 88.778 161.563 85.4178L167.801 58.4362Z" fill="url(#paint0_linear_445_96395)"/>
<path d="M112.306 43.9396C112.016 42.5898 113.094 41.3364 114.472 41.425C120.367 41.8043 134.508 42.6416 144.433 42.6416C154.428 42.6416 168.878 41.7926 174.779 41.4171C176.13 41.3312 177.204 42.537 176.96 43.8683L168.652 89.3255C168.355 90.9509 167.128 92.2426 165.51 92.5785C160.917 93.532 151.315 95.3308 144.433 95.2865C137.922 95.2447 129.322 93.5207 125.133 92.5879C123.591 92.2444 122.414 91.0237 122.082 89.4783L112.306 43.9396Z" fill="#648CFE"/>
<path d="M117.724 49.8591C117.46 49.8195 117.504 49.3857 117.77 49.404C124.573 49.8712 135.735 50.5396 143.914 50.5396C156.487 50.5396 176.108 48.9602 176.108 48.9602L171.954 71.0711L169.364 63.316C168.128 59.6172 164.922 56.9245 161.065 56.3472L117.724 49.8591Z" fill="#2538BF"/>
<path d="M128.967 39.8732C133.333 37.0568 146.825 31.4242 153.572 25.389C150.794 34.6429 144.702 39.9167 141.27 47.92C137.301 57.1737 124.205 76.0836 118.252 81.7164C116.127 83.7281 107.141 86.1421 107.141 86.1421C107.141 86.1421 113.49 86.5444 117.062 85.3374C114.284 88.9585 111.903 89.7631 111.903 89.7631C111.903 89.7631 112.697 90.1655 114.681 89.7631C111.903 92.9818 100.791 96.6029 100.791 96.6029C100.791 96.6029 107.538 96.6029 110.712 95.7982C106.347 99.0169 106.347 106.259 102.379 110.282C98.4102 111.892 96.029 112.294 90.4732 111.489C89.6794 108.271 89.6796 97.0052 90.4733 92.1772C92.0607 96.2005 94.8386 100.626 94.8386 100.626C94.8386 100.626 92.4575 92.1772 93.2512 84.9351C95.6322 88.5561 99.9976 91.7748 99.9976 91.7748C99.9976 91.7748 95.2355 84.9351 94.8386 81.7164C94.8386 81.7164 96.3506 77.0607 98.0134 73.2673C99.8645 69.0444 103.966 61.5995 103.966 61.5995C106.744 68.0369 109.919 72.4626 109.919 72.4626C109.919 72.4626 105.978 64.5468 106.347 59.1854C106.347 59.1854 119.722 45.838 128.967 39.8732Z" fill="#F4D176"/>
<path d="M153.572 25.389C153.439 25.5081 153.303 25.627 153.165 25.7458C137.345 39.7236 112.03 75.2527 90.4731 111.489C89.5467 104.006 89.6795 97.0052 90.4732 92.1772C92.0606 96.2005 94.8385 100.626 94.8385 100.626C94.8385 100.626 92.4574 92.1771 93.2511 84.9351C95.6322 88.5561 99.9975 91.7748 99.9975 91.7748C99.9975 91.7748 95.2354 84.9351 94.8385 81.7164C94.8385 81.7164 96.3505 77.0607 98.0133 73.2673C99.8644 69.0444 103.966 61.5995 103.966 61.5995C106.744 68.0369 109.919 72.4626 109.919 72.4626C109.919 72.4626 105.978 64.5468 106.347 59.1854C106.347 59.1854 119.722 45.838 128.967 39.8732C133.246 37.1124 146.296 31.6454 153.165 25.7458C153.301 25.6253 153.437 25.5063 153.572 25.389Z" fill="url(#paint1_linear_445_96395)"/>
<path opacity="0.5" d="M138.736 115.265C119.562 115.265 82.1396 124.35 82.1396 124.35C88.7268 119.364 114.548 109.135 129.223 107.143L133.727 110.695L138.736 115.265Z" fill="#0538BF"/>
<path d="M82.1396 124.364C94.8388 100.626 117.919 65.009 131.014 50.9271C106.41 86.3329 90.0767 113.903 87.2987 120.341C86.2752 123.348 82.1396 124.364 82.1396 124.364Z" fill="url(#paint2_linear_445_96395)"/>
<defs>
<linearGradient id="paint0_linear_445_96395" x1="161.05" y1="88.4438" x2="175.907" y2="60.1824" gradientUnits="userSpaceOnUse">
<stop stop-color="#2538BF"/>
<stop offset="1" stop-color="#2538BF" stop-opacity="0"/>
</linearGradient>
<linearGradient id="paint1_linear_445_96395" x1="127.255" y1="58.5502" x2="111.385" y2="51.0963" gradientUnits="userSpaceOnUse">
<stop stop-color="#EDC456"/>
<stop offset="1" stop-color="#FFE8AC"/>
</linearGradient>
<linearGradient id="paint2_linear_445_96395" x1="123.412" y1="57.5762" x2="78.4605" y2="132.271" gradientUnits="userSpaceOnUse">
<stop stop-color="#8F7C6B"/>
<stop offset="1" stop-color="#1532FF"/>
</linearGradient>
</defs>
</svg>