<svg width="8" height="8" viewBox="0 0 8 8" fill="none" xmlns="http://www.w3.org/2000/svg">
<path fill-rule="evenodd" clip-rule="evenodd" d="M8 4C8 6.20914 6.20914 8 4 8C1.79086 8 0 6.20914 0 4C0 1.79086 1.79086 0 4 0C6.20914 0 8 1.79086 8 4ZM6.75 4C6.75 5.51878 5.51878 6.75 4 6.75C3.46694 6.75 2.9693 6.59833 2.54788 6.33579L6.33579 2.54788C6.59833 2.9693 6.75 3.46694 6.75 4ZM5.45186 1.66405L1.66405 5.45186C1.40161 5.0305 1.25 4.53295 1.25 4C1.25 2.48122 2.48122 1.25 4 1.25C4.53295 1.25 5.0305 1.40161 5.45186 1.66405Z" fill="#FF2638"/>
<zoom style="dark" value="|:#FF2638"/>
<zoom style="selected" value="|:#FF2638"/>
</svg>
