<svg width="16" height="16" viewBox="0 0 16 16" fill="none" xmlns="http://www.w3.org/2000/svg">
<path d="M5.5 9C5.5 8.17157 6.17157 7.5 7 7.5H13C13.8284 7.5 14.5 8.17157 14.5 9V13C14.5 13.8284 13.8284 14.5 13 14.5H7C6.17157 14.5 5.5 13.8284 5.5 13V9Z" stroke="#747487"/>
<path d="M2.01384 9.26946C2.01384 9.26946 2.32336 5.96278 4.67743 4.32766C7.0315 2.69255 9.73683 2.97764 9.73683 2.97764" stroke="#747487" stroke-linecap="round"/>
<path d="M8.08398 1L10.242 3.08398L8.15803 5.24199" stroke="#747487" stroke-linecap="round"/>
<circle cx="7.5" cy="9.5" r="0.5" fill="#747487"/>
<path d="M6.5 14L8.05079 12.0615C8.26845 11.7894 8.6907 11.8178 8.86997 12.1166L9.57996 13.2999C9.7721 13.6202 10.2348 13.6244 10.4327 13.3077L11.9931 10.811C12.2071 10.4686 12.7177 10.5079 12.8767 10.879L14 13.5" stroke="#747487" stroke-linecap="round"/>
</svg>
