<svg width="28" height="28" viewBox="0 0 28 28" fill="none" xmlns="http://www.w3.org/2000/svg">
<path d="M14.0003 7C11.786 7 9.78269 7.89892 8.33365 9.35295C8.13873 9.54854 7.82214 9.54909 7.62655 9.35416C7.43095 9.15923 7.43041 8.84265 7.62533 8.64705C9.25432 7.01246 11.5095 6 14.0003 6C16.491 6 18.7463 7.01246 20.3752 8.64706C20.5702 8.84265 20.5696 9.15923 20.374 9.35416C20.1784 9.54909 19.8619 9.54854 19.6669 9.35294C18.2179 7.89892 16.2145 7 14.0003 7Z" fill="#0E72ED"/>
<path d="M8 16C8 14.8954 8.89543 14 10 14H18C19.1046 14 20 14.8954 20 16V20C20 21.1046 19.1046 22 18 22H10C8.89543 22 8 21.1046 8 20V16Z" fill="#0E72ED"/>
<path d="M10.3998 12.2998C11.2216 11.206 12.5283 10.5 14 10.5C15.4717 10.5 16.7784 11.206 17.6003 12.2998C17.7662 12.5206 18.0796 12.5651 18.3004 12.3993C18.5211 12.2334 18.5656 11.9199 18.3998 11.6992C17.3972 10.3647 15.7995 9.5 14 9.5C12.2005 9.5 10.6029 10.3647 9.60028 11.6992C9.43441 11.9199 9.47892 12.2334 9.69969 12.3993C9.92047 12.5651 10.2339 12.5206 10.3998 12.2998Z" fill="#0E72ED"/>
<zoom style="dark" value="|:#4793F1|:#4793F1|:#4793F1"/>
</svg>
