<svg width="88" height="88" viewBox="0 0 88 88" fill="none" xmlns="http://www.w3.org/2000/svg">
<path fill-rule="evenodd" clip-rule="evenodd" d="M0 44C0 30.0181 0 23.0271 2.36022 17.5404C5.2921 10.7248 10.7248 5.2921 17.5404 2.36022C23.0271 0 30.0181 0 44 0C57.9819 0 64.9729 0 70.4596 2.36022C77.2752 5.2921 82.7079 10.7248 85.6398 17.5404C88 23.0271 88 30.0181 88 44C88 57.9819 88 64.9729 85.6398 70.4596C82.7079 77.2752 77.2752 82.7079 70.4596 85.6398C64.9729 88 57.9819 88 44 88C30.0181 88 23.0271 88 17.5404 85.6398C10.7248 82.7079 5.2921 77.2752 2.36022 70.4596C0 64.9729 0 57.9819 0 44Z" fill="#FF742E"/>
<path d="M61.0968 54.5079C61.0968 55.8646 60.9471 57.372 60.6478 58.7286C60.3484 60.0853 58.5524 60.5375 57.8041 59.1809C54.3618 52.8498 47.7765 48.4784 39.9938 48.4784V52.3976C39.9938 53.7542 38.3475 54.3572 37.4495 53.4528L33.5582 49.5335L26.6735 42.4488C25.7755 41.5444 25.7755 40.1877 26.6735 39.2833L37.4495 28.4301C38.4971 27.5256 40.1435 28.1286 40.1435 29.4852V33.4044C51.6678 33.4044 61.0968 42.901 61.0968 54.5079Z" fill="white"/>
</svg>
