<svg width="24" height="24" viewBox="0 0 24 24" fill="none" xmlns="http://www.w3.org/2000/svg">
<path fill-rule="evenodd" clip-rule="evenodd" d="M14.9089 13.6959C14.8677 13.3645 15.0712 13.0569 15.366 13.0069C15.6626 12.9566 15.9394 13.1864 15.984 13.5201L15.4469 13.6112C15.984 13.5201 15.9841 13.5206 15.9842 13.5211L15.9843 13.5221L15.9846 13.5243L15.9852 13.5294L15.9868 13.5429C15.988 13.5533 15.9893 13.5664 15.9907 13.5821C15.9935 13.6135 15.9964 13.6552 15.9982 13.706C16.0018 13.8072 16.0011 13.946 15.9855 14.1103C15.9543 14.4374 15.8625 14.8789 15.6167 15.3231C15.1025 16.2519 14.0308 17 12 17C9.9692 17 8.89747 16.2519 8.38334 15.3231C8.13751 14.8789 8.04568 14.4374 8.01453 14.1103C7.99889 13.946 7.99819 13.8072 8.0018 13.706C8.00362 13.6552 8.00653 13.6135 8.00929 13.5821C8.01067 13.5664 8.01202 13.5533 8.01318 13.5429L8.01476 13.5294L8.01541 13.5243L8.0157 13.5221L8.01583 13.5211C8.01589 13.5206 8.01595 13.5201 8.5531 13.6112L8.01595 13.5201C8.06064 13.1864 8.33736 12.9566 8.63402 13.0069C8.9288 13.0569 9.13234 13.3645 9.09107 13.6959L9.09042 13.7026C9.08959 13.712 9.08825 13.7299 9.08735 13.7551C9.08554 13.8058 9.08561 13.884 9.09477 13.9801C9.11321 14.1738 9.16706 14.4267 9.30559 14.677C9.56019 15.137 10.2119 15.7778 12 15.7778C13.7881 15.7778 14.4398 15.137 14.6944 14.677C14.8329 14.4267 14.8868 14.1738 14.9052 13.9801C14.9144 13.884 14.9145 13.8058 14.9127 13.7551C14.9118 13.7299 14.9104 13.712 14.9096 13.7026L14.9089 13.6959Z" fill="#747487"/>
<path fill-rule="evenodd" clip-rule="evenodd" d="M20 11.5C20 11.7761 19.7761 12 19.5 12L4.5 12C4.22386 12 4 11.7761 4 11.5C4 11.2239 4.22386 11 4.5 11L19.5 11C19.7761 11 20 11.2239 20 11.5Z" fill="#747487"/>
<path fill-rule="evenodd" clip-rule="evenodd" d="M11.5442 12.0001L11.1669 11.9197C10.2769 11.7303 9.64711 11.5216 9.27744 11.2934C8.6385 10.8975 8.31903 10.3057 8.31903 9.51811C8.31903 8.66595 8.63166 7.96657 9.2569 7.41998C9.88215 6.87339 10.7675 6.6001 11.9131 6.6001C12.9673 6.6001 13.8618 6.84111 14.5966 7.32314C15.2138 7.72196 15.5734 8.32175 15.6754 9.1225C15.7103 9.39643 15.4818 9.6214 15.2056 9.6214H14.8626C14.6123 9.6214 14.406 9.43455 14.3419 9.19256C14.2614 8.88849 14.1433 8.64193 13.9873 8.45291C13.572 7.95796 12.8669 7.71049 11.872 7.71049C11.0688 7.71049 10.4914 7.86973 10.14 8.18822C9.78859 8.5067 9.61289 8.87684 9.61289 9.29861C9.61289 9.76343 9.81826 10.1034 10.229 10.3186C10.4983 10.4563 11.1076 10.6285 12.0568 10.8351L13.4671 11.1385C14.1471 11.2848 14.6719 11.485 15.0416 11.7389C15.1576 11.8194 15.2631 11.9065 15.358 12.0001L11.5442 12.0001Z" fill="#747487"/>
<zoom style="dark" value="|:#909096|:#999999|:#999999"/>
<zoom style="disabled" value="|:#909096|:#909096|:#909096"/>
<zoom style="disabled_dark" value="|:#707070|:#707070|:#707070"/>
<zoom style="hover" value="|:#222230|:#222230|:#222230"/>
<zoom style="hover_dark" value="|:#F5F5F5|:#F5F5F5|:#F5F5F5"/>
<zoom style="selected" value="|:#0E72ED|:#0E72ED|:#0E72ED"/>
<zoom style="selected_dark" value="|:#4F9AF7|:#4F9AF7|:#4F9AF7"/>
</svg>
