<svg width="20" height="20" viewBox="0 0 20 20" fill="none" xmlns="http://www.w3.org/2000/svg">
<path d="M10 18.75C11.1953 18.75 12.319 18.5212 13.3713 18.0637C14.4293 17.6062 15.3615 16.9743 16.1679 16.1679C16.9743 15.3615 17.6062 14.4322 18.0637 13.3799C18.5212 12.3219 18.75 11.1953 18.75 10C18.75 8.80474 18.5212 7.68096 18.0637 6.62868C17.6062 5.57067 16.9743 4.63848 16.1679 3.83211C15.3615 3.02574 14.4293 2.39379 13.3713 1.93627C12.3133 1.47876 11.1867 1.25 9.99142 1.25C8.79616 1.25 7.66953 1.47876 6.61152 1.93627C5.55923 2.39379 4.6299 3.02574 3.82353 3.83211C3.02288 4.63848 2.39379 5.57067 1.93627 6.62868C1.47876 7.68096 1.25 8.80474 1.25 10C1.25 11.1953 1.47876 12.3219 1.93627 13.3799C2.39379 14.4322 3.02574 15.3615 3.83211 16.1679C4.63848 16.9743 5.56781 17.6062 6.6201 18.0637C7.6781 18.5212 8.80474 18.75 10 18.75ZM9.03922 14.1863C8.89052 14.1863 8.75613 14.1548 8.63603 14.0919C8.51593 14.029 8.39869 13.9232 8.28431 13.7745L6.13113 11.1324C6.06822 11.0466 6.01675 10.9579 5.97672 10.8664C5.9424 10.7692 5.92525 10.672 5.92525 10.5748C5.92525 10.3803 5.99101 10.2145 6.12255 10.0772C6.25409 9.93423 6.41708 9.86275 6.61152 9.86275C6.73734 9.86275 6.84886 9.88848 6.94608 9.93995C7.04902 9.99142 7.15482 10.0886 7.26348 10.2316L9.0049 12.4792L12.6679 6.59436C12.828 6.33129 13.0339 6.19976 13.2855 6.19976C13.4685 6.19976 13.6344 6.2598 13.7831 6.3799C13.9318 6.49428 14.0061 6.65155 14.0061 6.85172C14.0061 6.94894 13.9833 7.04616 13.9375 7.14338C13.8917 7.2406 13.8431 7.33211 13.7917 7.41789L9.7598 13.7745C9.6683 13.9118 9.5625 14.0147 9.4424 14.0833C9.3223 14.152 9.18791 14.1863 9.03922 14.1863Z" fill="#09A639"/>
</svg>
