<svg width="24" height="24" viewBox="0 0 24 24" fill="none" xmlns="http://www.w3.org/2000/svg">
<path d="M17.0251 7.67999C17.1507 7.64208 17.275 7.73782 17.275 7.86901V8.95573C17.275 9.17297 17.1332 9.36216 16.9335 9.44764C16.3605 9.69288 15.8779 10.0693 15.4875 10.5906C15.0625 11.1094 14.8315 11.6709 14.8132 12.2362C14.8107 12.3121 14.8966 12.3617 14.9703 12.3433C15.0934 12.3127 15.255 12.3016 15.4625 12.3016C16.0062 12.3016 16.4734 12.4828 16.8875 12.8719C17.25 13.2609 17.4578 13.7531 17.4578 14.3484C17.4578 14.9437 17.25 15.4375 16.8359 15.825C16.4219 16.1875 15.9031 16.3953 15.2812 16.3953C14.5562 16.3953 13.9859 16.0844 13.5188 15.5141C13.0516 14.9438 12.8453 14.1922 12.8453 13.3109C12.8453 11.9109 13.2344 10.7203 14.0375 9.70937C14.7649 8.7356 15.769 8.05914 17.0251 7.67999ZM10.7283 7.67999C10.8539 7.64208 10.9781 7.73782 10.9781 7.86901V8.95573C10.9781 9.17297 10.8362 9.36199 10.6369 9.44833C10.0706 9.69358 9.60693 10.0698 9.21562 10.5906C8.76801 11.1093 8.53492 11.6706 8.51518 12.2358C8.51252 12.3117 8.59852 12.3615 8.6723 12.3432C8.79533 12.3127 8.95678 12.3016 9.16406 12.3016C9.70781 12.3016 10.175 12.4828 10.5641 12.8719C10.9531 13.2609 11.1594 13.7531 11.1594 14.3484C11.1594 14.9437 10.9516 15.4375 10.5641 15.825C10.15 16.1875 9.60469 16.3953 8.98281 16.3953C8.25781 16.3953 7.6875 16.0844 7.24688 15.5141C6.77969 14.9438 6.54688 14.1922 6.54688 13.3109C6.54688 11.9109 6.93594 10.7203 7.73906 9.70937C8.46793 8.7356 9.47208 8.05914 10.7283 7.67999Z" fill="#747487"/>
<zoom style="dark" value="|:#999999"/>
<zoom style="disabled" value="|:#909096"/>
<zoom style="disabled_dark" value="|:#707070"/>
<zoom style="hover" value="|:#222230"/>
<zoom style="hover_dark" value="|:#F5F5F5"/>
<zoom style="selected" value="|:#0E72ED"/>
<zoom style="selected_dark" value="|:#4F9AF7"/>
</svg>
