<svg width="10" height="10" viewBox="0 0 10 10" fill="none" xmlns="http://www.w3.org/2000/svg">
<path d="M9.81699 4.5581L6.69206 1.43311C6.44799 1.18903 6.05219 1.18895 5.80803 1.43295C5.56386 1.67694 5.56379 2.0726 5.80787 2.31668L7.86603 4.37489H0.625C0.279822 4.37489 0 4.65471 0 4.99989C0 5.34506 0.279822 5.62489 0.625 5.62489H7.86764L5.80837 7.6829C5.56422 7.92691 5.56415 8.32259 5.80821 8.56669C6.05227 8.81079 6.44804 8.81086 6.69219 8.56686L9.81661 5.44433C9.92413 5.33686 9.98432 5.19998 9.99716 5.05958C10.0143 4.88044 9.9542 4.69532 9.81699 4.5581Z" fill="#131619"/>
<zoom style="disabled" value=":none|:#8E9194"/>
<zoom style="dark" value="|:#FFFFFFFF"/>
</svg>
