<svg width="36" height="36" viewBox="0 0 36 36" fill="none" xmlns="http://www.w3.org/2000/svg">
<path d="M35.5497 12.3474C34.5711 6.25483 29.7451 1.42887 23.6526 0.450331C21.8122 0.154765 19.9247 0 18 0C16.0753 0 14.1878 0.154715 12.3474 0.450331C6.25487 1.42887 1.42886 6.25483 0.450323 12.3474C0.154757 14.1877 0 16.0752 0 18C0 19.9248 0.154708 21.8123 0.450323 23.6526C1.42886 29.7452 6.25492 34.5711 12.3474 35.5497C14.1878 35.8452 16.0753 36 18 36C19.9247 36 21.8122 35.8453 23.6526 35.5497C29.7451 34.5711 34.5711 29.7452 35.5497 23.6526C35.8452 21.8123 36 19.9248 36 18C36 16.0752 35.8453 14.1877 35.5497 12.3474Z" fill="url(#paint0_linear_3367_34772)"/>
<path d="M10.7491 20.7601H6.28445C5.9712 20.7601 5.69133 20.5731 5.57145 20.2837C5.45158 19.9943 5.51726 19.6642 5.73877 19.4427L8.83127 16.3502H6.61482C6.00593 16.3502 5.51233 15.8566 5.51233 15.2477H9.62974C9.94296 15.2477 10.2228 15.4347 10.3427 15.7241C10.4626 16.0135 10.397 16.3436 10.1755 16.5652L7.08297 19.6577H9.64665C10.2555 19.6577 10.7491 20.1513 10.7491 20.7601ZM30.4836 17.3149C30.4836 16.1294 29.5191 15.165 28.3337 15.165C27.6996 15.165 27.129 15.4411 26.7351 15.8793C26.3413 15.4411 25.7706 15.165 25.1365 15.165C23.9511 15.165 22.9867 16.1294 22.9867 17.3149V20.7601C23.5956 20.7601 24.0892 20.2665 24.0892 19.6577V17.3149C24.0892 16.7374 24.559 16.2675 25.1365 16.2675C25.714 16.2675 26.1839 16.7374 26.1839 17.3149V19.6577C26.1839 20.2665 26.6775 20.7601 27.2864 20.7601V17.3149C27.2864 16.7374 27.7562 16.2675 28.3337 16.2675C28.9112 16.2675 29.3811 16.7374 29.3811 17.3149V19.6577C29.3811 20.2665 29.8747 20.7601 30.4836 20.7601V17.3149ZM22.4354 18.0039C22.4354 19.5718 21.1644 20.8428 19.5966 20.8428C18.0287 20.8428 16.7577 19.5718 16.7577 18.0039C16.7577 16.4361 18.0287 15.165 19.5965 15.165C21.1644 15.165 22.4354 16.4361 22.4354 18.0039H22.4354ZM21.333 18.0039C21.333 17.0449 20.5555 16.2675 19.5966 16.2675C18.6376 16.2675 17.8601 17.0449 17.8601 18.0039C17.8601 18.9629 18.6376 19.7403 19.5966 19.7403C20.5555 19.7403 21.333 18.9629 21.333 18.0039ZM16.3167 18.0039C16.3167 19.5718 15.0457 20.8428 13.4778 20.8428C11.9099 20.8428 10.6389 19.5718 10.6389 18.0039C10.6389 16.4361 11.9099 15.165 13.4778 15.165C15.0456 15.165 16.3167 16.4361 16.3167 18.0039H16.3167ZM15.2142 18.0039C15.2142 17.0449 14.4368 16.2675 13.4778 16.2675C12.5188 16.2675 11.7414 17.0449 11.7414 18.0039C11.7414 18.9629 12.5188 19.7403 13.4778 19.7403C14.4368 19.7403 15.2142 18.9629 15.2142 18.0039Z" fill="white"/>
<defs>
<linearGradient id="paint0_linear_3367_34772" x1="8.51978" y1="34.4202" x2="27.4802" y2="1.57977" gradientUnits="userSpaceOnUse">
<stop stop-color="#0845BF"/>
<stop offset="0.6" stop-color="#0B5CFF"/>
<stop offset="1" stop-color="#4F90EE"/>
</linearGradient>
</defs>
</svg>
