<svg width="56" height="56" viewBox="0 0 56 56" fill="none" xmlns="http://www.w3.org/2000/svg">
<rect width="56" height="56" rx="28" fill="#525280" fill-opacity="0.09"/>
<path fill-rule="evenodd" clip-rule="evenodd" d="M35.6365 28C35.6365 32.2174 32.2175 35.6364 28.0001 35.6364C23.7826 35.6364 20.3637 32.2174 20.3637 28C20.3637 23.7825 23.7826 20.3636 28.0001 20.3636C32.2175 20.3636 35.6365 23.7825 35.6365 28ZM37.091 28C37.091 33.0208 33.0209 37.0909 28.0001 37.0909C22.9793 37.0909 18.9092 33.0208 18.9092 28C18.9092 22.9792 22.9793 18.9091 28.0001 18.9091C33.0209 18.9091 37.091 22.9792 37.091 28ZM28.0002 34.1819C31.4143 34.1819 34.182 31.4142 34.182 28C34.182 24.5859 31.4143 21.8182 28.0002 21.8182C24.5861 21.8182 21.8184 24.5859 21.8184 28C21.8184 31.4142 24.5861 34.1819 28.0002 34.1819Z" fill="#131619"/>
<zoom style="hover" value="|:#5252802D"/>
<zoom style="press" value="|:#E7F1FDFF|:#0E72ED"/>
<zoom style="dark" value="|:#FFFFFF17|:#FFFFFF"/>
<zoom style="hover_dark" value="|:#FFFFFF2D|:#FFFFFF"/>
<zoom style="dark_press" value="|:#FFFFFF17|:#FFFFFF"/>
</svg>
