<svg width="8" height="8" viewBox="0 0 8 8" fill="none" xmlns="http://www.w3.org/2000/svg">
<path d="M5 0C4.72386 0 4.5 0.223858 4.5 0.5C4.5 0.776142 4.72386 1 5 1H6.29289L3.14645 4.14645C2.95118 4.34171 2.95118 4.65829 3.14645 4.85355C3.34171 5.04882 3.65829 5.04882 3.85355 4.85355L7 1.70711V3C7 3.27614 7.22386 3.5 7.5 3.5C7.77614 3.5 8 3.27614 8 3L8 0.5C8 0.223858 7.77614 0 7.5 0H5Z" fill="white"/>
<path d="M1.00049 2.00052C1.00049 1.44823 1.4482 1.00052 2.00049 1.00052H3.25C3.52614 1.00052 3.75 0.776661 3.75 0.500519C3.75 0.224376 3.52614 0.000518799 3.25 0.000518799H2.00049C0.895918 0.000518799 0.000488281 0.895951 0.000488281 2.00052V5.9995C0.000488281 7.10407 0.895921 7.9995 2.00049 7.9995H5.99944C7.10401 7.9995 7.99944 7.10407 7.99944 5.9995V4.75C7.99944 4.47386 7.77558 4.25 7.49944 4.25C7.2233 4.25 6.99944 4.47386 6.99944 4.75V5.9995C6.99944 6.55179 6.55173 6.9995 5.99944 6.9995H2.00049C1.4482 6.9995 1.00049 6.55179 1.00049 5.9995V2.00052Z" fill="white"/>
</svg>
