<svg width="24" height="24" viewBox="0 0 24 24" fill="none" xmlns="http://www.w3.org/2000/svg">
<path d="M9.31521 6.5C9.42567 6.5 9.51521 6.58954 9.51521 6.7V11.6386C9.51521 12.3597 9.65044 12.9592 9.92089 13.4369C10.3221 14.158 10.9982 14.5186 11.9493 14.5186C13.0897 14.5186 13.865 14.1287 14.2752 13.349C14.4961 12.9254 14.6065 12.3552 14.6065 11.6386V6.7C14.6065 6.58954 14.696 6.5 14.8065 6.5H15.7723C15.8827 6.5 15.9723 6.58954 15.9723 6.7V11.0775C15.9723 12.2989 15.8078 13.2386 15.4787 13.8966C14.8747 15.0955 13.7343 15.6949 12.0575 15.6949C10.3807 15.6949 9.24251 15.0955 8.643 13.8966C8.31395 13.2386 8.14943 12.2989 8.14943 11.0775V6.7C8.14943 6.58954 8.23897 6.5 8.34943 6.5H9.31521Z" fill="#747487"/>
<path d="M6.5 17C6.5 16.7239 6.72386 16.5 7 16.5H17C17.2761 16.5 17.5 16.7239 17.5 17C17.5 17.2761 17.2761 17.5 17 17.5H7C6.72386 17.5 6.5 17.2761 6.5 17Z" fill="#747487"/>
<zoom style="dark" value="|:#909096|:#999999"/>
<zoom style="disabled" value="|:#909096|:#909096"/>
<zoom style="disabled_dark" value="|:#707070|:#707070"/>
<zoom style="hover" value="|:#222230|:#222230"/>
<zoom style="hover_dark" value="|:#F5F5F5|:#F5F5F5"/>
<zoom style="selected" value="|:#0E72ED|:#0E72ED"/>
<zoom style="selected_dark" value="|:#4F9AF7|:#4F9AF7"/>
</svg>

