<svg width="28" height="28" viewBox="0 0 28 28" fill="none" xmlns="http://www.w3.org/2000/svg">
<path fill-rule="evenodd" clip-rule="evenodd" d="M11 6C11.2761 6 11.5 6.22386 11.5 6.5V7H16.5V6.5C16.5 6.22386 16.7239 6 17 6C17.2761 6 17.5 6.22386 17.5 6.5V7.00008C18.9825 7.00123 19.7596 7.02007 20.362 7.32698C20.9265 7.6146 21.3854 8.07354 21.673 8.63803C21.9434 9.16873 21.9902 9.83507 21.9983 11H22V17.2C22 18.8802 22 19.7202 21.673 20.362C21.3854 20.9265 20.9265 21.3854 20.362 21.673C19.7202 22 18.8802 22 17.2 22H10.8C9.11984 22 8.27976 22 7.63803 21.673C7.07354 21.3854 6.6146 20.9265 6.32698 20.362C6 19.7202 6 18.8802 6 17.2V11H6.00169C6.00979 9.83507 6.05658 9.16873 6.32698 8.63803C6.6146 8.07354 7.07354 7.6146 7.63803 7.32698C8.24038 7.02007 9.01747 7.00123 10.5 7.00008V6.5C10.5 6.22386 10.7239 6 11 6ZM20.9624 9.91104C20.9864 10.2046 20.9951 10.5545 20.9982 11H7.00176C7.00489 10.5545 7.01356 10.2046 7.03755 9.91104C7.07337 9.47262 7.1383 9.24842 7.21799 9.09202C7.40973 8.71569 7.71569 8.40973 8.09202 8.21799C8.24842 8.1383 8.47262 8.07337 8.91104 8.03755C9.3065 8.00524 9.80403 8.00072 10.5 8.0001V9C10.5 9.27614 10.7239 9.5 11 9.5C11.2761 9.5 11.5 9.27614 11.5 9V8H16.5V9C16.5 9.27614 16.7239 9.5 17 9.5C17.2761 9.5 17.5 9.27614 17.5 9V8.0001C18.196 8.00072 18.6935 8.00524 19.089 8.03755C19.5274 8.07337 19.7516 8.1383 19.908 8.21799C20.2843 8.40973 20.5903 8.71569 20.782 9.09202C20.8617 9.24842 20.9266 9.47262 20.9624 9.91104ZM7 17.2V12H21V17.2C21 18.0566 20.9992 18.6389 20.9624 19.089C20.9266 19.5274 20.8617 19.7516 20.782 19.908C20.5903 20.2843 20.2843 20.5903 19.908 20.782C19.7516 20.8617 19.5274 20.9266 19.089 20.9624C18.6389 20.9992 18.0566 21 17.2 21H10.8C9.94342 21 9.36113 20.9992 8.91104 20.9624C8.47262 20.9266 8.24842 20.8617 8.09202 20.782C7.71569 20.5903 7.40973 20.2843 7.21799 19.908C7.1383 19.7516 7.07337 19.5274 7.03755 19.089C7.00078 18.6389 7 18.0566 7 17.2ZM17 13C16.4477 13 16 13.4477 16 14V19C16 19.5523 16.4477 20 17 20H19C19.5523 20 20 19.5523 20 19V14C20 13.4477 19.5523 13 19 13H17Z" fill="#F7F9FA"/>
</svg>
