<svg width="14" height="14" viewBox="0 0 14 14" fill="none" xmlns="http://www.w3.org/2000/svg">
<path fill-rule="evenodd" clip-rule="evenodd" d="M9.51512 10.1338C8.60044 10.9081 7.41724 11.375 6.125 11.375C3.22551 11.375 0.875 9.0245 0.875 6.125C0.875 3.22551 3.22551 0.875 6.125 0.875C9.0245 0.875 11.375 3.22551 11.375 6.125C11.375 7.41724 10.9081 8.60044 10.1338 9.51512L12.9969 12.3781C13.1677 12.549 13.1677 12.826 12.9969 12.9969C12.826 13.1677 12.549 13.1677 12.3781 12.9969L9.51512 10.1338ZM10.5 6.125C10.5 8.54125 8.54125 10.5 6.125 10.5C3.70875 10.5 1.75 8.54125 1.75 6.125C1.75 3.70875 3.70875 1.75 6.125 1.75C8.54125 1.75 10.5 3.70875 10.5 6.125Z" fill="#6E7680"/>
<zoom style="dark" value="|:#98A0A9"/>
<zoom style="hover" value="|:#222230"/>
<zoom style="hover_dark" value="|:#F5F5F5"/>
</svg>
