<svg width="34" height="34" viewBox="0 0 34 34" fill="none" xmlns="http://www.w3.org/2000/svg">
<rect width="34" height="34" rx="17" fill="#0E72ED"/>
<path fill-rule="evenodd" clip-rule="evenodd" d="M18.6666 17.0001V12.3334C18.6666 11.4129 17.9204 10.6667 16.9999 10.6667C16.0794 10.6667 15.3333 11.4129 15.3333 12.3334V17.0001C15.3333 17.9206 16.0794 18.6667 16.9999 18.6667C17.9204 18.6667 18.6666 17.9206 18.6666 17.0001ZM16.9999 9.66675C15.5272 9.66675 14.3333 10.8607 14.3333 12.3334V17.0001C14.3333 18.4728 15.5272 19.6667 16.9999 19.6667C18.4727 19.6667 19.6666 18.4728 19.6666 17.0001V12.3334C19.6666 10.8607 18.4727 9.66675 16.9999 9.66675ZM17.4999 21.6403C19.8421 21.3908 21.6666 19.4085 21.6666 17.0001C21.6666 16.7239 21.4427 16.5001 21.1666 16.5001C20.8904 16.5001 20.6666 16.7239 20.6666 17.0001C20.6666 19.0251 19.025 20.6667 16.9999 20.6667C14.9749 20.6667 13.3333 19.0251 13.3333 17.0001C13.3333 16.7239 13.1094 16.5001 12.8333 16.5001C12.5571 16.5001 12.3333 16.7239 12.3333 17.0001C12.3333 19.4085 14.1577 21.3908 16.4999 21.6403V23.3334H14.9999C14.7238 23.3334 14.4999 23.5573 14.4999 23.8334C14.4999 24.1096 14.7238 24.3334 14.9999 24.3334L15.0025 24.3334H16.4999H17.4999H18.9999C19.2761 24.3334 19.4999 24.1096 19.4999 23.8334C19.4999 23.5573 19.2761 23.3334 18.9999 23.3334H17.4999V21.6403Z" fill="#F5F5F5"/>
<zoom style="hover" value="|:#2A69D1"/>
<zoom style="press" value="|:#255EBB"/>
<zoom style="dark" value="|:#0E72ED|:#FFFFFF"/>
<zoom style="hover_dark" value="|:#2A69D1|:#FFFFFF"/>
<zoom style="press_dark" value="|:#255EBB|:#FFFFFF"/>
</svg>
