<svg width="56" height="56" viewBox="0 0 56 56" fill="none" xmlns="http://www.w3.org/2000/svg">
<rect width="56" height="56" rx="28" fill="#525280" fill-opacity="0.09"/>
<path fill-rule="evenodd" clip-rule="evenodd" d="M33.6276 23.7279C34.0181 23.3374 34.0181 22.7042 33.6276 22.3137C33.237 21.9232 32.6039 21.9232 32.2133 22.3137L27.9707 26.5563L23.7281 22.3137C23.3375 21.9232 22.7044 21.9232 22.3138 22.3137C21.9233 22.7042 21.9233 23.3374 22.3138 23.7279L26.5565 27.9706L22.3138 32.2132C21.9233 32.6037 21.9233 33.2369 22.3138 33.6274C22.7044 34.0179 23.3375 34.0179 23.7281 33.6274L27.9707 29.3848L32.2133 33.6274C32.6039 34.0179 33.237 34.0179 33.6276 33.6274C34.0181 33.2369 34.0181 32.6037 33.6276 32.2132L29.3849 27.9706L33.6276 23.7279Z" fill="#222230"/>
<zoom style="hover" value="|:#5252802D"/>
<zoom style="press" value="|:#E7F1FDFF|:#0E72ED"/>
<zoom style="dark" value="|:#FFFFFF17|:#FFFFFF"/>
<zoom style="hover_dark" value="|:#FFFFFF2D|:#FFFFFF"/>
<zoom style="dark_press" value="|:#FFFFFF17|:#FFFFFF"/>
</svg>
