<svg width="28" height="28" viewBox="0 0 28 28" fill="none" xmlns="http://www.w3.org/2000/svg">
<rect width="28" height="28" rx="8" fill="white" fill-opacity="0.1"/>
<path fill-rule="evenodd" clip-rule="evenodd" d="M17.5 6.5V9C17.5 9.27614 17.2761 9.5 17 9.5C16.7239 9.5 16.5 9.27614 16.5 9V6.5C16.5 6.22386 16.7239 6 17 6C17.2761 6 17.5 6.22386 17.5 6.5ZM15.5 7H12.5V9C12.5 9.82843 11.8284 10.5 11 10.5C10.1716 10.5 9.5 9.82843 9.5 9V7.00877C8.63476 7.02929 8.0877 7.09786 7.63803 7.32698C7.07354 7.6146 6.6146 8.07354 6.32698 8.63803C6.05658 9.16873 6.00979 9.83507 6.00169 11H21.9983C21.9902 9.83507 21.9434 9.16873 21.673 8.63803C21.3854 8.07354 20.9265 7.6146 20.362 7.32698C19.9123 7.09786 19.3652 7.02929 18.5 7.00877V9C18.5 9.82843 17.8284 10.5 17 10.5C16.1716 10.5 15.5 9.82843 15.5 9V7ZM6 17.2V12H22V17.2C22 18.8802 22 19.7202 21.673 20.362C21.3854 20.9265 20.9265 21.3854 20.362 21.673C19.7202 22 18.8802 22 17.2 22H10.8C9.11984 22 8.27976 22 7.63803 21.673C7.07354 21.3854 6.6146 20.9265 6.32698 20.362C6 19.7202 6 18.8802 6 17.2ZM11 6C11.2761 6 11.5 6.22386 11.5 6.5V9C11.5 9.27614 11.2761 9.5 11 9.5C10.7239 9.5 10.5 9.27614 10.5 9V6.5C10.5 6.22386 10.7239 6 11 6ZM17 13C16.4477 13 16 13.4477 16 14V20C16 20.5523 16.4477 21 17 21H19C19.5523 21 20 20.5523 20 20V14C20 13.4477 19.5523 13 19 13H17Z" fill="#F7F9FA"/>
</svg>
