<svg width="16" height="16" viewBox="0 0 16 16" fill="none" xmlns="http://www.w3.org/2000/svg">
<path d="M4.5 2H3C2.44772 2 2 2.44772 2 3C2 9.07513 6.92487 14 13 14C13.5523 14 14 13.5523 14 13V11.5C14 10.9477 13.5523 10.5 13 10.5H11.8284C11.5632 10.5 11.3089 10.6054 11.1213 10.7929L10.7168 11.1975C10.108 11.8062 9.1781 11.9571 8.40812 11.5721L8.13978 11.4379C6.59156 10.6638 5.33618 9.40844 4.56207 7.86022L4.42791 7.59188C4.04292 6.8219 4.19383 5.89196 4.80255 5.28324L5.20711 4.87868C5.39464 4.69114 5.5 4.43679 5.5 4.17157V3C5.5 2.44772 5.05228 2 4.5 2ZM3 1H4.5C5.60457 1 6.5 1.89543 6.5 3V4.17157C6.5 4.70201 6.28929 5.21071 5.91421 5.58579L5.50965 5.99035C5.20529 6.29471 5.12984 6.75968 5.32233 7.14467L5.4565 7.413C6.13385 8.7677 7.2323 9.86615 8.587 10.5435L8.85533 10.6777C9.24032 10.8702 9.70529 10.7947 10.0097 10.4903L10.4142 10.0858C10.7893 9.71071 11.298 9.5 11.8284 9.5H13C14.1046 9.5 15 10.3954 15 11.5V13C15 14.1046 14.1046 15 13 15C6.37258 15 1 9.62742 1 3C1 1.89543 1.89543 1 3 1Z" fill="#707070"/>
<zoom style="hover" value=":none|:#222230"/>
<zoom style="press" value=":none|:#0E72ED"/>
<zoom style="dark" value=":none|:#ffffff8A"/>
<zoom style="hover_dark" value=":none|:#F5F5F5"/>
<zoom style="press_dark" value=":none|:#F5F5F5"/>
</svg>
