<svg width="160" height="160" viewBox="0 0 160 160" fill="none" xmlns="http://www.w3.org/2000/svg">
<path d="M8.0001 69.3334C12.3768 61.8591 18.6077 55.6403 26.0905 51.2783C33.5732 46.9162 42.0548 44.5583 50.7153 44.4326C59.3758 44.3068 67.9223 46.4175 75.5286 50.5605C83.1348 54.7035 89.5437 60.7387 94.1355 68.0828C98.7273 75.4269 101.347 83.8313 101.741 92.4838C102.135 101.136 100.29 109.744 96.3845 117.475C92.4792 125.206 86.6454 131.799 79.4471 136.616C72.2488 141.433 63.9295 144.312 55.2934 144.973C54.7823 145.006 54.283 145.141 53.8249 145.37C53.3669 145.599 52.9594 145.917 52.6268 146.307C52.1715 146.819 51.9118 147.475 51.8934 148.16C51.8934 149.413 52.0934 152.693 52.3068 155.733C52.3634 156.422 52.2409 157.113 51.951 157.74C51.6611 158.367 51.2138 158.908 50.6526 159.311C50.0914 159.714 49.4354 159.965 48.7486 160.039C48.0618 160.113 47.3675 160.007 46.7334 159.733C35.0134 155.013 9.69343 142.173 2.86677 117.067C-4.49324 90.2267 4.33343 74.3467 8.0001 69.3334Z" fill="#E6F1FF"/>
<path d="M150.187 30.7734C144.791 21.5665 137.111 13.9072 127.891 8.53549C118.67 3.1638 108.219 0.261439 97.5485 0.10888C86.8781 -0.0436778 76.3487 2.55873 66.978 7.6646C57.6073 12.7705 49.712 20.2072 44.0552 29.256C38.3983 38.3048 35.1713 48.6598 34.6858 59.3203C34.2004 69.9807 36.4729 80.5862 41.2839 90.1117C46.0949 99.6372 53.2816 107.761 62.1495 113.697C71.0174 119.634 81.2666 123.182 91.9067 124C92.5347 124.033 93.1497 124.192 93.7153 124.467C94.281 124.742 94.7858 125.127 95.2001 125.6C95.7669 126.231 96.0885 127.045 96.1067 127.893C96.1067 129.44 95.8534 133.48 95.6 137.227C95.5401 138.074 95.6967 138.922 96.0553 139.692C96.4139 140.461 96.9625 141.127 97.6495 141.626C98.3365 142.125 99.1392 142.44 99.982 142.543C100.825 142.646 101.68 142.533 102.467 142.213C116.92 136.413 148.12 120.573 156.533 89.6801C165.547 56.5867 154.667 37.0134 150.187 30.7734Z" fill="#89BEFF"/>
<path d="M69.4799 74.0264C74.7524 74.0264 79.0266 69.7523 79.0266 64.4798C79.0266 59.2073 74.7524 54.9331 69.4799 54.9331C64.2075 54.9331 59.9333 59.2073 59.9333 64.4798C59.9333 69.7523 64.2075 74.0264 69.4799 74.0264Z" fill="white"/>
<path d="M97.3066 74.0264C102.579 74.0264 106.853 69.7523 106.853 64.4798C106.853 59.2073 102.579 54.9331 97.3066 54.9331C92.0341 54.9331 87.7599 59.2073 87.7599 64.4798C87.7599 69.7523 92.0341 74.0264 97.3066 74.0264Z" fill="white"/>
<path d="M125.133 74.0264C130.406 74.0264 134.68 69.7523 134.68 64.4798C134.68 59.2073 130.406 54.9331 125.133 54.9331C119.861 54.9331 115.587 59.2073 115.587 64.4798C115.587 69.7523 119.861 74.0264 125.133 74.0264Z" fill="white"/>
<path d="M100.867 122.053C97.6933 116.213 91.5333 115.96 71.9866 110.053C56.84 105.613 43.9066 90.9733 38.8 84.5466C43.0305 95.4617 50.2615 104.958 59.6584 111.939C69.0553 118.92 80.2349 123.101 91.9066 124C92.5346 124.033 93.1496 124.192 93.7153 124.467C94.2809 124.741 94.7858 125.127 95.2 125.6C95.7668 126.231 96.0885 127.045 96.1066 127.893C96.1066 129.44 95.8533 133.48 95.6 137.227C95.5424 138.02 95.6759 138.815 95.9891 139.546C96.3022 140.276 96.7861 140.921 97.4 141.427C99.52 136.427 103.213 126.36 100.867 122.053Z" fill="#5BA5FF"/>
<zoom style="dark" value="|:#414155|:#636986|:#89BEFF|:#89BEFF|:#89BEFF|:#51536E"/>
</svg>
