<svg width="88" height="88" viewBox="0 0 88 88" fill="none" xmlns="http://www.w3.org/2000/svg">
<path fill-rule="evenodd" clip-rule="evenodd" d="M0 44C0 30.0181 0 23.0271 2.36022 17.5404C5.2921 10.7248 10.7248 5.2921 17.5404 2.36022C23.0271 0 30.0181 0 44 0C57.9819 0 64.9729 0 70.4596 2.36022C77.2752 5.2921 82.7079 10.7248 85.6398 17.5404C88 23.0271 88 30.0181 88 44C88 57.9819 88 64.9729 85.6398 70.4596C82.7079 77.2752 77.2752 82.7079 70.4596 85.6398C64.9729 88 57.9819 88 44 88C30.0181 88 23.0271 88 17.5404 85.6398C10.7248 82.7079 5.2921 77.2752 2.36022 70.4596C0 64.9729 0 57.9819 0 44Z" fill="#FF742E"/>
<path d="M27.1502 32.3095C27.1166 32.276 27.0998 32.2592 27.0832 32.2433C26.7226 31.8988 26.2462 31.7015 25.7476 31.6901C25.7247 31.6896 25.7009 31.6896 25.6534 31.6896C25.0246 31.6896 24.2101 31.6896 23.588 32.0066C23.0408 32.2854 22.5958 32.7303 22.317 33.2776C22 33.8997 22 34.7142 22 36.343V44.1433C22 48.4089 22 50.5417 22.8301 52.171C23.5604 53.6041 24.7255 54.7692 26.1586 55.4995C27.7878 56.3296 29.9207 56.3296 34.1862 56.3296H48.0266C48.2042 56.3296 48.372 56.3296 48.531 56.3292C48.9277 56.3282 49.126 56.3276 49.4058 56.0878C49.6083 55.9143 49.7729 55.5152 49.7518 55.2494C49.7226 54.882 49.5534 54.7128 49.215 54.3744L27.1502 32.3095Z" fill="white"/>
<path d="M53.2533 54.9378C53.2922 54.874 53.3289 54.8085 53.363 54.7416C53.6801 54.1194 53.6801 53.305 53.6801 51.6761V43.8758C53.6801 39.6102 53.6801 37.4774 52.8499 35.8482C52.1196 34.4151 50.9545 33.2499 49.5214 32.5197C47.8921 31.6896 45.7594 31.6896 41.4938 31.6896H30.0051L53.2533 54.9378Z" fill="white"/>
<path d="M61.8778 54.6544L57.8094 51.2641C57.1465 50.7117 56.8151 50.4355 56.5487 50.1197C56.0142 49.4862 55.6565 48.7227 55.512 47.9064C55.4399 47.4996 55.4399 47.0682 55.4399 46.2053V41.8138C55.4399 40.9509 55.4399 40.5195 55.512 40.1127C55.6565 39.2965 56.0142 38.533 56.5487 37.8994C56.8151 37.5837 57.1465 37.3075 57.8094 36.7551L61.8778 33.3647C62.8749 32.5338 63.3734 32.1183 63.7753 32.0193C64.5969 31.8168 65.4484 32.2157 65.8188 32.9766C66 33.3486 66 33.9976 66 35.2955V52.7236C66 54.0216 66 54.6705 65.8188 55.0426C65.4484 55.8035 64.5969 56.2023 63.7753 55.9998C63.3734 55.9008 62.8749 55.4853 61.8778 54.6544Z" fill="white"/>
<rect x="22" y="23.6896" width="2.5" height="60" rx="1.25" transform="rotate(-45 22 23.6896)" fill="white"/>
</svg>
