<svg width="28" height="28" viewBox="0 0 28 28" fill="none" xmlns="http://www.w3.org/2000/svg">
<path d="M14.0003 7C11.786 7 9.78269 7.89892 8.33365 9.35295C8.13873 9.54854 7.82214 9.54909 7.62655 9.35416C7.43095 9.15923 7.43041 8.84265 7.62533 8.64705C9.25432 7.01246 11.5095 6 14.0003 6C16.491 6 18.7463 7.01246 20.3752 8.64706C20.5702 8.84265 20.5696 9.15923 20.374 9.35416C20.1784 9.54909 19.8619 9.54854 19.6669 9.35294C18.2179 7.89892 16.2145 7 14.0003 7Z" fill="#6E7680"/>
<path fill-rule="evenodd" clip-rule="evenodd" d="M10 14C8.89543 14 8 14.8954 8 16V20C8 21.1046 8.89543 22 10 22H18C19.1046 22 20 21.1046 20 20V16C20 14.8954 19.1046 14 18 14H10ZM18 15H10C9.44772 15 9 15.4477 9 16V20C9 20.5523 9.44772 21 10 21H18C18.5523 21 19 20.5523 19 20V16C19 15.4477 18.5523 15 18 15Z" fill="#6E7680"/>
<path d="M10.3998 12.2998C11.2216 11.206 12.5283 10.5 14 10.5C15.4717 10.5 16.7784 11.206 17.6003 12.2998C17.7662 12.5206 18.0796 12.5651 18.3004 12.3993C18.5211 12.2334 18.5656 11.9199 18.3998 11.6992C17.3972 10.3647 15.7995 9.5 14 9.5C12.2005 9.5 10.6029 10.3647 9.60028 11.6992C9.43441 11.9199 9.47892 12.2334 9.69969 12.3993C9.92047 12.5651 10.2339 12.5206 10.3998 12.2998Z" fill="#6E7680"/>
<zoom style="hover" value="|:#6E7680|:#6E7680|:#6E7680"/>
<zoom style="dark" value="|:#98A0A9|:#98A0A9|:#98A0A9"/>
<zoom style="hover_dark" value="|:#F7F9FA|:#F7F9FA|:#F7F9FA"/>
</svg>
