<svg width="36" height="36" viewBox="0 0 36 36" fill="none" xmlns="http://www.w3.org/2000/svg">
<rect width="36" height="36" rx="12" fill="url(#paint0_linear)"/>
<path d="M24.8621 21.6479L26.8839 23.3524C27.3794 23.7702 27.6272 23.9791 27.8268 24.0288C28.2352 24.1306 28.6583 23.9301 28.8424 23.5476C28.9325 23.3605 28.9325 23.0343 28.9325 22.3817V13.6196C28.9325 12.967 28.9325 12.6407 28.8424 12.4537C28.6583 12.0711 28.2352 11.8706 27.8268 11.9724C27.6272 12.0222 27.3794 12.2311 26.8839 12.6489L24.8621 14.3534C24.5327 14.6311 24.3679 14.77 24.2356 14.9287C23.9699 15.2472 23.7922 15.6311 23.7204 16.0415C23.6846 16.246 23.6846 16.4629 23.6846 16.8967V19.1046C23.6846 19.5384 23.6846 19.7553 23.7204 19.9598C23.7922 20.3702 23.9699 20.7541 24.2356 21.0726C24.3679 21.2313 24.5327 21.3702 24.8621 21.6479Z" fill="white"/>
<path d="M7.06641 14.1462C7.06641 13.3273 7.06641 12.9178 7.22394 12.605C7.36251 12.3299 7.58362 12.1062 7.85558 11.966C8.16476 11.8066 8.56949 11.8066 9.37896 11.8066H16.7539C18.8737 11.8066 19.9337 11.8066 20.7433 12.224C21.4555 12.5911 22.0345 13.1769 22.3974 13.8974C22.81 14.7165 22.81 15.7888 22.81 17.9334V21.8551C22.81 22.674 22.81 23.0835 22.6524 23.3962C22.5139 23.6714 22.2927 23.8951 22.0208 24.0353C21.7116 24.1946 21.3069 24.1946 20.4974 24.1946H13.1224C11.0026 24.1946 9.94272 24.1946 9.13306 23.7773C8.42086 23.4102 7.84183 22.8244 7.47895 22.1038C7.06641 21.2847 7.06641 20.2124 7.06641 18.0679V14.1462Z" fill="white"/>
<defs>
<linearGradient id="paint0_linear" x1="18" y1="0" x2="18" y2="36" gradientUnits="userSpaceOnUse">
<stop stop-color="#57A3FF"/>
<stop offset="1" stop-color="#3C82FB"/>
</linearGradient>
</defs>
</svg>
