<svg width="14" height="14" viewBox="0 0 14 14" fill="none" xmlns="http://www.w3.org/2000/svg">
<path d="M7.4375 1.3125C7.4375 1.07088 7.24162 0.875 7 0.875C6.75838 0.875 6.5625 1.07088 6.5625 1.3125V6.5625H1.3125C1.07088 6.5625 0.875 6.75838 0.875 7C0.875 7.24162 1.07088 7.4375 1.3125 7.4375H6.5625V12.6875C6.5625 12.9291 6.75838 13.125 7 13.125C7.24162 13.125 7.4375 12.9291 7.4375 12.6875V7.4375H12.6875C12.9291 7.4375 13.125 7.24162 13.125 7C13.125 6.75838 12.9291 6.5625 12.6875 6.5625H7.4375V1.3125Z" fill="#6E7680"/>
<zoom style="dark" value=":none|:#98A0A9"/>
</svg>
