<svg width="16" height="16" viewBox="0 0 16 16" fill="none" xmlns="http://www.w3.org/2000/svg">
<path fill-rule="evenodd" clip-rule="evenodd" d="M13.9998 2.5C13.9998 2.22386 13.7759 2 13.4998 2C13.2236 2 12.9998 2.22386 12.9998 2.5V4.58441L12.9687 4.54431C11.8836 3.00703 10.0918 2.0014 8.065 2.0014C4.75207 2.0014 2.06641 4.68706 2.06641 7.99999C2.06641 11.3129 4.75207 13.9986 8.065 13.9986C10.3959 13.9986 12.4154 12.669 13.4081 10.7292C13.5339 10.4834 13.4366 10.1821 13.1908 10.0563C12.9449 9.9305 12.6437 10.0278 12.5179 10.2736C11.6895 11.8923 10.006 12.9986 8.065 12.9986C5.30435 12.9986 3.06641 10.7606 3.06641 7.99999C3.06641 5.23935 5.30435 3.0014 8.065 3.0014C9.75661 3.0014 11.2521 3.84123 12.1574 5.12892L12.1639 5.13823L12.1709 5.14723L12.4437 5.5H9.99976C9.72361 5.5 9.49976 5.72386 9.49976 6C9.49976 6.27614 9.72361 6.5 9.99976 6.5H13.4998C13.7759 6.5 13.9998 6.27614 13.9998 6V2.5Z" fill="#0E72ED"/>
<zoom style="Select" value="|:#FFFFFF"/>
<zoom style="dark" value="|:#4793F1"/>
<zoom style="hover" value="|:#0956B5"/>
<zoom style="gray" value="|:#747487"/>
<zoom style="gray_hover" value="|:#747487"/>
<zoom style="gray_select" value="|:#F6F6F6"/>
<!--<zoom style="hover_dark" value="|:#F7F9FA"/>-->
</svg>
