<svg width="88" height="88" viewBox="0 0 88 88" fill="none" xmlns="http://www.w3.org/2000/svg">
<path fill-rule="evenodd" clip-rule="evenodd" d="M0 44C0 30.0181 0 23.0271 2.36022 17.5404C5.2921 10.7248 10.7248 5.2921 17.5404 2.36022C23.0271 0 30.0181 0 44 0C57.9819 0 64.9729 0 70.4596 2.36022C77.2752 5.2921 82.7079 10.7248 85.6398 17.5404C88 23.0271 88 30.0181 88 44C88 57.9819 88 64.9729 85.6398 70.4596C82.7079 77.2752 77.2752 82.7079 70.4596 85.6398C64.9729 88 57.9819 88 44 88C30.0181 88 23.0271 88 17.5404 85.6398C10.7248 82.7079 5.2921 77.2752 2.36022 70.4596C0 64.9729 0 57.9819 0 44Z" fill="#FF742E"/>
<path d="M57.8094 51.5745L61.8778 54.9648C62.8749 55.7957 63.3734 56.2112 63.7752 56.3102C64.5969 56.5127 65.4484 56.1139 65.8188 55.353C66 54.981 66 54.332 66 53.034V35.606C66 34.308 66 33.659 65.8188 33.287C65.4484 32.5261 64.5969 32.1273 63.7752 32.3298C63.3734 32.4288 62.8749 32.8443 61.8778 33.6752L57.8094 37.0655C57.1465 37.6179 56.8151 37.8941 56.5487 38.2099C56.0141 38.8434 55.6565 39.6069 55.512 40.4231C55.44 40.8299 55.44 41.2614 55.44 42.1243V46.5157C55.44 47.3786 55.44 47.8101 55.512 48.2169C55.6565 49.0331 56.0141 49.7966 56.5487 50.4301C56.8151 50.7459 57.1465 51.0221 57.8094 51.5745Z" fill="white"/>
<path d="M22 36.6534C22 35.0246 22 34.2102 22.317 33.588C22.5958 33.0408 23.0408 32.5958 23.588 32.317C24.2102 32 25.0246 32 26.6534 32H41.4938C45.7593 32 47.8921 32 49.5214 32.8301C50.9545 33.5603 52.1197 34.7255 52.8499 36.1586C53.68 37.7879 53.68 39.9207 53.68 44.1862V51.9866C53.68 53.6154 53.68 54.4298 53.363 55.052C53.0842 55.5992 52.6392 56.0442 52.092 56.323C51.4698 56.64 50.6554 56.64 49.0266 56.64H34.1862C29.9207 56.64 27.7879 56.64 26.1586 55.8099C24.7255 55.0797 23.5603 53.9145 22.8301 52.4814C22 50.8521 22 48.7193 22 44.4538V36.6534Z" fill="white"/>
</svg>
