<svg width="24" height="24" viewBox="0 0 24 24" fill="none" xmlns="http://www.w3.org/2000/svg">
<path fill-rule="evenodd" clip-rule="evenodd" d="M14.3037 7.51384C13.5357 7.88752 12.7173 8.69703 11.7175 9.69682C11.5223 9.89208 11.2057 9.89208 11.0104 9.69682C10.8152 9.50156 10.8152 9.18498 11.0104 8.98971C11.0271 8.97299 11.0439 8.95626 11.0606 8.93954C11.9966 8.00339 12.9293 7.07048 13.8662 6.61464C14.3605 6.37413 14.8908 6.24706 15.4479 6.33786C16.005 6.42868 16.526 6.72715 17.0208 7.22195C17.5156 7.71675 17.8141 8.23776 17.9049 8.79489C17.9957 9.35198 17.8686 9.88232 17.6281 10.3766C17.1723 11.3134 16.2394 12.2462 15.3032 13.1822C15.2865 13.1989 15.2698 13.2156 15.2531 13.2324C15.0578 13.4276 14.7412 13.4276 14.546 13.2324C14.3507 13.0371 14.3507 12.7205 14.546 12.5252C15.5457 11.5255 16.3553 10.707 16.7289 9.93906C16.9073 9.57256 16.9665 9.25368 16.9179 8.95577C16.8694 8.6579 16.7028 8.31814 16.3137 7.92905C15.9246 7.53997 15.5849 7.37339 15.287 7.32484C14.9891 7.27628 14.6702 7.33551 14.3037 7.51384Z" fill="#747487"/>
<path fill-rule="evenodd" clip-rule="evenodd" d="M7.41319 14.4042C7.78687 13.6362 8.59638 12.8178 9.59617 11.818C9.79144 11.6227 9.79144 11.3061 9.59617 11.1109C9.40091 10.9156 9.08433 10.9156 8.88907 11.1109C8.87234 11.1276 8.85562 11.1443 8.83889 11.1611C7.90275 12.097 6.96983 13.0298 6.51399 13.9666C6.27349 14.4609 6.14641 14.9913 6.23722 15.5483C6.32803 16.1055 6.6265 16.6265 7.1213 17.1213C7.6161 17.6161 8.13711 17.9146 8.69424 18.0054C9.25133 18.0962 9.78167 17.9691 10.2759 17.7286C11.2128 17.2728 12.1455 16.3398 13.0815 15.4037C13.0983 15.387 13.115 15.3702 13.1317 15.3535C13.327 15.1583 13.327 14.8417 13.1317 14.6464C12.9364 14.4512 12.6199 14.4512 12.4246 14.6464C11.4248 15.6462 10.6064 16.4557 9.83842 16.8294C9.47192 17.0077 9.15304 17.067 8.85512 17.0184C8.55725 16.9698 8.21749 16.8033 7.82841 16.4142C7.43932 16.0251 7.27274 15.6853 7.22419 15.3875C7.17563 15.0896 7.23486 14.7707 7.41319 14.4042Z" fill="#747487"/>
<path fill-rule="evenodd" clip-rule="evenodd" d="M8.88908 15.3536C8.69381 15.1583 8.69381 14.8417 8.88908 14.6464L14.5459 8.98959C14.7412 8.79433 15.0578 8.79433 15.253 8.98959C15.4483 9.18485 15.4483 9.50144 15.253 9.6967L9.59618 15.3536C9.40092 15.5488 9.08434 15.5488 8.88908 15.3536Z" fill="#747487"/>
<zoom style="dark" value="|:#909096|:#999999|:#999999"/>
<zoom style="disabled" value="|:#909096|:#909096|:#909096"/>
<zoom style="disabled_dark" value="|:#707070|:#707070|:#707070"/>
<zoom style="hover" value="|:#222230|:#222230|:#222230"/>
<zoom style="hover_dark" value="|:#F5F5F5|:#F5F5F5|:#F5F5F5"/>
<zoom style="selected" value="|:#0E72ED|:#0E72ED|:#0E72ED"/>
<zoom style="selected_dark" value="|:#4F9AF7|:#4F9AF7|:#4F9AF7"/>
</svg>
