<svg width="14" height="14" viewBox="0 0 14 14" fill="none" xmlns="http://www.w3.org/2000/svg">
<path d="M14 7C14 7.74855 13.9398 8.48255 13.8249 9.19825C13.4443 11.5676 11.5675 13.4443 9.19823 13.8249C8.48252 13.9398 7.7485 14 7 14C6.2515 14 5.51748 13.9398 4.80177 13.8249C2.43247 13.4443 0.555676 11.5676 0.175136 9.19825C0.0601828 8.48257 0 7.74855 0 7C0 6.25145 0.0601828 5.51745 0.175136 4.80175C0.555676 2.43244 2.43247 0.555675 4.80177 0.175135C5.51748 0.0601817 6.2515 0 7 0C7.7485 0 8.48252 0.0601817 9.19823 0.175135C11.5675 0.555675 13.4443 2.43244 13.8249 4.80175C13.9398 5.51743 14 6.25145 14 7Z" fill="#0B5CFF"/>
<path d="M14 7C14 7.74855 13.9398 8.48255 13.8249 9.19825C13.4443 11.5676 11.5675 13.4443 9.19823 13.8249C8.48252 13.9398 7.7485 14 7 14C6.2515 14 5.51748 13.9398 4.80177 13.8249C2.43247 13.4443 0.555676 11.5676 0.175136 9.19825C0.0601828 8.48257 0 7.74855 0 7C0 6.25145 0.0601828 5.51745 0.175136 4.80175C0.555676 2.43244 2.43247 0.555675 4.80177 0.175135C5.51748 0.0601817 6.2515 0 7 0C7.7485 0 8.48252 0.0601817 9.19823 0.175135C11.5675 0.555675 13.4443 2.43244 13.8249 4.80175C13.9398 5.51743 14 6.25145 14 7Z" fill="url(#paint0_radial_3955_14764)"/>
<path d="M14 7C14 7.74853 13.9398 8.48255 13.8248 9.19823C13.4443 11.5676 11.5675 13.4443 9.19818 13.8248C8.48247 13.9398 7.74848 14 6.99998 14C6.25147 14 5.51745 13.9398 4.80175 13.8248C2.43242 13.4443 0.555651 11.5676 0.175112 9.19823C0.0601578 8.48252 0 7.74853 0 7C0 6.25148 0.0601578 5.51743 0.175112 4.80172C0.555677 2.43244 2.43244 0.555626 4.80175 0.175112C5.51748 0.0601578 6.25145 0 6.99998 0C7.7485 0 8.4825 0.0601578 9.19818 0.175112C11.5675 0.555626 13.4443 2.43244 13.8248 4.80172C13.9398 5.51743 14 6.25143 14 7Z" fill="url(#paint1_radial_3955_14764)"/>
<g clip-path="url(#clip0_3955_14764)">
<path d="M7.5 3H4C3.44772 3 3 3.44771 3 4V6C3 6.55228 3.44772 7 4 7L4.00003 7.9995C4.00003 8.22222 4.26931 8.33375 4.42679 8.17627L5.38339 7.21967C5.52404 7.07902 5.71481 7 5.91372 7H7.5C8.05229 7 8.5 6.55228 8.5 6V4C8.5 3.44771 8.05229 3 7.5 3ZM11 6.74999V8.75C11 9.30228 10.5523 9.75 10 9.75L9.99997 10.7495C9.99997 10.9722 9.7307 11.0837 9.57321 10.9263L8.61661 9.96966C8.47596 9.82901 8.2852 9.75 8.08629 9.75H6.5C5.94771 9.75 5.5 9.30228 5.5 8.75V8.0295C5.5 7.88907 5.55579 7.75438 5.65509 7.65508C5.75439 7.55578 5.88907 7.5 6.02951 7.5H7.5C8.32842 7.5 9 6.82842 9 5.99999V5.74999H10C10.5523 5.74999 11 6.19771 11 6.74999Z" fill="white"/>
</g>
<defs>
<radialGradient id="paint0_radial_3955_14764" cx="0" cy="0" r="1" gradientUnits="userSpaceOnUse" gradientTransform="translate(7 6.18653) scale(9.43783 7.88795)">
<stop offset="0.82" stop-color="#0B5CFF" stop-opacity="0"/>
<stop offset="0.98" stop-color="#003CB3"/>
</radialGradient>
<radialGradient id="paint1_radial_3955_14764" cx="0" cy="0" r="1" gradientUnits="userSpaceOnUse" gradientTransform="translate(6.99997 7.81054) scale(9.43445 7.88512)">
<stop offset="0.8" stop-color="#0B5CFF" stop-opacity="0"/>
<stop offset="1" stop-color="#71A5F1"/>
</radialGradient>
<clipPath id="clip0_3955_14764">
<rect width="9" height="9" fill="white" transform="translate(2.5 2.5)"/>
</clipPath>
</defs>
</svg>
