<svg width="20" height="20" viewBox="0 0 20 20" fill="none" xmlns="http://www.w3.org/2000/svg">
<path d="M9.67213 3.04121C10.2386 2.36438 11.7813 2.27608 12.2217 3.04143L16.8837 10.966C17.3242 11.7314 16.8783 12.6999 16.0108 12.8536L6.59536 14.7077L3.48191 9.29782L9.67213 3.04121Z" fill="#6E7680"/>
<path d="M2.58312 9.81835L5.69657 15.2282L4.99837 15.6326C4.39122 15.9843 3.61485 15.7756 3.2643 15.1665L1.42028 11.9624C1.06974 11.3533 1.27777 10.5744 1.88492 10.2227L2.58312 9.81835Z" fill="#6E7680"/>
<path d="M7.11427 15.6093L7.14368 15.5923L10.3705 15.0205L11.2515 16.5513C11.6021 17.1604 11.394 17.9393 10.7869 18.291L10.2893 18.5792C9.68209 18.9308 8.90573 18.7221 8.55518 18.113L7.11427 15.6093Z" fill="#6E7680"/>
</svg>
