<svg width="12" height="12" viewBox="0 0 12 12" fill="none" xmlns="http://www.w3.org/2000/svg">
<path fill-rule="evenodd" clip-rule="evenodd" d="M0.217987 3.09202C0 3.51984 0 4.0799 0 5.2V6.8C0 7.9201 0 8.48016 0.217987 8.90798C0.409734 9.28431 0.715695 9.59027 1.09202 9.78201C1.51984 10 2.0799 10 3.2 10H5.8C6.9201 10 7.48016 10 7.90798 9.78201C8.28431 9.59027 8.59027 9.28431 8.78201 8.90798C9 8.48016 9 7.9201 9 6.8V7L11.2227 8.48177C11.5549 8.70328 12 8.46509 12 8.06574V3.93426C12 3.53491 11.5549 3.29671 11.2227 3.51823L9 5V5.2C9 4.0799 9 3.51984 8.78201 3.09202C8.59027 2.71569 8.28431 2.40973 7.90798 2.21799C7.48016 2 6.9201 2 5.8 2H3.2C2.0799 2 1.51984 2 1.09202 2.21799C0.715695 2.40973 0.409734 2.71569 0.217987 3.09202Z" fill="#747487"/>

<zoom style="selected" value="|:#8AAFF2"/>
</svg>
