<svg width="24" height="24" viewBox="0 0 24 24" fill="none" xmlns="http://www.w3.org/2000/svg">
<rect width="24" height="24" rx="4" fill="white"/>
<path fill-rule="evenodd" clip-rule="evenodd" d="M5.5 8H13C14.1046 8 15 8.89543 15 10V11V13V15.5C15 15.7761 14.7761 16 14.5 16H7C5.89543 16 5 15.1046 5 14V8.5C5 8.22386 5.22386 8 5.5 8ZM16 14V15.5C16 16.3284 15.3284 17 14.5 17H7C5.34315 17 4 15.6569 4 14V8.5C4 7.67157 4.67157 7 5.5 7H13C14.6569 7 16 8.34315 16 10L18.8 7.9C19.2944 7.52918 20 7.88197 20 8.5V15.5C20 16.118 19.2944 16.4708 18.8 16.1L16 14ZM16 12.75L19 15V9L16 11.25V12.75Z" fill="#6E7680"/>
</svg>
