<svg width="24" height="24" viewBox="0 0 24 24" fill="none" xmlns="http://www.w3.org/2000/svg">
<path d="M7.49854 12C7.49854 12.8284 6.82696 13.5 5.99854 13.5C5.17011 13.5 4.49854 12.8284 4.49854 12C4.49854 11.1716 5.17011 10.5 5.99854 10.5C6.82696 10.5 7.49854 11.1716 7.49854 12ZM13.5 12C13.5 12.8284 12.8284 13.5 12 13.5C11.1716 13.5 10.5 12.8284 10.5 12C10.5 11.1716 11.1716 10.5 12 10.5C12.8284 10.5 13.5 11.1716 13.5 12ZM18.0015 13.5C18.8299 13.5 19.5015 12.8284 19.5015 12C19.5015 11.1716 18.8299 10.5 18.0015 10.5C17.173 10.5 16.5015 11.1716 16.5015 12C16.5015 12.8284 17.173 13.5 18.0015 13.5Z" fill="#909096"/>
<zoom style="dark" value="|:#98A0A9"/>
</svg>
