<svg width="14" height="14" viewBox="0 0 14 14" fill="none" xmlns="http://www.w3.org/2000/svg">
<path d="M6.09933 1.12967C6.82757 0.425257 7.82717 0 9.09697 0C11.7773 0 13.8331 2.1967 13.8331 5.03124C13.8331 7.14606 12.9944 9.31996 11.921 10.9547C11.3802 11.7782 10.7522 12.508 10.0897 13.0445C9.45265 13.5604 8.65608 13.9999 7.79817 14L7.77112 14C7.54916 14.0002 7.0439 14.0006 6.5291 13.805C5.92982 13.5773 5.35872 13.1022 5.07873 12.2687C5.00179 12.0396 5.1251 11.7916 5.35414 11.7147C5.58319 11.6377 5.83124 11.761 5.90818 11.9901C6.09602 12.5493 6.45871 12.8422 6.83991 12.9871C7.19691 13.1227 7.5639 13.1251 7.77906 13.125L7.79769 13.125C8.36391 13.125 8.96771 12.8272 9.53901 12.3645C10.1155 11.8976 10.6858 11.2415 11.1896 10.4744C12.1955 8.94243 12.9581 6.9332 12.9581 5.03124C12.9581 2.62926 11.2449 0.875 9.09697 0.875C8.03716 0.875 7.26089 1.22348 6.70768 1.75859C6.15987 2.28848 5.84589 2.9864 5.67456 3.66646C5.61553 3.90077 5.37774 4.04285 5.14344 3.98382C4.90913 3.9248 4.76705 3.687 4.82607 3.4527C5.02203 2.67491 5.39652 1.80949 6.09933 1.12967Z" fill="#000001"/>
<path d="M9.09682 3.5C8.14821 3.5 7.55034 4.28721 7.55034 5.24507C7.55034 5.6269 7.61994 5.89432 7.71665 6.10817C7.8167 6.32938 7.95301 6.51146 8.12424 6.73077L8.13713 6.74727L8.14838 6.76494C8.29454 6.99438 8.34954 7.08604 8.37813 7.13373L8.39128 7.15553C8.39253 7.15721 8.3972 7.1634 8.41408 7.18529L8.4228 7.1966L8.43602 7.21628C8.53653 7.36588 8.7142 7.6332 8.7142 7.96823C8.7142 8.48128 8.42003 8.97821 7.91366 9.45016C7.7369 9.6149 7.46007 9.60516 7.29532 9.4284C7.13058 9.25165 7.14032 8.97481 7.31708 8.81007C7.74298 8.41312 7.8392 8.13176 7.8392 7.96823C7.8392 7.92978 7.81804 7.86602 7.71243 7.70829C7.69872 7.6905 7.6841 7.67134 7.67075 7.652C7.65438 7.6283 7.64089 7.60576 7.63024 7.58795L7.62701 7.58256C7.60312 7.54269 7.55406 7.46084 7.42158 7.25262C7.25427 7.03809 7.0635 6.78736 6.9194 6.46873C6.76822 6.13446 6.67534 5.74317 6.67534 5.24507C6.67534 3.95863 7.5236 2.625 9.09682 2.625C9.82859 2.625 10.4623 2.94091 10.8898 3.47083C11.2993 3.97849 11.4728 4.61868 11.4728 5.24507C11.4728 5.4867 11.2769 5.68257 11.0353 5.68257C10.7937 5.68257 10.5978 5.4867 10.5978 5.24507C10.5978 4.77237 10.4665 4.33976 10.2088 4.02021C9.94699 3.69571 9.56339 3.5 9.09682 3.5Z" fill="#000001"/>
<path d="M0.212175 5.4848C0.419267 5.36032 0.68806 5.42729 0.812539 5.63438C1.11844 6.14329 1.28984 6.72166 1.31061 7.31507C1.33138 7.90848 1.20084 8.49742 0.931272 9.02647C0.821577 9.24176 0.558125 9.32736 0.342836 9.21767C0.127547 9.10797 0.0419465 8.84452 0.151642 8.62923C0.353817 8.23244 0.451722 7.79074 0.436143 7.34568C0.420565 6.90062 0.292016 6.46685 0.0625921 6.08516C-0.0618878 5.87807 0.00508282 5.60928 0.212175 5.4848Z" fill="#000001"/>
<path d="M3.06588 4.28797C2.94163 4.08073 2.67291 4.01346 2.46568 4.13771C2.25845 4.26195 2.19117 4.53067 2.31542 4.7379C2.77289 5.50093 3.02896 6.36769 3.05958 7.25682C3.0902 8.14595 2.89437 9.02828 2.49047 9.82097C2.38078 10.0363 2.46638 10.2997 2.68167 10.4094C2.89696 10.5191 3.16041 10.4335 3.27011 10.2182C3.74132 9.2934 3.96979 8.26402 3.93406 7.2267C3.89834 6.18939 3.59959 5.17816 3.06588 4.28797Z" fill="#000001"/>
<zoom style="dark" value="|:#F7F9FA |:#F7F9FA"/>
</svg>
