<svg width="8" height="8" viewBox="0 0 8 8" fill="none" xmlns="http://www.w3.org/2000/svg">
<path fill-rule="evenodd" clip-rule="evenodd" d="M0 4C0 1.79086 1.79086 0 4 0C6.20914 0 8 1.79086 8 4C8 6.20914 6.20914 8 4 8C1.79086 8 0 6.20914 0 4ZM3.33325 2.00001C3.33325 1.63182 3.63173 1.33334 3.99992 1.33334C4.36811 1.33334 4.66658 1.63182 4.66658 2.00001V3.72384L5.41277 4.47002C5.67312 4.73037 5.67312 5.15248 5.41277 5.41283C5.15242 5.67318 4.73031 5.67318 4.46996 5.41283L3.59007 4.53294C3.43376 4.41094 3.33325 4.22076 3.33325 4.0071V2.00001Z" fill="#8E9194"/>
<zoom style="dark" value="|:#8E9194"/>
<zoom style="selected" value="|:#8E9194"/>
<zoom style="hover_selected" value="|:#F5F5F5"/>
</svg>
