<svg width="16" height="16" viewBox="0 0 16 16" fill="none" xmlns="http://www.w3.org/2000/svg">
<path fill-rule="evenodd" clip-rule="evenodd" d="M2 12.5V3.5C2 3.22386 2.22386 3 2.5 3H5.07295C5.26234 3 5.43547 3.107 5.52016 3.27639L5.96738 4.17082C6.22146 4.679 6.74086 5 7.30902 5H13.5C13.7761 5 14 5.22386 14 5.5V12.5C14 12.7761 13.7761 13 13.5 13H2.5C2.22386 13 2 12.7761 2 12.5ZM2.5 2C1.67157 2 1 2.67157 1 3.5V12.5C1 13.3284 1.67157 14 2.5 14H13.5C14.3284 14 15 13.3284 15 12.5V5.5C15 4.67157 14.3284 4 13.5 4H7.30902C7.11963 4 6.9465 3.893 6.8618 3.72361L6.41459 2.82918C6.1605 2.321 5.64111 2 5.07295 2H2.5ZM7.99999 12C7.74108 12 7.53124 11.7902 7.53124 11.5313V9.46878H5.46875C5.20993 9.46878 5 9.25892 5 9.00003C5 8.74114 5.20993 8.53128 5.46875 8.53128H7.53124V6.46875C7.53124 6.20986 7.74108 6 7.99999 6C8.2589 6 8.46874 6.20986 8.46874 6.46875V8.53128H10.5312C10.7902 8.53128 11 8.74114 11 9.00003C11 9.25892 10.7902 9.46878 10.5312 9.46878H8.46874V11.5313C8.46874 11.7902 8.2589 12 7.99999 12Z" fill="#909096"/>
<zoom style="hover" value="|:#222230"/>
<zoom style="dark" value="|:#FFFFFF89"/>
<zoom style="dark_hover" value="|:#F5F5F5"/>
</svg>
