<svg width="8" height="8" viewBox="0 0 8 8" fill="none" xmlns="http://www.w3.org/2000/svg">
<path fill-rule="evenodd" clip-rule="evenodd" d="M2.2224 0H1.3336C0.9644 0 0.6312 0.1512 0.3912 0.3912C0.1512 0.6312 0 0.9644 0 1.3332C0 5.0176 2.982 8 6.6668 8C6.6804 8 6.694 8 6.7076 8C7.4276 7.9956 8 7.3868 8 6.6668V5.7776C8 5.2868 7.602 4.8888 7.1112 4.8888H6.3304C5.9764 4.8888 5.6376 5.0292 5.3876 5.2796L5.0276 5.6392C4.9416 5.7252 4.8256 5.7728 4.7088 5.7728C4.6468 5.7728 4.5844 5.7592 4.5268 5.7308C3.5436 5.2516 2.7484 4.4568 2.2692 3.4736C2.1876 3.3064 2.2296 3.104 2.3612 2.9724L2.7208 2.6128C2.9708 2.3628 3.1112 2.0236 3.1112 1.67V0.8888C3.1112 0.398 2.7132 0 2.2224 0Z" fill="#FF5500"/>
<zoom style="dark" value="|:#FF5500"/>
<zoom style="selected" value="|:#FF5500"/>
</svg>
