<svg width="88" height="88" viewBox="0 0 88 88" fill="none" xmlns="http://www.w3.org/2000/svg">
<path fill-rule="evenodd" clip-rule="evenodd" d="M0 44C0 30.0558 0 23.0837 2.34468 17.6084C5.28236 10.7483 10.7483 5.28236 17.6084 2.34468C23.0837 0 30.0558 0 44 0C57.9442 0 64.9163 0 70.3916 2.34468C77.2517 5.28236 82.7176 10.7483 85.6553 17.6084C88 23.0837 88 30.0558 88 44C88 57.9442 88 64.9163 85.6553 70.3916C82.7176 77.2517 77.2517 82.7176 70.3916 85.6553C64.9163 88 57.9442 88 44 88C30.0558 88 23.0837 88 17.6084 85.6553C10.7483 82.7176 5.28236 77.2517 2.34468 70.3916C0 64.9163 0 57.9442 0 44Z" fill="#0E71EB"/>
<path fill-rule="evenodd" clip-rule="evenodd" d="M26.763 29.8221C26 31.3194 26 33.2796 26 37.2V50.8C26 54.7204 26 56.6806 26.763 58.1779C27.4341 59.4951 28.5049 60.5659 29.8221 61.237C31.3194 62 33.2796 62 37.2 62H50.8C54.7204 62 56.6806 62 58.1779 61.237C59.4951 60.5659 60.5659 59.4951 61.237 58.1779C62 56.6806 62 54.7204 62 50.8V37.2C62 33.2796 62 31.3194 61.237 29.8221C60.5659 28.5049 59.4951 27.4341 58.1779 26.763C56.6806 26 54.7204 26 50.8 26H37.2C33.2796 26 31.3194 26 29.8221 26.763C28.5049 27.4341 27.4341 28.5049 26.763 29.8221ZM45.25 37C45.25 36.3096 44.6904 35.75 44 35.75C43.3096 35.75 42.75 36.3096 42.75 37V41.95C42.75 42.23 42.75 42.37 42.6955 42.477C42.6476 42.5711 42.5711 42.6476 42.477 42.6955C42.37 42.75 42.23 42.75 41.95 42.75H37C36.3096 42.75 35.75 43.3096 35.75 44C35.75 44.6904 36.3096 45.25 37 45.25H41.95C42.23 45.25 42.37 45.25 42.477 45.3045C42.5711 45.3524 42.6476 45.4289 42.6955 45.523C42.75 45.63 42.75 45.77 42.75 46.05V51C42.75 51.6904 43.3096 52.25 44 52.25C44.6904 52.25 45.25 51.6904 45.25 51V46.05C45.25 45.77 45.25 45.63 45.3045 45.523C45.3524 45.4289 45.4289 45.3524 45.523 45.3045C45.63 45.25 45.77 45.25 46.05 45.25H51C51.6904 45.25 52.25 44.6904 52.25 44C52.25 43.3096 51.6904 42.75 51 42.75H46.05C45.77 42.75 45.63 42.75 45.523 42.6955C45.4289 42.6476 45.3524 42.5711 45.3045 42.477C45.25 42.37 45.25 42.23 45.25 41.95V37Z" fill="white"/>
</svg>
