<svg width="16" height="16" viewBox="0 0 16 16" fill="none" xmlns="http://www.w3.org/2000/svg">
<path d="M5 5C5 4.72386 5.22386 4.5 5.5 4.5H10.5C10.7761 4.5 11 4.72386 11 5C11 5.27614 10.7761 5.5 10.5 5.5H5.5C5.22386 5.5 5 5.27614 5 5Z" fill="#707070"/>
<path d="M5 8C5 7.72386 5.22386 7.5 5.5 7.5H10.5C10.7761 7.5 11 7.72386 11 8C11 8.27614 10.7761 8.5 10.5 8.5H5.5C5.22386 8.5 5 8.27614 5 8Z" fill="#707070"/>
<path d="M5 11C5 10.7239 5.22386 10.5 5.5 10.5H10.5C10.7761 10.5 11 10.7239 11 11C11 11.2761 10.7761 11.5 10.5 11.5H5.5C5.22386 11.5 5 11.2761 5 11Z" fill="#707070"/>
<path d="M1.5 6.9C1.5 5.77164 1.50039 4.95545 1.55284 4.31352C1.60481 3.67744 1.70539 3.25662 1.88148 2.91103C2.21703 2.25247 2.75247 1.71703 3.41103 1.38148C3.75662 1.20539 4.17744 1.10481 4.81352 1.05284C5.45545 1.00039 6.27164 1 7.4 1H8.6C9.72836 1 10.5446 1.00039 11.1865 1.05284C11.8226 1.10481 12.2434 1.20539 12.589 1.38148C13.2475 1.71703 13.783 2.25247 14.1185 2.91103C14.2946 3.25662 14.3952 3.67744 14.4472 4.31352C14.4996 4.95545 14.5 5.77164 14.5 6.9V9.1C14.5 10.2284 14.4996 11.0446 14.4472 11.6865C14.3952 12.3226 14.2946 12.7434 14.1185 13.089C13.783 13.7475 13.2475 14.283 12.589 14.6185C12.2434 14.7946 11.8226 14.8952 11.1865 14.9472C10.5446 14.9996 9.72836 15 8.6 15H7.4C6.27165 15 5.45545 14.9996 4.81352 14.9472C4.17744 14.8952 3.75662 14.7946 3.41103 14.6185C2.75247 14.283 2.21703 13.7475 1.88148 13.089C1.70539 12.7434 1.60481 12.3226 1.55284 11.6865C1.50039 11.0446 1.5 10.2284 1.5 9.1V6.9Z" stroke="#707070" stroke-linejoin="round"/>
<zoom style="hover" value=":none|:#222230|:#222230|:#222230|#222230"/>
<zoom style="press" value=":none|:#0E72ED|:#0E72ED|:#0E72ED|#0E72ED"/>
<zoom style="dark" value=":none|:#ffffff8A|:#ffffff8A|:#ffffff8A|#ffffff8A"/>
<zoom style="hover_dark" value=":none|:#F5F5F5|:#F5F5F5|:#F5F5F5|#F5F5F5"/>
<zoom style="press_dark" value=":none|:#F5F5F5|:#F5F5F5|:#F5F5F5|#F5F5F5"/>
</svg>
