<svg width="16" height="16" viewBox="0 0 16 16" fill="none" xmlns="http://www.w3.org/2000/svg">
<path fill-rule="evenodd" clip-rule="evenodd" d="M10.4795 3.40858L12.5942 5.52329C13.1798 6.10886 13.18 7.05817 12.5948 7.64405L9.64952 10.5924L5.40816 6.35108L8.35955 3.40722C8.94555 2.82271 9.89425 2.82332 10.4795 3.40858ZM4.70106 5.64397L7.65334 2.69921C8.63002 1.72503 10.2112 1.72604 11.1866 2.70147L13.3013 4.81619C14.2773 5.79213 14.2777 7.37432 13.3023 8.35078L10.3566 11.2995L10.357 11.2999L10.1525 11.5039L9.64988 12.007L9.64896 12.0061L8.34861 13.3031C7.37193 14.2772 5.7908 14.2762 4.81539 13.3008L2.69927 11.1847C1.72386 10.2092 1.72283 8.62809 2.69699 7.65141L3.99394 6.3511L3.99303 6.35019L4.34911 5.99502L4.70015 5.64307L4.70106 5.64397ZM4.70105 7.05821L3.40501 8.3576C2.82052 8.94361 2.82113 9.8923 3.40638 10.4776L5.52249 12.5937C6.10774 13.1789 7.05642 13.1795 7.64243 12.595L8.94185 11.299L4.70105 7.05821Z" fill="#747487"/>
<zoom style="dark" value="|:#999999"/>
<zoom style="disabled" value="|:#909096"/>
<zoom style="disabled_dark" value="|:#707070"/>
<zoom style="hover" value="|:#222230"/>
<zoom style="hover_dark" value="|:#F5F5F5"/>
<zoom style="selected" value="|:#0E72ED"/>
<zoom style="selected_dark" value="|:#4F9AF7"/>
</svg>
