<svg width="10" height="10" viewBox="0 0 10 10" fill="none" xmlns="http://www.w3.org/2000/svg">
<path clip-rule="evenodd" d="M4.78922 6.47882C4.78479 6.47488 4.78046 6.47078 4.77621 6.46655C4.77264 6.46298 4.76918 6.45935 4.76582 6.45566L2.27954 3.96942C2.1575 3.84738 2.15765 3.64967 2.27988 3.52782C2.4021 3.40596 2.60012 3.40611 2.72216 3.52815L4.99812 5.80409L7.27975 3.52963C7.40198 3.40778 7.60007 3.40786 7.72221 3.5298C7.84434 3.65174 7.84426 3.84938 7.72203 3.97122L5.26678 6.41876C5.25473 6.4376 5.24046 6.45543 5.22397 6.47187C5.10423 6.59125 4.91174 6.59353 4.78922 6.47882Z" fill="#131619" fill-rule="evenodd"/>
<zoom style="dark" value=":none|:#98A0A9"/>
</svg>
