<svg width="16" height="16" viewBox="0 0 16 16" fill="none" xmlns="http://www.w3.org/2000/svg">
<path fill-rule="evenodd" clip-rule="evenodd" d="M2 12.5V3.5C2 3.22386 2.22386 3 2.5 3H5.07295C5.26234 3 5.43547 3.107 5.52016 3.27639L5.96738 4.17082C6.22146 4.679 6.74086 5 7.30902 5H13.5C13.7761 5 14 5.22386 14 5.5V12.5C14 12.7761 13.7761 13 13.5 13H2.5C2.22386 13 2 12.7761 2 12.5ZM2.5 2C1.67157 2 1 2.67157 1 3.5V12.5C1 13.3284 1.67157 14 2.5 14H13.5C14.3284 14 15 13.3284 15 12.5V5.5C15 4.67157 14.3284 4 13.5 4H7.30902C7.11963 4 6.9465 3.893 6.8618 3.72361L6.41459 2.82918C6.1605 2.321 5.64111 2 5.07295 2H2.5ZM9.35355 6.64645C9.15829 6.45118 8.84171 6.45118 8.64645 6.64645C8.45118 6.84171 8.45118 7.15829 8.64645 7.35355L9.79289 8.5H5C4.72386 8.5 4.5 8.72386 4.5 9C4.5 9.27614 4.72386 9.5 5 9.5H9.79289L8.64645 10.6464C8.45118 10.8417 8.45118 11.1583 8.64645 11.3536C8.84171 11.5488 9.15829 11.5488 9.35355 11.3536L11.3536 9.35355C11.5488 9.15829 11.5488 8.84171 11.3536 8.64645L9.35355 6.64645Z" fill="#707070"/>
<zoom style="dark" value="|:#FFFFFF89"/>
<zoom style="hover" value="|:#222230"/>
<zoom style="hover_dark" value="|:#F5F5F5"/>
<zoom style="selected" value="|:#0E72ED"/>
<zoom style="selected_dark" value="|:#F5F5F5"/>
</svg>
