<svg width="16" height="16" viewBox="0 0 16 16" fill="none" xmlns="http://www.w3.org/2000/svg">
<path fill-rule="evenodd" clip-rule="evenodd" d="M8 14C11.3137 14 14 11.3137 14 8C14 4.68629 11.3137 2 8 2C4.68629 2 2 4.68629 2 8C2 11.3137 4.68629 14 8 14ZM11.026 4.974C11.277 5.22505 11.277 5.63209 11.026 5.88314L8.90914 8L11.026 10.1169C11.277 10.3679 11.277 10.7749 11.026 11.026C10.7749 11.277 10.3679 11.277 10.1169 11.026L8 8.90914L5.88314 11.026C5.63209 11.277 5.22505 11.277 4.974 11.026C4.72295 10.7749 4.72295 10.3679 4.974 10.1169L7.09086 8L4.974 5.88314C4.72295 5.63209 4.72295 5.22505 4.974 4.974C5.22505 4.72295 5.63209 4.72295 5.88314 4.974L8 7.09086L10.1169 4.974C10.3679 4.72295 10.7749 4.72295 11.026 4.974Z" fill="#DE2828"/>
</svg>
