<svg width="16" height="16" viewBox="0 0 16 16" fill="none" xmlns="http://www.w3.org/2000/svg">
<path d="M12.6816 5.25779L13.7734 6.38592C14.0625 6.68462 14.0565 7.16057 13.7601 7.45193L8.3376 12.781C8.2277 12.889 8.08745 12.9609 7.93559 12.9871L5.89787 13.338C5.7544 13.3627 5.62923 13.2389 5.65241 13.0951L5.99591 10.9655C6.0216 10.8062 6.09751 10.6594 6.21257 10.5463L11.6074 5.24433C11.9071 4.94978 12.3894 4.95582 12.6816 5.25779Z" stroke="#0404138E"/>
<path fill-rule="evenodd" clip-rule="evenodd" d="M2.5 2C2.22386 2 2 2.22386 2 2.5C2 2.77614 2.22386 3 2.5 3H4.75V8.5C4.75 8.57767 4.84272 8.59508 4.8904 8.53377L5.59447 7.62853C5.69527 7.49893 5.75 7.33943 5.75 7.17525V3H8C8.27614 3 8.5 2.77614 8.5 2.5C8.5 2.22386 8.27614 2 8 2H5.25H2.5Z" fill="#0404138E"/>
<zoom style="dark" value="|#999999FF:|:#999999FF"/>
<zoom style="hover" value="|#222230FF:|:#222230FF"/>
<zoom style="hover_dark" value="|#F5F5F5FF:|:#F5F5F5FF"/>
<zoom style="selected" value="|#0E72EDFF:|:#0E72EDFF"/>
<zoom style="selected_dark" value="|#4F9AF7FF:|:#4F9AF7FF"/>
</svg>
