<svg width="16" height="16" viewBox="0 0 16 16" fill="none" xmlns="http://www.w3.org/2000/svg">
<path d="M2 4C2 2.34315 3.34315 1 5 1H11C12.6569 1 14 2.34315 14 4V13.5C14 14.8364 12.3843 15.5056 11.4393 14.5607L8 11.1213L4.56066 14.5607C3.5 15.5 2 14.8364 2 13.5V4Z" fill="#FAAC2A"/>
<path fill-rule="evenodd" clip-rule="evenodd" d="M7.43431 10.2728C7.63232 10.0748 7.73133 9.97578 7.84549 9.93869C7.94591 9.90606 8.05409 9.90606 8.15451 9.93869C8.26867 9.97578 8.36768 10.0748 8.56568 10.2728L12.1464 13.8536C12.4614 14.1685 13 13.9455 13 13.5V4C13 2.89543 12.1046 2 11 2H5C3.89543 2 3 2.89543 3 4V13.5C3 13.7605 3.12922 13.902 3.27344 13.9633C3.41382 14.0229 3.63731 14.0317 3.87861 13.8285L7.43431 10.2728ZM4.56066 14.5607C3.5 15.5 2 14.8364 2 13.5V4C2 2.34315 3.34315 1 5 1H11C12.6569 1 14 2.34315 14 4V13.5C14 14.8364 12.3843 15.5056 11.4393 14.5607L8 11.1213L4.56066 14.5607Z" fill="#C28030"/>
<zoom style="dark" value="|:#FAAC2A|:#FAAC2A"/>
</svg>
