<svg width="88" height="88" viewBox="0 0 88 88" fill="none" xmlns="http://www.w3.org/2000/svg">
<path fill-rule="evenodd" clip-rule="evenodd" d="M0 44C0 30.0181 0 23.0271 2.36022 17.5404C5.2921 10.7248 10.7248 5.2921 17.5404 2.36022C23.0271 0 30.0181 0 44 0C57.9819 0 64.9729 0 70.4596 2.36022C77.2752 5.2921 82.7079 10.7248 85.6398 17.5404C88 23.0271 88 30.0181 88 44C88 57.9819 88 64.9729 85.6398 70.4596C82.7079 77.2752 77.2752 82.7079 70.4596 85.6398C64.9729 88 57.9819 88 44 88C30.0181 88 23.0271 88 17.5404 85.6398C10.7248 82.7079 5.2921 77.2752 2.36022 70.4596C0 64.9729 0 57.9819 0 44Z" fill="#0E71EB"/>
<path d="M33.0762 52.2725C33.1514 54.0977 34.6758 55.2529 37.0273 55.2529C39.502 55.2529 41.0264 54.0361 41.0264 52.0674C41.0264 50.543 40.1719 49.6885 38.1895 49.2646L37 49.0117C35.8447 48.7588 35.373 48.3965 35.373 47.7744C35.373 47.002 36.0566 46.5029 37.0889 46.5029C38.0869 46.5029 38.8115 47.0293 38.9072 47.8359H40.8486C40.7871 46.0928 39.249 44.8828 37.0752 44.8828C34.7988 44.8828 33.3018 46.0996 33.3018 47.9385C33.3018 49.4355 34.1836 50.3584 35.9814 50.7412L37.2666 51.0215C38.4766 51.2881 38.9688 51.6641 38.9688 52.3135C38.9688 53.0791 38.21 53.6191 37.1367 53.6191C35.9746 53.6191 35.168 53.0928 35.0723 52.2725H33.0762ZM45.0459 55V45.1357H42.9814V55H45.0459ZM47.4385 45.1357V55H49.5029V51.8896H51.4512C53.5293 51.8896 54.9717 50.5361 54.9717 48.5264C54.9717 46.4893 53.584 45.1357 51.5537 45.1357H47.4385ZM49.5029 46.7764H51.0068C52.1963 46.7764 52.873 47.3848 52.873 48.5332C52.873 49.6543 52.1826 50.2695 51 50.2695H49.5029V46.7764Z" fill="#0E71EB"/>
<rect x="31" y="43" width="26" height="12" fill="#0E71EB"/>
<path fill-rule="evenodd" clip-rule="evenodd" d="M50 30C48.8954 30 48.0414 29.051 47.5111 28.0821C46.8319 26.8413 45.5142 26 44 26C42.4858 26 41.1681 26.8413 40.4889 28.0821C39.9586 29.051 39.1046 30 38 30H32C29.1997 30 27.7996 30 26.73 30.545C25.7892 31.0243 25.0243 31.7892 24.545 32.73C24 33.7996 24 35.1997 24 38V50C24 52.8003 24 54.2004 24.545 55.27C25.0243 56.2108 25.7892 56.9757 26.73 57.455C27.7996 58 29.1997 58 32 58H56C58.8003 58 60.2004 58 61.27 57.455C62.2108 56.9757 62.9757 56.2108 63.455 55.27C64 54.2004 64 52.8003 64 50V38C64 35.1997 64 33.7996 63.455 32.73C62.9757 31.7892 62.2108 31.0243 61.27 30.545C60.2004 30 58.8003 30 56 30H50ZM36 61C36 60.4477 36.4477 60 37 60H51C51.5523 60 52 60.4477 52 61C52 61.5523 51.5523 62 51 62H37C36.4477 62 36 61.5523 36 61ZM44 32C45.1046 32 46 31.1046 46 30C46 28.8954 45.1046 28 44 28C42.8954 28 42 28.8954 42 30C42 31.1046 42.8954 32 44 32Z" fill="white"/>
</svg>
