<svg width="35" height="32" viewBox="0 0 35 32" fill="none" xmlns="http://www.w3.org/2000/svg">
<path d="M17.5172 20.6945C16.6266 20.6945 16.1702 20.2381 16.1479 19.3252L15.9308 10.2246C15.9197 9.7904 16.0589 9.4286 16.3483 9.13916C16.6489 8.84972 17.0329 8.705 17.5005 8.705C17.9569 8.705 18.3354 8.85528 18.636 9.15585C18.9477 9.44529 19.098 9.80709 19.0869 10.2413L18.8364 19.3252C18.8252 20.2381 18.3855 20.6945 17.5172 20.6945Z" fill="#FF5F98"/>
<path d="M17.5172 26.2885C17.0162 26.2885 16.5765 26.1159 16.198 25.7708C15.8307 25.4257 15.647 25.0027 15.647 24.5018C15.647 24.0119 15.8307 23.5889 16.198 23.2327C16.5654 22.8764 17.0051 22.6983 17.5172 22.6983C18.0182 22.6983 18.4523 22.8764 18.8197 23.2327C19.1982 23.5778 19.3874 24.0008 19.3874 24.5018C19.3874 25.0027 19.1982 25.4257 18.8197 25.7708C18.4523 26.1159 18.0182 26.2885 17.5172 26.2885Z" fill="#FF5F98"/>
<path fill-rule="evenodd" clip-rule="evenodd" d="M19.6875 0.723118C20.3888 1.10162 20.9566 1.66937 21.3907 2.42636L34.3488 25.0027C34.5603 25.3701 34.7217 25.7541 34.833 26.1549C34.9443 26.5557 35 26.9509 35 27.3405C35 28.1865 34.8163 28.9491 34.449 29.6282C34.0816 30.3184 33.5584 30.8639 32.8793 31.2646C32.2002 31.6654 31.3876 31.8658 30.4413 31.8658H4.55868C3.61244 31.8658 2.79978 31.6654 2.12071 31.2646C1.44163 30.8639 0.918416 30.3184 0.55105 29.6282C0.183683 28.9491 0 28.1865 0 27.3405C0 26.5278 0.21708 25.7486 0.65124 25.0027L13.6093 2.42636C14.0323 1.66937 14.5945 1.10162 15.2958 0.723118C15.9971 0.333487 16.7319 0.138672 17.5 0.138672C18.2681 0.138672 18.9973 0.333487 19.6875 0.723118ZM32.5 27.3405C32.5 27.8119 32.4013 28.1591 32.2501 28.4386L32.2421 28.4536C32.0928 28.7341 31.8951 28.9425 31.6087 29.1116C31.385 29.2436 31.0303 29.3658 30.4413 29.3658H4.55868C3.96972 29.3658 3.61499 29.2436 3.39134 29.1116C3.10486 28.9425 2.90728 28.7341 2.75797 28.4535L2.74991 28.4386C2.59869 28.1591 2.5 27.8119 2.5 27.3405C2.5 26.9973 2.58572 26.649 2.8119 26.2604L15.7776 3.67094L15.7916 3.64592C16.0041 3.26567 16.2367 3.05638 16.4832 2.92334L16.5099 2.90851C16.857 2.71568 17.1759 2.63867 17.5 2.63867C17.8234 2.63867 18.1309 2.71522 18.4585 2.90018L18.4792 2.91188L18.5002 2.92317C18.7532 3.05974 18.9972 3.27805 19.2225 3.67085L32.1805 26.2472L32.1822 26.2501C32.291 26.4392 32.3701 26.6293 32.4242 26.824C32.4791 27.0215 32.5 27.1917 32.5 27.3405Z" fill="#7C94F5"/>
</svg>
