<svg width="64" height="64" viewBox="0 0 64 64" fill="none" xmlns="http://www.w3.org/2000/svg">
<g clip-path="url(#clip0_3156_294768)">
<path d="M32 64C49.6731 64 64 49.6731 64 32C64 14.3269 49.6731 0 32 0C14.3269 0 0 14.3269 0 32C0 49.6731 14.3269 64 32 64Z" fill="#232333" fill-opacity="0.6"/>
<path d="M32 64C49.6731 64 64 49.6731 64 32C64 14.3269 49.6731 0 32 0C14.3269 0 0 14.3269 0 32C0 49.6731 14.3269 64 32 64Z" fill="black" fill-opacity="0.3"/>
<path fill-rule="evenodd" clip-rule="evenodd" d="M44.0616 34.2249L27.0126 44.2319C26.06 44.7911 24.8345 44.4721 24.2754 43.5195C24.0952 43.2125 24.0002 42.8631 24.0002 42.5071V22.4931C24.0002 21.3885 24.8957 20.4931 26.0002 20.4931C26.3562 20.4931 26.7057 20.5881 27.0126 20.7682L44.0616 30.7753C45.0142 31.3344 45.3332 32.5599 44.7741 33.5125C44.6013 33.8069 44.356 34.0521 44.0616 34.2249Z" fill="white"/>
</g>
<defs>
<clipPath id="clip0_3156_294768">
<rect width="64" height="64" fill="white"/>
</clipPath>
</defs>
</svg>
