<svg width="14" height="14" viewBox="0 0 16 16" fill="none" xmlns="http://www.w3.org/2000/svg"><path d="M8.5 7.5C8.5 7.22386 8.27614 7 8 7C7.72386 7 7.5 7.22386 7.5 7.5V9.5H5.5C5.22386 9.5 5 9.72386 5 10C5 10.2761 5.22386 10.5 5.5 10.5H7.5V12.5C7.5 12.7761 7.72386 13 8 13C8.27614 13 8.5 12.7761 8.5 12.5V10.5H10.5C10.7761 10.5 11 10.2761 11 10C11 9.72386 10.7761 9.5 10.5 9.5H8.5V7.5Z" fill="#0E72ED"/><path fill-rule="evenodd" clip-rule="evenodd" d="M5.5 1.5C5.5 1.22386 5.27614 1 5 1C4.72386 1 4.5 1.22386 4.5 1.5V2.00877C3.63476 2.02929 3.0877 2.09786 2.63803 2.32698C2.07354 2.6146 1.6146 3.07354 1.32698 3.63803C1 4.27976 1 5.11984 1 6.8V10.325C1 12.0052 1 12.8452 1.32698 13.487C1.6146 14.0515 2.07354 14.5104 2.63803 14.798C3.27976 15.125 4.11984 15.125 5.8 15.125H10.2C11.8802 15.125 12.7202 15.125 13.362 14.798C13.9265 14.5104 14.3854 14.0515 14.673 13.487C15 12.8452 15 12.0052 15 10.325V6.8C15 5.11984 15 4.27976 14.673 3.63803C14.3854 3.07354 13.9265 2.6146 13.362 2.32698C12.9123 2.09786 12.3652 2.02929 11.5 2.00877V1.5C11.5 1.22386 11.2761 1 11 1C10.7239 1 10.5 1.22386 10.5 1.5V2.00008H5.5V1.5ZM10.5 3.5V3.0001H5.5V3.5C5.5 3.77614 5.27614 4 5 4C4.72386 4 4.5 3.77614 4.5 3.5V3.00902C4.27849 3.01451 4.0849 3.02335 3.91104 3.03755C3.47262 3.07337 3.24842 3.1383 3.09202 3.21799C2.71569 3.40973 2.40973 3.71569 2.21799 4.09202C2.1383 4.24842 2.07337 4.47262 2.03755 4.91104C2.03517 4.94013 2.03295 4.96977 2.03086 5H13.9691C13.9671 4.96977 13.9648 4.94013 13.9624 4.91104C13.9266 4.47262 13.8617 4.24842 13.782 4.09202C13.5903 3.71569 13.2843 3.40973 12.908 3.21799C12.7516 3.1383 12.5274 3.07337 12.089 3.03755C11.9151 3.02335 11.7215 3.01451 11.5 3.00902V3.5C11.5 3.77614 11.2761 4 11 4C10.7239 4 10.5 3.77614 10.5 3.5ZM13.9982 6H2.00176C2.00009 6.23749 2 6.50216 2 6.8V10.325C2 11.1816 2.00078 11.7639 2.03755 12.214C2.07337 12.6524 2.1383 12.8766 2.21799 13.033C2.40973 13.4093 2.71569 13.7153 3.09202 13.907C3.24842 13.9867 3.47262 14.0516 3.91104 14.0874C4.36113 14.1242 4.94342 14.125 5.8 14.125H10.2C11.0566 14.125 11.6389 14.1242 12.089 14.0874C12.5274 14.0516 12.7516 13.9867 12.908 13.907C13.2843 13.7153 13.5903 13.4093 13.782 13.033C13.8617 12.8766 13.9266 12.6524 13.9624 12.214C13.9992 11.7639 14 11.1816 14 10.325V6.8C14 6.50216 13.9999 6.23749 13.9982 6Z" fill="#0E72ED"/>
<zoom style="dark" value="|:#FFF7F9FA|:#FFF7F9FA"/>
</svg>
