<svg width="16" height="16" viewBox="0 0 16 16" fill="none" xmlns="http://www.w3.org/2000/svg">
<path fill-rule="evenodd" clip-rule="evenodd" d="M12.8908 1.74396C12.5526 1.43111 12.1698 1.2542 11.7591 1.27789C11.3576 1.30104 11.0303 1.51055 10.7835 1.75744L10.137 2.40388C9.7228 2.8181 9.54775 3.22884 10.137 3.8181L12.137 5.8181C12.7297 6.41082 12.9732 6.39612 13.5512 5.8181L14.1977 5.17165C14.4445 4.92477 14.6541 4.5975 14.6772 4.19602C14.7009 3.78533 14.524 3.40252 14.2111 3.06434C14.2067 3.05958 14.2023 3.05491 14.1977 3.05033L12.9048 1.75744C12.9002 1.75286 12.8955 1.74836 12.8908 1.74396ZM11.4906 2.46454C11.6342 2.32091 11.7438 2.28043 11.8167 2.27623C11.8797 2.2726 12.0066 2.29051 12.205 2.47191L13.4832 3.75008C13.6646 3.94854 13.6825 4.07544 13.6789 4.13842C13.6747 4.21129 13.6342 4.3209 13.4906 4.46454L12.8441 5.11099L10.8441 3.11099L11.4906 2.46454Z" fill="#040413" fill-opacity="0.56"/>
<path fill-rule="evenodd" clip-rule="evenodd" d="M8.66685 4.15689C8.40163 4.15689 8.1579 4.38303 7.97036 4.57057L2.68445 9.85647C2.40525 10.1357 2.21494 10.4913 2.13751 10.8785L1.69689 13.0816C1.63131 13.4094 1.70769 13.7746 1.94411 14.011C2.18054 14.2474 2.54572 14.3238 2.87358 14.2583L5.07669 13.8176C5.46387 13.7402 5.81947 13.5499 6.09867 13.2707L11.3846 7.98478C11.5721 7.79724 11.7781 7.53337 11.7781 7.26816C11.7781 7.00294 11.5721 6.7581 11.3846 6.57057L9.38457 4.57057C9.19704 4.38303 8.93207 4.15689 8.66685 4.15689ZM8.67747 5.27767L10.6775 7.27767L5.39156 12.5636C5.25196 12.7032 5.07416 12.7983 4.88057 12.8371L2.77552 13.2581C2.72888 13.2674 2.68775 13.2263 2.69708 13.1796L3.11809 11.0746C3.15681 10.881 3.25196 10.7032 3.39156 10.5636L8.67747 5.27767Z" fill="#040413" fill-opacity="0.56"/>
<zoom style="hover" value="|:#222230FF|:#222230FF"/>
<zoom style="press" value="|:#0862D1FF|:#0862D1FF"/>
<zoom style="dark" value="|:#FFFFFF89|:#FFFFFF89"/>
<zoom style="hover_dark" value="|:#F5F5F5FF|:#F5F5F5FF"/>
<zoom style="press_dark" value="|:#F5F5F5FF|:#F5F5F5FF"/>
</svg>
