<svg width="17" height="16" viewBox="0 0 17 16" fill="none" xmlns="http://www.w3.org/2000/svg">
<path d="M9 3C9 2.72386 8.77614 2.5 8.5 2.5C8.22386 2.5 8 2.72386 8 3V8C8 8.13261 8.05268 8.25978 8.14645 8.35355L10.6464 10.8536C10.8417 11.0488 11.1583 11.0488 11.3536 10.8536C11.5488 10.6583 11.5488 10.3417 11.3536 10.1464L9 7.79289V3Z" fill="#000001"/>
<path fill-rule="evenodd" clip-rule="evenodd" d="M0.5 8C0.5 3.58172 4.08172 0 8.5 0C12.9183 0 16.5 3.58172 16.5 8C16.5 12.4183 12.9183 16 8.5 16C4.08172 16 0.5 12.4183 0.5 8ZM8.5 15C4.63401 15 1.5 11.866 1.5 8C1.5 4.13401 4.63401 1 8.5 1C12.366 1 15.5 4.13401 15.5 8C15.5 11.866 12.366 15 8.5 15Z" fill="#000001"/>
</svg>
