<svg width="14" height="14" viewBox="0 0 14 14" fill="none" xmlns="http://www.w3.org/2000/svg">
<path d="M7.1145 0C7.35613 0 7.552 0.195875 7.552 0.4375C7.552 0.679125 7.35613 0.875 7.1145 0.875H2.5657C1.93682 0.875 1.427 1.38481 1.427 2.0137V9.30737C1.427 9.549 1.23113 9.74487 0.989508 9.74487C0.747887 9.74487 0.552015 9.549 0.552014 9.30738L0.552002 2.0137C0.552002 0.901565 1.45357 0 2.5657 0H7.1145Z" fill="#6E7680"/>
<path d="M9.302 2.06766C9.302 1.82603 9.10613 1.63016 8.8645 1.63016H4.3157C3.20357 1.63016 2.302 2.53172 2.302 3.64386L2.30201 10.9375C2.30201 11.1792 2.49789 11.375 2.73951 11.375C2.98113 11.375 3.177 11.1792 3.177 10.9375V3.64386C3.177 3.01497 3.68682 2.50516 4.3157 2.50516H8.8645C9.10613 2.50516 9.302 2.30928 9.302 2.06766Z" fill="#6E7680"/>
<path fill-rule="evenodd" clip-rule="evenodd" d="M4.052 5.27396V11.9863C4.052 13.0984 4.95357 14 6.0657 14H11.4356C12.5477 14 13.4493 13.0984 13.4493 11.9863V6.89294C13.4493 6.5321 13.304 6.18645 13.0462 5.93394L10.7083 3.64373C10.4574 3.39793 10.1201 3.26026 9.76886 3.26026H6.0657C4.95357 3.26026 4.052 4.16183 4.052 5.27396ZM4.927 11.9863V5.27396C4.927 4.64507 5.43682 4.13526 6.0657 4.13526H9.46436V6.04108C9.46436 6.65342 9.96075 7.14981 10.5731 7.14981H12.5743V11.9863C12.5743 12.6152 12.0644 13.125 11.4356 13.125H6.0657C5.43682 13.125 4.927 12.6152 4.927 11.9863ZM12.1438 6.27481L10.3394 4.50719V6.04108C10.3394 6.17017 10.444 6.27481 10.5731 6.27481H12.1438Z" fill="#6E7680"/>
<zoom style="dark" value=":none|:#F1F4F6|:#F1F4F6|:#F1F4F6"/>
</svg>
