<svg width="36" height="36" viewBox="0 0 36 36" fill="none" xmlns="http://www.w3.org/2000/svg">
<rect opacity="0.8" width="36" height="36" rx="9" fill="#252A30"/>
<path fill-rule="evenodd" clip-rule="evenodd" d="M25.5 10.5H10.5C8.84315 10.5 7.5 11.8431 7.5 13.5V19.9393L12.659 14.7803C13.5377 13.9017 14.9623 13.9016 15.841 14.7803L21.75 20.6893L23.159 19.2803C24.0377 18.4017 25.4623 18.4016 26.341 19.2803L28.5 21.4393V13.5C28.5 11.8431 27.1569 10.5 25.5 10.5ZM28.357 23.4177L25.2803 20.341C24.9874 20.0481 24.5126 20.0481 24.2197 20.341L22.8107 21.75L22.2803 22.2803L19.0607 25.5H25.5C26.8368 25.5 27.9693 24.6257 28.357 23.4177ZM16.9393 25.5L20.6893 21.75L14.7803 15.841C14.4874 15.5481 14.0126 15.5481 13.7197 15.841L7.5 22.0607V22.5C7.5 24.1569 8.84315 25.5 10.5 25.5H16.9393ZM10.5 9C8.01472 9 6 11.0147 6 13.5V22.5C6 24.9853 8.01472 27 10.5 27H25.5C27.9853 27 30 24.9853 30 22.5V13.5C30 11.0147 27.9853 9 25.5 9H10.5ZM24 15C24 15.8284 23.3284 16.5 22.5 16.5C21.6716 16.5 21 15.8284 21 15C21 14.1716 21.6716 13.5 22.5 13.5C23.3284 13.5 24 14.1716 24 15Z" fill="white"/>
<zoom style="hover" value="|:#131619"/>

</svg>
