<svg width="24" height="24" viewBox="0 0 24 24" fill="none" xmlns="http://www.w3.org/2000/svg">
<path fill-rule="evenodd" clip-rule="evenodd" d="M9.25 7.40005C9.25 7.06868 9.5296 6.80005 9.87449 6.80005H17.6255C17.9704 6.80005 18.25 7.06868 18.25 7.40005C18.25 7.73142 17.9704 8.00005 17.6255 8.00005H9.87449C9.5296 8.00005 9.25 7.73142 9.25 7.40005Z" fill="#747487"/>
<path fill-rule="evenodd" clip-rule="evenodd" d="M9.25 15.8C9.25 15.4686 9.5296 15.2 9.87449 15.2H17.6255C17.9704 15.2 18.25 15.4686 18.25 15.8C18.25 16.1313 17.9704 16.4 17.6255 16.4H9.87449C9.5296 16.4 9.25 16.1313 9.25 15.8Z" fill="#747487"/>
<path fill-rule="evenodd" clip-rule="evenodd" d="M9.25 11.6C9.25 11.2686 9.5296 11 9.87449 11H17.6255C17.9704 11 18.25 11.2686 18.25 11.6C18.25 11.9314 17.9704 12.2 17.6255 12.2H9.87449C9.5296 12.2 9.25 11.9314 9.25 11.6Z" fill="#747487"/>
<path d="M6.5 8.4C6.5 8.45523 6.54477 8.5 6.6 8.5H7.15C7.20523 8.5 7.25 8.45523 7.25 8.4V6.1C7.25 6.04477 7.20523 6 7.15 6H6.5536C6.51849 6 6.48399 6.00925 6.45358 6.02681L5.84998 6.37539C5.78811 6.41112 5.75 6.47714 5.75 6.54858V6.80812C5.75 6.88494 5.83302 6.93307 5.89968 6.8949L6.46117 6.57346H6.5V8.4Z" fill="#747487"/>
<path d="M5.75581 10.8319C5.74931 10.8867 5.79477 10.9317 5.85 10.9317H6.15107C6.26153 10.9317 6.34405 10.8358 6.39871 10.7398C6.45895 10.634 6.57417 10.5674 6.73211 10.5674C6.95751 10.5674 7.08274 10.7074 7.08274 10.8761C7.08274 11.0195 7.02907 11.1241 6.71064 11.399L5.85773 12.1269C5.81321 12.1649 5.78757 12.2205 5.78757 12.2791V12.5001C5.78757 12.5553 5.83234 12.6001 5.88757 12.6001H7.55C7.66046 12.6001 7.75 12.5106 7.75 12.4001V12.3176C7.75 12.2072 7.66046 12.1176 7.55 12.1176H6.66413V12.0856L7.17218 11.6521C7.58363 11.3012 7.71959 11.1106 7.71959 10.8221C7.71959 10.4054 7.3636 10.1001 6.7661 10.1001C6.20476 10.1001 5.80783 10.3926 5.75581 10.8319Z" fill="#747487"/>
<path d="M6.42048 15.825C6.42048 15.8803 6.46525 15.925 6.52048 15.925H6.73292C6.97105 15.925 7.11629 16.0385 7.11629 16.2258C7.11629 16.405 6.96261 16.525 6.7363 16.525C6.59014 16.525 6.47606 16.481 6.40873 16.4038C6.3385 16.3233 6.25701 16.2291 6.15015 16.2291H5.85481C5.79774 16.2291 5.75157 16.2771 5.76148 16.3333C5.83324 16.7407 6.20977 17 6.74474 17C7.33078 17 7.74624 16.7074 7.74624 16.2834C7.74624 15.9711 7.54358 15.759 7.19229 15.7114V15.6801C7.45913 15.6193 7.64829 15.4303 7.64829 15.1443C7.64997 14.7909 7.33753 14.5 6.7667 14.5C6.23167 14.5 5.87528 14.7566 5.8173 15.1545C5.80924 15.2099 5.85503 15.2561 5.91098 15.2561H6.18345C6.28982 15.2561 6.36904 15.1642 6.43194 15.0785C6.49241 14.996 6.59702 14.9504 6.7363 14.9504C6.94572 14.9504 7.07238 15.0687 7.07238 15.2298C7.07238 15.4007 6.93896 15.5174 6.73292 15.5174H6.52048C6.46525 15.5174 6.42048 15.5622 6.42048 15.6174V15.825Z" fill="#747487"/>
<zoom style="dark" value="|:#909096|:#999999|:#999999|:#909096|:#999999|:#999999"/>
<zoom style="disabled" value="|:#909096|:#909096|:#909096|:#909096|:#909096|:#909096"/>
<zoom style="disabled_dark" value="|:#707070|:#707070|:#707070|:#707070|:#707070|:#707070"/>
<zoom style="hover" value="|:#222230|:#222230|:#222230|:#222230|:#222230|:#222230"/>
<zoom style="hover_dark" value="|:#F5F5F5|:#F5F5F5|:#F5F5F5|:#F5F5F5|:#F5F5F5|:#F5F5F5"/>
<zoom style="selected" value="|:#0E72ED|:#0E72ED|:#0E72ED|:#0E72ED|:#0E72ED|:#0E72ED"/>
<zoom style="selected_dark" value="|:#4F9AF7|:#4F9AF7|:#4F9AF7|:#4F9AF7|:#4F9AF7|:#4F9AF7"/>
</svg>
