<svg width="24" height="24" viewBox="0 0 24 24" fill="none" xmlns="http://www.w3.org/2000/svg">
<path fill-rule="evenodd" clip-rule="evenodd" d="M9 7.40005C9 7.06868 9.33579 6.80005 9.75 6.80005H17.25C17.6642 6.80005 18 7.06868 18 7.40005C18 7.73142 17.6642 8.00005 17.25 8.00005H9.75C9.33579 8.00005 9 7.73142 9 7.40005Z" fill="#747487"/>
<path fill-rule="evenodd" clip-rule="evenodd" d="M9 15.8C9 15.4686 9.33579 15.2 9.75 15.2H17.25C17.6642 15.2 18 15.4686 18 15.8C18 16.1313 17.6642 16.4 17.25 16.4H9.75C9.33579 16.4 9 16.1313 9 15.8Z" fill="#747487"/>
<path fill-rule="evenodd" clip-rule="evenodd" d="M9 11.6C9 11.2686 9.33579 11 9.75 11H17.25C17.6642 11 18 11.2686 18 11.6C18 11.9314 17.6642 12.2 17.25 12.2H9.75C9.33579 12.2 9 11.9314 9 11.6Z" fill="#747487"/>
<circle cx="6.75" cy="7.3999" r="0.75" fill="#747487" />
<circle cx="6.75" cy="11.6001" r="0.75" fill="#747487"/>
<circle cx="6.75" cy="15.8" r="0.75" fill="#747487"/>

<zoom style="dark" value="|:#909096|:#999999|:#999999|:#909096|:#999999|:#999999"/>
<zoom style="disabled" value="|:#909096|:#909096|:#909096|:#909096|:#909096|:#909096"/>
<zoom style="disabled_dark" value="|:#707070|:#707070|:#707070|:#707070|:#707070|:#707070"/>
<zoom style="hover" value="|:#222230|:#222230|:#222230|:#222230|:#222230|:#222230"/>
<zoom style="hover_dark" value="|:#F5F5F5|:#F5F5F5|:#F5F5F5|:#F5F5F5|:#F5F5F5|:#F5F5F5"/>
<zoom style="selected" value="|:#0E72ED|:#0E72ED|:#0E72ED|:#0E72ED|:#0E72ED|:#0E72ED"/>
<zoom style="selected_dark" value="|:#4F9AF7|:#4F9AF7|:#4F9AF7|:#4F9AF7|:#4F9AF7|:#4F9AF7"/>
</svg>
