<svg width="88" height="88" viewBox="0 0 88 88" fill="none" xmlns="http://www.w3.org/2000/svg">
<path fill-rule="evenodd" clip-rule="evenodd" d="M0 44C0 30.0558 0 23.0837 2.34468 17.6084C5.28236 10.7483 10.7483 5.28236 17.6084 2.34468C23.0837 0 30.0558 0 44 0C57.9442 0 64.9163 0 70.3916 2.34468C77.2517 5.28236 82.7176 10.7483 85.6553 17.6084C88 23.0837 88 30.0558 88 44C88 57.9442 88 64.9163 85.6553 70.3916C82.7176 77.2517 77.2517 82.7176 70.3916 85.6553C64.9163 88 57.9442 88 44 88C30.0558 88 23.0837 88 17.6084 85.6553C10.7483 82.7176 5.28236 77.2517 2.34468 70.3916C0 64.9163 0 57.9442 0 44Z" fill="#0E71EB"/>
<path fill-rule="evenodd" clip-rule="evenodd" d="M24.763 31.8221C24 33.3194 24 35.2796 24 39.2V48.8C24 52.7204 24 54.6806 24.763 56.1779C25.4341 57.4951 26.5049 58.5659 27.8221 59.237C29.3194 60 31.2796 60 35.2 60H52.8C56.7204 60 58.6805 60 60.1779 59.237C61.4951 58.5659 62.5659 57.4951 63.237 56.1779C64 54.6806 64 52.7204 64 48.8V39.2C64 35.2796 64 33.3194 63.237 31.8221C62.5659 30.5049 61.4951 29.4341 60.1779 28.763C58.6805 28 56.7204 28 52.8 28H35.2C31.2796 28 29.3194 28 27.8221 28.763C26.5049 29.4341 25.4341 30.5049 24.763 31.8221ZM44.8839 36.1161C44.3957 35.628 43.6043 35.628 43.1161 36.1161L37.6161 41.6161C37.128 42.1043 37.128 42.8957 37.6161 43.3839C38.1043 43.872 38.8957 43.872 39.3839 43.3839L42.0672 40.7006C42.2813 40.4864 42.3884 40.3793 42.4804 40.3721C42.5602 40.3658 42.6381 40.3981 42.6901 40.459C42.75 40.5291 42.75 40.6805 42.75 40.9835V51C42.75 51.6904 43.3096 52.25 44 52.25C44.6904 52.25 45.25 51.6904 45.25 51V40.9835C45.25 40.6805 45.25 40.5291 45.3099 40.459C45.3619 40.3981 45.4398 40.3658 45.5196 40.3721C45.6116 40.3793 45.7187 40.4864 45.9328 40.7006L48.6161 43.3839C49.1043 43.872 49.8957 43.872 50.3839 43.3839C50.872 42.8957 50.872 42.1043 50.3839 41.6161L44.8839 36.1161Z" fill="white"/>
</svg>
