<svg width="16" height="16" viewBox="0 0 16 16" fill="none" xmlns="http://www.w3.org/2000/svg">
<path fill-rule="evenodd" clip-rule="evenodd" d="M4.50002 1C4.22388 1 4.00002 1.22386 4.00002 1.5C4.00002 1.77614 4.22388 2 4.50002 2H5.50012L5.50012 6.72194C4.32879 7.18644 3.50012 8.32923 3.50012 9.66661C3.50012 10.1268 3.87322 10.4999 4.33346 10.4999H7.11906L7.30164 14.3341C7.31939 14.7069 7.62681 15 8.00002 15C8.37323 15 8.68064 14.7069 8.69839 14.3341L8.88097 10.4999H11.6668C12.127 10.4999 12.5001 10.1268 12.5001 9.66661C12.5001 8.32923 11.6715 7.18644 10.5001 6.72194L10.5001 2H11.5208C11.7969 2 12.0208 1.77614 12.0208 1.5C12.0208 1.22386 11.7969 1 11.5208 1L4.50002 1Z" fill="#FAAC2A"/>
<path fill-rule="evenodd" clip-rule="evenodd" d="M4.4999 1C4.22376 1 3.9999 1.22386 3.9999 1.5C3.9999 1.77614 4.22376 2 4.4999 2H5.5L5.5 6.72194C4.32867 7.18644 3.5 8.32923 3.5 9.66661C3.5 10.1268 3.8731 10.4999 4.33333 10.4999H7.33936L7.48224 14.5004C7.4922 14.7792 7.7211 15.0001 8.00008 15.0001C8.27907 15.0001 8.50797 14.7792 8.51793 14.5004L8.6608 10.4999H11.6667C12.1269 10.4999 12.5 10.1268 12.5 9.66661C12.5 8.32923 11.6713 7.18644 10.5 6.72194L10.5 2H11.5206C11.7968 2 12.0206 1.77614 12.0206 1.5C12.0206 1.22386 11.7968 1 11.5206 1L4.4999 1ZM6.5 2.00018L6.5 7.08395C6.5 7.31209 6.34557 7.5113 6.12463 7.56817C5.24197 7.79535 4.57746 8.56522 4.50632 9.49994H11.4937C11.4225 8.56522 10.758 7.79535 9.87537 7.56817C9.65443 7.5113 9.5 7.31209 9.5 7.08395L9.5 2.00018L6.5 2.00018Z" fill="#C28030"/>
<zoom style="dark" value="|:#FAAC2A|:#FAAC2A"/>
</svg>
