<svg width="8" height="8" viewBox="0 0 8 8" fill="none" xmlns="http://www.w3.org/2000/svg">
<path d="M1.5 0.5C1.5 0.223858 1.72386 0 2 0C2.27614 0 2.5 0.223858 2.5 0.5V1C2.5 1.27614 2.27614 1.5 2 1.5C1.72386 1.5 1.5 1.27614 1.5 1V0.5Z" fill="#8E9194"/>
<path d="M5.5 0.5C5.5 0.223858 5.72386 0 6 0C6.27614 0 6.5 0.223858 6.5 0.5V1C6.5 1.27614 6.27614 1.5 6 1.5C5.72386 1.5 5.5 1.27614 5.5 1V0.5Z" fill="#8E9194"/>
<path d="M4 4.29289L3.35355 3.64645C3.15829 3.45118 2.84171 3.45118 2.64645 3.64645C2.45118 3.84171 2.45118 4.15829 2.64645 4.35355L3.29289 5L2.64645 5.64645C2.45118 5.84171 2.45118 6.15829 2.64645 6.35355C2.84171 6.54882 3.15829 6.54882 3.35355 6.35355L4 5.70711L4.64645 6.35355C4.84171 6.54882 5.15829 6.54882 5.35355 6.35355C5.54882 6.15829 5.54882 5.84171 5.35355 5.64645L4.70711 5L5.35355 4.35355C5.54882 4.15829 5.54882 3.84171 5.35355 3.64645C5.15829 3.45118 4.84171 3.45118 4.64645 3.64645L4 4.29289Z" fill="#8E9194"/>
<path fill-rule="evenodd" clip-rule="evenodd" d="M5 0.799988H3V1.2375C3 1.2375 3 1.96667 2 1.96667C1 1.96667 1 1.2375 1 1.2375V0.891274C0.935403 0.910846 0.875663 0.934614 0.819014 0.963478C0.536771 1.10729 0.3073 1.33676 0.16349 1.619C0 1.93987 0 2.35991 0 3.19999V5.6C0 6.44008 0 6.85913 0.16349 7.18C0.3073 7.46224 0.536771 7.69619 0.819014 7.84C1.13324 8.00011 1.54259 8.00007 2.3484 8H5.6516C6.45741 8.00007 6.86676 8.00011 7.18099 7.84C7.46323 7.69619 7.6927 7.46224 7.83651 7.18C8 6.85913 8 6.44008 8 5.6V3.19999C8 2.35991 8 1.93987 7.83651 1.619C7.6927 1.33676 7.46323 1.10729 7.18099 0.963478C7.12434 0.934614 7.0646 0.910846 7 0.891274V1.2375C7 1.2375 7 1.96667 6 1.96667C5 1.96667 5 1.2375 5 1.2375V0.799988ZM1 4C1 3.44772 1.44772 3 2 3H6C6.55228 3 7 3.44772 7 4V6C7 6.55228 6.55228 7 6 7H2C1.44772 7 1 6.55228 1 6V4Z" fill="#8E9194"/>
<zoom style="dark" value="|:#8E9194|:#8E9194|:#8E9194|:#8E9194"/>
<zoom style="selected" value="|:#8E9194|:#8E9194|:#8E9194|:#8E9194"/>
<zoom style="hover_selected" value="|:#F5F5F5|:#F5F5F5|:#F5F5F5|:#F5F5F5"/>
</svg>
