<svg width="16" height="16" viewBox="0 0 16 16" fill="none" xmlns="http://www.w3.org/2000/svg">
<path d="M8.5 11.5C8.5 11.7761 8.27614 12 8 12C7.72386 12 7.5 11.7761 7.5 11.5C7.5 11.2239 7.72386 11 8 11C8.27614 11 8.5 11.2239 8.5 11.5Z" fill="#6E7680"/>
<path d="M6.5 6.43939C6.5 5.65883 7.15696 5 8 5C8.84304 5 9.5 5.65883 9.5 6.43939C9.5 6.97511 9.19383 7.45027 8.72611 7.69925C8.20856 7.97477 7.5 8.52852 7.5 9.37879V9.5C7.5 9.77614 7.72386 10 8 10C8.27614 10 8.5 9.77614 8.5 9.5V9.37879C8.5 9.12449 8.73855 8.8255 9.19602 8.58197C9.96672 8.1717 10.5 7.37033 10.5 6.43939C10.5 5.07776 9.3661 4 8 4C6.6339 4 5.5 5.07776 5.5 6.43939C5.5 6.71554 5.72386 6.93939 6 6.93939C6.27614 6.93939 6.5 6.71554 6.5 6.43939Z" fill="#6E7680"/>
<path fill-rule="evenodd" clip-rule="evenodd" d="M8 16C12.4183 16 16 12.4183 16 8C16 3.58172 12.4183 0 8 0C3.58172 0 0 3.58172 0 8C0 12.4183 3.58172 16 8 16ZM8 15C11.866 15 15 11.866 15 8C15 4.13401 11.866 1 8 1C4.13401 1 1 4.13401 1 8C1 11.866 4.13401 15 8 15Z" fill="#6E7680"/>
<zoom style="dark" value="|:#98A0A9|:#98A0A9|:#98A0A9"/>
</svg>
