<svg width="14" height="14" viewBox="0 0 14 14" fill="none" xmlns="http://www.w3.org/2000/svg">
<path fill-rule="evenodd" clip-rule="evenodd" d="M0.875 3.89375C0.875 2.71028 1.83528 1.75 3.01875 1.75H10.9812C12.1647 1.75 13.125 2.71028 13.125 3.89375V8.44489C13.125 9.62836 12.1647 10.5886 10.9812 10.5886H7.37196C6.88525 10.5886 6.41751 10.7825 6.0729 11.1271L3.89686 13.3031C3.77173 13.4282 3.58356 13.4657 3.42008 13.3979C3.25659 13.3302 3.15 13.1707 3.15 12.9937V10.7199C3.15 10.6476 3.09108 10.5886 3.01875 10.5886C1.83528 10.5886 0.875 9.62836 0.875 8.44489V3.89375ZM3.01875 2.625C2.31852 2.625 1.75 3.19352 1.75 3.89375V8.44489C1.75 9.14511 2.31852 9.71364 3.01875 9.71364C3.57432 9.71364 4.025 10.1643 4.025 10.7199V11.9375L5.45418 10.5084C5.9627 9.99984 6.65292 9.71364 7.37196 9.71364H10.9812C11.6815 9.71364 12.25 9.14511 12.25 8.44489V3.89375C12.25 3.19352 11.6815 2.625 10.9812 2.625H3.01875Z" fill="#131619"/>
<zoom style="dark" value="|:#F7F9FA"/>
</svg>
