<svg width="12" height="12" viewBox="0 0 12 12" fill="none" xmlns="http://www.w3.org/2000/svg">
<path fill-rule="evenodd" clip-rule="evenodd" d="M6 11C8.76143 11 11 8.76143 11 6C11 3.23857 8.76143 1 6 1C3.23857 1 1 3.23857 1 6V11H6ZM3.5 5C3.22386 5 3 5.22386 3 5.5C3 5.77614 3.22386 6 3.5 6H8.5C8.77614 6 9 5.77614 9 5.5C9 5.22386 8.77614 5 8.5 5H3.5ZM3.5 7C3.22386 7 3 7.22386 3 7.5C3 7.77614 3.22386 8 3.5 8H6C6.27614 8 6.5 7.77614 6.5 7.5C6.5 7.22386 6.27614 7 6 7H3.5Z" fill="#E7F1FD"/>
<zoom name="NewUI_SMS_Message" style="highlight_hover" value="|:#0E71EB"/>
<zoom name="NewUI_SMS_Message" style="highlight_hover_dark" value="|:#FFFFFF"/>
</svg>
