<svg width="15" height="15" viewBox="0 0 15 15" fill="none" xmlns="http://www.w3.org/2000/svg">
<path fill-rule="evenodd" clip-rule="evenodd" d="M7.2134 1.75405C3.96453 1.75405 1.33081 4.38777 1.33081 7.63664C1.33081 9.62755 2.31943 11.3876 3.83448 12.4527L3.84248 12.4583L3.85022 12.4643L4.48655 12.9563L4.48655 9.85788C4.48655 9.62045 4.67903 9.42797 4.91646 9.42797C5.15389 9.42797 5.34636 9.62045 5.34636 9.85788L5.34636 13.876C5.34637 14.1134 5.15389 14.3059 4.91646 14.3059L0.898382 14.3059C0.66095 14.3059 0.468474 14.1134 0.468474 13.876C0.468474 13.6385 0.66095 13.446 0.898382 13.446L3.71429 13.446L3.33187 13.1503C1.6022 11.9306 0.470993 9.91574 0.470993 7.63664C0.470993 3.91291 3.48967 0.894232 7.2134 0.894232C10.9371 0.894232 13.9558 3.91291 13.9558 7.63664C13.9558 10.2564 12.4616 12.5264 10.2809 13.6423C10.0696 13.7505 9.81053 13.6668 9.70236 13.4555C9.5942 13.2441 9.67787 12.9851 9.88923 12.8769C11.7938 11.9023 13.096 9.92116 13.096 7.63664C13.096 4.38777 10.4623 1.75405 7.2134 1.75405Z" fill="#FFFFFF"/>
<path d="M7.21689 5.02148V8.03084L8.50661 9.32056" stroke="#FFFFFF" stroke-width="0.859816" stroke-linecap="round" stroke-linejoin="round"/>
<zoom style="selected_normal" value="|:#FFFFFF33|#FFFFFF33"/>
<zoom style="selected_classic" value="|:#32353933|#32353933"/>
</svg>
