<svg width="64" height="64" viewBox="0 0 64 64" fill="none" xmlns="http://www.w3.org/2000/svg">
<g clip-path="url(#clip0_3156_294769)">
<path d="M32 64C49.6731 64 64 49.6731 64 32C64 14.3269 49.6731 0 32 0C14.3269 0 0 14.3269 0 32C0 49.6731 14.3269 64 32 64Z" fill="#232333" fill-opacity="0.6"/>
<path d="M32 64C49.6731 64 64 49.6731 64 32C64 14.3269 49.6731 0 32 0C14.3269 0 0 14.3269 0 32C0 49.6731 14.3269 64 32 64Z" fill="black" fill-opacity="0.3"/>
<path d="M22.4375 39.4375C22.4375 40.6111 23.3889 41.5625 24.5625 41.5625C25.7361 41.5625 26.6875 40.6111 26.6875 39.4375V24.5625C26.6875 23.3889 25.7361 22.4375 24.5625 22.4375C23.3889 22.4375 22.4375 23.3889 22.4375 24.5625V39.4375Z" fill="white"/>
<path d="M37.3125 39.4375C37.3125 40.6111 38.2639 41.5625 39.4375 41.5625C40.6111 41.5625 41.5625 40.6111 41.5625 39.4375V24.5625C41.5625 23.3889 40.6111 22.4375 39.4375 22.4375C38.2639 22.4375 37.3125 23.3889 37.3125 24.5625V39.4375Z" fill="white"/>
</g>
<defs>
<clipPath id="clip0_3156_294769">
<rect width="64" height="64" fill="white"/>
</clipPath>
</defs>
</svg>
