<svg width="28" height="28" viewBox="0 0 28 28" fill="none" xmlns="http://www.w3.org/2000/svg">
<path fill-rule="evenodd" clip-rule="evenodd" d="M21.8524 8.48954C22.05 8.55802 22.0489 8.84007 21.8501 8.90507C21.797 8.9225 21.7437 8.94056 21.6903 8.95937C21.5132 9.02169 21.3342 9.09238 21.1609 9.17459C21.1144 9.19665 21.0683 9.21956 21.0226 9.24338C20.7702 9.37508 20.5323 9.53491 20.3286 9.73495C20.1181 9.94165 19.9514 10.1812 19.815 10.439C19.7909 10.4844 19.7678 10.5304 19.7456 10.5769C19.6638 10.748 19.5937 10.9258 19.5316 11.1061C19.5135 11.1589 19.4957 11.2127 19.4789 11.2659C19.4149 11.4667 19.1325 11.4725 19.0616 11.274C19.0427 11.2211 19.0237 11.1681 19.0043 11.1153C18.9382 10.9355 18.8675 10.7565 18.7862 10.584C18.7631 10.535 18.7391 10.4864 18.714 10.4384C18.5865 10.1941 18.4324 9.96501 18.2316 9.76513C18.0222 9.55659 17.7801 9.38824 17.5227 9.24853C17.4832 9.22711 17.4434 9.20636 17.4033 9.18624C17.234 9.10133 17.0594 9.02767 16.8843 8.96214C16.8294 8.94161 16.7742 8.92177 16.7194 8.90274C16.523 8.83426 16.5195 8.55686 16.7159 8.48722C16.7719 8.46741 16.8283 8.44691 16.885 8.42561C17.0565 8.36119 17.2309 8.28915 17.3998 8.20691C17.4427 8.18607 17.4852 8.16455 17.5273 8.1423C17.7853 8.00608 18.0281 7.8426 18.2305 7.63992C18.4343 7.43577 18.6016 7.19618 18.741 6.94125C18.7619 6.90315 18.7821 6.86471 18.8017 6.82599C18.8863 6.65918 18.96 6.48725 19.0251 6.31557C19.0466 6.25885 19.0674 6.20143 19.0871 6.14496C19.1557 5.94997 19.4324 5.94997 19.5021 6.14496C19.5221 6.20093 19.5426 6.25641 19.5637 6.31133L19.5643 6.31277C19.6325 6.48991 19.7074 6.66134 19.7913 6.82529C19.8109 6.86369 19.8311 6.90167 19.8518 6.93923C19.9927 7.19528 20.1581 7.43122 20.3576 7.63992L20.3588 7.64108C20.5524 7.84341 20.7833 8.00546 21.0308 8.13976C21.075 8.16375 21.1197 8.18686 21.1649 8.20916C21.3379 8.2946 21.5169 8.36807 21.6952 8.4336C21.7475 8.45279 21.8005 8.47161 21.8524 8.48954ZM19.6449 8.34149C19.7666 8.4676 19.8962 8.58075 20.0303 8.68262C19.891 8.78357 19.7557 8.89594 19.6279 9.02144C19.4932 9.15371 19.3732 9.29359 19.2659 9.43795C19.1684 9.30648 19.0595 9.17831 18.9373 9.05653C18.805 8.92488 18.6655 8.80675 18.5217 8.70038C18.6668 8.59506 18.8071 8.47772 18.9381 8.34654C19.0705 8.21391 19.1896 8.07294 19.297 7.92729C19.3992 8.06667 19.5113 8.20183 19.6348 8.33102L19.6429 8.33941L19.6449 8.34149Z" fill="#6E7680"/>
<path fill-rule="evenodd" clip-rule="evenodd" d="M14.026 7.56493C13.8354 7.03102 13.0787 7.02986 12.8904 7.56493C12.379 9.02159 11.6676 10.534 10.5447 11.6552C9.42189 12.7764 7.85153 13.46 6.39857 13.9742C5.86156 14.1646 5.8697 14.9237 6.40787 15.1105C7.88989 15.6247 9.40562 16.3327 10.5447 17.4702C11.692 18.6158 12.2836 20.1073 12.816 21.6011C13.0101 22.1454 13.7843 22.1292 13.9586 21.579C14.448 20.0341 15.1373 18.5136 16.2845 17.3878C17.4318 16.2619 18.9777 15.6015 20.447 15.1175C20.9921 14.9376 20.9968 14.1657 20.4551 13.9789C18.9917 13.474 17.462 12.8008 16.367 11.6563V11.6552C15.293 10.5316 14.5805 9.11909 14.026 7.56493ZM13.461 8.87525C13.9403 10.0159 14.5454 11.1003 15.367 12.0426V12.0577L15.6445 12.3476C16.6275 13.3751 17.8838 14.0483 19.0946 14.539C17.8741 15.0148 16.6054 15.6718 15.5841 16.6741C14.5498 17.6891 13.8646 18.9555 13.372 20.2283C12.8972 19.0284 12.2751 17.7848 11.2513 16.7626C10.2296 15.7423 8.96835 15.0488 7.72971 14.5403C8.94996 14.0448 10.2421 13.3705 11.2513 12.3628C12.2601 11.3555 12.9535 10.0994 13.461 8.87525Z" fill="#6E7680"/>
</svg>
