<svg width="88" height="88" viewBox="0 0 88 88" fill="none" xmlns="http://www.w3.org/2000/svg">
<path fill-rule="evenodd" clip-rule="evenodd" d="M0 44C0 30.0181 0 23.0271 2.36022 17.5404C5.2921 10.7248 10.7248 5.2921 17.5404 2.36022C23.0271 0 30.0181 0 44 0C57.9819 0 64.9729 0 70.4596 2.36022C77.2752 5.2921 82.7079 10.7248 85.6398 17.5404C88 23.0271 88 30.0181 88 44C88 57.9819 88 64.9729 85.6398 70.4596C82.7079 77.2752 77.2752 82.7079 70.4596 85.6398C64.9729 88 57.9819 88 44 88C30.0181 88 23.0271 88 17.5404 85.6398C10.7248 82.7079 5.2921 77.2752 2.36022 70.4596C0 64.9729 0 57.9819 0 44Z" fill="#FF4242"/>
<path fill-rule="evenodd" clip-rule="evenodd" d="M24.763 31.8221C24 33.3194 24 35.2796 24 39.2V48.8C24 52.7204 24 54.6806 24.763 56.1779C25.4341 57.4951 26.5049 58.5659 27.8221 59.237C29.3194 60 31.2796 60 35.2 60H52.8C56.7204 60 58.6805 60 60.1779 59.237C61.4951 58.5659 62.5659 57.4951 63.237 56.1779C64 54.6806 64 52.7204 64 48.8V39.2C64 35.2796 64 33.3194 63.237 31.8221C62.5659 30.5049 61.4951 29.4341 60.1779 28.763C58.6805 28 56.7204 28 52.8 28H35.2C31.2796 28 29.3194 28 27.8221 28.763C26.5049 29.4341 25.4341 30.5049 24.763 31.8221ZM38.8839 37.1161C38.3957 36.628 37.6043 36.628 37.1161 37.1161C36.628 37.6043 36.628 38.3957 37.1161 38.8839L41.6665 43.4343C41.8646 43.6323 41.9636 43.7313 42.0007 43.8455C42.0333 43.9459 42.0333 44.0541 42.0007 44.1545C41.9636 44.2687 41.8646 44.3677 41.6665 44.5657L37.1161 49.1161C36.628 49.6043 36.628 50.3957 37.1161 50.8839C37.6043 51.372 38.3957 51.372 38.8839 50.8839L43.4343 46.3335C43.6323 46.1354 43.7313 46.0364 43.8455 45.9993C43.9459 45.9667 44.0541 45.9667 44.1545 45.9993C44.2687 46.0364 44.3677 46.1354 44.5657 46.3335L49.1161 50.8839C49.6043 51.372 50.3957 51.372 50.8839 50.8839C51.372 50.3957 51.372 49.6043 50.8839 49.1161L46.3335 44.5657C46.1354 44.3677 46.0364 44.2687 45.9993 44.1545C45.9667 44.0541 45.9667 43.9459 45.9993 43.8455C46.0364 43.7313 46.1354 43.6323 46.3335 43.4343L50.8839 38.8839C51.372 38.3957 51.372 37.6043 50.8839 37.1161C50.3957 36.628 49.6043 36.628 49.1161 37.1161L44.5657 41.6665C44.3677 41.8646 44.2687 41.9636 44.1545 42.0007C44.0541 42.0333 43.9459 42.0333 43.8455 42.0007C43.7313 41.9636 43.6323 41.8646 43.4343 41.6665L38.8839 37.1161Z" fill="white"/>
</svg>
