<svg width="28" height="28" viewBox="0 0 28 28" fill="none" xmlns="http://www.w3.org/2000/svg">
<rect width="28" height="28" rx="8" fill="#0E72ED"/>
<path d="M21.8524 8.48936C21.3177 8.30481 20.7586 8.05875 20.3588 7.6409L20.3576 7.63974C19.9647 7.22886 19.7044 6.71235 19.5021 6.14478C19.4324 5.94979 19.1557 5.94979 19.0871 6.14478C18.9012 6.67753 18.6396 7.23002 18.2305 7.63974C17.8213 8.04946 17.2471 8.29901 16.7159 8.48704C16.5195 8.55668 16.523 8.83408 16.7194 8.90256C17.2611 9.09059 17.812 9.3471 18.2316 9.76495C18.6513 10.1828 18.8675 10.7283 19.0616 11.2738C19.1325 11.4723 19.4149 11.4665 19.4789 11.2657C19.6579 10.7016 19.9043 10.1515 20.3286 9.73477C20.7482 9.32273 21.3131 9.08131 21.8501 8.90488C22.0489 8.83988 22.05 8.55784 21.8524 8.48936Z" fill="white"/>
<path d="M20.4551 13.9787C18.9917 13.4738 17.462 12.8006 16.367 11.6562V11.655C15.293 10.5315 14.5805 9.1189 14.026 7.56475C13.8354 7.03084 13.0787 7.02968 12.8904 7.56475C12.379 9.02141 11.6676 10.5338 10.5447 11.655C9.42189 12.7762 7.85153 13.4599 6.39857 13.974C5.86156 14.1644 5.8697 14.9235 6.40787 15.1103C7.88989 15.6245 9.40562 16.3325 10.5447 17.47C11.692 18.6156 12.2836 20.1071 12.816 21.6009C13.0101 22.1452 13.7843 22.129 13.9586 21.5788C14.448 20.034 15.1373 18.5135 16.2845 17.3876C17.4318 16.2617 18.9777 15.6013 20.447 15.1173C20.9921 14.9374 20.9968 14.1655 20.4551 13.9787Z" fill="white"/>
<zoom style="theme_selected" value="|:#FFFFFF00"/>

</svg>
