<svg width="16" height="16" viewBox="0 0 16 16" fill="none" xmlns="http://www.w3.org/2000/svg">
<path d="M6.5 6C6.5 5.17157 7.17157 4.5 8 4.5C8.82843 4.5 9.5 5.17157 9.5 6C9.5 6.82843 8.82843 7.5 8 7.5C7.17157 7.5 6.5 6.82843 6.5 6Z" fill="#6E7680"/>
<path fill-rule="evenodd" clip-rule="evenodd" d="M8 15C8 15 13 10 13 6C13 3.23858 10.7614 1 8 1C5.23858 1 3 3.23858 3 6C3 10 8 15 8 15ZM8 3.5C6.61929 3.5 5.5 4.61929 5.5 6C5.5 7.38071 6.61929 8.5 8 8.5C9.38071 8.5 10.5 7.38071 10.5 6C10.5 4.61929 9.38071 3.5 8 3.5Z" fill="#6E7680"/>
<zoom style="hover" value="|:#FFFFFF|:#FFFFFF"/>
</svg>
