<svg width="24" height="24" viewBox="0 0 24 24" fill="none" xmlns="http://www.w3.org/2000/svg">
<rect width="24" height="24" rx="6" fill="#6E7680" fill-opacity="0.12"/>
<path d="M19.8525 6.49053C19.3178 6.306 18.7587 6.05997 18.3589 5.64217L18.3577 5.64101C17.9648 5.23018 17.7044 4.71374 17.5022 4.14623C17.4325 3.95126 17.1558 3.95126 17.0872 4.14623C16.9012 4.67892 16.6397 5.23134 16.2306 5.64101C15.8214 6.05068 15.2472 6.3002 14.716 6.48821C14.5195 6.55784 14.523 6.83521 14.7195 6.90368C15.2611 7.09169 15.8121 7.34817 16.2317 7.76597C16.6513 8.18376 16.8675 8.72922 17.0617 9.27468C17.1326 9.47313 17.415 9.46733 17.4789 9.26655C17.658 8.70253 17.9044 8.15243 18.3286 7.73579C18.7483 7.3238 19.3132 7.08241 19.8502 6.906C20.049 6.84101 20.0501 6.559 19.8525 6.49053Z" fill="#0E72ED"/>
<path d="M18.4552 11.9792C16.9918 11.4744 15.4621 10.8012 14.3671 9.65695V9.65579C13.2931 8.53238 12.5805 7.12 12.0261 5.56603C11.8355 5.03218 11.0788 5.03102 10.8904 5.56603C10.379 7.02251 9.66763 8.5347 8.54477 9.65579C7.42192 10.7769 5.85155 11.4604 4.39858 11.9746C3.86156 12.1649 3.8697 12.9239 4.40788 13.1107C5.8899 13.6249 7.40564 14.3328 8.54477 15.4701C9.69204 16.6156 10.2837 18.1069 10.8161 19.6005C11.0102 20.1448 11.7843 20.1285 11.9587 19.5785C12.448 18.0338 13.1373 16.5135 14.2846 15.3877C15.4319 14.262 16.9778 13.6016 18.4471 13.1177C18.9922 12.9378 18.9969 12.166 18.4552 11.9792Z" fill="#0E72ED"/>
</svg>
