<svg width="16" height="16" viewBox="0 0 16 16" fill="none" xmlns="http://www.w3.org/2000/svg">
<path d="M16.9999 14.5V15.5C16.9999 16.0524 16.5522 16.5 15.9999 16.5H10.5449C10.2344 16.5 9.92816 16.4277 9.65045 16.2888L8.41443 15.6708C7.8617 15.3944 7.8617 14.6055 8.41449 14.3291L9.65051 13.7112C9.92816 13.5723 10.2344 13.5 10.5449 13.5H15.9999C16.5522 13.5 16.9999 13.9478 16.9999 14.5ZM12.4999 3.50024H7.74988C7.47351 3.50024 7.24988 3.72387 7.24988 4.00024C7.24988 4.27661 7.47351 4.50024 7.74988 4.50024H12.4999C12.7762 4.50024 12.9999 4.27661 12.9999 4.00024C12.9999 3.72387 12.7762 3.50024 12.4999 3.50024ZM12.4999 6.00024H7.74988C7.47351 6.00024 7.24988 6.22387 7.24988 6.50024C7.24988 6.77661 7.47351 7.00024 7.74988 7.00024H12.4999C12.7762 7.00024 12.9999 6.77661 12.9999 6.50024C12.9999 6.22387 12.7762 6.00024 12.4999 6.00024ZM10.4999 9.00024C10.4999 8.72387 10.2762 8.50024 9.99988 8.50024H7.74988C7.47351 8.50024 7.24988 8.72387 7.24988 9.00024C7.24988 9.27661 7.47351 9.50024 7.74988 9.50024H9.99988C10.2762 9.50024 10.4999 9.27661 10.4999 9.00024ZM6.49988 14.5H5.74988C5.06061 14.5 4.49988 13.9392 4.49988 13.25V12.5002H4.74988C5.02625 12.5002 5.24988 12.2766 5.24988 12.0002C5.24988 11.7239 5.02625 11.5002 4.74988 11.5002H4.49988V10.5002H4.74988C5.02625 10.5002 5.24988 10.2766 5.24988 10.0002C5.24988 9.72387 5.02625 9.50024 4.74988 9.50024H4.49988V8.50024H4.74988C5.02625 8.50024 5.24988 8.27661 5.24988 8.00024C5.24988 7.72387 5.02625 7.50024 4.74988 7.50024H4.49988V6.50024H4.74988C5.02625 6.50024 5.24988 6.27661 5.24988 6.00024C5.24988 5.72387 5.02625 5.50024 4.74988 5.50024H4.49988V4.50024H4.74988C5.02625 4.50024 5.24988 4.27661 5.24988 4.00024C5.24988 3.72387 5.02625 3.50024 4.74988 3.50024H4.49988V2.75C4.49988 2.06079 5.06061 1.5 5.74988 1.5H12.9999C13.6891 1.5 14.2499 2.06079 14.2499 2.75V12C14.2499 12.2761 14.4738 12.5 14.7499 12.5C15.026 12.5 15.2499 12.2761 15.2499 12V2.75C15.2499 1.50745 14.2425 0.5 12.9999 0.5H5.74988C4.5072 0.5 3.49988 1.50745 3.49988 2.75V3.50024H2.99988C2.72351 3.50024 2.49988 3.72387 2.49988 4.00024C2.49988 4.27661 2.72351 4.50024 2.99988 4.50024H3.49988V5.50024H2.99988C2.72351 5.50024 2.49988 5.72387 2.49988 6.00024C2.49988 6.27661 2.72351 6.50024 2.99988 6.50024H3.49988V7.50024H2.99988C2.72351 7.50024 2.49988 7.72387 2.49988 8.00024C2.49988 8.27661 2.72351 8.50024 2.99988 8.50024H3.49988V9.50024H2.99988C2.72351 9.50024 2.49988 9.72387 2.49988 10.0002C2.49988 10.2766 2.72351 10.5002 2.99988 10.5002H3.49988V11.5002H2.99988C2.72351 11.5002 2.49988 11.7239 2.49988 12.0002C2.49988 12.2766 2.72351 12.5002 2.99988 12.5002H3.49988V13.25C3.49988 14.4927 4.5072 15.5 5.74988 15.5H6.49988C6.776 15.5 6.99988 15.2761 6.99988 15C6.99988 14.7239 6.776 14.5 6.49988 14.5Z" fill="#131619" transform="translate(-2 0)"/>
</svg>


