<svg width="16" height="16" viewBox="0 0 16 16" fill="none" xmlns="http://www.w3.org/2000/svg">
<path d="M10.5449 12.5H15.2499V2.75C15.2499 1.50745 14.2425 0.5 12.9999 0.5H5.74988C4.59278 0.5 3.65088 1.37683 3.52509 2.50024H4.24988C4.52625 2.50024 4.74988 2.72387 4.74988 3.00024C4.74988 3.27661 4.52625 3.50024 4.24988 3.50024H2.99988C2.72351 3.50024 2.49988 3.72387 2.49988 4.00024C2.49988 4.27661 2.72351 4.50024 2.99988 4.50024H4.24988C4.52625 4.50024 4.74988 4.72387 4.74988 5.00024C4.74988 5.27661 4.52625 5.50024 4.24988 5.50024H2.99988C2.72351 5.50024 2.49988 5.72387 2.49988 6.00024C2.49988 6.27661 2.72351 6.50024 2.99988 6.50024H4.24988C4.52625 6.50024 4.74988 6.72387 4.74988 7.00024C4.74988 7.27661 4.52625 7.50024 4.24988 7.50024H2.99988C2.72351 7.50024 2.49988 7.72387 2.49988 8.00024C2.49988 8.27661 2.72351 8.50024 2.99988 8.50024H4.24988C4.52625 8.50024 4.74988 8.72387 4.74988 9.00024C4.74988 9.27661 4.52625 9.50024 4.24988 9.50024H2.99988C2.72351 9.50024 2.49988 9.72387 2.49988 10.0002C2.49988 10.2766 2.72351 10.5002 2.99988 10.5002H4.24988C4.52625 10.5002 4.74988 10.7239 4.74988 11.0002C4.74988 11.2766 4.52625 11.5002 4.24988 11.5002H2.99988C2.72351 11.5002 2.49988 11.7239 2.49988 12.0002C2.49988 12.2766 2.72351 12.5002 2.99988 12.5002H4.24988C4.52625 12.5002 4.74988 12.7239 4.74988 13.0002C4.74988 13.2766 4.52625 13.5002 4.24988 13.5002H3.52509C3.65107 14.6235 4.5929 15.5 5.74988 15.5H7.07422C7.02698 15.3402 6.99988 15.1728 6.99988 14.9999C6.99988 14.3328 7.37061 13.733 7.96735 13.4347L9.20307 12.8169C9.61744 12.6096 10.0814 12.5 10.5449 12.5ZM7.74988 3.50024H12.4999C12.7762 3.50024 12.9999 3.72387 12.9999 4.00024C12.9999 4.27661 12.7762 4.50024 12.4999 4.50024H7.74988C7.47351 4.50024 7.24988 4.27661 7.24988 4.00024C7.24988 3.72387 7.47351 3.50024 7.74988 3.50024ZM7.74988 6.00024H12.4999C12.7762 6.00024 12.9999 6.22387 12.9999 6.50024C12.9999 6.77661 12.7762 7.00024 12.4999 7.00024H7.74988C7.47351 7.00024 7.24988 6.77661 7.24988 6.50024C7.24988 6.22387 7.47351 6.00024 7.74988 6.00024ZM7.74988 9.50024C7.47351 9.50024 7.24988 9.27661 7.24988 9.00024C7.24988 8.72387 7.47351 8.50024 7.74988 8.50024H9.99988C10.2762 8.50024 10.4999 8.72387 10.4999 9.00024C10.4999 9.27661 10.2762 9.50024 9.99988 9.50024H7.74988ZM15.9999 13.5H10.5449C10.2344 13.5 9.92816 13.5723 9.65051 13.7112L8.41449 14.3291C7.86169 14.6055 7.86169 15.3944 8.41443 15.6708L9.65045 16.2888C9.92816 16.4277 10.2344 16.5 10.5449 16.5H15.9999C16.5522 16.5 16.9999 16.0524 16.9999 15.5V14.5C16.9999 13.9477 16.5522 13.5 15.9999 13.5Z" fill="#131619" transform="translate(-2 0)"/>
</svg>
