<svg width="20" height="20" viewBox="0 0 20 20" fill="none" xmlns="http://www.w3.org/2000/svg">
<path d="M9.96582 18.6816C11.1564 18.6816 12.2758 18.4538 13.324 17.998C14.3778 17.5423 15.3064 16.9128 16.1096 16.1096C16.9128 15.3064 17.5423 14.3807 17.998 13.3325C18.4538 12.2786 18.6816 11.1564 18.6816 9.96582C18.6816 8.77523 18.4538 7.65584 17.998 6.60767C17.5423 5.55379 16.9128 4.62524 16.1096 3.82202C15.3064 3.0188 14.3778 2.38932 13.324 1.93359C12.2701 1.47786 11.1479 1.25 9.95728 1.25C8.76668 1.25 7.64445 1.47786 6.59058 1.93359C5.5424 2.38932 4.6167 3.0188 3.81348 3.82202C3.01595 4.62524 2.38932 5.55379 1.93359 6.60767C1.47786 7.65584 1.25 8.77523 1.25 9.96582C1.25 11.1564 1.47786 12.2786 1.93359 13.3325C2.38932 14.3807 3.0188 15.3064 3.82202 16.1096C4.62524 16.9128 5.55094 17.5423 6.59912 17.998C7.65299 18.4538 8.77523 18.6816 9.96582 18.6816ZM8.42773 14.9048C8.24544 14.9048 8.09163 14.8478 7.96631 14.7339C7.84098 14.6143 7.77832 14.4633 7.77832 14.281C7.77832 14.1101 7.84098 13.9648 7.96631 13.8452C8.09163 13.7199 8.24544 13.6572 8.42773 13.6572H9.51294V9.63257H8.573C8.3964 9.63257 8.24544 9.5756 8.12012 9.46167C7.99479 9.34204 7.93213 9.19108 7.93213 9.00879C7.93213 8.83789 7.99479 8.69263 8.12012 8.573C8.24544 8.44767 8.3964 8.38501 8.573 8.38501H10.2307C10.4586 8.38501 10.6295 8.45907 10.7434 8.60718C10.863 8.75529 10.9229 8.94897 10.9229 9.18823V13.6572H12.0081C12.1903 13.6572 12.3442 13.7199 12.4695 13.8452C12.5948 13.9648 12.6575 14.1101 12.6575 14.281C12.6575 14.4633 12.5948 14.6143 12.4695 14.7339C12.3442 14.8478 12.1903 14.9048 12.0081 14.9048H8.42773ZM9.88892 6.92383C9.56991 6.92383 9.29647 6.81274 9.0686 6.59058C8.84644 6.36271 8.73535 6.08927 8.73535 5.77026C8.73535 5.44556 8.84644 5.17212 9.0686 4.94995C9.29647 4.72209 9.56991 4.60815 9.88892 4.60815C10.2136 4.60815 10.4842 4.72209 10.7007 4.94995C10.9229 5.17212 11.0339 5.44556 11.0339 5.77026C11.0339 6.08927 10.9229 6.36271 10.7007 6.59058C10.4842 6.81274 10.2136 6.92383 9.88892 6.92383Z" fill="#3B90F7"/>
</svg>
