<svg width="16" height="16" viewBox="0 0 16 16" fill="none" xmlns="http://www.w3.org/2000/svg">
<path d="M8 1C11.8599 1 15 4.14014 15 8C15 11.8599 11.8599 15 8 15C4.14014 15 1 11.8599 1 8C1 4.14014 4.14014 1 8 1ZM7.99991 3.57077C8.45248 3.57077 8.81937 3.79391 8.81937 4.31884C8.81937 4.84377 8.45248 5.06691 7.99991 5.06691C7.54722 5.06691 7.18033 4.84377 7.18033 4.31884C7.18033 3.79391 7.54722 3.57077 7.99991 3.57077ZM9.44292 11.9968H6.65588C6.50208 11.9968 6.37732 11.8721 6.37732 11.7184C6.37732 11.5781 6.48199 11.4605 6.62115 11.4421C7.03161 11.3883 7.33437 11.2015 7.33437 10.9793V7.10177C7.33437 6.88807 7.04395 6.70825 6.64971 6.65549C6.51225 6.6371 6.41036 6.51851 6.41036 6.38008C6.41036 6.2264 6.535 6.10079 6.6888 6.10079H8.20744C8.51504 6.10079 8.76432 6.35007 8.76432 6.65791V10.9793C8.76432 11.2015 9.06708 11.3883 9.47754 11.4421C9.6167 11.4605 9.72137 11.5781 9.72137 11.7184C9.72137 11.8721 9.59672 11.9968 9.44292 11.9968ZM8 0C3.58179 0 0 3.58167 0 8C0 12.4183 3.58179 16 8 16C12.4182 16 16 12.4182 16 8C16 3.58179 12.4182 0 8 0Z" fill="#323539"/>
<zoom style="dark" value="|:#98A0A9"/>
</svg>
