<svg width="16" height="16" viewBox="0 0 16 16" fill="none" xmlns="http://www.w3.org/2000/svg">
<g clip-path="url(#clip0_1744_1875)">
<path fill-rule="evenodd" clip-rule="evenodd" d="M15.8524 2.48985C16.05 2.55833 16.0489 2.84037 15.8501 2.90537C15.797 2.9228 15.7437 2.94087 15.6903 2.95967C15.5132 3.022 15.3342 3.09268 15.1609 3.1749C15.1144 3.19696 15.0683 3.21986 15.0226 3.24369C14.7702 3.37539 14.5323 3.53522 14.3286 3.73526C14.1181 3.94195 13.9514 4.18149 13.815 4.43928C13.7909 4.48472 13.7678 4.53073 13.7456 4.57722C13.6638 4.74834 13.5937 4.92606 13.5316 5.1064C13.5135 5.15922 13.4957 5.21302 13.4789 5.2662C13.4149 5.46699 13.1325 5.4728 13.0616 5.27432C13.0427 5.22137 13.0237 5.16842 13.0043 5.11559C12.9382 4.93581 12.8675 4.75682 12.7862 4.58435C12.7631 4.5353 12.7391 4.48673 12.714 4.43875C12.5865 4.19441 12.4324 3.96532 12.2316 3.76544C12.0222 3.5569 11.7801 3.38854 11.5227 3.24883C11.4832 3.22741 11.4434 3.20666 11.4033 3.18655C11.234 3.10163 11.0594 3.02797 10.8843 2.96244C10.8294 2.94192 10.7742 2.92208 10.7194 2.90305C10.523 2.83457 10.5195 2.55717 10.7159 2.48752C10.7719 2.46771 10.8283 2.44721 10.885 2.42592C11.0565 2.36149 11.2309 2.28946 11.3998 2.20722C11.4427 2.18637 11.4852 2.16486 11.5273 2.14261C11.7853 2.00638 12.0281 1.8429 12.2305 1.64023C12.4343 1.43608 12.6016 1.19649 12.741 0.941554C12.7619 0.903456 12.7821 0.865014 12.8017 0.826297C12.8863 0.659485 12.96 0.487557 13.0251 0.315879C13.0466 0.259159 13.0674 0.20174 13.0871 0.145269C13.1557 -0.0497252 13.4324 -0.0497252 13.5021 0.145269C13.5221 0.201238 13.5426 0.256711 13.5637 0.311634L13.5643 0.313073C13.6325 0.490217 13.7074 0.661644 13.7913 0.825598C13.8109 0.863994 13.8311 0.90198 13.8518 0.939533C13.9927 1.19558 14.1581 1.43153 14.3576 1.64023L14.3588 1.64139C14.5524 1.84372 14.7833 2.00577 15.0308 2.14006C15.075 2.16406 15.1197 2.18717 15.1649 2.20947C15.3379 2.2949 15.5169 2.36838 15.6952 2.4339C15.7475 2.4531 15.8005 2.47191 15.8524 2.48985ZM13.6449 2.34179C13.7666 2.4679 13.8962 2.58106 14.0303 2.68293C13.891 2.78388 13.7557 2.89624 13.6279 3.02174C13.4932 3.15402 13.3732 3.2939 13.2659 3.43825C13.1684 3.30678 13.0595 3.17862 12.9373 3.05684C12.805 2.92518 12.6655 2.80705 12.5217 2.70068C12.6668 2.59537 12.8071 2.47802 12.9381 2.34684C13.0705 2.21421 13.1896 2.07325 13.297 1.92759C13.3992 2.06698 13.5113 2.20214 13.6348 2.33132L13.6429 2.33971L13.6449 2.34179Z" fill="#323539"/>
<path fill-rule="evenodd" clip-rule="evenodd" d="M8.02604 1.56524C7.83541 1.03132 7.07871 1.03016 6.8904 1.56524C6.37896 3.02189 5.66759 4.53426 4.54474 5.65548C3.42189 6.7767 1.85153 7.46034 0.398574 7.97452C-0.138441 8.16487 -0.130304 8.92396 0.407873 9.11083C1.88989 9.62501 3.40562 10.333 4.54474 11.4705C5.692 12.6161 6.28365 14.1076 6.81601 15.6014C7.01013 16.1457 7.78426 16.1295 7.95862 15.5793C8.44798 14.0344 9.13726 12.5139 10.2845 11.3881C11.4318 10.2622 12.9777 9.6018 14.447 9.11779C14.9921 8.93789 14.9968 8.16603 14.4551 7.97917C12.9917 7.47427 11.462 6.80107 10.367 5.65664V5.65548C9.29302 4.53194 8.58049 3.11939 8.02604 1.56524ZM7.46097 2.87555C7.94033 4.01625 8.54537 5.10062 9.36705 6.04289V6.05797L9.64449 6.34795C10.6275 7.37543 11.8838 8.04857 13.0946 8.53928C11.8741 9.01509 10.6054 9.67214 9.5841 10.6744C8.54978 11.6894 7.86465 12.9558 7.37202 14.2286C6.89718 13.0287 6.2751 11.7852 5.25133 10.7629C4.22963 9.74265 2.96835 9.04911 1.72971 8.54059C2.94996 8.04506 4.24213 7.37084 5.25134 6.3631C6.26013 5.35577 6.95348 4.09971 7.46097 2.87555Z" fill="#323539"/>
</g>
<defs>
<clipPath id="clip0_1744_1875">
<rect width="16" height="16" fill="#323539"/>
</clipPath>
</defs>
<zoom style="dark" value="|:white|:white|:white"/>
</svg>
