<svg width="16" height="16" viewBox="0 0 16 16" fill="none" xmlns="http://www.w3.org/2000/svg">
<path d="M14.7999 3.8994C15.0274 3.7314 15.3203 3.7041 15.5762 3.8252C15.7793 3.9189 16 4.1475 16 4.499V11.501C16 11.8525 15.7793 12.0811 15.5761 12.1749C15.3203 12.296 15.0273 12.2687 14.7998 12.1007L12.2 10.1573C11.9793 9.9913 11.9344 9.6768 12.1004 9.4561C12.2654 9.2354 12.5809 9.1924 12.7996 9.3565L15 11.001V4.999L12.7997 6.6436C12.581 6.8077 12.2655 6.7647 12.1005 6.544C11.9345 6.3233 11.9794 6.0088 12.2001 5.8428L14.7999 3.8994Z" fill="#323539"/>
<path d="M3.5 8C4.32843 8 5 7.32843 5 6.5C5 5.67157 4.32843 5 3.5 5C2.67157 5 2 5.67157 2 6.5C2 7.32843 2.67157 8 3.5 8Z" fill="#323539"/>
<path d="M1.5 3H7.9998C9.6566 3 10.9997 4.3433 10.9997 6V11.5C10.9997 12.3286 10.3281 13 9.4997 13H2.9999C1.3431 13 0 11.6567 0 10V4.5C0 3.6719 0.6715 3 1.5 3ZM9.9997 6C9.9997 4.897 9.1026 4 7.9998 4H1.5C1.2243 4 1 4.2241 1 4.5V10C1 11.103 1.8971 12 2.9999 12H9.4997C9.7754 12 9.9997 11.7759 9.9997 11.5V6Z" fill="#323539"/>
<zoom style="dark" value="|:white|:white|:white"/>
</svg>
