<svg width="16" height="16" viewBox="0 0 16 16" fill="none" xmlns="http://www.w3.org/2000/svg">
<path d="M7.65345 7.20608H6.54753C6.50545 6.9216 6.38425 6.69856 6.18394 6.53697C5.98363 6.37369 5.73366 6.29205 5.43404 6.29205C5.03341 6.29205 4.71191 6.43934 4.46951 6.73391C4.2288 7.0268 4.10845 7.44258 4.10845 7.98123C4.10845 8.53335 4.22964 8.95333 4.47204 9.24117C4.71611 9.52733 5.03426 9.67041 5.42646 9.67041C5.71767 9.67041 5.96427 9.59466 6.16627 9.44317C6.36826 9.28999 6.49535 9.07537 6.54753 8.79931L7.65345 8.80436C7.61474 9.12082 7.50196 9.41876 7.31511 9.69818C7.12827 9.97761 6.87409 10.204 6.55258 10.3774C6.23276 10.5508 5.85149 10.6375 5.40879 10.6375C4.94757 10.6375 4.53516 10.5331 4.17157 10.3244C3.80966 10.1156 3.5235 9.81349 3.31309 9.41792C3.10436 9.02234 3 8.54345 3 7.98123C3 7.41733 3.10605 6.93759 3.31814 6.54202C3.53024 6.14644 3.81808 5.84514 4.18167 5.63809C4.54526 5.42936 4.9543 5.325 5.40879 5.325C5.80773 5.325 6.16711 5.39906 6.48693 5.54719C6.80844 5.69364 7.07103 5.90742 7.27471 6.18853C7.48007 6.46795 7.60632 6.80714 7.65345 7.20608Z" fill="#323539"/>
<path d="M13 7.20608H11.8941C11.852 6.9216 11.7308 6.69856 11.5305 6.53697C11.3302 6.37369 11.0802 6.29205 10.7806 6.29205C10.38 6.29205 10.0585 6.43934 9.81606 6.73391C9.57535 7.0268 9.45499 7.44258 9.45499 7.98123C9.45499 8.53335 9.57619 8.95333 9.81858 9.24117C10.0627 9.52733 10.3808 9.67041 10.773 9.67041C11.0642 9.67041 11.3108 9.59466 11.5128 9.44317C11.7148 9.28999 11.8419 9.07537 11.8941 8.79931L13 8.80436C12.9613 9.12082 12.8485 9.41876 12.6617 9.69818C12.4748 9.97761 12.2206 10.204 11.8991 10.3774C11.5793 10.5508 11.198 10.6375 10.7553 10.6375C10.2941 10.6375 9.88171 10.5331 9.51812 10.3244C9.15621 10.1156 8.87005 9.81349 8.65964 9.41792C8.45091 9.02234 8.34655 8.54345 8.34655 7.98123C8.34655 7.41733 8.45259 6.93759 8.66469 6.54202C8.87678 6.14644 9.16463 5.84514 9.52822 5.63809C9.89181 5.42936 10.3008 5.325 10.7553 5.325C11.1543 5.325 11.5137 5.39906 11.8335 5.54719C12.155 5.69364 12.4176 5.90742 12.6213 6.18853C12.8266 6.46795 12.9529 6.80714 13 7.20608Z" fill="#323539"/>
<path fill-rule="evenodd" clip-rule="evenodd" d="M11.2 3H4.8C3.94342 3 3.36113 3.00078 2.91104 3.03755C2.47262 3.07337 2.24842 3.1383 2.09202 3.21799C1.71569 3.40973 1.40973 3.71569 1.21799 4.09202C1.1383 4.24842 1.07337 4.47262 1.03755 4.91104C1.00078 5.36113 1 5.94342 1 6.8V9.2C1 10.0566 1.00078 10.6389 1.03755 11.089C1.07337 11.5274 1.1383 11.7516 1.21799 11.908C1.40973 12.2843 1.71569 12.5903 2.09202 12.782C2.24842 12.8617 2.47262 12.9266 2.91104 12.9624C3.36113 12.9992 3.94342 13 4.8 13H11.2C12.0566 13 12.6389 12.9992 13.089 12.9624C13.5274 12.9266 13.7516 12.8617 13.908 12.782C14.2843 12.5903 14.5903 12.2843 14.782 11.908C14.8617 11.7516 14.9266 11.5274 14.9624 11.089C14.9992 10.6389 15 10.0566 15 9.2V6.8C15 5.94342 14.9992 5.36113 14.9624 4.91104C14.9266 4.47262 14.8617 4.24842 14.782 4.09202C14.5903 3.71569 14.2843 3.40973 13.908 3.21799C13.7516 3.1383 13.5274 3.07337 13.089 3.03755C12.6389 3.00078 12.0566 3 11.2 3ZM0.32698 3.63803C0 4.27976 0 5.11984 0 6.8V9.2C0 10.8802 0 11.7202 0.32698 12.362C0.614601 12.9265 1.07354 13.3854 1.63803 13.673C2.27976 14 3.11984 14 4.8 14H11.2C12.8802 14 13.7202 14 14.362 13.673C14.9265 13.3854 15.3854 12.9265 15.673 12.362C16 11.7202 16 10.8802 16 9.2V6.8C16 5.11984 16 4.27976 15.673 3.63803C15.3854 3.07354 14.9265 2.6146 14.362 2.32698C13.7202 2 12.8802 2 11.2 2H4.8C3.11984 2 2.27976 2 1.63803 2.32698C1.07354 2.6146 0.614601 3.07354 0.32698 3.63803Z" fill="#323539"/>
<zoom style="dark" value="|:white|:white|:white"/>
</svg>
