<svg width="16" height="16" viewBox="0 0 16 16" fill="none" xmlns="http://www.w3.org/2000/svg">
<path fill-rule="evenodd" clip-rule="evenodd" d="M4.41349 2.81901C4.26003 3.12019 4.25062 3.50875 4.25004 4.25004C3.50875 4.25062 3.12019 4.26003 2.81901 4.41349C2.53677 4.5573 2.3073 4.78677 2.16349 5.06901C2 5.38988 2 5.80992 2 6.65V11.6C2 12.4401 2 12.8601 2.16349 13.181C2.3073 13.4632 2.53677 13.6927 2.81901 13.8365C3.13988 14 3.55992 14 4.4 14H9.35C10.1901 14 10.6101 14 10.931 13.8365C11.2132 13.6927 11.4427 13.4632 11.5865 13.181C11.74 12.8798 11.7494 12.4912 11.75 11.75C12.4912 11.7494 12.8798 11.74 13.181 11.5865C13.4632 11.4427 13.6927 11.2132 13.8365 10.931C14 10.6101 14 10.1901 14 9.35V4.4C14 3.55992 14 3.13988 13.8365 2.81901C13.6927 2.53677 13.4632 2.3073 13.181 2.16349C12.8601 2 12.4401 2 11.6 2H6.65C5.80992 2 5.38988 2 5.06901 2.16349C4.78677 2.3073 4.5573 2.53677 4.41349 2.81901ZM11.6 2.75H6.65C6.21758 2.75 5.93838 2.75058 5.72588 2.76795C5.52213 2.78459 5.44659 2.81285 5.40951 2.83175C5.26839 2.90365 5.15365 3.01839 5.08175 3.15951C5.06285 3.19659 5.03459 3.27213 5.01795 3.47588C5.00268 3.66274 5.00039 3.90117 5.00005 4.25H9.35C10.1901 4.25 10.6101 4.25 10.931 4.41349C11.2132 4.5573 11.4427 4.78677 11.5865 5.06901C11.75 5.38988 11.75 5.80992 11.75 6.65V10.9999C12.0988 10.9996 12.3373 10.9973 12.5241 10.9821C12.7279 10.9654 12.8034 10.9372 12.8405 10.9183C12.9816 10.8463 13.0963 10.7316 13.1683 10.5905C13.1872 10.5534 13.2154 10.4779 13.2321 10.2741C13.2494 10.0616 13.25 9.78242 13.25 9.35V4.4C13.25 3.96759 13.2494 3.68838 13.2321 3.47588C13.2154 3.27213 13.1872 3.19659 13.1683 3.15951C13.0963 3.01839 12.9816 2.90365 12.8405 2.83175C12.8034 2.81285 12.7279 2.78459 12.5241 2.76795C12.3116 2.75058 12.0324 2.75 11.6 2.75ZM10.9821 12.5241C10.9973 12.3373 10.9996 12.0988 10.9999 11.75C11 11.7021 11 11.6522 11 11.6V6.65C11 6.21758 10.9994 5.93838 10.9821 5.72588C10.9654 5.52213 10.9372 5.44659 10.9183 5.40951C10.8463 5.26839 10.7316 5.15365 10.5905 5.08175C10.5812 5.07702 10.5695 5.07171 10.5541 5.06615C10.5076 5.04945 10.4269 5.03043 10.2741 5.01795C10.0616 5.00058 9.78242 5 9.35 5H4.4C4.34782 5 4.29787 5.00001 4.25 5.00005C3.90117 5.00039 3.66274 5.00268 3.47588 5.01795C3.27213 5.03459 3.19659 5.06285 3.15951 5.08175C3.01839 5.15365 2.90365 5.26839 2.83175 5.40951C2.81285 5.44659 2.78459 5.52213 2.76795 5.72588C2.75058 5.93838 2.75 6.21758 2.75 6.65V11.6C2.75 12.0324 2.75058 12.3116 2.76795 12.5241C2.78459 12.7279 2.81285 12.8034 2.83174 12.8405C2.90365 12.9816 3.01839 13.0963 3.15951 13.1683C3.19659 13.1872 3.27213 13.2154 3.47588 13.2321C3.68838 13.2494 3.96758 13.25 4.4 13.25H9.35C9.78242 13.25 10.0616 13.2494 10.2741 13.2321C10.4779 13.2154 10.5534 13.1872 10.5905 13.1683C10.7316 13.0964 10.8463 12.9816 10.9183 12.8405C10.923 12.8312 10.9283 12.8195 10.9339 12.8041C10.9506 12.7576 10.9696 12.6769 10.9821 12.5241Z" fill="#323539"/>
<zoom style="dark" value="|:white"/>
</svg>
