<svg width="159" height="146" viewBox="0 0 159 146" fill="none" xmlns="http://www.w3.org/2000/svg">
<rect x="115.789" y="49.3389" width="8.368" height="3.68192" transform="rotate(26.6159 115.789 49.3389)" fill="#FFBF39"/>
<rect x="128.493" y="6.6958" width="8.368" height="3.68192" transform="rotate(-43.8713 128.493 6.6958)" fill="#F46670"/>
<rect x="54.9355" y="23.3232" width="8.368" height="3.68192" transform="rotate(77.3096 54.9355 23.3232)" fill="#A477FF"/>
<path d="M59.9857 73.6843C53.8084 70.1178 53.8084 64.3354 59.9857 60.7689L83.8358 46.9991C90.0131 43.4326 100.029 43.4326 106.206 46.9991L130.056 60.7689C136.233 64.3354 136.233 70.1178 130.056 73.6843L106.206 87.4541C100.029 91.0206 90.0131 91.0206 83.8358 87.4541L59.9857 73.6843Z" fill="#F0F2FF"/>
<path d="M42.4059 84.7385C39.3173 82.9553 39.3173 80.0641 42.4059 78.2808L45.0835 76.7349C48.1722 74.9516 53.1799 74.9516 56.2686 76.7349L91.3037 96.9624C94.3924 98.7457 94.3924 101.637 91.3037 103.42L88.6261 104.966C85.5374 106.749 80.5297 106.749 77.441 104.966L42.4059 84.7385Z" fill="#F0F2FF"/>
<path d="M29.6701 97.6888C26.5815 95.9055 26.5815 93.0143 29.6701 91.2311L32.3477 89.6852C35.4364 87.9019 40.4441 87.9019 43.5328 89.6852L78.5679 109.913C81.6566 111.696 81.6566 114.587 78.5679 116.37L75.8903 117.916C72.8016 119.7 67.7939 119.7 64.7052 117.916L29.6701 97.6888Z" fill="#F0F2FF"/>
<path d="M102.201 70.068C96.9198 73.1168 89.6737 72.7994 84.393 69.7505C79.1122 66.7017 81.7995 64.083 84.8575 58.4543C90.1382 55.4054 96.9198 55.0959 102.201 58.1447C106.189 65.167 107.481 67.0192 102.201 70.068Z" fill="#648CFE"/>
<circle cx="7.15238" cy="7.15238" r="7.15238" transform="matrix(0.866025 0.5 -0.866025 0.5 93.5296 51.6411)" fill="#A8CCF8"/>
<path fill-rule="evenodd" clip-rule="evenodd" d="M65.0358 4.30962C65.5423 1.43352 68.4529 0.483557 70.6236 1.28755L77.8615 3.96826L76.4073 7.89472L69.1694 5.21401C69.1557 5.20894 69.1429 5.20485 69.1311 5.20156C68.6637 8.01174 68.5315 12.8731 69.7454 17.9688C70.9797 23.1501 73.5599 28.3976 78.398 32.0601L75.8708 35.3985C70.0292 30.9764 67.0546 24.7417 65.6722 18.9391C64.2937 13.1523 64.4528 7.61993 65.0358 4.30962Z" fill="#A8CCF8"/>
<path d="M89.5795 47.2212H97.4885V57.4551C97.4885 58.3294 97.0673 59.1676 96.3054 59.5964C94.2709 60.7415 92.7703 60.7702 90.7304 59.5966C89.9854 59.168 89.5795 58.3413 89.5795 57.4818V47.2212Z" fill="#E7F1FD"/>
<path d="M93.185 48.85C105.197 48.85 114.935 31.77 114.935 10.7007H71.4352C71.4352 31.77 81.1729 48.85 93.185 48.85Z" fill="#E7F1FD"/>
<ellipse cx="93.185" cy="11.5841" rx="21.7498" ry="10.5841" fill="#648CFE"/>
<ellipse cx="93.185" cy="10.3513" rx="18.4036" ry="8.95578" fill="#E7F1FD"/>
<path fill-rule="evenodd" clip-rule="evenodd" d="M107.812 20.042C108.099 18.6068 109.495 17.6761 110.93 17.9631C110.927 17.9625 110.93 17.963 110.944 17.965C110.972 17.9693 111.047 17.9805 111.206 18.0029C111.221 18.0049 111.237 18.0071 111.252 18.0093C111.441 18.0357 111.688 18.0704 111.971 18.1139C112.587 18.2084 113.394 18.3471 114.292 18.5562C116.045 18.9638 118.34 19.6808 120.295 21.0061C122.306 22.3691 124.132 24.515 124.362 27.6703C124.581 30.6859 123.289 34.0446 120.518 37.8107C118.162 41.0119 115.361 43.8357 112.204 45.5136C108.965 47.2346 105.288 47.7647 101.562 46.1681C100.217 45.5915 99.5937 44.0336 100.17 42.6883C100.747 41.3431 102.305 40.7199 103.65 41.2965C105.624 42.1423 107.606 41.9547 109.717 40.8332C111.909 39.6685 114.147 37.525 116.249 34.6692C118.681 31.3648 119.163 29.2623 119.076 28.0549C118.998 26.9873 118.435 26.1482 117.321 25.3933C116.152 24.6006 114.587 24.0664 113.092 23.7185C112.366 23.5498 111.701 23.4346 111.168 23.3527C111.026 23.331 110.852 23.3061 110.676 23.281C110.362 23.2362 110.042 23.1906 109.891 23.1603C108.455 22.8733 107.525 21.4772 107.812 20.042Z" fill="#A8CCF8"/>
<path d="M84.372 24.8105C84.5167 24.1137 85.5643 24.5619 85.9007 25.4646L87.2707 29.1397C87.4212 29.5434 87.7588 29.9175 88.107 30.0665L91.2771 31.4228C92.0557 31.756 92.5084 32.9704 91.9377 33.1951L89.6143 34.1102C89.3591 34.2107 89.2882 34.552 89.4387 34.9557L90.8086 38.6308C91.1451 39.5334 90.3773 39.8358 89.6882 39.0721L86.8823 35.9624C86.5741 35.6209 86.1926 35.4577 85.9374 35.5582L83.614 36.4732C83.0434 36.6979 82.1162 35.6704 82.2609 34.9736L82.8502 32.1367C82.9149 31.8252 82.75 31.383 82.4419 31.0414L79.6359 27.9318C78.9468 27.1681 79.1415 26.2306 79.9201 26.5637L83.0902 27.9201C83.4384 28.069 83.718 27.9589 83.7827 27.6474L84.372 24.8105Z" fill="#FFBF39"/>
<rect x="69.7878" y="63.4038" width="8.368" height="3.68192" transform="rotate(114.14 69.7878 63.4038)" fill="#14BCA0"/>
<path d="M16.7199 111.423C13.6312 109.64 13.6312 106.749 16.7199 104.965L19.3975 103.419C22.4862 101.636 27.4939 101.636 30.5826 103.419L65.6177 123.647C68.7064 125.43 68.7064 128.321 65.6177 130.105L62.9401 131.651C59.8514 133.434 54.8437 133.434 51.755 131.651L16.7199 111.423Z" fill="#FFBF39"/>
<path d="M2.59254 124.374C-0.496137 122.591 -0.496136 119.699 2.59254 117.916L5.27013 116.37C8.3588 114.587 13.3665 114.587 16.4552 116.37L51.4903 136.598C54.579 138.381 54.579 141.272 51.4903 143.055L48.8127 144.601C45.724 146.385 40.7163 146.385 37.6276 144.601L2.59254 124.374Z" fill="#FFBF39"/>
<defs>
</defs>
</svg>
