<svg width="16" height="16" viewBox="0 0 16 16" fill="none" xmlns="http://www.w3.org/2000/svg">
<g clip-path="url(#clip0_2196_10555)">
<path d="M15.9798 1.448C15.9442 0.67103 15.3275 0.05518 14.5505 0.01978C14.2897 0.00788 14.0004 0 13.6932 0C11.9989 0 9.75283 0.2395 8.62442 1.36773L8.06388 1.92827H4.82135C3.72077 1.92827 2.68562 2.35698 1.90731 3.1353C1.51766 3.52544 1.51766 4.15971 1.90731 4.54985L3.71296 6.35545C2.90071 7.52482 3.00996 9.14023 4.05231 10.1825L5.82 11.9503C6.40581 12.536 7.17363 12.8289 7.94132 12.8289C8.53983 12.8289 9.13516 12.6453 9.64736 12.2895L11.4531 14.0957C11.6484 14.2905 11.9043 14.3882 12.1602 14.3882C12.416 14.3882 12.6719 14.2905 12.8672 14.0957C13.6455 13.3169 14.0742 12.2817 14.0742 11.1817V7.93869L14.6348 7.37815C15.9693 6.04356 16.0576 3.14764 15.9798 1.448ZM13.0742 11.1817C13.0742 12.0152 12.75 12.7988 12.1602 13.3887L10.3923 11.6205L11.1234 10.8895L5.11308 4.87914L4.38188 5.61034L2.61432 3.84234C3.20416 3.25299 3.98736 2.92828 4.82133 2.92828H7.06399L5.8201 4.17211L11.8304 10.1825L13.0742 8.93869L13.0742 11.1817ZM13.2206 5.96392C12.7812 6.40325 12.2054 6.62291 11.6296 6.62291C11.0538 6.62291 10.478 6.40325 10.0387 5.96392C9.15993 5.08526 9.15993 3.66065 10.0387 2.78199C10.478 2.34266 11.0538 2.123 11.6296 2.123C12.2054 2.123 12.7812 2.34266 13.2206 2.78199C14.0992 3.66065 14.0992 5.08526 13.2206 5.96392ZM2.89363 11.0342C2.69148 10.8325 2.41317 10.729 2.12508 10.7456C1.83211 10.7647 1.56063 10.9102 1.37997 11.1446C-0.0174788 12.961 -0.000878862 15.4038 0.000101138 15.5068C0.00401114 15.7774 0.222751 15.9966 0.493261 16H0.519631C0.805761 16 3.11727 15.9575 4.85456 14.6206C5.08991 14.4395 5.23542 14.168 5.25397 13.8745C5.27252 13.5889 5.16706 13.3086 4.96491 13.1069L2.89363 11.0342ZM11.6297 3.12298C11.2958 3.12298 10.982 3.25298 10.7459 3.48907C10.5097 3.72521 10.3797 4.03912 10.3797 4.37298C10.3797 4.70678 10.5097 5.02068 10.7458 5.25677C10.982 5.49291 11.2958 5.62292 11.6297 5.62292C11.9635 5.62292 12.2774 5.49292 12.5134 5.25683C13.0009 4.76947 13.0009 3.97644 12.5134 3.48908C12.2774 3.253 11.9635 3.12298 11.6297 3.12298Z" fill="#0B5CFF"/>
</g>
<defs>
<clipPath id="clip0_2196_10555">
<rect width="16" height="16" fill="white"/>
</clipPath>
</defs>
</svg>
