<svg width="14" height="14" viewBox="0 0 14 14" fill="none" xmlns="http://www.w3.org/2000/svg">
<path fill-rule="evenodd" clip-rule="evenodd" d="M7 14C3.13401 14 0 10.866 0 7C0 3.13401 3.13401 0 7 0C10.866 0 14 3.13401 14 7C14 10.866 10.866 14 7 14ZM1.12864 8.75C0.963618 8.19551 0.875 7.6081 0.875 7C0.875 6.3919 0.963618 5.8045 1.12864 5.25H4.03883C3.97272 5.81558 3.9375 6.4058 3.9375 7.00947C3.9375 7.60686 3.97199 8.19061 4.03678 8.75H1.12864ZM1.46443 9.625C2.22037 11.2163 3.64227 12.4299 5.36996 12.9057C4.83374 12.1221 4.40963 10.9703 4.16609 9.625H1.46443ZM5.05635 9.625C5.19932 10.36 5.39871 11.0195 5.63714 11.5688C5.8864 12.1431 6.16095 12.5568 6.42213 12.8142C6.68027 13.0686 6.87463 13.125 7 13.125C7.12537 13.125 7.31973 13.0686 7.57787 12.8142C7.83904 12.5568 8.1136 12.1431 8.36287 11.5688C8.60129 11.0195 8.80068 10.36 8.94365 9.625H5.05635ZM9.83391 9.625C9.59037 10.9703 9.16626 12.1221 8.63004 12.9057C10.3577 12.4299 11.7796 11.2163 12.5356 9.625H9.83391ZM12.8714 8.75H9.96322C10.028 8.19061 10.0625 7.60686 10.0625 7.00947C10.0625 6.4058 10.0273 5.81558 9.96117 5.25H12.8714C13.0364 5.8045 13.125 6.3919 13.125 7C13.125 7.6081 13.0364 8.19551 12.8714 8.75ZM9.082 8.75H4.91799C4.84968 8.19653 4.8125 7.61234 4.8125 7.00947C4.8125 6.40031 4.85046 5.80961 4.92016 5.25H9.07984C9.14954 5.80961 9.1875 6.40031 9.1875 7.00947C9.1875 7.61234 9.15032 8.19653 9.082 8.75ZM4.16901 4.375H1.46443C2.22104 2.7823 3.64478 1.56793 5.37454 1.09302C4.83829 1.87711 4.41371 3.02994 4.16901 4.375ZM5.63761 2.43957C5.40062 2.98758 5.20223 3.64423 5.05942 4.375H8.94058C8.79777 3.64423 8.59938 2.98758 8.36239 2.43957C8.11287 1.86258 7.83797 1.44637 7.57634 1.18725C7.31755 0.930952 7.12362 0.875 7 0.875C6.87638 0.875 6.68245 0.930952 6.42366 1.18725C6.16203 1.44637 5.88713 1.86258 5.63761 2.43957ZM9.83099 4.375H12.5356C11.779 2.7823 10.3552 1.56793 8.62546 1.09302C9.16171 1.87711 9.58629 3.02994 9.83099 4.375Z" fill="#000001"/>
<zoom style="dark" value="|:#F5F5F5"/>
</svg>
