<svg width="10" height="10" viewBox="0 0 10 10" fill="none" xmlns="http://www.w3.org/2000/svg">
<path d="M10 5C10 2.23858 7.76142 0 5 0C2.23858 0 0 2.23858 0 5C0 7.76142 2.23858 10 5 10C7.76142 10 10 7.76142 10 5Z" fill="#E8173D"/>
<path fill-rule="evenodd" clip-rule="evenodd" d="M6.43947 6.90382C6.56769 7.03204 6.77559 7.03204 6.90382 6.90382C7.03204 6.77559 7.03204 6.56769 6.90382 6.43947L5.46443 5.00008L6.90394 3.56058C7.03216 3.43236 7.03216 3.22446 6.90394 3.09623C6.77571 2.96801 6.56781 2.96801 6.43959 3.09623L5.00008 4.53574L3.56052 3.09617C3.43229 2.96794 3.2244 2.96794 3.09617 3.09617C2.96794 3.2244 2.96794 3.43229 3.09617 3.56052L4.53574 5.00008L3.09629 6.43953C2.96806 6.56776 2.96806 6.77565 3.09629 6.90388C3.22452 7.03211 3.43241 7.03211 3.56064 6.90388L5.00008 5.46443L6.43947 6.90382Z" fill="white"/>
<path d="M6.90381 6.90382L7.07615 7.07616L6.90381 6.90382ZM5.46442 5.00008L5.29207 4.82774C5.19689 4.92292 5.19689 5.07725 5.29207 5.17243L5.46442 5.00008ZM6.90393 3.56058L6.73158 3.38823L6.90393 3.56058ZM6.90393 3.09623L7.07627 2.92389V2.92388L6.90393 3.09623ZM6.43958 3.09623L6.61193 3.26858L6.43958 3.09623ZM5.00007 4.53574L4.82773 4.70809C4.92291 4.80327 5.07724 4.80327 5.17242 4.70809L5.00007 4.53574ZM3.56051 3.09617L3.73286 2.92382L3.56051 3.09617ZM3.09616 3.09617L2.92381 2.92382L3.09616 3.09617ZM3.09616 3.56052L3.26851 3.38817L3.09616 3.56052ZM4.53573 5.00008L4.70808 5.17243C4.75379 5.12672 4.77947 5.06473 4.77947 5.00008C4.77947 4.93544 4.75379 4.87345 4.70808 4.82774L4.53573 5.00008ZM3.09628 6.43953L3.26863 6.61188L3.09628 6.43953ZM3.09628 6.90388L2.92393 7.07623L3.09628 6.90388ZM3.56063 6.90388L3.38828 6.73153L3.56063 6.90388ZM5.00007 5.46443L5.17242 5.29208C5.07724 5.1969 4.92291 5.1969 4.82773 5.29208L5.00007 5.46443ZM6.73146 6.73147C6.69842 6.76451 6.64485 6.76451 6.61181 6.73147L6.26711 7.07616C6.49052 7.29958 6.85274 7.29958 7.07615 7.07616L6.73146 6.73147ZM6.73146 6.61182C6.7645 6.64486 6.7645 6.69843 6.73146 6.73147L7.07615 7.07616C7.29957 6.85275 7.29957 6.49053 7.07615 6.26712L6.73146 6.61182ZM5.29207 5.17243L6.73146 6.61182L7.07615 6.26712L5.63677 4.82774L5.29207 5.17243ZM6.73158 3.38823L5.29207 4.82774L5.63677 5.17243L7.07627 3.73293L6.73158 3.38823ZM6.73158 3.26858C6.76462 3.30162 6.76462 3.35519 6.73158 3.38823L7.07627 3.73293C7.29969 3.50952 7.29969 3.1473 7.07627 2.92389L6.73158 3.26858ZM6.61193 3.26858C6.64497 3.23554 6.69854 3.23554 6.73158 3.26858L7.07627 2.92388C6.85286 2.70047 6.49064 2.70047 6.26723 2.92389L6.61193 3.26858ZM5.17242 4.70809L6.61193 3.26858L6.26723 2.92389L4.82773 4.36339L5.17242 4.70809ZM3.38816 3.26852L4.82773 4.70809L5.17242 4.36339L3.73286 2.92382L3.38816 3.26852ZM3.26851 3.26852C3.30155 3.23548 3.35512 3.23548 3.38816 3.26852L3.73286 2.92382C3.50944 2.70041 3.14722 2.70041 2.92381 2.92382L3.26851 3.26852ZM3.26851 3.38817C3.23547 3.35513 3.23547 3.30156 3.26851 3.26852L2.92381 2.92382C2.7004 3.14723 2.7004 3.50945 2.92381 3.73287L3.26851 3.38817ZM4.70808 4.82774L3.26851 3.38817L2.92381 3.73287L4.36338 5.17243L4.70808 4.82774ZM3.26863 6.61188L4.70808 5.17243L4.36338 4.82774L2.92393 6.26718L3.26863 6.61188ZM3.26863 6.73153C3.23559 6.69849 3.23559 6.64492 3.26863 6.61188L2.92393 6.26718C2.70052 6.4906 2.70052 6.85282 2.92393 7.07623L3.26863 6.73153ZM3.38828 6.73153C3.35524 6.76457 3.30167 6.76457 3.26863 6.73153L2.92393 7.07623C3.14734 7.29964 3.50956 7.29964 3.73298 7.07623L3.38828 6.73153ZM4.82773 5.29208L3.38828 6.73153L3.73298 7.07623L5.17242 5.63678L4.82773 5.29208ZM6.61181 6.73147L5.17242 5.29208L4.82773 5.63678L6.26711 7.07616L6.61181 6.73147Z" fill="white"/>
</svg>
