<svg width="10" height="10" viewBox="0 0 10 10" fill="none" xmlns="http://www.w3.org/2000/svg">
<rect width="10" height="10" rx="5" fill="#6E7680"/>
<path d="M4.20459 6.00928H5.36914V5.77637C5.36914 5.3457 5.53174 5.13037 6.11621 4.79199C6.73584 4.42725 7.05664 3.96582 7.05664 3.30664V3.29785C7.05664 2.30029 6.22607 1.60156 4.96924 1.60156C3.62012 1.60156 2.85547 2.35742 2.8335 3.43408V3.44287L4.02002 3.43848H4.02881C4.05078 2.94189 4.38477 2.62109 4.89014 2.62109C5.39111 2.62109 5.7251 2.92432 5.7251 3.3374V3.34619C5.7251 3.75928 5.55371 3.97461 4.98682 4.31299C4.38037 4.66895 4.13867 5.06445 4.1958 5.75439L4.20459 6.00928ZM4.83301 8.12744C5.3252 8.12744 5.62842 7.84619 5.62842 7.39355C5.62842 6.93652 5.3252 6.65527 4.83301 6.65527C4.34082 6.65527 4.0332 6.93652 4.0332 7.39355C4.0332 7.84619 4.34082 8.12744 4.83301 8.12744Z" fill="white"/>
</svg>
