<svg width="16" height="17" viewBox="0 0 16 17" fill="none" xmlns="http://www.w3.org/2000/svg">
<path d="M6.97066 2.28031C7.80293 1.47527 8.94534 0.989258 10.3965 0.989258C13.4598 0.989258 15.8093 3.49977 15.8093 6.73925C15.8093 9.15618 14.8508 11.6406 13.624 13.5089C13.006 14.4501 12.2882 15.2841 11.5311 15.8973C10.803 16.4869 9.89266 16.9891 8.91219 16.9892L8.88128 16.9893C8.62761 16.9895 8.05017 16.99 7.46183 16.7664C6.77694 16.5061 6.12425 15.9632 5.80426 15.0106C5.71633 14.7489 5.85725 14.4654 6.11902 14.3774C6.38079 14.2895 6.66428 14.4304 6.75221 14.6922C6.96688 15.3313 7.38138 15.6661 7.81705 15.8316C8.22504 15.9867 8.64445 15.9894 8.89035 15.9892L8.91165 15.9892C9.55876 15.9892 10.2488 15.6489 10.9017 15.1201C11.5606 14.5865 12.2124 13.8367 12.7881 12.96C13.9377 11.2092 14.8093 8.91292 14.8093 6.73925C14.8093 3.99413 12.8513 1.98926 10.3965 1.98926C9.18533 1.98926 8.29816 2.38752 7.66592 2.99908C7.03985 3.60467 6.68102 4.40228 6.48521 5.1795C6.41775 5.44728 6.14599 5.60966 5.87821 5.5422C5.61044 5.47474 5.44805 5.20298 5.51551 4.9352C5.73946 4.04629 6.16745 3.05725 6.97066 2.28031Z" fill="#6E7680"/>
<path d="M10.3964 4.98925C9.31224 4.98925 8.62896 5.88893 8.62896 6.98362C8.62896 7.42 8.70851 7.72563 8.81903 7.97002C8.93337 8.22283 9.08916 8.43092 9.28484 8.68156L9.29957 8.70043L9.31243 8.72062C9.47948 8.98283 9.54234 9.08759 9.575 9.14209L9.59004 9.167C9.59147 9.16893 9.5968 9.176 9.61609 9.20102L9.62606 9.21395L9.64116 9.23643C9.75604 9.4074 9.95908 9.71292 9.95908 10.0958C9.95908 10.6821 9.62289 11.2501 9.04418 11.7894C8.84218 11.9777 8.52579 11.9666 8.33751 11.7646C8.14924 11.5626 8.16037 11.2462 8.36238 11.0579C8.84912 10.6043 8.95908 10.2827 8.95908 10.0958C8.95908 10.0519 8.9349 9.97899 8.81421 9.79874C8.79854 9.7784 8.78182 9.7565 8.76657 9.7344C8.74787 9.70731 8.73245 9.68155 8.72027 9.6612L8.71658 9.65504C8.68927 9.60948 8.63321 9.51594 8.48181 9.27797C8.2906 9.03279 8.07257 8.74624 7.90788 8.38209C7.73511 8.00007 7.62896 7.55289 7.62896 6.98362C7.62896 5.51341 8.5984 3.98925 10.3964 3.98925C11.2327 3.98925 11.9569 4.3503 12.4455 4.95592C12.9135 5.5361 13.1117 6.26775 13.1117 6.98362C13.1117 7.25977 12.8879 7.48362 12.6117 7.48362C12.3356 7.48362 12.1117 7.25977 12.1117 6.98362C12.1117 6.4434 11.9618 5.94898 11.6672 5.58378C11.368 5.21293 10.9296 4.98925 10.3964 4.98925Z" fill="#6E7680"/>
<path d="M0.242486 7.2576C0.479163 7.11534 0.786354 7.19187 0.928617 7.42855C1.27822 8.01017 1.4741 8.67116 1.49784 9.34934C1.52158 10.0275 1.37239 10.7006 1.06431 11.3052C0.938945 11.5513 0.637857 11.6491 0.391813 11.5237C0.145768 11.3984 0.0479388 11.0973 0.173305 10.8512C0.404362 10.3978 0.516253 9.89296 0.49845 9.38432C0.480646 8.87569 0.333733 8.37994 0.0715338 7.94373C-0.0707289 7.70705 0.00580893 7.39986 0.242486 7.2576Z" fill="#6E7680"/>
<path d="M3.50386 5.88979C3.36186 5.65295 3.05476 5.57607 2.81792 5.71806C2.58108 5.86006 2.5042 6.16716 2.6462 6.404C3.16902 7.27603 3.46167 8.26662 3.49666 9.28277C3.53166 10.2989 3.30785 11.3073 2.84626 12.2132C2.72089 12.4593 2.81872 12.7604 3.06476 12.8857C3.31081 13.0111 3.6119 12.9133 3.73726 12.6672C4.27579 11.6103 4.5369 10.4339 4.49607 9.24835C4.45524 8.06284 4.11382 6.90716 3.50386 5.88979Z" fill="#6E7680"/>
<zoom style="dark" value="|:#FFFFFF89|:#FFFFFF89|:#FFFFFF89|:#FFFFFF89"/>
</svg>
