<svg width="16" height="16" viewBox="0 0 16 16" fill="none" xmlns="http://www.w3.org/2000/svg">
<path fill-rule="evenodd" clip-rule="evenodd" d="M6.33333 7.08333H5.91667C5.68655 7.08333 5.5 7.26988 5.5 7.5V10.4167C5.5 10.6468 5.68655 10.8333 5.91667 10.8333H10.0833C10.3135 10.8333 10.5 10.6468 10.5 10.4167V7.5C10.5 7.26988 10.3135 7.08333 10.0833 7.08333H9.66667V6.66667C9.66667 5.74619 8.92047 5 8 5C7.07953 5 6.33333 5.74619 6.33333 6.66667V7.08333ZM9.04167 7.08333V6.66667C9.04167 6.09137 8.5753 5.625 8 5.625C7.4247 5.625 6.95833 6.09137 6.95833 6.66667V7.08333H9.04167Z" fill="#2D8CFF"/>
<path fill-rule="evenodd" clip-rule="evenodd" d="M8.38165 1.13962C8.18575 0.95346 7.81586 0.953459 7.61996 1.13962C6.72474 1.99032 4.39586 3.97635 2.19516 3.95467C1.9606 3.95236 1.7457 4.11071 1.72526 4.33309C1.10061 11.1277 5.10615 14.1885 7.95591 14.9838C7.98569 14.9921 8.01593 14.9921 8.04572 14.9838C10.8955 14.1885 14.901 11.1277 14.2764 4.3331C14.2559 4.11071 14.041 3.95236 13.8065 3.95467C11.6057 3.97635 9.27686 1.99032 8.38165 1.13962ZM5.92356 3.7245C5.01842 4.28496 3.88258 4.82129 2.68297 4.93345C2.51616 7.83741 3.28144 9.89333 4.33901 11.31C5.40381 12.7363 6.80809 13.5718 8.00081 13.9535C9.19353 13.5718 10.5978 12.7363 11.6626 11.31C12.7202 9.89333 13.4854 7.83741 13.3186 4.93345C12.119 4.8213 10.9832 4.28496 10.078 3.7245C9.22624 3.19706 8.49826 2.59739 8.0008 2.14937C7.50334 2.59739 6.77536 3.19706 5.92356 3.7245Z" fill="#2D8CFF"/>
</svg>
