<svg width="36" height="16" viewBox="0 0 36 16" fill="none" xmlns="http://www.w3.org/2000/svg">
<path d="M0 3C0 1.34315 1.34315 0 3 0H30C33.3137 0 36 2.68629 36 6V13C36 14.6569 34.6569 16 33 16H6C2.68629 16 0 13.3137 0 10V3Z" fill="#0E72ED"/>
<path d="M5.24414 12H6.28711V5.44336H6.38086L10.9688 12H11.9941V3.54492H10.9512V10.125H10.8574L6.26953 3.54492H5.24414V12ZM14.1504 12H19.3887V11.0508H15.2051V8.14453H19.1719V7.20703H15.2051V4.49414H19.3887V3.54492H14.1504V12ZM23.0508 12H24.0469L25.9922 5.32617H26.0625L28.0078 12H29.0039L31.3066 3.54492H30.2051L28.5234 10.418H28.4531L26.5605 3.54492H25.4941L23.6016 10.418H23.5312L21.8496 3.54492H20.748L23.0508 12Z" fill="white"/>
</svg>
