<svg width="12" height="12" viewBox="0 0 12 12" fill="none" xmlns="http://www.w3.org/2000/svg">
<path fill-rule="evenodd" clip-rule="evenodd" d="M8.74009 9.6239C8.98417 9.86797 9.3799 9.86797 9.62398 9.6239C9.86805 9.37982 9.86805 8.98409 9.62398 8.74001L6.8839 5.99994L9.6239 3.25995C9.86797 3.01587 9.86797 2.62014 9.6239 2.37607C9.37982 2.13199 8.98409 2.13199 8.74001 2.37607L6.00002 5.11606L3.26002 2.37605C3.01594 2.13198 2.62021 2.13198 2.37613 2.37605C2.13205 2.62013 2.13205 3.01586 2.37613 3.25994L5.11614 5.99994L2.37605 8.74003C2.13197 8.9841 2.13197 9.37983 2.37605 9.62391C2.62013 9.86799 3.01586 9.86799 3.25993 9.62391L6.00002 6.88382L8.74009 9.6239Z" fill="#6E7680"/>
</svg>
