<svg width="16" height="16" viewBox="0 0 16 16" fill="none" xmlns="http://www.w3.org/2000/svg">
<path fill-rule="evenodd" clip-rule="evenodd" d="M2.29412 3H13.7059C13.8683 3 14 3.13168 14 3.29412V4.70588C14 4.86832 13.8683 5 13.7059 5H13H3H2.29412C2.13168 5 2 4.86832 2 4.70588V3.29412C2 3.13168 2.13168 3 2.29412 3ZM2 5.96643C1.42698 5.83326 1 5.31943 1 4.70588V3.29412C1 2.5794 1.5794 2 2.29412 2H13.7059C14.4206 2 15 2.5794 15 3.29412V4.70588C15 5.31943 14.573 5.83326 14 5.96643V6V12.7059C14 13.4206 13.4206 14 12.7059 14H3.29412C2.5794 14 2 13.4206 2 12.7059V6V5.96643ZM3 6V12.7059C3 12.8683 3.13168 13 3.29412 13H12.7059C12.8683 13 13 12.8683 13 12.7059V6H3Z" fill="#040413" fill-opacity="0.56"/>
<line x1="5.5" y1="8.5" x2="10.5" y2="8.5" stroke="#040413" stroke-opacity="0.56" stroke-linecap="round" stroke-linejoin="round"/>
<zoom style="dark" value="|:#FFFFFF54|#FFFFFF54:"/>
</svg>
