<svg width="14" height="14" viewBox="0 0 14 14" fill="none" xmlns="http://www.w3.org/2000/svg">
<path fill-rule="evenodd" clip-rule="evenodd" d="M0 9.45C0 10.4301 0 10.9201 0.190739 11.2945C0.358517 11.6238 0.626233 11.8915 0.955517 12.0593C1.32986 12.25 1.81991 12.25 2.8 12.25H11.2C12.1801 12.25 12.6701 12.25 13.0445 12.0593C13.3738 11.8915 13.6415 11.6238 13.8093 11.2945C14 10.9201 14 10.4301 14 9.45V4.70261L14.0003 4.55002C14.0003 4.17379 14.0003 3.86978 13.9894 3.6168C13.9765 3.3122 13.9476 3.08172 13.8845 2.88813C13.8635 2.8236 13.8386 2.76319 13.8093 2.70552C13.6415 2.37623 13.3738 2.10852 13.0445 1.94074C12.6701 1.75 12.1801 1.75 11.2 1.75H2.8C1.81991 1.75 1.32986 1.75 0.955517 1.94074C0.626233 2.10852 0.358517 2.37623 0.190739 2.70552C0.0848491 2.91334 0.0377447 3.15681 0.0167905 3.5C0.0364242 3.17846 0.0790156 2.94445 0.171404 2.74528C0.000340879 3.1141 0.000341192 3.60241 0.000341818 4.54475L0 9.45ZM11.2 2.625H2.8C2.29552 2.625 1.96978 2.62568 1.72186 2.64594C1.48415 2.66536 1.39602 2.69833 1.35276 2.72037C1.18812 2.80426 1.05426 2.93812 0.970369 3.10276C0.948326 3.14602 0.915358 3.23415 0.895936 3.47186C0.879757 3.66988 0.876067 3.91756 0.875237 4.26631L5.81807 7.97344C6.51807 8.49844 7.48057 8.49844 8.18057 7.97344L13.1248 4.26529C13.1239 3.91707 13.1202 3.66969 13.1041 3.47186C13.0846 3.23415 13.0517 3.14602 13.0296 3.10276C12.9457 2.93812 12.8119 2.80426 12.6472 2.72037C12.604 2.69833 12.5159 2.66536 12.2781 2.64594C12.0302 2.62568 11.7045 2.625 11.2 2.625ZM13.125 9.45V5.35886L8.70557 8.67344C7.69446 9.43177 6.30418 9.43177 5.29307 8.67344L0.875 5.35989V9.45C0.875 9.95448 0.875681 10.2802 0.895936 10.5281C0.915358 10.7659 0.948326 10.854 0.970369 10.8972C1.05426 11.0619 1.18812 11.1957 1.35276 11.2796C1.39602 11.3017 1.48415 11.3346 1.72186 11.3541C1.96978 11.3743 2.29552 11.375 2.8 11.375H11.2C11.7045 11.375 12.0302 11.3743 12.2781 11.3541C12.5159 11.3346 12.604 11.3017 12.6472 11.2796C12.8119 11.1957 12.9457 11.0619 13.0296 10.8972C13.0517 10.854 13.0846 10.7659 13.1041 10.5281C13.1243 10.2802 13.125 9.95448 13.125 9.45Z" fill="#000001"/>
<zoom style="dark" value="|:#F5F5F5"/>
</svg>
