<svg width="16" height="16" viewBox="0 0 16 16" fill="none" xmlns="http://www.w3.org/2000/svg">
    <path d="M2.85355 4.13173C5.69586 1.28943 10.3041 1.28943 13.1465 4.13173C13.3417 4.32699 13.6583 4.32699 13.8535 4.13173C14.0488 3.93647 14.0488 3.61988 13.8535 3.42462C10.6207 0.191792 5.37927 0.191792 2.14645 3.42462C1.95119 3.61988 1.95119 3.93647 2.14645 4.13173C2.34171 4.32699 2.65829 4.32699 2.85355 4.13173Z" fill="#040413" fill-opacity="0.56"/>
    <path d="M10.7019 6.61919C9.2096 5.12693 6.79013 5.12693 5.29789 6.61919C5.10263 6.81447 4.78605 6.81447 4.59078 6.61919C4.39552 6.42393 4.39552 6.10735 4.59078 5.91209C6.47357 4.02931 9.52613 4.02931 11.4089 5.91209C11.6042 6.10735 11.6042 6.42393 11.4089 6.61919C11.2137 6.81447 10.8971 6.81447 10.7019 6.61919Z" fill="#040413" fill-opacity="0.56"/>
    <path fill-rule="evenodd" clip-rule="evenodd" d="M4.64502 7.99993C3.54045 7.99993 2.64502 8.8954 2.64502 9.99993V13C2.64502 14.1045 3.54045 15 4.64502 15H11.1451C12.2497 15 13.1451 14.1045 13.1451 13V9.99993C13.1451 8.8954 12.2497 7.99993 11.1451 7.99993H4.64502ZM11.1451 8.99993H4.64502C4.09273 8.99993 3.64502 9.44767 3.64502 9.99993V13C3.64502 13.5523 4.09273 14 4.64502 14H11.1451C11.6974 14 12.1451 13.5523 12.1451 13V9.99993C12.1451 9.44767 11.6974 8.99993 11.1451 8.99993Z" fill="#040413" fill-opacity="0.56"/>
    <zoom name="companion_mode" style="normal" value="|:#04041356|:#04041356|:#04041356"/>
    <zoom name="companion_mode_dark" style="dark" value="|:#FFFFFF54|#FFFFFF54|:#FFFFFF54"/>
</svg>
