<svg width="24" height="24" viewBox="0 0 24 24" fill="none" xmlns="http://www.w3.org/2000/svg">
<path fill-rule="evenodd" clip-rule="evenodd" d="M14.1875 5C13.9459 5 13.75 5.19588 13.75 5.4375C13.75 5.67912 13.9459 5.875 14.1875 5.875H17.5063L13.0031 10.3781C12.8323 10.549 12.8323 10.826 13.0031 10.9969C13.174 11.1677 13.451 11.1677 13.6219 10.9969L18.125 6.49372V9.8125C18.125 10.0541 18.3209 10.25 18.5625 10.25C18.8041 10.25 19 10.0541 19 9.8125V5.4375C19 5.32147 18.9539 5.21019 18.8719 5.12814C18.7898 5.04609 18.6785 5 18.5625 5H14.1875ZM10.9969 13.6219C11.1677 13.451 11.1677 13.174 10.9969 13.0031C10.826 12.8323 10.549 12.8323 10.3781 13.0031L5.875 17.5063V14.1875C5.875 13.9459 5.67912 13.75 5.4375 13.75C5.19588 13.75 5 13.9459 5 14.1875V18.5625C5 18.8041 5.19588 19 5.4375 19H9.8125C10.0541 19 10.25 18.8041 10.25 18.5625C10.25 18.3209 10.0541 18.125 9.8125 18.125H6.49372L10.9969 13.6219Z" fill="#131619"/>
<zoom style="dark" value="|:#F5F5F5"/>
</svg>
