<svg width="29" height="28" viewBox="0 0 29 28" fill="none" xmlns="http://www.w3.org/2000/svg">
<path d="M8.24995 16.9C10.0173 16.9 11.4499 15.4673 11.4499 13.7C11.4499 11.9327 10.0173 10.5 8.24995 10.5C6.48266 10.5 5.04998 11.9327 5.04998 13.7C5.04998 15.4673 6.48266 16.9 8.24995 16.9Z" fill="#131619"/>
<path d="M17.125 11.375C16.6418 11.375 16.25 11.7668 16.25 12.25V15.75C16.25 16.2332 16.6418 16.625 17.125 16.625H24.125C24.6082 16.625 25 16.2332 25 15.75V12.25C25 11.7668 24.6082 11.375 24.125 11.375H17.125Z" fill="#131619"/>
<path fill-rule="evenodd" clip-rule="evenodd" d="M2.41103 24.1185C2.89751 24.3664 3.48168 24.4532 4.36893 24.4836C4.46112 24.4944 4.5549 24.4999 4.64998 24.4999L22.9 24.5C24.8602 24.5 25.8403 24.5 26.589 24.1185C27.2475 23.783 27.783 23.2475 28.1185 22.589C28.5 21.8403 28.5 20.8602 28.5 18.9V9.1C28.5 7.13982 28.5 6.15972 28.1185 5.41103C27.783 4.75247 27.2475 4.21703 26.589 3.88148C25.8403 3.5 24.8602 3.5 22.9 3.5H6.1C4.13982 3.5 3.15972 3.5 2.41103 3.88148C1.75247 4.21703 1.21703 4.75247 0.881477 5.41103C0.5 6.15972 0.5 7.13982 0.5 9.1V18.9C0.5 20.8602 0.5 21.8403 0.881477 22.589C1.21703 23.2475 1.75247 23.783 2.41103 24.1185ZM22.9 5.25H6.1C5.09103 5.25 4.43955 5.25136 3.94371 5.29187C3.4683 5.33072 3.29204 5.39665 3.20552 5.44074C2.87623 5.60852 2.60852 5.87623 2.44074 6.20552C2.39665 6.29204 2.33072 6.4683 2.29187 6.94371C2.25136 7.43955 2.25 8.09103 2.25 9.1V18.9C2.25 19.909 2.25136 20.5604 2.29187 21.0563C2.3051 21.2182 2.32148 21.3454 2.33906 21.4462C2.80403 19.7701 5.05416 18.4999 8.24995 18.4999C10.4676 18.4999 12.23 19.1116 13.2563 20.0461C13.8961 20.6286 14.2499 21.3365 14.2499 22.0999C14.2499 22.3252 14.2189 22.5433 14.1608 22.75H22.9C23.909 22.75 24.5604 22.7486 25.0563 22.7081C25.5317 22.6693 25.708 22.6033 25.7945 22.5593C26.1238 22.3915 26.3915 22.1238 26.5593 21.7945C26.6033 21.708 26.6693 21.5317 26.7081 21.0563C26.7486 20.5604 26.75 19.909 26.75 18.9V9.1C26.75 8.09103 26.7486 7.43955 26.7081 6.94371C26.6693 6.4683 26.6033 6.29204 26.5593 6.20552C26.3915 5.87623 26.1238 5.60852 25.7945 5.44074C25.708 5.39665 25.5317 5.33072 25.0563 5.29187C24.5604 5.25136 23.909 5.25 22.9 5.25Z" fill="#131619"/>
<zoom style="dark" value="|:#F5F5F5|:#F5F5F5|:#F5F5F5"/>
</svg>
