<svg width="29" height="28" viewBox="0 0 29 28" fill="none" >
<path d="M9.25 15.6333C11.3119 15.6333 12.9833 13.9618 12.9833 11.8999C12.9833 9.83807 11.3119 8.1666 9.25 8.1666C7.18814 8.1666 5.51667 9.83807 5.51667 11.8999C5.51667 13.9618 7.18814 15.6333 9.25 15.6333Z" fill="#252A30"/>
<path d="M17.125 7C16.6418 7 16.25 7.39175 16.25 7.875V11.375C16.25 11.8582 16.6418 12.25 17.125 12.25H24.125C24.6082 12.25 25 11.8582 25 11.375V7.875C25 7.39175 24.6082 7 24.125 7H17.125Z" fill="#252A30"/>
<path fill-rule="evenodd" clip-rule="evenodd" d="M2.41103 24.1185C2.98642 24.4117 3.69849 24.4796 4.88708 24.4953C4.94099 24.4984 4.99531 24.4999 5.05 24.4999L22.9 24.5C24.8602 24.5 25.8403 24.5 26.589 24.1185C27.2475 23.783 27.783 23.2475 28.1185 22.589C28.5 21.8403 28.5 20.8602 28.5 18.9V9.1C28.5 7.13982 28.5 6.15972 28.1185 5.41103C27.783 4.75247 27.2475 4.21703 26.589 3.88148C25.8403 3.5 24.8602 3.5 22.9 3.5H6.1C4.13982 3.5 3.15972 3.5 2.41103 3.88148C1.75247 4.21703 1.21703 4.75247 0.881477 5.41103C0.5 6.15972 0.5 7.13982 0.5 9.1V18.9C0.5 20.8602 0.5 21.8403 0.881477 22.589C1.21703 23.2475 1.75247 23.783 2.41103 24.1185ZM22.9 5.25H6.1C5.09103 5.25 4.43955 5.25136 3.94371 5.29187C3.4683 5.33072 3.29204 5.39665 3.20552 5.44074C2.87623 5.60852 2.60852 5.87623 2.44074 6.20552C2.39665 6.29204 2.33072 6.4683 2.29187 6.94371C2.25136 7.43955 2.25 8.09103 2.25 9.1V18.9C2.25 19.909 2.25136 20.5604 2.29187 21.0563C2.29487 21.093 2.29803 21.1279 2.30134 21.1612C2.69935 19.096 5.38051 17.4999 9.25 17.4999C11.8373 17.4999 13.8934 18.2135 15.0908 19.3038C15.8372 19.9834 16.25 20.8093 16.25 21.6999C16.25 22.0713 16.1777 22.4257 16.0464 22.75H22.9C23.909 22.75 24.5604 22.7486 25.0563 22.7081C25.5317 22.6693 25.708 22.6033 25.7945 22.5593C26.1238 22.3915 26.3915 22.1238 26.5593 21.7945C26.6033 21.708 26.6693 21.5317 26.7081 21.0563C26.7486 20.5604 26.75 19.909 26.75 18.9V9.1C26.75 8.09103 26.7486 7.43955 26.7081 6.94371C26.6693 6.4683 26.6033 6.29204 26.5593 6.20552C26.3915 5.87623 26.1238 5.60852 25.7945 5.44074C25.708 5.39665 25.5317 5.33072 25.0563 5.29187C24.5604 5.25136 23.909 5.25 22.9 5.25Z" fill="#252A30"/>
<zoom style="dark" value="|:#F5F5F5|:#F5F5F5|:#F5F5F5"/>
</svg>