<svg width="29" height="28" viewBox="0 0 29 28" fill="none" xmlns="http://www.w3.org/2000/svg">
<path d="M4.875 7C4.39175 7 4 7.39175 4 7.875V20.125C4 20.6082 4.39175 21 4.875 21H24.125C24.6082 21 25 20.6082 25 20.125V7.875C25 7.39175 24.6082 7 24.125 7H4.875Z" fill="#252A30"/>
<path fill-rule="evenodd" clip-rule="evenodd" d="M0.5 9.1C0.5 7.13982 0.5 6.15972 0.881477 5.41103C1.21703 4.75247 1.75247 4.21703 2.41103 3.88148C3.15972 3.5 4.13982 3.5 6.1 3.5H22.9C24.8602 3.5 25.8403 3.5 26.589 3.88148C27.2475 4.21703 27.783 4.75247 28.1185 5.41103C28.5 6.15972 28.5 7.13982 28.5 9.1V18.9C28.5 20.8602 28.5 21.8403 28.1185 22.589C27.783 23.2475 27.2475 23.783 26.589 24.1185C25.8403 24.5 24.8602 24.5 22.9 24.5H6.1C4.13982 24.5 3.15972 24.5 2.41103 24.1185C1.75247 23.783 1.21703 23.2475 0.881477 22.589C0.5 21.8403 0.5 20.8602 0.5 18.9V9.1ZM6.1 5.25H22.9C23.909 5.25 24.5604 5.25136 25.0563 5.29187C25.5317 5.33072 25.708 5.39665 25.7945 5.44074C26.1238 5.60852 26.3915 5.87623 26.5593 6.20552C26.6033 6.29204 26.6693 6.4683 26.7081 6.94371C26.7486 7.43955 26.75 8.09103 26.75 9.1V18.9C26.75 19.909 26.7486 20.5604 26.7081 21.0563C26.6693 21.5317 26.6033 21.708 26.5593 21.7945C26.3915 22.1238 26.1238 22.3915 25.7945 22.5593C25.708 22.6033 25.5317 22.6693 25.0563 22.7081C24.5604 22.7486 23.909 22.75 22.9 22.75H6.1C5.09103 22.75 4.43955 22.7486 3.94371 22.7081C3.4683 22.6693 3.29204 22.6033 3.20552 22.5593C2.87623 22.3915 2.60852 22.1238 2.44074 21.7945C2.39665 21.708 2.33072 21.5317 2.29187 21.0563C2.25136 20.5604 2.25 19.909 2.25 18.9V9.1C2.25 8.09103 2.25136 7.43955 2.29187 6.94371C2.33072 6.4683 2.39665 6.29204 2.44074 6.20552C2.60852 5.87623 2.87623 5.60852 3.20552 5.44074C3.29204 5.39665 3.4683 5.33072 3.94371 5.29187C4.43955 5.25136 5.09103 5.25 6.1 5.25Z" fill="#252A30"/>
<zoom style="dark" value="|:#F5F5F5|:#F5F5F5"/>
</svg>
