<svg width="24" height="24" viewBox="0 0 24 24" fill="none" xmlns="http://www.w3.org/2000/svg">
<path fill-rule="evenodd" clip-rule="evenodd" d="M18.8719 5.74686C19.0427 5.576 19.0427 5.299 18.8719 5.12814C18.701 4.95729 18.424 4.95729 18.2531 5.12814L13.75 9.63128V6.75C13.75 6.50838 13.5541 6.3125 13.3125 6.3125C13.0709 6.3125 12.875 6.50838 12.875 6.75V10.6875C12.875 10.9291 13.0709 11.125 13.3125 11.125H17.25C17.4916 11.125 17.6875 10.9291 17.6875 10.6875C17.6875 10.4459 17.4916 10.25 17.25 10.25H14.3687L18.8719 5.74686ZM6.75 12.875C6.50838 12.875 6.3125 13.0709 6.3125 13.3125C6.3125 13.5541 6.50838 13.75 6.75 13.75H9.63128L5.12814 18.2531C4.95729 18.424 4.95729 18.701 5.12814 18.8719C5.299 19.0427 5.576 19.0427 5.74686 18.8719L10.25 14.3687V17.25C10.25 17.4916 10.4459 17.6875 10.6875 17.6875C10.9291 17.6875 11.125 17.4916 11.125 17.25V13.3125C11.125 13.0709 10.9291 12.875 10.6875 12.875H6.75Z" fill="#131619"/>
<zoom style="dark" value="|:#F5F5F5"/>
</svg>
