<svg width="17" height="16" viewBox="0 0 16 16" fill="none" xmlns="http://www.w3.org/2000/svg">
<path fill-rule="evenodd" clip-rule="evenodd" d="M3.99872 8C3.99872 8.82843 3.32715 9.5 2.49872 9.5C1.67029 9.5 0.998718 8.82843 0.998718 8C0.998718 7.17157 1.67029 6.5 2.49872 6.5C3.32715 6.5 3.99872 7.17157 3.99872 8ZM9.99994 8C9.99994 8.82843 9.32837 9.5 8.49994 9.5C7.67151 9.5 6.99994 8.82843 6.99994 8C6.99994 7.17157 7.67151 6.5 8.49994 6.5C9.32837 6.5 9.99994 7.17157 9.99994 8ZM14.5012 9.5C15.3296 9.5 16.0012 8.82843 16.0012 8C16.0012 7.17157 15.3296 6.5 14.5012 6.5C13.6728 6.5 13.0012 7.17157 13.0012 8C13.0012 8.82843 13.6728 9.5 14.5012 9.5Z" fill="#white"/>
</svg>
