<svg width="75" height="26" viewBox="0 0 75 26" fill="none" xmlns="http://www.w3.org/2000/svg">
<path d="M11.6203 11.5229H13.6808L11.0625 22.9441H8.73879L6.84833 14.1851L4.98913 22.9441H2.63414L0 11.5229H2.13836L3.93559 20.3449L5.71746 11.5229H7.99511L9.91574 20.3605L11.6203 11.5229ZM17.7715 23.1487C15.7418 23.1487 13.6659 21.778 13.6659 18.7221C13.6659 15.6657 15.7418 14.2794 17.7715 14.2794C19.8013 14.2794 21.8771 15.6657 21.8771 18.7221C21.8771 21.778 19.8013 23.1487 17.7715 23.1487ZM19.9719 18.7221C19.9719 16.7687 18.9337 15.8079 17.7715 15.8079C16.6094 15.8079 15.5712 16.7687 15.5712 18.7221C15.5712 20.6756 16.6094 21.6208 17.7715 21.6208C18.9337 21.6208 19.9719 20.6756 19.9719 18.7221ZM26.7763 16.3276C25.6142 16.3276 24.9484 16.7999 24.9484 18.5013V22.9441H23.1046V14.4684H24.9171V15.9808C25.3663 15.0356 26.172 14.4684 27.1794 14.4528C27.3187 14.4528 27.52 14.4684 27.6593 14.4846V16.375C27.3494 16.3432 27.0555 16.3276 26.7763 16.3276ZM30.6412 17.8712L33.7239 14.4684H35.9396L32.7483 17.9504L36.2961 22.9441H34.1424L31.5241 19.2737L30.6412 20.2345V22.9441H28.7973V11.523H30.6412L30.6412 17.8712ZM38.9511 15.6027C39.4469 14.7679 40.3145 14.2794 41.43 14.2794C43.4598 14.2794 45.0091 15.9969 45.0091 18.7065C45.0091 21.4317 43.4598 23.1487 41.43 23.1487C40.3145 23.1487 39.4469 22.6602 38.9511 21.8254V25.7011H37.1078V14.4684H38.9511V15.6027ZM43.0879 18.7065C43.0879 16.926 42.3135 15.8079 41.0275 15.8079C39.8187 15.8079 38.8738 16.7531 38.8738 18.7065C38.8738 20.66 39.8187 21.6208 41.0275 21.6208C42.3135 21.6208 43.0879 20.5022 43.0879 18.7065ZM46.4098 22.9441V11.523H48.2537V22.9441H46.4098ZM55.2238 17.6509V17.4931C55.2238 16.0438 54.4027 15.6027 53.4885 15.6027C52.5589 15.6027 51.8618 16.1068 51.8152 17.1312H50.0026C50.1266 15.398 51.5366 14.2164 53.5505 14.2164C55.549 14.2164 57.1139 15.146 57.0679 17.8556C57.0679 18.2811 57.0361 19.2737 57.0361 20.0454C57.0361 21.1167 57.1293 22.2353 57.284 22.9441H55.5956C55.5336 22.5816 55.4716 22.377 55.4409 21.7942C54.9139 22.7076 53.9223 23.1487 52.6982 23.1487C50.8856 23.1487 49.6154 22.1561 49.6154 20.6126C49.6154 18.5013 52.1717 17.966 55.2238 17.6509ZM51.5673 20.5652C51.5673 21.3057 52.1717 21.7468 53.1013 21.7468C54.4647 21.7468 55.2704 21.0381 55.2704 19.6044V18.9586C52.6368 19.2107 51.5673 19.5887 51.5673 20.5652ZM64.2579 17.3671C64.1032 16.4693 63.3288 15.8391 62.3208 15.8391C61.1746 15.8391 60.1369 16.7057 60.1369 18.7065C60.1369 20.723 61.1899 21.589 62.2747 21.589C63.1731 21.589 64.0879 21.1797 64.3204 20.0454H66.1171C65.7452 22.0301 64.0253 23.1487 62.244 23.1487C59.8265 23.1487 58.2306 21.2427 58.2306 18.7222C58.2306 16.2016 59.8419 14.2794 62.3208 14.2794C64.1339 14.2794 65.7452 15.4767 66.0556 17.3671L64.2579 17.3671ZM71.0387 21.589C71.9996 21.589 72.7586 21.1953 73.0833 20.4079H74.8965C74.5093 21.7624 73.2698 23.1487 71.1166 23.1487C68.4359 23.1487 66.9024 21.0693 66.9024 18.6435C66.9024 16.0912 68.6212 14.2794 70.9927 14.2794C73.5484 14.2794 75.1443 16.3906 74.9897 19.2419H68.777C68.9009 20.8172 69.9847 21.589 71.0387 21.589ZM73.1151 17.8712C73.068 16.5479 72.0764 15.7449 70.9927 15.7449C70.1251 15.7449 68.9317 16.2646 68.777 17.8712H73.1151Z" fill="white"/>
<path d="M6.40222 6.95511H0.943952C0.560992 6.95511 0.218832 6.72264 0.0722826 6.36289C-0.0742667 6.00315 0.0060251 5.59274 0.276828 5.31744L4.05757 1.47325H1.34784C0.603449 1.47325 4.76156e-06 0.859672 4.76156e-06 0.102785H5.03373C5.41666 0.102785 5.7588 0.335188 5.90537 0.694936C6.05195 1.05468 5.9717 1.46502 5.70094 1.74045L1.92019 5.58464H5.0544C5.79879 5.58464 6.40222 6.19822 6.40222 6.95511ZM30.5285 2.67241C30.5285 1.19882 29.3494 0 27.9002 0C27.125 0 26.4273 0.343217 25.9459 0.887823C25.4644 0.343217 24.7667 0 23.9915 0C22.5423 0 21.3632 1.19882 21.3632 2.67241V6.95511C22.1076 6.95511 22.711 6.34154 22.711 5.58465V2.67241C22.711 1.95452 23.2855 1.37046 23.9915 1.37046C24.6975 1.37046 25.2719 1.95452 25.2719 2.67241V5.58465C25.2719 6.34154 25.8754 6.95511 26.6198 6.95511V2.67241C26.6198 1.95452 27.1942 1.37046 27.9002 1.37046C28.6063 1.37046 29.1807 1.95452 29.1807 2.67241V5.58465C29.1807 6.34154 29.7841 6.95511 30.5285 6.95511L30.5285 2.67241ZM20.6893 3.52895C20.6893 5.47794 19.1354 7.0579 17.2186 7.0579C15.3018 7.0579 13.7479 5.47794 13.7479 3.52895C13.7479 1.57996 15.3018 0 17.2186 0C19.1354 0 20.6893 1.57996 20.6893 3.52895ZM19.3414 3.52895C19.3414 2.33685 18.391 1.37047 17.2186 1.37047C16.0462 1.37047 15.0958 2.33685 15.0958 3.52895C15.0958 4.72104 16.0462 5.68743 17.2186 5.68743C18.391 5.68743 19.3414 4.72104 19.3414 3.52895ZM13.2088 3.52895C13.2088 5.47794 11.6549 7.0579 9.73812 7.0579C7.82131 7.0579 6.26744 5.47794 6.26744 3.52895C6.26744 1.57996 7.82132 0 9.73812 0C11.6549 0 13.2088 1.57996 13.2088 3.52895ZM11.861 3.52895C11.861 2.33685 10.9105 1.37047 9.73812 1.37047C8.56571 1.37047 7.61528 2.33685 7.61528 3.52895C7.61528 4.72104 8.56571 5.68743 9.73812 5.68743C10.9105 5.68743 11.861 4.72104 11.861 3.52895Z" fill="white"/>
<zoom style="theme_classic" value="|:#555B62|:#555B62"/>
<zoom style="theme_normal" value="|:#FFFFFF|:#FFFFFF"/>
</svg>
