<svg width="15" height="14" viewBox="0 0 15 14" fill="none" xmlns="http://www.w3.org/2000/svg">
<path d="M7.5 14C8.45621 14 9.35523 13.817 10.1971 13.451C11.0435 13.085 11.7892 12.5794 12.4343 11.9343C13.0794 11.2892 13.585 10.5458 13.951 9.70392C14.317 8.85752 14.5 7.95621 14.5 7C14.5 6.04379 14.317 5.14477 13.951 4.30294C13.585 3.45654 13.0794 2.71078 12.4343 2.06569C11.7892 1.42059 11.0435 0.915033 10.1971 0.54902C9.35065 0.183007 8.44935 0 7.49314 0C6.53693 0 5.63562 0.183007 4.78922 0.54902C3.94739 0.915033 3.20392 1.42059 2.55882 2.06569C1.9183 2.71078 1.41503 3.45654 1.04902 4.30294C0.683007 5.14477 0.5 6.04379 0.5 7C0.5 7.95621 0.683007 8.85752 1.04902 9.70392C1.41503 10.5458 1.92059 11.2892 2.56569 11.9343C3.21078 12.5794 3.95425 13.085 4.79608 13.451C5.64248 13.817 6.54379 14 7.5 14ZM7.5 12.8333C6.6902 12.8333 5.93301 12.6824 5.22843 12.3804C4.52386 12.0784 3.90392 11.6621 3.36863 11.1314C2.83791 10.5961 2.42157 9.97614 2.11961 9.27157C1.82222 8.56699 1.67353 7.8098 1.67353 7C1.67353 6.1902 1.82222 5.43301 2.11961 4.72843C2.42157 4.02386 2.83791 3.40392 3.36863 2.86863C3.89935 2.33333 4.51699 1.91699 5.22157 1.61961C5.92614 1.31765 6.68333 1.16667 7.49314 1.16667C8.30294 1.16667 9.06013 1.31765 9.76471 1.61961C10.4739 1.91699 11.0938 2.33333 11.6245 2.86863C12.1598 3.40392 12.5784 4.02386 12.8804 4.72843C13.1824 5.43301 13.3333 6.1902 13.3333 7C13.3333 7.8098 13.1824 8.56699 12.8804 9.27157C12.583 9.97614 12.1667 10.5961 11.6314 11.1314C11.0961 11.6621 10.4761 12.0784 9.77157 12.3804C9.06699 12.6824 8.3098 12.8333 7.5 12.8333ZM6.29902 10.8363H9.09216C9.23399 10.8363 9.35294 10.7905 9.44902 10.699C9.5451 10.6075 9.59314 10.4931 9.59314 10.3559C9.59314 10.2186 9.5451 10.1042 9.44902 10.0127C9.35294 9.92124 9.23399 9.87549 9.09216 9.87549H8.24118V6.38235C8.24118 6.19477 8.19543 6.04608 8.10392 5.93628C8.01242 5.8219 7.87974 5.76471 7.70588 5.76471H6.41569C6.27386 5.76471 6.1549 5.81046 6.05882 5.90196C5.96275 5.99346 5.91471 6.10784 5.91471 6.2451C5.91471 6.38235 5.96275 6.49673 6.05882 6.58824C6.1549 6.67974 6.27386 6.72549 6.41569 6.72549H7.15V9.87549H6.29902C6.15719 9.87549 6.03824 9.92124 5.94216 10.0127C5.84608 10.1042 5.79804 10.2186 5.79804 10.3559C5.79804 10.4931 5.84608 10.6075 5.94216 10.699C6.03824 10.7905 6.15719 10.8363 6.29902 10.8363ZM7.43824 4.61863C7.68987 4.61863 7.90033 4.5317 8.06961 4.35784C8.24346 4.18399 8.33039 3.97353 8.33039 3.72647C8.33039 3.47484 8.24346 3.26209 8.06961 3.08824C7.90033 2.91438 7.68987 2.82745 7.43824 2.82745C7.19118 2.82745 6.98072 2.91438 6.80686 3.08824C6.63301 3.26209 6.54608 3.47484 6.54608 3.72647C6.54608 3.97353 6.63301 4.18399 6.80686 4.35784C6.98072 4.5317 7.19118 4.61863 7.43824 4.61863Z" fill="white"/>
</svg>
