<svg width="16" height="16" viewBox="0 0 16 16" fill="none" xmlns="http://www.w3.org/2000/svg"><path fill-rule="evenodd" clip-rule="evenodd" d="M10.735 7.3221C10.7239 7.30986 10.7124 7.29783 10.7007 7.28601C10.6925 7.27789 10.6843 7.26994 10.676 7.26215L6.70527 3.29136C6.31475 2.90083 5.68207 2.90131 5.29214 3.29243C4.9022 3.68355 4.90268 4.3172 5.2932 4.70772L8.58117 7.99573L5.2953 11.292C4.90539 11.6831 4.90565 12.317 5.29587 12.7078C5.68608 13.0987 6.3185 13.0984 6.70841 12.7073L10.5925 8.8109C10.6335 8.78082 10.6727 8.74721 10.7097 8.71009C11.0907 8.32796 11.099 7.71432 10.735 7.3221Z" fill="#000001"/>
    <zoom style="dark" value=":none|:#747487"/>
</svg>
