<svg width="16" height="16" viewBox="0 0 16 16" fill="none" xmlns="http://www.w3.org/2000/svg"><path fill-rule="evenodd" clip-rule="evenodd" d="M7.32332 10.7331C7.31108 10.722 7.29905 10.7106 7.28723 10.6988C7.27911 10.6906 7.27116 10.6824 7.26337 10.6741L3.29258 6.70338C2.90205 6.31285 2.90253 5.68017 3.29365 5.29024C3.68477 4.90031 4.31842 4.90079 4.70894 5.29131L7.99695 8.57928L11.2932 5.29341C11.6843 4.9035 12.3182 4.90375 12.709 5.29397C13.0999 5.68419 13.0996 6.31661 12.7085 6.70652L8.81212 10.5906C8.78204 10.6316 8.74843 10.6708 8.71131 10.7078C8.32918 11.0888 7.71554 11.0971 7.32332 10.7331Z" fill="#000001"/>
<zoom style="dark" value=":none|:#747487"/>
</svg>
