<svg width="14" height="14" viewBox="0 0 14 14" fill="none" xmlns="http://www.w3.org/2000/svg">
<path d="M13.8709 2.17825C13.403 2.01677 12.9138 1.80146 12.5639 1.43585L12.5629 1.43483C12.2191 1.07531 11.9913 0.623371 11.8143 0.126744C11.7533 -0.0438758 11.5113 -0.0438758 11.4512 0.126744C11.2885 0.592903 11.0597 1.07633 10.7017 1.43483C10.3437 1.79334 9.84122 2.01169 9.37642 2.17622C9.20454 2.23715 9.20759 2.47988 9.37947 2.5398C9.85343 2.70433 10.3355 2.92877 10.7027 3.29439C11.0698 3.66 11.259 4.13733 11.4289 4.61467C11.4909 4.78833 11.7381 4.78325 11.794 4.60756C11.9506 4.11398 12.1663 3.63258 12.5375 3.26798C12.9046 2.90745 13.3989 2.6962 13.8688 2.54183C14.0427 2.48496 14.0438 2.23817 13.8709 2.17825Z" fill="#98A0A9"/>
<zoom style="hover" value="|:#FFFFFF"/>

<path d="M12.6482 6.9814C11.3677 6.53962 10.0292 5.95057 9.07117 4.94919V4.94818C8.13139 3.96508 7.50793 2.7291 7.02278 1.36922C6.85598 0.902043 6.19387 0.901027 6.0291 1.36922C5.58159 2.64379 4.95914 3.96711 3.97665 4.94818C2.99416 5.92925 1.62009 6.52743 0.348752 6.97734C-0.121136 7.1439 -0.114016 7.8081 0.356888 7.97161C1.65366 8.42152 2.97992 9.04103 3.97665 10.0363C4.9805 11.0387 5.49819 12.3438 5.96401 13.6508C6.13386 14.1271 6.81123 14.1129 6.96379 13.6315C7.39198 12.2798 7.9951 10.9493 8.99895 9.96421C10.0028 8.97908 11.3555 8.40121 12.6411 7.9777C13.1181 7.82029 13.1222 7.14491 12.6482 6.9814Z" fill="#98A0A9"/>
<zoom style="hover" value="|:#FFFFFF|:#FFFFFF"/>
</svg>
