<svg width="14" height="14" viewBox="0 0 14 14" fill="none" xmlns="http://www.w3.org/2000/svg">
<path d="M7 0.875C10.3774 0.875 13.125 3.62262 13.125 7C13.125 10.3774 10.3774 13.125 7 13.125C3.62262 13.125 0.875 10.3774 0.875 7C0.875 3.62262 3.62262 0.875 7 0.875ZM6.99992 3.12442C7.39592 3.12442 7.71695 3.31967 7.71695 3.77899C7.71695 4.2383 7.39592 4.43355 6.99992 4.43355C6.60382 4.43355 6.28279 4.2383 6.28279 3.77899C6.28279 3.31967 6.60382 3.12442 6.99992 3.12442ZM8.26256 10.4972H5.82389C5.68932 10.4972 5.58015 10.3881 5.58015 10.2536C5.58015 10.1308 5.67174 10.0279 5.79351 10.0118C6.15266 9.96479 6.41757 9.80131 6.41757 9.60691V6.21405C6.41757 6.02706 6.16346 5.86972 5.8185 5.82355C5.69822 5.80746 5.60907 5.7037 5.60907 5.58257C5.60907 5.4481 5.71812 5.33819 5.8527 5.33819H7.18151C7.45066 5.33819 7.66878 5.55631 7.66878 5.82567V9.60691C7.66878 9.80131 7.93369 9.9648 8.29285 10.0118C8.41461 10.0279 8.5062 10.1308 8.5062 10.2536C8.5062 10.3881 8.39713 10.4972 8.26256 10.4972ZM7 0C3.13407 0 0 3.13396 0 7C0 10.866 3.13407 14 7 14C10.8659 14 14 10.8659 14 7C14 3.13407 10.8659 0 7 0Z" fill="#98A0A9"/>
<zoom style="hover" value="|:#FFFFFF"/>
</svg>
