<svg width="117" height="115" viewBox="0 0 117 115" fill="none" xmlns="http://www.w3.org/2000/svg">
<path fill-rule="evenodd" clip-rule="evenodd" d="M35.78 10H24.67C20.055 10 15.89 11.89 12.89 14.89C9.89 17.89 8 22.055 8 26.665C8 72.72 45.275 110 91.335 110C91.505 110 91.675 110 91.845 110C100.845 109.945 108 102.335 108 93.335V82.22C108 76.085 103.025 71.11 96.89 71.11H87.13C82.705 71.11 78.47 72.865 75.345 75.995L70.845 80.49C69.77 81.565 68.32 82.16 66.86 82.16C66.085 82.16 65.305 81.99 64.585 81.635C52.295 75.645 42.355 65.71 36.365 53.42C35.345 51.33 35.87 48.8 37.515 47.155L42.01 42.66C45.135 39.535 46.89 35.295 46.89 30.875V21.11C46.89 14.975 41.915 10 35.78 10Z" fill="#DE2828"/>
</svg>
