<svg width="16" height="12" viewBox="0 0 16 12" fill="none" xmlns="http://www.w3.org/2000/svg">
<path fill-rule="evenodd" clip-rule="evenodd" d="M5 6C6.65685 6 8 4.65685 8 3C8 1.34315 6.65685 0 5 0C3.34314 0 2 1.34315 2 3C2 4.65685 3.34314 6 5 6ZM5 7C2 7 0 8.34314 0 9.99999C0 11.1046 0.89543 12 2 12H8C8.0909 12 8.18039 11.9939 8.26808 11.9822C9.24589 11.8512 9.99999 11.0137 9.99999 9.99999C9.99999 9.37867 9.71874 8.80147 9.20898 8.32267C9.19679 8.31122 9.18446 8.29982 9.17201 8.28848C8.31669 7.50971 6.84809 7 5 7ZM10.2361 12H14.5C15.3284 12 16 11.3284 16 10.5C16 9.11928 14.5 8 11.5 8C11.077 8 10.6838 8.02225 10.3205 8.06434C10.7429 8.61315 11 9.26609 11 9.99999C11 10.7683 10.7111 11.4692 10.2361 12ZM11.5 7C12.8807 7 14 5.88071 14 4.5C14 3.11929 12.8807 2 11.5 2C10.1193 2 9 3.11929 9 4.5C9 5.88071 10.1193 7 11.5 7Z" fill="#747487"/>
<zoom style="select" value="|:#0E71EB"/>
<zoom style="dark" value="|:#F5F5F5"/>
</svg>
