<svg width="34" height="34" viewBox="0 0 34 34" fill="none" xmlns="http://www.w3.org/2000/svg">
<path fill-rule="evenodd" clip-rule="evenodd" d="M22.6273 12.7278C23.0178 12.3373 23.0178 11.7041 22.6273 11.3136C22.2368 10.9231 21.6036 10.9231 21.2131 11.3136L16.9705 15.5562L12.7278 11.3136C12.3373 10.9231 11.7041 10.9231 11.3136 11.3136C10.9231 11.7041 10.9231 12.3373 11.3136 12.7278L15.5562 16.9704L11.3136 21.2131C10.9231 21.6036 10.9231 22.2368 11.3136 22.6273C11.7041 23.0178 12.3373 23.0178 12.7278 22.6273L16.9705 18.3847L21.2131 22.6273C21.6036 23.0178 22.2368 23.0178 22.6273 22.6273C23.0178 22.2368 23.0178 21.6036 22.6273 21.2131L18.3847 16.9704L22.6273 12.7278Z" fill="#222230"/>
<zoom style="disable" value="|:#9D9DA6"/>
<zoom style="dark" value="|:white"/>
</svg>
