<svg width="16" height="16" viewBox="0 0 16 16" fill="none" xmlns="http://www.w3.org/2000/svg"><path d="M8.5 10.5C8.5 10.7761 8.27614 11 8 11C7.72386 11 7.5 10.7761 7.5 10.5C7.5 10.2239 7.72386 10 8 10C8.27614 10 8.5 10.2239 8.5 10.5Z" fill="#000001"/><path d="M7 6.45455C7 5.94176 7.4331 5.5 8 5.5C8.5669 5.5 9 5.94176 9 6.45455C9 6.80693 8.79876 7.12252 8.48585 7.2891C8.09017 7.49973 7.5 7.94689 7.5 8.65909V8.75C7.5 9.02614 7.72386 9.25 8 9.25C8.27614 9.25 8.5 9.02614 8.5 8.75V8.65909C8.5 8.60388 8.52192 8.53181 8.60203 8.43886C8.68441 8.34328 8.8091 8.24988 8.95575 8.17182C9.57165 7.84395 10 7.20215 10 6.45455C10 5.36069 9.08996 4.5 8 4.5C6.91005 4.5 6 5.36069 6 6.45455C6 6.73069 6.22386 6.95455 6.5 6.95455C6.77614 6.95455 7 6.73069 7 6.45455Z" fill="#000001"/><path fill-rule="evenodd" clip-rule="evenodd" d="M2.09202 14.782C2.51984 15 3.0799 15 4.2 15H11.8C12.9201 15 13.4802 15 13.908 14.782C14.2843 14.5903 14.5903 14.2843 14.782 13.908C15 13.4802 15 12.9201 15 11.8V4.2C15 3.0799 15 2.51984 14.782 2.09202C14.5903 1.71569 14.2843 1.40973 13.908 1.21799C13.4802 1 12.9201 1 11.8 1H4.2C3.0799 1 2.51984 1 2.09202 1.21799C1.71569 1.40973 1.40973 1.71569 1.21799 2.09202C1 2.51984 1 3.0799 1 4.2V11.8C1 12.9201 1 13.4802 1.21799 13.908C1.40973 14.2843 1.71569 14.5903 2.09202 14.782ZM2 4.2V11.8C2 12.3766 2.00078 12.7488 2.02393 13.0322C2.04612 13.3038 2.0838 13.4045 2.10899 13.454C2.20487 13.6422 2.35785 13.7951 2.54601 13.891C2.59545 13.9162 2.69617 13.9539 2.96784 13.9761C3.25117 13.9992 3.62345 14 4.2 14H11.8C12.3766 14 12.7488 13.9992 13.0322 13.9761C13.3038 13.9539 13.4045 13.9162 13.454 13.891C13.6422 13.7951 13.7951 13.6422 13.891 13.454C13.9162 13.4045 13.9539 13.3038 13.9761 13.0322C13.9992 12.7488 14 12.3766 14 11.8V4.2C14 3.62345 13.9992 3.25117 13.9761 2.96784C13.9539 2.69617 13.9162 2.59545 13.891 2.54601C13.7951 2.35785 13.6422 2.20487 13.454 2.10899C13.4045 2.0838 13.3038 2.04612 13.0322 2.02393C12.7488 2.00078 12.3766 2 11.8 2H4.2C3.62345 2 3.25117 2.00078 2.96784 2.02393C2.69617 2.04612 2.59545 2.0838 2.54601 2.10899C2.35785 2.20487 2.20487 2.35785 2.10899 2.54601C2.0838 2.59545 2.04612 2.69617 2.02393 2.96784C2.00078 3.25117 2 3.62345 2 4.2Z" fill="#000001"/>
    <zoom style="dark" value="|:#F5F5F5|:#F5F5F5|:#F5F5F5"/>
</svg>
