<svg width="16" height="16" viewBox="0 0 16 16" fill="none" xmlns="http://www.w3.org/2000/svg"><path d="M0 3.2C0 2.0799 0 1.51984 0.217987 1.09202C0.409734 0.715695 0.715695 0.409734 1.09202 0.217987C1.51984 0 2.07989 0 3.2 0H8.22857C9.34868 0 9.90873 0 10.3366 0.217987C10.7129 0.409734 11.0188 0.715695 11.2106 1.09202C11.4286 1.51984 11.4286 2.07989 11.4286 3.2V4H8.16146C7.63431 3.99998 7.17955 3.99997 6.80497 4.03057C6.40963 4.06287 6.01641 4.13419 5.63803 4.32698C5.07354 4.6146 4.6146 5.07354 4.32698 5.63803C4.13419 6.01641 4.06287 6.40963 4.03057 6.80497C3.99997 7.17955 3.99998 7.63431 4 8.16146V11.4286H3.2C2.0799 11.4286 1.51984 11.4286 1.09202 11.2106C0.715695 11.0188 0.409734 10.7129 0.217987 10.3366C0 9.90873 0 9.34868 0 8.22857V3.2Z" fill="#000001"/><path d="M5.21799 6.09202C5 6.51984 5 7.0799 5 8.2V12.8C5 13.9201 5 14.4802 5.21799 14.908C5.40973 15.2843 5.71569 15.5903 6.09202 15.782C6.51984 16 7.0799 16 8.2 16H12.8C13.9201 16 14.4802 16 14.908 15.782C15.2843 15.5903 15.5903 15.2843 15.782 14.908C16 14.4802 16 13.9201 16 12.8V8.2C16 7.0799 16 6.51984 15.782 6.09202C15.5903 5.71569 15.2843 5.40973 14.908 5.21799C14.4802 5 13.9201 5 12.8 5H8.2C7.0799 5 6.51984 5 6.09202 5.21799C5.71569 5.40973 5.40973 5.71569 5.21799 6.09202Z" fill="#000001"/>
    <zoom style="dark" value="|:#F5F5F5|:#F5F5F5"/>
</svg>
