<svg width="16" height="16" viewBox="0 0 16 16" fill="none" xmlns="http://www.w3.org/2000/svg"><path d="M2 1C0.895431 1 0 1.89543 0 3V10C0 11.1046 0.895431 12 2 12H6V11H2C1.44772 11 1 10.5523 1 10V3C1 2.44772 1.44772 2 2 2H14C14.5523 2 15 2.44772 15 3V8.37889C15.5696 8.76017 15.9554 9.39465 15.9964 10.1213C15.9988 10.0812 16 10.0407 16 10V3C16 1.89543 15.1046 1 14 1H2Z" fill="#000001"/><path d="M3.5 14H6.01373C6.05433 14.3672 6.18329 14.7078 6.37889 15H3.5C3.22386 15 3 14.7761 3 14.5C3 14.2239 3.22386 14 3.5 14Z" fill="#000001"/><path fill-rule="evenodd" clip-rule="evenodd" d="M7 10.25C7 9.55964 7.55964 9 8.25 9H13.75C14.4404 9 15 9.55964 15 10.25V13.75C15 14.4404 14.4404 15 13.75 15H8.25C7.55964 15 7 14.4404 7 13.75V10.25ZM8.25 10H13.75C13.8881 10 14 10.1119 14 10.25V13.75C14 13.8881 13.8881 14 13.75 14H8.25C8.11193 14 8 13.8881 8 13.75V10.25C8 10.1119 8.11193 10 8.25 10Z" fill="#000001"/>
    <zoom style="dark" value="|:#F5F5F5|:#F5F5F5|:#F5F5F5"/>
</svg>
