<svg fill="none" height="36" viewBox="0 0 36 36" width="36" xmlns="http://www.w3.org/2000/svg"><g fill="#de2828"><path d="m18.0155 22.2239c-.8015 0-1.2123-.4108-1.2324-1.2324l-.1953-8.1906c-.0101-.3907.1152-.7163.3757-.9768.2705-.2605.6162-.3908 1.037-.3908.4107 0 .7514.1353 1.0219.4058.2805.2605.4158.5861.4058.9769l-.2255 8.1755c-.01.8216-.4057 1.2324-1.1872 1.2324z"/><path d="m18.0155 27.2585c-.4509 0-.8466-.1553-1.1873-.4659-.3306-.3106-.4959-.6913-.4959-1.1422 0-.4408.1653-.8216.4959-1.1422s.7264-.4809 1.1873-.4809c.4508 0 .8416.1603 1.1722.4809.3407.3106.511.6913.511 1.1422s-.1703.8316-.511 1.1422c-.3306.3106-.7214.4659-1.1722.4659z"/><path clip-rule="evenodd" d="m19.9688 4.24963c.6312.34065 1.1421.85163 1.5329 1.53292l11.6622 20.31875c.1903.3306.3356.6762.4358 1.0369s.1503.7164.1503 1.0671c0 .7614-.1653 1.4477-.4959 2.0589-.3307.6212-.8016 1.1121-1.4127 1.4728-.6112.3607-1.3426.541-2.1942.541h-23.29438c-.85163 0-1.58302-.1803-2.19418-.541-.61117-.3607-1.08207-.8516-1.4127-1.4728-.33063-.6112-.49594-1.2975-.49594-2.0589 0-.7314.19537-1.4328.58612-2.104l11.66218-20.31875c.3808-.68129.8867-1.19227 1.5179-1.53292.6312-.35066 1.2925-.526 1.9838-.526s1.3476.17534 1.9688.526zm11.5312 23.95567c0 .4242-.0888.7367-.2249.9883l-.0072.0134c-.1344.2525-.3123.4401-.5701.5923-.2013.1188-.5205.2287-1.0506.2287h-23.29438c-.53008 0-.84933-.1099-1.05061-.2287-.25783-.1522-.43566-.3398-.57004-.5923l-.00725-.0134c-.1361-.2516-.22492-.5641-.22492-.9883 0-.3089.07715-.6224.28071-.9721l11.66919-20.33053.0126-.02252c.1912-.34222.4005-.53058.6224-.65032l.024-.01334c.3124-.17355.5994-.24286.8911-.24286.2911 0 .5678.06889.8627.23536l.0186.01053.0189.01016c.2277.12291.4473.3194.6501.67292l11.6622 20.3187.0015.0026c.0979.1702.1691.3413.2178.5165.0494.1778.0682.331.0682.4649z" fill-rule="evenodd"/></g></svg>