<svg width="16" height="16" viewBox="0 0 16 16" fill="none" xmlns="http://www.w3.org/2000/svg"><path d="M11.9994 0.5H3.99963C2.89503 0.5 1.99963 1.3955 1.99963 2.5V6.5C1.99963 7.6045 2.89503 8.5 3.99963 8.5H11.9994C13.104 8.5 13.9994 7.6045 13.9994 6.5V2.5C13.9994 1.3955 13.1041 0.5 11.9994 0.5ZM6.21558 7.5C6.52958 7.0513 7.09849 6.6445 7.99939 6.6445C8.90139 6.6445 9.4703 7.0512 9.7843 7.5H6.21558ZM14.5118 11.3293L15.3996 14.8786C15.467 15.1462 15.3039 15.4177 15.0358 15.485C14.9953 15.4948 14.9543 15.4996 14.9142 15.4996C14.6901 15.4996 14.4865 15.3482 14.4298 15.1207L13.5241 11.4996H11.5001C10.9488 11.4996 10.5001 11.9478 10.5001 12.4996V14.9996C10.5001 15.276 10.2765 15.4996 10.0001 15.4996C9.72372 15.4996 9.50012 15.276 9.50012 14.9996V12.4996C9.50012 11.3971 10.3971 10.4996 11.5001 10.4996H13.9142C14.0294 10.4996 14.129 10.4225 14.1569 10.3111L15.0153 6.87849C15.0817 6.60989 15.3542 6.44781 15.6213 6.51421C15.8894 6.58161 16.0525 6.85311 15.9851 7.12061L15.1267 10.5532C15.0403 10.8994 14.8071 11.166 14.5118 11.3293ZM6.50012 12.4997V14.9997C6.50012 15.2761 6.27652 15.4997 6.00012 15.4997C5.72372 15.4997 5.50012 15.2761 5.50012 14.9997V12.4997C5.50012 11.9479 5.05142 11.4997 4.50012 11.4997H2.47613L1.57043 15.1208C1.51383 15.3483 1.3101 15.4997 1.086 15.4997C1.046 15.4997 1.00492 15.4948 0.964416 15.4851C0.696316 15.4177 0.533185 15.1462 0.600585 14.8787L1.4884 11.3294C1.1931 11.1658 0.959895 10.8995 0.873595 10.5535L0.015197 7.1209C-0.052203 6.8533 0.110928 6.5818 0.379028 6.5145C0.645628 6.4491 0.918085 6.6102 0.984985 6.8788L1.84338 10.3114C1.87118 10.4227 1.97082 10.4999 2.08612 10.4999H4.50018C5.60308 10.4997 6.50012 11.3972 6.50012 12.4997ZM12.9994 6.5C12.9994 7.0513 12.5508 7.5 11.9994 7.5H10.9124C10.5444 6.5923 9.61429 5.6445 7.99939 5.6445C6.38449 5.6445 5.45462 6.5923 5.08752 7.5H3.99963C3.44823 7.5 2.99963 7.0513 2.99963 6.5V2.5C2.99963 1.9487 3.44823 1.5 3.99963 1.5H11.9994C12.5508 1.5 12.9994 1.9487 12.9994 2.5V6.5ZM9.23852 3.78661C9.23852 4.47081 8.68451 5.02541 7.99951 5.02541C7.31551 5.02541 6.76153 4.47081 6.76153 3.78661C6.76153 3.10251 7.31551 2.5479 7.99951 2.5479C8.68451 2.5479 9.23852 3.10251 9.23852 3.78661Z" fill="#000001"/>
    <zoom style="dark" value="|:#F5F5F5"/>
</svg>
