<svg width="16" height="16" viewBox="0 0 16 16" fill="none" xmlns="http://www.w3.org/2000/svg"><path fill-rule="evenodd" clip-rule="evenodd" d="M6.37266 9.5C6.76809 8.93308 7 8.24362 7 7.5C7 5.567 5.433 4 3.5 4C1.567 4 0 5.567 0 7.5C0 9.433 1.567 11 3.5 11H12.5C14.433 11 16 9.433 16 7.5C16 5.567 14.433 4 12.5 4C10.567 4 9 5.567 9 7.5C9 8.24362 9.23191 8.93308 9.62734 9.5H6.37266ZM3.5 9.5C4.60457 9.5 5.5 8.60457 5.5 7.5C5.5 6.39543 4.60457 5.5 3.5 5.5C2.39543 5.5 1.5 6.39543 1.5 7.5C1.5 8.60457 2.39543 9.5 3.5 9.5ZM12.5 9.5C13.6046 9.5 14.5 8.60457 14.5 7.5C14.5 6.39543 13.6046 5.5 12.5 5.5C11.3954 5.5 10.5 6.39543 10.5 7.5C10.5 8.60457 11.3954 9.5 12.5 9.5Z" fill="#000001"/>
    <zoom style="dark" value="|:#F5F5F5"/>
</svg>
