<svg width="16" height="16" viewBox="0 0 16 16" fill="none" xmlns="http://www.w3.org/2000/svg"><path fill-rule="evenodd" clip-rule="evenodd" d="M4.76851 7.17838C4.70662 7.18157 4.64432 7.18318 4.58165 7.18318C2.60356 7.18318 1 5.57517 1 3.59159C1 1.60801 2.60356 0 4.58165 0C6.55974 0 8.1633 1.60801 8.1633 3.59159C8.1633 4.12683 8.04654 4.63473 7.83717 5.09107C8.23111 5.05719 8.64259 5.20311 8.93896 5.56165L9.33496 6.0407C9.78136 5.63419 10.4871 5.58119 10.9914 6.02937L12.7991 7.636C13.2202 8.01034 13.4927 8.5277 13.5701 9.08992L13.7161 10.1492C13.844 11.0781 14.1156 11.9792 14.5198 12.8176L15 13.8134L9.72808 16L8.71046 14.9448C8.67764 14.9108 8.63997 14.8839 8.59962 14.8649L4.70253 13.0281C3.98473 12.6898 3.60075 11.8939 3.75079 11.116C3.93715 10.1498 4.33001 9.23802 4.90159 8.44778L5.16614 8.08202L4.76851 7.17838ZM4.31291 6.14303C3.0263 6.00835 2.02333 4.91742 2.02333 3.59159C2.02333 2.17475 3.16873 1.02617 4.58165 1.02617C5.99457 1.02617 7.13997 2.17475 7.13997 3.59159C7.13997 4.05307 7.01846 4.48608 6.80578 4.86022L6.1062 3.77211C6.1131 3.7129 6.11664 3.65266 6.11664 3.59159C6.11664 2.74149 5.4294 2.05234 4.58165 2.05234C3.7339 2.05234 3.04666 2.74149 3.04666 3.59159C3.04666 4.14278 3.33557 4.62631 3.76982 4.89819C3.78947 4.94994 3.81047 5.00122 3.8328 5.05197L4.31291 6.14303ZM4.75549 11.3109C4.89635 10.5806 5.17581 9.88857 5.57591 9.27458L6.0964 10.9078C6.18242 11.1777 6.47036 11.3266 6.73954 11.2403C7.00871 11.1541 7.15718 10.8653 7.07116 10.5954L6.23205 7.96243L4.76904 4.6377C4.64574 4.3575 4.58165 4.05239 4.58165 3.74318C4.58165 3.6907 4.5966 3.66142 4.60994 3.64395C4.62553 3.62355 4.64903 3.6067 4.67729 3.59783C4.70555 3.58896 4.73058 3.59047 4.74858 3.59651C4.76261 3.60121 4.78621 3.6128 4.81216 3.65317L7.81195 8.319C7.96507 8.55717 8.28174 8.62576 8.51924 8.47221C8.75674 8.31867 8.82515 8.00113 8.67203 7.76296L7.7019 6.25404C7.80301 6.08083 8.02912 6.06895 8.15111 6.21652L9.57848 7.94328C9.75882 8.16144 10.0814 8.1917 10.2989 8.01086C10.5165 7.83002 10.5467 7.50657 10.3663 7.2884L9.9916 6.83507C10.0715 6.72379 10.2185 6.71365 10.3126 6.79732L12.1203 8.40395C12.3551 8.61261 12.5117 8.90574 12.5564 9.23035L12.7024 10.2896C12.8449 11.3242 13.1474 12.3287 13.5986 13.2643L13.6065 13.2808L9.97996 14.785L9.44607 14.2314C9.32798 14.109 9.18884 14.0088 9.03492 13.9362L5.13784 12.0994C4.85977 11.9684 4.691 11.6453 4.75549 11.3109Z" fill="#000001"/>
    <zoom style="dark" value="|:#F5F5F5"/>
</svg>
