<svg fill="none" height="20" viewBox="0 0 20 20" width="20" xmlns="http://www.w3.org/2000/svg"><path d="m3.52934 17.9319h12.94136c.4731 0 .8794-.1002 1.2189-.3006.3396-.2003.6012-.4731.7849-.8182.1837-.3395.2755-.7208.2755-1.1438 0-.1948-.0278-.3924-.0835-.5928s-.1364-.3924-.2421-.5761l-6.479-11.2882c-.2171-.37849-.501-.66237-.8516-.85162-.3452-.19481-.7097-.29222-1.0938-.29222-.38406 0-.75143.09741-1.1021.29222-.35067.18925-.63176.47313-.84327.85162l-6.47901 11.2882c-.21708.3729-.32562.7625-.32562 1.1689 0 .423.09184.8043.27552 1.1438.18369.3451.4453.6179.78483.8182.33954.2004.74587.3006 1.21899.3006zm6.47896-5.5856c-.44524 0-.67346-.2282-.68459-.6847l-.10854-4.5503c-.00556-.21708.06401-.39798.20873-.5427.15029-.14472.34232-.21708.5761-.21708.2282 0 .4175.07514.5677.22543.1559.14472.231.32562.2255.5427l-.1253 4.54195c-.0055.4565-.2254.6847-.6596.6847zm0 2.797c-.25043 0-.47029-.0863-.65954-.2589-.18368-.1725-.27553-.384-.27553-.6345 0-.2449.09185-.4564.27553-.6345.18368-.1782.40355-.2672.65954-.2672.2505 0 .4676.089.6513.2672.1892.1725.2839.384.2839.6345s-.0947.462-.2839.6345c-.1837.1726-.4008.2589-.6513.2589z" fill="#ff2638"/></svg>