<svg width="16" height="16" viewBox="0 0 16 16" fill="none" xmlns="http://www.w3.org/2000/svg">
<path d="M10.8594 5.75C10.9482 5.75 11.0293 5.80016 11.069 5.87956L11.5028 6.74718L12.3705 7.18099C12.4498 7.2207 12.5 7.30185 12.5 7.39062C12.5 7.4794 12.4498 7.56055 12.3705 7.60026L11.5028 8.03406L11.069 8.90169C11.0293 8.98109 10.9482 9.03125 10.8594 9.03125C10.7706 9.03125 10.6894 8.98109 10.6497 8.90169L10.216 8.03406L9.3483 7.60026C9.2689 7.56055 9.21875 7.4794 9.21875 7.39062C9.21875 7.30185 9.2689 7.2207 9.3483 7.18099L10.216 6.74718L10.6497 5.87956C10.6894 5.80016 10.7706 5.75 10.8594 5.75Z" fill="#F7F9FA"/>
<path d="M8.39844 8.375C8.48544 8.375 8.56497 8.42415 8.60388 8.50197L8.87589 9.04599L9.41991 9.318C9.49772 9.3569 9.54688 9.43644 9.54688 9.5234C9.54688 9.6104 9.49772 9.68997 9.41991 9.7289L8.87589 10.0008L8.60388 10.5449C8.56497 10.6227 8.48544 10.6719 8.39844 10.6719C8.31144 10.6719 8.23191 10.6227 8.193 10.5449L7.92099 10.0008L7.37697 9.7289C7.29916 9.68997 7.25 9.6104 7.25 9.5234C7.25 9.43644 7.29916 9.3569 7.37697 9.318L7.92099 9.04599L8.193 8.50197C8.23191 8.42415 8.31144 8.375 8.39844 8.375Z" fill="#F7F9FA"/>
<path d="M11.6797 9.35938C11.7832 9.35938 11.8779 9.4179 11.9242 9.51051L12.0657 9.79356L12.3489 9.93516C12.4415 9.98143 12.5 10.0762 12.5 10.1797C12.5 10.2832 12.4415 10.378 12.3489 10.4242L12.0657 10.5658L11.9242 10.8489C11.8779 10.9415 11.7832 11 11.6797 11C11.5761 11 11.4814 10.9415 11.4351 10.8489L11.2936 10.5658L11.0105 10.4242C10.9179 10.378 10.8594 10.2832 10.8594 10.1797C10.8594 10.0762 10.9179 9.98143 11.0105 9.93516L11.2936 9.79356L11.4351 9.51051C11.4814 9.4179 11.5761 9.35938 11.6797 9.35938Z" fill="#F7F9FA"/>
<path fill-rule="evenodd" clip-rule="evenodd" d="M2 5.9C2 5.05992 2 4.63988 2.16349 4.31902C2.3073 4.03677 2.53677 3.8073 2.81902 3.66349C3.13988 3.5 3.55993 3.5 4.4 3.5H11.6C12.4401 3.5 12.8601 3.5 13.181 3.66349C13.4632 3.8073 13.6927 4.03677 13.8365 4.31902C14 4.63988 14 5.05992 14 5.9V10.1C14 10.9401 14 11.3601 13.8365 11.681C13.6927 11.9632 13.4632 12.1927 13.181 12.3365C12.8601 12.5 12.4401 12.5 11.6 12.5H4.4C3.55993 12.5 3.13988 12.5 2.81902 12.3365C2.53677 12.1927 2.3073 11.9632 2.16349 11.681C2 11.3601 2 10.9401 2 10.1V5.9ZM4.4 4.25H11.6C12.0325 4.25 12.3116 4.25059 12.5241 4.26795C12.7278 4.28459 12.8034 4.31285 12.8405 4.33174C12.9817 4.40365 13.0963 4.51839 13.1682 4.65951C13.1871 4.69659 13.2154 4.77213 13.2321 4.97588C13.2494 5.18838 13.25 5.46759 13.25 5.9V10.1C13.25 10.5325 13.2494 10.8116 13.2321 11.0241C13.2154 11.2278 13.1871 11.3034 13.1682 11.3405C13.0963 11.4817 12.9817 11.5963 12.8405 11.6682C12.8034 11.6871 12.7278 11.7154 12.5241 11.7321C12.3116 11.7494 12.0325 11.75 11.6 11.75H4.4C3.96759 11.75 3.68838 11.7494 3.47588 11.7321C3.27213 11.7154 3.19659 11.6871 3.15951 11.6682C3.01839 11.5963 2.90365 11.4817 2.83174 11.3405C2.81285 11.3034 2.78459 11.2278 2.76795 11.0241C2.75058 10.8116 2.75 10.5325 2.75 10.1V5.9C2.75 5.46759 2.75058 5.18838 2.76795 4.97588C2.78459 4.77213 2.81285 4.69659 2.83174 4.65951C2.90365 4.51839 3.01839 4.40365 3.15951 4.33174C3.19659 4.31285 3.27213 4.28459 3.47588 4.26795C3.68838 4.25059 3.96759 4.25 4.4 4.25Z" fill="#F7F9FA"/>
</svg>
