<svg width="26" height="19" viewBox="0 0 26 19" fill="none" xmlns="http://www.w3.org/2000/svg">
<path fill-rule="evenodd" clip-rule="evenodd" d="M2.25 2.4082H14.7296C15.1438 2.4082 15.4796 2.74399 15.4796 3.1582V6.2143L16.9796 6.21431V3.1582C16.9796 1.91556 15.9722 0.908203 14.7296 0.908203H2.25C1.00736 0.908203 0 1.91556 0 3.15821V10.3316C0 11.5743 1.00736 12.5816 2.25 12.5816H7.42845V11.0816H2.25C1.83579 11.0816 1.5 10.7459 1.5 10.3316V3.15821C1.5 2.74399 1.83579 2.4082 2.25 2.4082Z" fill="#232333"/>
<path fill-rule="evenodd" clip-rule="evenodd" d="M23.7499 8.77539H10.7397C10.3255 8.77539 9.98975 9.11118 9.98975 9.52539V16.6988C9.98975 17.113 10.3255 17.4488 10.7397 17.4488H23.7499C24.1641 17.4488 24.4999 17.113 24.4999 16.6988V9.52539C24.4999 9.11117 24.1641 8.77539 23.7499 8.77539ZM10.7397 7.27539C9.49711 7.27539 8.48975 8.28275 8.48975 9.52539V16.6988C8.48975 17.9415 9.4971 18.9488 10.7397 18.9488H23.7499C24.9926 18.9488 25.9999 17.9415 25.9999 16.6988V9.52539C25.9999 8.28275 24.9926 7.27539 23.7499 7.27539H10.7397Z" fill="#232333"/>
<zoom style="dark" value="|:#F5F5F5|:#F5F5F5"/>
</svg>
