<svg width="24" height="24" viewBox="0 0 24 24" fill="none" xmlns="http://www.w3.org/2000/svg">
<path d="M14.5 11C14.7761 11 15 10.7761 15 10.5C15 10.2239 14.7761 10 14.5 10L8.5 10C8.22386 10 8 10.2239 8 10.5C8 10.7761 8.22386 11 8.5 11L14.5 11Z" fill="#F7F9FA"/>
<path fill-rule="evenodd" clip-rule="evenodd" d="M19 10.5C19 12.2105 18.4274 13.7873 17.4633 15.0491L20.7071 18.2929C21.0976 18.6834 21.0976 19.3166 20.7071 19.7071C20.3166 20.0976 19.6834 20.0976 19.2929 19.7071L16.0491 16.4633C14.7873 17.4274 13.2105 18 11.5 18C7.35786 18 4 14.6421 4 10.5C4 6.35786 7.35786 3 11.5 3C15.6421 3 19 6.35786 19 10.5ZM11.5 16C14.5376 16 17 13.5376 17 10.5C17 7.46243 14.5376 5 11.5 5C8.46243 5 6 7.46243 6 10.5C6 13.5376 8.46243 16 11.5 16Z" fill="#F7F9FA"/>
</svg>
