<svg width="24" height="24" viewBox="0 0 24 24" fill="none" xmlns="http://www.w3.org/2000/svg">
<path d="M12 7.5C12 7.22386 11.7761 7 11.5 7C11.2239 7 11 7.22386 11 7.5V10H8.5C8.22386 10 8 10.2239 8 10.5C8 10.7761 8.22386 11 8.5 11H11V13.5C11 13.7761 11.2239 14 11.5 14C11.7761 14 12 13.7761 12 13.5V11H14.5C14.7761 11 15 10.7761 15 10.5C15 10.2239 14.7761 10 14.5 10H12V7.5Z" fill="#F7F9FA"/>
<path fill-rule="evenodd" clip-rule="evenodd" d="M17.4633 15.0491C18.4274 13.7873 19 12.2105 19 10.5C19 6.35786 15.6421 3 11.5 3C7.35786 3 4 6.35786 4 10.5C4 14.6421 7.35786 18 11.5 18C13.2105 18 14.7873 17.4274 16.0491 16.4633L19.2929 19.7071C19.6834 20.0976 20.3166 20.0976 20.7071 19.7071C21.0976 19.3166 21.0976 18.6834 20.7071 18.2929L17.4633 15.0491ZM17 10.5C17 13.5376 14.5376 16 11.5 16C8.46243 16 6 13.5376 6 10.5C6 7.46243 8.46243 5 11.5 5C14.5376 5 17 7.46243 17 10.5Z" fill="#F7F9FA"/>
</svg>
