<svg width="16" height="16" viewBox="0 0 16 16" fill="none" xmlns="http://www.w3.org/2000/svg">
<path d="M16 8C16 12.4183 12.4183 16 8 16C3.58172 16 0 12.4183 0 8C0 3.58172 3.58172 0 8 0C12.4183 0 16 3.58172 16 8Z" fill="#FFD700"/>
<path d="M7.99905 9.602C7.80272 9.602 7.6389 9.45206 7.62155 9.25651L7.242 4.97789C7.20234 4.53085 7.55456 4.146 8.00336 4.146C8.45277 4.146 8.80519 4.53184 8.76459 4.97941L8.37648 9.25726C8.35876 9.45249 8.19508 9.602 7.99905 9.602ZM8.0042 12.088C7.77687 12.088 7.58253 12.0257 7.4212 11.901C7.25987 11.7763 7.1792 11.56 7.1792 11.252C7.1792 10.9367 7.25987 10.7203 7.4212 10.603C7.58253 10.4857 7.77687 10.427 8.0042 10.427C8.2242 10.427 8.41487 10.4857 8.5762 10.603C8.74487 10.7203 8.8292 10.9367 8.8292 11.252C8.8292 11.5673 8.74487 11.7873 8.5762 11.912C8.41487 12.0293 8.2242 12.088 8.0042 12.088Z" fill="#B36200"/>
</svg>
