<svg width="16" height="16" viewBox="0 0 16 16" fill="none" xmlns="http://www.w3.org/2000/svg">
<path d="M2 3.54546C2 2.99317 2.44772 2.54546 3 2.54546H4.27273C4.82501 2.54546 5.27273 2.99317 5.27273 3.54546V4.81818C5.27273 5.37047 4.82501 5.81818 4.27273 5.81818H3C2.44771 5.81818 2 5.37047 2 4.81818V3.54546Z" fill="#F7F9FA"/>
<path d="M6.36364 3.54546C6.36364 2.99317 6.81135 2.54546 7.36364 2.54546H11.9091C12.4614 2.54546 12.9091 2.99317 12.9091 3.54546V4.81818C12.9091 5.37047 12.4614 5.81818 11.9091 5.81818H7.36364C6.81135 5.81818 6.36364 5.37047 6.36364 4.81818V3.54546Z" fill="#F7F9FA"/>
<path d="M2 7.36364C2 6.81135 2.44772 6.36364 3 6.36364H4.27273C4.82501 6.36364 5.27273 6.81135 5.27273 7.36364V8.63636C5.27273 9.18865 4.82501 9.63636 4.27273 9.63636H3C2.44771 9.63636 2 9.18865 2 8.63636V7.36364Z" fill="#F7F9FA"/>
<path d="M6.36364 7.36364C6.36364 6.81135 6.81135 6.36364 7.36364 6.36364H11.9091C12.4614 6.36364 12.9091 6.81135 12.9091 7.36364V8.63636C12.9091 9.18865 12.4614 9.63636 11.9091 9.63636H7.36364C6.81135 9.63636 6.36364 9.18865 6.36364 8.63636V7.36364Z" fill="#F7F9FA"/>
<path d="M2 11.1818C2 10.6295 2.44772 10.1818 3 10.1818H4.27273C4.82501 10.1818 5.27273 10.6295 5.27273 11.1818V12.4545C5.27273 13.0068 4.82501 13.4545 4.27273 13.4545H3C2.44771 13.4545 2 13.0068 2 12.4545V11.1818Z" fill="#F7F9FA"/>
<path d="M6.36364 11.1818C6.36364 10.6295 6.81135 10.1818 7.36364 10.1818H11.9091C12.4614 10.1818 12.9091 10.6295 12.9091 11.1818V12.4545C12.9091 13.0068 12.4614 13.4545 11.9091 13.4545H7.36364C6.81135 13.4545 6.36364 13.0068 6.36364 12.4545V11.1818Z" fill="#F7F9FA"/>
</svg>
