<svg width="16" height="16" viewBox="0 0 16 16" fill="none" xmlns="http://www.w3.org/2000/svg"><path d="M4.93741 2C5.35101 2 5.6875 2.33651 5.6875 2.75011V3.77501C5.6875 3.97531 5.6095 4.16381 5.4678 4.30551L4.54971 5.2236C4.07221 5.7013 3.92812 6.40671 4.18292 7.02121C5.07672 9.17511 6.8249 10.9233 8.9794 11.8175C9.1762 11.899 9.38459 11.9404 9.59869 11.9404C10.0358 11.9404 10.4652 11.7618 10.7766 11.4503L11.6948 10.532C11.8342 10.3926 12.0272 10.3126 12.2246 10.3126H13.2501C13.6637 10.3126 14.0001 10.649 14.0001 11.0626V12.3751C14.0001 13.2711 13.2644 14 12.3572 14C6.64631 13.9904 2.00012 9.33621 2.00012 3.62511C2.00012 2.72911 2.72911 2.00011 3.62521 2.00011L4.93741 2ZM4.93741 1L3.625 1.00011C2.1752 1.00011 1 2.17531 1 3.62511C1 9.90071 6.08222 14.9894 12.3553 15H12.3598C13.8116 15 14.9999 13.8274 14.9999 12.3751V11.0626C14.9999 10.096 14.2163 9.31261 13.2499 9.31261H12.2244C11.7604 9.31261 11.3153 9.4969 10.9873 9.8251L10.0692 10.7433C9.94271 10.8698 9.77151 10.9404 9.59851 10.9404C9.51851 10.9404 9.4383 10.9253 9.362 10.8936C7.4393 10.0956 5.90409 8.56051 5.10629 6.63791C5.00619 6.39641 5.07181 6.11571 5.25671 5.93071L6.1748 5.01251C6.5029 4.68431 6.68741 4.23911 6.68741 3.77501V2.75011C6.68761 1.78351 5.90401 1 4.93741 1Z" fill="#3B90F7"/></svg>
