<svg width="16" height="16" viewBox="0 0 16 16" fill="none" xmlns="http://www.w3.org/2000/svg">
<path fill-rule="evenodd" clip-rule="evenodd" d="M11 0C10.4477 0 10 0.447715 10 1C10 1.55228 10.4477 2 11 2H12.5858L9.29289 5.29289C8.90237 5.68342 8.90237 6.31658 9.29289 6.70711C9.68342 7.09763 10.3166 7.09763 10.7071 6.70711L14 3.41421V5C14 5.55228 14.4477 6 15 6C15.5523 6 16 5.55228 16 5V1C16 0.447715 15.5523 0 15 0H11ZM6.70711 9.29289C6.31658 8.90237 5.68342 8.90237 5.29289 9.29289L2 12.5858V11C2 10.4477 1.55228 10 1 10C0.447715 10 0 10.4477 0 11V15C0 15.5523 0.447715 16 1 16H5C5.55228 16 6 15.5523 6 15C6 14.4477 5.55228 14 5 14H3.41421L6.70711 10.7071C7.09763 10.3166 7.09763 9.68342 6.70711 9.29289Z" fill="#6E7680"/>
<zoom style="dark" value="|:#98A0A9|:#98A0A9"/>
</svg>
