<svg width="16" height="16" viewBox="0 0 16 16" fill="none" xmlns="http://www.w3.org/2000/svg">
<path fill-rule="evenodd" clip-rule="evenodd" d="M15.7071 0.292893C15.3166 -0.0976311 14.6834 -0.0976311 14.2929 0.292893L11 3.58579V2C11 1.44772 10.5523 1 10 1C9.44771 1 9 1.44772 9 2V6C9 6.55228 9.44771 7 10 7H14C14.5523 7 15 6.55228 15 6C15 5.44772 14.5523 5 14 5H12.4142L15.7071 1.70711C16.0976 1.31658 16.0976 0.683417 15.7071 0.292893ZM2 9C1.44772 9 1 9.44771 1 10C1 10.5523 1.44772 11 2 11H3.58579L0.292893 14.2929C-0.0976311 14.6834 -0.0976311 15.3166 0.292893 15.7071C0.683417 16.0976 1.31658 16.0976 1.70711 15.7071L5 12.4142V14C5 14.5523 5.44772 15 6 15C6.55228 15 7 14.5523 7 14V10C7 9.44771 6.55228 9 6 9H2Z" fill="#6E7680"/>
<zoom style="dark" value="|:#98A0A9|:#98A0A9"/>
</svg>
