<svg width="16" height="16" viewBox="0 0 16 16" fill="none" xmlns="http://www.w3.org/2000/svg">
<path d="M10 1C9.44772 1 9 1.44772 9 2C9 2.55228 9.44772 3 10 3H11.5858L6.29289 8.29289C5.90237 8.68342 5.90237 9.31658 6.29289 9.70711C6.68342 10.0976 7.31658 10.0976 7.70711 9.70711L13 4.41421V6C13 6.55228 13.4477 7 14 7C14.5523 7 15 6.55228 15 6V2C15 1.44772 14.5523 1 14 1H10Z" fill="#6E7680"/>
<path d="M3.00098 5.00104C3.00098 3.89647 3.89641 3.00104 5.00098 3.00104H6.5C7.05228 3.00104 7.5 2.55332 7.5 2.00104C7.5 1.44875 7.05228 1.00104 6.5 1.00104H5.00098C2.79184 1.00104 1.00098 2.7919 1.00098 5.00104V11.001C1.00098 13.2102 2.79184 15.001 5.00098 15.001H11.0003C13.2098 15.001 15.0008 13.2096 15.0003 11.0002L15 9.49978C14.9999 8.9475 14.5521 8.49988 13.9998 8.5C13.4475 8.50012 12.9999 8.94793 13 9.50022L13.0003 11.0006C13.0006 12.1053 12.1051 13.001 11.0003 13.001H5.00098C3.89641 13.001 3.00098 12.1056 3.00098 11.001V5.00104Z" fill="#6E7680"/>
<zoom style="dark" value="|:#98A0A9|:#98A0A9"/>
</svg>
