<svg width="16" height="16" viewBox="0 0 16 16" fill="none" xmlns="http://www.w3.org/2000/svg">
<path d="M11 10C11.5523 10 12 9.55229 12 9C12 8.44772 11.5523 8 11 8H9.41421L14.7071 2.70711C15.0976 2.31658 15.0976 1.68342 14.7071 1.29289C14.3166 0.902369 13.6834 0.902369 13.2929 1.29289L8 6.58579V5C8 4.44772 7.55229 4 7 4C6.44772 4 6 4.44772 6 5L6 9C6 9.55229 6.44772 10 7 10L11 10Z" fill="#6E7680"/>
<path d="M3.00098 5.00104C3.00098 3.89647 3.89641 3.00104 5.00098 3.00104H6.5C7.05228 3.00104 7.5 2.55332 7.5 2.00104C7.5 1.44875 7.05228 1.00104 6.5 1.00104H5.00098C2.79184 1.00104 1.00098 2.7919 1.00098 5.00104V11.001C1.00098 13.2102 2.79184 15.001 5.00098 15.001H11.001C13.2101 15.001 15.001 13.2102 15.001 11.001V9.5C15.001 8.94772 14.5533 8.5 14.001 8.5C13.4487 8.5 13.001 8.94772 13.001 9.5V11.001C13.001 12.1056 12.1055 13.001 11.001 13.001H5.00098C3.89641 13.001 3.00098 12.1056 3.00098 11.001V5.00104Z" fill="#6E7680"/>
<zoom style="dark" value="|:#98A0A9|:#98A0A9"/>
</svg>
