<svg width="12" height="12" viewBox="0 0 12 12" fill="none" xmlns="http://www.w3.org/2000/svg">
<path d="M4.125 0.416667C4.125 0.186548 4.31155 0 4.54167 0H7.45833C7.68845 0 7.875 0.186548 7.875 0.416667C7.875 0.646785 7.68845 0.833333 7.45833 0.833333H6.375V1.13793C7.4391 1.21149 8.4645 1.59709 9.31864 2.25518L9.32034 2.25649L9.73146 1.80735C9.88683 1.6376 10.1504 1.62595 10.3201 1.78133C10.4899 1.9367 10.5015 2.20026 10.3462 2.37001L9.93936 2.81443C10.6638 3.57589 11.1565 4.53596 11.3483 5.58149C11.5907 6.90292 11.3353 8.26731 10.6313 9.41159C9.92737 10.5559 8.82472 11.3991 7.53596 11.7786C6.24719 12.1581 4.86356 12.047 3.65182 11.4668C2.55082 10.9397 1.66255 10.0591 1.125 8.971V10.125C1.125 10.3321 0.957107 10.5 0.75 10.5C0.542893 10.5 0.375 10.3321 0.375 10.125V8.4C0.375 8.11005 0.610051 7.875 0.9 7.875H2.625C2.83211 7.875 3 8.04289 3 8.25C3 8.45711 2.83211 8.625 2.625 8.625H1.79063C2.25333 9.56939 3.02192 10.3337 3.9757 10.7904C5.02031 11.2905 6.2131 11.3863 7.3241 11.0591C8.43511 10.7319 9.38566 10.0051 9.99251 9.01862C10.5994 8.03216 10.8195 6.85597 10.6106 5.7168C10.4016 4.57763 9.77835 3.55615 8.8609 2.84929C7.94345 2.14243 6.7968 1.80024 5.64201 1.88869C4.48722 1.97714 3.40606 2.48997 2.60697 3.32831C1.80788 4.16664 1.34743 5.27113 1.31441 6.42883C1.3085 6.63586 1.13589 6.79889 0.928865 6.79299C0.721843 6.78708 0.558805 6.61447 0.564711 6.40745C0.603021 5.06451 1.13714 3.78331 2.06409 2.81084C2.99103 1.83836 4.24518 1.24348 5.58474 1.14088L5.625 1.13795V0.833333H4.54167C4.31155 0.833333 4.125 0.646785 4.125 0.416667Z" fill="#fff" />
<path d="M6.375 4.125C6.375 3.91789 6.20711 3.75 6 3.75C5.79289 3.75 5.625 3.91789 5.625 4.125V6.43934L5.62491 6.47113C5.62438 6.58979 5.62371 6.74075 5.68209 6.88168C5.74047 7.02261 5.84768 7.12889 5.93196 7.21242L5.9545 7.23483L6.85983 8.14017C7.00628 8.28661 7.24372 8.28661 7.39017 8.14017C7.53661 7.99372 7.53661 7.75628 7.39017 7.60983L6.48483 6.7045C6.42676 6.64643 6.39793 6.61725 6.37867 6.59482L6.37762 6.59359L6.37749 6.59197C6.37525 6.56249 6.375 6.52147 6.375 6.43934V4.125Z" fill="#fff"/>
<zoom style="hot" value="|:#DDFFFFFF" />
</svg>
