<svg width="50" height="50" viewBox="0 0 50 50" fill="none" xmlns="http://www.w3.org/2000/svg">
<path d="M50 25C50 27.6734 49.7851 30.2948 49.3745 32.8509C48.0154 41.3127 41.3126 48.0154 32.8508 49.3745C30.2947 49.7851 27.6732 50 25 50C22.3268 50 19.7053 49.7851 17.1492 49.3745C8.68739 48.0154 1.98456 41.3127 0.625488 32.8509C0.214938 30.2949 0 27.6734 0 25C0 22.3266 0.214938 19.7052 0.625488 17.1491C1.98456 8.6873 8.68739 1.98455 17.1492 0.625484C19.7053 0.214935 22.3268 0 25 0C27.6732 0 30.2947 0.214935 32.8508 0.625484C41.3126 1.98455 48.0154 8.6873 49.3745 17.1491C49.7851 19.7051 50 22.3266 50 25Z" fill="#0B5CFF"/>
<path d="M50 25C50 27.6734 49.7851 30.2948 49.3745 32.8509C48.0154 41.3127 41.3126 48.0154 32.8508 49.3745C30.2947 49.7851 27.6732 50 25 50C22.3268 50 19.7053 49.7851 17.1492 49.3745C8.68739 48.0154 1.98456 41.3127 0.625488 32.8509C0.214938 30.2949 0 27.6734 0 25C0 22.3266 0.214938 19.7052 0.625488 17.1491C1.98456 8.6873 8.68739 1.98455 17.1492 0.625484C19.7053 0.214935 22.3268 0 25 0C27.6732 0 30.2947 0.214935 32.8508 0.625484C41.3126 1.98455 48.0154 8.6873 49.3745 17.1491C49.7851 19.7051 50 22.3266 50 25Z" fill="url(#paint0_radial_6_10209)"/>
<path d="M49.9998 25C49.9998 27.6733 49.7849 30.2948 49.3743 32.8508C48.0152 41.3127 41.3124 48.0154 32.8506 49.3744C30.2945 49.785 27.6731 49.9999 24.9999 49.9999C22.3267 49.9999 19.7052 49.785 17.1491 49.3744C8.68721 48.0154 1.98447 41.3127 0.625398 32.8508C0.214849 30.2947 0 27.6733 0 25C0 22.3267 0.214849 19.7051 0.625398 17.149C1.98456 8.6873 8.6873 1.98438 17.1491 0.625398C19.7053 0.214849 22.3266 0 24.9999 0C27.6732 0 30.2946 0.214849 32.8506 0.625398C41.3125 1.98438 48.0153 8.6873 49.3743 17.149C49.7849 19.7051 49.9998 22.3265 49.9998 25Z" fill="url(#paint1_radial_6_10209)"/>
<g clip-path="url(#clip0_6_10209)">
<path d="M39.9148 14.7158C38.96 14.3862 37.9616 13.9468 37.2476 13.2006L37.2455 13.1986C36.544 12.4649 36.079 11.5425 35.7178 10.529C35.5933 10.1808 35.0993 10.1808 34.9768 10.529C34.6447 11.4804 34.1777 12.4669 33.4471 13.1986C32.7164 13.9302 31.6911 14.3758 30.7425 14.7116C30.3917 14.836 30.3979 15.3313 30.7487 15.4536C31.716 15.7894 32.6998 16.2474 33.4491 16.9936C34.1985 17.7397 34.5845 18.7139 34.9312 19.688C35.0578 20.0424 35.5622 20.0321 35.6763 19.6735C35.996 18.6662 36.436 17.6838 37.1936 16.9397C37.9429 16.2039 38.9517 15.7728 39.9107 15.4578C40.2656 15.3417 40.2677 14.838 39.9148 14.7158Z" fill="white"/>
<path d="M37.4196 24.5181C34.8064 23.6165 32.0748 22.4144 30.1195 20.3707V20.3687C28.2016 18.3623 26.9292 15.8399 25.9391 13.0647C25.5987 12.1112 24.2475 12.1092 23.9112 13.0647C22.9979 15.6658 21.7276 18.3665 19.7225 20.3687C17.7175 22.3708 14.9132 23.5916 12.3187 24.5098C11.3597 24.8497 11.3742 26.2052 12.3353 26.5389C14.9817 27.4571 17.6884 28.7214 19.7225 30.7526C21.7712 32.7983 22.8277 35.4617 23.7784 38.1292C24.125 39.1012 25.5074 39.0722 25.8188 38.0898C26.6926 35.3311 27.9235 32.6159 29.9721 30.6055C32.0208 28.595 34.7814 27.4157 37.4051 26.5514C38.3786 26.2301 38.3869 24.8518 37.4196 24.5181Z" fill="white"/>
</g>
<defs>
<radialGradient id="paint0_radial_6_10209" cx="0" cy="0" r="1" gradientUnits="userSpaceOnUse" gradientTransform="translate(25 22.0948) scale(33.7065 28.1713)">
<stop offset="0.82" stop-color="#0B5CFF" stop-opacity="0"/>
<stop offset="0.98" stop-color="#003CB3"/>
</radialGradient>
<radialGradient id="paint1_radial_6_10209" cx="0" cy="0" r="1" gradientUnits="userSpaceOnUse" gradientTransform="translate(24.9999 27.8948) scale(33.6945 28.1612)">
<stop offset="0.8" stop-color="#0B5CFF" stop-opacity="0"/>
<stop offset="1" stop-color="#71A5F1"/>
</radialGradient>
<clipPath id="clip0_6_10209">
<rect width="32.1429" height="32.1429" fill="white" transform="translate(8.92847 8.92856)"/>
</clipPath>
</defs>
</svg>
