<svg width="24" height="24" viewBox="0 0 24 24" fill="none" xmlns="http://www.w3.org/2000/svg">
<path fill-rule="evenodd" clip-rule="evenodd" d="M13.5 0H3C1.3431 0 0 1.3431 0 3V9C0 10.6569 1.3431 12 3 12H3.00018V14.9985C3.00018 15.6666 3.80791 16.0013 4.28041 15.5288L7.15022 12.6589C7.57217 12.237 8.14442 12 8.74127 12H13.5C15.1569 12 16.5 10.6569 16.5 9V3C16.5 1.3431 15.1569 0 13.5 0ZM24 11.25V17.25C24 18.9069 22.6569 20.25 21 20.25H20.9999V23.2485C20.9999 23.9166 20.1921 24.2513 19.7196 23.7788L16.8498 20.9089C16.4279 20.487 15.8556 20.25 15.2589 20.25H10.5C8.8431 20.25 7.5 18.9069 7.5 17.25V15.0885C7.5 14.6672 7.66742 14.2632 7.96532 13.9653C8.26322 13.6674 8.66733 13.5 9.08853 13.5H13.5C15.9853 13.5 18 11.4852 18 9V8.25H21C22.6569 8.25 24 9.5931 24 11.25Z" fill="white" fill-opacity="0.62"/>
<zoom style="press" value="|:#FFFFFFCC"/>
</svg>
