<svg width="24" height="24" viewBox="0 0 24 24" fill="none" xmlns="http://www.w3.org/2000/svg">
    <path d="M14.25 1.12492V22.875C14.25 23.7976 13.2005 24.3223 12.4577 23.775L7.125 18.75H4.5C2.01473 18.75 0 16.7352 0 14.25V9.74997C0 7.26468 2.01473 5.24997 4.5 5.24997H7.125L12.4577 0.224994C13.2005 -0.32233 14.25 0.202259 14.25 1.12492Z" fill="white" fill-opacity="0.62"/>
    <path d="M17.7804 8.46968C17.4874 8.17677 17.0126 8.17677 16.7196 8.46968C16.4268 8.76257 16.4268 9.23744 16.7196 9.53033L19.1893 12L16.7196 14.4697C16.4268 14.7626 16.4268 15.2375 16.7196 15.5304C17.0126 15.8232 17.4874 15.8232 17.7804 15.5304L20.25 13.0607L22.7196 15.5304C23.0125 15.8232 23.4874 15.8232 23.7804 15.5304C24.0732 15.2375 24.0732 14.7626 23.7804 14.4697L21.3106 12L23.7804 9.53033C24.0732 9.23744 24.0732 8.76257 23.7804 8.46968C23.4874 8.17677 23.0125 8.17677 22.7196 8.46968L20.25 10.9393L17.7804 8.46968Z" fill="white" fill-opacity="0.62"/>
    <zoom style="press" value="|:#FFFFFFCC"/>
</svg>
