<svg width="24" height="24" viewBox="0 0 24 24" fill="none" xmlns="http://www.w3.org/2000/svg">
<g clip-path="url(#clip0_3309_325088)">
<path d="M15.5506 8.4845C17.193 10.2012 19.4875 11.2109 21.6826 11.9683C22.4951 12.2486 22.4882 13.4064 21.6704 13.6762C19.4666 14.4022 17.1477 15.3929 15.4268 17.0817C13.7059 18.7705 12.672 21.0512 11.9379 23.3685C11.6764 24.1938 10.5152 24.2181 10.224 23.4016C9.42547 21.1609 8.538 18.9237 6.81711 17.2053C5.10843 15.4991 2.83484 14.4371 0.611809 13.6658C-0.195456 13.3855 -0.207661 12.2469 0.59786 11.9613C2.7773 11.1901 5.13284 10.1646 6.81711 8.48276C8.50138 6.80094 9.56844 4.53238 10.3356 2.3474C10.6181 1.54479 11.7531 1.54653 12.0391 2.3474C12.8707 4.67863 13.9395 6.79745 15.5506 8.48276V8.4845Z" fill="#ffffff9E"/>
<path d="M21.5382 2.46159C22.1379 3.08836 22.9766 3.45746 23.7786 3.73428C24.075 3.837 24.0733 4.26007 23.7751 4.35757C22.9696 4.6222 22.1222 4.98433 21.4928 5.6024C20.8564 6.22743 20.4868 7.05267 20.2183 7.89881C20.1224 8.2 19.6987 8.20871 19.5924 7.91099C19.3012 7.09271 18.9769 6.27443 18.3475 5.64766C17.718 5.0209 16.8916 4.63613 16.0791 4.35408C15.7844 4.25136 15.7792 3.83526 16.0739 3.7308C16.8707 3.44875 17.732 3.07443 18.3457 2.45985C18.9594 1.84527 19.3517 1.01655 19.6307 0.217416C19.7336 -0.0750761 20.1485 -0.0750761 20.2532 0.217416C20.5565 1.06878 20.9471 1.84353 21.5364 2.45985L21.5382 2.46159Z" fill="#ffffff9E"/>
</g>
<defs>
<clipPath id="clip0_3309_325088">
<rect width="24" height="24" fill="white"/>
</clipPath>
</defs>
<zoom style="press" value=":none|:#ffffffCC|:#ffffffCC|:#ffffffCC"/>
</svg>
