<svg width="24" height="24" viewBox="0 0 24 24" fill="none" xmlns="http://www.w3.org/2000/svg">
<path fill-rule="evenodd" clip-rule="evenodd" d="M12 2C11.7992 2 11.5984 2.06654 11.4594 2.1996C10.1887 3.41575 6.88309 6.25496 3.75939 6.22397C3.42645 6.22067 3.12142 6.44704 3.09241 6.76496C3.07089 7.00063 3.05325 7.23319 3.03936 7.4626C2.4807 16.6889 7.98943 20.8817 11.9363 21.9911C11.9574 21.997 11.9787 22 12 22C12.0213 22 12.0426 21.997 12.0637 21.9911C15.3236 21.0748 19.6488 18.0552 20.7411 11.8334C21.0042 10.3348 21.0797 8.65044 20.9076 6.76499C20.8786 6.44707 20.5736 6.2207 20.2406 6.224C17.1169 6.25499 13.8112 3.41579 12.5406 2.19963C12.4015 2.06656 12.2008 2 12 2ZM19.5437 11.8334C19.7934 10.512 19.8874 9.02026 19.7709 7.34135C18.0347 7.23038 16.3751 6.45207 15.0524 5.62715C13.7767 4.83159 12.6979 3.91858 12 3.27484L12 11.8333H4.45626C4.85589 13.9488 5.65437 15.6278 6.62661 16.9395C8.19484 19.0552 10.2616 20.2782 12 20.8262V11.8333L19.5437 11.8334Z" fill="white" fill-opacity="0.62"/>
<zoom style="press" value="|:#FFFFFFCC"/>
</svg>
