<svg width="24" height="24" viewBox="0 0 24 24" fill="none" xmlns="http://www.w3.org/2000/svg">
<path fill-rule="evenodd" clip-rule="evenodd" d="M2.17371 5C0.973202 5 0 5.9732 0 7.17371V14.6526C0 17.0536 1.9464 19 4.34741 19H14.8263C16.0268 19 17 18.0268 17 16.8263V9.34741C17 6.9464 15.0536 5 12.6526 5H2.17371ZM24 6.96377V17.0362C24 17.8535 23.0728 18.3257 22.4118 17.845L19.3237 15.599C18.8062 15.2227 18.5 14.6214 18.5 13.9816V10.0184C18.5 9.37858 18.8062 8.77733 19.3237 8.40098L22.4118 6.15503C23.0728 5.67433 24 6.14648 24 6.96377Z" fill="white" fill-opacity="0.62"/>
<zoom style="press" value="|:#FFFFFFCC"/>
<zoom style="disable" value="|:#707376"/>
</svg>
