<svg width="25" height="24" viewBox="0 0 25 24" fill="none" xmlns="http://www.w3.org/2000/svg">
<path fill-rule="evenodd" clip-rule="evenodd" d="M21.25 4.11612C21.25 3.45371 20.8155 2.86972 20.181 2.67938L13.181 0.579381C12.2186 0.290655 11.25 1.01133 11.25 2.01612V21.984C11.25 22.9888 12.2186 23.7095 13.181 23.4208L20.181 21.3208C20.8155 21.1304 21.25 20.5464 21.25 19.884V4.11612ZM9.75 3.00007C9.75 2.58586 9.41421 2.25007 9 2.25007H5.75C4.50736 2.25007 3.5 3.25743 3.5 4.50007V19.5001C3.5 20.7427 4.50736 21.7501 5.75 21.7501H9C9.41421 21.7501 9.75 21.4143 9.75 21.0001C9.75 20.5859 9.41421 20.2501 9 20.2501H5.75C5.33579 20.2501 5 19.9143 5 19.5001V4.50007C5 4.08586 5.33579 3.75007 5.75 3.75007H9C9.41421 3.75007 9.75 3.41429 9.75 3.00007ZM14 12.6708C14.4142 12.6708 14.75 12.335 14.75 11.9208C14.75 11.5066 14.4142 11.1708 14 11.1708C13.5858 11.1708 13.25 11.5066 13.25 11.9208C13.25 12.335 13.5858 12.6708 14 12.6708Z" fill="white" fill-opacity="0.62"/>
</svg>
