<svg width="24" height="24" viewBox="0 0 24 24" fill="none" xmlns="http://www.w3.org/2000/svg">
<path fill-rule="evenodd" clip-rule="evenodd" d="M8.9212 12.6544C8.50266 12.0716 8.14172 11.4439 7.84629 10.7792C7.63068 10.294 7.67848 9.73228 7.97296 9.29056L8.7902 8.0647C9.25303 7.37046 9.5 6.55476 9.5 5.72039V5.1142C9.5 5.00817 9.5 4.95515 9.49866 4.91032C9.45121 3.32381 8.1762 2.04879 6.58968 2.00134C6.54485 2 6.49183 2 6.3858 2H5C3.34315 2 2 3.34315 2 5C2 9.077 3.43519 12.8188 5.82791 15.7477L8.9212 12.6544ZM8.25227 18.1721L11.3456 15.0788C11.9284 15.4973 12.5561 15.8583 13.2208 16.1537C13.706 16.3693 14.2677 16.3215 14.7094 16.027L15.9353 15.2098C16.6295 14.747 17.4452 14.5 18.2796 14.5H18.8858C18.9918 14.5 19.0448 14.5 19.0897 14.5013C20.6762 14.5488 21.9512 15.8238 21.9987 17.4103C22 17.4552 22 17.5082 22 17.6142V19C22 20.6569 20.6569 22 19 22C14.923 22 11.1812 20.5648 8.25227 18.1721Z" fill="white" fill-opacity="0.62"/>
<path d="M22 2L1 23" stroke="#FF5C5C" stroke-width="1.5" stroke-linecap="round"/>
<zoom style="press" value="|:#FFFFFFCC"/>
</svg>
