<svg width="24" height="24" viewBox="0 0 24 24" fill="none" xmlns="http://www.w3.org/2000/svg">
<path fill-rule="evenodd" clip-rule="evenodd" d="M12 11.5C14.2091 11.5 16 9.70914 16 7.5C16 5.29086 14.2091 3.5 12 3.5C9.79086 3.5 8 5.29086 8 7.5C8 9.70914 9.79086 11.5 12 11.5ZM18.7927 16.011C18.8532 16.09 18.91 16.1702 18.9631 16.2517C19.3133 16.7892 19.5 17.3799 19.5 18C19.5 19.6569 18.1568 21 16.5 21H7.5C5.84317 21 4.5 19.6569 4.5 18C4.5 17.3507 4.70506 16.7307 5.09202 16.1695C5.39443 15.7309 5.80794 15.3282 6.32149 14.9754C6.39953 14.9217 6.47989 14.8693 6.56251 14.818C7.8748 14.0038 9.74968 13.5 12 13.5C14.2503 13.5 16.1252 14.0038 17.4375 14.818C17.507 14.8611 17.5748 14.9051 17.6411 14.9498C18.0943 15.2563 18.4726 15.602 18.767 15.978L18.7927 16.011ZM17.5 11C17.5 10.5858 17.8358 10.25 18.25 10.25H20V8.5C20 8.08579 20.3358 7.75 20.75 7.75C21.1642 7.75 21.5 8.08579 21.5 8.5V10.25H23.25C23.6642 10.25 24 10.5858 24 11C24 11.4142 23.6642 11.75 23.25 11.75H21.5V13.5C21.5 13.9142 21.1642 14.25 20.75 14.25C20.3358 14.25 20 13.9142 20 13.5V11.75H18.25C17.8358 11.75 17.5 11.4142 17.5 11Z" fill="white" fill-opacity="0.62"/>
<zoom style="press" value="|:#FFFFFFCC"/>
</svg>

