<svg width="24" height="24" viewBox="0 0 24 24" fill="none" xmlns="http://www.w3.org/2000/svg">
<path d="M19.5011 1.00069C19.5011 0.586633 19.8368 0.250977 20.2508 0.250977C20.6649 0.250977 21.0005 0.586633 21.0005 1.00069V3.00238H23.0006C23.4145 3.00238 23.75 3.33792 23.75 3.75182C23.75 4.16573 23.4145 4.50126 23.0006 4.50126H21.0005V6.49895C21.0005 6.91301 20.6649 7.24866 20.2508 7.24866C19.8368 7.24866 19.5011 6.91301 19.5011 6.49895V4.50126H17.498C17.0841 4.50126 16.7485 4.16573 16.7485 3.75182C16.7485 3.33792 17.0841 3.00238 17.498 3.00238H19.5011V1.00069Z" fill="white" fill-opacity="0.62"/>
<path fill-rule="evenodd" clip-rule="evenodd" d="M12 3H14.2C14.875 3 15.2181 3.57975 15.2632 3.99593C15.3853 5.12298 16.3399 6.00029 17.4994 6.00029H18.0026V6.49798C18.0026 7.64895 18.8669 8.59804 19.9819 8.7316C20.3969 8.78132 21.0005 9 21 9.8V12C21 16.9706 16.9706 21 12 21C7.02944 21 3 16.9706 3 12C3 7.02944 7.02944 3 12 3ZM9.60002 12.0001C10.2628 12.0001 10.8 11.4628 10.8 10.8001C10.8 10.1374 10.2628 9.6001 9.60002 9.6001C8.93728 9.6001 8.40002 10.1374 8.40002 10.8001C8.40002 11.4628 8.93728 12.0001 9.60002 12.0001ZM15.6 10.8001C15.6 11.4628 15.0627 12.0001 14.4 12.0001C13.7372 12.0001 13.2 11.4628 13.2 10.8001C13.2 10.1374 13.7372 9.6001 14.4 9.6001C15.0627 9.6001 15.6 10.1374 15.6 10.8001ZM9.31846 13.4298C9.11382 13.0696 8.65598 12.9436 8.29585 13.1482C7.93572 13.3529 7.80966 13.8107 8.0143 14.1708C8.95441 15.8253 10.7877 16.3503 12.0001 16.3503C13.2124 16.3503 15.0457 15.8253 15.9858 14.1708C16.1905 13.8107 16.0644 13.3529 15.7043 13.1482C15.3441 12.9436 14.8863 13.0696 14.6817 13.4298C14.1034 14.4473 12.8983 14.8503 12.0001 14.8503C11.1019 14.8503 9.89668 14.4473 9.31846 13.4298Z" fill="white" fill-opacity="0.62"/>
<zoom style="press" value="|:#FFFFFFCC|:#FFFFFFCC"/>
</svg>
