<svg width="24" height="24" viewBox="0 0 24 24" fill="none" xmlns="http://www.w3.org/2000/svg">
<path fill-rule="evenodd" clip-rule="evenodd" d="M12 3C16.9706 3 21 7.02944 21 12V13H21.5C22.8807 13 24 14.1193 24 15.5V17.5C24 18.8807 22.8807 20 21.5 20H20.75C20.1977 20 19.75 19.5523 19.75 19V13.9961V13V12C19.75 7.71979 16.2802 4.25 12 4.25C7.71979 4.25 4.25 7.71979 4.25 12V13V14.0038V19C4.25 19.5523 3.80228 20 3.25 20H2.5C1.11929 20 0 18.8807 0 17.5V15.5C0 14.1193 1.11929 13 2.5 13H3V12C3 7.02944 7.02944 3 12 3Z" fill="white" fill-opacity="0.62"/>
<path d="M12 12V19.25" stroke="#23D959" stroke-width="1.5" stroke-linecap="round"/>
<path d="M15 14L12 11L9 14" stroke="#23D959" stroke-width="1.5" stroke-linecap="round" stroke-linejoin="round"/>
<zoom style="press" value="|:#FFFFFFCC"/>
</svg>
