<svg width="24" height="24" viewBox="0 0 24 24" fill="none" xmlns="http://www.w3.org/2000/svg">
<path fill-rule="evenodd" clip-rule="evenodd" d="M3 3C1.34315 3 0 4.34315 0 6V18C0 19.6569 1.34315 21 3 21H21C22.6569 21 24 19.6569 24 18V6C24 4.34315 22.6569 3 21 3H3ZM11.4971 13.1465C11.375 14.6504 10.1348 15.6807 8.43555 15.6807C6.39453 15.6807 5.12988 14.2646 5.12988 11.9746C5.12988 9.68457 6.38965 8.27344 8.43555 8.27344C10.1055 8.27344 11.3848 9.36719 11.4922 10.8809H10.0566C9.91504 10.0654 9.27539 9.52832 8.43555 9.52832C7.32715 9.52832 6.63867 10.4658 6.63867 11.9746C6.63867 13.4834 7.32715 14.4209 8.44043 14.4209C9.28516 14.4209 9.91992 13.9229 10.0615 13.1465H11.4971ZM18.9092 13.1465C18.7871 14.6504 17.5469 15.6807 15.8477 15.6807C13.8066 15.6807 12.542 14.2646 12.542 11.9746C12.542 9.68457 13.8018 8.27344 15.8477 8.27344C17.5176 8.27344 18.7969 9.36719 18.9043 10.8809H17.4688C17.3271 10.0654 16.6875 9.52832 15.8477 9.52832C14.7393 9.52832 14.0508 10.4658 14.0508 11.9746C14.0508 13.4834 14.7393 14.4209 15.8525 14.4209C16.6973 14.4209 17.332 13.9229 17.4736 13.1465H18.9092Z" fill="white" fill-opacity="0.62"/>
<zoom style="press" value="|:#FFFFFFCC"/>
</svg>
