<svg width="24" height="24" viewBox="0 0 24 24" fill="none" xmlns="http://www.w3.org/2000/svg">
<path d="M14.25 22.875V1.12492C14.25 0.202258 13.2004 -0.32233 12.4577 0.224994L7.125 5.24997H4.5C2.01472 5.24997 0 7.26469 0 9.74997V14.25C0 16.7353 2.01472 18.75 4.5 18.75H7.125L12.4577 23.775C13.2004 24.3223 14.25 23.7977 14.25 22.875Z" fill="white" fill-opacity="0.62"/>
<path d="M16.7197 7.71969C17.0126 7.4268 17.4874 7.4268 17.7803 7.71969C20.1443 10.0836 20.1443 13.9163 17.7803 16.2803C17.4874 16.5732 17.0126 16.5732 16.7197 16.2803C16.4268 15.9874 16.4268 15.5125 16.7197 15.2196C18.4978 13.4415 18.4978 10.5585 16.7197 8.78035C16.4268 8.48746 16.4268 8.01259 16.7197 7.71969Z" fill="white" fill-opacity="0.62"/>
<path d="M20.7803 4.71969C20.4874 4.4268 20.0126 4.4268 19.7197 4.71969C19.4268 5.01259 19.4268 5.48746 19.7197 5.78035C23.1547 9.21538 23.1547 14.7847 19.7197 18.2197C19.4268 18.5126 19.4268 18.9875 19.7197 19.2804C20.0126 19.5732 20.4874 19.5732 20.7803 19.2804C24.8011 15.2595 24.8011 8.74051 20.7803 4.71969Z" fill="white" fill-opacity="0.62"/>
<zoom style="press" value="|:#FFFFFFCC"/>
</svg>
