<svg width="24" height="24" viewBox="0 0 24 24" fill="none" xmlns="http://www.w3.org/2000/svg">
<path d="M6.3858 2H5C3.34315 2 2 3.34315 2 5C2 14.3888 9.61116 22 19 22C20.6569 22 22 20.6569 22 19V17.6142C22 17.5082 22 17.4552 21.9987 17.4103C21.9512 15.8238 20.6762 14.5488 19.0897 14.5013C19.0448 14.5 18.9918 14.5 18.8858 14.5H18.2796C17.4452 14.5 16.6295 14.747 15.9353 15.2098L14.7094 16.027C14.2677 16.3215 13.706 16.3693 13.2208 16.1537C10.8258 15.0892 8.91075 13.1742 7.84629 10.7792C7.63068 10.294 7.67848 9.73228 7.97296 9.29056L8.7902 8.0647C9.25303 7.37046 9.5 6.55476 9.5 5.72039V5.1142C9.5 5.00817 9.5 4.95515 9.49866 4.91032C9.45121 3.32381 8.1762 2.04879 6.58968 2.00134C6.54485 2 6.49183 2 6.3858 2Z" fill="white" fill-opacity="0.62"/>
<zoom style="press" value="|:#FFFFFFCC"/>
</svg>
