<svg width="24" height="24" viewBox="0 0 24 24" fill="none" xmlns="http://www.w3.org/2000/svg">
<path fill-rule="evenodd" clip-rule="evenodd" d="M0 7.8C0 6.11984 0 5.27976 0.32698 4.63803C0.614601 4.07354 1.07354 3.6146 1.63803 3.32698C2.27976 3 3.11984 3 4.8 3H19.2C20.8802 3 21.7202 3 22.362 3.32698C22.9265 3.6146 23.3854 4.07354 23.673 4.63803C24 5.27976 24 6.11984 24 7.8V16.2C24 17.8802 24 18.7202 23.673 19.362C23.3854 19.9265 22.9265 20.3854 22.362 20.673C21.7202 21 20.8802 21 19.2 21H4.8C3.11984 21 2.27976 21 1.63803 20.673C1.07354 20.3854 0.614601 19.9265 0.32698 19.362C0 18.7202 0 17.8802 0 16.2V7.8ZM12.9375 10.5133L14.3371 11.9129C14.7032 12.279 15.2968 12.279 15.6629 11.9129C16.029 11.5468 16.029 10.9532 15.6629 10.5871L12.6629 7.58709C12.2968 7.22097 11.7032 7.22097 11.3371 7.58709L8.33709 10.5871C7.97097 10.9532 7.97097 11.5468 8.33709 11.9129C8.7032 12.279 9.2968 12.279 9.66291 11.9129L11.0625 10.5133V15.75C11.0625 16.2678 11.4822 16.6875 12 16.6875C12.5178 16.6875 12.9375 16.2678 12.9375 15.75V10.5133Z" fill="#23D959"/>
<zoom style="press" value="|:#25E55F"/>
</svg>
