<svg width="24" height="24" viewBox="0 0 24 24" fill="none" xmlns="http://www.w3.org/2000/svg">
<path d="M21.7779 19.9441V21.1663C21.7779 21.8415 21.2307 22.3886 20.5557 22.3886H13.8885C13.509 22.3886 13.1347 22.3002 12.7953 22.1305L11.2846 21.3751C10.609 21.0373 10.609 20.073 11.2846 19.7353L12.7953 18.98C13.1347 18.8102 13.5089 18.7219 13.8884 18.7219H20.5557C21.2307 18.7219 21.7779 19.2691 21.7779 19.9441ZM16.2779 6.49997H10.4723C10.1345 6.49997 9.86122 6.77329 9.86122 7.11108C9.86122 7.44886 10.1345 7.72219 10.4723 7.72219H16.2779C16.6157 7.72219 16.889 7.44886 16.889 7.11108C16.889 6.77329 16.6157 6.49997 16.2779 6.49997ZM16.2779 9.55552H10.4723C10.1345 9.55552 9.86122 9.82885 9.86122 10.1666C9.86122 10.5044 10.1345 10.7777 10.4723 10.7777H16.2779C16.6157 10.7777 16.889 10.5044 16.889 10.1666C16.889 9.82885 16.6157 9.55552 16.2779 9.55552ZM13.8334 13.2222C13.8334 12.8844 13.5601 12.6111 13.2223 12.6111H10.4723C10.1345 12.6111 9.86122 12.8844 9.86122 13.2222C9.86122 13.56 10.1345 13.8333 10.4723 13.8333H13.2223C13.5601 13.8333 13.8334 13.56 13.8334 13.2222ZM8.94455 19.9441H8.02789C7.18545 19.9441 6.50011 19.2587 6.50011 18.4163V17.5H6.80566C7.14345 17.5 7.41678 17.2266 7.41678 16.8889C7.41678 16.5511 7.14345 16.2777 6.80566 16.2777H6.50011V15.0555H6.80566C7.14345 15.0555 7.41678 14.7822 7.41678 14.4444C7.41678 14.1066 7.14345 13.8333 6.80566 13.8333H6.50011V12.6111H6.80566C7.14345 12.6111 7.41678 12.3378 7.41678 12C7.41678 11.6622 7.14345 11.3889 6.80566 11.3889H6.50011V10.1666H6.80566C7.14345 10.1666 7.41678 9.89331 7.41678 9.55552C7.41678 9.21774 7.14345 8.94441 6.80566 8.94441H6.50011V7.72219H6.80566C7.14345 7.72219 7.41678 7.44886 7.41678 7.11108C7.41678 6.77329 7.14345 6.49997 6.80566 6.49997H6.50011V5.58301C6.50011 4.74064 7.18545 4.05523 8.02789 4.05523H16.889C17.7314 4.05523 18.4168 4.74064 18.4168 5.58301V16.8886C18.4168 17.226 18.6904 17.4997 19.0279 17.4997C19.3654 17.4997 19.639 17.226 19.639 16.8886V5.58301C19.639 4.06434 18.4077 2.83301 16.889 2.83301H8.02789C6.50906 2.83301 5.27789 4.06434 5.27789 5.58301V6.49997H4.66678C4.32899 6.49997 4.05566 6.77329 4.05566 7.11108C4.05566 7.44886 4.32899 7.72219 4.66678 7.72219H5.27789V8.94441H4.66678C4.32899 8.94441 4.05566 9.21774 4.05566 9.55552C4.05566 9.89331 4.32899 10.1666 4.66678 10.1666H5.27789V11.3889H4.66678C4.32899 11.3889 4.05566 11.6622 4.05566 12C4.05566 12.3378 4.32899 12.6111 4.66678 12.6111H5.27789V13.8333H4.66678C4.32899 13.8333 4.05566 14.1066 4.05566 14.4444C4.05566 14.7822 4.32899 15.0555 4.66678 15.0555H5.27789V16.2777H4.66678C4.32899 16.2777 4.05566 16.5511 4.05566 16.8889C4.05566 17.2266 4.32899 17.5 4.66678 17.5H5.27789V18.4163C5.27789 19.9352 6.50906 21.1663 8.02789 21.1663H8.94455C9.28203 21.1663 9.55566 20.8927 9.55566 20.5552C9.55566 20.2178 9.28203 19.9441 8.94455 19.9441Z" fill="white" fill-opacity="0.62" transform="translate(-1 0)"/>
<zoom style="press" value="|:#FFFFFFCC|:#FFFFFFCC"/>
</svg>
