<svg width="24" height="24" viewBox="0 0 24 24" fill="none" xmlns="http://www.w3.org/2000/svg">
<path d="M3 4.5C3 3.67157 3.67157 3 4.5 3H19.5C20.3284 3 21 3.67157 21 4.5C21 5.32843 20.3284 6 19.5 6H4.5C3.67157 6 3 5.32843 3 4.5Z" fill="white" fill-opacity="0.62"/>
<path d="M3 12C3 11.1716 3.67157 10.5 4.5 10.5H19.5C20.3284 10.5 21 11.1716 21 12C21 12.8284 20.3284 13.5 19.5 13.5H4.5C3.67157 13.5 3 12.8284 3 12Z" fill="white" fill-opacity="0.62"/>
<path d="M3 19.5C3 18.6716 3.67157 18 4.5 18H19.5C20.3284 18 21 18.6716 21 19.5C21 20.3284 20.3284 21 19.5 21H4.5C3.67157 21 3 20.3284 3 19.5Z" fill="white" fill-opacity="0.62"/>
<zoom style="press" value="|:#FFFFFFCC"/>
</svg>
