<svg width="24" height="24" viewBox="0 0 24 24" fill="none" xmlns="http://www.w3.org/2000/svg">
<path fill-rule="evenodd" clip-rule="evenodd" d="M16 5.47247V5C16 2.79086 14.2091 1 12 1C9.79086 1 8 2.79086 8 5V12C8 12.443 8.07202 12.8692 8.20498 13.2675L16 5.47247ZM10.7325 15.795L16 10.5275V12C16 14.2091 14.2091 16 12 16C11.557 16 11.1308 15.928 10.7325 15.795ZM7.05728 14.4152C6.70036 13.6861 6.5 12.8665 6.5 12C6.5 11.5858 6.16421 11.25 5.75 11.25C5.33579 11.25 5 11.5858 5 12C5 13.2844 5.34593 14.488 5.9497 15.5228L7.05728 14.4152ZM8.47723 18.0503L9.58481 16.9427C10.3139 17.2996 11.1335 17.5 12 17.5C15.0376 17.5 17.5 15.0376 17.5 12C17.5 11.5858 17.8358 11.25 18.25 11.25C18.6642 11.25 19 11.5858 19 12C19 15.6126 16.2633 18.5861 12.75 18.9603V21.5H15C15.4142 21.5 15.75 21.8358 15.75 22.25C15.75 22.6642 15.4142 23 15 23H12.75H11.25H9.00392L9.00001 23C8.58579 23 8.25 22.6642 8.25 22.25C8.25 21.8358 8.58579 21.5 9.00001 21.5H11.25V18.9603C10.2473 18.8535 9.30785 18.535 8.47723 18.0503Z" fill="white" fill-opacity="0.62"/>
<path d="M23 1L1 23" stroke="#FF5C5C" stroke-width="1.5" stroke-linecap="round"/>
<zoom style="press" value="|:#FFFFFFCC"/>
<zoom style="disable" value="|:#707376"/>
</svg>
