<svg width="24" height="24" viewBox="0 0 24 24" fill="none" xmlns="http://www.w3.org/2000/svg">
<path fill-rule="evenodd" clip-rule="evenodd" d="M9.5 4C9.5 3.44772 9.94772 3 10.5 3H13.5C14.0523 3 14.5 3.44772 14.5 4V20C14.5 20.5523 14.0523 21 13.5 21H10.5C9.94772 21 9.5 20.5523 9.5 20V4ZM3 13C3 12.4477 3.44772 12 4 12H7C7.55228 12 8 12.4477 8 13V20C8 20.5523 7.55228 21 7 21H4C3.44772 21 3 20.5523 3 20V13ZM17 8C16.4477 8 16 8.44772 16 9V20C16 20.5523 16.4477 21 17 21H20C20.5523 21 21 20.5523 21 20V9C21 8.44772 20.5523 8 20 8H17Z" fill="white" fill-opacity="0.62"/>
<zoom style="press" value="|:#FFFFFFCC"/>
</svg>
