<svg width="24" height="24" viewBox="0 0 24 24" fill="none" xmlns="http://www.w3.org/2000/svg">
<path fill-rule="evenodd" clip-rule="evenodd" d="M3.5 2C2.67157 2 2 2.67157 2 3.5V9.50393C2 10.3324 2.67157 11.0039 3.5 11.0039H9.50393C10.3324 11.0039 11.0039 10.3324 11.0039 9.50393V3.5C11.0039 2.67157 10.3324 2 9.50393 2H3.5ZM14.5015 2C13.6731 2 13.0015 2.67157 13.0015 3.5V9.49851C13.0015 10.3269 13.6731 10.9985 14.5015 10.9985H20.5C21.3284 10.9985 22 10.3269 22 9.49851V3.5C22 2.67157 21.3284 2 20.5 2H14.5015ZM2 14.5015C2 13.6731 2.67157 13.0015 3.5 13.0015H9.49851C10.3269 13.0015 10.9985 13.6731 10.9985 14.5015V20.5C10.9985 21.3284 10.3269 22 9.49851 22H3.5C2.67157 22 2 21.3284 2 20.5V14.5015ZM14.5 13C13.6715 13 13 13.6716 13 14.5V20.5C13 21.3284 13.6715 22 14.5 22H20.5C21.3284 22 22 21.3284 22 20.5V14.5C22 13.6716 21.3284 13 20.5 13H14.5Z" fill="white" fill-opacity="0.62"/>
<zoom style="press" value="|:#FFFFFFCC"/>
</svg>
