<svg width="24" height="24" viewBox="0 0 24 24" fill="none" xmlns="http://www.w3.org/2000/svg">
<path d="M6.775 5.125H17.225C18.0178 5.125 18.5296 5.12607 18.9192 5.1579C19.2928 5.18842 19.4313 5.24023 19.4992 5.27487C19.758 5.40669 19.9683 5.61704 20.1001 5.87576C20.1348 5.94375 20.1866 6.08224 20.2171 6.45577C20.2489 6.84536 20.25 7.35724 20.25 8.15V13.7875C20.25 14.1672 20.5578 14.475 20.9375 14.475C21.3172 14.475 21.625 14.1672 21.625 13.7875V8.15C21.625 6.60986 21.625 5.83978 21.3253 5.25153C21.0616 4.73408 20.6409 4.31338 20.1235 4.04973C19.5352 3.75 18.7651 3.75 17.225 3.75H6.775C5.23486 3.75 4.46478 3.75 3.87653 4.04973C3.35908 4.31338 2.93838 4.73408 2.67473 5.25153C2.375 5.83978 2.375 6.60986 2.375 8.15V14.475C2.375 16.0151 2.375 16.7852 2.67473 17.3735C2.93838 17.8909 3.35908 18.3116 3.87653 18.5753C4.37929 18.8314 5.81838 18.8687 7.18757 18.8741C7.56726 18.8756 7.875 18.5672 7.875 18.1875C7.875 17.8078 7.5674 17.5002 7.1877 17.4994C6.37632 17.4977 5.37647 17.4913 5.08077 17.4671C4.70724 17.4366 4.56875 17.3848 4.50076 17.3501C4.24204 17.2183 4.03169 17.008 3.89987 16.7492C3.86523 16.6813 3.81342 16.5428 3.7829 16.1692C3.75107 15.7796 3.75 15.2678 3.75 14.475V8.15C3.75 7.35724 3.75107 6.84536 3.7829 6.45577C3.81342 6.08224 3.86523 5.94375 3.89987 5.87576C4.03169 5.61704 4.24204 5.40669 4.50076 5.27487C4.56875 5.24023 4.70724 5.18842 5.08077 5.1579C5.47036 5.12607 5.98224 5.125 6.775 5.125Z" fill="#FFFFFF" fill-opacity="0.62"/>
<path d="M13.3367 16.125C12.9098 16.125 12.4887 16.2244 12.1068 16.4153L9.9375 17.5C9.37097 17.7833 9.37097 18.5917 9.9375 18.875L12.1068 19.9597C12.4887 20.1506 12.9098 20.25 13.3367 20.25H20.25C21.0094 20.25 21.625 19.6344 21.625 18.875V17.5C21.625 16.7406 21.0094 16.125 20.25 16.125H13.3367Z" fill="#FFFFFF" fill-opacity="0.62"/>
<zoom style="press" value="|:#FFFFFFCC|:#FFFFFFCC"/>
</svg>
