<svg width="24" height="24" viewBox="0 0 24 24" fill="none" xmlns="http://www.w3.org/2000/svg">
<path d="M12.1963 0C12.6105 0 12.9463 0.335786 12.9463 0.75C12.9463 1.16421 12.6105 1.5 12.1963 1.5H4.39834C3.32026 1.5 2.44629 2.37397 2.44629 3.45206V15.9555C2.44629 16.3697 2.11051 16.7055 1.6963 16.7055C1.28209 16.7055 0.946311 16.3697 0.94631 15.9555L0.946289 3.45206C0.946289 1.54554 2.49183 0 4.39834 0H12.1963Z" fill="#ffffff9E"/>
<path d="M15.1963 2.79456C15.6105 2.79456 15.9463 3.13034 15.9463 3.54456C15.9463 3.95877 15.6105 4.29456 15.1963 4.29456H7.39834C6.32026 4.29456 5.44629 5.16852 5.44629 6.24661V18.7501C5.44629 19.1643 5.11051 19.5 4.6963 19.5C4.28209 19.5 3.94631 19.1643 3.94631 18.7501L3.94629 6.24661C3.94629 4.3401 5.49183 2.79456 7.39834 2.79456H15.1963Z" fill="#ffffff9E"/>
<path d="M10.3983 5.58902C8.49183 5.58902 6.94629 7.13456 6.94629 9.04108V20.5479C6.94629 22.2007 8.10859 23.5832 9.66066 23.921C9.89834 23.9727 10.1453 24 10.3984 24H19.6041C21.5107 24 23.0563 22.4549 23.0563 20.549L23.0559 12.2569H18.1253C17.0756 12.2569 16.2246 11.4059 16.2246 10.3562V5.58902H10.3983Z" fill="#ffffff9E"/>
<path d="M17.7246 5.80716V10.3562C17.7246 10.5775 17.904 10.7569 18.1253 10.7569H22.7974C22.6862 10.5424 22.5409 10.3448 22.365 10.1725L18.3571 6.24639C18.1707 6.0638 17.9565 5.91602 17.7246 5.80716Z" fill="#ffffff9E"/>
<zoom style="press" value="|:#FFFFFFCC|:#FFFFFFCC|:#FFFFFFCC|:#FFFFFFCC"/>
</svg>
