<svg width="24" height="24" viewBox="0 0 24 24" fill="none" xmlns="http://www.w3.org/2000/svg">
<path fill-rule="evenodd" clip-rule="evenodd" d="M15.5072 6.06843C14.7435 5.40299 13.7451 5 12.6526 5H2.17371C0.973202 5 0 5.9732 0 7.17371V14.6526C0 16.5248 1.1834 18.1205 2.84298 18.7327L15.5072 6.06843ZM7.42436 19L17 9.42437V16.8263C17 18.0268 16.0268 19 14.8263 19H7.42436ZM24 17.0362V6.96377C24 6.14648 23.0728 5.67433 22.4118 6.15503L19.3237 8.40098C18.8062 8.77733 18.5 9.37858 18.5 10.0184V13.9816C18.5 14.6214 18.8062 15.2227 19.3237 15.599L22.4118 17.845C23.0728 18.3257 24 17.8535 24 17.0362Z" fill="white" fill-opacity="0.62"/>
<path d="M23 1L0.999999 23" stroke="#FF5C5C" stroke-width="1.5" stroke-linecap="round"/>
<zoom style="press" value="|:#FF0000FF"/>
<zoom style="disable" value="|:#707376"/>
</svg>
