<svg width="24" height="24" viewBox="0 0 24 24" fill="none" xmlns="http://www.w3.org/2000/svg">
<path fill-rule="evenodd" clip-rule="evenodd" d="M7.40018 1.7998C5.38829 1.7998 3.75732 3.43077 3.75732 5.44266V18.5569C3.75732 20.5688 5.38829 22.1998 7.40018 22.1998H17.6002C19.6121 22.1998 21.243 20.5688 21.243 18.5569V5.44266C21.243 3.43077 19.6121 1.7998 17.6002 1.7998H7.40018ZM8.76931 6.82047C8.28646 6.82047 7.89503 7.2119 7.89503 7.69476C7.89503 8.17761 8.28646 8.56904 8.76931 8.56904H14.6466C15.1294 8.56904 15.5209 8.17761 15.5209 7.69476C15.5209 7.2119 15.1294 6.82047 14.6466 6.82047H8.76931ZM8.76931 11.1362C8.28646 11.1362 7.89503 11.5277 7.89503 12.0105C7.89503 12.4934 8.28646 12.8848 8.76931 12.8848H16.2313C16.7142 12.8848 17.1056 12.4934 17.1056 12.0105C17.1056 11.5277 16.7142 11.1362 16.2313 11.1362H8.76931ZM7.89503 16.3263C7.89503 15.8435 8.28646 15.452 8.76931 15.452H13.3288C13.8117 15.452 14.2031 15.8435 14.2031 16.3263C14.2031 16.8092 13.8117 17.2006 13.3288 17.2006H8.76931C8.28646 17.2006 7.89503 16.8092 7.89503 16.3263Z" fill="white" fill-opacity="0.62"/>
<zoom style="press" value="|:#FFFFFFCC"/>
<zoom style="disable" value="|:#696969CC"/>
</svg>
