<svg width="24" height="24" viewBox="0 0 24 24" fill="none" xmlns="http://www.w3.org/2000/svg">
<path fill-rule="evenodd" clip-rule="evenodd" d="M3 1.5C1.34315 1.5 0 2.84315 0 4.5V15C0 16.6569 1.34315 18 3 18H10.5V21H5.25C4.83579 21 4.5 21.3358 4.5 21.75C4.5 22.1642 4.83579 22.5 5.25 22.5H18.75C19.1642 22.5 19.5 22.1642 19.5 21.75C19.5 21.3358 19.1642 21 18.75 21H13.5V18H21C22.6569 18 24 16.6569 24 15V4.5C24 2.84315 22.6569 1.5 21 1.5H3ZM21 3H3C2.17157 3 1.5 3.67157 1.5 4.5V15C1.5 15.8284 2.17157 16.5 3 16.5H21C21.8284 16.5 22.5 15.8284 22.5 15V4.5C22.5 3.67157 21.8284 3 21 3Z" fill="white" fill-opacity="0.62"/>
<zoom style="press" value="|:#FFFFFFCC"/>
</svg>
