<svg width="24" height="24" viewBox="0 0 24 24" fill="none" xmlns="http://www.w3.org/2000/svg">
<path d="M3.375 4.5C3.16789 4.5 3 4.66789 3 4.875V6.375C3 6.58211 3.16789 6.75 3.375 6.75H4.875C5.08211 6.75 5.25 6.58211 5.25 6.375V4.875C5.25 4.66789 5.08211 4.5 4.875 4.5H3.375Z" fill="white" fill-opacity="0.62"/>
<path d="M18.75 4.875C18.75 4.66789 18.9179 4.5 19.125 4.5H20.625C20.8321 4.5 21 4.66789 21 4.875V6.375C21 6.58211 20.8321 6.75 20.625 6.75H19.125C18.9179 6.75 18.75 6.58211 18.75 6.375V4.875Z" fill="white" fill-opacity="0.62"/>
<path d="M3.375 8.625C3.16789 8.625 3 8.79289 3 9V10.5C3 10.7071 3.16789 10.875 3.375 10.875H4.875C5.08211 10.875 5.25 10.7071 5.25 10.5V9C5.25 8.79289 5.08211 8.625 4.875 8.625H3.375Z" fill="white" fill-opacity="0.62"/>
<path d="M18.75 9C18.75 8.79289 18.9179 8.625 19.125 8.625H20.625C20.8321 8.625 21 8.79289 21 9V10.5C21 10.7071 20.8321 10.875 20.625 10.875H19.125C18.9179 10.875 18.75 10.7071 18.75 10.5V9Z" fill="white" fill-opacity="0.62"/>
<path d="M3.375 12.75C3.16789 12.75 3 12.9179 3 13.125V14.625C3 14.8321 3.16789 15 3.375 15H4.875C5.08211 15 5.25 14.8321 5.25 14.625V13.125C5.25 12.9179 5.08211 12.75 4.875 12.75H3.375Z" fill="white" fill-opacity="0.62"/>
<path d="M18.75 13.125C18.75 12.9179 18.9179 12.75 19.125 12.75H20.625C20.8321 12.75 21 12.9179 21 13.125V14.625C21 14.8321 20.8321 15 20.625 15H19.125C18.9179 15 18.75 14.8321 18.75 14.625V13.125Z" fill="white" fill-opacity="0.62"/>
<path d="M9.53033 6.21967C9.23744 5.92678 8.76256 5.92678 8.46967 6.21967C8.17678 6.51256 8.17678 6.98744 8.46967 7.28033L10.9393 9.75L8.46967 12.2197C8.17678 12.5126 8.17678 12.9874 8.46967 13.2803C8.76256 13.5732 9.23744 13.5732 9.53033 13.2803L12 10.8107L14.4697 13.2803C14.7626 13.5732 15.2374 13.5732 15.5303 13.2803C15.8232 12.9874 15.8232 12.5126 15.5303 12.2197L13.0607 9.75L15.5303 7.28033C15.8232 6.98744 15.8232 6.51256 15.5303 6.21967C15.2374 5.92678 14.7626 5.92678 14.4697 6.21967L12 8.68934L9.53033 6.21967Z" fill="white" fill-opacity="0.62"/>
<path fill-rule="evenodd" clip-rule="evenodd" d="M0 4.5C0 2.84315 1.34315 1.5 3 1.5H21C22.6569 1.5 24 2.84315 24 4.5V15C24 16.6569 22.6569 18 21 18H13.5V21H18.75C19.1642 21 19.5 21.3358 19.5 21.75C19.5 22.1642 19.1642 22.5 18.75 22.5H5.25C4.83579 22.5 4.5 22.1642 4.5 21.75C4.5 21.3358 4.83579 21 5.25 21H10.5V18H3C1.34315 18 0 16.6569 0 15V4.5ZM3 3H21C21.8284 3 22.5 3.67157 22.5 4.5V15C22.5 15.8284 21.8284 16.5 21 16.5H3C2.17157 16.5 1.5 15.8284 1.5 15V4.5C1.5 3.67157 2.17157 3 3 3Z" fill="white" fill-opacity="0.62"/>
<zoom style="press" value="|:#FFFFFFCC|:#FFFFFFCC|:#FFFFFFCC|:#FFFFFFCC|:#FFFFFFCC|:#FFFFFFCC|:#FFFFFFCC|:#FFFFFFCC"/>
</svg>
