<svg width="24" height="27" viewBox="0 0 24 27" fill="none" xmlns="http://www.w3.org/2000/svg">
<path fill-rule="evenodd" clip-rule="evenodd" d="M11.077 0.923078C11.077 0.413276 11.3009 0 11.577 0C11.8532 0 12.077 0.413276 12.077 0.923077V5.53846C12.077 6.04826 11.8532 6.46154 11.577 6.46154C11.3009 6.46154 11.077 6.04826 11.077 5.53846V0.923078Z" fill="#6E7680"/>
<path fill-rule="evenodd" clip-rule="evenodd" d="M23.077 11.0771C23.5868 11.0771 24.0001 11.301 24.0001 11.5771C24.0001 11.8533 23.5868 12.0771 23.077 12.0771L18.4617 12.0771C17.9519 12.0771 17.5386 11.8533 17.5386 11.5771C17.5386 11.301 17.9519 11.0771 18.4617 11.0771L23.077 11.0771Z" fill="#6E7680"/>
<path fill-rule="evenodd" clip-rule="evenodd" d="M5.53847 11.0771C6.04827 11.0771 6.46155 11.301 6.46155 11.5771C6.46155 11.8533 6.04827 12.0771 5.53847 12.0771L0.923087 12.0771C0.413286 12.0771 9.53674e-06 11.8533 9.53674e-06 11.5771C9.53674e-06 11.301 0.413285 11.0771 0.923086 11.0771L5.53847 11.0771Z" fill="#6E7680"/>
<path fill-rule="evenodd" clip-rule="evenodd" d="M21.1314 5.66271C21.5729 5.40781 22.0427 5.39504 22.1808 5.63418C22.3189 5.87333 22.0729 6.27384 21.6314 6.52874L17.6343 8.83643C17.1928 9.09133 16.723 9.1041 16.5849 8.86495C16.4469 8.62581 16.6928 8.2253 17.1343 7.9704L21.1314 5.66271Z" fill="#6E7680"/>
<path fill-rule="evenodd" clip-rule="evenodd" d="M5.94266 14.4313C6.38416 14.1764 6.85399 14.1636 6.99207 14.4027C7.13014 14.6419 6.88416 15.0424 6.44266 15.2973L2.44562 17.605C2.00412 17.8599 1.53428 17.8727 1.39621 17.6335C1.25814 17.3944 1.50412 16.9939 1.94562 16.739L5.94266 14.4313Z" fill="#6E7680"/>
<path fill-rule="evenodd" clip-rule="evenodd" d="M16.7393 1.94589C16.9942 1.50439 17.3947 1.25841 17.6338 1.39648C17.873 1.53456 17.8602 2.00439 17.6053 2.44589L15.2976 6.44293C15.0427 6.88443 14.6422 7.13041 14.403 6.99234C14.1639 6.85427 14.1767 6.38443 14.4316 5.94293L16.7393 1.94589Z" fill="#6E7680"/>
<path fill-rule="evenodd" clip-rule="evenodd" d="M9.56886 5.94278C9.82376 6.38428 9.83653 6.85412 9.59738 6.99219C9.35824 7.13026 8.95773 6.88428 8.70283 6.44278L6.39514 2.44574C6.14024 2.00424 6.12747 1.5344 6.36661 1.39633C6.60576 1.25826 7.00626 1.50424 7.26116 1.94574L9.56886 5.94278Z" fill="#6E7680"/>
<path fill-rule="evenodd" clip-rule="evenodd" d="M6.86575 7.9701C7.30725 8.225 7.55323 8.62551 7.41516 8.86465C7.27709 9.1038 6.80725 9.09103 6.36575 8.83613L2.36871 6.52844C1.92721 6.27353 1.68123 5.87303 1.8193 5.63388C1.95738 5.39474 2.42721 5.40751 2.86871 5.66241L6.86575 7.9701Z" fill="#6E7680"/>
<path fill-rule="evenodd" clip-rule="evenodd" d="M11.0001 26.015V10L22.5911 21.619H15.5501L15.3991 21.743L11.0001 26.015Z" fill="white"/>
<path fill-rule="evenodd" clip-rule="evenodd" d="M12.0001 12.4072V23.5952L14.9691 20.7292L15.1291 20.5902H20.1651L12.0001 12.4072Z" fill="black"/>
</svg>
