<svg width="16" height="16" viewBox="0 0 16 16" fill="none" xmlns="http://www.w3.org/2000/svg">
<path d="M8.00029 1C5.78604 1 3.78269 1.89892 2.33365 3.35295C2.13873 3.54854 1.82214 3.54909 1.62655 3.35416C1.43095 3.15923 1.43041 2.84265 1.62533 2.64705C3.25432 1.01246 5.50954 0 8.00029 0C10.491 0 12.7463 1.01246 14.3752 2.64706C14.5702 2.84265 14.5696 3.15923 14.374 3.35416C14.1784 3.54909 13.8619 3.54854 13.6669 3.35294C12.2179 1.89892 10.2145 1 8.00029 1Z" fill="#4F9AF7"/>
<path d="M2 10C2 8.89543 2.89543 8 4 8H12C13.1046 8 14 8.89543 14 10V14C14 15.1046 13.1046 16 12 16H4C2.89543 16 2 15.1046 2 14V10Z" fill="#4F9AF7"/>
<path d="M4.39978 6.29985C5.22163 5.20597 6.52831 4.5 8.00003 4.5C9.47175 4.5 10.7784 5.20597 11.6003 6.29985C11.7662 6.52062 12.0796 6.56513 12.3004 6.39926C12.5211 6.23339 12.5656 5.91995 12.3998 5.69917C11.3972 4.36472 9.79951 3.5 8.00003 3.5C6.20055 3.5 4.60289 4.36472 3.60028 5.69917C3.43441 5.91995 3.47892 6.23339 3.69969 6.39926C3.92047 6.56513 4.2339 6.52062 4.39978 6.29985Z" fill="#4F9AF7"/>
</svg>