<svg width="48" height="20" viewBox="0 0 48 20" fill="none" xmlns="http://www.w3.org/2000/svg">
<path d="M0 4C0 1.79086 1.79086 0 4 0H40C44.4183 0 48 3.58172 48 8V16C48 18.2091 46.2091 20 44 20H8C3.58172 20 0 16.4183 0 12V4Z" fill="url(#paint0_linear_931_46925)"/>
<path d="M7.49805 15H11.5518C13.6572 15 14.9219 13.9473 14.9219 12.2178V12.2041C14.9219 10.9189 14.0332 9.97559 12.7002 9.83203V9.71582C13.6709 9.55176 14.4297 8.62891 14.4297 7.60352V7.58984C14.4297 6.0791 13.3154 5.13574 11.4629 5.13574H7.49805V15ZM11.1074 6.38672C12.2422 6.38672 12.9053 6.92676 12.9053 7.85645V7.87012C12.9053 8.82715 12.2012 9.33301 10.8477 9.33301H9.0293V6.38672H11.1074ZM11.1553 10.502C12.5977 10.502 13.3564 11.0488 13.3564 12.1084V12.1221C13.3564 13.1816 12.625 13.749 11.2441 13.749H9.0293V10.502H11.1553ZM16.8906 15H23.1523V13.6807H18.4219V10.6113H22.8994V9.33984H18.4219V6.45508H23.1523V5.13574H16.8906V15ZM27.8691 15H29.4004V6.45508H32.4971V5.13574H24.7656V6.45508H27.8691V15ZM32.4834 15H34.0898L34.9854 12.334H38.7588L39.6475 15H41.2607L37.6992 5.13574H36.0449L32.4834 15ZM36.8105 6.86523H36.9268L38.3486 11.1035H35.3955L36.8105 6.86523Z" fill="white"/>
<defs>
<linearGradient id="paint0_linear_931_46925" x1="8.72727" y1="1.70009e-06" x2="39.2369" y2="21.3013" gradientUnits="userSpaceOnUse">
<stop stop-color="#0E72ED"/>
<stop offset="1" stop-color="#925DFF"/>
</linearGradient>
</defs>
</svg>
