<svg width="20" height="20" viewBox="0 0 20 20" fill="none" xmlns="http://www.w3.org/2000/svg">
<!--<mask id="mask0" style="mask-type:alpha" maskUnits="userSpaceOnUse" x="1" y="1" width="18" height="18">-->
<path d="M10.5797 1.69584C11.1351 1.03218 12.1791 1.12396 12.6109 1.87442L17.9572 11.164C18.3891 11.9145 17.9464 12.8673 17.0958 13.0181L7.11635 14.7864L4.06348 9.48174L10.5797 1.69584Z" fill="#6E7680"/>
<path d="M3.18218 9.99214L6.23505 15.2968L5.55044 15.6933C4.9551 16.0381 4.19383 15.8335 3.85011 15.2362L2.04197 12.0944C1.69825 11.4972 1.90223 10.7335 2.49757 10.3887L3.18218 9.99214Z" fill="#6E7680"/>
<path d="M7.62516 15.6704L7.65401 15.6537L10.818 15.0931L11.6819 16.5941C12.0256 17.1914 11.8217 17.9551 11.2263 18.2999L10.7384 18.5825C10.143 18.9273 9.38177 18.7227 9.03805 18.1254L7.62516 15.6704Z" fill="#6E7680"/>
<!--</mask>-->
<!--<g mask="url(#mask0)">-->
<!--<rect width="20" height="20" fill="#0862D1"/>-->
<!--</g>-->
</svg>
