<svg width="14" height="14" viewBox="0 0 14 14" fill="none" xmlns="http://www.w3.org/2000/svg">
<path d="M2.625 5.425C2.625 4.44491 2.625 3.95486 2.81574 3.58052C2.98352 3.25123 3.25123 2.98352 3.58052 2.81574C3.95486 2.625 4.44491 2.625 5.425 2.625H8.575C9.55509 2.625 10.0451 2.625 10.4195 2.81574C10.7488 2.98352 11.0165 3.25123 11.1843 3.58052C11.375 3.95486 11.375 4.44491 11.375 5.425V8.575C11.375 9.55509 11.375 10.0451 11.1843 10.4195C11.0165 10.7488 10.7488 11.0165 10.4195 11.1843C10.0451 11.375 9.55509 11.375 8.575 11.375H5.425C4.44491 11.375 3.95486 11.375 3.58052 11.1843C3.25123 11.0165 2.98352 10.7488 2.81574 10.4195C2.625 10.0451 2.625 9.55509 2.625 8.575V5.425Z" fill="white"/>
</svg>
