<svg width="20" height="20" viewBox="0 0 20 20" fill="none" xmlns="http://www.w3.org/2000/svg">
<path d="M10 18.75C11.1953 18.75 12.319 18.5212 13.3713 18.0637C14.4293 17.6062 15.3615 16.9743 16.1679 16.1679C16.9743 15.3615 17.6062 14.4322 18.0637 13.3799C18.5212 12.3219 18.75 11.1953 18.75 10C18.75 8.80474 18.5212 7.68096 18.0637 6.62868C17.6062 5.57067 16.9743 4.63848 16.1679 3.83211C15.3615 3.02574 14.4293 2.39379 13.3713 1.93627C12.3133 1.47876 11.1867 1.25 9.99142 1.25C8.79616 1.25 7.66953 1.47876 6.61152 1.93627C5.55923 2.39379 4.6299 3.02574 3.82353 3.83211C3.02288 4.63848 2.39379 5.57067 1.93627 6.62868C1.47876 7.68096 1.25 8.80474 1.25 10C1.25 11.1953 1.47876 12.3219 1.93627 13.3799C2.39379 14.4322 3.02574 15.3615 3.83211 16.1679C4.63848 16.9743 5.56781 17.6062 6.6201 18.0637C7.6781 18.5212 8.80474 18.75 10 18.75ZM8.45588 14.9583C8.27288 14.9583 8.11846 14.9011 7.99265 14.7868C7.86683 14.6667 7.80392 14.5151 7.80392 14.3321C7.80392 14.1605 7.86683 14.0147 7.99265 13.8946C8.11846 13.7688 8.27288 13.7059 8.45588 13.7059H9.54534V9.66544H8.60172C8.42443 9.66544 8.27288 9.60825 8.14706 9.49387C8.02124 9.37377 7.95833 9.22222 7.95833 9.03922C7.95833 8.86765 8.02124 8.72181 8.14706 8.60172C8.27288 8.4759 8.42443 8.41299 8.60172 8.41299H10.2659C10.4947 8.41299 10.6663 8.48734 10.7806 8.63603C10.9007 8.78472 10.9608 8.97917 10.9608 9.21936V13.7059H12.0502C12.2333 13.7059 12.3877 13.7688 12.5135 13.8946C12.6393 14.0147 12.7022 14.1605 12.7022 14.3321C12.7022 14.5151 12.6393 14.6667 12.5135 14.7868C12.3877 14.9011 12.2333 14.9583 12.0502 14.9583H8.45588ZM9.92279 6.94608C9.60253 6.94608 9.32802 6.83456 9.09926 6.61152C8.87623 6.38276 8.76471 6.10825 8.76471 5.78799C8.76471 5.46201 8.87623 5.1875 9.09926 4.96446C9.32802 4.7357 9.60253 4.62132 9.92279 4.62132C10.2488 4.62132 10.5204 4.7357 10.7377 4.96446C10.9608 5.1875 11.0723 5.46201 11.0723 5.78799C11.0723 6.10825 10.9608 6.38276 10.7377 6.61152C10.5204 6.83456 10.2488 6.94608 9.92279 6.94608Z" fill="#3B90F7"/>
</svg>
