<svg width="14" height="14" viewBox="0 0 14 14" fill="none" xmlns="http://www.w3.org/2000/svg">
<path d="M7 11.375C9.41625 11.375 11.375 9.41625 11.375 7C11.375 4.58375 9.41625 2.625 7 2.625C4.58375 2.625 2.625 4.58375 2.625 7C2.625 9.41625 4.58375 11.375 7 11.375Z" fill="white"/>
<path fill-rule="evenodd" clip-rule="evenodd" d="M13.125 7C13.125 10.3827 10.3827 13.125 7 13.125C3.61726 13.125 0.875 10.3827 0.875 7C0.875 3.61726 3.61726 0.875 7 0.875C10.3827 0.875 13.125 3.61726 13.125 7ZM12.25 7C12.25 9.8995 9.8995 12.25 7 12.25C4.10051 12.25 1.75 9.8995 1.75 7C1.75 4.10051 4.10051 1.75 7 1.75C9.8995 1.75 12.25 4.10051 12.25 7Z" fill="white"/>
</svg>
