<svg width="20" height="20" viewBox="0 0 20 20" fill="none" xmlns="http://www.w3.org/2000/svg">
<path d="M10 18.75C11.1953 18.75 12.319 18.5212 13.3713 18.0637C14.4293 17.6062 15.3615 16.9743 16.1679 16.1679C16.9743 15.3615 17.6062 14.4322 18.0637 13.3799C18.5212 12.3219 18.75 11.1953 18.75 10C18.75 8.80474 18.5212 7.68096 18.0637 6.62868C17.6062 5.57067 16.9743 4.63848 16.1679 3.83211C15.3615 3.02574 14.4293 2.39379 13.3713 1.93627C12.3133 1.47876 11.1867 1.25 9.99142 1.25C8.79616 1.25 7.66953 1.47876 6.61152 1.93627C5.55923 2.39379 4.6299 3.02574 3.82353 3.83211C3.02288 4.63848 2.39379 5.57067 1.93627 6.62868C1.47876 7.68096 1.25 8.80474 1.25 10C1.25 11.1953 1.47876 12.3219 1.93627 13.3799C2.39379 14.4322 3.02574 15.3615 3.83211 16.1679C4.63848 16.9743 5.56781 17.6062 6.6201 18.0637C7.6781 18.5212 8.80474 18.75 10 18.75ZM10 11.5956C9.54248 11.5956 9.30801 11.3611 9.29657 10.8922L9.18505 6.21691C9.17933 5.99387 9.25082 5.80801 9.39951 5.65931C9.55392 5.51062 9.75123 5.43627 9.99142 5.43627C10.2259 5.43627 10.4203 5.51348 10.5748 5.66789C10.7349 5.81659 10.8121 6.00245 10.8064 6.22549L10.6777 10.8922C10.672 11.3611 10.4461 11.5956 10 11.5956ZM10 14.4694C9.74265 14.4694 9.51675 14.3807 9.3223 14.2034C9.13358 14.0261 9.03922 13.8088 9.03922 13.5515C9.03922 13.2998 9.13358 13.0825 9.3223 12.8995C9.51103 12.7165 9.73693 12.625 10 12.625C10.2574 12.625 10.4804 12.7165 10.6691 12.8995C10.8636 13.0768 10.9608 13.2941 10.9608 13.5515C10.9608 13.8088 10.8636 14.0261 10.6691 14.2034C10.4804 14.3807 10.2574 14.4694 10 14.4694Z" fill="#FF2638"/>
</svg>
