<svg width="30" height="30" viewBox="0 0 30 30" fill="none" xmlns="http://www.w3.org/2000/svg">
<path d="M17.8125 28.594V1.40637C17.8125 0.253036 16.5006 -0.402699 15.5721 0.281456L8.90625 6.56267H5.625C2.5184 6.56267 0 9.08107 0 12.1877V17.8127C0 20.9193 2.5184 23.4377 5.625 23.4377H8.90625L15.5721 29.719C16.5006 30.4031 17.8125 29.7473 17.8125 28.594Z" fill="white"/>
<path d="M20.8996 9.64983C21.2657 9.28371 21.8593 9.28371 22.2254 9.64983C25.1803 12.6048 25.1803 17.3956 22.2254 20.3506C21.8593 20.7167 21.2657 20.7167 20.8996 20.3506C20.5335 19.9845 20.5335 19.3909 20.8996 19.0247C23.1223 16.8021 23.1223 13.1983 20.8996 10.9757C20.5335 10.6095 20.5335 10.0159 20.8996 9.64983Z" fill="white"/>
<path d="M25.9754 5.89983C25.6093 5.53371 25.0157 5.53371 24.6496 5.89983C24.2835 6.26594 24.2835 6.85954 24.6496 7.22565C28.9434 11.5194 28.9434 18.481 24.6496 22.7748C24.2835 23.1409 24.2835 23.7345 24.6496 24.1007C25.0157 24.4668 25.6093 24.4668 25.9754 24.1007C31.0014 19.0746 31.0014 10.9258 25.9754 5.89983Z" fill="white"/>
</svg>
