<svg width="16" height="16" viewBox="0 0 16 16" fill="none" xmlns="http://www.w3.org/2000/svg">
<rect x="2" width="1.2" height="16" rx="0.6" fill="#6E7680"/>
<path d="M13.144 9.58255C13.4119 9.51637 13.6001 9.276 13.6001 9.00006V1.8708C13.6001 1.67973 13.5091 1.50008 13.3551 1.38705C13.201 1.27401 13.0023 1.24112 12.82 1.29846C10.8793 1.90907 9.13538 2.07351 7.83395 1.61377L7.8179 1.60569C7.79697 1.59515 7.77543 1.58584 7.75341 1.57782C6.50146 1.12173 5.14298 1.0146 3.81244 1.28262L3.81244 1.28261L3.80853 1.28342L3.09977 1.43111C2.82155 1.48909 2.62217 1.7343 2.62217 2.0185V8.70304C2.62217 8.88294 2.70289 9.05335 2.84209 9.16731C2.9813 9.28127 3.16429 9.32675 3.34065 9.29122L3.82667 9.19332C4.30244 9.10222 4.77695 9.05688 5.25068 9.05688C6.10367 9.05688 6.96364 9.21491 7.80894 9.51366C8.5458 9.78388 9.55311 9.87588 10.5008 9.87C11.4608 9.86405 12.4391 9.7567 13.144 9.58255Z" stroke="#6E7680" stroke-width="1.2" stroke-linejoin="round"/>
<zoom style="dark" value="|:#8D8D8D|#8D8D8D:"/>
<zoom style="hover" value="|:#FFFFFF|#FFFFFF:"/>
</svg>
