<svg width="17" height="13" viewBox="0 0 17 13" fill="none" xmlns="http://www.w3.org/2000/svg">
<path d="M3 0C1.34315 0 0 1.34315 0 3V10C0 11.6569 1.34315 13 3 13H6C6.55228 13 7 12.5523 7 12C7 11.4477 6.55228 11 6 11H3C2.44772 11 2 10.5523 2 10V3C2 2.44772 2.44772 2 3 2H14C14.5523 2 15 2.44772 15 3V7C15 7.55228 15.4477 8 16 8C16.5523 8 17 7.55228 17 7V3C17 1.34315 15.6569 0 14 0H3Z" fill="url(#paint0_linear_299_26033)"/>
<path d="M16.5 10H11.1385C11.0479 10 10.959 10.0246 10.8812 10.0713L9.21458 11.0713C8.89091 11.2655 8.89091 11.7345 9.21458 11.9287L10.8812 12.9287C10.959 12.9754 11.0479 13 11.1385 13H16.5C16.7761 13 17 12.7761 17 12.5V10.5C17 10.2239 16.7761 10 16.5 10Z" fill="url(#paint1_linear_299_26033)"/>
<path d="M5.5 6.5C5.5 6.22386 5.72386 6 6 6H8V4C8 3.72386 8.22386 3.5 8.5 3.5C8.77614 3.5 9 3.72386 9 4V6H11C11.2761 6 11.5 6.22386 11.5 6.5C11.5 6.77614 11.2761 7 11 7H9V9C9 9.27614 8.77614 9.5 8.5 9.5C8.22386 9.5 8 9.27614 8 9V7H6C5.72386 7 5.5 6.77614 5.5 6.5Z" fill="url(#paint2_linear_299_26033)"/>
<defs>
<linearGradient id="paint0_linear_299_26033" x1="2.71677" y1="11.1213" x2="13.0603" y2="0.946724" gradientUnits="userSpaceOnUse">
<stop stop-color="#9AA5B5"/>
<stop offset="1" stop-color="#72829A"/>
</linearGradient>
<linearGradient id="paint1_linear_299_26033" x1="2.71677" y1="11.1213" x2="13.0603" y2="0.946724" gradientUnits="userSpaceOnUse">
<stop stop-color="#9AA5B5"/>
<stop offset="1" stop-color="#72829A"/>
</linearGradient>
<linearGradient id="paint2_linear_299_26033" x1="2.71677" y1="11.1213" x2="13.0603" y2="0.946724" gradientUnits="userSpaceOnUse">
<stop stop-color="#9AA5B5"/>
<stop offset="1" stop-color="#72829A"/>
</linearGradient>
</defs>
</svg>
