<svg width="55" height="56" viewBox="0 0 55 56" fill="none" xmlns="http://www.w3.org/2000/svg">
<path fill-rule="evenodd" clip-rule="evenodd" d="M43.5125 0.731812C44.6171 0.731812 45.5125 1.62724 45.5125 2.73181V10.2057H52.9865C54.0911 10.2057 54.9865 11.1011 54.9865 12.2057C54.9865 13.3103 54.0911 14.2057 52.9865 14.2057H45.5125V21.6797C45.5125 22.7843 44.6171 23.6797 43.5125 23.6797C42.4079 23.6797 41.5125 22.7843 41.5125 21.6797V14.2057H34.0389C32.9344 14.2057 32.0389 13.3103 32.0389 12.2057C32.0389 11.1011 32.9344 10.2057 34.0389 10.2057H41.5125V2.73181C41.5125 1.62724 42.4079 0.731812 43.5125 0.731812ZM25.1465 11.1647C25.2212 11.3852 25.2212 11.6587 25.2212 12.2057C25.2212 12.7527 25.2212 13.0262 25.1465 13.2467C25.0054 13.663 24.6785 13.9899 24.2622 14.131C24.0417 14.2057 23.7682 14.2057 23.2212 14.2057H6.45825C5.35368 14.2057 4.45825 15.1011 4.45825 16.2057V49.2598C4.45825 50.3643 5.35368 51.2598 6.45825 51.2598H39.5123C40.6169 51.2598 41.5123 50.3643 41.5123 49.2598V32.4957C41.5123 31.9487 41.5123 31.6752 41.5871 31.4547C41.7281 31.0384 42.055 30.7115 42.4713 30.5704C42.6919 30.4957 42.9653 30.4957 43.5123 30.4957C44.0593 30.4957 44.3328 30.4957 44.5533 30.5704C44.9696 30.7115 45.2965 31.0384 45.4376 31.4547C45.5123 31.6752 45.5123 31.9487 45.5123 32.4957V49.2598C45.5123 52.5735 42.826 55.2598 39.5123 55.2598H6.45825C3.14454 55.2598 0.458252 52.5735 0.458252 49.2598V16.2057C0.458252 12.892 3.14454 10.2057 6.45825 10.2057H23.2212C23.7682 10.2057 24.0417 10.2057 24.2622 10.2804C24.6785 10.4215 25.0054 10.7484 25.1465 11.1647Z" fill="#5252802D"/>
<zoom style="select" value="|:#0E71EB4C"/>
</svg>
