<svg width="14" height="14" viewBox="0 0 14 14" fill="none" xmlns="http://www.w3.org/2000/svg">
<path fill-rule="evenodd" clip-rule="evenodd" d="M7 14C10.866 14 14 10.866 14 7C14 3.13401 10.866 0 7 0C3.13401 0 0 3.13401 0 7C0 10.866 3.13401 14 7 14ZM3.67085 3.67085C3.89866 3.44305 4.26801 3.44305 4.49581 3.67085L7 6.17504L9.50419 3.67085C9.73199 3.44305 10.1013 3.44305 10.3291 3.67085C10.557 3.89866 10.557 4.26801 10.3291 4.49581L7.82496 7L10.3291 9.50419C10.557 9.73199 10.557 10.1013 10.3291 10.3291C10.1013 10.557 9.73199 10.557 9.50419 10.3291L7 7.82496L4.49581 10.3291C4.26801 10.557 3.89866 10.557 3.67085 10.3291C3.44305 10.1013 3.44305 9.73199 3.67085 9.50419L6.17504 7L3.67085 4.49581C3.44305 4.26801 3.44305 3.89866 3.67085 3.67085Z" fill="#131619"/>
<zoom style="dark" value="|:#F7F9FA"/>
</svg>
