<svg width="32" height="32" viewBox="0 0 32 32" fill="none" xmlns="http://www.w3.org/2000/svg">
<path fill-rule="evenodd" clip-rule="evenodd" d="M16 24.75C20.8325 24.75 24.75 20.8325 24.75 16C24.75 11.1675 20.8325 7.25 16 7.25C11.1675 7.25 7.25 11.1675 7.25 16C7.25 20.8325 11.1675 24.75 16 24.75ZM16.9375 11.9375C16.9375 11.4197 16.5178 11 16 11C15.4822 11 15.0625 11.4197 15.0625 11.9375V16.9375C15.0625 17.4553 15.4822 17.875 16 17.875C16.5178 17.875 16.9375 17.4553 16.9375 16.9375V11.9375ZM16 21C16.5178 21 16.9375 20.5803 16.9375 20.0625C16.9375 19.5447 16.5178 19.125 16 19.125C15.4822 19.125 15.0625 19.5447 15.0625 20.0625C15.0625 20.5803 15.4822 21 16 21Z" fill="#B36200"/>
</svg>
