<svg width="24" height="24" viewBox="0 0 24 24" fill="none" xmlns="http://www.w3.org/2000/svg">
<path fill-rule="evenodd" clip-rule="evenodd" d="M16.1543 17.0381C16.3983 17.2822 16.7941 17.2822 17.0381 17.0381C17.2822 16.7941 17.2822 16.3983 17.0381 16.1543L12.8839 12L17.0381 7.84576C17.2822 7.60168 17.2822 7.20595 17.0381 6.96187C16.7941 6.71779 16.3983 6.71779 16.1543 6.96187L12 11.1161L7.84575 6.96187C7.60167 6.71779 7.20595 6.71779 6.96187 6.96187C6.71779 7.20594 6.71779 7.60167 6.96187 7.84575L11.1161 12L6.96187 16.1543C6.71779 16.3983 6.71779 16.7941 6.96187 17.0381C7.20594 17.2822 7.60167 17.2822 7.84575 17.0381L12 12.8839L16.1543 17.0381Z" fill="#CCCCCC"/>
<zoom style="hover" value="|:#FFFFFF"/>
</svg>
