<svg width="16" height="16" viewBox="0 0 16 16" fill="none" xmlns="http://www.w3.org/2000/svg">
<path fill-rule="evenodd" clip-rule="evenodd" d="M14 2.5C14 2.22386 13.7761 2 13.5 2C13.2239 2 13 2.22386 13 2.5V4.58441L12.969 4.54431C11.8838 3.00703 10.092 2.0014 8.06524 2.0014C4.75231 2.0014 2.06665 4.68706 2.06665 7.99999C2.06665 11.3129 4.75231 13.9986 8.06524 13.9986C10.3962 13.9986 12.4157 12.669 13.4083 10.7292C13.5341 10.4834 13.4368 10.1821 13.191 10.0563C12.9452 9.9305 12.6439 10.0278 12.5181 10.2736C11.6898 11.8923 10.0063 12.9986 8.06524 12.9986C5.30459 12.9986 3.06665 10.7606 3.06665 7.99999C3.06665 5.23935 5.30459 3.0014 8.06524 3.0014C9.75685 3.0014 11.2524 3.84123 12.1576 5.12892L12.1642 5.13823L12.1711 5.14723L12.4439 5.5H10C9.72386 5.5 9.5 5.72386 9.5 6C9.5 6.27614 9.72386 6.5 10 6.5H13.5C13.7761 6.5 14 6.27614 14 6V2.5Z" fill="#0404138E"/>
<zoom style="dark" value="|:#F7F9FA"/>
<zoom style="hover" value="|:#222230"/>
<zoom style="hover_dark" value="|:#F7F9FA"/>
</svg>
