<?xml version="1.0" encoding="UTF-8"?>
<svg id="Layer_2" data-name="Layer 2" xmlns="http://www.w3.org/2000/svg" viewBox="0 0 15.87 16">
  <path fill="#0b5cff" d="M11.94,0H3.94C1.74,0-.06,1.8-.06,4v8C-.06,14.2,1.74,16,3.94,16h8c2.2,0,4-1.8,4-4V4C15.94,1.8,14.14,0,11.94,0ZM3.9,6.16c-.4,0-.72-.32-.72-.72,0-.4,.32-.72,.72-.72s.72,.32,.72,.72-.32,.72-.72,.72Zm2.99,4.94c-.07,.17-.19,.3-.36,.37-.34,.15-.74,0-.89-.35,0,0,0,0,0,0l-1.4-3.22c-.15-.34,0-.74,.35-.89,.34-.15,.74,0,.89,.35l1.4,3.22c.07,.16,.08,.35,0,.52h0Zm3.06,.37h0s0,0,0,0c-.34,.15-.74,0-.89-.35h0s-2.48-5.7-2.48-5.7c-.15-.34,0-.74,.35-.89,.34-.15,.74,0,.89,.35,0,0,0,0,0,0l2.48,5.7c.15,.34,0,.74-.35,.89Zm2.33-2.53s0,0,0,0c-.34,.15-.74,0-.89-.35,0,0,0,0,0,0l-1.39-3.17c-.15-.34,0-.74,.35-.89,.34-.15,.74,0,.89,.35l1.39,3.17c.15,.34,0,.74-.35,.89Z"/>
</svg>