<?xml version="1.0" encoding="UTF-8"?>
<svg id="Layer_2" data-name="Layer 2" xmlns="http://www.w3.org/2000/svg" viewBox="0 0 16 16">
  <g>
    <path fill="#848495" d="M6.95,10.58l-1.4-3.22c-.15-.34-.55-.5-.89-.35-.34,.15-.5,.55-.35,.89l1.4,3.22s0,0,0,0c.15,.34,.55,.5,.89,.35,.17-.07,.29-.21,.36-.37h0c.07-.17,.06-.35,0-.52Z"/>
    <path fill="#848495" d="M4.69,5.44c0-.4-.32-.72-.72-.72s-.72,.32-.72,.72c0,.4,.32,.72,.72,.72,.4,0,.72-.32,.72-.72Z"/>
    <path fill="#848495" d="M7.89,4.88s0,0,0,0c-.15-.34-.55-.5-.89-.35-.34,.15-.5,.55-.35,.89l2.48,5.7h0c.15,.34,.55,.5,.89,.35h0c.34-.15,.5-.55,.35-.89l-2.48-5.7Z"/>
    <path fill="#848495" d="M11.31,4.88c-.15-.34-.55-.5-.89-.35-.34,.15-.5,.55-.35,.89l1.39,3.17s0,0,0,0c.15,.34,.55,.5,.89,.35,0,0,0,0,0,0,.34-.15,.5-.55,.35-.89l-1.39-3.17Z"/>
  </g>
  <g id="Doodling">
    <path fill="#848495" d="M12,1c1.7,0,3,1.3,3,3V12c0,1.7-1.3,3-3,3H4c-1.7,0-3-1.3-3-3V4c0-1.7,1.3-3,3-3H12m0-1H4C1.8,0,0,1.8,0,4V12c0,2.2,1.8,4,4,4H12c2.2,0,4-1.8,4-4V4c0-2.2-1.8-4-4-4h0Z"/>
  </g>
</svg>