<svg width="16" height="16" viewBox="0 0 16 16" fill="none" xmlns="http://www.w3.org/2000/svg">
<path fill-rule="evenodd" clip-rule="evenodd" d="M2 0C2.93192 0 3.71497 0.637386 3.93699 1.5H6C7.38071 1.5 8.5 2.61929 8.5 4V6.06301C9.2028 6.2439 9.7561 6.7972 9.93699 7.5H14.2929L12.6464 5.85355C12.4512 5.65829 12.4512 5.34171 12.6464 5.14645C12.8417 4.95118 13.1583 4.95118 13.3536 5.14645L15.8536 7.64645C16.0488 7.84171 16.0488 8.15829 15.8536 8.35355L13.3536 10.8536C13.1583 11.0488 12.8417 11.0488 12.6464 10.8536C12.4512 10.6583 12.4512 10.3417 12.6464 10.1464L14.2929 8.5H9.93699C9.7561 9.2028 9.2028 9.7561 8.5 9.93699V12C8.5 13.3807 7.38071 14.5 6 14.5H3.93699C3.71497 15.3626 2.93192 16 2 16C0.895431 16 0 15.1046 0 14C0 12.8954 0.895431 12 2 12C2.93192 12 3.71497 12.6374 3.93699 13.5H6C6.82843 13.5 7.5 12.8284 7.5 12V9.93699C6.7972 9.7561 6.2439 9.2028 6.06301 8.5H3.93699C3.71497 9.36261 2.93192 10 2 10C0.895431 10 0 9.10457 0 8C0 6.89543 0.895431 6 2 6C2.93192 6 3.71497 6.63739 3.93699 7.5H6.06301C6.2439 6.7972 6.7972 6.2439 7.5 6.06301V4C7.5 3.17157 6.82843 2.5 6 2.5H3.93699C3.71497 3.36261 2.93192 4 2 4C0.895431 4 0 3.10457 0 2C0 0.895431 0.895431 0 2 0ZM2 3C2.55228 3 3 2.55228 3 2C3 1.44772 2.55228 1 2 1C1.44772 1 1 1.44772 1 2C1 2.55228 1.44772 3 2 3ZM2 13C2.55228 13 3 13.4477 3 14C3 14.5523 2.55228 15 2 15C1.44772 15 1 14.5523 1 14C1 13.4477 1.44772 13 2 13ZM3 8C3 7.44772 2.55228 7 2 7C1.44772 7 1 7.44772 1 8C1 8.55228 1.44772 9 2 9C2.55228 9 3 8.55228 3 8ZM7.5 7.13378C7.34819 7.2216 7.2216 7.34819 7.13378 7.5C7.0487 7.64709 7 7.81786 7 8C7 8.18214 7.0487 8.35291 7.13378 8.5C7.2216 8.65181 7.34819 8.7784 7.5 8.86622C7.64709 8.9513 7.81786 9 8 9C8.18214 9 8.35291 8.9513 8.5 8.86622C8.65181 8.7784 8.7784 8.65181 8.86622 8.5C8.9513 8.35291 9 8.18214 9 8C9 7.81786 8.9513 7.64709 8.86622 7.5C8.7784 7.34819 8.65181 7.2216 8.5 7.13378C8.35291 7.0487 8.18214 7 8 7C7.81786 7 7.64709 7.0487 7.5 7.13378Z" fill="#323539"/>
</svg>
