<svg width="90" height="90" viewBox="0 0 90 90" fill="none" xmlns="http://www.w3.org/2000/svg">
<path d="M44.9951 89.9903C69.8453 89.9903 89.9903 69.8453 89.9903 44.9951C89.9903 20.145 69.8453 0 44.9951 0C20.145 0 0 20.145 0 44.9951C0 69.8453 20.145 89.9903 44.9951 89.9903Z" fill="#E6F1FF"/>
<path d="M50.1899 24.7988C50.1899 21.9352 47.8685 19.6138 45.0049 19.6138C42.1412 19.6138 39.8198 21.9352 39.8198 24.7988V49.8889C39.8198 52.7525 42.1412 55.0739 45.0049 55.0739C47.8685 55.0739 50.1899 52.7525 50.1899 49.8889V24.7988Z" fill="#89BEFF"/>
<path d="M44.9951 70.3862C47.8587 70.3862 50.1801 68.0647 50.1801 65.2011C50.1801 62.3375 47.8587 60.0161 44.9951 60.0161C42.1315 60.0161 39.8101 62.3375 39.8101 65.2011C39.8101 68.0647 42.1315 70.3862 44.9951 70.3862Z" fill="#89BEFF"/>
<zoom name="zapp_error_dark" style="dark" value="|:#414155|:#636986|:#636986"/>
</svg>
