<svg width="17" height="17" viewBox="0 0 17 17" fill="none" xmlns="http://www.w3.org/2000/svg">
<path d="M8.50313 5.5C8.05433 5.5 7.70211 5.88485 7.74177 6.33189L8.12132 10.6105C8.13867 10.8061 8.30249 10.956 8.49882 10.956C8.69485 10.956 8.85853 10.8065 8.87625 10.6113L9.26436 6.33342C9.30496 5.88585 8.95254 5.5 8.50313 5.5Z" fill="#E8173D"/>
<path d="M7.92097 13.255C8.0823 13.3797 8.27664 13.442 8.50397 13.442C8.72397 13.442 8.91464 13.3833 9.07597 13.266C9.24464 13.1413 9.32897 12.9213 9.32897 12.606C9.32897 12.2907 9.24464 12.0743 9.07597 11.957C8.91464 11.8397 8.72397 11.781 8.50397 11.781C8.27664 11.781 8.0823 11.8397 7.92097 11.957C7.75964 12.0743 7.67897 12.2907 7.67897 12.606C7.67897 12.914 7.75964 13.1303 7.92097 13.255Z" fill="#E8173D"/>
<path fill-rule="evenodd" clip-rule="evenodd" d="M6.71954 2.07143C7.51139 0.642856 9.49102 0.642858 10.2829 2.07143L16.2218 12.7857C17.0136 14.2143 16.0238 16 14.4401 16H2.56231C0.978608 16 -0.0112043 14.2143 0.780647 12.7857L6.71954 2.07143ZM9.40825 2.55623L15.3471 13.2705C15.8032 14.0932 15.1935 15 14.4401 15H2.56231C1.80894 15 1.19925 14.0932 1.65527 13.2705L7.59416 2.55623C8.00525 1.81459 8.99716 1.81459 9.40825 2.55623Z" fill="#E8173D"/>
<zoom style="dark" value="|:#ED4D6A"/>
</svg>
