<svg width="16" height="16" viewBox="0 0 16 16" fill="none" xmlns="http://www.w3.org/2000/svg">
<path fill-rule="evenodd" clip-rule="evenodd" d="M3 9.5C5.03406 9.64828 6.61884 11.8409 6.67637 13.9362C6.67341 13.9702 6.67386 13.9748 6.67478 13.9843C6.67545 13.9912 6.67637 14.0007 6.67637 14.0262C6.67637 15.1163 7.54392 16 8.61429 16C9.53404 16 10.3024 15.3468 10.5009 14.4715C10.61 13.9718 10.6793 13.4544 10.6793 12.9213C10.6793 12.4156 10.623 11.7743 10.5211 11.1846C10.4573 10.8159 10.3756 10.4673 10.2786 10.1849L13.9968 10.1808C14.0311 10.1808 14.0645 10.1773 14.0974 10.1722C14.7322 10.1468 15.3437 9.81381 15.7039 9.22254C15.933 8.84653 16.0244 8.42404 15.9945 8.01431L15.975 7.78541L14.8571 2.22988C14.5208 0.919662 13.3405 0.00301075 11.9878 0.00137043L10.8571 0H3V0.00103378L0.99763 0.00578022C0.446272 0.00708675 0 0.454417 0 1.00578V8.5C0 9.05228 0.447715 9.5 1 9.5H3ZM4 1.00009L11.9866 1.00137C12.8753 1.00245 13.6518 1.59939 13.8825 2.45563L14.9834 7.92698L14.9975 8.0922C15.0118 8.30247 14.9646 8.51406 14.8499 8.70218C14.6697 8.99796 14.3693 9.16048 14.0574 9.17296L13.9998 9.17527L13.9644 9.18081L8.87848 9.18641L9.33285 10.5096C9.53849 11.1085 9.67926 12.1719 9.67926 12.9213C9.67926 13.3663 9.62162 13.8094 9.52488 14.2537C9.42323 14.6951 9.04227 15 8.61429 15C8.11344 15 7.67637 14.5814 7.67637 14.0262C7.67637 14.0128 7.67624 13.999 7.6759 13.9849L7.67756 13.9659L7.67599 13.9087C7.64093 12.6315 7.14629 11.3536 6.36266 10.3663C5.76423 9.6123 4.95659 8.98068 4 8.68018V1.00009ZM3 8.5V1.00103L1 1.00578L1 8.5H3Z" fill="#6E7680"/>
<zoom style="dark" value="|:#98A0A9|:#98A0A9"/>
</svg>
