<svg width="16" height="16" viewBox="0 0 16 16" fill="none" xmlns="http://www.w3.org/2000/svg">
<path fill-rule="evenodd" clip-rule="evenodd" d="M3 6.5C5.03406 6.35172 6.61884 4.15906 6.67637 2.06383C6.67341 2.02983 6.67386 2.02515 6.67478 2.01572C6.67545 2.00879 6.67637 1.9993 6.67637 1.97376C6.67637 0.883726 7.54392 0 8.61429 0C9.53404 0 10.3024 0.65323 10.5009 1.52849C10.61 2.02818 10.6793 2.54561 10.6793 3.07867C10.6793 3.58435 10.623 4.22574 10.5211 4.8154C10.4573 5.18415 10.3756 5.53267 10.2786 5.81513L13.9968 5.81922C14.0311 5.81922 14.0645 5.82269 14.0974 5.82784C14.7322 5.85325 15.3437 6.18619 15.7039 6.77746C15.933 7.15347 16.0244 7.57596 15.9945 7.98569L15.975 8.21459L14.8571 13.7701C14.5208 15.0803 13.3405 15.997 11.9878 15.9986L10.8571 16H3V15.999L0.99763 15.9942C0.446272 15.9929 0 15.5456 0 14.9942V7.5C0 6.94772 0.447715 6.5 1 6.5H3ZM4 14.9999L11.9866 14.9986C12.8753 14.9976 13.6518 14.4006 13.8825 13.5444L14.9834 8.07302L14.9975 7.9078C15.0118 7.69753 14.9646 7.48594 14.8499 7.29782C14.6697 7.00204 14.3693 6.83952 14.0574 6.82704L13.9998 6.82473L13.9644 6.81919L8.87848 6.81359L9.33285 5.49037C9.53849 4.89149 9.67926 3.8281 9.67926 3.07867C9.67926 2.63371 9.62162 2.19061 9.52488 1.74628C9.42323 1.30492 9.04227 1 8.61429 1C8.11344 1 7.67637 1.41861 7.67637 1.97376C7.67637 1.98718 7.67624 2.00095 7.6759 2.0151L7.67756 2.03413L7.67599 2.09127C7.64093 3.36846 7.14629 4.64636 6.36266 5.63369C5.76423 6.3877 4.95659 7.01932 4 7.31982V14.9999ZM3 7.5V14.999L1 14.9942L1 7.5L3 7.5Z" fill="#6E7680"/>
<zoom style="dark" value="|:#98A0A9|:#98A0A9"/>
</svg>
