<svg width="16" height="16" viewBox="0 0 16 16" fill="none" xmlns="http://www.w3.org/2000/svg">
<path fill-rule="evenodd" clip-rule="evenodd" d="M5 0C4.17157 0 3.5 0.671573 3.5 1.5V14.5C3.5 15.3284 4.17157 16 5 16H11C11.8284 16 12.5 15.3284 12.5 14.5V1.5C12.5 0.671573 11.8284 0 11 0H5ZM4.5 1.5C4.5 1.22386 4.72386 1 5 1H6C6 1.27614 6.22386 1.5 6.5 1.5H9.5C9.77614 1.5 10 1.27614 10 1H11C11.2761 1 11.5 1.22386 11.5 1.5V14.5C11.5 14.7761 11.2761 15 11 15H5C4.72386 15 4.5 14.7761 4.5 14.5V1.5Z" fill="#323539"/>
<zoom style="dark" value="|:#F5F5F5"/>
</svg>
