<svg width="32" height="32" viewBox="0 0 32 32" fill="none" xmlns="http://www.w3.org/2000/svg">
<path d="M16 19.9375C16.8457 19.9375 17.5312 20.6231 17.5312 21.4688C17.5312 22.3144 16.8457 23 16 23C15.1543 23 14.4688 22.3144 14.4688 21.4688C14.4688 20.6231 15.1543 19.9375 16 19.9375Z" fill="#000001"/>
<path d="M16 14.4688C16.8457 14.4688 17.5312 15.1543 17.5312 16C17.5312 16.8457 16.8457 17.5312 16 17.5312C15.1543 17.5312 14.4688 16.8457 14.4688 16C14.4688 15.1543 15.1543 14.4688 16 14.4688Z" fill="#000001"/>
<path d="M17.5312 10.5312C17.5312 9.68556 16.8457 9 16 9C15.1543 9 14.4688 9.68556 14.4688 10.5312C14.4688 11.3769 15.1543 12.0625 16 12.0625C16.8457 12.0625 17.5312 11.3769 17.5312 10.5312Z" fill="#000001"/>
<zoom style="dark" value="|:#FFFFFF89|:#FFFFFF89|:#FFFFFF89"/>
<zoom style="hover" value="|:#222230|:#222230|:#222230"/>
<zoom style="hover_dark" value="|:#F5F5F5|:#F5F5F5|:#F5F5F5"/>
</svg>
