<svg width="16" height="16" viewBox="0 0 16 16" fill="none" xmlns="http://www.w3.org/2000/svg">
<path d="M15.8525 2.49053C15.3178 2.306 14.7587 2.05997 14.3589 1.64217L14.3577 1.64101C13.9648 1.23018 13.7044 0.713735 13.5022 0.146229C13.4325 -0.0487429 13.1558 -0.0487429 13.0872 0.146229C12.9012 0.678919 12.6397 1.23134 12.2306 1.64101C11.8214 2.05068 11.2472 2.3002 10.716 2.48821C10.5195 2.55784 10.523 2.83521 10.7195 2.90368C11.2611 3.09169 11.8121 3.34817 12.2317 3.76597C12.6513 4.18376 12.8675 4.72922 13.0617 5.27468C13.1326 5.47313 13.415 5.46733 13.4789 5.26655C13.658 4.70253 13.9044 4.15243 14.3286 3.73579C14.7483 3.3238 15.3132 3.08241 15.8502 2.906C16.049 2.84101 16.0501 2.559 15.8525 2.49053Z" fill="#F7F9FA"/>
<path d="M14.4552 7.9792C12.9918 7.47436 11.4621 6.80125 10.3671 5.65695V5.65579C9.29308 4.53238 8.58054 3.12 8.02609 1.56603C7.83546 1.03218 7.07875 1.03102 6.89045 1.56603C6.379 3.02251 5.66763 4.5347 4.54477 5.65579C3.42192 6.77688 1.85155 7.46044 0.398576 7.97456C-0.138442 8.16489 -0.130305 8.92389 0.407875 9.11073C1.8899 9.62485 3.40564 10.3328 4.54477 11.4701C5.69204 12.6156 6.28369 14.1069 6.81605 15.6005C7.01017 16.1448 7.78431 16.1285 7.95867 15.5785C8.44803 14.0338 9.13732 12.5135 10.2846 11.3877C11.4319 10.262 12.9778 9.60164 14.4471 9.1177C14.9922 8.93781 14.9969 8.16605 14.4552 7.9792Z" fill="#F7F9FA"/>
</svg>
