<svg width="14" height="14" viewBox="0 0 14 14" fill="none" xmlns="http://www.w3.org/2000/svg">
<path d="M13.9952 7.01252L13.9781 6.81223L13 1.95115C12.7057 0.804705 11.673 0.00263441 10.4893 0.00119913L9.5 0H3.9375C3.69588 0 3.5 0.195875 3.5 0.4375V8.23767C3.5 8.41316 3.60627 8.56926 3.76054 8.65291C4.96331 9.30506 5.80286 10.7751 5.84182 12.1942C5.83923 12.2239 5.83963 12.228 5.84043 12.2362C5.84102 12.2423 5.84182 12.2506 5.84182 12.273C5.84182 13.2267 6.60093 14 7.53751 14C8.34229 14 9.01461 13.4284 9.18828 12.6626C9.28373 12.2253 9.34435 11.7726 9.34435 11.3062C9.34435 10.587 9.21439 9.55413 8.99381 8.91176L12.2472 8.90818C12.2772 8.90818 12.3064 8.90514 12.3352 8.90064C12.8907 8.87841 13.4257 8.58708 13.7409 8.06973C13.9414 7.74072 14.0213 7.37103 13.9952 7.01252Z" fill="#E8173D"/>
<path d="M2.625 7.875C2.625 8.11662 2.42912 8.3125 2.1875 8.3125H0.875C0.391751 8.3125 0 7.92075 0 7.4375V0.880055C0 0.397615 0.390488 0.00620091 0.872926 0.00505769L2.18646 0.0019443C2.42849 0.0013706 2.625 0.197413 2.625 0.439443V7.875Z" fill="#E8173D"/>
</svg>
