<svg width="24" height="24" viewBox="0 0 24 24" fill="none" xmlns="http://www.w3.org/2000/svg">
<rect x="0.5" y="0.5" width="23" height="23" rx="5.5" stroke="#98A0A9"/>
<path d="M14.5 6.5C14.5 5.11929 13.3807 4 12 4H6.5C5.11929 4 4 5.11929 4 6.5V17.5C4 18.8807 5.11929 20 6.5 20H12C13.3807 20 14.5 18.8807 14.5 17.5V15.5C14.5 15.2239 14.2761 15 14 15C13.7239 15 13.5 15.2239 13.5 15.5V17.5C13.5 18.3284 12.8284 19 12 19H6.5C5.67157 19 5 18.3284 5 17.5V6.5C5 5.67157 5.67157 5 6.5 5H12C12.8284 5 13.5 5.67157 13.5 6.5V8.5C13.5 8.77614 13.7239 9 14 9C14.2761 9 14.5 8.77614 14.5 8.5V6.5Z" fill="#323539"/>
<path d="M16.1457 8.64655C16.3409 8.45126 16.6575 8.45123 16.8528 8.64647L19.8535 11.6465C19.9473 11.7402 20 11.8674 20 12.0001C20 12.1327 19.9473 12.2599 19.8535 12.3537L16.8528 15.3537C16.6575 15.5489 16.3409 15.5489 16.1457 15.3536C15.9505 15.1583 15.9505 14.8417 16.1458 14.6465L18.2928 12.5H9C8.72386 12.5 8.5 12.2761 8.5 12C8.5 11.7239 8.72386 11.5 9 11.5H18.2926L16.1458 9.35366C15.9505 9.15842 15.9505 8.84184 16.1457 8.64655Z" fill="#323539"/>
<zoom style="dark" value="||:#F5F5F5|:#F5F5F5"/>
</svg>
