<svg width="16" height="16" viewBox="0 0 16 16" fill="none" xmlns="http://www.w3.org/2000/svg">
<path d="M3.4 1H12.6C13.0365 1 13.3038 1.00078 13.5038 1.01712C13.5969 1.02473 13.6533 1.03429 13.6875 1.04235C13.7038 1.04618 13.7138 1.04939 13.7192 1.05133C13.7244 1.05318 13.727 1.0545 13.727 1.0545C13.8211 1.10243 13.8976 1.17892 13.9455 1.273C13.9455 1.273 13.9468 1.27559 13.9487 1.28079C13.9506 1.2862 13.9538 1.29622 13.9577 1.3125C13.9657 1.34673 13.9753 1.40308 13.9829 1.49623C13.9992 1.6962 14 1.96346 14 2.4V7.6C14 8.03654 13.9992 8.3038 13.9829 8.50377C13.9753 8.59692 13.9657 8.65327 13.9577 8.6875C13.9538 8.70378 13.9506 8.7138 13.9487 8.71921C13.9475 8.72247 13.9461 8.72574 13.9461 8.72574L13.9455 8.727C13.8976 8.82108 13.8211 8.89757 13.727 8.9455L13.7236 8.94701L13.7192 8.94867C13.7138 8.95061 13.7038 8.95382 13.6875 8.95765C13.6533 8.96571 13.5969 8.97527 13.5038 8.98288C13.3038 8.99922 13.0365 9 12.6 9H12.5C12.2239 9 12 9.22386 12 9.5C12 9.77614 12.2239 10 12.5 10H12.6C13.4401 10 13.8601 10 14.181 9.83651C14.4632 9.6927 14.6927 9.46323 14.8365 9.18099C15 8.86012 15 8.44008 15 7.6V2.4C15 1.55992 15 1.13988 14.8365 0.819014C14.6927 0.536771 14.4632 0.3073 14.181 0.16349C13.8601 0 13.4401 0 12.6 0H3.4C2.55992 0 2.13988 0 1.81901 0.16349C1.53677 0.3073 1.3073 0.536771 1.16349 0.819014C1 1.13988 1 1.55992 1 2.4V7.6C1 8.44008 1 8.86012 1.16349 9.18099C1.3073 9.46323 1.53677 9.6927 1.81901 9.83651C2.13988 10 2.55992 10 3.4 10H3.5C3.77614 10 4 9.77614 4 9.5C4 9.22386 3.77614 9 3.5 9H3.4C2.96346 9 2.6962 8.99922 2.49623 8.98288C2.40308 8.97527 2.34673 8.96571 2.3125 8.95765C2.29622 8.95382 2.2862 8.95061 2.28079 8.94867C2.27559 8.94682 2.273 8.9455 2.273 8.9455C2.17892 8.89757 2.10243 8.82108 2.0545 8.727C2.0545 8.727 2.05318 8.72441 2.05133 8.71921C2.04939 8.7138 2.04618 8.70378 2.04235 8.6875C2.03429 8.65327 2.02473 8.59692 2.01712 8.50377C2.00078 8.3038 2 8.03654 2 7.6V2.4C2 1.96346 2.00078 1.6962 2.01712 1.49623C2.02473 1.40308 2.03429 1.34673 2.04235 1.3125C2.04618 1.29622 2.04939 1.2862 2.05133 1.28079C2.05318 1.27559 2.0545 1.273 2.0545 1.273C2.10243 1.17892 2.17892 1.10243 2.273 1.0545C2.273 1.0545 2.27559 1.05318 2.28079 1.05133C2.2862 1.04939 2.29622 1.04618 2.3125 1.04235C2.34673 1.03429 2.40308 1.02473 2.49623 1.01712C2.6962 1.00078 2.96346 1 3.4 1Z" fill="#131619"/>
<path d="M8.5 2C8.5 2.27614 8.27614 2.5 8 2.5C7.72386 2.5 7.5 2.27614 7.5 2C7.5 1.72386 7.72386 1.5 8 1.5C8.27614 1.5 8.5 1.72386 8.5 2Z" fill="#131619"/>
<path fill-rule="evenodd" clip-rule="evenodd" d="M8.00195 9.99993C9.6588 9.99993 11.0019 8.65679 11.0019 6.99994C11.0019 5.34308 9.6588 3.99994 8.00195 3.99994C6.3451 3.99994 5.00195 5.34308 5.00195 6.99994C5.00195 8.65679 6.3451 9.99993 8.00195 9.99993ZM8.00195 8.99993C9.10652 8.99993 10.0019 8.1045 10.0019 6.99994C10.0019 5.89537 9.10652 4.99994 8.00195 4.99994C6.89738 4.99994 6.00195 5.89537 6.00195 6.99994C6.00195 8.1045 6.89738 8.99993 8.00195 8.99993Z" fill="#131619"/>
<path fill-rule="evenodd" clip-rule="evenodd" d="M8 11.4999C5 11.4999 2.75 12.8431 2.75 14.4999C2.75 15.3284 3.52513 15.9999 4.25 15.9999H11.75C12.4749 15.9999 13.25 15.3284 13.25 14.4999C13.25 12.8431 11 11.4999 8 11.4999ZM3.91862 14.8372C4.04823 14.9609 4.18489 14.9999 4.25 14.9999H11.75C11.8151 14.9999 11.9518 14.9609 12.0814 14.8372C12.2045 14.7197 12.25 14.5943 12.25 14.4999C12.25 14.1686 12.022 13.6917 11.2489 13.244C10.4943 12.807 9.36317 12.4999 8 12.4999C6.63682 12.4999 5.5057 12.807 4.75112 13.244C3.97795 13.6917 3.75 14.1686 3.75 14.4999C3.75 14.5943 3.79551 14.7197 3.91862 14.8372Z" fill="#131619"/>
<zoom style="dark" value="|:#F5F5F5|:#F5F5F5|:#F5F5F5|:#F5F5F5"/>
</svg>
