<svg width="201" height="46" viewBox="0 0 201 46" fill="none" xmlns="http://www.w3.org/2000/svg">
<path d="M41.9545 44.7481H6.36405C4.01146 44.7481 1.77952 43.5135 0.693711 41.4056C-0.542905 38.9965 -0.090484 36.1057 1.80968 34.2085L26.5722 9.48564H8.83728C3.95114 9.48564 0 5.54082 0 0.662489H32.7854C35.138 0.662489 37.3699 1.89713 38.4557 4.00505C39.6924 6.4141 39.2399 9.30496 37.3398 11.2021L12.5773 35.925H33.1172C38.0033 35.925 41.9545 39.8698 41.9545 44.7481ZM182.808 0C177.711 0 173.126 2.19826 169.989 5.7215C166.823 2.19826 162.238 0 157.171 0C147.7 0 139.979 8.07032 139.979 17.4957V44.7481C144.865 44.7481 148.816 40.8033 148.816 35.925V17.4054C148.816 12.8583 152.345 9.00383 156.869 8.82315C161.635 8.64247 165.586 12.4668 165.586 17.1946V35.925C165.586 40.8033 169.537 44.7481 174.423 44.7481V17.4054C174.423 12.8583 177.952 9.00383 182.476 8.82315C187.242 8.64247 191.193 12.4668 191.193 17.1946V35.925C191.193 40.8033 195.144 44.7481 200.03 44.7481V17.4957C200 8.07032 192.279 0 182.808 0ZM86.533 22.7053C86.533 35.2324 76.3384 45.4106 63.7913 45.4106C51.2442 45.4106 41.0496 35.2324 41.0496 22.7053C41.0496 10.1782 51.2743 0 63.7913 0C76.3083 0 86.533 10.1782 86.533 22.7053V22.7053ZM77.6957 22.7053C77.6957 15.0566 71.4523 8.82315 63.7913 8.82315C56.1303 8.82315 49.8869 15.0566 49.8869 22.7053C49.8869 30.3541 56.1303 36.5875 63.7913 36.5875C71.4523 36.5875 77.6957 30.3541 77.6957 22.7053ZM135.545 22.7053C135.545 35.2324 125.351 45.4106 112.804 45.4106C100.256 45.4106 90.0618 35.2324 90.0618 22.7053C90.0618 10.1782 100.287 0 112.804 0C125.32 0 135.545 10.1782 135.545 22.7053ZM126.708 22.7053C126.708 15.0566 120.465 8.82315 112.804 8.82315C105.143 8.82315 98.8991 15.0566 98.8991 22.7053C98.8991 30.3541 105.143 36.5875 112.804 36.5875C120.465 36.5875 126.708 30.3541 126.708 22.7053Z" fill="#0B5CFF"/>
<zoom style="white" value = "|:#FFFFFF"/>
</svg>
