<svg width="48" height="48" viewBox="0 0 48 48" fill="none" xmlns="http://www.w3.org/2000/svg">
<path d="M48 24C48 26.5665 47.7937 29.083 47.3995 31.5369C46.0948 39.6602 39.6601 46.0948 31.5368 47.3995C29.0829 47.7937 26.5663 48 24 48C21.4337 48 18.9171 47.7937 16.4632 47.3995C8.33989 46.0948 1.90518 39.6602 0.600468 31.5369C0.206341 29.0831 0 26.5665 0 24C0 21.4335 0.206341 18.917 0.600468 16.4631C1.90518 8.33981 8.33989 1.90517 16.4632 0.600464C18.9171 0.206337 21.4337 0 24 0C26.5663 0 29.0829 0.206337 31.5368 0.600464C39.6601 1.90517 46.0948 8.33981 47.3995 16.4631C47.7937 18.9169 48 21.4335 48 24Z" fill="#0B5CFF"/>
<path d="M48 24C48 26.5665 47.7937 29.083 47.3995 31.5369C46.0948 39.6602 39.6601 46.0948 31.5368 47.3995C29.0829 47.7937 26.5663 48 24 48C21.4337 48 18.9171 47.7937 16.4632 47.3995C8.33989 46.0948 1.90518 39.6602 0.600468 31.5369C0.206341 29.0831 0 26.5665 0 24C0 21.4335 0.206341 18.917 0.600468 16.4631C1.90518 8.33981 8.33989 1.90517 16.4632 0.600464C18.9171 0.206337 21.4337 0 24 0C26.5663 0 29.0829 0.206337 31.5368 0.600464C39.6601 1.90517 46.0948 8.33981 47.3995 16.4631C47.7937 18.9169 48 21.4335 48 24Z" fill="url(#paint0_radial_1250_271577)"/>
<path d="M47.9998 24C47.9998 26.5664 47.7935 29.083 47.3994 31.5368C46.0946 39.6602 39.6599 46.0948 31.5366 47.3994C29.0828 47.7936 26.5662 47.9999 23.9999 47.9999C21.4336 47.9999 18.917 47.7936 16.4631 47.3994C8.33972 46.0948 1.90509 39.6602 0.600383 31.5368C0.206255 29.0829 0 26.5664 0 24C0 21.4336 0.206255 18.9169 0.600383 16.4631C1.90518 8.33981 8.33981 1.905 16.4631 0.600382C18.9171 0.206255 21.4335 0 23.9999 0C26.5663 0 29.0829 0.206255 31.5366 0.600382C39.66 1.905 46.0947 8.33981 47.3994 16.4631C47.7935 18.9169 47.9998 21.4335 47.9998 24Z" fill="url(#paint1_radial_1250_271577)"/>
<g clip-path="url(#clip0_1250_271577)">
<path d="M28.4382 19.6056C30.4912 21.7514 33.3594 23.0137 36.1033 23.9604C37.1189 24.3107 37.1102 25.758 36.088 26.0953C33.3332 27.0028 30.4346 28.2411 28.2835 30.3521C26.1324 32.4631 24.84 35.314 23.9224 38.2106C23.5955 39.2422 22.144 39.2727 21.78 38.252C20.7818 35.4511 19.6725 32.6546 17.5214 30.5066C15.3855 28.3739 12.5435 27.0463 9.76476 26.0822C8.75568 25.7319 8.74042 24.3086 9.74733 23.9517C12.4716 22.9876 15.4161 21.7057 17.5214 19.6035C19.6267 17.5012 20.9605 14.6655 21.9195 11.9342C22.2726 10.931 23.6914 10.9332 24.0488 11.9342C25.0884 14.8483 26.4244 17.4968 28.4382 19.6035V19.6056Z" fill="white"/>
<path d="M35.9227 12.0772C36.6724 12.8606 37.7207 13.322 38.7233 13.668C39.0938 13.7964 39.0916 14.3253 38.7189 14.4471C37.712 14.7779 36.6528 15.2306 35.866 16.0032C35.0705 16.7845 34.6085 17.816 34.2729 18.8737C34.153 19.2502 33.6234 19.2611 33.4904 18.8889C33.1265 17.8661 32.7211 16.8432 31.9343 16.0598C31.1475 15.2763 30.1145 14.7953 29.0989 14.4428C28.7305 14.3144 28.724 13.7943 29.0923 13.6637C30.0883 13.3111 31.165 12.8432 31.9321 12.075C32.6993 11.3068 33.1897 10.2709 33.5384 9.27195C33.667 8.90634 34.1857 8.90634 34.3165 9.27195C34.6957 10.3362 35.1839 11.3046 35.9205 12.075L35.9227 12.0772Z" fill="white"/>
</g>
<defs>
<radialGradient id="paint0_radial_1250_271577" cx="0" cy="0" r="1" gradientUnits="userSpaceOnUse" gradientTransform="translate(24 21.211) scale(32.3583 27.0444)">
<stop offset="0.82" stop-color="#0B5CFF" stop-opacity="0"/>
<stop offset="0.98" stop-color="#003CB3"/>
</radialGradient>
<radialGradient id="paint1_radial_1250_271577" cx="0" cy="0" r="1" gradientUnits="userSpaceOnUse" gradientTransform="translate(23.9999 26.779) scale(32.3467 27.0347)">
<stop offset="0.8" stop-color="#0B5CFF" stop-opacity="0"/>
<stop offset="1" stop-color="#71A5F1"/>
</radialGradient>
<clipPath id="clip0_1250_271577">
<rect width="30" height="30" fill="white" transform="translate(9 9)"/>
</clipPath>
</defs>
</svg>
