<svg width="14" height="14" viewBox="0 0 14 14" fill="none" xmlns="http://www.w3.org/2000/svg">
<path d="M13.9952 6.98748L13.9781 7.18777L13 12.0489C12.7057 13.1953 11.673 13.9974 10.4893 13.9988L9.5 14H3.9375C3.69588 14 3.5 13.8041 3.5 13.5625V5.76233C3.5 5.58684 3.60627 5.43074 3.76054 5.34709C4.96331 4.69494 5.80286 3.22486 5.84182 1.80585C5.83923 1.7761 5.83963 1.77201 5.84043 1.76375C5.84102 1.75769 5.84182 1.74939 5.84182 1.72704C5.84182 0.77326 6.60093 0 7.53751 0C8.34229 0 9.01461 0.571576 9.18828 1.33743C9.28373 1.77466 9.34435 2.22741 9.34435 2.69384C9.34435 3.41301 9.21439 4.44587 8.99381 5.08824L12.2472 5.09182C12.2772 5.09182 12.3064 5.09486 12.3352 5.09936C12.8907 5.12159 13.4257 5.41292 13.7409 5.93027C13.9414 6.25928 14.0213 6.62897 13.9952 6.98748Z" fill="#268543"/>
<path d="M2.625 6.125C2.625 5.88338 2.42912 5.6875 2.1875 5.6875H0.875C0.391751 5.6875 0 6.07925 0 6.5625V13.1199C0 13.6024 0.390488 13.9938 0.872926 13.9949L2.18646 13.9981C2.42849 13.9986 2.625 13.8026 2.625 13.5606V6.125Z" fill="#268543"/>
</svg>
