<svg width="16" height="16" viewBox="0 0 16 16" fill="none" xmlns="http://www.w3.org/2000/svg">
<path fill-rule="evenodd" clip-rule="evenodd" d="M3 0C2.17157 0 1.5 0.671573 1.5 1.5V14.5C1.5 15.3284 2.17157 16 3 16H13C13.8284 16 14.5 15.3284 14.5 14.5V1.5C14.5 0.671573 13.8284 0 13 0H3ZM2.5 1.5C2.5 1.22386 2.72386 1 3 1H8C7.72386 1 7.5 1.22386 7.5 1.5C7.5 1.77614 7.72386 2 8 2C8.27614 2 8.5 1.77614 8.5 1.5C8.5 1.22386 8.27614 1 8 1H13C13.2761 1 13.5 1.22386 13.5 1.5V14.5C13.5 14.7761 13.2761 15 13 15H3C2.72386 15 2.5 14.7761 2.5 14.5V1.5Z" fill="#131619"/>
<zoom style="dark" value="|:#F5F5F5"/>
</svg>
